<?xml version="1.0" encoding="UTF-8" standalone="no"?>
<svg
   xmlns:dc="http://purl.org/dc/elements/1.1/"
   xmlns:cc="http://creativecommons.org/ns#"
   xmlns:rdf="http://www.w3.org/1999/02/22-rdf-syntax-ns#"
   xmlns:svg="http://www.w3.org/2000/svg"
   xmlns="http://www.w3.org/2000/svg"
   xmlns:sodipodi="http://sodipodi.sourceforge.net/DTD/sodipodi-0.dtd"
   xmlns:inkscape="http://www.inkscape.org/namespaces/inkscape"
   width="736"
   height="1024"
   viewBox="0 0 194.7343 270.9333"
   version="1.1"
   id="svg3565"
   inkscape:version="1.0.2 (e86c870879, 2021-01-15, custom)"
   sodipodi:docname="Тригеры равнины.svg"
   inkscape:export-filename="C:\Users\Kolobok\Desktop\GitKnight\GameKnight\Graphics\Render_png\GrassPlainTrigger.png"
   inkscape:export-xdpi="96"
   inkscape:export-ydpi="96">
  <title
     id="title4661">Тайл размером 256x256</title>
  <defs
     id="defs3559">
    <filter
       inkscape:collect="always"
       style="color-interpolation-filters:sRGB"
       id="filter1234"
       x="-2.463367e-06"
       width="1.000005"
       y="-2.463409e-06"
       height="1.000005">
      <feGaussianBlur
         inkscape:collect="always"
         stdDeviation="1.517596e-05"
         id="feGaussianBlur1236" />
    </filter>
    <filter
       inkscape:collect="always"
       style="color-interpolation-filters:sRGB"
       id="filter1238"
       x="-2.554411e-06"
       width="1.000005"
       y="-2.541007e-06"
       height="1.000005">
      <feGaussianBlur
         inkscape:collect="always"
         stdDeviation="1.517596e-05"
         id="feGaussianBlur1240" />
    </filter>
    <filter
       inkscape:collect="always"
       style="color-interpolation-filters:sRGB"
       id="filter1242"
       x="-4.447824e-06"
       width="1.000009"
       y="-4.447744e-06"
       height="1.000009">
      <feGaussianBlur
         inkscape:collect="always"
         stdDeviation="1.517596e-05"
         id="feGaussianBlur1244" />
    </filter>
    <filter
       inkscape:collect="always"
       style="color-interpolation-filters:sRGB"
       id="filter1246"
       x="-4.663523e-06"
       width="1.000009"
       y="-4.663165e-06"
       height="1.000009">
      <feGaussianBlur
         inkscape:collect="always"
         stdDeviation="1.517596e-05"
         id="feGaussianBlur1248" />
    </filter>
    <filter
       inkscape:collect="always"
       style="color-interpolation-filters:sRGB"
       id="filter1250"
       x="-7.620482e-06"
       width="1.000015"
       y="-7.621284e-06"
       height="1.000015">
      <feGaussianBlur
         inkscape:collect="always"
         stdDeviation="1.517596e-05"
         id="feGaussianBlur1252" />
    </filter>
    <filter
       inkscape:collect="always"
       style="color-interpolation-filters:sRGB"
       id="filter1254"
       x="-1.333657e-05"
       width="1.000027"
       y="-1.841092e-06"
       height="1.000004">
      <feGaussianBlur
         inkscape:collect="always"
         stdDeviation="1.517596e-05"
         id="feGaussianBlur1256" />
    </filter>
    <filter
       inkscape:collect="always"
       style="color-interpolation-filters:sRGB"
       id="filter1258"
       x="-3.394437e-05"
       width="1.000068"
       y="-1.847873e-06"
       height="1.000004">
      <feGaussianBlur
         inkscape:collect="always"
         stdDeviation="1.517596e-05"
         id="feGaussianBlur1260" />
    </filter>
    <filter
       inkscape:collect="always"
       style="color-interpolation-filters:sRGB"
       id="filter1262"
       x="-7.75763e-06"
       width="1.000016"
       y="-3.776504e-06"
       height="1.000008">
      <feGaussianBlur
         inkscape:collect="always"
         stdDeviation="1.517596e-05"
         id="feGaussianBlur1264" />
    </filter>
    <filter
       inkscape:collect="always"
       style="color-interpolation-filters:sRGB"
       id="filter1266"
       x="-1.286544e-05"
       width="1.000026"
       y="-3.776465e-06"
       height="1.000008">
      <feGaussianBlur
         inkscape:collect="always"
         stdDeviation="1.517596e-05"
         id="feGaussianBlur1268" />
    </filter>
    <filter
       inkscape:collect="always"
       style="color-interpolation-filters:sRGB"
       id="filter1270"
       x="-7.75763e-06"
       width="1.000016"
       y="-7.553e-06"
       height="1.000015">
      <feGaussianBlur
         inkscape:collect="always"
         stdDeviation="1.517596e-05"
         id="feGaussianBlur1272" />
    </filter>
    <filter
       inkscape:collect="always"
       style="color-interpolation-filters:sRGB"
       id="filter1274"
       x="-2.463409e-06"
       width="1.000005"
       y="-2.463426e-06"
       height="1.000005">
      <feGaussianBlur
         inkscape:collect="always"
         stdDeviation="1.517596e-05"
         id="feGaussianBlur1276" />
    </filter>
    <filter
       inkscape:collect="always"
       style="color-interpolation-filters:sRGB"
       id="filter1278"
       x="-2.554401e-06"
       width="1.000005"
       y="-2.540994e-06"
       height="1.000005">
      <feGaussianBlur
         inkscape:collect="always"
         stdDeviation="1.517596e-05"
         id="feGaussianBlur1280" />
    </filter>
    <filter
       inkscape:collect="always"
       style="color-interpolation-filters:sRGB"
       id="filter1282"
       x="-4.447958e-06"
       width="1.000009"
       y="-4.447757e-06"
       height="1.000009">
      <feGaussianBlur
         inkscape:collect="always"
         stdDeviation="1.517596e-05"
         id="feGaussianBlur1284" />
    </filter>
    <filter
       inkscape:collect="always"
       style="color-interpolation-filters:sRGB"
       id="filter1286"
       x="-4.663077e-06"
       width="1.000009"
       y="-4.663225e-06"
       height="1.000009">
      <feGaussianBlur
         inkscape:collect="always"
         stdDeviation="1.517596e-05"
         id="feGaussianBlur1288" />
    </filter>
    <filter
       inkscape:collect="always"
       style="color-interpolation-filters:sRGB"
       id="filter1290"
       x="-7.622081e-06"
       width="1.000015"
       y="-7.62112e-06"
       height="1.000015">
      <feGaussianBlur
         inkscape:collect="always"
         stdDeviation="1.517596e-05"
         id="feGaussianBlur1292" />
    </filter>
  </defs>
  <sodipodi:namedview
     id="base"
     pagecolor="#ffffff"
     bordercolor="#666666"
     borderopacity="1.0"
     inkscape:pageopacity="0.0"
     inkscape:pageshadow="2"
     inkscape:zoom="0.5"
     inkscape:cx="116.8677"
     inkscape:cy="432.4482"
     inkscape:document-units="mm"
     inkscape:current-layer="layer1"
     showgrid="true"
     units="px"
     width="256px"
     inkscape:snap-global="true"
     inkscape:snap-others="false"
     inkscape:object-nodes="false"
     inkscape:snap-nodes="true"
     inkscape:snap-to-guides="false"
     inkscape:snap-bbox="false"
     inkscape:snap-intersection-paths="false"
     inkscape:object-paths="false"
     inkscape:document-rotation="0"
     inkscape:window-width="1920"
     inkscape:window-height="1017"
     inkscape:window-x="-8"
     inkscape:window-y="-8"
     inkscape:window-maximized="1">
    <inkscape:grid
       type="xygrid"
       id="grid5244"
       units="px"
       spacingx="38.09999"
       spacingy="38.09999"
       empspacing="1"
       originx="0"
       color="#ff3fff"
       opacity="0.1254902"
       dotted="false"
       enabled="true" />
    <inkscape:grid
       type="xygrid"
       id="grid25315"
       units="px"
       spacingx="38.09999"
       spacingy="38.09999"
       enabled="true"
       empspacing="1"
       originx="4.233332"
       originy="4.233332" />
    <inkscape:grid
       type="xygrid"
       id="grid25394"
       spacingx="38.10019"
       spacingy="38.1"
       empspacing="1"
       originx="3.96877"
       units="px"
       empcolor="#ff3f00"
       empopacity="0.2509804"
       originy="3.96875" />
    <inkscape:grid
       type="xygrid"
       id="grid979"
       units="px"
       spacingx="38.10019"
       spacingy="38.1"
       originy="0.2645833"
       empspacing="1"
       empcolor="#ff3f00"
       empopacity="0.2509804"
       originx="0.2645846" />
  </sodipodi:namedview>
  <metadata
     id="metadata3562">
    <rdf:RDF>
      <cc:Work
         rdf:about="">
        <dc:format>image/svg+xml</dc:format>
        <dc:type
           rdf:resource="http://purl.org/dc/dcmitype/StillImage" />
        <dc:title>Тайл размером 256x256</dc:title>
      </cc:Work>
    </rdf:RDF>
  </metadata>
  <g
     inkscape:label="Layer 1"
     inkscape:groupmode="layer"
     id="layer1"
     transform="translate(0,-26.0667)">
    <polygon
       class="fil48"
       points="-377459.6,120762.1 -386508.4,120762.1 -386508.4,113089.2 -377459.6,113089.2 "
       id="polygon7650"
       transform="matrix(0.001466,0,0,0.001466,587.6083,100.5573)"
       style="clip-rule:evenodd;fill:#99cc33;fill-rule:evenodd;image-rendering:optimizeQuality;shape-rendering:geometricPrecision;text-rendering:geometricPrecision" />
    <path
       class="fil4"
       d="m 21.05383,265.9491 v 26.0244 c 0,0.4096 -0.33486,0.7448 -0.74442,0.7448 v 0 c -0.40953,0 -0.74493,-0.3352 -0.74493,-0.7448 v -26.0244 c 0,-0.4096 0.3354,-0.7448 0.74493,-0.7448 v 0 c 0.40956,0 0.74442,0.3352 0.74442,0.7448 z"
       id="path7652"
       style="clip-rule:evenodd;fill:#996633;fill-rule:evenodd;stroke-width:0.001466;image-rendering:optimizeQuality;shape-rendering:geometricPrecision;text-rendering:geometricPrecision" />
    <path
       class="fil29"
       d="m 20.1082,292.6846 c -0.58898,-0.1535 -0.54372,-0.4537 -0.54372,-1.0057 v -25.4242 c 0,-0.498 0.25196,-0.9175 0.5857,-1.0206 -0.0273,0.1084 -0.042,0.2247 -0.042,0.3457 z"
       id="path7654"
       style="clip-rule:evenodd;fill:#813d09;fill-rule:evenodd;stroke-width:0.001466;image-rendering:optimizeQuality;shape-rendering:geometricPrecision;text-rendering:geometricPrecision" />
    <path
       class="fil64"
       d="m 21.60028,260.1675 v 2.6997 c 0,0.7039 -0.57592,1.2799 -1.27994,1.2799 v 0 c -0.70404,0 -1.27993,-0.576 -1.27993,-1.2799 v -2.6997 c 0,-0.704 0.57589,-1.2799 1.27993,-1.2799 v 0 c 0.70402,0 1.27994,0.5759 1.27994,1.2799 z"
       id="path7656"
       style="clip-rule:evenodd;fill:#b3b3b3;fill-rule:evenodd;stroke-width:0.001466;image-rendering:optimizeQuality;shape-rendering:geometricPrecision;text-rendering:geometricPrecision" />
    <path
       class="fil5"
       d="m 20.58428,264.147 c -0.0851,0.018 -0.17342,0.028 -0.26394,0.028 v 0 c -0.70404,0 -1.27993,-0.576 -1.27993,-1.28 v -2.6996 c 0,-0.704 0.57589,-1.28 1.27993,-1.28 v 0 c 0.0905,0 0.17886,0.01 0.26394,0.028 -0.5786,0.1225 -1.01598,0.6388 -1.01598,1.2524 v 2.6996 c 0,0.6137 0.43738,1.1301 1.01598,1.2525 z"
       id="path7658"
       style="clip-rule:evenodd;fill:#cccccc;fill-rule:evenodd;stroke-width:0.001466;image-rendering:optimizeQuality;shape-rendering:geometricPrecision;text-rendering:geometricPrecision" />
    <path
       class="fil64"
       d="m 21.60028,264.9461 v 0.07 c 0,0.704 -0.57592,1.28 -1.27994,1.28 v 0 c -0.70404,0 -1.27993,-0.576 -1.27993,-1.28 v -0.07 c 0,-0.704 0.57589,-1.28 1.27993,-1.28 v 0 c 0.70402,0 1.27994,0.576 1.27994,1.28 z"
       id="path7660"
       style="clip-rule:evenodd;fill:#b3b3b3;fill-rule:evenodd;stroke-width:0.001466;image-rendering:optimizeQuality;shape-rendering:geometricPrecision;text-rendering:geometricPrecision" />
    <polygon
       class="fil38"
       points="-386455.5,120762.1 -387484.4,120762.1 -387484.4,113089.2 -386455.5,113089.2 "
       id="polygon7662"
       transform="matrix(0.001466,0,0,0.001466,587.6083,100.5573)"
       style="clip-rule:evenodd;fill:#669933;fill-rule:evenodd;image-rendering:optimizeQuality;shape-rendering:geometricPrecision;text-rendering:geometricPrecision" />
    <polygon
       class="fil50"
       points="-364691,113089.2 -355642.3,113089.2 -355642.3,120762.1 -364691,120762.1 "
       id="polygon34476"
       transform="matrix(0.0014695,0,0,0.0014695,633.317,100.1901)"
       style="clip-rule:evenodd;fill:#669933;fill-rule:evenodd;image-rendering:optimizeQuality;shape-rendering:geometricPrecision;text-rendering:geometricPrecision" />
    <path
       class="fil4"
       d="m 97.47775,265.9744 v 26.0862 c 0,0.4106 -0.33564,0.7465 -0.7467,0.7465 v 0 c -0.41053,0 -0.74619,-0.3359 -0.74619,-0.7465 v -26.0862 c 0,-0.4106 0.33566,-0.7465 0.74619,-0.7465 v 0 c 0.41106,0 0.7467,0.3359 0.7467,0.7465 z"
       id="path34478"
       style="clip-rule:evenodd;fill:#996633;fill-rule:evenodd;stroke-width:0.0014695;image-rendering:optimizeQuality;shape-rendering:geometricPrecision;text-rendering:geometricPrecision" />
    <path
       class="fil29"
       d="m 96.52931,292.7734 c -0.59032,-0.1539 -0.54445,-0.4548 -0.54445,-1.0081 v -25.4846 c 0,-0.4992 0.25255,-0.9196 0.5871,-1.023 -0.0273,0.1087 -0.0427,0.2253 -0.0427,0.3465 z"
       id="path34480"
       style="clip-rule:evenodd;fill:#813d09;fill-rule:evenodd;stroke-width:0.0014695;image-rendering:optimizeQuality;shape-rendering:geometricPrecision;text-rendering:geometricPrecision" />
    <path
       class="fil64"
       d="m 98.02548,260.1791 v 2.7061 c 0,0.7056 -0.57727,1.283 -1.28298,1.283 v 0 c -0.70568,0 -1.28295,-0.5774 -1.28295,-1.283 v -2.7061 c 0,-0.7057 0.57727,-1.283 1.28295,-1.283 v 0 c 0.70571,0 1.28298,0.5773 1.28298,1.283 z"
       id="path34482"
       style="clip-rule:evenodd;fill:#b3b3b3;fill-rule:evenodd;stroke-width:0.0014695;image-rendering:optimizeQuality;shape-rendering:geometricPrecision;text-rendering:geometricPrecision" />
    <path
       class="fil5"
       d="m 97.0071,264.168 c -0.0858,0.018 -0.17383,0.028 -0.2646,0.028 v 0 c -0.70568,0 -1.28295,-0.5773 -1.28295,-1.283 v -2.706 c 0,-0.7057 0.57727,-1.283 1.28295,-1.283 v 0 c 0.0908,0 0.17877,0.01 0.2646,0.028 -0.58001,0.1227 -1.01893,0.6403 -1.01893,1.2554 v 2.706 c 0,0.6151 0.43892,1.1327 1.01893,1.2554 z"
       id="path34484"
       style="clip-rule:evenodd;fill:#cccccc;fill-rule:evenodd;stroke-width:0.0014695;image-rendering:optimizeQuality;shape-rendering:geometricPrecision;text-rendering:geometricPrecision" />
    <path
       class="fil64"
       d="m 98.02548,264.9691 v 0.07 c 0,0.7056 -0.57727,1.283 -1.28298,1.283 v 0 c -0.70568,0 -1.28295,-0.5774 -1.28295,-1.283 v -0.07 c 0,-0.7057 0.57727,-1.2831 1.28295,-1.2831 v 0 c 0.70571,0 1.28298,0.5774 1.28298,1.2831 z"
       id="path34486"
       style="clip-rule:evenodd;fill:#b3b3b3;fill-rule:evenodd;stroke-width:0.0014695;image-rendering:optimizeQuality;shape-rendering:geometricPrecision;text-rendering:geometricPrecision" />
    <polygon
       class="fil141"
       points="-365667,113089.2 -364638.1,113089.2 -364638.1,120762.1 -365667,120762.1 "
       id="polygon34488"
       transform="matrix(0.0014695,0,0,0.0014695,633.317,100.1901)"
       style="clip-rule:evenodd;fill:#006633;fill-rule:evenodd;image-rendering:optimizeQuality;shape-rendering:geometricPrecision;text-rendering:geometricPrecision" />
    <path
       class="fil45"
       d="m 105.7456,270.1955 c 0.2231,0.6202 -0.5395,1.1984 -1.1987,1.1984 h -2.3796 c -0.6592,0 -1.4452,-0.5872 -1.1987,-1.1984 1.3404,-3.321 3.6712,-3.0747 4.777,0 z"
       id="path34490"
       style="clip-rule:evenodd;fill:#4d4d4d;fill-rule:evenodd;stroke-width:0.0014695;image-rendering:optimizeQuality;shape-rendering:geometricPrecision;text-rendering:geometricPrecision" />
    <path
       class="fil3"
       d="m 101.6644,270.2032 h 3.3553 c 0.9293,0 1.6891,0.7603 1.6891,1.6895 v 0 c 0,0.9292 -0.7598,1.6895 -1.6891,1.6895 h -3.3553 c -0.9293,0 -1.68961,-0.7603 -1.68961,-1.6895 v 0 c 0,-0.9292 0.76031,-1.6895 1.68961,-1.6895 z"
       id="path34492"
       style="clip-rule:evenodd;fill:#666666;fill-rule:evenodd;stroke-width:0.0014695;image-rendering:optimizeQuality;shape-rendering:geometricPrecision;text-rendering:geometricPrecision" />
    <path
       class="fil45"
       d="m 104.3145,269.818 c -0.4657,0.3611 -1.1878,0.2941 -1.3829,0.02 l -0.7069,-0.99 c -0.1957,-0.2742 0.075,-0.8552 0.6719,-1.017 3.2459,-0.8793 3.7263,0.1967 1.4179,1.987 z"
       id="path34494"
       style="clip-rule:evenodd;fill:#4d4d4d;fill-rule:evenodd;stroke-width:0.0014695;image-rendering:optimizeQuality;shape-rendering:geometricPrecision;text-rendering:geometricPrecision" />
    <path
       class="fil16"
       d="m 101.6988,270.7584 h 3.2045 c 0.6237,0 1.1342,0.5104 1.1342,1.1343 v 0 c 0,0.6238 -0.5105,1.1342 -1.1342,1.1342 h -3.2045 c -0.6236,0 -1.1342,-0.5104 -1.1342,-1.1342 v 0 c 0,-0.6239 0.5106,-1.1343 1.1342,-1.1343 z"
       id="path34496"
       style="clip-rule:evenodd;fill:#4d4d4d;fill-rule:evenodd;stroke-width:0.0014695;image-rendering:optimizeQuality;shape-rendering:geometricPrecision;text-rendering:geometricPrecision" />
    <path
       class="fil39"
       d="m 104.2604,273.2689 v 0 c 0,-0.438 0.3586,-0.7965 0.7965,-0.7965 h 0.9369 c 0.4384,0 0.797,0.3585 0.797,0.7965 v 0 c 0,0.4381 -0.3586,0.7965 -0.797,0.7965 h -0.9369 c -0.4379,0 -0.7965,-0.3584 -0.7965,-0.7965 z"
       id="path34498"
       style="clip-rule:evenodd;fill:#924c2a;fill-rule:evenodd;stroke-width:0.0014695;image-rendering:optimizeQuality;shape-rendering:geometricPrecision;text-rendering:geometricPrecision" />
    <path
       class="fil39"
       d="m 100.3585,272.7502 v 0 c 0,-0.438 0.3586,-0.7965 0.7964,-0.7965 h 0.9375 c 0.438,0 0.7966,0.3585 0.7966,0.7965 v 0 c 0,0.4381 -0.3586,0.7965 -0.7966,0.7965 h -0.9375 c -0.4378,0 -0.7964,-0.3584 -0.7964,-0.7965 z"
       id="path34500"
       style="clip-rule:evenodd;fill:#924c2a;fill-rule:evenodd;stroke-width:0.0014695;image-rendering:optimizeQuality;shape-rendering:geometricPrecision;text-rendering:geometricPrecision" />
    <path
       class="fil18"
       d="m 101.3129,274.0045 v 0 c 0.3193,0 0.58,0.2611 0.58,0.5803 v 0.6826 c 0,0.3192 -0.2607,0.5803 -0.58,0.5803 v 0 c -0.3192,0 -0.5804,-0.2611 -0.5804,-0.5803 v -0.6826 c 0,-0.3192 0.2612,-0.5803 0.5804,-0.5803 z"
       id="path34502"
       style="clip-rule:evenodd;fill:#333333;fill-rule:evenodd;stroke-width:0.0014695;image-rendering:optimizeQuality;shape-rendering:geometricPrecision;text-rendering:geometricPrecision" />
    <path
       class="fil18"
       d="m 103.8832,274.7401 h 0.5461 c 0.2378,0 0.4324,0.1946 0.4324,0.4323 v 0.9899 c 0,0.2378 -0.1946,0.4324 -0.4324,0.4324 h -0.5461 c -0.2378,0 -0.4324,-0.1946 -0.4324,-0.4324 v -0.9899 c 0,-0.2377 0.1946,-0.4323 0.4324,-0.4323 z"
       id="path34504"
       style="clip-rule:evenodd;fill:#333333;fill-rule:evenodd;stroke-width:0.0014695;image-rendering:optimizeQuality;shape-rendering:geometricPrecision;text-rendering:geometricPrecision" />
    <path
       class="fil18"
       d="m 102.1651,274.7401 h 0.5462 c 0.2378,0 0.4323,0.1946 0.4323,0.4323 v 0.9899 c 0,0.2378 -0.1945,0.4324 -0.4323,0.4324 h -0.5462 c -0.2377,0 -0.4323,-0.1946 -0.4323,-0.4324 v -0.9899 c 0,-0.2377 0.1946,-0.4323 0.4323,-0.4323 z"
       id="path34506"
       style="clip-rule:evenodd;fill:#333333;fill-rule:evenodd;stroke-width:0.0014695;image-rendering:optimizeQuality;shape-rendering:geometricPrecision;text-rendering:geometricPrecision" />
    <path
       class="fil16"
       d="m 102.6151,270.9427 h 1.5808 c 0.8418,0 1.5306,0.6889 1.5306,1.5308 v 1.9134 c 0,0.842 -0.6888,1.5308 -1.5306,1.5308 h -1.5808 c -0.8419,0 -1.5306,-0.6888 -1.5306,-1.5308 v -1.9134 c 0,-0.8419 0.6887,-1.5308 1.5306,-1.5308 z"
       id="path34508"
       style="clip-rule:evenodd;fill:#4d4d4d;fill-rule:evenodd;stroke-width:0.0014695;image-rendering:optimizeQuality;shape-rendering:geometricPrecision;text-rendering:geometricPrecision" />
    <path
       class="fil18"
       d="m 103.7007,270.9447 h 0.499 c 0.8424,0 1.5312,0.6889 1.5312,1.5308 v 1.9134 c 0,0.842 -0.6888,1.5309 -1.5312,1.5309 h -0.445 c 0.3182,-0.2811 0.5199,-0.6915 0.5199,-1.1469 v -2.6358 c 0,-0.4806 -0.2246,-0.9112 -0.5739,-1.1924 z"
       id="path34510"
       style="clip-rule:evenodd;fill:#333333;fill-rule:evenodd;stroke-width:0.0014695;image-rendering:optimizeQuality;shape-rendering:geometricPrecision;text-rendering:geometricPrecision" />
    <path
       class="fil16"
       d="m 102.5851,273.6096 h 1.7038 c 0.9079,0 1.6508,0.7428 1.6508,1.6506 v 0.7944 c -1.963,0.1608 -3.0436,0.1726 -5.0055,0 v -0.7944 c 0,-0.9078 0.7428,-1.6506 1.6509,-1.6506 z"
       id="path34512"
       style="clip-rule:evenodd;fill:#4d4d4d;fill-rule:evenodd;stroke-width:0.0014695;image-rendering:optimizeQuality;shape-rendering:geometricPrecision;text-rendering:geometricPrecision" />
    <path
       class="fil16"
       d="m 100.6772,274.0668 v 0 c 0,-0.3192 0.2613,-0.5803 0.5805,-0.5803 h 0.6828 c 0.3193,0 0.5801,0.2611 0.5801,0.5803 v 0 c 0,0.3191 -0.2608,0.5803 -0.5801,0.5803 h -0.6828 c -0.3192,0 -0.5805,-0.2612 -0.5805,-0.5803 z"
       id="path34514"
       style="clip-rule:evenodd;fill:#4d4d4d;fill-rule:evenodd;stroke-width:0.0014695;image-rendering:optimizeQuality;shape-rendering:geometricPrecision;text-rendering:geometricPrecision" />
    <path
       class="fil79"
       d="m 101.1287,273.7999 v 0 c 0,-0.1221 0.099,-0.2219 0.2219,-0.2219 h 0.6363 c 0.1219,0 0.222,0.1 0.222,0.2219 v 0 c 0,0.1221 -0.1001,0.2219 -0.222,0.2219 h -0.6363 c -0.1224,0 -0.2219,-0.1 -0.2219,-0.2219 z"
       id="path34516"
       style="clip-rule:evenodd;fill:#99ff99;fill-rule:evenodd;stroke-width:0.0014695;image-rendering:optimizeQuality;shape-rendering:geometricPrecision;text-rendering:geometricPrecision" />
    <path
       class="fil55"
       d="m 104.2724,273.6073 h 0.022 c 0.9074,0 1.6503,0.7428 1.6503,1.6506 v 0.7944 c -0.6876,0.074 -1.3595,0.115 -2.0433,0.1213 0.2066,-0.3253 0.3706,-0.8676 0.3706,-1.2854 z"
       id="path34518"
       style="clip-rule:evenodd;fill:#333333;fill-rule:evenodd;stroke-width:0.0014695;image-rendering:optimizeQuality;shape-rendering:geometricPrecision;text-rendering:geometricPrecision" />
    <path
       class="fil0"
       d="m 100.7078,271.7884 v 0 c 0,-0.5208 0.4258,-0.9468 0.9468,-0.9468 h 3.276 c 0.5209,0 0.9467,0.426 0.9467,0.9468 v 0 c 0,0.5206 -0.4258,0.9467 -0.9467,0.9467 h -3.276 c -0.521,0 -0.9468,-0.4261 -0.9468,-0.9467 z"
       id="path34520"
       style="clip-rule:evenodd;fill:#af5e31;fill-rule:evenodd;stroke-width:0.0014695;image-rendering:optimizeQuality;shape-rendering:geometricPrecision;text-rendering:geometricPrecision" />
    <path
       class="fil79"
       d="m 103.7526,271.9491 h -1.9001 c -0.4259,0 -0.774,0.3482 -0.774,0.7737 v 0 c 0,0.4255 0.3481,0.7737 0.774,0.7737 h 1.9001 c 0.4253,0 0.7735,-0.3482 0.7735,-0.7737 v 0 c 0,-0.4255 -0.3482,-0.7737 -0.7735,-0.7737 z"
       id="path34522"
       style="clip-rule:evenodd;fill:#99ff99;fill-rule:evenodd;stroke-width:0.0014695;image-rendering:optimizeQuality;shape-rendering:geometricPrecision;text-rendering:geometricPrecision" />
    <path
       class="fil3"
       d="m 103.6727,272.3583 v 0 c -0.1535,0 -0.2793,0.1259 -0.2793,0.2797 v 0.329 c 0,0.1538 0.1258,0.2796 0.2793,0.2796 v 0 c 0.1537,0 0.28,-0.1258 0.28,-0.2796 v -0.329 c 0,-0.1538 -0.1263,-0.2797 -0.28,-0.2797 z"
       id="path34524"
       style="clip-rule:evenodd;fill:#666666;fill-rule:evenodd;stroke-width:0.0014695;image-rendering:optimizeQuality;shape-rendering:geometricPrecision;text-rendering:geometricPrecision" />
    <path
       class="fil3"
       d="m 102.1482,272.3583 v 0 c -0.1536,0 -0.2799,0.1259 -0.2799,0.2797 v 0.329 c 0,0.1538 0.1263,0.2796 0.2799,0.2796 v 0 c 0.1537,0 0.28,-0.1258 0.28,-0.2796 v -0.329 c 0,-0.1538 -0.1263,-0.2797 -0.28,-0.2797 z"
       id="path34526"
       style="clip-rule:evenodd;fill:#666666;fill-rule:evenodd;stroke-width:0.0014695;image-rendering:optimizeQuality;shape-rendering:geometricPrecision;text-rendering:geometricPrecision" />
    <path
       class="fil36"
       d="m 104.2287,272.8152 v 0 c 0,-0.4381 0.3586,-0.7965 0.7965,-0.7965 h 0.9375 c 0.4378,0 0.7964,0.3584 0.7964,0.7965 v 0 c 0,0.438 -0.3586,0.7965 -0.7964,0.7965 h -0.9375 c -0.4379,0 -0.7965,-0.3585 -0.7965,-0.7965 z"
       id="path34528"
       style="clip-rule:evenodd;fill:#cc7643;fill-rule:evenodd;stroke-width:0.0014695;image-rendering:optimizeQuality;shape-rendering:geometricPrecision;text-rendering:geometricPrecision" />
    <path
       class="fil18"
       d="m 102.397,274.4178 c -0.106,0.1387 -0.2734,0.2287 -0.4609,0.2287 h -0.6828 c -0.1448,0 -0.2771,-0.054 -0.3793,-0.142 0.346,0.1408 1.2026,0.163 1.523,-0.087 z"
       id="path34530"
       style="clip-rule:evenodd;fill:#333333;fill-rule:evenodd;stroke-width:0.0014695;image-rendering:optimizeQuality;shape-rendering:geometricPrecision;text-rendering:geometricPrecision" />
    <path
       class="fil79"
       d="m 102.778,273.0158 v 0 c 0.1279,0 0.2322,0.1047 0.2322,0.2325 v 0.2736 c 0,0.1278 -0.1043,0.2325 -0.2322,0.2325 v 0 c -0.1279,0 -0.2328,-0.1047 -0.2328,-0.2325 v -0.2736 c 0,-0.1278 0.1049,-0.2325 0.2328,-0.2325 z"
       id="path34532"
       style="clip-rule:evenodd;fill:#99ff99;fill-rule:evenodd;stroke-width:0.0014695;image-rendering:optimizeQuality;shape-rendering:geometricPrecision;text-rendering:geometricPrecision" />
    <path
       class="fil4"
       d="m 100.6144,275.7532 h 5.9561 c 0.1202,0 0.2187,0.098 0.2187,0.2184 v 0 c 0,0.1202 -0.098,0.2185 -0.2187,0.2185 h -5.9561 c -0.1197,0 -0.2181,-0.098 -0.2181,-0.2185 v 0 c 0,-0.1201 0.098,-0.2184 0.2181,-0.2184 z"
       id="path34534"
       style="clip-rule:evenodd;fill:#996633;fill-rule:evenodd;stroke-width:0.0014695;image-rendering:optimizeQuality;shape-rendering:geometricPrecision;text-rendering:geometricPrecision" />
    <path
       class="fil29"
       d="m 106.7809,276.0307 c -0.028,0.092 -0.1224,0.1594 -0.2334,0.1594 h -5.9074 c -0.1159,0 -0.2132,-0.074 -0.2373,-0.1717 0.025,0.01 0.052,0.012 0.08,0.012 z"
       id="path34536"
       style="clip-rule:evenodd;fill:#813d09;fill-rule:evenodd;stroke-width:0.0014695;image-rendering:optimizeQuality;shape-rendering:geometricPrecision;text-rendering:geometricPrecision" />
    <path
       class="fil65"
       d="m 108.4788,275.7019 c 0.1323,0.1337 0.1492,0.3236 0.05,0.4715 0.097,0.2989 -0.2788,0.6678 -0.7965,0.5149 l -1.0172,-0.3004 c -0.088,-0.026 -0.1618,-0.066 -0.2209,-0.1142 -0.1076,-0.078 -0.1749,-0.1863 -0.1749,-0.3052 v 0 c 0,-0.015 0,-0.029 0,-0.044 -0.05,-0.1968 0.094,-0.4003 0.3592,-0.4784 l 1.0173,-0.3003 c 0.5417,-0.16 0.9276,0.2515 0.7795,0.5561 z"
       id="path34538"
       style="clip-rule:evenodd;fill:#edc919;fill-rule:evenodd;stroke-width:0.0014695;image-rendering:optimizeQuality;shape-rendering:geometricPrecision;text-rendering:geometricPrecision" />
    <path
       class="fil68"
       d="m 108.5209,276.3918 c -0.086,0.2255 -0.3963,0.4087 -0.7883,0.293 l -1.0172,-0.3003 c -0.088,-0.026 -0.1619,-0.066 -0.2209,-0.1142 -0.05,-0.037 -0.092,-0.08 -0.1219,-0.1276 0.01,0 0.02,0 0.029,0.01 l 1.3447,0.3002 c 0.31,0.069 0.5816,0.031 0.7741,-0.058 z"
       id="path34540"
       style="clip-rule:evenodd;fill:#e8b10e;fill-rule:evenodd;stroke-width:0.0014695;image-rendering:optimizeQuality;shape-rendering:geometricPrecision;text-rendering:geometricPrecision" />
    <path
       class="fil65"
       d="m 105.997,275.5351 h 0.1602 c 0.2198,0 0.4002,0.1801 0.4002,0.4003 v 0 c 0,0.2202 -0.1804,0.4003 -0.4002,0.4003 h -0.1602 c -0.2202,0 -0.4001,-0.1801 -0.4001,-0.4003 v 0 c 0,-0.2202 0.1799,-0.4003 0.4001,-0.4003 z"
       id="path34542"
       style="clip-rule:evenodd;fill:#edc919;fill-rule:evenodd;stroke-width:0.0014695;image-rendering:optimizeQuality;shape-rendering:geometricPrecision;text-rendering:geometricPrecision" />
    <path
       class="fil68"
       d="m 106.4672,276.1832 c -0.077,0.093 -0.1952,0.1525 -0.3269,0.1525 h -0.1263 c -0.1323,0 -0.2504,-0.06 -0.3274,-0.1525 0.025,0 0.051,0.01 0.077,0.01 h 0.6264 c 0.026,0 0.052,0 0.077,-0.01 z"
       id="path34544"
       style="clip-rule:evenodd;fill:#e8b10e;fill-rule:evenodd;stroke-width:0.0014695;image-rendering:optimizeQuality;shape-rendering:geometricPrecision;text-rendering:geometricPrecision" />
    <path
       class="fil4"
       d="m 106.2873,276.2078 v -0.624 c 0,-0.067 0.055,-0.1226 0.1225,-0.1226 v 0 c 0.067,0 0.1224,0.055 0.1224,0.1226 v 0.624 c 0,0.067 -0.055,0.1226 -0.1224,0.1226 v 0 c -0.067,0 -0.1225,-0.055 -0.1225,-0.1226 z"
       id="path34546"
       style="clip-rule:evenodd;fill:#996633;fill-rule:evenodd;stroke-width:0.0014695;image-rendering:optimizeQuality;shape-rendering:geometricPrecision;text-rendering:geometricPrecision" />
    <path
       class="fil16"
       d="m 104.9973,274.0098 v 0 c 0.3192,0 0.5805,0.2612 0.5805,0.5804 v 0.6827 c 0,0.3191 -0.2613,0.5802 -0.5805,0.5802 v 0 c -0.3193,0 -0.5805,-0.2611 -0.5805,-0.5802 v -0.6827 c 0,-0.3192 0.2612,-0.5804 0.5805,-0.5804 z"
       id="path34548"
       style="clip-rule:evenodd;fill:#4d4d4d;fill-rule:evenodd;stroke-width:0.0014695;image-rendering:optimizeQuality;shape-rendering:geometricPrecision;text-rendering:geometricPrecision" />
    <polygon
       class="fil50"
       points="-375925,120762.1 -375925,113089.2 -366876.3,113089.2 -366876.3,120762.1 "
       id="polygon34550"
       transform="matrix(0.0014674,0,0,0.0014674,611.2402,100.3996)"
       style="clip-rule:evenodd;fill:#669933;fill-rule:evenodd;image-rendering:optimizeQuality;shape-rendering:geometricPrecision;text-rendering:geometricPrecision" />
    <path
       class="fil4"
       d="m 59.67794,265.9483 v 26.0492 c 0,0.41 -0.33519,0.7454 -0.74512,0.7454 v 0 c -0.40994,0 -0.74562,-0.3354 -0.74562,-0.7454 v -26.0492 c 0,-0.41 0.33568,-0.7454 0.74562,-0.7454 v 0 c 0.40993,0 0.74512,0.3354 0.74512,0.7454 z"
       id="path34552"
       style="clip-rule:evenodd;fill:#996633;fill-rule:evenodd;stroke-width:0.0014674;image-rendering:optimizeQuality;shape-rendering:geometricPrecision;text-rendering:geometricPrecision" />
    <path
       class="fil29"
       d="m 58.73084,292.7092 c -0.58896,-0.1536 -0.54364,-0.4541 -0.54364,-1.0067 v -25.4483 c 0,-0.4985 0.25218,-0.9183 0.58625,-1.0215 -0.0273,0.1084 -0.0426,0.2249 -0.0426,0.346 z"
       id="path34554"
       style="clip-rule:evenodd;fill:#813d09;fill-rule:evenodd;stroke-width:0.0014674;image-rendering:optimizeQuality;shape-rendering:geometricPrecision;text-rendering:geometricPrecision" />
    <path
       class="fil64"
       d="m 60.22489,260.1613 v 2.7022 c 0,0.7046 -0.57641,1.2812 -1.28114,1.2812 v 0 c -0.7047,0 -1.28114,-0.5766 -1.28114,-1.2812 v -2.7022 c 0,-0.7047 0.57644,-1.2812 1.28114,-1.2812 v 0 c 0.70473,0 1.28114,0.5765 1.28114,1.2812 z"
       id="path34556"
       style="clip-rule:evenodd;fill:#b3b3b3;fill-rule:evenodd;stroke-width:0.0014674;image-rendering:optimizeQuality;shape-rendering:geometricPrecision;text-rendering:geometricPrecision" />
    <path
       class="fil5"
       d="m 59.20796,264.1445 c -0.0852,0.018 -0.17361,0.028 -0.26421,0.028 v 0 c -0.7047,0 -1.28114,-0.5766 -1.28114,-1.2812 v -2.7022 c 0,-0.7046 0.57644,-1.2812 1.28114,-1.2812 v 0 c 0.0906,0 0.17902,0.01 0.26421,0.028 -0.57917,0.1226 -1.01751,0.6394 -1.01751,1.2536 v 2.7022 c 0,0.6142 0.43834,1.1311 1.01751,1.2536 z"
       id="path34558"
       style="clip-rule:evenodd;fill:#cccccc;fill-rule:evenodd;stroke-width:0.0014674;image-rendering:optimizeQuality;shape-rendering:geometricPrecision;text-rendering:geometricPrecision" />
    <path
       class="fil64"
       d="m 60.22489,264.9444 v 0.07 c 0,0.7047 -0.57641,1.2812 -1.28114,1.2812 v 0 c -0.7047,0 -1.28114,-0.5765 -1.28114,-1.2812 v -0.07 c 0,-0.7046 0.57644,-1.2812 1.28114,-1.2812 v 0 c 0.70473,0 1.28114,0.5766 1.28114,1.2812 z"
       id="path34560"
       style="clip-rule:evenodd;fill:#b3b3b3;fill-rule:evenodd;stroke-width:0.0014674;image-rendering:optimizeQuality;shape-rendering:geometricPrecision;text-rendering:geometricPrecision" />
    <polygon
       class="fil141"
       points="-376901,120762.1 -376901,113089.2 -375872.1,113089.2 -375872.1,120762.1 "
       id="polygon34562"
       transform="matrix(0.0014674,0,0,0.0014674,611.2402,100.3996)"
       style="clip-rule:evenodd;fill:#006633;fill-rule:evenodd;image-rendering:optimizeQuality;shape-rendering:geometricPrecision;text-rendering:geometricPrecision" />
    <path
       class="fil4"
       d="m 17.91646,47.93432 12.05806,12.05746 c 0.53101,0.5311 0.53101,1.4001 0,1.93121 h -10e-4 c -0.531,0.5311 -1.4,0.5311 -1.93101,0 L 15.98545,49.86553 c -0.531,-0.53111 -0.531,-1.40011 0,-1.93121 v 0 c 0.53101,-0.53111 1.40001,-0.53111 1.93101,0 z"
       id="path2674"
       style="clip-rule:evenodd;fill:#996633;fill-rule:evenodd;stroke-width:0.0026882;image-rendering:optimizeQuality;shape-rendering:geometricPrecision;text-rendering:geometricPrecision;opacity:0.968;filter:url(#filter1234)" />
    <path
       class="fil29"
       d="m 29.67652,62.14799 c -0.468,0.3421 -0.954,0.4544 -1.196,0.212 L 15.55345,49.43382 c -0.253,-0.2532 -0.14,-0.7928 0.241,-1.2779 0.019,0.0904 0.059,0.1689 0.121,0.2304 z"
       id="path2676"
       style="clip-rule:evenodd;fill:#813d09;fill-rule:evenodd;stroke-width:0.0026882;image-rendering:optimizeQuality;shape-rendering:geometricPrecision;text-rendering:geometricPrecision;opacity:0.968;filter:url(#filter1238)" />
    <path
       class="fil64"
       d="m 11.12843,39.72917 3.50102,3.50042 c 0.912,0.91281 0.912,2.40651 0,3.31932 v 0 c -0.91301,0.9128 -2.40701,0.9128 -3.32002,0 L 7.809412,43.04849 c -0.913004,-0.9128 -0.913004,-2.40641 0,-3.31932 v 0 c 0.913005,-0.9128 2.406018,-0.9128 3.319018,0 z"
       id="path2678"
       style="clip-rule:evenodd;fill:#b3b3b3;fill-rule:evenodd;stroke-width:0.0026882;image-rendering:optimizeQuality;shape-rendering:geometricPrecision;text-rendering:geometricPrecision;opacity:0.968;filter:url(#filter1242)" />
    <path
       class="fil5"
       d="m 14.97045,46.20671 c -0.087,0.1338 -0.189,0.2606 -0.306,0.3777 v 0 c -0.91301,0.9128 -2.40601,0.9128 -3.31902,0 L 7.844413,43.08399 c -0.912005,-0.9129 -0.912005,-2.40651 0,-3.31932 h 10e-4 c 0.117,-0.1172 0.243001,-0.2192 0.377001,-0.3063 -0.591003,0.90901 -0.489002,2.14591 0.306002,2.94162 l 3.501024,3.50042 c 0.796,0.7956 2.032,0.8977 2.94101,0.3062 z"
       id="path2680"
       style="clip-rule:evenodd;fill:#cccccc;fill-rule:evenodd;stroke-width:0.0026882;image-rendering:optimizeQuality;shape-rendering:geometricPrecision;text-rendering:geometricPrecision;opacity:0.968;filter:url(#filter1246)" />
    <path
       class="fil64"
       d="m 17.32446,45.92531 0.091,0.0905 c 0.91301,0.9128 0.91301,2.40651 0,3.31931 v 0 c -0.913,0.91281 -2.40701,0.91281 -3.31902,0 l -0.091,-0.0905 c -0.913,-0.9128 -0.913,-2.40651 0,-3.31931 v 0 c 0.91301,-0.91281 2.40702,-0.91281 3.31902,0 z"
       id="path2682"
       style="clip-rule:evenodd;fill:#b3b3b3;fill-rule:evenodd;stroke-width:0.0026882;image-rendering:optimizeQuality;shape-rendering:geometricPrecision;text-rendering:geometricPrecision;opacity:0.968;filter:url(#filter1250)" />
    <path
       class="fil4"
       d="m 23.41749,45.3994 v 17.05179 c 0,0.7511 -0.614,1.3656 -1.36501,1.3656 v 0 c -0.751,0 -1.366,-0.6145 -1.366,-1.3656 V 45.3994 c 0,-0.7511 0.615,-1.3656 1.366,-1.3656 v 0 c 0.75101,0 1.36501,0.6145 1.36501,1.3656 z"
       id="path2684"
       style="clip-rule:evenodd;fill:#996633;fill-rule:evenodd;stroke-width:0.0026882;image-rendering:optimizeQuality;shape-rendering:geometricPrecision;text-rendering:geometricPrecision;opacity:0.968;filter:url(#filter1254)" />
    <path
       class="fil29"
       d="m 21.68348,63.76569 c -0.573,-0.0892 -0.996,-0.3534 -0.996,-0.6963 V 44.789 c 0,-0.358 0.461,-0.6597 1.073,-0.7337 -0.05,0.0778 -0.077,0.1615 -0.077,0.2484 z"
       id="path2686"
       style="clip-rule:evenodd;fill:#813d09;fill-rule:evenodd;stroke-width:0.0026882;image-rendering:optimizeQuality;shape-rendering:geometricPrecision;text-rendering:geometricPrecision;opacity:0.968;filter:url(#filter1258)" />
    <path
       class="fil64"
       d="m 24.4205,34.79775 v 4.95022 c 0,1.29101 -1.05701,2.34712 -2.34802,2.34712 v 0 c -1.29,0 -2.34701,-1.05611 -2.34701,-2.34712 v -4.95022 c 0,-1.29101 1.05701,-2.34711 2.34701,-2.34711 v 0 c 1.29101,0 2.34802,1.0561 2.34802,2.34711 z"
       id="path2688"
       style="clip-rule:evenodd;fill:#b3b3b3;fill-rule:evenodd;stroke-width:0.0026882;image-rendering:optimizeQuality;shape-rendering:geometricPrecision;text-rendering:geometricPrecision;opacity:0.968;filter:url(#filter1262)" />
    <path
       class="fil5"
       d="m 22.55649,42.09489 c -0.156,0.033 -0.318,0.0505 -0.48401,0.0505 v 0 c -1.29,0 -2.34701,-1.05621 -2.34701,-2.34712 v -4.95032 c 0,-1.29091 1.05701,-2.34711 2.34701,-2.34711 v 0 c 0.16601,0 0.32801,0.0175 0.48401,0.0506 -1.06101,0.2245 -1.86301,1.1713 -1.86301,2.29651 v 4.95032 c 0,1.12531 0.802,2.07212 1.86301,2.29662 z"
       id="path2690"
       style="clip-rule:evenodd;fill:#cccccc;fill-rule:evenodd;stroke-width:0.0026882;image-rendering:optimizeQuality;shape-rendering:geometricPrecision;text-rendering:geometricPrecision;opacity:0.968;filter:url(#filter1266)" />
    <path
       class="fil64"
       d="m 24.4205,43.56029 v 0.128 c 0,1.29101 -1.05701,2.34712 -2.34802,2.34712 v 0 c -1.29,0 -2.34701,-1.05611 -2.34701,-2.34712 v -0.128 c 0,-1.2909 1.05701,-2.34711 2.34701,-2.34711 v 0 c 1.29101,0 2.34802,1.05621 2.34802,2.34711 z"
       id="path2692"
       style="clip-rule:evenodd;fill:#b3b3b3;fill-rule:evenodd;stroke-width:0.0026882;image-rendering:optimizeQuality;shape-rendering:geometricPrecision;text-rendering:geometricPrecision;opacity:0.968;filter:url(#filter1270)" />
    <path
       class="fil4"
       d="M 25.6705,47.78302 13.61344,59.84048 c -0.531,0.5311 -0.531,1.4001 0,1.9312 v 0 c 0.531,0.53111 1.40001,0.53111 1.93101,0 L 27.60151,49.71433 c 0.53201,-0.53111 0.53201,-1.40011 0,-1.93121 v 0 c -0.531,-0.53111 -1.4,-0.53111 -1.93101,0 z"
       id="path2694"
       style="clip-rule:evenodd;fill:#996633;fill-rule:evenodd;stroke-width:0.0026882;image-rendering:optimizeQuality;shape-rendering:geometricPrecision;text-rendering:geometricPrecision;opacity:0.968;filter:url(#filter1274)" />
    <path
       class="fil29"
       d="m 13.91044,61.99678 c 0.46801,0.34211 0.95401,0.45441 1.19701,0.21191 L 28.03351,49.28252 c 0.25301,-0.2532 0.14001,-0.7928 -0.24,-1.2779 -0.02,0.0905 -0.06,0.1689 -0.121,0.2304 z"
       id="path2696"
       style="clip-rule:evenodd;fill:#813d09;fill-rule:evenodd;stroke-width:0.0026882;image-rendering:optimizeQuality;shape-rendering:geometricPrecision;text-rendering:geometricPrecision;opacity:0.968;filter:url(#filter1278)" />
    <path
       class="fil64"
       d="m 32.45854,39.57787 -3.50002,3.50042 c -0.91301,0.91281 -0.91301,2.40651 0,3.31932 v 0 c 0.913,0.9129 2.40601,0.9129 3.31902,0 l 3.50001,-3.50032 c 0.91301,-0.9129 0.91301,-2.40651 0,-3.31932 v 0 c -0.912,-0.9128 -2.40601,-0.9128 -3.31901,0 z"
       id="path2698"
       style="clip-rule:evenodd;fill:#b3b3b3;fill-rule:evenodd;stroke-width:0.0026882;image-rendering:optimizeQuality;shape-rendering:geometricPrecision;text-rendering:geometricPrecision;opacity:0.968;filter:url(#filter1282)" />
    <path
       class="fil5"
       d="m 28.61652,46.05541 c 0.087,0.1339 0.189,0.2606 0.306,0.3778 v 0 c 0.913,0.9128 2.40701,0.9128 3.31902,0 l 3.50101,-3.50042 c 0.91301,-0.9128 0.91301,-2.40651 0,-3.31932 v 0 c -0.117,-0.1171 -0.244,-0.2192 -0.378,-0.3062 0.59201,0.90891 0.49,2.14591 -0.306,2.94152 l -3.50002,3.50041 c -0.796,0.79571 -2.03301,0.89771 -2.94201,0.30621 z"
       id="path2700"
       style="clip-rule:evenodd;fill:#cccccc;fill-rule:evenodd;stroke-width:0.0026882;image-rendering:optimizeQuality;shape-rendering:geometricPrecision;text-rendering:geometricPrecision;opacity:0.968;filter:url(#filter1286)" />
    <path
       class="fil64"
       d="m 26.26251,45.774 -0.09,0.0906 c -0.91301,0.91281 -0.91301,2.40642 0,3.31922 v 0 c 0.912,0.91281 2.40601,0.91281 3.31901,0 l 0.09,-0.0906 c 0.91301,-0.9128 0.91301,-2.40651 0,-3.31932 v 0 c -0.912,-0.9128 -2.40601,-0.9128 -3.31901,0 z"
       id="path2702"
       style="clip-rule:evenodd;fill:#b3b3b3;fill-rule:evenodd;stroke-width:0.0026882;image-rendering:optimizeQuality;shape-rendering:geometricPrecision;text-rendering:geometricPrecision;opacity:0.968;filter:url(#filter1290)" />
    <path
       class="fil4"
       d="m 17.97609,83.9588 v 17.0518 c 0,0.7511 -0.614,1.3656 -1.36501,1.3656 v 0 c -0.751,0 -1.366,-0.6145 -1.366,-1.3656 V 83.9588 c 0,-0.7511 0.615,-1.36561 1.366,-1.36561 v 0 c 0.75101,0 1.36501,0.61451 1.36501,1.36561 z"
       id="path2704"
       style="clip-rule:evenodd;fill:#996633;fill-rule:evenodd;stroke-width:0.0026882;image-rendering:optimizeQuality;shape-rendering:geometricPrecision;text-rendering:geometricPrecision" />
    <path
       class="fil29"
       d="m 16.24108,102.3251 c -0.573,-0.089 -0.996,-0.3534 -0.996,-0.6963 V 83.3484 c 0,-0.35801 0.462,-0.65971 1.074,-0.73371 -0.05,0.0778 -0.078,0.1615 -0.078,0.2485 z"
       id="path2706"
       style="clip-rule:evenodd;fill:#813d09;fill-rule:evenodd;stroke-width:0.0026882;image-rendering:optimizeQuality;shape-rendering:geometricPrecision;text-rendering:geometricPrecision" />
    <path
       class="fil64"
       d="m 18.97809,73.35715 v 4.95032 c 0,1.29091 -1.056,2.34711 -2.34701,2.34711 v 0 c -1.29101,0 -2.34701,-1.0562 -2.34701,-2.34711 v -4.95032 c 0,-1.29101 1.056,-2.34712 2.34701,-2.34712 v 0 c 1.29101,0 2.34701,1.05611 2.34701,2.34712 z"
       id="path2708"
       style="clip-rule:evenodd;fill:#b3b3b3;fill-rule:evenodd;stroke-width:0.0026882;image-rendering:optimizeQuality;shape-rendering:geometricPrecision;text-rendering:geometricPrecision" />
    <path
       class="fil5"
       d="m 17.11508,80.65428 c -0.156,0.033 -0.318,0.0505 -0.484,0.0505 v 0 c -1.29101,0 -2.34701,-1.0562 -2.34701,-2.34711 v -4.95033 c 0,-1.2909 1.056,-2.34711 2.34701,-2.34711 v 0 c 0.166,0 0.328,0.0175 0.484,0.0506 -1.061,0.2245 -1.86401,1.17131 -1.86401,2.29651 v 4.95033 c 0,1.12531 0.80301,2.07211 1.86401,2.29661 z"
       id="path2710"
       style="clip-rule:evenodd;fill:#cccccc;fill-rule:evenodd;stroke-width:0.0026882;image-rendering:optimizeQuality;shape-rendering:geometricPrecision;text-rendering:geometricPrecision" />
    <path
       class="fil64"
       d="m 18.97809,82.11969 v 0.1281 c 0,1.29091 -1.056,2.34701 -2.34701,2.34701 v 0 c -1.29101,0 -2.34701,-1.0561 -2.34701,-2.34701 v -0.1281 c 0,-1.29091 1.056,-2.34711 2.34701,-2.34711 v 0 c 1.29101,0 2.34701,1.0562 2.34701,2.34711 z"
       id="path2712"
       style="clip-rule:evenodd;fill:#b3b3b3;fill-rule:evenodd;stroke-width:0.0026882;image-rendering:optimizeQuality;shape-rendering:geometricPrecision;text-rendering:geometricPrecision" />
    <path
       class="fil4"
       d="m 9.556044,83.9588 v 17.0518 c 0,0.7511 -0.61499,1.3656 -1.366,1.3656 v 0 c -0.751,0 -1.366,-0.6145 -1.366,-1.3656 V 83.9588 c 0,-0.7511 0.615,-1.36561 1.366,-1.36561 v 0 c 0.75101,0 1.366,0.61451 1.366,1.36561 z"
       id="path2714"
       style="clip-rule:evenodd;fill:#996633;fill-rule:evenodd;stroke-width:0.0026882;image-rendering:optimizeQuality;shape-rendering:geometricPrecision;text-rendering:geometricPrecision" />
    <path
       class="fil29"
       d="m 7.821044,102.3251 c -0.573,-0.089 -0.996,-0.3534 -0.996,-0.6963 V 83.3484 c 0,-0.35801 0.461,-0.65971 1.073,-0.73371 -0.05,0.0778 -0.077,0.1615 -0.077,0.2485 z"
       id="path2716"
       style="clip-rule:evenodd;fill:#813d09;fill-rule:evenodd;stroke-width:0.0026882;image-rendering:optimizeQuality;shape-rendering:geometricPrecision;text-rendering:geometricPrecision" />
    <path
       class="fil64"
       d="m 10.55805,73.35715 v 4.95032 c 0,1.29091 -1.055996,2.34711 -2.347006,2.34711 v 0 c -1.291,0 -2.34701,-1.0562 -2.34701,-2.34711 v -4.95032 c 0,-1.29101 1.05601,-2.34712 2.34701,-2.34712 v 0 c 1.29101,0 2.347006,1.05611 2.347006,2.34712 z"
       id="path2718"
       style="clip-rule:evenodd;fill:#b3b3b3;fill-rule:evenodd;stroke-width:0.0026882;image-rendering:optimizeQuality;shape-rendering:geometricPrecision;text-rendering:geometricPrecision" />
    <path
       class="fil5"
       d="m 8.694054,80.65428 c -0.15601,0.033 -0.31801,0.0505 -0.48301,0.0505 v 0 c -1.291,0 -2.34701,-1.0562 -2.34701,-2.34711 v -4.95033 c 0,-1.2909 1.05601,-2.34711 2.34701,-2.34711 v 0 c 0.165,0 0.327,0.0175 0.48301,0.0506 -1.06101,0.2245 -1.86301,1.17131 -1.86301,2.29651 v 4.95033 c 0,1.12531 0.802,2.07211 1.86301,2.29661 z"
       id="path2720"
       style="clip-rule:evenodd;fill:#cccccc;fill-rule:evenodd;stroke-width:0.0026882;image-rendering:optimizeQuality;shape-rendering:geometricPrecision;text-rendering:geometricPrecision" />
    <path
       class="fil64"
       d="m 10.55805,82.11969 v 0.1281 c 0,1.29091 -1.055996,2.34701 -2.347006,2.34701 v 0 c -1.291,0 -2.34701,-1.0561 -2.34701,-2.34701 v -0.1281 c 0,-1.29091 1.05601,-2.34711 2.34701,-2.34711 v 0 c 1.29101,0 2.347006,1.0562 2.347006,2.34711 z"
       id="path2722"
       style="clip-rule:evenodd;fill:#b3b3b3;fill-rule:evenodd;stroke-width:0.0026882;image-rendering:optimizeQuality;shape-rendering:geometricPrecision;text-rendering:geometricPrecision" />
    <path
       class="fil4"
       d="m 26.19913,83.9588 v 17.0518 c 0,0.7511 -0.615,1.3656 -1.36601,1.3656 v 0 c -0.751,0 -1.365,-0.6145 -1.365,-1.3656 V 83.9588 c 0,-0.7511 0.614,-1.36561 1.365,-1.36561 v 0 c 0.75101,0 1.36601,0.61451 1.36601,1.36561 z"
       id="path2724"
       style="clip-rule:evenodd;fill:#996633;fill-rule:evenodd;stroke-width:0.0026882;image-rendering:optimizeQuality;shape-rendering:geometricPrecision;text-rendering:geometricPrecision" />
    <path
       class="fil29"
       d="m 24.46412,102.3251 c -0.573,-0.089 -0.996,-0.3534 -0.996,-0.6963 V 83.3484 c 0,-0.35801 0.461,-0.65971 1.073,-0.73371 -0.05,0.0778 -0.077,0.1615 -0.077,0.2485 z"
       id="path2726"
       style="clip-rule:evenodd;fill:#813d09;fill-rule:evenodd;stroke-width:0.0026882;image-rendering:optimizeQuality;shape-rendering:geometricPrecision;text-rendering:geometricPrecision" />
    <path
       class="fil64"
       d="m 27.20113,73.35715 v 4.95032 c 0,1.29091 -1.056,2.34711 -2.34701,2.34711 v 0 c -1.291,0 -2.34701,-1.0562 -2.34701,-2.34711 v -4.95032 c 0,-1.29101 1.05601,-2.34712 2.34701,-2.34712 v 0 c 1.29101,0 2.34701,1.05611 2.34701,2.34712 z"
       id="path2728"
       style="clip-rule:evenodd;fill:#b3b3b3;fill-rule:evenodd;stroke-width:0.0026882;image-rendering:optimizeQuality;shape-rendering:geometricPrecision;text-rendering:geometricPrecision" />
    <path
       class="fil5"
       d="m 25.33712,80.65428 c -0.15599,0.033 -0.318,0.0505 -0.483,0.0505 v 0 c -1.291,0 -2.34701,-1.0562 -2.34701,-2.34711 v -4.95033 c 0,-1.2909 1.05601,-2.34711 2.34701,-2.34711 v 0 c 0.165,0 0.32701,0.0175 0.483,0.0506 -1.061,0.2245 -1.863,1.17131 -1.863,2.29651 v 4.95033 c 0,1.12531 0.802,2.07211 1.863,2.29661 z"
       id="path2730"
       style="clip-rule:evenodd;fill:#cccccc;fill-rule:evenodd;stroke-width:0.0026882;image-rendering:optimizeQuality;shape-rendering:geometricPrecision;text-rendering:geometricPrecision" />
    <path
       class="fil64"
       d="m 27.20113,82.11969 v 0.1281 c 0,1.29091 -1.056,2.34701 -2.34701,2.34701 v 0 c -1.291,0 -2.34701,-1.0561 -2.34701,-2.34701 v -0.1281 c 0,-1.29091 1.05601,-2.34711 2.34701,-2.34711 v 0 c 1.29101,0 2.34701,1.0562 2.34701,2.34711 z"
       id="path2732"
       style="clip-rule:evenodd;fill:#b3b3b3;fill-rule:evenodd;stroke-width:0.0026882;image-rendering:optimizeQuality;shape-rendering:geometricPrecision;text-rendering:geometricPrecision" />
    <path
       class="fil4"
       d="m 34.84718,83.9588 v 17.0518 c 0,0.7511 -0.61401,1.3656 -1.36501,1.3656 v 0 c -0.75101,0 -1.36601,-0.6145 -1.36601,-1.3656 V 83.9588 c 0,-0.7511 0.615,-1.36561 1.36601,-1.36561 v 0 c 0.751,0 1.36501,0.61451 1.36501,1.36561 z"
       id="path2734"
       style="clip-rule:evenodd;fill:#996633;fill-rule:evenodd;stroke-width:0.0026882;image-rendering:optimizeQuality;shape-rendering:geometricPrecision;text-rendering:geometricPrecision" />
    <path
       class="fil29"
       d="m 33.11216,102.3251 c -0.573,-0.089 -0.996,-0.3534 -0.996,-0.6963 V 83.3484 c 0,-0.35801 0.462,-0.65971 1.07401,-0.73371 -0.05,0.0778 -0.078,0.1615 -0.078,0.2485 z"
       id="path2736"
       style="clip-rule:evenodd;fill:#813d09;fill-rule:evenodd;stroke-width:0.0026882;image-rendering:optimizeQuality;shape-rendering:geometricPrecision;text-rendering:geometricPrecision" />
    <path
       class="fil64"
       d="m 35.84918,73.35715 v 4.95032 c 0,1.29091 -1.05601,2.34711 -2.34701,2.34711 v 0 c -1.29101,0 -2.34701,-1.0562 -2.34701,-2.34711 v -4.95032 c 0,-1.29101 1.056,-2.34712 2.34701,-2.34712 v 0 c 1.291,0 2.34701,1.05611 2.34701,2.34712 z"
       id="path2738"
       style="clip-rule:evenodd;fill:#b3b3b3;fill-rule:evenodd;stroke-width:0.0026882;image-rendering:optimizeQuality;shape-rendering:geometricPrecision;text-rendering:geometricPrecision" />
    <path
       class="fil5"
       d="m 33.98617,80.65428 c -0.156,0.033 -0.318,0.0505 -0.484,0.0505 v 0 c -1.29101,0 -2.34701,-1.0562 -2.34701,-2.34711 v -4.95033 c 0,-1.2909 1.056,-2.34711 2.34701,-2.34711 v 0 c 0.166,0 0.328,0.0175 0.484,0.0506 -1.06101,0.2245 -1.86401,1.17131 -1.86401,2.29651 v 4.95033 c 0,1.12531 0.803,2.07211 1.86401,2.29661 z"
       id="path2740"
       style="clip-rule:evenodd;fill:#cccccc;fill-rule:evenodd;stroke-width:0.0026882;image-rendering:optimizeQuality;shape-rendering:geometricPrecision;text-rendering:geometricPrecision" />
    <path
       class="fil64"
       d="m 35.84918,82.11969 v 0.1281 c 0,1.29091 -1.05601,2.34701 -2.34701,2.34701 v 0 c -1.29101,0 -2.34701,-1.0561 -2.34701,-2.34701 v -0.1281 c 0,-1.29091 1.056,-2.34711 2.34701,-2.34711 v 0 c 1.291,0 2.34701,1.0562 2.34701,2.34711 z"
       id="path2742"
       style="clip-rule:evenodd;fill:#b3b3b3;fill-rule:evenodd;stroke-width:0.0026882;image-rendering:optimizeQuality;shape-rendering:geometricPrecision;text-rendering:geometricPrecision" />
    <path
       class="fil14"
       d="m 15.88887,250.1064 h 13.09606 c 1.19101,0 2.16502,0.974 2.16502,2.1643 v 0 c 0,1.1903 -0.97401,2.1643 -2.16502,2.1643 H 15.88887 c -1.19001,0 -2.16401,-0.974 -2.16401,-2.1643 v 0 c 0,-1.1903 0.974,-2.1643 2.16401,-2.1643 z"
       id="path39602"
       style="clip-rule:evenodd;fill:#b3b3b3;fill-rule:evenodd;stroke-width:0.0026882;image-rendering:optimizeQuality;shape-rendering:geometricPrecision;text-rendering:geometricPrecision" />
    <path
       class="fil35"
       d="m 15.88887,245.9101 h 13.09606 c 1.19101,0 2.16502,0.9739 2.16502,2.1643 v 0 c 0,1.1904 -0.97401,2.1643 -2.16502,2.1643 H 15.88887 c -1.19001,0 -2.16401,-0.9739 -2.16401,-2.1643 v 0 c 0,-1.1904 0.974,-2.1643 2.16401,-2.1643 z"
       id="path39604"
       style="clip-rule:evenodd;fill:#808080;fill-rule:evenodd;stroke-width:0.0026882;image-rendering:optimizeQuality;shape-rendering:geometricPrecision;text-rendering:geometricPrecision" />
    <path
       class="fil14"
       d="m 15.88887,241.6252 h 13.09606 c 1.19101,0 2.16502,0.974 2.16502,2.1644 v 0 c 0,1.1904 -0.97401,2.1643 -2.16502,2.1643 H 15.88887 c -1.19001,0 -2.16401,-0.9739 -2.16401,-2.1643 v 0 c 0,-1.1904 0.974,-2.1644 2.16401,-2.1644 z"
       id="path39606"
       style="clip-rule:evenodd;fill:#b3b3b3;fill-rule:evenodd;stroke-width:0.0026882;image-rendering:optimizeQuality;shape-rendering:geometricPrecision;text-rendering:geometricPrecision" />
    <path
       class="fil35"
       d="m 15.88887,237.4288 h 13.09606 c 1.19101,0 2.16502,0.9739 2.16502,2.1643 v 0 c 0,1.1904 -0.97401,2.1643 -2.16502,2.1643 H 15.88887 c -1.19001,0 -2.16401,-0.9739 -2.16401,-2.1643 v 0 c 0,-1.1904 0.974,-2.1643 2.16401,-2.1643 z"
       id="path39608"
       style="clip-rule:evenodd;fill:#808080;fill-rule:evenodd;stroke-width:0.0026882;image-rendering:optimizeQuality;shape-rendering:geometricPrecision;text-rendering:geometricPrecision" />
    <path
       class="fil0"
       d="m 13.52886,227.224 h 17.53308 c 2.82602,0 5.13803,2.312 5.13803,5.1378 v 0 c 0,2.8257 -2.31201,5.1377 -5.13803,5.1377 H 13.52886 c -2.82601,0 -5.138023,-2.312 -5.138023,-5.1377 v 0 c 0,-2.8258 2.312013,-5.1378 5.138023,-5.1378 z"
       id="path39610"
       style="clip-rule:evenodd;fill:#af5e31;fill-rule:evenodd;stroke-width:0.0026882;image-rendering:optimizeQuality;shape-rendering:geometricPrecision;text-rendering:geometricPrecision" />
    <path
       class="fil1"
       d="m 35.88997,230.5748 c 0.2,0.5472 0.31,1.1372 0.31,1.7514 v 0 c 0,2.8257 -2.31201,5.1376 -5.13803,5.1376 H 13.52886 c -2.82601,0 -5.138023,-2.3119 -5.138023,-5.1376 v 0 c 0,-0.6142 0.109,-1.2042 0.309,-1.7514 0.72,1.9702 2.617013,3.3863 4.829023,3.3863 h 17.53308 c 2.21102,0 4.10803,-1.4161 4.82803,-3.3863 z"
       id="path39612"
       style="clip-rule:evenodd;fill:#803d22;fill-rule:evenodd;stroke-width:0.0026882;image-rendering:optimizeQuality;shape-rendering:geometricPrecision;text-rendering:geometricPrecision" />
    <path
       class="fil14"
       d="m 54.05515,250.2003 h 13.09606 c 1.19101,0 2.16502,0.9739 2.16502,2.1644 v 0 c 0,1.1904 -0.97401,2.1643 -2.16502,2.1643 H 54.05515 c -1.19001,0 -2.16401,-0.9739 -2.16401,-2.1643 v 0 c 0,-1.1905 0.974,-2.1644 2.16401,-2.1644 z"
       id="path39614"
       style="clip-rule:evenodd;fill:#b3b3b3;fill-rule:evenodd;stroke-width:0.0026882;image-rendering:optimizeQuality;shape-rendering:geometricPrecision;text-rendering:geometricPrecision" />
    <path
       class="fil35"
       d="m 54.05515,246.0039 h 13.09606 c 1.19101,0 2.16502,0.974 2.16502,2.1643 v 0 c 0,1.1904 -0.97401,2.1643 -2.16502,2.1643 H 54.05515 c -1.19001,0 -2.16401,-0.9739 -2.16401,-2.1643 v 0 c 0,-1.1903 0.974,-2.1643 2.16401,-2.1643 z"
       id="path39616"
       style="clip-rule:evenodd;fill:#808080;fill-rule:evenodd;stroke-width:0.0026882;image-rendering:optimizeQuality;shape-rendering:geometricPrecision;text-rendering:geometricPrecision" />
    <path
       class="fil0"
       d="m 51.69514,235.7992 h 17.53308 c 2.82602,0 5.13803,2.312 5.13803,5.1377 v 0 c 0,2.8257 -2.31201,5.1377 -5.13803,5.1377 H 51.69514 c -2.82602,0 -5.13803,-2.312 -5.13803,-5.1377 v 0 c 0,-2.8257 2.31201,-5.1377 5.13803,-5.1377 z"
       id="path39618"
       style="clip-rule:evenodd;fill:#af5e31;fill-rule:evenodd;stroke-width:0.0026882;image-rendering:optimizeQuality;shape-rendering:geometricPrecision;text-rendering:geometricPrecision" />
    <path
       class="fil1"
       d="m 74.05625,239.15 c 0.2,0.5472 0.31,1.1371 0.31,1.7514 v 0 c 0,2.8257 -2.31201,5.1377 -5.13803,5.1377 H 51.69514 c -2.82602,0 -5.13803,-2.312 -5.13803,-5.1377 v 0 c 0,-0.6143 0.109,-1.2042 0.309,-1.7514 0.72,1.9702 2.61701,3.3863 4.82903,3.3863 h 17.53308 c 2.21102,0 4.10803,-1.4161 4.82803,-3.3863 z"
       id="path39620"
       style="clip-rule:evenodd;fill:#803d22;fill-rule:evenodd;stroke-width:0.0026882;image-rendering:optimizeQuality;shape-rendering:geometricPrecision;text-rendering:geometricPrecision" />
    <path
       class="fil14"
       d="m 91.84724,250.2904 h 13.09606 c 1.191,0 2.165,0.974 2.165,2.1643 v 0 c 0,1.1903 -0.974,2.1643 -2.165,2.1643 H 91.84724 c -1.19001,0 -2.16401,-0.974 -2.16401,-2.1643 v 0 c 0,-1.1903 0.974,-2.1643 2.16401,-2.1643 z"
       id="path39622"
       style="clip-rule:evenodd;fill:#b3b3b3;fill-rule:evenodd;stroke-width:0.0026882;image-rendering:optimizeQuality;shape-rendering:geometricPrecision;text-rendering:geometricPrecision" />
    <path
       class="fil0"
       d="m 89.48723,240.0146 h 17.53307 c 2.826,0 5.138,2.3119 5.138,5.1377 v 0 c 0,2.8258 -2.312,5.1377 -5.138,5.1377 H 89.48723 c -2.82602,0 -5.13803,-2.3119 -5.13803,-5.1377 v 0 c 0,-2.8258 2.31201,-5.1377 5.13803,-5.1377 z"
       id="path39624"
       style="clip-rule:evenodd;fill:#af5e31;fill-rule:evenodd;stroke-width:0.0026882;image-rendering:optimizeQuality;shape-rendering:geometricPrecision;text-rendering:geometricPrecision" />
    <path
       class="fil1"
       d="m 111.8483,243.3653 c 0.2,0.5473 0.31,1.1372 0.31,1.7514 v 0 c 0,2.8257 -2.312,5.1377 -5.138,5.1377 H 89.48723 c -2.82602,0 -5.13803,-2.312 -5.13803,-5.1377 v 0 c 0,-0.6142 0.109,-1.2041 0.309,-1.7514 0.72,1.9702 2.61701,3.3863 4.82903,3.3863 h 17.53307 c 2.211,0 4.108,-1.4161 4.828,-3.3863 z"
       id="path39626"
       style="clip-rule:evenodd;fill:#803d22;fill-rule:evenodd;stroke-width:0.0026882;image-rendering:optimizeQuality;shape-rendering:geometricPrecision;text-rendering:geometricPrecision" />
  </g>
</svg>
