<?xml version="1.0" encoding="UTF-8" standalone="no"?>
<svg
   xmlns:dc="http://purl.org/dc/elements/1.1/"
   xmlns:cc="http://creativecommons.org/ns#"
   xmlns:rdf="http://www.w3.org/1999/02/22-rdf-syntax-ns#"
   xmlns:svg="http://www.w3.org/2000/svg"
   xmlns="http://www.w3.org/2000/svg"
   xmlns:sodipodi="http://sodipodi.sourceforge.net/DTD/sodipodi-0.dtd"
   xmlns:inkscape="http://www.inkscape.org/namespaces/inkscape"
   width="1024"
   height="1024"
   viewBox="0 0 270.9333 270.9333"
   version="1.1"
   id="svg3565"
   inkscape:version="1.0.1 (3bc2e813f5, 2020-09-07)"
   sodipodi:docname="медведь.svg"
   inkscape:export-filename="C:\Users\Kolobok\Desktop\проекты\Рыцарь\knightframes.png"
   inkscape:export-xdpi="96.00001"
   inkscape:export-ydpi="96.00001">
  <title
     id="title4661">Тайл размером 256x256</title>
  <defs
     id="defs3559" />
  <sodipodi:namedview
     id="base"
     pagecolor="#ffffff"
     bordercolor="#666666"
     borderopacity="1.0"
     inkscape:pageopacity="0.0"
     inkscape:pageshadow="2"
     inkscape:zoom="0.69999999"
     inkscape:cx="570.42144"
     inkscape:cy="459.00355"
     inkscape:document-units="mm"
     inkscape:current-layer="layer1"
     showgrid="true"
     units="px"
     width="256px"
     inkscape:snap-global="false"
     inkscape:document-rotation="0"
     inkscape:window-width="1920"
     inkscape:window-height="1017"
     inkscape:window-x="-8"
     inkscape:window-y="-8"
     inkscape:window-maximized="1">
    <inkscape:grid
       type="xygrid"
       id="grid5244"
       units="px"
       spacingx="67.73332"
       spacingy="67.73332"
       empspacing="1" />
    <inkscape:grid
       type="xygrid"
       id="grid8949"
       color="#e33fff"
       opacity="0.1254902"
       empcolor="#e33fff"
       empopacity="0.2509804"
       units="px"
       spacingx="33.86666"
       spacingy="33.86666"
       empspacing="8" />
  </sodipodi:namedview>
  <metadata
     id="metadata3562">
    <rdf:RDF>
      <cc:Work
         rdf:about="">
        <dc:format>image/svg+xml</dc:format>
        <dc:type
           rdf:resource="http://purl.org/dc/dcmitype/StillImage" />
        <dc:title>Тайл размером 256x256</dc:title>
      </cc:Work>
    </rdf:RDF>
  </metadata>
  <g
     inkscape:label="Layer 1"
     inkscape:groupmode="layer"
     id="layer1"
     transform="translate(0,-26.0667)">
    <g
       id="g1168"
       transform="translate(-129.2469,137.7399)">
      <path
         class="fil0"
         d="m 167.26186,-82.606988 v 0 c -1.9951,0 -3.6274,1.6323 -3.6274,3.6273 v 4.267501 c 0,1.9951 1.6323,3.6274 3.6274,3.6274 v 0 c 1.995,0 3.6273,-1.6323 3.6273,-3.6274 v -4.267501 c 0,-1.995 -1.6323,-3.6273 -3.6273,-3.6273 z"
         id="path476"
         style="clip-rule:evenodd;fill:#af5e31;fill-rule:evenodd;stroke-width:0.00268817;image-rendering:optimizeQuality;shape-rendering:geometricPrecision;text-rendering:geometricPrecision" />
      <path
         class="fil36"
         d="m 167.26186,-81.162588 v 0 c -1.4949,0 -2.7179,1.2231 -2.7179,2.717901 v 3.1976 c 0,1.4949 1.223,2.7179 2.7179,2.7179 v 0 c 1.4948,0 2.7179,-1.223 2.7179,-2.7179 v -3.1976 c 0,-1.494801 -1.2231,-2.717901 -2.7179,-2.717901 z"
         id="path478"
         style="clip-rule:evenodd;fill:#cc7643;fill-rule:evenodd;stroke-width:0.00268817;image-rendering:optimizeQuality;shape-rendering:geometricPrecision;text-rendering:geometricPrecision" />
      <path
         class="fil0"
         d="m 155.98526,-83.121788 v 0 c -1.9951,0 -3.6273,1.6323 -3.6273,3.6273 v 4.267501 c 0,1.9951 1.6322,3.6274 3.6273,3.6274 v 0 c 1.9951,0 3.6273,-1.6323 3.6273,-3.6274 v -4.267501 c 0,-1.995 -1.6322,-3.6273 -3.6273,-3.6273 z"
         id="path480"
         style="clip-rule:evenodd;fill:#af5e31;fill-rule:evenodd;stroke-width:0.00268817;image-rendering:optimizeQuality;shape-rendering:geometricPrecision;text-rendering:geometricPrecision" />
      <path
         class="fil36"
         d="m 155.98526,-81.677388 v 0 c -1.4949,0 -2.7179,1.223 -2.7179,2.717901 v 3.1976 c 0,1.4949 1.223,2.7179 2.7179,2.7179 v 0 c 1.4949,0 2.7179,-1.223 2.7179,-2.7179 v -3.1976 c 0,-1.494901 -1.223,-2.717901 -2.7179,-2.717901 z"
         id="path482"
         style="clip-rule:evenodd;fill:#cc7643;fill-rule:evenodd;stroke-width:0.00268817;image-rendering:optimizeQuality;shape-rendering:geometricPrecision;text-rendering:geometricPrecision" />
      <path
         class="fil39"
         d="m 173.44016,-59.896886 v 0 c -1.9833,0 -3.606,1.622601 -3.606,3.605901 v 4.1848 c 0,1.983301 1.6227,3.606001 3.606,3.606001 v 0 c 1.9832,0 3.60589,-1.6227 3.60589,-3.606001 v -4.1848 c 0,-1.9833 -1.62269,-3.605901 -3.60589,-3.605901 z"
         id="path786"
         style="clip-rule:evenodd;fill:#924c2a;fill-rule:evenodd;stroke-width:0.00268817;image-rendering:optimizeQuality;shape-rendering:geometricPrecision;text-rendering:geometricPrecision" />
      <path
         class="fil44"
         d="m 158.50446,-55.348685 h -3.3938 c -1.4778,0 -2.6868,1.209 -2.6868,2.686701 v 6.093499 c 0,1.477802 1.209,2.686802 2.6868,2.686802 h 3.3938 c 1.4777,0 2.6867,-1.209 2.6867,-2.686802 v -6.093499 c 0,-1.477701 -1.209,-2.686701 -2.6867,-2.686701 z"
         id="path788"
         style="clip-rule:evenodd;fill:#6e311e;fill-rule:evenodd;stroke-width:0.00268817;image-rendering:optimizeQuality;shape-rendering:geometricPrecision;text-rendering:geometricPrecision" />
      <path
         class="fil44"
         d="m 169.18076,-55.348685 h -3.3938 c -1.4777,0 -2.6867,1.209 -2.6867,2.686701 v 6.093499 c 0,1.477802 1.209,2.686802 2.6867,2.686802 h 3.3938 c 1.4778,0 2.6868,-1.209 2.6868,-2.686802 v -6.093499 c 0,-1.477701 -1.209,-2.686701 -2.6868,-2.686701 z"
         id="path790"
         style="clip-rule:evenodd;fill:#6e311e;fill-rule:evenodd;stroke-width:0.00268817;image-rendering:optimizeQuality;shape-rendering:geometricPrecision;text-rendering:geometricPrecision" />
      <path
         class="fil0"
         d="m 166.38436,-78.827887 h -9.8218 c -5.2321,0 -9.5128,4.2807 -9.5128,9.5128 v 11.734902 c 0,5.2321 4.2807,9.512801 9.5128,9.512801 h 9.8218 c 5.232,0 9.5128,-4.280701 9.5128,-9.512801 v -11.734902 c 0,-5.2321 -4.2808,-9.5128 -9.5128,-9.5128 z"
         id="path792"
         style="clip-rule:evenodd;fill:#af5e31;fill-rule:evenodd;stroke-width:0.00268817;image-rendering:optimizeQuality;shape-rendering:geometricPrecision;text-rendering:geometricPrecision" />
      <path
         class="fil1"
         d="m 159.63866,-78.815487 h -3.1022 c -5.2321,0 -9.5128,4.2593 -9.5128,9.4651 v 11.830402 c 0,5.205801 4.2807,9.4651 9.5128,9.4651 h 2.7668 c -1.9772,-1.737698 -3.2295,-4.2756 -3.2295,-7.090801 v -16.297601 c 0,-2.9712 1.3949,-5.6336 3.5649,-7.3722 z"
         id="path794"
         style="clip-rule:evenodd;fill:#803d22;fill-rule:evenodd;stroke-width:0.00268817;image-rendering:optimizeQuality;shape-rendering:geometricPrecision;text-rendering:geometricPrecision" />
      <path
         class="fil0"
         d="m 150.54446,-59.863486 v 0 c -1.9833,0 -3.6059,1.622601 -3.6059,3.605902 v 4.1848 c 0,1.983299 1.6226,3.605901 3.6059,3.605901 v 0 c 1.9832,0 3.6059,-1.622602 3.6059,-3.605901 v -4.1848 c 0,-1.983301 -1.6227,-3.605902 -3.6059,-3.605902 z"
         id="path796"
         style="clip-rule:evenodd;fill:#af5e31;fill-rule:evenodd;stroke-width:0.00268817;image-rendering:optimizeQuality;shape-rendering:geometricPrecision;text-rendering:geometricPrecision" />
      <path
         class="fil36"
         d="m 167.72086,-61.942686 h -4.2932 c -2.287,0 -4.1581,1.8711 -4.1581,4.158101 v 5.129401 c 0,2.287 1.8711,4.158099 4.1581,4.158099 h 4.2932 c 2.2869,0 4.1581,-1.871099 4.1581,-4.158099 v -5.129401 c 0,-2.287001 -1.8712,-4.158101 -4.1581,-4.158101 z"
         id="path808"
         style="clip-rule:evenodd;fill:#cc7643;fill-rule:evenodd;stroke-width:0.00268817;image-rendering:optimizeQuality;shape-rendering:geometricPrecision;text-rendering:geometricPrecision" />
      <path
         class="fil18"
         d="m 162.58126,-76.375787 v 0 c 1.0202,0 1.8548,0.8347 1.8548,1.8549 v 2.1527 c 0,1.0202 -0.8346,1.8549 -1.8548,1.8549 v 0 c -1.0202,0 -1.8549,-0.8347 -1.8549,-1.8549 v -2.1527 c 0,-1.0202 0.8347,-1.8549 1.8549,-1.8549 z"
         id="path810"
         style="clip-rule:evenodd;fill:#333333;fill-rule:evenodd;stroke-width:0.00268817;image-rendering:optimizeQuality;shape-rendering:geometricPrecision;text-rendering:geometricPrecision" />
      <path
         class="fil18"
         d="m 171.51986,-76.369687 v 0 c 0.9558,0 1.7378,0.782 1.7378,1.7378 v 2.0168 c 0,0.9558 -0.782,1.7377 -1.7378,1.7377 v 0 c -0.9558,0 -1.7377,-0.7819 -1.7377,-1.7377 v -2.0168 c 0,-0.9558 0.7819,-1.7378 1.7377,-1.7378 z"
         id="path812"
         style="clip-rule:evenodd;fill:#333333;fill-rule:evenodd;stroke-width:0.00268817;image-rendering:optimizeQuality;shape-rendering:geometricPrecision;text-rendering:geometricPrecision" />
      <path
         class="fil39"
         d="m 176.78097,-65.870186 v -1.8291 c 0,-1.896001 -1.55131,-3.447201 -3.44721,-3.447201 h -6.5278 c -1.8959,0 -3.4471,1.5512 -3.4471,3.447201 v 1.8291 c 0,1.8959 1.5512,3.4471 3.4471,3.4471 h 6.5278 c 1.8959,0 3.44721,-1.5512 3.44721,-3.4471 z"
         id="path814"
         style="clip-rule:evenodd;fill:#924c2a;fill-rule:evenodd;stroke-width:0.00268817;image-rendering:optimizeQuality;shape-rendering:geometricPrecision;text-rendering:geometricPrecision" />
      <path
         class="fil44"
         d="m 174.18846,-69.258687 v -0.914599 c 0,-0.948001 -0.7756,-1.723601 -1.7236,-1.723601 h -3.2639 c -0.9479,0 -1.7235,0.7756 -1.7235,1.723601 v 0.914599 c 0,0.9479 0.7756,1.7235 1.7235,1.7235 h 3.2639 c 0.948,0 1.7236,-0.7756 1.7236,-1.7235 z"
         id="path816"
         style="clip-rule:evenodd;fill:#6e311e;fill-rule:evenodd;stroke-width:0.00268817;image-rendering:optimizeQuality;shape-rendering:geometricPrecision;text-rendering:geometricPrecision" />
      <path
         class="fil44"
         d="m 173.21046,-64.181386 v 0 c 0,-0.4934 -0.4036,-0.897 -0.8969,-0.897 h -2.307 c -0.4933,0 -0.8969,0.4036 -0.8969,0.897 v 0 c 0,0.4933 0.4036,0.8969 0.8969,0.8969 h 2.307 c 0.4933,0 0.8969,-0.4036 0.8969,-0.8969 z"
         id="path832"
         style="clip-rule:evenodd;fill:#6e311e;fill-rule:evenodd;stroke-width:0.00268817;image-rendering:optimizeQuality;shape-rendering:geometricPrecision;text-rendering:geometricPrecision" />
    </g>
    <g
       id="g1150"
       transform="translate(-169.5406,205.49554)">
      <path
         class="fil0"
         d="m 207.57156,-82.606988 v 0 c -1.99498,0 -3.6273,1.6323 -3.6273,3.6273 v 4.267501 c 0,1.9951 1.63232,3.6274 3.6273,3.6274 v 0 c 1.99509,0 3.62741,-1.6323 3.62741,-3.6274 v -4.267501 c 0,-1.995 -1.63232,-3.6273 -3.62741,-3.6273 z"
         id="path8150"
         style="clip-rule:evenodd;fill:#af5e31;fill-rule:evenodd;stroke-width:0.00268817;image-rendering:optimizeQuality;shape-rendering:geometricPrecision;text-rendering:geometricPrecision" />
      <path
         class="fil36"
         d="m 207.57156,-81.162588 v 0 c -1.49489,0 -2.7179,1.2231 -2.7179,2.717901 v 3.1976 c 0,1.4949 1.22301,2.7179 2.7179,2.7179 v 0 c 1.4949,0 2.71791,-1.223 2.71791,-2.7179 v -3.1976 c 0,-1.494801 -1.22301,-2.717901 -2.71791,-2.717901 z"
         id="path8152"
         style="clip-rule:evenodd;fill:#cc7643;fill-rule:evenodd;stroke-width:0.00268817;image-rendering:optimizeQuality;shape-rendering:geometricPrecision;text-rendering:geometricPrecision" />
      <path
         class="fil0"
         d="m 196.29507,-83.121788 v 0 c -1.99511,0 -3.62741,1.6323 -3.62741,3.6273 v 4.267501 c 0,1.9951 1.6323,3.6274 3.62741,3.6274 v 0 c 1.99499,0 3.62728,-1.6323 3.62728,-3.6274 v -4.267501 c 0,-1.995 -1.63229,-3.6273 -3.62728,-3.6273 z"
         id="path8154"
         style="clip-rule:evenodd;fill:#af5e31;fill-rule:evenodd;stroke-width:0.00268817;image-rendering:optimizeQuality;shape-rendering:geometricPrecision;text-rendering:geometricPrecision" />
      <path
         class="fil36"
         d="m 196.29507,-81.677388 v 0 c -1.49492,0 -2.7179,1.223 -2.7179,2.717901 v 3.1976 c 0,1.4949 1.22298,2.7179 2.7179,2.7179 v 0 c 1.49479,0 2.71788,-1.223 2.71788,-2.7179 v -3.1976 c 0,-1.494901 -1.22309,-2.717901 -2.71788,-2.717901 z"
         id="path8156"
         style="clip-rule:evenodd;fill:#cc7643;fill-rule:evenodd;stroke-width:0.00268817;image-rendering:optimizeQuality;shape-rendering:geometricPrecision;text-rendering:geometricPrecision" />
      <path
         class="fil39"
         d="m 212.17616,-58.175385 v 0 c 0.0452,1.9827 1.7045,3.567901 3.6872,3.5227 l 4.18381,-0.0955 c 1.98271,-0.0452 3.5679,-1.704502 3.52269,-3.687201 v 0 c -0.0453,-1.982801 -1.7045,-3.568001 -3.68729,-3.522701 l -4.1838,0.0954 c -1.98271,0.0453 -3.56791,1.7046 -3.52261,3.687301 z"
         id="path8158"
         style="clip-rule:evenodd;fill:#924c2a;fill-rule:evenodd;stroke-width:0.00268817;image-rendering:optimizeQuality;shape-rendering:geometricPrecision;text-rendering:geometricPrecision" />
      <path
         class="fil44"
         d="m 198.81417,-55.348685 h -3.39381 c -1.4777,0 -2.68669,1.209 -2.68669,2.686701 v 6.093499 c 0,1.477802 1.20899,2.686802 2.68669,2.686802 h 3.39381 c 1.4778,0 2.68679,-1.209 2.68679,-2.686802 v -6.093499 c 0,-1.477701 -1.20899,-2.686701 -2.68679,-2.686701 z"
         id="path8160"
         style="clip-rule:evenodd;fill:#6e311e;fill-rule:evenodd;stroke-width:0.00268817;image-rendering:optimizeQuality;shape-rendering:geometricPrecision;text-rendering:geometricPrecision" />
      <path
         class="fil44"
         d="m 209.49056,-55.348685 h -3.39379 c -1.47769,0 -2.68681,1.209 -2.68681,2.686701 v 6.093499 c 0,1.477802 1.20912,2.686802 2.68681,2.686802 h 3.39379 c 1.4777,0 2.68681,-1.209 2.68681,-2.686802 v -6.093499 c 0,-1.477701 -1.20911,-2.686701 -2.68681,-2.686701 z"
         id="path8162"
         style="clip-rule:evenodd;fill:#6e311e;fill-rule:evenodd;stroke-width:0.00268817;image-rendering:optimizeQuality;shape-rendering:geometricPrecision;text-rendering:geometricPrecision" />
      <path
         class="fil0"
         d="m 206.69407,-78.827887 h -9.82181 c -5.232,0 -9.5128,4.2807 -9.5128,9.5128 v 11.734902 c 0,5.2321 4.2808,9.512801 9.5128,9.512801 h 9.82181 c 5.23208,0 9.5128,-4.280701 9.5128,-9.512801 v -11.734902 c 0,-5.2321 -4.28072,-9.5128 -9.5128,-9.5128 z"
         id="path8164"
         style="clip-rule:evenodd;fill:#af5e31;fill-rule:evenodd;stroke-width:0.00268817;image-rendering:optimizeQuality;shape-rendering:geometricPrecision;text-rendering:geometricPrecision" />
      <path
         class="fil1"
         d="m 199.94836,-78.815487 h -3.10219 c -5.232,0 -9.5128,4.2593 -9.5128,9.4651 v 11.830402 c 0,5.205801 4.2808,9.4651 9.5128,9.4651 h 2.76688 c -1.97718,-1.737698 -3.22947,-4.2756 -3.22947,-7.090801 v -16.297601 c 0,-2.9712 1.39488,-5.6336 3.56478,-7.3722 z"
         id="path8166"
         style="clip-rule:evenodd;fill:#803d22;fill-rule:evenodd;stroke-width:0.00268817;image-rendering:optimizeQuality;shape-rendering:geometricPrecision;text-rendering:geometricPrecision" />
      <path
         class="fil0"
         d="m 190.85415,-59.863486 v 0 c -1.98318,0 -3.6059,1.622601 -3.6059,3.605902 v 4.1848 c 0,1.983299 1.62272,3.605901 3.6059,3.605901 v 0 c 1.98332,0 3.60601,-1.622602 3.60601,-3.605901 v -4.1848 c 0,-1.983301 -1.62269,-3.605902 -3.60601,-3.605902 z"
         id="path8168"
         style="clip-rule:evenodd;fill:#af5e31;fill-rule:evenodd;stroke-width:0.00268817;image-rendering:optimizeQuality;shape-rendering:geometricPrecision;text-rendering:geometricPrecision" />
      <path
         class="fil36"
         d="m 208.03056,-61.942686 h -4.29321 c -2.2869,0 -4.15798,1.8711 -4.15798,4.158101 v 5.129401 c 0,2.287 1.87108,4.158099 4.15798,4.158099 h 4.29321 c 2.28701,0 4.15811,-1.871099 4.15811,-4.158099 v -5.129401 c 0,-2.287001 -1.8711,-4.158101 -4.15811,-4.158101 z"
         id="path8170"
         style="clip-rule:evenodd;fill:#cc7643;fill-rule:evenodd;stroke-width:0.00268817;image-rendering:optimizeQuality;shape-rendering:geometricPrecision;text-rendering:geometricPrecision" />
      <path
         class="fil18"
         d="m 202.89098,-76.375787 v 0 c 1.02018,0 1.85488,0.8347 1.85488,1.8549 v 2.1527 c 0,1.0202 -0.8347,1.8549 -1.85488,1.8549 v 0 c -1.02021,0 -1.85481,-0.8347 -1.85481,-1.8549 v -2.1527 c 0,-1.0202 0.8346,-1.8549 1.85481,-1.8549 z"
         id="path8172"
         style="clip-rule:evenodd;fill:#333333;fill-rule:evenodd;stroke-width:0.00268817;image-rendering:optimizeQuality;shape-rendering:geometricPrecision;text-rendering:geometricPrecision" />
      <path
         class="fil18"
         d="m 211.82966,-76.369687 v 0 c 0.95581,0 1.7377,0.782 1.7377,1.7378 v 2.0168 c 0,0.9558 -0.78189,1.7377 -1.7377,1.7377 v 0 c -0.95581,0 -1.73778,-0.7819 -1.73778,-1.7377 v -2.0168 c 0,-0.9558 0.78197,-1.7378 1.73778,-1.7378 z"
         id="path8174"
         style="clip-rule:evenodd;fill:#333333;fill-rule:evenodd;stroke-width:0.00268817;image-rendering:optimizeQuality;shape-rendering:geometricPrecision;text-rendering:geometricPrecision" />
      <path
         class="fil39"
         d="m 217.09066,-65.870186 v -1.8291 c 0,-1.896001 -1.5512,-3.447201 -3.4471,-3.447201 h -6.5278 c -1.89589,0 -3.44709,1.5512 -3.44709,3.447201 v 1.8291 c 0,1.8959 1.5512,3.4471 3.44709,3.4471 h 6.5278 c 1.8959,0 3.4471,-1.5512 3.4471,-3.4471 z"
         id="path8176"
         style="clip-rule:evenodd;fill:#924c2a;fill-rule:evenodd;stroke-width:0.00268817;image-rendering:optimizeQuality;shape-rendering:geometricPrecision;text-rendering:geometricPrecision" />
      <path
         class="fil44"
         d="m 214.49817,-69.258687 v -0.914599 c 0,-0.948001 -0.7756,-1.723601 -1.7235,-1.723601 h -3.2639 c -0.948,0 -1.7236,0.7756 -1.7236,1.723601 v 0.914599 c 0,0.9479 0.7756,1.7235 1.7236,1.7235 h 3.2639 c 0.9479,0 1.7235,-0.7756 1.7235,-1.7235 z"
         id="path8178"
         style="clip-rule:evenodd;fill:#6e311e;fill-rule:evenodd;stroke-width:0.00268817;image-rendering:optimizeQuality;shape-rendering:geometricPrecision;text-rendering:geometricPrecision" />
      <path
         class="fil10"
         d="m 214.40977,-64.527186 v -0.9017 c 0,-0.9345 -0.76459,-1.6991 -1.69921,-1.6991 h -3.2213 c -0.93451,0 -1.6991,0.7646 -1.6991,1.6991 v 0.9017 c 0,0.9345 0.76459,1.6991 1.6991,1.6991 h 3.2213 c 0.93462,0 1.69921,-0.7646 1.69921,-1.6991 z"
         id="path8180"
         style="clip-rule:evenodd;fill:#990000;fill-rule:evenodd;stroke-width:0.00268817;image-rendering:optimizeQuality;shape-rendering:geometricPrecision;text-rendering:geometricPrecision" />
      <path
         class="fil37"
         d="m 213.30786,-63.521286 v -0.3679 c 0,-0.3813 -0.312,-0.6932 -0.69329,-0.6932 h -3.14071 c -0.38129,0 -0.69321,0.3119 -0.69321,0.6932 v 0.3679 c 0,0.3812 0.31192,0.6932 0.69321,0.6932 h 3.14071 c 0.38129,0 0.69329,-0.312 0.69329,-0.6932 z"
         id="path8182"
         style="clip-rule:evenodd;fill:#cc3300;fill-rule:evenodd;stroke-width:0.00268817;image-rendering:optimizeQuality;shape-rendering:geometricPrecision;text-rendering:geometricPrecision" />
      <path
         class="fil22"
         d="m 208.28707,-66.651586 c 0.1659,0.1976 0.41238,0.3235 0.68639,0.3235 h 4.38052 c 0.23738,0 0.45418,-0.0945 0.61568,-0.2483 -0.3117,-0.3488 -0.76448,-0.569401 -1.26629,-0.569401 h -3.22131 c -0.46468,0 -0.88741,0.189201 -1.19499,0.494201 z"
         id="path8184"
         style="clip-rule:evenodd;fill:#e6e6e6;fill-rule:evenodd;stroke-width:0.00268817;image-rendering:optimizeQuality;shape-rendering:geometricPrecision;text-rendering:geometricPrecision" />
      <path
         class="fil22"
         d="m 208.03675,-66.307786 c 0.18741,0.34 0.5071,0.684 0.81852,0.684 v 0 c 0.55409,0 1.00859,-0.6866 1.01909,-1.5318 h -0.3684 c -0.59608,0 -1.16319,0.261899 -1.46921,0.8478 z"
         id="path8186"
         style="clip-rule:evenodd;fill:#e6e6e6;fill-rule:evenodd;stroke-width:0.00268817;image-rendering:optimizeQuality;shape-rendering:geometricPrecision;text-rendering:geometricPrecision" />
      <path
         class="fil22"
         d="m 212.35536,-67.155586 c 0.0106,0.8355 0.46501,1.514 1.0191,1.514 v 0 c 0.30702,0 0.61222,-0.3154 0.79951,-0.6433 -0.3048,-0.5871 -0.86471,-0.8707 -1.46571,-0.8707 z"
         id="path8188"
         style="clip-rule:evenodd;fill:#e6e6e6;fill-rule:evenodd;stroke-width:0.00268817;image-rendering:optimizeQuality;shape-rendering:geometricPrecision;text-rendering:geometricPrecision" />
      <path
         class="fil22"
         d="m 208.25765,-63.304986 c 0.16762,-0.1976 0.41672,-0.3235 0.69361,-0.3235 h 4.42611 c 0.23989,0 0.45889,0.0945 0.62219,0.2483 -0.31499,0.3489 -0.7725,0.5694 -1.2795,0.5694 h -3.2549 c -0.46958,0 -0.8967,-0.1891 -1.20751,-0.4942 z"
         id="path8190"
         style="clip-rule:evenodd;fill:#e6e6e6;fill-rule:evenodd;stroke-width:0.00268817;image-rendering:optimizeQuality;shape-rendering:geometricPrecision;text-rendering:geometricPrecision" />
      <path
         class="fil22"
         d="m 208.00476,-63.675686 c 0.18931,-0.34 0.5124,-0.6839 0.82701,-0.6839 v 0 c 0.55989,0 1.0191,0.6865 1.02979,1.5317 h -0.37219 c -0.60241,0 -1.17541,-0.2619 -1.48461,-0.8478 z"
         id="path8192"
         style="clip-rule:evenodd;fill:#e6e6e6;fill-rule:evenodd;stroke-width:0.00268817;image-rendering:optimizeQuality;shape-rendering:geometricPrecision;text-rendering:geometricPrecision" />
      <path
         class="fil22"
         d="m 212.36838,-62.827886 c 0.0106,-0.8354 0.4699,-1.514 1.02978,-1.514 v 0 c 0.3102,0 0.61849,0.3154 0.8077,0.6433 -0.3079,0.5871 -0.87361,0.8707 -1.4809,0.8707 z"
         id="path8194"
         style="clip-rule:evenodd;fill:#e6e6e6;fill-rule:evenodd;stroke-width:0.00268817;image-rendering:optimizeQuality;shape-rendering:geometricPrecision;text-rendering:geometricPrecision" />
    </g>
    <g
       id="g1287"
       transform="translate(38.887717,1.3363477)">
      <g
         id="g1125"
         transform="translate(-169.5406,204.17262)">
        <path
           class="fil22"
           d="m 224.22557,-83.747788 c -1.65811,0 -3.26839,0.204 -4.80851,0.5859 v 0 c 0.13179,0.0328 0.2631,0.0668 0.39389,0.1022 l 0.0214,0.0057 c 0.8001,0.2172 1.58051,0.4824 2.3373,0.7935 l 0.0122,0.005 c 0.12301,0.0506 0.2453,0.1024 0.36711,0.1554 l 0.0175,0.0076 c 0.7443,0.325 1.4649,0.6938 2.1585,1.103801 l 0.0347,0.0205 c 0.108,0.0642 0.2155,0.1292 0.32231,0.195399 l 0.0295,0.0184 c 0.55909,0.3479 1.09979,0.7225 1.62009,1.1225 0.0167,0.0128 0.0336,0.0255 0.0503,0.0385 0.091,0.0704 0.1814,0.1417 0.2712,0.2137 l 0.0635,0.0511 c 0.0894,0.0722 0.17819,0.1451 0.2663,0.2188 0.0161,0.0135 0.0319,0.0271 0.048,0.0406 0.3879,0.3268 0.76329,0.6681 1.12508,1.0233 0.0183,0.0177 0.0363,0.0352 0.0543,0.053 0.0757,0.0749 0.1506,0.1507 0.22508,0.2268 0.0273,0.0279 0.0547,0.0558 0.0819,0.0838 0.0705,0.0728 0.14039,0.1462 0.20979,0.22 0.0294,0.0314 0.0587,0.063 0.088,0.0945 0.0689,0.0743 0.1374,0.1488 0.2051,0.2241 0.0249,0.0277 0.0495,0.0558 0.0743,0.0837 0.2305,0.2594 0.4545,0.5246 0.6714,0.7958 0.0217,0.027 0.0436,0.0537 0.0651,0.0808 0.0582,0.0736 0.11549,0.148 0.17269,0.2224 0.0324,0.0421 0.0649,0.0841 0.0969,0.1265 0.0539,0.0712 0.10711,0.143 0.16,0.2149 0.0345,0.0469 0.0688,0.0939 0.10289,0.1411 0.0509,0.0703 0.1012,0.1409 0.15111,0.2119 0.0349,0.0496 0.0692,0.0996 0.10371,0.1495 0.0489,0.0709 0.0978,0.1419 0.14571,0.2135 0.0326,0.0487 0.0645,0.0979 0.0967,0.1468 0.12102,0.184 0.23971,0.3696 0.35462,0.5578 l 0.005,0.0071 c 0.042,0.0689 0.0829,0.1386 0.12409,0.208 0.0346,0.0584 0.0696,0.1166 0.10371,0.1754 0.0392,0.0675 0.0775,0.1357 0.11589,0.2038 0.0352,0.0623 0.0703,0.1247 0.1048,0.1875 0.0367,0.0666 0.0729,0.1335 0.10869,0.2006 0.0351,0.0654 0.0696,0.1311 0.10401,0.197 0.0343,0.0658 0.0685,0.1317 0.1021,0.198 0.0354,0.0698 0.0699,0.1401 0.10451,0.2104 0.0313,0.0633 0.0628,0.1266 0.0933,0.1904 0.0413,0.0863 0.0815,0.1732 0.1215,0.2602 0.0343,0.0748 0.0687,0.1496 0.10221,0.2249 0.0465,0.1042 0.0926,0.2085 0.13729,0.3136 0.0249,0.0585 0.0487,0.1174 0.073,0.1762 0.0335,0.0809 0.0669,0.1618 0.0994,0.2433 0.0246,0.0619 0.0487,0.1242 0.0728,0.1864 0.0308,0.0796 0.0612,0.1595 0.091,0.239501 0.0233,0.0625 0.0463,0.125199 0.0689,0.187999 0.0298,0.0824 0.0587,0.1652 0.0874,0.248101 0.0209,0.0604 0.0419,0.1207 0.0622,0.181399 0.0308,0.0919 0.0603,0.1843 0.0899,0.2768 0.0167,0.0522 0.0339,0.1042 0.0501,0.1567 0.0439,0.142 0.0866,0.2845 0.12732,0.4279 0.0106,0.037 0.0201,0.0743 0.0305,0.1114 0.0306,0.11 0.0608,0.2202 0.0895,0.3309 0.0148,0.0566 0.0286,0.1136 0.0428,0.1704 0.0233,0.0928 0.0461,0.1857 0.0681,0.279 0.014,0.0603 0.0278,0.1207 0.0414,0.1812 0.0206,0.0914 0.0405,0.183 0.0598,0.2747 0.013,0.0609 0.0254,0.1218 0.0378,0.1829 0.019,0.0955 0.0372,0.1915 0.055,0.2874 0.0106,0.0564 0.0214,0.1127 0.0312,0.1692 0.0206,0.117 0.0397,0.2344 0.0584,0.352 0.006,0.0356 0.0119,0.0711 0.0172,0.106801 0.0233,0.1526 0.0448,0.305799 0.0643,0.4596 0.006,0.044 0.0103,0.0884 0.0156,0.132499 0.0135,0.1117 0.0267,0.223501 0.0384,0.335801 0.006,0.0567 0.0111,0.1136 0.0164,0.1705 0.01,0.1006 0.0188,0.2013 0.0269,0.302299 0.005,0.0608 0.01,0.121701 0.0138,0.182701 0.007,0.0994 0.0132,0.1991 0.0188,0.2989 0.003,0.0597 0.007,0.1194 0.01,0.1792 0.005,0.1076 0.009,0.2155 0.0122,0.3235 0.003,0.0518 0.004,0.1034 0.005,0.1552 0.004,0.1592 0.006,0.3187 0.006,0.4788 0,0.16 -0.003,0.3196 -0.006,0.4787 0,0.0518 -0.003,0.1035 -0.005,0.1552 -0.003,0.108 -0.007,0.2159 -0.0122,0.3235 -0.003,0.0599 -0.006,0.1195 -0.01,0.1792 -0.006,0.0998 -0.0119,0.1995 -0.0188,0.2989 -0.004,0.061 -0.009,0.1219 -0.0138,0.1828 -0.008,0.1009 -0.0172,0.2017 -0.0269,0.3022 -0.005,0.0569 -0.0106,0.1138 -0.0164,0.1705 -0.0117,0.1123 -0.0249,0.2241 -0.0384,0.3358 -0.005,0.0442 -0.01,0.0885 -0.0156,0.1325 -0.0198,0.1537 -0.0409,0.3071 -0.0643,0.4596 -0.006,0.0357 -0.0116,0.0711 -0.0172,0.1068 -0.0185,0.1176 -0.0377,0.2351 -0.0584,0.352 -0.01,0.0565 -0.0206,0.1128 -0.0312,0.1692 -0.0177,0.096 -0.036,0.1919 -0.055,0.2874 -0.0122,0.0611 -0.0249,0.122 -0.0378,0.1829 -0.0193,0.0918 -0.0393,0.1833 -0.0598,0.2747 -0.0135,0.0605 -0.0273,0.1209 -0.0414,0.1812 -0.022,0.0933 -0.045,0.1862 -0.0681,0.2791 -0.0143,0.0568 -0.0281,0.1137 -0.0428,0.1703 -0.0288,0.1107 -0.059,0.2209 -0.0895,0.3309 -0.0103,0.0371 -0.0201,0.0744 -0.0305,0.1114 -0.0409,0.143301 -0.0832,0.286 -0.12732,0.4279 -0.0164,0.0524 -0.0335,0.104501 -0.0501,0.1567 -0.0295,0.0925 -0.0591,0.184901 -0.0899,0.276801 -0.0204,0.0607 -0.0413,0.121 -0.0622,0.1814 -0.0286,0.0829 -0.0577,0.165698 -0.0874,0.2481 -0.0225,0.0629 -0.0456,0.1255 -0.0689,0.188 -0.0298,0.0801 -0.0603,0.1598 -0.091,0.239498 -0.0241,0.0623 -0.0481,0.124502 -0.0728,0.186402 -0.0325,0.0815 -0.066,0.162398 -0.0994,0.2433 -0.0243,0.0588 -0.0482,0.1177 -0.073,0.176199 -0.0448,0.105101 -0.0906,0.2095 -0.13729,0.3136 -0.0337,0.0752 -0.0677,0.150201 -0.10221,0.224901 -0.0401,0.087 -0.0802,0.1739 -0.1215,0.260199 -0.0305,0.0638 -0.0621,0.127 -0.0933,0.1905 -0.0345,0.0703 -0.0692,0.1405 -0.10451,0.210299 -0.0336,0.0663 -0.0678,0.132202 -0.1021,0.198001 -0.0343,0.0659 -0.069,0.131601 -0.10401,0.197001 -0.0358,0.0671 -0.072,0.133998 -0.10869,0.200599 -0.0345,0.0628 -0.0697,0.125201 -0.1048,0.1876 -0.0384,0.0681 -0.0768,0.1362 -0.11589,0.2037 -0.0341,0.0588 -0.0691,0.116999 -0.10371,0.175501 -0.0412,0.0694 -0.082,0.1391 -0.12409,0.207899 l -0.005,0.0071 c -0.11502,0.1881 -0.23371,0.373798 -0.35462,0.5578 -0.0322,0.0489 -0.0641,0.0981 -0.0967,0.146799 -0.0479,0.0716 -0.0968,0.142599 -0.14571,0.2135 -0.0345,0.05 -0.0689,0.0999 -0.10371,0.1495 -0.0498,0.0711 -0.10031,0.1416 -0.15111,0.2119 -0.0341,0.0472 -0.0684,0.0942 -0.10289,0.141099 -0.0529,0.072 -0.1061,0.143701 -0.16,0.2149 -0.032,0.0424 -0.0646,0.0843 -0.0969,0.1265 -0.0572,0.0745 -0.1144,0.148802 -0.17269,0.222401 -0.0214,0.0271 -0.0435,0.0539 -0.0651,0.0808 -0.21701,0.2711 -0.44079,0.536498 -0.6714,0.7958 -0.0249,0.0278 -0.0494,0.0559 -0.0743,0.0837 -0.0677,0.0753 -0.13628,0.149802 -0.2051,0.224099 -0.0293,0.0315 -0.0586,0.0631 -0.088,0.0945 -0.0694,0.0739 -0.13931,0.147201 -0.20979,0.220001 -0.0272,0.028 -0.0546,0.0559 -0.0819,0.0839 -0.0745,0.0761 -0.14938,0.151799 -0.22508,0.2267 -0.018,0.01781 -0.0362,0.0353 -0.0543,0.053 -0.36189,0.3551 -0.73707,0.6965 -1.12508,1.0233 -0.0161,0.01349 -0.0319,0.0271 -0.048,0.0406 -0.0881,0.0737 -0.1769,0.1465 -0.2663,0.2188 l -0.0635,0.0511 c -0.0898,0.072 -0.18021,0.143299 -0.2712,0.213699 l -0.0503,0.0386 c -0.52041,0.399801 -1.0609,0.7746 -1.62009,1.1224 l -0.0295,0.01839 c -0.10681,0.0662 -0.21431,0.1313 -0.32231,0.1954 l -0.0347,0.02051 c -0.69371,0.4099 -1.41412,0.778999 -2.1585,1.103799 l -0.0175,0.0076 c -0.12181,0.053 -0.2441,0.104802 -0.36711,0.155401 l -0.0122,0.0051 c -0.75689,0.310899 -1.53709,0.5764 -2.3373,0.793401 l -0.0214,0.0058 c -0.13079,0.0353 -0.26199,0.0694 -0.39389,0.1021 v 0 c 1.54012,0.3819 3.1504,0.585798 4.80851,0.585798 10.99871,0 19.9149,-8.916199 19.9149,-19.9148 0,-10.998675 -8.91619,-19.914876 -19.9149,-19.914876 z"
           id="path8762"
           style="clip-rule:evenodd;fill:#e6e6e6;fill-rule:evenodd;stroke-width:0.00268817;image-rendering:optimizeQuality;shape-rendering:geometricPrecision;text-rendering:geometricPrecision" />
        <path
           class="fil13"
           d="m 223.57446,-83.747788 c -1.41078,0 -2.7809,0.204 -4.0912,0.5859 v 0 c 0.11221,0.0328 0.22392,0.0668 0.3351,0.1022 l 0.0183,0.0057 c 0.6808,0.2172 1.3448,0.4824 1.98872,0.7935 l 0.0103,0.005 c 0.10459,0.0506 0.2087,0.1024 0.31228,0.1554 l 0.0148,0.0076 c 0.63328,0.325 1.2464,0.6938 1.8365,1.103801 l 0.0295,0.0205 c 0.092,0.0642 0.18338,0.1292 0.27419,0.195399 l 0.0251,0.0184 c 0.4757,0.3479 0.93581,0.7225 1.37851,1.1225 0.0143,0.0128 0.0285,0.0255 0.0428,0.0385 0.0774,0.0704 0.15431,0.1417 0.2308,0.2137 l 0.0539,0.0511 c 0.0761,0.0722 0.15172,0.1451 0.22673,0.2188 0.0135,0.0135 0.0271,0.0271 0.0407,0.0406 0.33009,0.3268 0.6495,0.6681 0.95729,1.0233 0.0153,0.0177 0.0309,0.0352 0.0462,0.053 0.0644,0.0749 0.12808,0.1507 0.19158,0.2268 0.0233,0.0279 0.0465,0.0558 0.0696,0.0838 0.06,0.0728 0.11948,0.1462 0.17848,0.22 0.0251,0.0314 0.05,0.063 0.0749,0.0945 0.0586,0.0743 0.11689,0.1488 0.17449,0.2241 0.0212,0.0277 0.0421,0.0558 0.0632,0.0837 0.19619,0.2594 0.38669,0.5246 0.57129,0.7958 0.0185,0.027 0.0371,0.0537 0.0554,0.0808 0.0495,0.0736 0.0982,0.148 0.1469,0.2224 0.0276,0.0421 0.0552,0.0841 0.0825,0.1265 0.0458,0.0712 0.0911,0.143 0.1361,0.2149 0.0293,0.0469 0.0585,0.0939 0.0876,0.1411 0.0432,0.0703 0.0861,0.1409 0.12851,0.2119 0.0297,0.0496 0.0589,0.0996 0.0882,0.1495 0.0417,0.0709 0.0832,0.1419 0.12401,0.2135 0.0278,0.0487 0.0549,0.0979 0.0823,0.1468 0.10289,0.184 0.20388,0.3696 0.30167,0.5578 l 0.004,0.0071 c 0.0358,0.0689 0.0705,0.1386 0.10559,0.208 0.0295,0.0584 0.0592,0.1166 0.0882,0.1754 0.0334,0.0675 0.0659,0.1357 0.0986,0.2038 0.03,0.0623 0.0598,0.1247 0.0892,0.1875 0.0313,0.0666 0.062,0.1335 0.0925,0.2006 0.0298,0.0654 0.0592,0.1311 0.0885,0.197 0.0292,0.0658 0.0583,0.1317 0.0869,0.198 0.0301,0.0698 0.0594,0.1401 0.0889,0.2104 0.0266,0.0633 0.0534,0.1266 0.0794,0.1904 0.0351,0.0863 0.0693,0.1732 0.10332,0.2602 0.0292,0.0748 0.0585,0.1496 0.087,0.2249 0.0395,0.1042 0.0788,0.2085 0.11679,0.3136 0.0212,0.0585 0.0414,0.1174 0.0621,0.1762 0.0285,0.0809 0.0569,0.1618 0.0846,0.2433 0.0209,0.0619 0.0414,0.1242 0.0619,0.1864 0.0262,0.0796 0.0521,0.1595 0.0775,0.239501 0.0198,0.0625 0.0393,0.125199 0.0586,0.187999 0.0254,0.0824 0.0499,0.1652 0.0744,0.248101 0.0177,0.0604 0.0356,0.1207 0.0529,0.181399 0.0262,0.0919 0.0513,0.1843 0.0764,0.2768 0.0143,0.0522 0.0289,0.1042 0.0427,0.1567 0.0373,0.142 0.0737,0.2845 0.10829,0.4279 0.009,0.037 0.0172,0.0743 0.0259,0.1114 0.0259,0.11 0.0518,0.2202 0.0762,0.3309 0.0124,0.0566 0.0243,0.1136 0.0364,0.1704 0.0196,0.0928 0.0392,0.1857 0.0579,0.279 0.0122,0.0603 0.0238,0.1207 0.0353,0.1812 0.0175,0.0914 0.0344,0.183 0.0508,0.2747 0.0111,0.0609 0.0217,0.1218 0.0322,0.1829 0.0164,0.0955 0.0316,0.1915 0.0468,0.2874 0.009,0.0564 0.018,0.1127 0.0266,0.1692 0.0175,0.117 0.0337,0.2344 0.0496,0.352 0.005,0.0356 0.01,0.0711 0.0148,0.106801 0.0199,0.1526 0.0382,0.305799 0.0547,0.4596 0.005,0.044 0.009,0.0884 0.0135,0.132499 0.0116,0.1117 0.0228,0.223501 0.0327,0.335801 0.005,0.0567 0.01,0.1136 0.014,0.1705 0.008,0.1006 0.0159,0.2013 0.0228,0.302299 0.004,0.0608 0.008,0.121701 0.0116,0.182701 0.006,0.0994 0.0114,0.1991 0.0161,0.2989 0.003,0.0597 0.006,0.1194 0.008,0.1792 0.005,0.1076 0.007,0.2155 0.0106,0.3235 0.003,0.0518 0.003,0.1034 0.004,0.1552 0.003,0.1592 0.005,0.3187 0.005,0.4788 0,0.16 -0.003,0.3196 -0.005,0.4787 0,0.0518 -0.003,0.1035 -0.004,0.1552 -0.003,0.108 -0.006,0.2159 -0.0106,0.3235 -0.003,0.0599 -0.005,0.1195 -0.008,0.1792 -0.005,0.0998 -0.0101,0.1995 -0.0161,0.2989 -0.004,0.061 -0.007,0.1219 -0.0116,0.1828 -0.007,0.1009 -0.0146,0.2017 -0.0228,0.3022 -0.005,0.0569 -0.009,0.1138 -0.014,0.1705 -0.0101,0.1123 -0.0212,0.2241 -0.0327,0.3358 -0.005,0.0442 -0.008,0.0885 -0.0135,0.1325 -0.0167,0.1537 -0.0348,0.3071 -0.0547,0.4596 -0.004,0.0357 -0.01,0.0711 -0.0148,0.1068 -0.0159,0.1176 -0.0321,0.2351 -0.0496,0.352 -0.008,0.0565 -0.0177,0.1128 -0.0266,0.1692 -0.0151,0.096 -0.0306,0.1919 -0.0468,0.2874 -0.0103,0.0611 -0.0212,0.122 -0.0322,0.1829 -0.0164,0.0918 -0.0334,0.1833 -0.0508,0.2747 -0.0116,0.0605 -0.0233,0.1209 -0.0353,0.1812 -0.0185,0.0933 -0.0382,0.1862 -0.0579,0.2791 -0.0122,0.0568 -0.0238,0.1137 -0.0364,0.1703 -0.0246,0.1107 -0.0503,0.2209 -0.0762,0.3309 -0.009,0.0371 -0.0169,0.0744 -0.0259,0.1114 -0.0348,0.143301 -0.0708,0.286 -0.10829,0.4279 -0.014,0.0524 -0.0285,0.104501 -0.0427,0.1567 -0.0251,0.0925 -0.0502,0.184901 -0.0764,0.276801 -0.0172,0.0607 -0.0352,0.121 -0.0529,0.1814 -0.0243,0.0829 -0.0491,0.165698 -0.0744,0.2481 -0.0193,0.0629 -0.0388,0.1255 -0.0586,0.188 -0.0254,0.0801 -0.0514,0.1598 -0.0775,0.239498 -0.0204,0.0623 -0.0409,0.124502 -0.0619,0.186402 -0.0277,0.0815 -0.0562,0.162398 -0.0846,0.2433 -0.0206,0.0588 -0.041,0.1177 -0.0621,0.176199 -0.0381,0.105101 -0.0771,0.2095 -0.11679,0.3136 -0.0286,0.0752 -0.0577,0.150201 -0.087,0.224901 -0.0341,0.087 -0.0682,0.1739 -0.10332,0.260199 -0.0259,0.0638 -0.0528,0.127 -0.0794,0.1905 -0.0294,0.0703 -0.0589,0.1405 -0.0889,0.210299 -0.0286,0.0663 -0.0577,0.132202 -0.0869,0.198001 -0.0292,0.0659 -0.0587,0.131601 -0.0885,0.197001 -0.0305,0.0671 -0.0613,0.133998 -0.0925,0.200599 -0.0294,0.0628 -0.0593,0.125201 -0.0892,0.1876 -0.0326,0.0681 -0.0653,0.1362 -0.0986,0.2037 -0.029,0.0588 -0.0588,0.116999 -0.0882,0.175501 -0.035,0.0694 -0.0698,0.1391 -0.10559,0.207899 l -0.004,0.0071 c -0.0978,0.1881 -0.19878,0.373798 -0.30167,0.5578 -0.0274,0.0489 -0.0546,0.0981 -0.0823,0.146799 -0.0408,0.0716 -0.0824,0.142599 -0.12401,0.2135 -0.0293,0.05 -0.0586,0.0999 -0.0882,0.1495 -0.0424,0.0711 -0.0853,0.1416 -0.12851,0.2119 -0.029,0.0472 -0.0583,0.0942 -0.0876,0.141099 -0.045,0.072 -0.0903,0.143701 -0.1361,0.2149 -0.0273,0.0424 -0.055,0.0843 -0.0825,0.1265 -0.0486,0.0745 -0.0973,0.148802 -0.1469,0.222401 -0.0183,0.0271 -0.037,0.0539 -0.0554,0.0808 -0.18468,0.2711 -0.3751,0.536498 -0.57129,0.7958 -0.0212,0.0278 -0.042,0.0559 -0.0632,0.0837 -0.0576,0.0753 -0.11599,0.149802 -0.17449,0.224099 -0.0249,0.0315 -0.0498,0.0631 -0.0749,0.0945 -0.059,0.0739 -0.1185,0.147201 -0.17848,0.220001 -0.023,0.028 -0.0464,0.0559 -0.0696,0.0839 -0.0634,0.0761 -0.1271,0.151799 -0.19158,0.2267 -0.0154,0.01781 -0.0308,0.0353 -0.0462,0.053 -0.3079,0.3551 -0.62709,0.6965 -0.95729,1.0233 -0.0135,0.01349 -0.0271,0.0271 -0.0407,0.0406 -0.075,0.0737 -0.15061,0.1465 -0.22673,0.2188 l -0.0539,0.0511 c -0.0765,0.072 -0.15338,0.143299 -0.2308,0.213699 l -0.0428,0.0386 c -0.44281,0.399801 -0.90271,0.7746 -1.37851,1.1224 l -0.0251,0.01839 c -0.0908,0.0662 -0.18219,0.1313 -0.27419,0.1954 l -0.0295,0.02051 c -0.59021,0.4099 -1.20322,0.778999 -1.8365,1.103799 l -0.0148,0.0076 c -0.10358,0.053 -0.20769,0.104802 -0.31228,0.155401 l -0.0103,0.0051 c -0.644,0.310899 -1.30781,0.5764 -1.98872,0.793401 l -0.0183,0.0058 c -0.11118,0.0353 -0.22289,0.0694 -0.3351,0.1021 v 0 c 1.3103,0.3819 2.68042,0.585798 4.0912,0.585798 9.358,0 16.9441,-8.916199 16.9441,-19.9148 0,-10.998675 -7.5861,-19.914876 -16.9441,-19.914876 z"
           id="path8764"
           style="clip-rule:evenodd;fill:#cccccc;fill-rule:evenodd;stroke-width:0.00268817;image-rendering:optimizeQuality;shape-rendering:geometricPrecision;text-rendering:geometricPrecision" />
      </g>
    </g>
    <g
       id="g1204"
       transform="translate(83.263503,137.62526)">
      <path
         class="fil0"
         d="m 90.062553,-81.824588 v 0 c -1.9951,0 -3.6274,1.6323 -3.6274,3.627301 v 4.2675 c 0,1.9951 1.6323,3.627401 3.6274,3.627401 v 0 c 1.995,0 3.6273,-1.632301 3.6273,-3.627401 v -4.2675 c 0,-1.995001 -1.6323,-3.627301 -3.6273,-3.627301 z"
         id="path8770"
         style="clip-rule:evenodd;fill:#af5e31;fill-rule:evenodd;stroke-width:0.00268817;image-rendering:optimizeQuality;shape-rendering:geometricPrecision;text-rendering:geometricPrecision" />
      <path
         class="fil36"
         d="m 90.062553,-80.380188 v 0 c -1.4949,0 -2.7179,1.223 -2.7179,2.717901 v 3.1976 c 0,1.4948 1.223,2.7179 2.7179,2.7179 v 0 c 1.4948,0 2.7179,-1.2231 2.7179,-2.7179 v -3.1976 c 0,-1.494901 -1.2231,-2.717901 -2.7179,-2.717901 z"
         id="path8772"
         style="clip-rule:evenodd;fill:#cc7643;fill-rule:evenodd;stroke-width:0.00268817;image-rendering:optimizeQuality;shape-rendering:geometricPrecision;text-rendering:geometricPrecision" />
      <path
         class="fil0"
         d="m 78.785953,-82.339388 v 0 c -1.995,0 -3.6273,1.6322 -3.6273,3.627301 v 4.2675 c 0,1.9951 1.6323,3.627301 3.6273,3.627301 v 0 c 1.9951,0 3.6274,-1.632201 3.6274,-3.627301 v -4.2675 c 0,-1.995101 -1.6323,-3.627301 -3.6274,-3.627301 z"
         id="path8774"
         style="clip-rule:evenodd;fill:#af5e31;fill-rule:evenodd;stroke-width:0.00268817;image-rendering:optimizeQuality;shape-rendering:geometricPrecision;text-rendering:geometricPrecision" />
      <path
         class="fil36"
         d="m 78.785953,-80.894988 v 0 c -1.4948,0 -2.7179,1.223 -2.7179,2.717901 v 3.1976 c 0,1.4948 1.2231,2.7179 2.7179,2.7179 v 0 c 1.4949,0 2.7179,-1.2231 2.7179,-2.7179 v -3.1976 c 0,-1.494901 -1.223,-2.717901 -2.7179,-2.717901 z"
         id="path8776"
         style="clip-rule:evenodd;fill:#cc7643;fill-rule:evenodd;stroke-width:0.00268817;image-rendering:optimizeQuality;shape-rendering:geometricPrecision;text-rendering:geometricPrecision" />
      <path
         class="fil39"
         d="m 96.240853,-59.114585 v 0 c -1.9833,0 -3.6059,1.6227 -3.6059,3.605901 v 4.184899 c 0,1.9832 1.6226,3.6059 3.6059,3.6059 v 0 c 1.9832,0 3.6059,-1.6227 3.6059,-3.6059 v -4.184899 c 0,-1.983201 -1.6227,-3.605901 -3.6059,-3.605901 z"
         id="path8778"
         style="clip-rule:evenodd;fill:#924c2a;fill-rule:evenodd;stroke-width:0.00268817;image-rendering:optimizeQuality;shape-rendering:geometricPrecision;text-rendering:geometricPrecision" />
      <path
         class="fil44"
         d="m 81.305153,-55.348685 h -3.3938 c -1.4777,0 -2.6868,1.209 -2.6868,2.686701 v 6.093499 c 0,1.477802 1.2091,2.686802 2.6868,2.686802 h 3.3938 c 1.4778,0 2.6868,-1.209 2.6868,-2.686802 v -6.093499 c 0,-1.477701 -1.209,-2.686701 -2.6868,-2.686701 z"
         id="path8780"
         style="clip-rule:evenodd;fill:#6e311e;fill-rule:evenodd;stroke-width:0.00268817;image-rendering:optimizeQuality;shape-rendering:geometricPrecision;text-rendering:geometricPrecision" />
      <path
         class="fil44"
         d="m 91.981553,-57.049485 h -3.3938 c -1.4778,0 -2.6868,1.209 -2.6868,2.686701 v 6.0935 c 0,1.477801 1.209,2.686801 2.6868,2.686801 h 3.3938 c 1.4777,0 2.6867,-1.209 2.6867,-2.686801 v -6.0935 c 0,-1.477701 -1.209,-2.686701 -2.6867,-2.686701 z"
         id="path8782"
         style="clip-rule:evenodd;fill:#6e311e;fill-rule:evenodd;stroke-width:0.00268817;image-rendering:optimizeQuality;shape-rendering:geometricPrecision;text-rendering:geometricPrecision" />
      <path
         class="fil0"
         d="m 89.185053,-78.045587 h -9.8218 c -5.232,0 -9.5128,4.2808 -9.5128,9.5128 v 11.735003 c 0,5.232 4.2808,9.5128 9.5128,9.5128 h 9.8218 c 5.232,0 9.5128,-4.2808 9.5128,-9.5128 v -11.735003 c 0,-5.232 -4.2808,-9.5128 -9.5128,-9.5128 z"
         id="path8784"
         style="clip-rule:evenodd;fill:#af5e31;fill-rule:evenodd;stroke-width:0.00268817;image-rendering:optimizeQuality;shape-rendering:geometricPrecision;text-rendering:geometricPrecision" />
      <path
         class="fil1"
         d="m 82.439353,-78.033087 h -3.1022 c -5.2321,0 -9.5128,4.2593 -9.5128,9.4651 v 11.830303 c 0,5.205899 4.2807,9.465101 9.5128,9.465101 h 2.7669 c -1.9772,-1.737601 -3.2295,-4.275503 -3.2295,-7.090701 v -16.297602 c 0,-2.971201 1.3949,-5.633601 3.5648,-7.372201 z"
         id="path8786"
         style="clip-rule:evenodd;fill:#803d22;fill-rule:evenodd;stroke-width:0.00268817;image-rendering:optimizeQuality;shape-rendering:geometricPrecision;text-rendering:geometricPrecision" />
      <path
         class="fil0"
         d="m 73.345153,-59.081185 v 0 c -1.9833,0 -3.6059,1.6227 -3.6059,3.605899 v 4.184902 c 0,1.9832 1.6226,3.6059 3.6059,3.6059 v 0 c 1.9833,0 3.6059,-1.6227 3.6059,-3.6059 v -4.184902 c 0,-1.983199 -1.6226,-3.605899 -3.6059,-3.605899 z"
         id="path8788"
         style="clip-rule:evenodd;fill:#af5e31;fill-rule:evenodd;stroke-width:0.00268817;image-rendering:optimizeQuality;shape-rendering:geometricPrecision;text-rendering:geometricPrecision" />
      <path
         class="fil36"
         d="m 90.521553,-61.160386 h -4.2932 c -2.2869,0 -4.1581,1.8712 -4.1581,4.1581 v 5.129501 c 0,2.2869 1.8712,4.158102 4.1581,4.158102 h 4.2932 c 2.2869,0 4.1581,-1.871202 4.1581,-4.158102 v -5.129501 c 0,-2.2869 -1.8712,-4.1581 -4.1581,-4.1581 z"
         id="path8790"
         style="clip-rule:evenodd;fill:#cc7643;fill-rule:evenodd;stroke-width:0.00268817;image-rendering:optimizeQuality;shape-rendering:geometricPrecision;text-rendering:geometricPrecision" />
      <path
         class="fil18"
         d="m 85.381953,-75.593387 v 0 c 1.0202,0 1.8549,0.8346 1.8549,1.8548 v 2.1528 c 0,1.020201 -0.8347,1.8548 -1.8549,1.8548 v 0 c -1.0202,0 -1.8549,-0.834599 -1.8549,-1.8548 v -2.1528 c 0,-1.0202 0.8347,-1.8548 1.8549,-1.8548 z"
         id="path8792"
         style="clip-rule:evenodd;fill:#333333;fill-rule:evenodd;stroke-width:0.00268817;image-rendering:optimizeQuality;shape-rendering:geometricPrecision;text-rendering:geometricPrecision" />
      <path
         class="fil18"
         d="m 94.320553,-75.587287 v 0 c 0.9558,0 1.7378,0.782 1.7378,1.7378 v 2.0168 c 0,0.955701 -0.782,1.737701 -1.7378,1.737701 v 0 c -0.9557,0 -1.7377,-0.782 -1.7377,-1.737701 v -2.0168 c 0,-0.9558 0.782,-1.7378 1.7377,-1.7378 z"
         id="path8794"
         style="clip-rule:evenodd;fill:#333333;fill-rule:evenodd;stroke-width:0.00268817;image-rendering:optimizeQuality;shape-rendering:geometricPrecision;text-rendering:geometricPrecision" />
      <path
         class="fil39"
         d="m 99.581653,-65.087886 v -1.829001 c 0,-1.896 -1.5512,-3.447199 -3.4472,-3.447199 h -6.5277 c -1.8959,0 -3.4471,1.551199 -3.4471,3.447199 v 1.829001 c 0,1.896 1.5512,3.4472 3.4471,3.4472 h 6.5277 c 1.896,0 3.4472,-1.5512 3.4472,-3.4472 z"
         id="path8796"
         style="clip-rule:evenodd;fill:#924c2a;fill-rule:evenodd;stroke-width:0.00268817;image-rendering:optimizeQuality;shape-rendering:geometricPrecision;text-rendering:geometricPrecision" />
      <path
         class="fil44"
         d="m 96.989153,-68.476387 v -0.9146 c 0,-0.947899 -0.7756,-1.7235 -1.7236,-1.7235 h -3.2639 c -0.9479,0 -1.7235,0.775601 -1.7235,1.7235 v 0.9146 c 0,0.948001 0.7756,1.723501 1.7235,1.723501 h 3.2639 c 0.948,0 1.7236,-0.7755 1.7236,-1.723501 z"
         id="path8798"
         style="clip-rule:evenodd;fill:#6e311e;fill-rule:evenodd;stroke-width:0.00268817;image-rendering:optimizeQuality;shape-rendering:geometricPrecision;text-rendering:geometricPrecision" />
      <path
         class="fil44"
         d="m 96.011253,-63.399086 v 0 c 0,-0.4933 -0.4037,-0.8969 -0.897,-0.8969 h -2.307 c -0.4933,0 -0.8969,0.4036 -0.8969,0.8969 v 0 c 0,0.4934 0.4036,0.897 0.8969,0.897 h 2.307 c 0.4933,0 0.897,-0.4036 0.897,-0.897 z"
         id="path8800"
         style="clip-rule:evenodd;fill:#6e311e;fill-rule:evenodd;stroke-width:0.00268817;image-rendering:optimizeQuality;shape-rendering:geometricPrecision;text-rendering:geometricPrecision" />
    </g>
    <g
       id="g1222"
       transform="translate(187.46114,137.72091)">
      <path
         class="fil0"
         d="m 53.788953,-82.606988 v 0 c -1.995,0 -3.6273,1.6323 -3.6273,3.6273 v 4.267501 c 0,1.9951 1.6323,3.6274 3.6273,3.6274 v 0 c 1.9951,0 3.6274,-1.6323 3.6274,-3.6274 v -4.267501 c 0,-1.995 -1.6323,-3.6273 -3.6274,-3.6273 z"
         id="path8802"
         style="clip-rule:evenodd;fill:#af5e31;fill-rule:evenodd;stroke-width:0.00268817;image-rendering:optimizeQuality;shape-rendering:geometricPrecision;text-rendering:geometricPrecision" />
      <path
         class="fil36"
         d="m 53.788953,-81.162588 v 0 c -1.4948,0 -2.7179,1.2231 -2.7179,2.717901 v 3.1976 c 0,1.4949 1.2231,2.7179 2.7179,2.7179 v 0 c 1.4949,0 2.7179,-1.223 2.7179,-2.7179 v -3.1976 c 0,-1.494801 -1.223,-2.717901 -2.7179,-2.717901 z"
         id="path8804"
         style="clip-rule:evenodd;fill:#cc7643;fill-rule:evenodd;stroke-width:0.00268817;image-rendering:optimizeQuality;shape-rendering:geometricPrecision;text-rendering:geometricPrecision" />
      <path
         class="fil0"
         d="m 42.512443,-83.121788 v 0 c -1.99509,0 -3.6274,1.6323 -3.6274,3.6273 v 4.267501 c 0,1.9951 1.63231,3.6274 3.6274,3.6274 v 0 c 1.99501,0 3.6273,-1.6323 3.6273,-3.6274 v -4.267501 c 0,-1.995 -1.63229,-3.6273 -3.6273,-3.6273 z"
         id="path8806"
         style="clip-rule:evenodd;fill:#af5e31;fill-rule:evenodd;stroke-width:0.00268817;image-rendering:optimizeQuality;shape-rendering:geometricPrecision;text-rendering:geometricPrecision" />
      <path
         class="fil36"
         d="m 42.512443,-81.677388 v 0 c -1.49489,0 -2.7179,1.223 -2.7179,2.717901 v 3.1976 c 0,1.4949 1.22301,2.7179 2.7179,2.7179 v 0 c 1.49481,0 2.71791,-1.223 2.71791,-2.7179 v -3.1976 c 0,-1.494901 -1.2231,-2.717901 -2.71791,-2.717901 z"
         id="path8808"
         style="clip-rule:evenodd;fill:#cc7643;fill-rule:evenodd;stroke-width:0.00268817;image-rendering:optimizeQuality;shape-rendering:geometricPrecision;text-rendering:geometricPrecision" />
      <path
         class="fil39"
         d="m 59.967253,-59.896886 v 0 c -1.9832,0 -3.6058,1.622601 -3.6058,3.605901 v 4.1848 c 0,1.983301 1.6226,3.606001 3.6058,3.606001 v 0 c 1.9833,0 3.606,-1.6227 3.606,-3.606001 v -4.1848 c 0,-1.9833 -1.6227,-3.605901 -3.606,-3.605901 z"
         id="path8810"
         style="clip-rule:evenodd;fill:#924c2a;fill-rule:evenodd;stroke-width:0.00268817;image-rendering:optimizeQuality;shape-rendering:geometricPrecision;text-rendering:geometricPrecision" />
      <path
         class="fil44"
         d="m 45.031553,-57.054086 h -3.3937 c -1.47781,0 -2.68681,1.209101 -2.68681,2.686801 v 6.0935 c 0,1.477801 1.209,2.686801 2.68681,2.686801 h 3.3937 c 1.4778,0 2.6868,-1.209 2.6868,-2.686801 v -6.0935 c 0,-1.4777 -1.209,-2.686801 -2.6868,-2.686801 z"
         id="path8812"
         style="clip-rule:evenodd;fill:#6e311e;fill-rule:evenodd;stroke-width:0.00268817;image-rendering:optimizeQuality;shape-rendering:geometricPrecision;text-rendering:geometricPrecision" />
      <path
         class="fil44"
         d="m 55.707953,-55.348685 h -3.3938 c -1.4777,0 -2.6868,1.209 -2.6868,2.686701 v 6.093499 c 0,1.477802 1.2091,2.686802 2.6868,2.686802 h 3.3938 c 1.4778,0 2.6868,-1.209 2.6868,-2.686802 v -6.093499 c 0,-1.477701 -1.209,-2.686701 -2.6868,-2.686701 z"
         id="path8814"
         style="clip-rule:evenodd;fill:#6e311e;fill-rule:evenodd;stroke-width:0.00268817;image-rendering:optimizeQuality;shape-rendering:geometricPrecision;text-rendering:geometricPrecision" />
      <path
         class="fil0"
         d="m 52.911453,-78.827887 h -9.82171 c -5.23209,0 -9.5128,4.2807 -9.5128,9.5128 v 11.734902 c 0,5.2321 4.28071,9.512801 9.5128,9.512801 h 9.82171 c 5.2321,0 9.5128,-4.280701 9.5128,-9.512801 v -11.734902 c 0,-5.2321 -4.2807,-9.5128 -9.5128,-9.5128 z"
         id="path8816"
         style="clip-rule:evenodd;fill:#af5e31;fill-rule:evenodd;stroke-width:0.00268817;image-rendering:optimizeQuality;shape-rendering:geometricPrecision;text-rendering:geometricPrecision" />
      <path
         class="fil1"
         d="m 46.165853,-78.815487 h -3.1023 c -5.23201,0 -9.5128,4.2593 -9.5128,9.4651 v 11.830402 c 0,5.205801 4.28079,9.4651 9.5128,9.4651 h 2.7669 c -1.97721,-1.737698 -3.2295,-4.2756 -3.2295,-7.090801 v -16.297601 c 0,-2.9712 1.39489,-5.6336 3.5649,-7.3722 z"
         id="path8818"
         style="clip-rule:evenodd;fill:#803d22;fill-rule:evenodd;stroke-width:0.00268817;image-rendering:optimizeQuality;shape-rendering:geometricPrecision;text-rendering:geometricPrecision" />
      <path
         class="fil0"
         d="m 37.071653,-59.863486 v 0 c -1.98331,0 -3.6059,1.622601 -3.6059,3.605902 v 4.1848 c 0,1.983299 1.62259,3.605901 3.6059,3.605901 v 0 c 1.9832,0 3.6059,-1.622602 3.6059,-3.605901 v -4.1848 c 0,-1.983301 -1.6227,-3.605902 -3.6059,-3.605902 z"
         id="path8820"
         style="clip-rule:evenodd;fill:#af5e31;fill-rule:evenodd;stroke-width:0.00268817;image-rendering:optimizeQuality;shape-rendering:geometricPrecision;text-rendering:geometricPrecision" />
      <path
         class="fil36"
         d="m 54.247953,-61.942686 h -4.2931 c -2.287,0 -4.1581,1.8711 -4.1581,4.158101 v 5.129401 c 0,2.287 1.8711,4.158099 4.1581,4.158099 h 4.2931 c 2.287,0 4.1581,-1.871099 4.1581,-4.158099 v -5.129401 c 0,-2.287001 -1.8711,-4.158101 -4.1581,-4.158101 z"
         id="path8822"
         style="clip-rule:evenodd;fill:#cc7643;fill-rule:evenodd;stroke-width:0.00268817;image-rendering:optimizeQuality;shape-rendering:geometricPrecision;text-rendering:geometricPrecision" />
      <path
         class="fil18"
         d="m 49.108353,-76.375787 v 0 c 1.0202,0 1.8549,0.8347 1.8549,1.8549 v 2.1527 c 0,1.0202 -0.8347,1.8549 -1.8549,1.8549 v 0 c -1.02011,0 -1.8548,-0.8347 -1.8548,-1.8549 v -2.1527 c 0,-1.0202 0.83469,-1.8549 1.8548,-1.8549 z"
         id="path8824"
         style="clip-rule:evenodd;fill:#333333;fill-rule:evenodd;stroke-width:0.00268817;image-rendering:optimizeQuality;shape-rendering:geometricPrecision;text-rendering:geometricPrecision" />
      <path
         class="fil18"
         d="m 58.047053,-76.369687 v 0 c 0.9558,0 1.7377,0.782 1.7377,1.7378 v 2.0168 c 0,0.9558 -0.7819,1.7377 -1.7377,1.7377 v 0 c -0.9558,0 -1.7377,-0.7819 -1.7377,-1.7377 v -2.0168 c 0,-0.9558 0.7819,-1.7378 1.7377,-1.7378 z"
         id="path8826"
         style="clip-rule:evenodd;fill:#333333;fill-rule:evenodd;stroke-width:0.00268817;image-rendering:optimizeQuality;shape-rendering:geometricPrecision;text-rendering:geometricPrecision" />
      <path
         class="fil39"
         d="m 63.308053,-65.870186 v -1.8291 c 0,-1.896001 -1.5512,-3.447201 -3.4471,-3.447201 h -6.5277 c -1.896,0 -3.4472,1.5512 -3.4472,3.447201 v 1.8291 c 0,1.8959 1.5512,3.4471 3.4472,3.4471 h 6.5277 c 1.8959,0 3.4471,-1.5512 3.4471,-3.4471 z"
         id="path8828"
         style="clip-rule:evenodd;fill:#924c2a;fill-rule:evenodd;stroke-width:0.00268817;image-rendering:optimizeQuality;shape-rendering:geometricPrecision;text-rendering:geometricPrecision" />
      <path
         class="fil44"
         d="m 60.715553,-69.258687 v -0.914599 c 0,-0.948001 -0.7755,-1.723601 -1.7235,-1.723601 h -3.2639 c -0.948,0 -1.7235,0.7756 -1.7235,1.723601 v 0.914599 c 0,0.9479 0.7755,1.7235 1.7235,1.7235 h 3.2639 c 0.948,0 1.7235,-0.7756 1.7235,-1.7235 z"
         id="path8830"
         style="clip-rule:evenodd;fill:#6e311e;fill-rule:evenodd;stroke-width:0.00268817;image-rendering:optimizeQuality;shape-rendering:geometricPrecision;text-rendering:geometricPrecision" />
      <path
         class="fil44"
         d="m 59.737653,-64.181386 v 0 c 0,-0.4934 -0.4036,-0.897 -0.8969,-0.897 h -2.307 c -0.4933,0 -0.897,0.4036 -0.897,0.897 v 0 c 0,0.4933 0.4037,0.8969 0.897,0.8969 h 2.307 c 0.4933,0 0.8969,-0.4036 0.8969,-0.8969 z"
         id="path8832"
         style="clip-rule:evenodd;fill:#6e311e;fill-rule:evenodd;stroke-width:0.00268817;image-rendering:optimizeQuality;shape-rendering:geometricPrecision;text-rendering:geometricPrecision" />
    </g>
    <g
       id="g1186"
       transform="translate(-25.087256,137.69404)">
      <path
         class="fil0"
         d="m 130.84606,-81.800488 v 0 c -1.9951,0 -3.6274,1.6322 -3.6274,3.627301 v 4.2675 c 0,1.9951 1.6323,3.6273 3.6274,3.6273 v 0 c 1.995,0 3.6273,-1.6322 3.6273,-3.6273 v -4.2675 c 0,-1.995101 -1.6323,-3.627301 -3.6273,-3.627301 z"
         id="path9716"
         style="clip-rule:evenodd;fill:#af5e31;fill-rule:evenodd;stroke-width:0.00268817;image-rendering:optimizeQuality;shape-rendering:geometricPrecision;text-rendering:geometricPrecision" />
      <path
         class="fil36"
         d="m 130.84606,-80.356088 v 0 c -1.4949,0 -2.7179,1.223001 -2.7179,2.717901 v 3.1976 c 0,1.4948 1.223,2.7179 2.7179,2.7179 v 0 c 1.4948,0 2.7179,-1.2231 2.7179,-2.7179 v -3.1976 c 0,-1.4949 -1.2231,-2.717901 -2.7179,-2.717901 z"
         id="path9718"
         style="clip-rule:evenodd;fill:#cc7643;fill-rule:evenodd;stroke-width:0.00268817;image-rendering:optimizeQuality;shape-rendering:geometricPrecision;text-rendering:geometricPrecision" />
      <path
         class="fil0"
         d="m 119.56945,-82.315288 v 0 c -1.995,0 -3.6273,1.6322 -3.6273,3.627301 v 4.2675 c 0,1.995 1.6323,3.6273 3.6273,3.6273 v 0 c 1.99511,0 3.6274,-1.6323 3.6274,-3.6273 v -4.2675 c 0,-1.995101 -1.63229,-3.627301 -3.6274,-3.627301 z"
         id="path9720"
         style="clip-rule:evenodd;fill:#af5e31;fill-rule:evenodd;stroke-width:0.00268817;image-rendering:optimizeQuality;shape-rendering:geometricPrecision;text-rendering:geometricPrecision" />
      <path
         class="fil36"
         d="m 119.56945,-80.870888 v 0 c -1.4948,0 -2.7179,1.223001 -2.7179,2.717901 v 3.1975 c 0,1.4949 1.2231,2.7179 2.7179,2.7179 v 0 c 1.49491,0 2.7179,-1.223 2.7179,-2.7179 v -3.1975 c 0,-1.4949 -1.22299,-2.717901 -2.7179,-2.717901 z"
         id="path9722"
         style="clip-rule:evenodd;fill:#cc7643;fill-rule:evenodd;stroke-width:0.00268817;image-rendering:optimizeQuality;shape-rendering:geometricPrecision;text-rendering:geometricPrecision" />
      <path
         class="fil39"
         d="m 137.02436,-59.090486 v 0 c -1.9833,0 -3.60591,1.622701 -3.60591,3.6059 v 4.184902 c 0,1.9832 1.62261,3.6059 3.60591,3.6059 v 0 c 1.9832,0 3.6059,-1.6227 3.6059,-3.6059 v -4.184902 c 0,-1.983199 -1.6227,-3.6059 -3.6059,-3.6059 z"
         id="path9724"
         style="clip-rule:evenodd;fill:#924c2a;fill-rule:evenodd;stroke-width:0.00268817;image-rendering:optimizeQuality;shape-rendering:geometricPrecision;text-rendering:geometricPrecision" />
      <path
         class="fil44"
         d="m 122.08865,-55.348685 h -3.39379 c -1.47771,0 -2.68681,1.209 -2.68681,2.686701 v 6.093499 c 0,1.477802 1.2091,2.686802 2.68681,2.686802 h 3.39379 c 1.47771,0 2.6868,-1.209 2.6868,-2.686802 v -6.093499 c 0,-1.477701 -1.20909,-2.686701 -2.6868,-2.686701 z"
         id="path9726"
         style="clip-rule:evenodd;fill:#6e311e;fill-rule:evenodd;stroke-width:0.00268817;image-rendering:optimizeQuality;shape-rendering:geometricPrecision;text-rendering:geometricPrecision" />
      <path
         class="fil44"
         d="m 132.76506,-55.348685 h -3.3938 c -1.47781,0 -2.68681,1.209 -2.68681,2.686701 v 6.093499 c 0,1.477802 1.209,2.686802 2.68681,2.686802 h 3.3938 c 1.4777,0 2.6867,-1.209 2.6867,-2.686802 v -6.093499 c 0,-1.477701 -1.209,-2.686701 -2.6867,-2.686701 z"
         id="path9728"
         style="clip-rule:evenodd;fill:#6e311e;fill-rule:evenodd;stroke-width:0.00268817;image-rendering:optimizeQuality;shape-rendering:geometricPrecision;text-rendering:geometricPrecision" />
      <path
         class="fil0"
         d="m 129.96856,-78.021487 h -9.82181 c -5.232,0 -9.5128,4.2808 -9.5128,9.5128 v 11.735001 c 0,5.232001 4.2808,9.512803 9.5128,9.512803 h 9.82181 c 5.232,0 9.5128,-4.280802 9.5128,-9.512803 v -11.735001 c 0,-5.232 -4.2808,-9.5128 -9.5128,-9.5128 z"
         id="path9730"
         style="clip-rule:evenodd;fill:#af5e31;fill-rule:evenodd;stroke-width:0.00268817;image-rendering:optimizeQuality;shape-rendering:geometricPrecision;text-rendering:geometricPrecision" />
      <path
         class="fil1"
         d="m 123.22285,-78.008987 h -3.10219 c -5.23211,0 -9.51281,4.2592 -9.51281,9.4651 v 11.830301 c 0,5.205902 4.2807,9.465101 9.51281,9.465101 h 2.76689 c -1.9772,-1.737699 -3.2296,-4.2756 -3.2296,-7.090701 v -16.2976 c 0,-2.971201 1.395,-5.633601 3.5649,-7.372201 z"
         id="path9732"
         style="clip-rule:evenodd;fill:#803d22;fill-rule:evenodd;stroke-width:0.00268817;image-rendering:optimizeQuality;shape-rendering:geometricPrecision;text-rendering:geometricPrecision" />
      <path
         class="fil0"
         d="m 114.12865,-59.057086 v 0 c -1.9833,0 -3.6059,1.622701 -3.6059,3.605901 v 4.184902 c 0,1.9832 1.6226,3.6059 3.6059,3.6059 v 0 c 1.98321,0 3.60591,-1.6227 3.60591,-3.6059 v -4.184902 c 0,-1.9832 -1.6227,-3.605901 -3.60591,-3.605901 z"
         id="path9734"
         style="clip-rule:evenodd;fill:#af5e31;fill-rule:evenodd;stroke-width:0.00268817;image-rendering:optimizeQuality;shape-rendering:geometricPrecision;text-rendering:geometricPrecision" />
      <path
         class="fil36"
         d="m 131.30506,-61.136286 h -4.29321 c -2.287,0 -4.15809,1.871201 -4.15809,4.158101 v 5.129501 c 0,2.286899 1.87109,4.158099 4.15809,4.158099 h 4.29321 c 2.2869,0 4.1581,-1.8712 4.1581,-4.158099 v -5.129501 c 0,-2.2869 -1.8712,-4.158101 -4.1581,-4.158101 z"
         id="path9736"
         style="clip-rule:evenodd;fill:#cc7643;fill-rule:evenodd;stroke-width:0.00268817;image-rendering:optimizeQuality;shape-rendering:geometricPrecision;text-rendering:geometricPrecision" />
      <path
         class="fil18"
         d="m 126.16546,-75.569387 v 0 c 1.02019,0 1.85489,0.8347 1.85489,1.8549 v 2.1528 c 0,1.020101 -0.8347,1.8548 -1.85489,1.8548 v 0 c -1.02021,0 -1.85491,-0.834699 -1.85491,-1.8548 v -2.1528 c 0,-1.0202 0.8347,-1.8549 1.85491,-1.8549 z"
         id="path9738"
         style="clip-rule:evenodd;fill:#333333;fill-rule:evenodd;stroke-width:0.00268817;image-rendering:optimizeQuality;shape-rendering:geometricPrecision;text-rendering:geometricPrecision" />
      <path
         class="fil18"
         d="m 135.10406,-75.563187 v 0 c 0.9558,0 1.7378,0.782 1.7378,1.7377 v 2.0168 c 0,0.955801 -0.782,1.7378 -1.7378,1.7378 v 0 c -0.9557,0 -1.7377,-0.781999 -1.7377,-1.7378 v -2.0168 c 0,-0.9557 0.782,-1.7377 1.7377,-1.7377 z"
         id="path9740"
         style="clip-rule:evenodd;fill:#333333;fill-rule:evenodd;stroke-width:0.00268817;image-rendering:optimizeQuality;shape-rendering:geometricPrecision;text-rendering:geometricPrecision" />
      <path
         class="fil39"
         d="m 140.36516,-65.063786 v -1.8291 c 0,-1.895901 -1.5512,-3.447101 -3.4472,-3.447101 h -6.5277 c -1.8959,0 -3.4472,1.5512 -3.4472,3.447101 v 1.8291 c 0,1.896 1.5513,3.4472 3.4472,3.4472 h 6.5277 c 1.896,0 3.4472,-1.5512 3.4472,-3.4472 z"
         id="path9742"
         style="clip-rule:evenodd;fill:#924c2a;fill-rule:evenodd;stroke-width:0.00268817;image-rendering:optimizeQuality;shape-rendering:geometricPrecision;text-rendering:geometricPrecision" />
      <path
         class="fil44"
         d="m 137.77266,-68.452287 v -0.9146 c 0,-0.947899 -0.7756,-1.723499 -1.7236,-1.723499 h -3.2639 c -0.94791,0 -1.72351,0.7756 -1.72351,1.723499 v 0.9146 c 0,0.947901 0.7756,1.7235 1.72351,1.7235 h 3.2639 c 0.948,0 1.7236,-0.775599 1.7236,-1.7235 z"
         id="path9744"
         style="clip-rule:evenodd;fill:#6e311e;fill-rule:evenodd;stroke-width:0.00268817;image-rendering:optimizeQuality;shape-rendering:geometricPrecision;text-rendering:geometricPrecision" />
      <path
         class="fil44"
         d="m 136.79475,-63.374986 v 0 c 0,-0.4933 -0.40369,-0.8969 -0.89699,-0.8969 h -2.307 c -0.4933,0 -0.8969,0.4036 -0.8969,0.8969 v 0 c 0,0.4934 0.4036,0.897 0.8969,0.897 h 2.307 c 0.4933,0 0.89699,-0.4036 0.89699,-0.897 z"
         id="path9746"
         style="clip-rule:evenodd;fill:#6e311e;fill-rule:evenodd;stroke-width:0.00268817;image-rendering:optimizeQuality;shape-rendering:geometricPrecision;text-rendering:geometricPrecision" />
    </g>
    <g
       id="g1242"
       transform="translate(20.296725,273.15561)">
      <path
         class="fil0"
         d="m 17.765743,-82.606988 v 0 c -1.995,0 -3.6273,1.6323 -3.6273,3.6273 v 4.267501 c 0,1.9951 1.6323,3.6274 3.6273,3.6274 v 0 c 1.9951,0 3.6274,-1.6323 3.6274,-3.6274 v -4.267501 c 0,-1.995 -1.6323,-3.6273 -3.6274,-3.6273 z"
         id="path11078"
         style="clip-rule:evenodd;fill:#af5e31;fill-rule:evenodd;stroke-width:0.00268817;image-rendering:optimizeQuality;shape-rendering:geometricPrecision;text-rendering:geometricPrecision" />
      <path
         class="fil36"
         d="m 17.765743,-81.162588 v 0 c -1.4948,0 -2.7179,1.2231 -2.7179,2.717901 v 3.1976 c 0,1.4949 1.2231,2.7179 2.7179,2.7179 v 0 c 1.4949,0 2.7179,-1.223 2.7179,-2.7179 v -3.1976 c 0,-1.494801 -1.223,-2.717901 -2.7179,-2.717901 z"
         id="path11080"
         style="clip-rule:evenodd;fill:#cc7643;fill-rule:evenodd;stroke-width:0.00268817;image-rendering:optimizeQuality;shape-rendering:geometricPrecision;text-rendering:geometricPrecision" />
      <path
         class="fil0"
         d="m 6.4892441,-83.121788 v 0 c -1.995101,0 -3.6274,1.6323 -3.6274,3.6273 v 4.267501 c 0,1.9951 1.632299,3.6274 3.6274,3.6274 v 0 c 1.995001,0 3.6272999,-1.6323 3.6272999,-3.6274 v -4.267501 c 0,-1.995 -1.6322989,-3.6273 -3.6272999,-3.6273 z"
         id="path11082"
         style="clip-rule:evenodd;fill:#af5e31;fill-rule:evenodd;stroke-width:0.00268817;image-rendering:optimizeQuality;shape-rendering:geometricPrecision;text-rendering:geometricPrecision" />
      <path
         class="fil36"
         d="m 6.4892441,-81.677388 v 0 c -1.494901,0 -2.7179,1.223 -2.7179,2.717901 v 3.1976 c 0,1.4949 1.222999,2.7179 2.7179,2.7179 v 0 c 1.494801,0 2.717901,-1.223 2.717901,-2.7179 v -3.1976 c 0,-1.494901 -1.2231,-2.717901 -2.717901,-2.717901 z"
         id="path11084"
         style="clip-rule:evenodd;fill:#cc7643;fill-rule:evenodd;stroke-width:0.00268817;image-rendering:optimizeQuality;shape-rendering:geometricPrecision;text-rendering:geometricPrecision" />
      <path
         class="fil39"
         d="m 23.944043,-59.896886 v 0 c -1.9832,0 -3.6058,1.622601 -3.6058,3.605901 v 4.1848 c 0,1.983301 1.6226,3.606001 3.6058,3.606001 v 0 c 1.9833,0 3.606,-1.6227 3.606,-3.606001 v -4.1848 c 0,-1.9833 -1.6227,-3.605901 -3.606,-3.605901 z"
         id="path11086"
         style="clip-rule:evenodd;fill:#924c2a;fill-rule:evenodd;stroke-width:0.00268817;image-rendering:optimizeQuality;shape-rendering:geometricPrecision;text-rendering:geometricPrecision" />
      <path
         class="fil44"
         d="m 9.0083451,-55.348685 h -3.393702 c -1.477799,0 -2.686799,1.209 -2.686799,2.686701 v 6.093499 c 0,1.477802 1.209,2.686802 2.686799,2.686802 h 3.393702 c 1.4777979,0 2.6867989,-1.209 2.6867989,-2.686802 v -6.093499 c 0,-1.477701 -1.209001,-2.686701 -2.6867989,-2.686701 z"
         id="path11088"
         style="clip-rule:evenodd;fill:#6e311e;fill-rule:evenodd;stroke-width:0.00268817;image-rendering:optimizeQuality;shape-rendering:geometricPrecision;text-rendering:geometricPrecision" />
      <path
         class="fil44"
         d="m 19.684743,-55.348685 h -3.3938 c -1.4777,0 -2.6868,1.209 -2.6868,2.686701 v 6.093499 c 0,1.477802 1.2091,2.686802 2.6868,2.686802 h 3.3938 c 1.4778,0 2.6868,-1.209 2.6868,-2.686802 v -6.093499 c 0,-1.477701 -1.209,-2.686701 -2.6868,-2.686701 z"
         id="path11090"
         style="clip-rule:evenodd;fill:#6e311e;fill-rule:evenodd;stroke-width:0.00268817;image-rendering:optimizeQuality;shape-rendering:geometricPrecision;text-rendering:geometricPrecision" />
      <path
         class="fil0"
         d="M 16.888243,-78.827887 H 7.0665441 c -5.232101,0 -9.5128,4.2807 -9.5128,9.5128 v 11.734902 c 0,5.2321 4.280699,9.512801 9.5128,9.512801 h 9.8216989 c 5.2321,0 9.5128,-4.280701 9.5128,-9.512801 v -11.734902 c 0,-5.2321 -4.2807,-9.5128 -9.5128,-9.5128 z"
         id="path11092"
         style="clip-rule:evenodd;fill:#af5e31;fill-rule:evenodd;stroke-width:0.00268817;image-rendering:optimizeQuality;shape-rendering:geometricPrecision;text-rendering:geometricPrecision" />
      <path
         class="fil1"
         d="M 10.142645,-78.815487 H 7.0403451 c -5.232001,0 -9.512702,4.2593 -9.512702,9.4651 v 11.830402 c 0,5.205801 4.280701,9.4651 9.512702,9.4651 h 2.766899 c -1.9772,-1.737698 -3.229499,-4.2756 -3.229499,-7.090801 v -16.297601 c 0,-2.9712 1.394899,-5.6336 3.5648999,-7.3722 z"
         id="path11094"
         style="clip-rule:evenodd;fill:#803d22;fill-rule:evenodd;stroke-width:0.00268817;image-rendering:optimizeQuality;shape-rendering:geometricPrecision;text-rendering:geometricPrecision" />
      <path
         class="fil0"
         d="m 1.0484431,-59.863486 v 0 c -1.98329902,0 -3.605901,1.622601 -3.605901,3.605902 v 4.1848 c 0,1.983299 1.62260198,3.605901 3.605901,3.605901 v 0 c 1.9832,0 3.6059,-1.622602 3.6059,-3.605901 v -4.1848 c 0,-1.983301 -1.6227,-3.605902 -3.6059,-3.605902 z"
         id="path11096"
         style="clip-rule:evenodd;fill:#af5e31;fill-rule:evenodd;stroke-width:0.00268817;image-rendering:optimizeQuality;shape-rendering:geometricPrecision;text-rendering:geometricPrecision" />
      <path
         class="fil36"
         d="m 18.224743,-61.942686 h -4.2931 c -2.286998,0 -4.1580989,1.8711 -4.1580989,4.158101 v 5.129401 c 0,2.287 1.8711009,4.158099 4.1580989,4.158099 h 4.2931 c 2.287,0 4.1581,-1.871099 4.1581,-4.158099 v -5.129401 c 0,-2.287001 -1.8711,-4.158101 -4.1581,-4.158101 z"
         id="path11098"
         style="clip-rule:evenodd;fill:#cc7643;fill-rule:evenodd;stroke-width:0.00268817;image-rendering:optimizeQuality;shape-rendering:geometricPrecision;text-rendering:geometricPrecision" />
      <path
         class="fil18"
         d="m 25.828643,-77.144787 v 0 c -0.3774,-0.3774 -0.9949,-0.3774 -1.3722,0 l -5.3806,5.3806 c -0.3774,0.377401 -0.3774,0.9949 0,1.372201 v 0 c 0.3774,0.377399 0.9949,0.377399 1.3723,0 l 5.3805,-5.380501 c 0.3774,-0.3774 0.3774,-0.9949 0,-1.3723 z"
         id="path11100"
         style="clip-rule:evenodd;fill:#333333;fill-rule:evenodd;stroke-width:0.00268817;image-rendering:optimizeQuality;shape-rendering:geometricPrecision;text-rendering:geometricPrecision" />
      <path
         class="fil18"
         d="m 19.075843,-77.144787 v 0 c 0.3774,-0.3774 0.9949,-0.3774 1.3722,0 l 5.3806,5.3806 c 0.3774,0.377401 0.3774,0.9949 0,1.372201 v 0 c -0.3774,0.377399 -0.9949,0.377399 -1.3722,0 l -5.3806,-5.380501 c -0.3774,-0.3774 -0.3774,-0.9949 0,-1.3723 z"
         id="path11102"
         style="clip-rule:evenodd;fill:#333333;fill-rule:evenodd;stroke-width:0.00268817;image-rendering:optimizeQuality;shape-rendering:geometricPrecision;text-rendering:geometricPrecision" />
      <path
         class="fil18"
         d="m 16.396843,-77.144787 v 0 c -0.3774,-0.3774 -0.9949,-0.3774 -1.3722,0 l -5.3805999,5.3806 c -0.377399,0.377401 -0.377399,0.9949 0,1.372201 v 0 c 0.3774019,0.377399 0.9949019,0.377399 1.3723009,0 l 5.380499,-5.380501 c 0.3774,-0.3774 0.3774,-0.9949 0,-1.3723 z"
         id="path11104"
         style="clip-rule:evenodd;fill:#333333;fill-rule:evenodd;stroke-width:0.00268817;image-rendering:optimizeQuality;shape-rendering:geometricPrecision;text-rendering:geometricPrecision" />
      <path
         class="fil18"
         d="m 9.6440431,-77.144787 v 0 c 0.3774019,-0.3774 0.9949019,-0.3774 1.3722009,0 l 5.380599,5.3806 c 0.3774,0.377401 0.3774,0.9949 0,1.372201 v 0 c -0.3774,0.377399 -0.9949,0.377399 -1.3722,0 l -5.3805999,-5.380501 c -0.377399,-0.3774 -0.377399,-0.9949 0,-1.3723 z"
         id="path11106"
         style="clip-rule:evenodd;fill:#333333;fill-rule:evenodd;stroke-width:0.00268817;image-rendering:optimizeQuality;shape-rendering:geometricPrecision;text-rendering:geometricPrecision" />
      <path
         class="fil39"
         d="m 27.284843,-65.870186 v -1.8291 c 0,-1.896001 -1.5512,-3.447201 -3.4471,-3.447201 h -6.5277 c -1.896,0 -3.4472,1.5512 -3.4472,3.447201 v 1.8291 c 0,1.8959 1.5512,3.4471 3.4472,3.4471 h 6.5277 c 1.8959,0 3.4471,-1.5512 3.4471,-3.4471 z"
         id="path13712"
         style="clip-rule:evenodd;fill:#924c2a;fill-rule:evenodd;stroke-width:0.00268817;image-rendering:optimizeQuality;shape-rendering:geometricPrecision;text-rendering:geometricPrecision" />
      <path
         class="fil44"
         d="m 24.692343,-69.258687 v -0.914599 c 0,-0.948001 -0.7755,-1.723601 -1.7235,-1.723601 h -3.2639 c -0.948,0 -1.7235,0.7756 -1.7235,1.723601 v 0.914599 c 0,0.9479 0.7755,1.7235 1.7235,1.7235 h 3.2639 c 0.948,0 1.7235,-0.7756 1.7235,-1.7235 z"
         id="path13714"
         style="clip-rule:evenodd;fill:#6e311e;fill-rule:evenodd;stroke-width:0.00268817;image-rendering:optimizeQuality;shape-rendering:geometricPrecision;text-rendering:geometricPrecision" />
      <path
         class="fil44"
         d="m 23.714443,-64.181386 v 0 c 0,-0.4934 -0.4036,-0.897 -0.8969,-0.897 h -2.307 c -0.4933,0 -0.897,0.4036 -0.897,0.897 v 0 c 0,0.4933 0.4037,0.8969 0.897,0.8969 h 2.307 c 0.4933,0 0.8969,-0.4036 0.8969,-0.8969 z"
         id="path13716"
         style="clip-rule:evenodd;fill:#6e311e;fill-rule:evenodd;stroke-width:0.00268817;image-rendering:optimizeQuality;shape-rendering:geometricPrecision;text-rendering:geometricPrecision" />
    </g>
    <g
       id="g1262"
       transform="translate(127.81755,272.94468)">
      <path
         class="fil0"
         d="m -34.859561,-80.737288 v 0 c -1.4107,1.4107 -1.4107,3.719101 0,5.129801 l 3.017501,3.0176 c 1.410801,1.410701 3.719201,1.410701 5.129901,0 v 0 c 1.4107,-1.4107 1.4107,-3.7191 0,-5.1298 l -3.017602,-3.017601 c -1.410701,-1.4107 -3.7191,-1.4107 -5.1298,0 z"
         id="path11108"
         style="clip-rule:evenodd;fill:#af5e31;fill-rule:evenodd;stroke-width:0.00268817;image-rendering:optimizeQuality;shape-rendering:geometricPrecision;text-rendering:geometricPrecision" />
      <path
         class="fil36"
         d="m -33.838262,-79.715988 v 0 c -1.056999,1.057001 -1.056999,2.786701 0,3.843701 l 2.261003,2.261 c 1.0571,1.0571 2.7867,1.0571 3.843699,0 v 0 c 1.057,-1.057 1.057,-2.7866 0,-3.8437 l -2.260999,-2.261001 c -1.057003,-1.057 -2.786703,-1.057 -3.843703,0 z"
         id="path11110"
         style="clip-rule:evenodd;fill:#cc7643;fill-rule:evenodd;stroke-width:0.00268817;image-rendering:optimizeQuality;shape-rendering:geometricPrecision;text-rendering:geometricPrecision" />
      <path
         class="fil0"
         d="m -43.197363,-73.127587 v 0 c -1.4107,1.4107 -1.4107,3.7191 0,5.1298 l 3.017602,3.017601 c 1.410701,1.4107 3.7191,1.4107 5.1298,0 v 0 c 1.4107,-1.4107 1.4107,-3.719101 0,-5.1298 l -3.017599,-3.017601 c -1.4107,-1.4107 -3.719102,-1.4107 -5.129803,0 z"
         id="path11112"
         style="clip-rule:evenodd;fill:#af5e31;fill-rule:evenodd;stroke-width:0.00268817;image-rendering:optimizeQuality;shape-rendering:geometricPrecision;text-rendering:geometricPrecision" />
      <path
         class="fil36"
         d="m -42.175962,-72.106287 v 0 c -1.057101,1.0571 -1.057101,2.7867 0,3.8437 l 2.261002,2.261001 c 1.057,1.0571 2.786599,1.0571 3.8437,0 v 0 c 1.057,-1.057 1.057,-2.786601 0,-3.843701 l -2.261002,-2.261 c -1.057,-1.057 -2.786701,-1.057 -3.8437,0 z"
         id="path11114"
         style="clip-rule:evenodd;fill:#cc7643;fill-rule:evenodd;stroke-width:0.00268817;image-rendering:optimizeQuality;shape-rendering:geometricPrecision;text-rendering:geometricPrecision" />
      <path
         class="fil39"
         d="m -14.432458,-69.047587 v 0 c -1.4024,1.4024 -1.4023,3.697201 0,5.099501 l 2.9591,2.9592 c 1.4024,1.4023 3.6972001,1.4024 5.0996001,0 v 0 c 1.4023,-1.4024 1.4023,-3.6972 0,-5.0995 l -2.9592,-2.959201 c -1.4023001,-1.4023 -3.6972001,-1.4023 -5.0995001,0 z"
         id="path11116"
         style="clip-rule:evenodd;fill:#924c2a;fill-rule:evenodd;stroke-width:0.00268817;image-rendering:optimizeQuality;shape-rendering:geometricPrecision;text-rendering:geometricPrecision" />
      <path
         class="fil44"
         d="m -21.777461,-55.270384 -2.3998,2.3998 c -1.0449,1.0449 -1.0449,2.754698 0,3.799599 l 4.308703,4.3088 c 1.044898,1.044901 2.754699,1.044901 3.7997,0 l 2.399699,-2.3998 c 1.045001,-1.0449 1.045001,-2.754698 0,-3.799699 l -4.3087,-4.3087 c -1.0449,-1.045001 -2.754799,-1.045001 -3.799699,0 z"
         id="path11118"
         style="clip-rule:evenodd;fill:#6e311e;fill-rule:evenodd;stroke-width:0.00268817;image-rendering:optimizeQuality;shape-rendering:geometricPrecision;text-rendering:geometricPrecision" />
      <path
         class="fil44"
         d="m -14.228157,-62.819786 -2.399803,2.3998 c -1.044898,1.044901 -1.044898,2.754801 0,3.7997 l 4.308703,4.3087 c 1.044998,1.045001 2.7547991,1.045001 3.7996991,0 l 2.3998,-2.399699 c 1.044901,-1.045001 1.044901,-2.7548 0,-3.7997 l -4.3088001,-4.308701 c -1.0449,-1.045 -2.754701,-1.045 -3.799599,0 z"
         id="path11120"
         style="clip-rule:evenodd;fill:#6e311e;fill-rule:evenodd;stroke-width:0.00268817;image-rendering:optimizeQuality;shape-rendering:geometricPrecision;text-rendering:geometricPrecision" />
      <path
         class="fil0"
         d="m -32.80786,-77.444687 -6.945101,6.945101 c -3.6996,3.6996 -3.6996,9.7535 0,13.453101 l 8.297899,8.2979 c 3.699603,3.6996 9.753502,3.6996 13.453102,0 l 6.945101,-6.945 c 3.6996001,-3.699601 3.6996001,-9.753501 0,-13.453102 l -8.297899,-8.2979 c -3.6996,-3.699601 -9.753502,-3.699601 -13.453102,0 z"
         id="path11122"
         style="clip-rule:evenodd;fill:#af5e31;fill-rule:evenodd;stroke-width:0.00268817;image-rendering:optimizeQuality;shape-rendering:geometricPrecision;text-rendering:geometricPrecision" />
      <path
         class="fil1"
         d="m -37.569061,-72.665887 -2.1936,2.193601 c -3.6996,3.6996 -3.7147,9.7383 -0.0337,13.419401 l 8.3654,8.3653 c 3.681,3.6811 9.719702,3.665902 13.419402,-0.0337 l 1.956401,-1.956499 c -2.626802,0.1694 -5.306901,-0.739701 -7.297502,-2.730301 l -11.524102,-11.524101 c -2.100998,-2.101 -2.9972,-4.970001 -2.692299,-7.733701 z"
         id="path11124"
         style="clip-rule:evenodd;fill:#803d22;fill-rule:evenodd;stroke-width:0.00268817;image-rendering:optimizeQuality;shape-rendering:geometricPrecision;text-rendering:geometricPrecision" />
      <path
         class="fil0"
         d="m -30.59856,-52.834284 v 0 c -1.4023,1.402401 -1.4023,3.6971 0,5.0995 l 2.9592,2.959201 c 1.4023,1.402299 3.6971,1.402299 5.0995,0 v 0 c 1.4024,-1.4023 1.4024,-3.697103 0,-5.099503 l -2.959201,-2.9591 c -1.402299,-1.4024 -3.697099,-1.4024 -5.099499,0 z"
         id="path11126"
         style="clip-rule:evenodd;fill:#af5e31;fill-rule:evenodd;stroke-width:0.00268817;image-rendering:optimizeQuality;shape-rendering:geometricPrecision;text-rendering:geometricPrecision" />
      <path
         class="fil36"
         d="m -19.92316,-66.450086 -3.0358,3.0358 c -1.617099,1.6171 -1.617099,4.263301 0,5.880401 l 3.627101,3.6271 c 1.617099,1.617101 4.2633,1.617101 5.880402,0 l 3.0358,-3.0358 c 1.6170991,-1.6171 1.6170991,-4.263301 0,-5.880401 l -3.627101,-3.6271 c -1.617099,-1.617101 -4.2633,-1.617101 -5.880402,0 z"
         id="path11128"
         style="clip-rule:evenodd;fill:#cc7643;fill-rule:evenodd;stroke-width:0.00268817;image-rendering:optimizeQuality;shape-rendering:geometricPrecision;text-rendering:geometricPrecision" />
      <path
         class="fil18"
         d="m -25.295959,-82.576188 v 0 c -0.533601,0 -0.970301,0.4366 -0.970301,0.9703 v 7.609201 c 0,0.5337 0.4367,0.9704 0.970301,0.9704 v 0 c 0.533699,0 0.9704,-0.4367 0.9704,-0.9704 v -7.609201 c 0,-0.5337 -0.436701,-0.9703 -0.9704,-0.9703 z"
         id="path11130"
         style="clip-rule:evenodd;fill:#333333;fill-rule:evenodd;stroke-width:0.00268817;image-rendering:optimizeQuality;shape-rendering:geometricPrecision;text-rendering:geometricPrecision" />
      <path
         class="fil18"
         d="m -30.07086,-77.801287 v 0 c 0,-0.5336 0.4366,-0.9703 0.970299,-0.9703 h 7.609303 c 0.533598,0 0.970298,0.4367 0.970298,0.9703 v 0 c 0,0.5337 -0.4367,0.9704 -0.970298,0.9704 h -7.609303 c -0.533699,0 -0.970299,-0.4367 -0.970299,-0.9704 z"
         id="path11132"
         style="clip-rule:evenodd;fill:#333333;fill-rule:evenodd;stroke-width:0.00268817;image-rendering:optimizeQuality;shape-rendering:geometricPrecision;text-rendering:geometricPrecision" />
      <path
         class="fil18"
         d="m -31.96516,-75.906987 v 0 c -0.533701,0 -0.970402,0.4367 -0.970402,0.9704 v 7.609201 c 0,0.5337 0.436701,0.9704 0.970402,0.9704 v 0 c 0.533599,0 0.970299,-0.4367 0.970299,-0.9704 v -7.609201 c 0,-0.5337 -0.4367,-0.9704 -0.970299,-0.9704 z"
         id="path11134"
         style="clip-rule:evenodd;fill:#333333;fill-rule:evenodd;stroke-width:0.00268817;image-rendering:optimizeQuality;shape-rendering:geometricPrecision;text-rendering:geometricPrecision" />
      <path
         class="fil18"
         d="m -36.740161,-71.131987 v 0 c 0,-0.5337 0.436599,-0.9703 0.970301,-0.9703 h 7.6093 c 0.533699,0 0.970301,0.4366 0.970301,0.9703 v 0 c 0,0.5337 -0.436602,0.970301 -0.970301,0.970301 h -7.6093 c -0.533702,0 -0.970301,-0.436601 -0.970301,-0.970301 z"
         id="path11136"
         style="clip-rule:evenodd;fill:#333333;fill-rule:evenodd;stroke-width:0.00268817;image-rendering:optimizeQuality;shape-rendering:geometricPrecision;text-rendering:geometricPrecision" />
      <path
         class="fil39"
         d="m -16.29386,-75.633687 -1.2934,-1.2933 c -1.340598,-1.3407 -3.534399,-1.3407 -4.875,0 l -4.6158,4.6158 c -1.340601,1.3406 -1.340699,3.5344 0,4.875 l 1.2934,1.293401 c 1.340602,1.3406 3.534302,1.3406 4.875001,0 l 4.615799,-4.6158 c 1.340602,-1.340701 1.340602,-3.534401 0,-4.875001 z"
         id="path13718"
         style="clip-rule:evenodd;fill:#924c2a;fill-rule:evenodd;stroke-width:0.00268817;image-rendering:optimizeQuality;shape-rendering:geometricPrecision;text-rendering:geometricPrecision" />
      <path
         class="fil44"
         d="m -20.523158,-76.196487 -0.6467,-0.6468 c -0.670301,-0.6702 -1.767102,-0.6702 -2.437403,0 l -2.308,2.308 c -0.670298,0.6703 -0.670298,1.7671 0,2.4375 l 0.646801,0.6466 c 0.6703,0.670301 1.767101,0.670401 2.437399,0 l 2.307903,-2.3079 c 0.670398,-0.6703 0.670298,-1.7671 0,-2.4374 z"
         id="path13720"
         style="clip-rule:evenodd;fill:#6e311e;fill-rule:evenodd;stroke-width:0.00268817;image-rendering:optimizeQuality;shape-rendering:geometricPrecision;text-rendering:geometricPrecision" />
      <path
         class="fil44"
         d="m -17.62436,-71.914787 v 0 c -0.348898,-0.3489 -0.919699,-0.3489 -1.268499,0 l -1.631299,1.631201 c -0.348801,0.348899 -0.348801,0.919699 0,1.268499 v 0 c 0.3488,0.3489 0.919699,0.3489 1.268499,0 l 1.631299,-1.631199 c 0.348801,-0.3489 0.348801,-0.919701 0,-1.268501 z"
         id="path13722"
         style="clip-rule:evenodd;fill:#6e311e;fill-rule:evenodd;stroke-width:0.00268817;image-rendering:optimizeQuality;shape-rendering:geometricPrecision;text-rendering:geometricPrecision" />
    </g>
    <g
       id="g1282"
       transform="translate(236.26986,273.28073)">
      <path
         class="fil0"
         d="m -87.540267,-64.232686 v 0 c 0,1.9951 1.6323,3.6274 3.627401,3.6274 h 4.2675 c 1.995,0 3.627301,-1.6323 3.627301,-3.6274 v 0 c 0,-1.995 -1.632301,-3.627301 -3.627301,-3.627301 h -4.2675 c -1.995101,0 -3.627401,1.632301 -3.627401,3.627301 z"
         id="path11138"
         style="clip-rule:evenodd;fill:#af5e31;fill-rule:evenodd;stroke-width:0.00268817;image-rendering:optimizeQuality;shape-rendering:geometricPrecision;text-rendering:geometricPrecision" />
      <path
         class="fil36"
         d="m -86.095867,-64.232686 v 0 c 0,1.4949 1.2231,2.7179 2.7179,2.7179 h 3.197601 c 1.4949,0 2.7179,-1.223 2.7179,-2.7179 v 0 c 0,-1.4948 -1.223,-2.7179 -2.7179,-2.7179 h -3.197601 c -1.4948,0 -2.7179,1.2231 -2.7179,2.7179 z"
         id="path11140"
         style="clip-rule:evenodd;fill:#cc7643;fill-rule:evenodd;stroke-width:0.00268817;image-rendering:optimizeQuality;shape-rendering:geometricPrecision;text-rendering:geometricPrecision" />
      <path
         class="fil0"
         d="m -88.055067,-52.956084 v 0 c 0,1.995101 1.6323,3.627299 3.6273,3.627299 h 4.267501 c 1.9951,0 3.6274,-1.632198 3.6274,-3.627299 v 0 c 0,-1.995102 -1.6323,-3.6273 -3.6274,-3.6273 h -4.267501 c -1.995,0 -3.6273,1.632198 -3.6273,3.6273 z"
         id="path11142"
         style="clip-rule:evenodd;fill:#af5e31;fill-rule:evenodd;stroke-width:0.00268817;image-rendering:optimizeQuality;shape-rendering:geometricPrecision;text-rendering:geometricPrecision" />
      <path
         class="fil36"
         d="m -86.610667,-52.956084 v 0 c 0,1.4948 1.2231,2.7179 2.7179,2.7179 h 3.197601 c 1.4949,0 2.7179,-1.2231 2.7179,-2.7179 v 0 c 0,-1.494902 -1.223,-2.717901 -2.7179,-2.717901 h -3.197601 c -1.4948,0 -2.7179,1.222999 -2.7179,2.717901 z"
         id="path11144"
         style="clip-rule:evenodd;fill:#cc7643;fill-rule:evenodd;stroke-width:0.00268817;image-rendering:optimizeQuality;shape-rendering:geometricPrecision;text-rendering:geometricPrecision" />
      <path
         class="fil39"
         d="m -64.830164,-70.410986 v 0 c 0,1.983299 1.6226,3.605899 3.6059,3.605899 h 4.184801 c 1.983301,0 3.606001,-1.6226 3.606001,-3.605899 v 0 c 0,-1.983201 -1.6227,-3.605901 -3.606001,-3.605901 h -4.184801 c -1.9833,0 -3.6059,1.6227 -3.6059,3.605901 z"
         id="path11146"
         style="clip-rule:evenodd;fill:#924c2a;fill-rule:evenodd;stroke-width:0.00268817;image-rendering:optimizeQuality;shape-rendering:geometricPrecision;text-rendering:geometricPrecision" />
      <path
         class="fil44"
         d="m -60.281964,-55.475286 v 3.3938 c 0,1.477801 1.209001,2.686802 2.686701,2.686802 h 6.0935 c 1.477801,0 2.686801,-1.209001 2.686801,-2.686802 v -3.3938 c 0,-1.4777 -1.209,-2.686699 -2.686801,-2.686699 h -6.0935 c -1.4777,0 -2.686701,1.208999 -2.686701,2.686699 z"
         id="path11148"
         style="clip-rule:evenodd;fill:#6e311e;fill-rule:evenodd;stroke-width:0.00268817;image-rendering:optimizeQuality;shape-rendering:geometricPrecision;text-rendering:geometricPrecision" />
      <path
         class="fil44"
         d="m -60.281964,-66.151586 v 3.3937 c 0,1.4778 1.209001,2.6868 2.686701,2.6868 h 6.0935 c 1.477801,0 2.686801,-1.209 2.686801,-2.6868 v -3.3937 c 0,-1.4778 -1.209,-2.686801 -2.686801,-2.686801 h -6.0935 c -1.4777,0 -2.686701,1.209001 -2.686701,2.686801 z"
         id="path11150"
         style="clip-rule:evenodd;fill:#6e311e;fill-rule:evenodd;stroke-width:0.00268817;image-rendering:optimizeQuality;shape-rendering:geometricPrecision;text-rendering:geometricPrecision" />
      <path
         class="fil0"
         d="m -83.761167,-63.355186 v 9.821802 c 0,5.232101 4.280701,9.5128 9.512802,9.5128 h 11.734901 c 5.2321,0 9.512802,-4.280699 9.512802,-9.5128 v -9.821802 c 0,-5.232001 -4.280702,-9.512801 -9.512802,-9.512801 h -11.734901 c -5.232101,0 -9.512802,4.2808 -9.512802,9.512801 z"
         id="path11152"
         style="clip-rule:evenodd;fill:#af5e31;fill-rule:evenodd;stroke-width:0.00268817;image-rendering:optimizeQuality;shape-rendering:geometricPrecision;text-rendering:geometricPrecision" />
      <path
         class="fil1"
         d="m -83.748767,-56.609486 v 3.1022 c 0,5.232101 4.259301,9.512803 9.465102,9.512803 h 11.830401 c 5.205801,0 9.465101,-4.280702 9.465101,-9.512803 v -2.7668 c -1.737701,1.977202 -4.275601,3.2294 -7.090802,3.2294 h -16.297601 c -2.9712,0 -5.6336,-1.394798 -7.372201,-3.5648 z"
         id="path11154"
         style="clip-rule:evenodd;fill:#803d22;fill-rule:evenodd;stroke-width:0.00268817;image-rendering:optimizeQuality;shape-rendering:geometricPrecision;text-rendering:geometricPrecision" />
      <path
         class="fil0"
         d="m -64.796764,-47.515285 v 0 c 0,1.9833 1.6226,3.6059 3.605901,3.6059 h 4.184798 c 1.983301,0 3.605901,-1.6226 3.605901,-3.6059 v 0 c 0,-1.983201 -1.6226,-3.605901 -3.605901,-3.605901 h -4.184798 c -1.983301,0 -3.605901,1.6227 -3.605901,3.605901 z"
         id="path11156"
         style="clip-rule:evenodd;fill:#af5e31;fill-rule:evenodd;stroke-width:0.00268817;image-rendering:optimizeQuality;shape-rendering:geometricPrecision;text-rendering:geometricPrecision" />
      <path
         class="fil36"
         d="m -66.875965,-64.691686 v 4.2932 c 0,2.287001 1.871101,4.158099 4.158101,4.158099 h 5.129401 c 2.287,0 4.158099,-1.871098 4.158099,-4.158099 v -4.2932 c 0,-2.286901 -1.871099,-4.158101 -4.158099,-4.158101 h -5.129401 c -2.287,0 -4.158101,1.8712 -4.158101,4.158101 z"
         id="path11158"
         style="clip-rule:evenodd;fill:#cc7643;fill-rule:evenodd;stroke-width:0.00268817;image-rendering:optimizeQuality;shape-rendering:geometricPrecision;text-rendering:geometricPrecision" />
      <path
         class="fil18"
         d="m -82.078066,-72.295487 v 0 c -0.3773,0.3773 -0.3773,0.9948 0,1.372201 l 5.3806,5.3806 c 0.3774,0.3773 0.994901,0.3773 1.3723,0 v 0 c 0.3773,-0.3774 0.3773,-0.9949 0,-1.372301 l -5.3806,-5.3806 c -0.3774,-0.3773 -0.9949,-0.3773 -1.3723,0 z"
         id="path11160"
         style="clip-rule:evenodd;fill:#333333;fill-rule:evenodd;stroke-width:0.00268817;image-rendering:optimizeQuality;shape-rendering:geometricPrecision;text-rendering:geometricPrecision" />
      <path
         class="fil18"
         d="m -82.078066,-65.542686 v 0 c -0.3773,-0.3774 -0.3773,-0.9949 0,-1.372301 l 5.3806,-5.3805 c 0.3774,-0.3774 0.994901,-0.3774 1.3723,0 v 0 c 0.3773,0.3774 0.3773,0.9949 0,1.372201 l -5.3806,5.3806 c -0.3774,0.3774 -0.9949,0.3773 -1.3723,0 z"
         id="path11162"
         style="clip-rule:evenodd;fill:#333333;fill-rule:evenodd;stroke-width:0.00268817;image-rendering:optimizeQuality;shape-rendering:geometricPrecision;text-rendering:geometricPrecision" />
      <path
         class="fil18"
         d="m -82.078066,-62.863686 v 0 c -0.3773,0.3773 -0.3773,0.9948 0,1.3722 l 5.3806,5.3806 c 0.3774,0.377301 0.994901,0.377401 1.3723,0 v 0 c 0.3773,-0.377399 0.3773,-0.9949 0,-1.372299 l -5.3806,-5.380601 c -0.3774,-0.3773 -0.9949,-0.3773 -1.3723,0 z"
         id="path11164"
         style="clip-rule:evenodd;fill:#333333;fill-rule:evenodd;stroke-width:0.00268817;image-rendering:optimizeQuality;shape-rendering:geometricPrecision;text-rendering:geometricPrecision" />
      <path
         class="fil18"
         d="m -82.078066,-56.110886 v 0 c -0.3773,-0.377399 -0.3773,-0.9949 0,-1.372299 l 5.3806,-5.380501 c 0.3774,-0.3774 0.994901,-0.3774 1.3723,0 v 0 c 0.3773,0.3774 0.3773,0.9949 0,1.3722 l -5.3806,5.3806 c -0.3774,0.377401 -0.9949,0.377401 -1.3723,0 z"
         id="path11166"
         style="clip-rule:evenodd;fill:#333333;fill-rule:evenodd;stroke-width:0.00268817;image-rendering:optimizeQuality;shape-rendering:geometricPrecision;text-rendering:geometricPrecision" />
      <path
         class="fil39"
         d="m -70.803465,-73.751787 h -1.8291 c -1.896001,0 -3.447101,1.5512 -3.447101,3.447201 v 6.5277 c 0,1.896 1.5511,3.4472 3.447101,3.4472 h 1.8291 c 1.8959,0 3.4471,-1.5512 3.4471,-3.4472 v -6.5277 c 0,-1.896001 -1.5512,-3.447201 -3.4471,-3.447201 z"
         id="path13724"
         style="clip-rule:evenodd;fill:#924c2a;fill-rule:evenodd;stroke-width:0.00268817;image-rendering:optimizeQuality;shape-rendering:geometricPrecision;text-rendering:geometricPrecision" />
      <path
         class="fil44"
         d="m -74.191965,-71.159287 h -0.914601 c -0.948,0 -1.7236,0.775601 -1.7236,1.7236 v 3.263901 c 0,0.9479 0.7756,1.7235 1.7236,1.7235 h 0.914601 c 0.9479,0 1.7235,-0.7756 1.7235,-1.7235 v -3.263901 c 0,-0.947999 -0.7756,-1.7236 -1.7235,-1.7236 z"
         id="path13726"
         style="clip-rule:evenodd;fill:#6e311e;fill-rule:evenodd;stroke-width:0.00268817;image-rendering:optimizeQuality;shape-rendering:geometricPrecision;text-rendering:geometricPrecision" />
      <path
         class="fil44"
         d="m -69.114665,-70.181286 v 0 c -0.4933,0 -0.897,0.403599 -0.897,0.896899 v 2.307001 c 0,0.4933 0.4037,0.8969 0.897,0.8969 v 0 c 0.4933,0 0.8969,-0.4036 0.8969,-0.8969 v -2.307001 c 0,-0.4933 -0.4036,-0.896899 -0.8969,-0.896899 z"
         id="path13728"
         style="clip-rule:evenodd;fill:#6e311e;fill-rule:evenodd;stroke-width:0.00268817;image-rendering:optimizeQuality;shape-rendering:geometricPrecision;text-rendering:geometricPrecision" />
    </g>
  </g>
</svg>
