<?xml version="1.0" encoding="UTF-8" standalone="no"?>
<svg
   xmlns:dc="http://purl.org/dc/elements/1.1/"
   xmlns:cc="http://creativecommons.org/ns#"
   xmlns:rdf="http://www.w3.org/1999/02/22-rdf-syntax-ns#"
   xmlns:svg="http://www.w3.org/2000/svg"
   xmlns="http://www.w3.org/2000/svg"
   xmlns:sodipodi="http://sodipodi.sourceforge.net/DTD/sodipodi-0.dtd"
   xmlns:inkscape="http://www.inkscape.org/namespaces/inkscape"
   width="1024"
   height="1024"
   viewBox="0 0 270.9333 270.9333"
   version="1.1"
   id="svg3565"
   inkscape:version="1.0.1 (3bc2e813f5, 2020-09-07)"
   sodipodi:docname="ведьма.svg"
   inkscape:export-filename="C:\Users\Kolobok\Desktop\проекты\Рыцарь\knightframes.png"
   inkscape:export-xdpi="96.00001"
   inkscape:export-ydpi="96.00001">
  <title
     id="title4661">Тайл размером 256x256</title>
  <defs
     id="defs3559" />
  <sodipodi:namedview
     id="base"
     pagecolor="#ffffff"
     bordercolor="#666666"
     borderopacity="1.0"
     inkscape:pageopacity="0.0"
     inkscape:pageshadow="2"
     inkscape:zoom="0.49497474"
     inkscape:cx="779.88693"
     inkscape:cy="541.28277"
     inkscape:document-units="mm"
     inkscape:current-layer="layer1"
     showgrid="true"
     units="px"
     width="256px"
     inkscape:snap-global="false"
     inkscape:document-rotation="0"
     inkscape:window-width="1920"
     inkscape:window-height="1017"
     inkscape:window-x="-8"
     inkscape:window-y="-8"
     inkscape:window-maximized="1"
     showguides="true"
     inkscape:guide-bbox="true">
    <inkscape:grid
       type="xygrid"
       id="grid5244"
       units="px"
       spacingx="67.73332"
       spacingy="67.73332"
       empspacing="1" />
    <inkscape:grid
       type="xygrid"
       id="grid8949"
       color="#e33fff"
       opacity="0.1254902"
       empcolor="#e33fff"
       empopacity="0.2509804"
       units="px"
       spacingx="33.86666"
       spacingy="33.86666"
       empspacing="8" />
    <sodipodi:guide
       position="134.9711,205.45227"
       orientation="0,-1"
       id="guide1535" />
  </sodipodi:namedview>
  <metadata
     id="metadata3562">
    <rdf:RDF>
      <cc:Work
         rdf:about="">
        <dc:format>image/svg+xml</dc:format>
        <dc:type
           rdf:resource="http://purl.org/dc/dcmitype/StillImage" />
        <dc:title>Тайл размером 256x256</dc:title>
      </cc:Work>
    </rdf:RDF>
  </metadata>
  <g
     inkscape:label="Layer 1"
     inkscape:groupmode="layer"
     id="layer1"
     transform="translate(0,-26.0667)">
    <g
       id="g1501"
       transform="translate(-15.167546)">
      <path
         class="fil45"
         d="m 168.02662,54.579887 c -1.394,3.877201 3.371,7.4912 7.492,7.4912 h 14.876 c 4.121,0 9.034,-3.670499 7.492,-7.4912 -8.379,-20.759902 -22.948,-19.220302 -29.86,0 z"
         id="path31592"
         style="clip-rule:evenodd;fill:#4d4d4d;fill-rule:evenodd;stroke-width:0.00268817;image-rendering:optimizeQuality;shape-rendering:geometricPrecision;text-rendering:geometricPrecision" />
      <path
         class="fil3"
         d="m 193.53862,54.628387 h -20.973 c -5.809,0 -10.561,4.752401 -10.561,10.561003 v 0 c 0,5.808498 4.752,10.561 10.561,10.561 h 20.973 c 5.808,0 10.56,-4.752502 10.56,-10.561 v 0 c 0,-5.808602 -4.752,-10.561003 -10.56,-10.561003 z"
         id="path31594"
         style="clip-rule:evenodd;fill:#666666;fill-rule:evenodd;stroke-width:0.00268817;image-rendering:optimizeQuality;shape-rendering:geometricPrecision;text-rendering:geometricPrecision" />
      <path
         class="fil45"
         d="m 176.97162,52.219987 c 2.911,2.2574 7.424,1.8389 8.647,0.125 l 4.416,-6.188201 c 1.223,-1.7139 -0.466,-5.3456 -4.2,-6.3572 -20.288,-5.496601 -23.292,1.2297 -8.863,12.420401 z"
         id="path31596"
         style="clip-rule:evenodd;fill:#4d4d4d;fill-rule:evenodd;stroke-width:0.00268817;image-rendering:optimizeQuality;shape-rendering:geometricPrecision;text-rendering:geometricPrecision" />
      <path
         class="fil16"
         d="m 193.32262,58.099088 h -20.031 c -3.899,0 -7.09,3.1906 -7.09,7.090302 v 0 c 0,3.899699 3.191,7.090299 7.09,7.090299 h 20.031 c 3.899,0 7.09,-3.1906 7.09,-7.090299 v 0 c 0,-3.899702 -3.191,-7.090302 -7.09,-7.090302 z"
         id="path31598"
         style="clip-rule:evenodd;fill:#4d4d4d;fill-rule:evenodd;stroke-width:0.00268817;image-rendering:optimizeQuality;shape-rendering:geometricPrecision;text-rendering:geometricPrecision" />
      <path
         class="fil39"
         d="m 177.30962,73.79219 v 0 c 0,-2.738401 -2.241,-4.9789 -4.979,-4.9789 h -5.858 c -2.738,0 -4.979,2.240499 -4.979,4.9789 v 0 c 0,2.738501 2.241,4.979001 4.979,4.979001 h 5.858 c 2.738,0 4.979,-2.2405 4.979,-4.979001 z"
         id="path31600"
         style="clip-rule:evenodd;fill:#924c2a;fill-rule:evenodd;stroke-width:0.00268817;image-rendering:optimizeQuality;shape-rendering:geometricPrecision;text-rendering:geometricPrecision" />
      <path
         class="fil39"
         d="m 201.70062,70.54979 v 0 c 0,-2.7384 -2.241,-4.9789 -4.979,-4.9789 h -5.858 c -2.738,0 -4.979,2.2405 -4.979,4.9789 v 0 c 0,2.738498 2.241,4.979001 4.979,4.979001 h 5.858 c 2.738,0 4.979,-2.240503 4.979,-4.979001 z"
         id="path31602"
         style="clip-rule:evenodd;fill:#924c2a;fill-rule:evenodd;stroke-width:0.00268817;image-rendering:optimizeQuality;shape-rendering:geometricPrecision;text-rendering:geometricPrecision" />
      <path
         class="fil18"
         d="m 195.73562,78.390389 v 0 c -1.995,0 -3.627,1.632201 -3.627,3.627303 v 4.267499 c 0,1.995101 1.632,3.627299 3.627,3.627299 v 0 c 1.995,0 3.627,-1.632198 3.627,-3.627299 v -4.267499 c 0,-1.995102 -1.632,-3.627303 -3.627,-3.627303 z"
         id="path31604"
         style="clip-rule:evenodd;fill:#333333;fill-rule:evenodd;stroke-width:0.00268817;image-rendering:optimizeQuality;shape-rendering:geometricPrecision;text-rendering:geometricPrecision" />
      <path
         class="fil18"
         d="m 179.66762,82.155291 h -3.414 c -1.486,0 -2.702,1.216199 -2.702,2.7027 v 6.1879 c 0,1.486501 1.216,2.702701 2.702,2.702701 h 3.414 c 1.487,0 2.703,-1.2162 2.703,-2.702701 v -6.1879 c 0,-1.486501 -1.216,-2.7027 -2.703,-2.7027 z"
         id="path31606"
         style="clip-rule:evenodd;fill:#333333;fill-rule:evenodd;stroke-width:0.00268817;image-rendering:optimizeQuality;shape-rendering:geometricPrecision;text-rendering:geometricPrecision" />
      <path
         class="fil18"
         d="m 190.40762,82.155291 h -3.414 c -1.486,0 -2.703,1.216199 -2.703,2.7027 v 6.1879 c 0,1.486501 1.217,2.702701 2.703,2.702701 h 3.414 c 1.487,0 2.703,-1.2162 2.703,-2.702701 v -6.1879 c 0,-1.486501 -1.216,-2.7027 -2.703,-2.7027 z"
         id="path31608"
         style="clip-rule:evenodd;fill:#333333;fill-rule:evenodd;stroke-width:0.00268817;image-rendering:optimizeQuality;shape-rendering:geometricPrecision;text-rendering:geometricPrecision" />
      <path
         class="fil16"
         d="m 187.59462,59.250888 h -9.88 c -5.263,0 -9.569,4.3062 -9.569,9.569302 v 11.960701 c 0,5.2631 4.306,9.5693 9.569,9.5693 h 9.88 c 5.263,0 9.57,-4.3062 9.57,-9.5693 V 68.82019 c 0,-5.263102 -4.307,-9.569302 -9.57,-9.569302 z"
         id="path31610"
         style="clip-rule:evenodd;fill:#4d4d4d;fill-rule:evenodd;stroke-width:0.00268817;image-rendering:optimizeQuality;shape-rendering:geometricPrecision;text-rendering:geometricPrecision" />
      <path
         class="fil18"
         d="m 180.80862,59.263488 h -3.12 c -5.263,0 -9.57,4.306199 -9.57,9.569302 v 11.960701 c 0,5.2631 4.307,9.569302 9.57,9.569302 h 2.783 c -1.989,-1.756802 -3.249,-4.322702 -3.249,-7.168902 V 66.716888 c 0,-3.0039 1.403,-5.6956 3.586,-7.4534 z"
         id="path31612"
         style="clip-rule:evenodd;fill:#333333;fill-rule:evenodd;stroke-width:0.00268817;image-rendering:optimizeQuality;shape-rendering:geometricPrecision;text-rendering:geometricPrecision" />
      <path
         class="fil16"
         d="m 187.78462,75.921991 h -10.653 c -5.675,0 -10.318,4.643199 -10.318,10.318001 v 4.965599 c 12.27,1.0052 19.026,1.0794 31.289,0 v -4.965599 c 0,-5.674802 -4.643,-10.318001 -10.318,-10.318001 z"
         id="path31614"
         style="clip-rule:evenodd;fill:#4d4d4d;fill-rule:evenodd;stroke-width:0.00268817;image-rendering:optimizeQuality;shape-rendering:geometricPrecision;text-rendering:geometricPrecision" />
      <path
         class="fil16"
         d="m 199.70762,78.779689 v 0 c 0,-1.994998 -1.632,-3.6273 -3.628,-3.6273 h -4.267 c -1.995,0 -3.627,1.632302 -3.627,3.6273 v 0 c 0,1.995101 1.632,3.6274 3.627,3.6274 h 4.267 c 1.996,0 3.628,-1.632299 3.628,-3.6274 z"
         id="path31616"
         style="clip-rule:evenodd;fill:#4d4d4d;fill-rule:evenodd;stroke-width:0.00268817;image-rendering:optimizeQuality;shape-rendering:geometricPrecision;text-rendering:geometricPrecision" />
      <path
         class="fil79"
         d="m 196.88762,77.111491 v 0 c 0,-0.762802 -0.625,-1.386901 -1.387,-1.386901 h -3.978 c -0.763,0 -1.387,0.624099 -1.387,1.386901 v 0 c 0,0.762799 0.624,1.386898 1.387,1.386898 h 3.978 c 0.762,0 1.387,-0.624099 1.387,-1.386898 z"
         id="path31618"
         style="clip-rule:evenodd;fill:#99ff99;fill-rule:evenodd;stroke-width:0.00268817;image-rendering:optimizeQuality;shape-rendering:geometricPrecision;text-rendering:geometricPrecision" />
      <path
         class="fil55"
         d="m 177.23462,75.907589 h -0.139 c -5.675,0 -10.318,4.643102 -10.318,10.318001 v 4.965502 c 4.302,0.463701 8.5,0.719399 12.774,0.7586 -1.291,-2.0339 -2.317,-5.4234 -2.317,-8.035001 z"
         id="path31620"
         style="clip-rule:evenodd;fill:#333333;fill-rule:evenodd;stroke-width:0.00268817;image-rendering:optimizeQuality;shape-rendering:geometricPrecision;text-rendering:geometricPrecision" />
      <path
         class="fil0"
         d="m 199.51862,64.537089 v 0 c 0,-3.255 -2.663,-5.918201 -5.918,-5.918201 h -20.48 c -3.255,0 -5.918,2.663201 -5.918,5.918201 v 0 c 0,3.254999 2.663,5.9182 5.918,5.9182 h 20.48 c 3.255,0 5.918,-2.663201 5.918,-5.9182 z"
         id="path31622"
         style="clip-rule:evenodd;fill:#af5e31;fill-rule:evenodd;stroke-width:0.00268817;image-rendering:optimizeQuality;shape-rendering:geometricPrecision;text-rendering:geometricPrecision" />
      <path
         class="fil79"
         d="m 180.48562,65.542087 h 11.878 c 2.66,0 4.836,2.176402 4.836,4.836401 v 0 c 0,2.660102 -2.176,4.836501 -4.836,4.836501 h -11.878 c -2.66,0 -4.837,-2.176399 -4.837,-4.836501 v 0 c 0,-2.659999 2.177,-4.836401 4.837,-4.836401 z"
         id="path31624"
         style="clip-rule:evenodd;fill:#99ff99;fill-rule:evenodd;stroke-width:0.00268817;image-rendering:optimizeQuality;shape-rendering:geometricPrecision;text-rendering:geometricPrecision" />
      <path
         class="fil18"
         d="m 180.98362,68.10019 v 0 c 0.961,0 1.748,0.786598 1.748,1.7481 v 2.056601 c 0,0.961398 -0.787,1.748099 -1.748,1.748099 v 0 c -0.962,0 -1.748,-0.786701 -1.748,-1.748099 V 69.84829 c 0,-0.961502 0.786,-1.7481 1.748,-1.7481 z"
         id="path31626"
         style="clip-rule:evenodd;fill:#333333;fill-rule:evenodd;stroke-width:0.00268817;image-rendering:optimizeQuality;shape-rendering:geometricPrecision;text-rendering:geometricPrecision" />
      <path
         class="fil18"
         d="m 190.51362,68.10019 v 0 c 0.962,0 1.748,0.786598 1.748,1.7481 v 2.056601 c 0,0.961398 -0.786,1.748099 -1.748,1.748099 v 0 c -0.961,0 -1.748,-0.786701 -1.748,-1.748099 V 69.84829 c 0,-0.961502 0.787,-1.7481 1.748,-1.7481 z"
         id="path31628"
         style="clip-rule:evenodd;fill:#333333;fill-rule:evenodd;stroke-width:0.00268817;image-rendering:optimizeQuality;shape-rendering:geometricPrecision;text-rendering:geometricPrecision" />
      <path
         class="fil36"
         d="m 177.50762,70.955989 v 0 c 0,-2.738501 -2.241,-4.979001 -4.979,-4.979001 h -5.858 c -2.739,0 -4.979,2.2405 -4.979,4.979001 v 0 c 0,2.7384 2.24,4.9789 4.979,4.9789 h 5.858 c 2.738,0 4.979,-2.2405 4.979,-4.9789 z"
         id="path31630"
         style="clip-rule:evenodd;fill:#cc7643;fill-rule:evenodd;stroke-width:0.00268817;image-rendering:optimizeQuality;shape-rendering:geometricPrecision;text-rendering:geometricPrecision" />
      <path
         class="fil18"
         d="m 188.95862,80.973691 c 0.664,0.867799 1.71,1.4302 2.881,1.4302 h 4.268 c 0.904,0 1.734,-0.3355 2.371,-0.888101 -2.161,0.880002 -7.518,1.019001 -9.52,-0.542099 z"
         id="path31632"
         style="clip-rule:evenodd;fill:#333333;fill-rule:evenodd;stroke-width:0.00268817;image-rendering:optimizeQuality;shape-rendering:geometricPrecision;text-rendering:geometricPrecision" />
      <path
         class="fil79"
         d="m 186.57862,72.210389 v 0 c -0.799,0 -1.453,0.654 -1.453,1.453301 v 1.709801 c 0,0.799298 0.654,1.453298 1.453,1.453298 v 0 c 0.799,0 1.453,-0.654 1.453,-1.453298 V 73.66369 c 0,-0.799301 -0.654,-1.453301 -1.453,-1.453301 z"
         id="path31634"
         style="clip-rule:evenodd;fill:#99ff99;fill-rule:evenodd;stroke-width:0.00268817;image-rendering:optimizeQuality;shape-rendering:geometricPrecision;text-rendering:geometricPrecision" />
      <path
         class="fil4"
         d="m 200.10062,89.321692 h -37.231 c -0.751,0 -1.366,0.6145 -1.366,1.365498 v 0 c 0,0.751102 0.615,1.365602 1.366,1.365602 h 37.231 c 0.751,0 1.366,-0.6145 1.366,-1.365602 v 0 c 0,-0.750998 -0.615,-1.365498 -1.366,-1.365498 z"
         id="path31636"
         style="clip-rule:evenodd;fill:#996633;fill-rule:evenodd;stroke-width:0.00268817;image-rendering:optimizeQuality;shape-rendering:geometricPrecision;text-rendering:geometricPrecision" />
      <path
         class="fil29"
         d="m 161.55262,91.056491 c 0.18,0.5731 0.768,0.9961 1.461,0.9961 h 36.927 c 0.724,0 1.333,-0.461499 1.483,-1.073398 -0.158,0.05 -0.327,0.0773 -0.502,0.0773 z"
         id="path31638"
         style="clip-rule:evenodd;fill:#813d09;fill-rule:evenodd;stroke-width:0.00268817;image-rendering:optimizeQuality;shape-rendering:geometricPrecision;text-rendering:geometricPrecision" />
      <path
         class="fil65"
         d="m 150.93962,89.001091 c -0.826,0.835401 -0.931,2.0227 -0.31501,2.9475 -0.60399,1.868202 1.743,4.1739 4.98,3.218302 l 6.35801,-1.877301 c 0.548,-0.1618 1.014,-0.410001 1.381,-0.7142 0.675,-0.488701 1.095,-1.164399 1.095,-1.908101 v 0 c 0,-0.0927 -0.007,-0.184301 -0.019,-0.2746 0.314,-1.2308 -0.595,-2.502699 -2.247,-2.990501 l -6.358,-1.877298 c -3.387,-1.000202 -5.8,1.571998 -4.875,3.476299 z"
         id="path31640"
         style="clip-rule:evenodd;fill:#edc919;fill-rule:evenodd;stroke-width:0.00268817;image-rendering:optimizeQuality;shape-rendering:geometricPrecision;text-rendering:geometricPrecision" />
      <path
         class="fil68"
         d="m 150.67862,93.313392 c 0.536,1.4098 2.476,2.555301 4.92599,1.831901 l 6.35801,-1.877301 c 0.548,-0.161801 1.014,-0.410001 1.381,-0.714201 0.316,-0.228798 0.576,-0.498699 0.763,-0.7973 -0.06,0.01519 -0.122,0.0298 -0.185,0.0438 l -8.407,1.877298 c -1.938,0.432601 -3.63401,0.196802 -4.836,-0.364199 z"
         id="path31642"
         style="clip-rule:evenodd;fill:#e8b10e;fill-rule:evenodd;stroke-width:0.00268817;image-rendering:optimizeQuality;shape-rendering:geometricPrecision;text-rendering:geometricPrecision" />
      <path
         class="fil65"
         d="m 166.45462,87.958291 h -1 c -1.376,0 -2.502,1.126101 -2.502,2.502501 v 0 c 0,1.376399 1.126,2.5024 2.502,2.5024 h 1 c 1.376,0 2.503,-1.126001 2.503,-2.5024 v 0 c 0,-1.3764 -1.127,-2.502501 -2.503,-2.502501 z"
         id="path31644"
         style="clip-rule:evenodd;fill:#edc919;fill-rule:evenodd;stroke-width:0.00268817;image-rendering:optimizeQuality;shape-rendering:geometricPrecision;text-rendering:geometricPrecision" />
      <path
         class="fil68"
         d="m 163.51562,92.009792 c 0.479,0.5798 1.219,0.9534 2.045,0.9534 h 0.788 c 0.826,0 1.566,-0.3736 2.045,-0.9534 -0.156,0.0282 -0.317,0.0431 -0.481,0.0431 h -3.916 c -0.164,0 -0.325,-0.0149 -0.481,-0.0431 z"
         id="path31646"
         style="clip-rule:evenodd;fill:#e8b10e;fill-rule:evenodd;stroke-width:0.00268817;image-rendering:optimizeQuality;shape-rendering:geometricPrecision;text-rendering:geometricPrecision" />
      <path
         class="fil4"
         d="m 164.64062,92.163592 v -3.900601 c 0,-0.421601 -0.345,-0.7664 -0.766,-0.7664 v 0 c -0.422,0 -0.767,0.344799 -0.767,0.7664 v 3.900601 c 0,0.4215 0.345,0.7664 0.767,0.7664 v 0 c 0.421,0 0.766,-0.3449 0.766,-0.7664 z"
         id="path31648"
         style="clip-rule:evenodd;fill:#996633;fill-rule:evenodd;stroke-width:0.00268817;image-rendering:optimizeQuality;shape-rendering:geometricPrecision;text-rendering:geometricPrecision" />
      <path
         class="fil16"
         d="m 172.70362,78.424089 v 0 c -1.995,0 -3.627,1.632302 -3.627,3.6274 v 4.267502 c 0,1.995001 1.632,3.6273 3.627,3.6273 v 0 c 1.995,0 3.628,-1.632299 3.628,-3.6273 v -4.267502 c 0,-1.995098 -1.633,-3.6274 -3.628,-3.6274 z"
         id="path31650"
         style="clip-rule:evenodd;fill:#4d4d4d;fill-rule:evenodd;stroke-width:0.00268817;image-rendering:optimizeQuality;shape-rendering:geometricPrecision;text-rendering:geometricPrecision" />
    </g>
    <g
       id="g1469"
       transform="translate(116.10973,-2.1381563)">
      <path
         class="fil45"
         d="m 104.38926,54.459152 c -1.395,3.877201 3.371,7.491301 7.491,7.491301 h 14.877 c 4.12,0 9.033,-3.670501 7.491,-7.491201 -8.379,-20.759902 -22.948,-19.220302 -29.859,0 z"
         id="path31652"
         style="clip-rule:evenodd;fill:#4d4d4d;fill-rule:evenodd;stroke-width:0.00268817;image-rendering:optimizeQuality;shape-rendering:geometricPrecision;text-rendering:geometricPrecision" />
      <path
         class="fil3"
         d="m 129.90026,54.507752 h -20.973 c -5.809,0 -10.561004,4.752401 -10.561004,10.561001 v 0 c 0,5.808501 4.752004,10.560902 10.561004,10.560902 h 20.973 c 5.808,0 10.561,-4.752401 10.561,-10.560902 v 0 c 0,-5.8086 -4.753,-10.561001 -10.561,-10.561001 z"
         id="path31654"
         style="clip-rule:evenodd;fill:#666666;fill-rule:evenodd;stroke-width:0.00268817;image-rendering:optimizeQuality;shape-rendering:geometricPrecision;text-rendering:geometricPrecision" />
      <path
         class="fil45"
         d="m 113.33326,52.099252 c 2.911,2.2575 7.424,1.8389 8.648,0.125 l 4.415,-6.188201 c 1.223,-1.7139 -0.466,-5.345601 -4.2,-6.357201 -20.288,-5.4965 -23.292004,1.2298 -8.863,12.420402 z"
         id="path31656"
         style="clip-rule:evenodd;fill:#4d4d4d;fill-rule:evenodd;stroke-width:0.00268817;image-rendering:optimizeQuality;shape-rendering:geometricPrecision;text-rendering:geometricPrecision" />
      <path
         class="fil16"
         d="m 129.68426,57.978453 h -20.031 c -3.899,0 -7.09,3.1906 -7.09,7.0903 v 0 c 0,3.899701 3.191,7.090301 7.09,7.090301 h 20.031 c 3.899,0 7.09,-3.1906 7.09,-7.090301 v 0 c 0,-3.8997 -3.191,-7.0903 -7.09,-7.0903 z"
         id="path31658"
         style="clip-rule:evenodd;fill:#4d4d4d;fill-rule:evenodd;stroke-width:0.00268817;image-rendering:optimizeQuality;shape-rendering:geometricPrecision;text-rendering:geometricPrecision" />
      <path
         class="fil39"
         d="m 113.67126,73.671555 v 0 c 0,-2.738501 -2.24,-4.979 -4.979,-4.979 h -5.857 c -2.739,0 -4.979004,2.240499 -4.979004,4.979 v 0 c 0,2.738398 2.240004,4.979001 4.979004,4.979001 h 5.857 c 2.739,0 4.979,-2.240603 4.979,-4.979001 z"
         id="path31660"
         style="clip-rule:evenodd;fill:#924c2a;fill-rule:evenodd;stroke-width:0.00268817;image-rendering:optimizeQuality;shape-rendering:geometricPrecision;text-rendering:geometricPrecision" />
      <path
         class="fil39"
         d="m 138.06226,70.429153 v 0 c 0,-2.738498 -2.241,-4.979001 -4.979,-4.979001 h -5.858 c -2.738,0 -4.979,2.240503 -4.979,4.979001 v 0 c 0,2.7384 2.241,4.979 4.979,4.979 h 5.858 c 2.738,0 4.979,-2.2406 4.979,-4.979 z"
         id="path31662"
         style="clip-rule:evenodd;fill:#924c2a;fill-rule:evenodd;stroke-width:0.00268817;image-rendering:optimizeQuality;shape-rendering:geometricPrecision;text-rendering:geometricPrecision" />
      <path
         class="fil18"
         d="m 132.09726,78.269654 v 0 c -1.995,0 -3.627,1.632302 -3.627,3.6274 v 4.267502 c 0,1.995001 1.632,3.6273 3.627,3.6273 v 0 c 1.995,0 3.628,-1.632299 3.628,-3.6273 v -4.267502 c 0,-1.995098 -1.633,-3.6274 -3.628,-3.6274 z"
         id="path31664"
         style="clip-rule:evenodd;fill:#333333;fill-rule:evenodd;stroke-width:0.00268817;image-rendering:optimizeQuality;shape-rendering:geometricPrecision;text-rendering:geometricPrecision" />
      <path
         class="fil18"
         d="m 116.03026,82.088356 h -3.414 c -1.487,0 -2.703,1.2162 -2.703,2.7027 v 6.187901 c 0,1.4865 1.216,2.7027 2.703,2.7027 h 3.414 c 1.486,0 2.702,-1.2162 2.702,-2.7027 v -6.187901 c 0,-1.4865 -1.216,-2.7027 -2.702,-2.7027 z"
         id="path31666"
         style="clip-rule:evenodd;fill:#333333;fill-rule:evenodd;stroke-width:0.00268817;image-rendering:optimizeQuality;shape-rendering:geometricPrecision;text-rendering:geometricPrecision" />
      <path
         class="fil18"
         d="m 126.76926,82.088356 h -3.413 c -1.487,0 -2.703,1.2162 -2.703,2.7027 v 6.187901 c 0,1.4865 1.216,2.7027 2.703,2.7027 h 3.413 c 1.487,0 2.703,-1.2162 2.703,-2.7027 v -6.187901 c 0,-1.4865 -1.216,-2.7027 -2.703,-2.7027 z"
         id="path31668"
         style="clip-rule:evenodd;fill:#333333;fill-rule:evenodd;stroke-width:0.00268817;image-rendering:optimizeQuality;shape-rendering:geometricPrecision;text-rendering:geometricPrecision" />
      <path
         class="fil16"
         d="m 123.95626,59.130253 h -9.88 c -5.263,0 -9.569,4.3062 -9.569,9.5693 v 11.960601 c 0,5.263102 4.306,9.569402 9.569,9.569402 h 9.88 c 5.263,0 9.57,-4.3063 9.57,-9.569402 V 68.699553 c 0,-5.2631 -4.307,-9.5693 -9.57,-9.5693 z"
         id="path31670"
         style="clip-rule:evenodd;fill:#4d4d4d;fill-rule:evenodd;stroke-width:0.00268817;image-rendering:optimizeQuality;shape-rendering:geometricPrecision;text-rendering:geometricPrecision" />
      <path
         class="fil18"
         d="m 117.17126,59.142853 h -3.121 c -5.263,0 -9.569,4.3061 -9.569,9.5693 v 11.960603 c 0,5.2632 4.306,9.569299 9.569,9.569299 h 2.783 c -1.989,-1.756799 -3.248,-4.322699 -3.248,-7.168801 V 66.596253 c 0,-3.004 1.403,-5.6957 3.586,-7.4534 z"
         id="path31672"
         style="clip-rule:evenodd;fill:#333333;fill-rule:evenodd;stroke-width:0.00268817;image-rendering:optimizeQuality;shape-rendering:geometricPrecision;text-rendering:geometricPrecision" />
      <path
         class="fil16"
         d="m 124.14626,75.801353 h -10.653 c -5.675,0 -10.318,4.643102 -10.318,10.318002 v 4.965501 c 12.27,1.0052 19.026,1.0794 31.289,0 v -4.965501 c 0,-5.6749 -4.643,-10.318002 -10.318,-10.318002 z"
         id="path31674"
         style="clip-rule:evenodd;fill:#4d4d4d;fill-rule:evenodd;stroke-width:0.00268817;image-rendering:optimizeQuality;shape-rendering:geometricPrecision;text-rendering:geometricPrecision" />
      <path
         class="fil16"
         d="m 136.06926,78.659055 v 0 c 0,-1.995102 -1.632,-3.6273 -3.627,-3.6273 h -4.268 c -1.995,0 -3.627,1.632198 -3.627,3.6273 v 0 c 0,1.995101 1.632,3.627299 3.627,3.627299 h 4.268 c 1.995,0 3.627,-1.632198 3.627,-3.627299 z"
         id="path31676"
         style="clip-rule:evenodd;fill:#4d4d4d;fill-rule:evenodd;stroke-width:0.00268817;image-rendering:optimizeQuality;shape-rendering:geometricPrecision;text-rendering:geometricPrecision" />
      <path
         class="fil79"
         d="m 133.24926,76.990753 v 0 c 0,-0.762698 -0.624,-1.386898 -1.387,-1.386898 h -3.978 c -0.763,0 -1.387,0.6242 -1.387,1.386898 v 0 c 0,0.762802 0.624,1.387002 1.387,1.387002 h 3.978 c 0.763,0 1.387,-0.6242 1.387,-1.387002 z"
         id="path31678"
         style="clip-rule:evenodd;fill:#99ff99;fill-rule:evenodd;stroke-width:0.00268817;image-rendering:optimizeQuality;shape-rendering:geometricPrecision;text-rendering:geometricPrecision" />
      <path
         class="fil55"
         d="m 113.59626,75.786854 h -0.139 c -5.675,0 -10.318,4.643202 -10.318,10.318102 v 4.965502 c 4.302,0.463698 8.5,0.719298 12.775,0.758499 -1.292,-2.0339 -2.318,-5.423403 -2.318,-8.035001 z"
         id="path31680"
         style="clip-rule:evenodd;fill:#333333;fill-rule:evenodd;stroke-width:0.00268817;image-rendering:optimizeQuality;shape-rendering:geometricPrecision;text-rendering:geometricPrecision" />
      <path
         class="fil0"
         d="m 135.88126,64.416354 v 0 c 0,-3.255001 -2.663,-5.918102 -5.919,-5.918102 h -20.48 c -3.255,0 -5.918,2.663101 -5.918,5.918102 v 0 c 0,3.254999 2.663,5.9182 5.918,5.9182 h 20.48 c 3.256,0 5.919,-2.663201 5.919,-5.9182 z"
         id="path31682"
         style="clip-rule:evenodd;fill:#af5e31;fill-rule:evenodd;stroke-width:0.00268817;image-rendering:optimizeQuality;shape-rendering:geometricPrecision;text-rendering:geometricPrecision" />
      <path
         class="fil79"
         d="m 116.84726,65.421352 h 11.878 c 2.66,0 4.836,2.176402 4.836,4.836502 v 0 c 0,2.660001 -2.176,4.8364 -4.836,4.8364 h -11.878 c -2.66,0 -4.836,-2.176399 -4.836,-4.8364 v 0 c 0,-2.6601 2.176,-4.836502 4.836,-4.836502 z"
         id="path31684"
         style="clip-rule:evenodd;fill:#99ff99;fill-rule:evenodd;stroke-width:0.00268817;image-rendering:optimizeQuality;shape-rendering:geometricPrecision;text-rendering:geometricPrecision" />
      <path
         class="fil18"
         d="m 117.34526,67.979553 v 0 c 0.961,0 1.748,0.786601 1.748,1.748002 v 2.056598 c 0,0.961501 -0.787,1.748102 -1.748,1.748102 v 0 c -0.962,0 -1.748,-0.786601 -1.748,-1.748102 v -2.056598 c 0,-0.961401 0.786,-1.748002 1.748,-1.748002 z"
         id="path31686"
         style="clip-rule:evenodd;fill:#333333;fill-rule:evenodd;stroke-width:0.00268817;image-rendering:optimizeQuality;shape-rendering:geometricPrecision;text-rendering:geometricPrecision" />
      <path
         class="fil18"
         d="m 126.87526,67.979553 v 0 c 0.962,0 1.749,0.786601 1.749,1.748002 v 2.056598 c 0,0.961501 -0.787,1.748102 -1.749,1.748102 v 0 c -0.961,0 -1.748,-0.786601 -1.748,-1.748102 v -2.056598 c 0,-0.961401 0.787,-1.748002 1.748,-1.748002 z"
         id="path31688"
         style="clip-rule:evenodd;fill:#333333;fill-rule:evenodd;stroke-width:0.00268817;image-rendering:optimizeQuality;shape-rendering:geometricPrecision;text-rendering:geometricPrecision" />
      <path
         class="fil36"
         d="m 113.86926,70.835254 v 0 c 0,-2.738401 -2.241,-4.9789 -4.979,-4.9789 h -5.858 c -2.738,0 -4.979004,2.240499 -4.979004,4.9789 v 0 c 0,2.738501 2.241004,4.979001 4.979004,4.979001 h 5.858 c 2.738,0 4.979,-2.2405 4.979,-4.979001 z"
         id="path31690"
         style="clip-rule:evenodd;fill:#cc7643;fill-rule:evenodd;stroke-width:0.00268817;image-rendering:optimizeQuality;shape-rendering:geometricPrecision;text-rendering:geometricPrecision" />
      <path
         class="fil18"
         d="m 125.32026,80.852956 c 0.665,0.867799 1.71,1.4303 2.881,1.4303 h 4.268 c 0.904,0 1.734,-0.335499 2.371,-0.888201 -2.161,0.879999 -7.518,1.019101 -9.52,-0.542099 z"
         id="path31692"
         style="clip-rule:evenodd;fill:#333333;fill-rule:evenodd;stroke-width:0.00268817;image-rendering:optimizeQuality;shape-rendering:geometricPrecision;text-rendering:geometricPrecision" />
      <path
         class="fil79"
         d="m 122.94026,72.089755 v 0 c -0.799,0 -1.453,0.653999 -1.453,1.4533 v 1.709799 c 0,0.799301 0.654,1.4533 1.453,1.4533 v 0 c 0.8,0 1.453,-0.653999 1.453,-1.4533 v -1.709799 c 0,-0.799301 -0.653,-1.4533 -1.453,-1.4533 z"
         id="path31694"
         style="clip-rule:evenodd;fill:#99ff99;fill-rule:evenodd;stroke-width:0.00268817;image-rendering:optimizeQuality;shape-rendering:geometricPrecision;text-rendering:geometricPrecision" />
      <path
         class="fil4"
         d="M 136.46226,89.200957 H 99.231256 c -0.751,0 -1.366,0.6145 -1.366,1.365599 v 0 c 0,0.751099 0.615,1.365599 1.366,1.365599 h 37.231004 c 0.752,0 1.366,-0.6145 1.366,-1.365599 v 0 c 0,-0.751099 -0.614,-1.365599 -1.366,-1.365599 z"
         id="path31696"
         style="clip-rule:evenodd;fill:#996633;fill-rule:evenodd;stroke-width:0.00268817;image-rendering:optimizeQuality;shape-rendering:geometricPrecision;text-rendering:geometricPrecision" />
      <path
         class="fil29"
         d="m 97.914256,90.935856 c 0.18,0.573101 0.769,0.996101 1.461,0.996101 h 36.928004 c 0.723,0 1.332,-0.4615 1.482,-1.073499 -0.157,0.0501 -0.327,0.0774 -0.502,0.0774 z"
         id="path31698"
         style="clip-rule:evenodd;fill:#813d09;fill-rule:evenodd;stroke-width:0.00268817;image-rendering:optimizeQuality;shape-rendering:geometricPrecision;text-rendering:geometricPrecision" />
      <path
         class="fil65"
         d="m 87.301256,88.880456 c -0.826,0.835301 -0.931,2.0227 -0.315,2.9474 -0.604,1.8683 1.744,4.174001 4.98,3.2183 l 6.358,-1.877299 c 0.548,-0.1618 1.014,-0.410001 1.381,-0.7142 0.675004,-0.488601 1.095004,-1.164399 1.095004,-1.908101 v 0 c 0,-0.0926 -0.007,-0.1842 -0.019,-0.2745 0.314,-1.230799 -0.595,-2.502699 -2.247004,-2.990501 l -6.358,-1.8773 c -3.387,-1.000199 -5.8,1.572 -4.875,3.476201 z"
         id="path31700"
         style="clip-rule:evenodd;fill:#edc919;fill-rule:evenodd;stroke-width:0.00268817;image-rendering:optimizeQuality;shape-rendering:geometricPrecision;text-rendering:geometricPrecision" />
      <path
         class="fil68"
         d="m 87.040256,93.192657 c 0.536,1.409901 2.476,2.555401 4.926,1.831999 l 6.358,-1.877299 c 0.548,-0.1618 1.014,-0.410001 1.381,-0.7142 0.316004,-0.228902 0.576004,-0.4987 0.764004,-0.797401 -0.061,0.01529 -0.123,0.0299 -0.186,0.0439 l -8.407004,1.877201 c -1.937,0.432702 -3.634,0.1969 -4.836,-0.3642 z"
         id="path31702"
         style="clip-rule:evenodd;fill:#e8b10e;fill-rule:evenodd;stroke-width:0.00268817;image-rendering:optimizeQuality;shape-rendering:geometricPrecision;text-rendering:geometricPrecision" />
      <path
         class="fil65"
         d="m 102.81626,87.837657 h -1 c -1.376,0 -2.502004,1.126098 -2.502004,2.5024 v 0 c 0,1.376399 1.126004,2.5025 2.502004,2.5025 h 1 c 1.377,0 2.503,-1.126101 2.503,-2.5025 v 0 c 0,-1.376302 -1.126,-2.5024 -2.503,-2.5024 z"
         id="path31704"
         style="clip-rule:evenodd;fill:#edc919;fill-rule:evenodd;stroke-width:0.00268817;image-rendering:optimizeQuality;shape-rendering:geometricPrecision;text-rendering:geometricPrecision" />
      <path
         class="fil68"
         d="m 99.877256,91.889155 c 0.479004,0.579803 1.219004,0.953402 2.045004,0.953402 h 0.788 c 0.827,0 1.566,-0.373599 2.045,-0.953402 -0.156,0.0281 -0.316,0.043 -0.481,0.043 h -3.916 c -0.164,0 -0.325,-0.0149 -0.481004,-0.043 z"
         id="path31706"
         style="clip-rule:evenodd;fill:#e8b10e;fill-rule:evenodd;stroke-width:0.00268817;image-rendering:optimizeQuality;shape-rendering:geometricPrecision;text-rendering:geometricPrecision" />
      <path
         class="fil4"
         d="m 101.00326,92.042857 v -3.900501 c 0,-0.4216 -0.345,-0.7665 -0.767,-0.7665 v 0 c -0.422004,0 -0.767004,0.3449 -0.767004,0.7665 v 3.900501 c 0,0.4216 0.345,0.7664 0.767004,0.7664 v 0 c 0.422,0 0.767,-0.3448 0.767,-0.7664 z"
         id="path31708"
         style="clip-rule:evenodd;fill:#996633;fill-rule:evenodd;stroke-width:0.00268817;image-rendering:optimizeQuality;shape-rendering:geometricPrecision;text-rendering:geometricPrecision" />
      <path
         class="fil16"
         d="m 109.06526,78.303455 v 0 c -1.994,0 -3.627,1.632299 -3.627,3.627299 v 4.267502 c 0,1.995101 1.632,3.627401 3.627,3.627401 v 0 c 1.996,0 3.628,-1.6323 3.628,-3.627401 v -4.267502 c 0,-1.995 -1.632,-3.627299 -3.628,-3.627299 z"
         id="path31710"
         style="clip-rule:evenodd;fill:#4d4d4d;fill-rule:evenodd;stroke-width:0.00268817;image-rendering:optimizeQuality;shape-rendering:geometricPrecision;text-rendering:geometricPrecision" />
    </g>
    <g
       id="g1437"
       transform="translate(-14.29892,135.50565)">
      <path
         class="fil45"
         d="m 31.865406,53.638987 c -1.395,3.877201 3.371,7.491301 7.491,7.491301 h 14.877 c 4.12,0 9.03301,-3.6705 7.491,-7.491201 -8.379,-20.759902 -22.948,-19.220302 -29.859,0 z"
         id="path31712"
         style="clip-rule:evenodd;fill:#4d4d4d;fill-rule:evenodd;stroke-width:0.00268817;image-rendering:optimizeQuality;shape-rendering:geometricPrecision;text-rendering:geometricPrecision" />
      <path
         class="fil3"
         d="m 57.376406,53.687587 h -20.973 c -5.809,0 -10.561,4.752401 -10.561,10.560902 v 0 c 0,5.808599 4.752,10.561 10.561,10.561 h 20.973 c 5.808,0 10.561,-4.752401 10.561,-10.561 v 0 c 0,-5.808501 -4.753,-10.560902 -10.561,-10.560902 z"
         id="path31714"
         style="clip-rule:evenodd;fill:#666666;fill-rule:evenodd;stroke-width:0.00268817;image-rendering:optimizeQuality;shape-rendering:geometricPrecision;text-rendering:geometricPrecision" />
      <path
         class="fil45"
         d="m 40.809406,51.279087 c 2.911,2.2575 7.424,1.8389 8.647,0.125 l 4.416,-6.188201 c 1.223,-1.7139 -0.466,-5.3456 -4.2,-6.357201 -20.288,-5.4965 -23.292,1.229801 -8.863,12.420402 z"
         id="path31716"
         style="clip-rule:evenodd;fill:#4d4d4d;fill-rule:evenodd;stroke-width:0.00268817;image-rendering:optimizeQuality;shape-rendering:geometricPrecision;text-rendering:geometricPrecision" />
      <path
         class="fil16"
         d="m 57.160406,57.158188 h -20.031 c -3.899,0 -7.09,3.1907 -7.09,7.090402 v 0 c 0,3.899598 3.191,7.090299 7.09,7.090299 h 20.031 c 3.899,0 7.09,-3.190701 7.09,-7.090299 v 0 c 0,-3.899702 -3.191,-7.090402 -7.09,-7.090402 z"
         id="path31718"
         style="clip-rule:evenodd;fill:#4d4d4d;fill-rule:evenodd;stroke-width:0.00268817;image-rendering:optimizeQuality;shape-rendering:geometricPrecision;text-rendering:geometricPrecision" />
      <path
         class="fil39"
         d="m 41.147406,72.85139 v 0 c 0,-2.738501 -2.241,-4.979001 -4.979,-4.979001 h -5.857 c -2.739,0 -4.98,2.2405 -4.98,4.979001 v 0 c 0,2.7384 2.241,4.9789 4.98,4.9789 h 5.857 c 2.738,0 4.979,-2.2405 4.979,-4.9789 z"
         id="path31720"
         style="clip-rule:evenodd;fill:#924c2a;fill-rule:evenodd;stroke-width:0.00268817;image-rendering:optimizeQuality;shape-rendering:geometricPrecision;text-rendering:geometricPrecision" />
      <path
         class="fil39"
         d="m 65.538406,69.60899 v 0 c 0,-2.738501 -2.241,-4.979001 -4.979,-4.979001 h -5.858 c -2.738,0 -4.979,2.2405 -4.979,4.979001 v 0 c 0,2.7384 2.241,4.9789 4.979,4.9789 h 5.858 c 2.738,0 4.979,-2.2405 4.979,-4.9789 z"
         id="path31722"
         style="clip-rule:evenodd;fill:#924c2a;fill-rule:evenodd;stroke-width:0.00268817;image-rendering:optimizeQuality;shape-rendering:geometricPrecision;text-rendering:geometricPrecision" />
      <path
         class="fil18"
         d="m 59.573406,77.449491 v 0 c -1.995,0 -3.627,1.632299 -3.627,3.6273 v 4.267499 c 0,1.995101 1.632,3.6274 3.627,3.6274 v 0 c 1.995,0 3.628,-1.632299 3.628,-3.6274 v -4.267499 c 0,-1.995001 -1.633,-3.6273 -3.628,-3.6273 z"
         id="path31724"
         style="clip-rule:evenodd;fill:#333333;fill-rule:evenodd;stroke-width:0.00268817;image-rendering:optimizeQuality;shape-rendering:geometricPrecision;text-rendering:geometricPrecision" />
      <path
         class="fil18"
         d="m 43.505406,82.047791 h -3.414 c -1.486,0 -2.702,1.216199 -2.702,2.7027 v 6.1879 c 0,1.486501 1.216,2.7027 2.702,2.7027 h 3.414 c 1.487,0 2.703,-1.216199 2.703,-2.7027 v -6.1879 c 0,-1.486501 -1.216,-2.7027 -2.703,-2.7027 z"
         id="path31726"
         style="clip-rule:evenodd;fill:#333333;fill-rule:evenodd;stroke-width:0.00268817;image-rendering:optimizeQuality;shape-rendering:geometricPrecision;text-rendering:geometricPrecision" />
      <path
         class="fil18"
         d="m 54.245406,82.047791 h -3.414 c -1.486,0 -2.702,1.216199 -2.702,2.7027 v 6.1879 c 0,1.486501 1.216,2.7027 2.702,2.7027 h 3.414 c 1.487,0 2.703,-1.216199 2.703,-2.7027 v -6.1879 c 0,-1.486501 -1.216,-2.7027 -2.703,-2.7027 z"
         id="path31728"
         style="clip-rule:evenodd;fill:#333333;fill-rule:evenodd;stroke-width:0.00268817;image-rendering:optimizeQuality;shape-rendering:geometricPrecision;text-rendering:geometricPrecision" />
      <path
         class="fil16"
         d="m 51.432406,58.310088 h -9.88 c -5.263,0 -9.569,4.3062 -9.569,9.569302 v 11.960601 c 0,5.263099 4.306,9.569302 9.569,9.569302 h 9.88 c 5.263,0 9.57,-4.306203 9.57,-9.569302 V 67.87939 c 0,-5.263102 -4.307,-9.569302 -9.57,-9.569302 z"
         id="path31730"
         style="clip-rule:evenodd;fill:#4d4d4d;fill-rule:evenodd;stroke-width:0.00268817;image-rendering:optimizeQuality;shape-rendering:geometricPrecision;text-rendering:geometricPrecision" />
      <path
         class="fil18"
         d="m 44.647406,58.322588 h -3.121 c -5.263,0 -9.57,4.306201 -9.57,9.569402 v 11.9606 c 0,5.2631 4.307,9.569302 9.57,9.569302 h 2.783 c -1.989,-1.756801 -3.248,-4.322702 -3.248,-7.168801 V 65.776088 c 0,-3.004 1.402,-5.6957 3.586,-7.4535 z"
         id="path31732"
         style="clip-rule:evenodd;fill:#333333;fill-rule:evenodd;stroke-width:0.00268817;image-rendering:optimizeQuality;shape-rendering:geometricPrecision;text-rendering:geometricPrecision" />
      <path
         class="fil16"
         d="m 51.622406,74.98119 h -10.653 c -5.675,0 -10.318,4.643099 -10.318,10.318002 v 4.965499 c 12.27,1.005202 19.026,1.079402 31.289,0 v -4.965499 c 0,-5.674903 -4.643,-10.318002 -10.318,-10.318002 z"
         id="path31734"
         style="clip-rule:evenodd;fill:#4d4d4d;fill-rule:evenodd;stroke-width:0.00268817;image-rendering:optimizeQuality;shape-rendering:geometricPrecision;text-rendering:geometricPrecision" />
      <path
         class="fil16"
         d="m 63.545406,77.838889 v 0 c 0,-1.995099 -1.632,-3.627401 -3.627,-3.627401 h -4.268 c -1.995,0 -3.627,1.632302 -3.627,3.627401 v 0 c 0,1.995001 1.632,3.627302 3.627,3.627302 h 4.268 c 1.995,0 3.627,-1.632301 3.627,-3.627302 z"
         id="path31736"
         style="clip-rule:evenodd;fill:#4d4d4d;fill-rule:evenodd;stroke-width:0.00268817;image-rendering:optimizeQuality;shape-rendering:geometricPrecision;text-rendering:geometricPrecision" />
      <path
         class="fil79"
         d="m 60.725406,76.17059 v 0 c 0,-0.762801 -0.624,-1.3869 -1.387,-1.3869 h -3.978 c -0.763,0 -1.387,0.624099 -1.387,1.3869 v 0 c 0,0.762799 0.624,1.386999 1.387,1.386999 h 3.978 c 0.763,0 1.387,-0.6242 1.387,-1.386999 z"
         id="path31738"
         style="clip-rule:evenodd;fill:#99ff99;fill-rule:evenodd;stroke-width:0.00268817;image-rendering:optimizeQuality;shape-rendering:geometricPrecision;text-rendering:geometricPrecision" />
      <path
         class="fil55"
         d="m 41.072406,74.966689 h -0.139 c -5.675,0 -10.318,4.643202 -10.318,10.318001 v 4.965602 c 4.302,0.4636 8.5,0.719299 12.775,0.758499 -1.292,-2.033899 -2.318,-5.4234 -2.318,-8.035001 z"
         id="path31740"
         style="clip-rule:evenodd;fill:#333333;fill-rule:evenodd;stroke-width:0.00268817;image-rendering:optimizeQuality;shape-rendering:geometricPrecision;text-rendering:geometricPrecision" />
      <path
         class="fil0"
         d="m 63.356406,63.596188 v 0 c 0,-3.255 -2.663,-5.9181 -5.918,-5.9181 h -20.48 c -3.255,0 -5.918,2.6631 -5.918,5.9181 v 0 c 0,3.255 2.663,5.9182 5.918,5.9182 h 20.48 c 3.255,0 5.918,-2.6632 5.918,-5.9182 z"
         id="path31742"
         style="clip-rule:evenodd;fill:#af5e31;fill-rule:evenodd;stroke-width:0.00268817;image-rendering:optimizeQuality;shape-rendering:geometricPrecision;text-rendering:geometricPrecision" />
      <path
         class="fil79"
         d="m 44.323406,64.601189 h 11.878 c 2.66,0 4.836,2.176399 4.836,4.836401 v 0 c 0,2.6601 -2.176,4.836499 -4.836,4.836499 h -11.878 c -2.66,0 -4.836,-2.176399 -4.836,-4.836499 v 0 c 0,-2.660002 2.176,-4.836401 4.836,-4.836401 z"
         id="path31744"
         style="clip-rule:evenodd;fill:#99ff99;fill-rule:evenodd;stroke-width:0.00268817;image-rendering:optimizeQuality;shape-rendering:geometricPrecision;text-rendering:geometricPrecision" />
      <path
         class="fil36"
         d="m 41.344406,70.015088 v 0 c 0,-2.7384 -2.24,-4.979 -4.978,-4.979 h -5.858 c -2.739,0 -4.979,2.2406 -4.979,4.979 v 0 c 0,2.738501 2.24,4.979001 4.979,4.979001 h 5.858 c 2.738,0 4.978,-2.2405 4.978,-4.979001 z"
         id="path31746"
         style="clip-rule:evenodd;fill:#cc7643;fill-rule:evenodd;stroke-width:0.00268817;image-rendering:optimizeQuality;shape-rendering:geometricPrecision;text-rendering:geometricPrecision" />
      <path
         class="fil18"
         d="m 52.796406,80.03279 c 0.665,0.867802 1.71,1.4303 2.881,1.4303 h 4.268 c 0.904,0 1.73401,-0.335499 2.371,-0.8882 -2.161,0.880001 -7.518,1.0191 -9.52,-0.5421 z"
         id="path31748"
         style="clip-rule:evenodd;fill:#333333;fill-rule:evenodd;stroke-width:0.00268817;image-rendering:optimizeQuality;shape-rendering:geometricPrecision;text-rendering:geometricPrecision" />
      <path
         class="fil79"
         d="m 50.416406,71.269589 v 0 c -0.799,0 -1.453,0.653899 -1.453,1.4532 v 1.709902 c 0,0.799298 0.654,1.453298 1.453,1.453298 v 0 c 0.799,0 1.453,-0.654 1.453,-1.453298 v -1.709902 c 0,-0.799301 -0.654,-1.4532 -1.453,-1.4532 z"
         id="path31750"
         style="clip-rule:evenodd;fill:#99ff99;fill-rule:evenodd;stroke-width:0.00268817;image-rendering:optimizeQuality;shape-rendering:geometricPrecision;text-rendering:geometricPrecision" />
      <path
         class="fil4"
         d="m 63.938406,88.380791 h -37.231 c -0.751,0 -1.366,0.6145 -1.366,1.365599 v 0 c 0,0.751102 0.615,1.365502 1.366,1.365502 h 37.231 c 0.752,0 1.366,-0.6144 1.366,-1.365502 v 0 c 0,-0.751099 -0.614,-1.365599 -1.366,-1.365599 z"
         id="path31752"
         style="clip-rule:evenodd;fill:#996633;fill-rule:evenodd;stroke-width:0.00268817;image-rendering:optimizeQuality;shape-rendering:geometricPrecision;text-rendering:geometricPrecision" />
      <path
         class="fil29"
         d="m 25.390406,90.11569 c 0.18,0.573101 0.768,0.996101 1.461,0.996101 h 36.928 c 0.723,0 1.33201,-0.461499 1.482,-1.073499 -0.158,0.05 -0.327,0.0774 -0.502,0.0774 z"
         id="path31754"
         style="clip-rule:evenodd;fill:#813d09;fill-rule:evenodd;stroke-width:0.00268817;image-rendering:optimizeQuality;shape-rendering:geometricPrecision;text-rendering:geometricPrecision" />
      <path
         class="fil65"
         d="m 14.777406,88.060291 c -0.826,0.8353 -0.93099,2.0227 -0.31501,2.9474 -0.60399,1.868302 1.74302,4.174 4.98001,3.218302 l 6.358,-1.877301 c 0.548,-0.161801 1.014,-0.410001 1.381,-0.714201 0.675,-0.4886 1.095,-1.164399 1.095,-1.908101 v 0 c 0,-0.0926 -0.007,-0.1842 -0.019,-0.274499 0.314,-1.2308 -0.595,-2.502699 -2.247,-2.990501 l -6.358,-1.877298 c -3.38701,-1.000202 -5.80001,1.5719 -4.875,3.476199 z"
         id="path31756"
         style="clip-rule:evenodd;fill:#edc919;fill-rule:evenodd;stroke-width:0.00268817;image-rendering:optimizeQuality;shape-rendering:geometricPrecision;text-rendering:geometricPrecision" />
      <path
         class="fil68"
         d="m 14.516396,92.372491 c 0.53602,1.409901 2.476,2.555301 4.92601,1.831901 l 6.358,-1.877301 c 0.548,-0.1618 1.014,-0.409998 1.381,-0.7142 0.316,-0.228799 0.576,-0.4986 0.763,-0.797298 -0.06,0.01529 -0.122,0.0299 -0.185,0.0438 l -8.40701,1.877301 c -1.93699,0.432699 -3.634,0.196799 -4.836,-0.364203 z"
         id="path31758"
         style="clip-rule:evenodd;fill:#e8b10e;fill-rule:evenodd;stroke-width:0.00268817;image-rendering:optimizeQuality;shape-rendering:geometricPrecision;text-rendering:geometricPrecision" />
      <path
         class="fil65"
         d="m 30.292406,87.017491 h -1 c -1.376,0 -2.502,1.126001 -2.502,2.5024 v 0 c 0,1.3764 1.126,2.502501 2.502,2.502501 h 1 c 1.377,0 2.503,-1.126101 2.503,-2.502501 v 0 c 0,-1.376399 -1.126,-2.5024 -2.503,-2.5024 z"
         id="path31760"
         style="clip-rule:evenodd;fill:#edc919;fill-rule:evenodd;stroke-width:0.00268817;image-rendering:optimizeQuality;shape-rendering:geometricPrecision;text-rendering:geometricPrecision" />
      <path
         class="fil68"
         d="m 27.353406,91.068892 c 0.479,0.5799 1.219,0.9535 2.045,0.9535 h 0.788 c 0.826,0 1.566,-0.3736 2.045,-0.9535 -0.156,0.0282 -0.316,0.0431 -0.481,0.0431 h -3.916 c -0.164,0 -0.325,-0.0149 -0.481,-0.0431 z"
         id="path31762"
         style="clip-rule:evenodd;fill:#e8b10e;fill-rule:evenodd;stroke-width:0.00268817;image-rendering:optimizeQuality;shape-rendering:geometricPrecision;text-rendering:geometricPrecision" />
      <path
         class="fil4"
         d="M 28.478406,91.222691 V 87.32209 c 0,-0.4215 -0.345,-0.7664 -0.766,-0.7664 v 0 c -0.422,0 -0.767,0.3449 -0.767,0.7664 v 3.900601 c 0,0.421601 0.345,0.7664 0.767,0.7664 v 0 c 0.421,0 0.766,-0.344799 0.766,-0.7664 z"
         id="path31764"
         style="clip-rule:evenodd;fill:#996633;fill-rule:evenodd;stroke-width:0.00268817;image-rendering:optimizeQuality;shape-rendering:geometricPrecision;text-rendering:geometricPrecision" />
      <path
         class="fil16"
         d="m 36.541406,77.483289 v 0 c -1.995,0 -3.627,1.632302 -3.627,3.627302 v 4.267499 c 0,1.995102 1.632,3.6273 3.627,3.6273 v 0 c 1.995,0 3.628,-1.632198 3.628,-3.6273 v -4.267499 c 0,-1.995 -1.632,-3.627302 -3.628,-3.627302 z"
         id="path31766"
         style="clip-rule:evenodd;fill:#4d4d4d;fill-rule:evenodd;stroke-width:0.00268817;image-rendering:optimizeQuality;shape-rendering:geometricPrecision;text-rendering:geometricPrecision" />
      <path
         class="fil18"
         d="m 57.819406,66.491889 v 0 c -0.377,-0.377399 -0.995,-0.377399 -1.372,0 l -5.38,5.380601 c -0.378,0.377298 -0.378,0.994899 0,1.3722 v 0 c 0.377,0.377399 0.995,0.377399 1.372,0 l 5.38,-5.3805 c 0.378,-0.377402 0.378,-0.994902 0,-1.372301 z"
         id="path31768"
         style="clip-rule:evenodd;fill:#333333;fill-rule:evenodd;stroke-width:0.00268817;image-rendering:optimizeQuality;shape-rendering:geometricPrecision;text-rendering:geometricPrecision" />
      <path
         class="fil18"
         d="m 51.067406,66.491889 v 0 c 0.377,-0.377399 0.995,-0.377399 1.372,0 l 5.38,5.380601 c 0.378,0.377298 0.378,0.994899 0,1.3722 v 0 c -0.377,0.377399 -0.995,0.377399 -1.372,0 l -5.38,-5.3805 c -0.378,-0.377402 -0.378,-0.994902 0,-1.372301 z"
         id="path31770"
         style="clip-rule:evenodd;fill:#333333;fill-rule:evenodd;stroke-width:0.00268817;image-rendering:optimizeQuality;shape-rendering:geometricPrecision;text-rendering:geometricPrecision" />
      <path
         class="fil18"
         d="m 48.226406,66.491889 v 0 c -0.377,-0.377399 -0.995,-0.377399 -1.372,0 l -5.381,5.380601 c -0.377,0.377298 -0.377,0.994899 0,1.3722 v 0 c 0.378,0.377399 0.995,0.377399 1.372,0 l 5.381,-5.3805 c 0.378,-0.377402 0.377,-0.994902 0,-1.372301 z"
         id="path31772"
         style="clip-rule:evenodd;fill:#333333;fill-rule:evenodd;stroke-width:0.00268817;image-rendering:optimizeQuality;shape-rendering:geometricPrecision;text-rendering:geometricPrecision" />
      <path
         class="fil18"
         d="m 41.473406,66.491889 v 0 c 0.378,-0.377399 0.995,-0.377399 1.372,0 l 5.381,5.380601 c 0.377,0.377298 0.378,0.994899 0,1.3722 v 0 c -0.377,0.377399 -0.995,0.377399 -1.372,0 l -5.381,-5.3805 c -0.377,-0.377402 -0.377,-0.994902 0,-1.372301 z"
         id="path31774"
         style="clip-rule:evenodd;fill:#333333;fill-rule:evenodd;stroke-width:0.00268817;image-rendering:optimizeQuality;shape-rendering:geometricPrecision;text-rendering:geometricPrecision" />
    </g>
    <g
       id="g1533"
       transform="translate(-148.60186)">
      <path
         class="fil45"
         d="m 233.91891,53.815935 c -1.394,3.877201 3.371,7.491301 7.492,7.491301 h 14.87601 c 4.12,0 9.033,-3.6705 7.492,-7.491201 -8.379,-20.759902 -22.94801,-19.220302 -29.86001,0 z"
         id="path36212"
         style="clip-rule:evenodd;fill:#4d4d4d;fill-rule:evenodd;stroke-width:0.00268817;image-rendering:optimizeQuality;shape-rendering:geometricPrecision;text-rendering:geometricPrecision" />
      <path
         class="fil3"
         d="m 259.42992,53.864535 h -20.97301 c -5.808,0 -10.561,4.752401 -10.561,10.560902 v 0 c 0,5.808599 4.753,10.561 10.561,10.561 h 20.97301 c 5.809,0 10.561,-4.752401 10.561,-10.561 v 0 c 0,-5.808501 -4.752,-10.560902 -10.561,-10.560902 z"
         id="path36214"
         style="clip-rule:evenodd;fill:#666666;fill-rule:evenodd;stroke-width:0.00268817;image-rendering:optimizeQuality;shape-rendering:geometricPrecision;text-rendering:geometricPrecision" />
      <path
         class="fil45"
         d="m 242.86391,51.456035 c 2.911,2.2575 7.424,1.8389 8.64701,0.125 l 4.416,-6.188201 c 1.223,-1.7139 -0.466,-5.3456 -4.2,-6.357201 -20.28801,-5.4965 -23.29301,1.229801 -8.86301,12.420402 z"
         id="path36216"
         style="clip-rule:evenodd;fill:#4d4d4d;fill-rule:evenodd;stroke-width:0.00268817;image-rendering:optimizeQuality;shape-rendering:geometricPrecision;text-rendering:geometricPrecision" />
      <path
         class="fil16"
         d="m 259.21392,57.335136 h -20.03001 c -3.9,0 -7.09,3.1907 -7.09,7.090402 v 0 c 0,3.899598 3.19,7.090299 7.09,7.090299 h 20.03001 c 3.9,0 7.091,-3.190701 7.091,-7.090299 v 0 c 0,-3.899702 -3.191,-7.090402 -7.091,-7.090402 z"
         id="path36218"
         style="clip-rule:evenodd;fill:#4d4d4d;fill-rule:evenodd;stroke-width:0.00268817;image-rendering:optimizeQuality;shape-rendering:geometricPrecision;text-rendering:geometricPrecision" />
      <path
         class="fil39"
         d="m 243.20191,73.028338 v 0 c 0,-2.738501 -2.241,-4.979001 -4.979,-4.979001 h -5.858 c -2.738,0 -4.979,2.2405 -4.979,4.979001 v 0 c 0,2.7384 2.241,4.9789 4.979,4.9789 h 5.858 c 2.738,0 4.979,-2.2405 4.979,-4.9789 z"
         id="path36220"
         style="clip-rule:evenodd;fill:#924c2a;fill-rule:evenodd;stroke-width:0.00268817;image-rendering:optimizeQuality;shape-rendering:geometricPrecision;text-rendering:geometricPrecision" />
      <path
         class="fil39"
         d="m 267.59292,69.785938 v 0 c 0,-2.738501 -2.241,-4.979001 -4.979,-4.979001 h -5.858 c -2.739,0 -4.979,2.2405 -4.979,4.979001 v 0 c 0,2.7384 2.24,4.9789 4.979,4.9789 h 5.858 c 2.738,0 4.979,-2.2405 4.979,-4.9789 z"
         id="path36222"
         style="clip-rule:evenodd;fill:#924c2a;fill-rule:evenodd;stroke-width:0.00268817;image-rendering:optimizeQuality;shape-rendering:geometricPrecision;text-rendering:geometricPrecision" />
      <path
         class="fil18"
         d="m 261.62792,77.626439 v 0 c -1.995,0 -3.628,1.632299 -3.628,3.6273 v 4.267499 c 0,1.995101 1.633,3.6274 3.628,3.6274 v 0 c 1.995,0 3.627,-1.632299 3.627,-3.6274 v -4.267499 c 0,-1.995001 -1.632,-3.6273 -3.627,-3.6273 z"
         id="path36224"
         style="clip-rule:evenodd;fill:#333333;fill-rule:evenodd;stroke-width:0.00268817;image-rendering:optimizeQuality;shape-rendering:geometricPrecision;text-rendering:geometricPrecision" />
      <path
         class="fil18"
         d="m 245.55991,82.224739 h -3.414 c -1.486,0 -2.703,1.216199 -2.703,2.7027 v 6.1879 c 0,1.486501 1.217,2.7027 2.703,2.7027 h 3.414 c 1.487,0 2.703,-1.216199 2.703,-2.7027 v -6.1879 c 0,-1.486501 -1.216,-2.7027 -2.703,-2.7027 z"
         id="path36226"
         style="clip-rule:evenodd;fill:#333333;fill-rule:evenodd;stroke-width:0.00268817;image-rendering:optimizeQuality;shape-rendering:geometricPrecision;text-rendering:geometricPrecision" />
      <path
         class="fil18"
         d="m 256.29992,82.224739 h -3.414 c -1.486,0 -2.70301,1.216199 -2.70301,2.7027 v 6.1879 c 0,1.486501 1.21701,2.7027 2.70301,2.7027 h 3.414 c 1.487,0 2.703,-1.216199 2.703,-2.7027 v -6.1879 c 0,-1.486501 -1.216,-2.7027 -2.703,-2.7027 z"
         id="path36228"
         style="clip-rule:evenodd;fill:#333333;fill-rule:evenodd;stroke-width:0.00268817;image-rendering:optimizeQuality;shape-rendering:geometricPrecision;text-rendering:geometricPrecision" />
      <path
         class="fil16"
         d="m 253.48692,58.487036 h -9.88001 c -5.263,0 -9.57,4.3062 -9.57,9.569302 v 11.960601 c 0,5.263099 4.307,9.569302 9.57,9.569302 h 9.88001 c 5.263,0 9.569,-4.306203 9.569,-9.569302 V 68.056338 c 0,-5.263102 -4.306,-9.569302 -9.569,-9.569302 z"
         id="path36230"
         style="clip-rule:evenodd;fill:#4d4d4d;fill-rule:evenodd;stroke-width:0.00268817;image-rendering:optimizeQuality;shape-rendering:geometricPrecision;text-rendering:geometricPrecision" />
      <path
         class="fil18"
         d="m 246.70091,58.499536 h -3.121 c -5.263,0 -9.569,4.306201 -9.569,9.569402 v 11.9606 c 0,5.2631 4.306,9.569302 9.569,9.569302 h 2.784 c -1.989,-1.756801 -3.249,-4.322702 -3.249,-7.168801 V 65.953036 c 0,-3.004 1.403,-5.6957 3.586,-7.4535 z"
         id="path36232"
         style="clip-rule:evenodd;fill:#333333;fill-rule:evenodd;stroke-width:0.00268817;image-rendering:optimizeQuality;shape-rendering:geometricPrecision;text-rendering:geometricPrecision" />
      <path
         class="fil16"
         d="m 253.67692,75.158138 h -10.65301 c -5.675,0 -10.318,4.643099 -10.318,10.318002 v 4.965499 c 12.27,1.005202 19.02601,1.079402 31.28901,0 V 85.47614 c 0,-5.674903 -4.643,-10.318002 -10.318,-10.318002 z"
         id="path36234"
         style="clip-rule:evenodd;fill:#4d4d4d;fill-rule:evenodd;stroke-width:0.00268817;image-rendering:optimizeQuality;shape-rendering:geometricPrecision;text-rendering:geometricPrecision" />
      <path
         class="fil16"
         d="m 265.59992,78.015837 v 0 c 0,-1.995099 -1.633,-3.627401 -3.628,-3.627401 h -4.267 c -1.995,0 -3.628,1.632302 -3.628,3.627401 v 0 c 0,1.995001 1.633,3.627302 3.628,3.627302 h 4.267 c 1.995,0 3.628,-1.632301 3.628,-3.627302 z"
         id="path36236"
         style="clip-rule:evenodd;fill:#4d4d4d;fill-rule:evenodd;stroke-width:0.00268817;image-rendering:optimizeQuality;shape-rendering:geometricPrecision;text-rendering:geometricPrecision" />
      <path
         class="fil79"
         d="m 262.77892,76.347538 v 0 c 0,-0.762801 -0.624,-1.3869 -1.386,-1.3869 h -3.978 c -0.763,0 -1.387,0.624099 -1.387,1.3869 v 0 c 0,0.762799 0.624,1.386999 1.387,1.386999 h 3.978 c 0.762,0 1.386,-0.6242 1.386,-1.386999 z"
         id="path36238"
         style="clip-rule:evenodd;fill:#99ff99;fill-rule:evenodd;stroke-width:0.00268817;image-rendering:optimizeQuality;shape-rendering:geometricPrecision;text-rendering:geometricPrecision" />
      <path
         class="fil55"
         d="m 243.12691,75.143637 h -0.139 c -5.675,0 -10.318,4.643202 -10.318,10.318001 v 4.965602 c 4.301,0.4636 8.5,0.719299 12.774,0.758499 -1.291,-2.033899 -2.317,-5.4234 -2.317,-8.035001 z"
         id="path36240"
         style="clip-rule:evenodd;fill:#333333;fill-rule:evenodd;stroke-width:0.00268817;image-rendering:optimizeQuality;shape-rendering:geometricPrecision;text-rendering:geometricPrecision" />
      <path
         class="fil0"
         d="m 265.41092,63.773136 v 0 c 0,-3.255 -2.663,-5.9181 -5.918,-5.9181 h -20.48001 c -3.255,0 -5.918,2.6631 -5.918,5.9181 v 0 c 0,3.255 2.663,5.9182 5.918,5.9182 h 20.48001 c 3.255,0 5.918,-2.6632 5.918,-5.9182 z"
         id="path36242"
         style="clip-rule:evenodd;fill:#af5e31;fill-rule:evenodd;stroke-width:0.00268817;image-rendering:optimizeQuality;shape-rendering:geometricPrecision;text-rendering:geometricPrecision" />
      <path
         class="fil79"
         d="m 246.37691,64.778137 h 11.87801 c 2.66,0 4.837,2.176399 4.837,4.836401 v 0 c 0,2.6601 -2.177,4.836499 -4.837,4.836499 h -11.87801 c -2.659,0 -4.836,-2.176399 -4.836,-4.836499 v 0 c 0,-2.660002 2.177,-4.836401 4.836,-4.836401 z"
         id="path36244"
         style="clip-rule:evenodd;fill:#99ff99;fill-rule:evenodd;stroke-width:0.00268817;image-rendering:optimizeQuality;shape-rendering:geometricPrecision;text-rendering:geometricPrecision" />
      <path
         class="fil18"
         d="m 246.87491,67.336238 v 0 c 0.962,0 1.748,0.786698 1.748,1.748099 v 2.056601 c 0,0.9614 -0.786,1.748099 -1.748,1.748099 v 0 c -0.961,0 -1.748,-0.786699 -1.748,-1.748099 v -2.056601 c 0,-0.961401 0.787,-1.748099 1.748,-1.748099 z"
         id="path36246"
         style="clip-rule:evenodd;fill:#333333;fill-rule:evenodd;stroke-width:0.00268817;image-rendering:optimizeQuality;shape-rendering:geometricPrecision;text-rendering:geometricPrecision" />
      <path
         class="fil18"
         d="m 256.40592,67.336238 v 0 c 0.962,0 1.748,0.786698 1.748,1.748099 v 2.056601 c 0,0.9614 -0.786,1.748099 -1.748,1.748099 v 0 c -0.961,0 -1.748,-0.786699 -1.748,-1.748099 v -2.056601 c 0,-0.961401 0.787,-1.748099 1.748,-1.748099 z"
         id="path36248"
         style="clip-rule:evenodd;fill:#333333;fill-rule:evenodd;stroke-width:0.00268817;image-rendering:optimizeQuality;shape-rendering:geometricPrecision;text-rendering:geometricPrecision" />
      <path
         class="fil36"
         d="m 243.39891,70.192036 v 0 c 0,-2.7384 -2.24,-4.979 -4.979,-4.979 h -5.857 c -2.739,0 -4.979,2.2406 -4.979,4.979 v 0 c 0,2.738501 2.24,4.979001 4.979,4.979001 h 5.857 c 2.739,0 4.979,-2.2405 4.979,-4.979001 z"
         id="path36250"
         style="clip-rule:evenodd;fill:#cc7643;fill-rule:evenodd;stroke-width:0.00268817;image-rendering:optimizeQuality;shape-rendering:geometricPrecision;text-rendering:geometricPrecision" />
      <path
         class="fil18"
         d="m 254.85092,80.209738 c 0.664,0.867802 1.71,1.4303 2.881,1.4303 h 4.267 c 0.905,0 1.735,-0.335499 2.371,-0.8882 -2.16,0.880001 -7.518,1.0191 -9.519,-0.5421 z"
         id="path36252"
         style="clip-rule:evenodd;fill:#333333;fill-rule:evenodd;stroke-width:0.00268817;image-rendering:optimizeQuality;shape-rendering:geometricPrecision;text-rendering:geometricPrecision" />
      <path
         class="fil79"
         d="m 252.47092,71.446537 v 0 c -0.8,0 -1.453,0.653899 -1.453,1.4532 v 1.709902 c 0,0.799298 0.653,1.453298 1.453,1.453298 v 0 c 0.799,0 1.453,-0.654 1.453,-1.453298 v -1.709902 c 0,-0.799301 -0.654,-1.4532 -1.453,-1.4532 z"
         id="path36254"
         style="clip-rule:evenodd;fill:#99ff99;fill-rule:evenodd;stroke-width:0.00268817;image-rendering:optimizeQuality;shape-rendering:geometricPrecision;text-rendering:geometricPrecision" />
      <path
         class="fil4"
         d="m 265.99292,88.557739 h -37.23101 c -0.751,0 -1.366,0.6145 -1.366,1.365599 v 0 c 0,0.751102 0.615,1.365502 1.366,1.365502 h 37.23101 c 0.751,0 1.366,-0.6144 1.366,-1.365502 v 0 c 0,-0.751099 -0.615,-1.365599 -1.366,-1.365599 z"
         id="path36256"
         style="clip-rule:evenodd;fill:#996633;fill-rule:evenodd;stroke-width:0.00268817;image-rendering:optimizeQuality;shape-rendering:geometricPrecision;text-rendering:geometricPrecision" />
      <path
         class="fil29"
         d="m 227.44491,90.292638 c 0.18,0.573101 0.768,0.996101 1.461,0.996101 h 36.92701 c 0.724,0 1.333,-0.461499 1.482,-1.073499 -0.157,0.05 -0.326,0.0774 -0.502,0.0774 z"
         id="path36258"
         style="clip-rule:evenodd;fill:#813d09;fill-rule:evenodd;stroke-width:0.00268817;image-rendering:optimizeQuality;shape-rendering:geometricPrecision;text-rendering:geometricPrecision" />
      <path
         class="fil65"
         d="m 216.83091,88.237239 c -0.826,0.8353 -0.93,2.0227 -0.314,2.9474 -0.604,1.868302 1.743,4.174 4.98,3.218302 l 6.358,-1.877301 c 0.547,-0.161801 1.014,-0.410001 1.38,-0.714201 0.676,-0.4886 1.095,-1.164399 1.095,-1.908101 v 0 c 0,-0.0926 -0.006,-0.1842 -0.019,-0.274499 0.315,-1.2308 -0.594,-2.502699 -2.246,-2.990501 l -6.358,-1.877298 c -3.387,-1.000202 -5.8,1.5719 -4.876,3.476199 z"
         id="path36260"
         style="clip-rule:evenodd;fill:#edc919;fill-rule:evenodd;stroke-width:0.00268817;image-rendering:optimizeQuality;shape-rendering:geometricPrecision;text-rendering:geometricPrecision" />
      <path
         class="fil68"
         d="m 216.56991,92.549439 c 0.537,1.409901 2.477,2.555301 4.927,1.831901 l 6.358,-1.877301 c 0.547,-0.1618 1.014,-0.409998 1.38,-0.7142 0.317,-0.228799 0.577,-0.4986 0.764,-0.797298 -0.061,0.01529 -0.122,0.0299 -0.185,0.0438 l -8.407,1.877301 c -1.938,0.432699 -3.634,0.196799 -4.837,-0.364203 z"
         id="path36262"
         style="clip-rule:evenodd;fill:#e8b10e;fill-rule:evenodd;stroke-width:0.00268817;image-rendering:optimizeQuality;shape-rendering:geometricPrecision;text-rendering:geometricPrecision" />
      <path
         class="fil65"
         d="m 232.34691,87.194439 h -1 c -1.377,0 -2.503,1.126001 -2.503,2.5024 v 0 c 0,1.3764 1.126,2.502501 2.503,2.502501 h 1 c 1.376,0 2.502,-1.126101 2.502,-2.502501 v 0 c 0,-1.376399 -1.126,-2.5024 -2.502,-2.5024 z"
         id="path36264"
         style="clip-rule:evenodd;fill:#edc919;fill-rule:evenodd;stroke-width:0.00268817;image-rendering:optimizeQuality;shape-rendering:geometricPrecision;text-rendering:geometricPrecision" />
      <path
         class="fil68"
         d="m 229.40791,91.24584 c 0.479,0.5799 1.218,0.9535 2.045,0.9535 h 0.788 c 0.826,0 1.566,-0.3736 2.045,-0.9535 -0.156,0.0282 -0.317,0.0431 -0.481,0.0431 h -3.916 c -0.164,0 -0.325,-0.0149 -0.481,-0.0431 z"
         id="path36266"
         style="clip-rule:evenodd;fill:#e8b10e;fill-rule:evenodd;stroke-width:0.00268817;image-rendering:optimizeQuality;shape-rendering:geometricPrecision;text-rendering:geometricPrecision" />
      <path
         class="fil4"
         d="m 230.53291,91.399639 v -3.900601 c 0,-0.4215 -0.345,-0.7664 -0.767,-0.7664 v 0 c -0.421,0 -0.766,0.3449 -0.766,0.7664 v 3.900601 c 0,0.421601 0.345,0.7664 0.766,0.7664 v 0 c 0.422,0 0.767,-0.344799 0.767,-0.7664 z"
         id="path36268"
         style="clip-rule:evenodd;fill:#996633;fill-rule:evenodd;stroke-width:0.00268817;image-rendering:optimizeQuality;shape-rendering:geometricPrecision;text-rendering:geometricPrecision" />
      <path
         class="fil16"
         d="m 238.59591,77.660237 v 0 c -1.995,0 -3.627,1.632302 -3.627,3.627302 v 4.267499 c 0,1.995102 1.632,3.6273 3.627,3.6273 v 0 c 1.995,0 3.627,-1.632198 3.627,-3.6273 v -4.267499 c 0,-1.995 -1.632,-3.627302 -3.627,-3.627302 z"
         id="path36270"
         style="clip-rule:evenodd;fill:#4d4d4d;fill-rule:evenodd;stroke-width:0.00268817;image-rendering:optimizeQuality;shape-rendering:geometricPrecision;text-rendering:geometricPrecision" />
    </g>
    <g
       id="g1403"
       transform="translate(-11.492591,73.766391)">
      <path
         class="fil45"
         d="m 92.432117,131.44309 c 1.756005,3.7275 7.681003,2.9135 10.594003,0 l 10.52,-10.5195 c 2.913,-2.91341 3.792,-8.98291 0,-10.59411 -20.603998,-8.7548 -29.817003,2.6357 -21.114003,21.11361 z"
         id="path31776"
         style="clip-rule:evenodd;fill:#4d4d4d;fill-rule:evenodd;stroke-width:0.00268817;image-rendering:optimizeQuality;shape-rendering:geometricPrecision;text-rendering:geometricPrecision" />
      <path
         class="fil3"
         d="m 110.50612,113.43828 -14.830998,14.83031 c -4.107004,4.1072 -4.107004,10.8282 0,14.9354 v 0 c 4.108,4.1073 10.828998,4.1073 14.935998,0 l 14.83,-14.8302 c 4.107,-4.1073 4.107,-10.82821 0,-14.93551 v 0 c -4.107,-4.1072 -10.828,-4.1072 -14.935,0 z"
         id="path31778"
         style="clip-rule:evenodd;fill:#666666;fill-rule:evenodd;stroke-width:0.00268817;image-rendering:optimizeQuality;shape-rendering:geometricPrecision;text-rendering:geometricPrecision" />
      <path
         class="fil45"
         d="m 97.088122,123.44969 c 3.654998,-0.462 6.549998,-3.94941 6.202998,-6.02611 l -1.253,-7.4982 c -0.347,-2.0766 -4.109998,-3.4503 -7.464998,-1.5254 -18.233006,10.4593 -15.601005,17.33981 2.515,15.04971 z"
         id="path31780"
         style="clip-rule:evenodd;fill:#4d4d4d;fill-rule:evenodd;stroke-width:0.00268817;image-rendering:optimizeQuality;shape-rendering:geometricPrecision;text-rendering:geometricPrecision" />
      <path
         class="fil16"
         d="m 112.80712,116.04528 -14.163998,14.16361 c -2.757,2.7575 -2.757,7.2697 0,10.0272 v 0 c 2.757998,2.7574 7.269998,2.7575 10.027998,0 l 14.163,-14.1636 c 2.758,-2.7575 2.758,-7.26971 0,-10.02721 v 0 c -2.757,-2.7575 -7.27,-2.7575 -10.027,0 z"
         id="path31782"
         style="clip-rule:evenodd;fill:#4d4d4d;fill-rule:evenodd;stroke-width:0.00268817;image-rendering:optimizeQuality;shape-rendering:geometricPrecision;text-rendering:geometricPrecision" />
      <path
         class="fil39"
         d="m 112.58112,138.46459 v 0 c -1.936,-1.9364 -5.105,-1.9364 -7.041,0 l -4.142,4.142 c -1.936998,1.9363 -1.936998,5.1049 0,7.0413 v 0 c 1.936,1.9364 5.105,1.9364 7.041,0 l 4.142,-4.142 c 1.936,-1.9364 1.936,-5.1049 0,-7.0413 z"
         id="path31784"
         style="clip-rule:evenodd;fill:#924c2a;fill-rule:evenodd;stroke-width:0.00268817;image-rendering:optimizeQuality;shape-rendering:geometricPrecision;text-rendering:geometricPrecision" />
      <path
         class="fil39"
         d="m 127.53512,118.92508 v 0 c -1.936,-1.9364 -5.105,-1.9364 -7.041,0 l -4.142,4.14201 c -1.937,1.9363 -1.937,5.1049 0,7.0412 v 0 c 1.936,1.9364 5.105,1.9364 7.041,0 l 4.142,-4.1419 c 1.937,-1.9364 1.937,-5.105 0,-7.04131 z"
         id="path31786"
         style="clip-rule:evenodd;fill:#924c2a;fill-rule:evenodd;stroke-width:0.00268817;image-rendering:optimizeQuality;shape-rendering:geometricPrecision;text-rendering:geometricPrecision" />
      <path
         class="fil18"
         d="m 128.86212,128.68669 v 0 c -1.411,1.4107 -1.411,3.7191 0,5.1298 l 3.017,3.0176 c 1.411,1.4107 3.719,1.4107 5.13,0 v 0 c 1.411,-1.4107 1.411,-3.7191 0,-5.1298 l -3.017,-3.0176 c -1.411,-1.4107 -3.72,-1.4107 -5.13,0 z"
         id="path31788"
         style="clip-rule:evenodd;fill:#333333;fill-rule:evenodd;stroke-width:0.00268817;image-rendering:optimizeQuality;shape-rendering:geometricPrecision;text-rendering:geometricPrecision" />
      <path
         class="fil18"
         d="m 120.75112,143.29979 -2.414,2.414 c -1.051,1.0511 -1.051,2.7711 0,3.8222 l 4.376,4.3755 c 1.051,1.0511 2.771,1.0511 3.822,0 l 2.414,-2.414 c 1.051,-1.0511 1.051,-2.7711 0,-3.8222 l -4.375,-4.3755 c -1.051,-1.0512 -2.771,-1.0512 -3.823,0 z"
         id="path31790"
         style="clip-rule:evenodd;fill:#333333;fill-rule:evenodd;stroke-width:0.00268817;image-rendering:optimizeQuality;shape-rendering:geometricPrecision;text-rendering:geometricPrecision" />
      <path
         class="fil18"
         d="m 128.34612,135.70559 -2.414,2.414 c -1.052,1.0511 -1.052,2.7711 0,3.8222 l 4.375,4.3755 c 1.051,1.0512 2.771,1.0512 3.822,0 l 2.414,-2.414 c 1.051,-1.0511 1.051,-2.7711 0,-3.8222 l -4.375,-4.3755 c -1.051,-1.0512 -2.771,-1.0512 -3.822,0 z"
         id="path31792"
         style="clip-rule:evenodd;fill:#333333;fill-rule:evenodd;stroke-width:0.00268817;image-rendering:optimizeQuality;shape-rendering:geometricPrecision;text-rendering:geometricPrecision" />
      <path
         class="fil16"
         d="m 109.57112,120.90959 -6.986,6.9864 c -3.720998,3.7216 -3.720998,9.8114 0,13.533 l 8.458,8.4575 c 3.721,3.7216 9.811,3.7216 13.533,0 l 6.986,-6.9864 c 3.721,-3.7216 3.721,-9.8114 0,-13.533 l -8.457,-8.4575 c -3.722,-3.72161 -9.812,-3.72161 -13.534,0 z"
         id="path31794"
         style="clip-rule:evenodd;fill:#4d4d4d;fill-rule:evenodd;stroke-width:0.00268817;image-rendering:optimizeQuality;shape-rendering:geometricPrecision;text-rendering:geometricPrecision" />
      <path
         class="fil18"
         d="m 104.78212,125.71679 -2.207,2.2066 c -3.720998,3.7216 -3.720998,9.8115 0,13.5331 l 8.458,8.4574 c 3.721,3.7216 9.811,3.7216 13.533,0 l 1.968,-1.9681 c -2.649,0.1642 -5.354,-0.7594 -7.366,-2.7719 l -11.651,-11.651 c -2.124,-2.1242 -3.035,-5.0197 -2.735,-7.8061 z"
         id="path31796"
         style="clip-rule:evenodd;fill:#333333;fill-rule:evenodd;stroke-width:0.00268817;image-rendering:optimizeQuality;shape-rendering:geometricPrecision;text-rendering:geometricPrecision" />
      <path
         class="fil16"
         d="m 121.49412,132.56359 -7.533,7.5329 c -4.013,4.0128 -4.013,10.5792 0,14.5919 l 3.511,3.5112 c 9.387,-7.9655 14.217,-12.6903 22.125,-22.1248 l -3.511,-3.5112 c -4.013,-4.0127 -10.579,-4.0128 -14.592,0 z"
         id="path31798"
         style="clip-rule:evenodd;fill:#4d4d4d;fill-rule:evenodd;stroke-width:0.00268817;image-rendering:optimizeQuality;shape-rendering:geometricPrecision;text-rendering:geometricPrecision" />
      <path
         class="fil16"
         d="m 131.94612,126.15359 v 0 c -1.411,-1.4107 -3.72,-1.4107 -5.13,0 l -3.018,3.0176 c -1.411,1.4107 -1.411,3.7191 0,5.1298 v 0 c 1.411,1.4107 3.719,1.4107 5.13,0 l 3.018,-3.0176 c 1.41,-1.4107 1.41,-3.7191 0,-5.1298 z"
         id="path31800"
         style="clip-rule:evenodd;fill:#4d4d4d;fill-rule:evenodd;stroke-width:0.00268817;image-rendering:optimizeQuality;shape-rendering:geometricPrecision;text-rendering:geometricPrecision" />
      <path
         class="fil79"
         d="m 128.77212,126.96809 v 0 c -0.54,-0.5394 -1.422,-0.5394 -1.962,0 l -2.813,2.8127 c -0.539,0.5394 -0.539,1.422 0,1.9614 h 0.001 c 0.539,0.5394 1.421,0.5394 1.961,0 l 2.813,-2.8127 c 0.539,-0.5394 0.539,-1.422 0,-1.9614 z"
         id="path31802"
         style="clip-rule:evenodd;fill:#99ff99;fill-rule:evenodd;stroke-width:0.00268817;image-rendering:optimizeQuality;shape-rendering:geometricPrecision;text-rendering:geometricPrecision" />
      <path
         class="fil55"
         d="m 114.02412,140.01339 -0.098,0.0981 c -4.013,4.0128 -4.013,10.5792 0,14.5919 l 3.511,3.5112 c 3.369,-2.7137 6.519,-5.5018 9.569,-8.4964 -2.351,-0.525 -5.474,-2.1962 -7.32,-4.0429 z"
         id="path31804"
         style="clip-rule:evenodd;fill:#333333;fill-rule:evenodd;stroke-width:0.00268817;image-rendering:optimizeQuality;shape-rendering:geometricPrecision;text-rendering:geometricPrecision" />
      <path
         class="fil0"
         d="m 121.74112,116.21568 v 0 c -2.301,-2.3016 -6.068,-2.3016 -8.369,0 l -14.481998,14.48161 c -2.302,2.3016 -2.302,6.0679 0,8.3696 v 0 c 2.301998,2.3016 6.067998,2.3016 8.369998,0 l 14.481,-14.4816 c 2.302,-2.3017 2.302,-6.06801 0,-8.36961 z"
         id="path31806"
         style="clip-rule:evenodd;fill:#af5e31;fill-rule:evenodd;stroke-width:0.00268817;image-rendering:optimizeQuality;shape-rendering:geometricPrecision;text-rendering:geometricPrecision" />
      <path
         class="fil79"
         d="m 108.99312,130.38509 8.399,-8.3989 c 1.881,-1.8809 4.959,-1.8809 6.84,0 v 0 c 1.88,1.881 1.88,4.9589 0,6.8398 l -8.399,8.3989 c -1.881,1.881 -4.959,1.881 -6.84,0 v 0 c -1.881,-1.8809 -1.881,-4.9588 0,-6.8398 z"
         id="path31808"
         style="clip-rule:evenodd;fill:#99ff99;fill-rule:evenodd;stroke-width:0.00268817;image-rendering:optimizeQuality;shape-rendering:geometricPrecision;text-rendering:geometricPrecision" />
      <path
         class="fil36"
         d="m 110.71512,136.31939 v 0 c -1.936,-1.9364 -5.105,-1.9364 -7.041,0 l -4.141998,4.142 c -1.936,1.9364 -1.936,5.1049 0,7.0413 v 0 c 1.935998,1.9364 5.104998,1.9364 7.040998,0 l 4.142,-4.142 c 1.936,-1.9364 1.936,-5.1049 0,-7.0413 z"
         id="path31810"
         style="clip-rule:evenodd;fill:#cc7643;fill-rule:evenodd;stroke-width:0.00268817;image-rendering:optimizeQuality;shape-rendering:geometricPrecision;text-rendering:geometricPrecision" />
      <path
         class="fil18"
         d="m 125.89612,135.30549 c 1.084,0.1439 2.221,-0.1979 3.049,-1.0258 l 3.017,-3.0176 c 0.64,-0.6395 0.989,-1.4636 1.049,-2.3048 -0.906,2.1502 -4.596,6.0369 -7.115,6.3482 z"
         id="path31812"
         style="clip-rule:evenodd;fill:#333333;fill-rule:evenodd;stroke-width:0.00268817;image-rendering:optimizeQuality;shape-rendering:geometricPrecision;text-rendering:geometricPrecision" />
      <path
         class="fil79"
         d="m 118.01712,130.79189 v 0 c -0.566,0.5652 -0.566,1.49 0,2.0552 l 1.209,1.209 c 0.565,0.5652 1.49,0.5652 2.055,0 v 0 c 0.565,-0.5652 0.565,-1.49 0,-2.0552 l -1.209,-1.209 c -0.565,-0.5652 -1.49,-0.5652 -2.055,0 z"
         id="path31814"
         style="clip-rule:evenodd;fill:#99ff99;fill-rule:evenodd;stroke-width:0.00268817;image-rendering:optimizeQuality;shape-rendering:geometricPrecision;text-rendering:geometricPrecision" />
      <path
         class="fil4"
         d="m 139.67812,133.32969 -26.327,26.3266 c -0.531,0.5311 -0.531,1.4001 0,1.9312 v 0 c 0.531,0.5311 1.4,0.5311 1.932,0 l 26.326,-26.3266 c 0.531,-0.5311 0.531,-1.4002 0,-1.9312 v 0 c -0.531,-0.5311 -1.4,-0.5311 -1.931,0 z"
         id="path31816"
         style="clip-rule:evenodd;fill:#996633;fill-rule:evenodd;stroke-width:0.00268817;image-rendering:optimizeQuality;shape-rendering:geometricPrecision;text-rendering:geometricPrecision" />
      <path
         class="fil29"
         d="m 113.64712,161.81409 c 0.533,0.2777 1.247,0.1611 1.737,-0.3286 l 26.112,-26.1117 c 0.511,-0.5114 0.616,-1.2686 0.289,-1.8071 -0.076,0.1466 -0.176,0.2854 -0.3,0.4097 z"
         id="path31818"
         style="clip-rule:evenodd;fill:#813d09;fill-rule:evenodd;stroke-width:0.00268817;image-rendering:optimizeQuality;shape-rendering:geometricPrecision;text-rendering:geometricPrecision" />
      <path
         class="fil65"
         d="m 104.68912,167.86569 c 0.007,1.1745 0.772,2.0881 1.861,2.3065 0.895,1.7479 4.185,1.7186 5.797,-1.2457 l 3.169,-5.8231 c 0.273,-0.5019 0.427,-1.0069 0.471,-1.4815 0.132,-0.8231 -0.049,-1.5977 -0.575,-2.1236 v 0 c -0.065,-0.0655 -0.135,-0.1257 -0.208,-0.1805 -0.648,-1.0925 -2.189,-1.3494 -3.703,-0.5261 l -5.823,3.1682 c -3.102,1.688 -2.989,5.2129 -0.989,5.9058 z"
         id="path31820"
         style="clip-rule:evenodd;fill:#edc919;fill-rule:evenodd;stroke-width:0.00268817;image-rendering:optimizeQuality;shape-rendering:geometricPrecision;text-rendering:geometricPrecision" />
      <path
         class="fil68"
         d="m 107.55312,171.09939 c 1.376,0.6175 3.558,0.0558 4.779,-2.1881 l 3.168,-5.8231 c 0.274,-0.502 0.428,-1.007 0.472,-1.4815 0.062,-0.3854 0.055,-0.7602 -0.024,-1.1038 -0.032,0.0538 -0.066,0.1077 -0.1,0.1618 l -4.617,7.2723 c -1.064,1.676 -2.431,2.7088 -3.678,3.1624 z"
         id="path31822"
         style="clip-rule:evenodd;fill:#e8b10e;fill-rule:evenodd;stroke-width:0.00268817;image-rendering:optimizeQuality;shape-rendering:geometricPrecision;text-rendering:geometricPrecision" />
      <path
         class="fil65"
         d="m 114.92212,156.15719 -0.707,0.707 c -0.973,0.9733 -0.973,2.5658 0,3.539 v 0 c 0.974,0.9733 2.566,0.9733 3.539,0 l 0.707,-0.707 c 0.974,-0.9733 0.974,-2.5658 0,-3.539 v 0 c -0.973,-0.9733 -2.565,-0.9733 -3.539,0 z"
         id="path31824"
         style="clip-rule:evenodd;fill:#edc919;fill-rule:evenodd;stroke-width:0.00268817;image-rendering:optimizeQuality;shape-rendering:geometricPrecision;text-rendering:geometricPrecision" />
      <path
         class="fil68"
         d="m 115.70912,161.10009 c 0.749,0.0714 1.536,-0.1874 2.12,-0.7717 l 0.557,-0.5574 c 0.585,-0.5843 0.844,-1.3715 0.772,-2.12 -0.09,0.1301 -0.193,0.2542 -0.309,0.3703 l -2.77,2.7694 c -0.116,0.116 -0.24,0.2191 -0.37,0.3094 z"
         id="path31826"
         style="clip-rule:evenodd;fill:#e8b10e;fill-rule:evenodd;stroke-width:0.00268817;image-rendering:optimizeQuality;shape-rendering:geometricPrecision;text-rendering:geometricPrecision" />
      <path
         class="fil4"
         d="m 116.61312,160.41319 -2.758,-2.7581 c -0.298,-0.298 -0.786,-0.2981 -1.084,0 v 0 c -0.298,0.2981 -0.298,0.7858 0,1.0839 l 2.758,2.7581 c 0.299,0.2981 0.786,0.2981 1.084,0 v 0 c 0.298,-0.2981 0.298,-0.7858 0,-1.0839 z"
         id="path31828"
         style="clip-rule:evenodd;fill:#996633;fill-rule:evenodd;stroke-width:0.00268817;image-rendering:optimizeQuality;shape-rendering:geometricPrecision;text-rendering:geometricPrecision" />
      <path
         class="fil16"
         d="m 112.60012,144.99649 v 0 c -1.411,1.4107 -1.411,3.7191 0,5.1298 l 3.017,3.0176 c 1.411,1.4107 3.719,1.4107 5.13,0 v 0 c 1.411,-1.4107 1.411,-3.7191 0,-5.1298 l -3.018,-3.0176 c -1.41,-1.4107 -3.719,-1.4107 -5.129,0 z"
         id="path31830"
         style="clip-rule:evenodd;fill:#4d4d4d;fill-rule:evenodd;stroke-width:0.00268817;image-rendering:optimizeQuality;shape-rendering:geometricPrecision;text-rendering:geometricPrecision" />
      <path
         class="fil18"
         d="m 119.87412,122.17859 v 0 c -0.534,0 -0.971,0.4366 -0.971,0.9703 v 7.6093 c 0,0.5336 0.437,0.9703 0.971,0.9703 v 0 c 0.533,0 0.97,-0.4367 0.97,-0.9703 v -7.6093 c 0,-0.5337 -0.437,-0.9703 -0.97,-0.9703 z"
         id="path31832"
         style="clip-rule:evenodd;fill:#333333;fill-rule:evenodd;stroke-width:0.00268817;image-rendering:optimizeQuality;shape-rendering:geometricPrecision;text-rendering:geometricPrecision" />
      <path
         class="fil18"
         d="m 115.09912,126.95349 v 0 c 0,-0.5337 0.436,-0.9703 0.97,-0.9703 h 7.609 c 0.534,0 0.97,0.4366 0.97,0.9703 v 0 c 0,0.5337 -0.436,0.9704 -0.97,0.9704 h -7.609 c -0.534,0 -0.97,-0.4367 -0.97,-0.9704 z"
         id="path31834"
         style="clip-rule:evenodd;fill:#333333;fill-rule:evenodd;stroke-width:0.00268817;image-rendering:optimizeQuality;shape-rendering:geometricPrecision;text-rendering:geometricPrecision" />
      <path
         class="fil18"
         d="m 113.09012,128.96219 v 0 c -0.534,0 -0.971,0.4366 -0.971,0.9703 v 7.6093 c 0,0.5337 0.437,0.9703 0.971,0.9703 v 0 c 0.534,0 0.97,-0.4366 0.97,-0.9703 v -7.6093 c 0,-0.5337 -0.436,-0.9703 -0.97,-0.9703 z"
         id="path31836"
         style="clip-rule:evenodd;fill:#333333;fill-rule:evenodd;stroke-width:0.00268817;image-rendering:optimizeQuality;shape-rendering:geometricPrecision;text-rendering:geometricPrecision" />
      <path
         class="fil18"
         d="m 108.31512,133.73719 v 0 c 0,-0.5337 0.436,-0.9704 0.97,-0.9704 h 7.609 c 0.534,0 0.971,0.4367 0.971,0.9704 v 0 c 0,0.5336 -0.437,0.9703 -0.971,0.9703 h -7.609 c -0.534,0 -0.97,-0.4367 -0.97,-0.9703 z"
         id="path31838"
         style="clip-rule:evenodd;fill:#333333;fill-rule:evenodd;stroke-width:0.00268817;image-rendering:optimizeQuality;shape-rendering:geometricPrecision;text-rendering:geometricPrecision" />
    </g>
    <g
       id="g1369"
       transform="translate(130.6948,73.766391)">
      <path
         class="fil45"
         d="m 24.149112,155.54699 c 3.877,1.3943 7.491,-3.371 7.491,-7.4912 v -14.8768 c 0,-4.1202 -3.671,-9.0333 -7.491,-7.4912 -20.7600097,8.3788 -19.2199997,22.9477 0,29.8592 z"
         id="path31840"
         style="clip-rule:evenodd;fill:#4d4d4d;fill-rule:evenodd;stroke-width:0.00268817;image-rendering:optimizeQuality;shape-rendering:geometricPrecision;text-rendering:geometricPrecision" />
      <path
         class="fil3"
         d="m 24.197112,130.03579 v 20.9732 c 0,5.8085 4.753,10.561 10.561,10.561 v 0 c 5.809,0 10.561,-4.7525 10.561,-10.561 v -20.9732 c 0,-5.8085 -4.752,-10.56091 -10.561,-10.56091 v 0 c -5.808,0 -10.561,4.75241 -10.561,10.56091 z"
         id="path31842"
         style="clip-rule:evenodd;fill:#666666;fill-rule:evenodd;stroke-width:0.00268817;image-rendering:optimizeQuality;shape-rendering:geometricPrecision;text-rendering:geometricPrecision" />
      <path
         class="fil45"
         d="m 21.789112,146.60249 c 2.257,-2.9108 1.839,-7.4242 0.125,-8.6472 l -6.188,-4.4158 c -1.714,-1.2229 -5.34601,0.4661 -6.3580097,4.2 -5.496,20.2882 1.2299997,23.2924 12.4210097,8.863 z"
         id="path31844"
         style="clip-rule:evenodd;fill:#4d4d4d;fill-rule:evenodd;stroke-width:0.00268817;image-rendering:optimizeQuality;shape-rendering:geometricPrecision;text-rendering:geometricPrecision" />
      <path
         class="fil16"
         d="m 27.668112,130.25199 v 20.0303 c 0,3.8997 3.191,7.0903 7.09,7.0903 v 0 c 3.9,0 7.091,-3.1906 7.091,-7.0903 v -20.0303 c 0,-3.8997 -3.191,-7.0903 -7.091,-7.0903 v 0 c -3.899,0 -7.09,3.1906 -7.09,7.0903 z"
         id="path31846"
         style="clip-rule:evenodd;fill:#4d4d4d;fill-rule:evenodd;stroke-width:0.00268817;image-rendering:optimizeQuality;shape-rendering:geometricPrecision;text-rendering:geometricPrecision" />
      <path
         class="fil39"
         d="m 43.361112,146.26459 v 0 c -2.738,0 -4.979,2.2404 -4.979,4.9789 v 5.8576 c 0,2.7385 2.241,4.979 4.979,4.979 v 0 c 2.739,0 4.979,-2.2405 4.979,-4.979 v -5.8576 c 0,-2.7385 -2.24,-4.9789 -4.979,-4.9789 z"
         id="path31848"
         style="clip-rule:evenodd;fill:#924c2a;fill-rule:evenodd;stroke-width:0.00268817;image-rendering:optimizeQuality;shape-rendering:geometricPrecision;text-rendering:geometricPrecision" />
      <path
         class="fil39"
         d="m 40.119112,121.87389 v 0 c -2.739,0 -4.979,2.2405 -4.979,4.9789 v 5.8577 c 0,2.7384 2.24,4.9789 4.979,4.9789 v 0 c 2.738,0 4.979,-2.2405 4.979,-4.9789 v -5.8577 c 0,-2.7384 -2.241,-4.9789 -4.979,-4.9789 z"
         id="path31850"
         style="clip-rule:evenodd;fill:#924c2a;fill-rule:evenodd;stroke-width:0.00268817;image-rendering:optimizeQuality;shape-rendering:geometricPrecision;text-rendering:geometricPrecision" />
      <path
         class="fil18"
         d="m 47.959112,127.83849 v 0 c 0,1.995 1.633,3.6273 3.628,3.6273 h 4.267 c 1.995003,0 3.628003,-1.6323 3.628003,-3.6273 v 0 c 0,-1.9951 -1.633,-3.6274 -3.628003,-3.6274 h -4.267 c -1.995,0 -3.628,1.6323 -3.628,3.6274 z"
         id="path31852"
         style="clip-rule:evenodd;fill:#333333;fill-rule:evenodd;stroke-width:0.00268817;image-rendering:optimizeQuality;shape-rendering:geometricPrecision;text-rendering:geometricPrecision" />
      <path
         class="fil18"
         d="m 52.558112,143.90609 v 3.414 c 0,1.4865 1.216,2.7027 2.702,2.7027 h 6.188003 c 1.487001,0 2.702999,-1.2162 2.702999,-2.7027 v -3.414 c 0,-1.4865 -1.215998,-2.7027 -2.702999,-2.7027 h -6.188003 c -1.486,0 -2.702,1.2162 -2.702,2.7027 z"
         id="path31854"
         style="clip-rule:evenodd;fill:#333333;fill-rule:evenodd;stroke-width:0.00268817;image-rendering:optimizeQuality;shape-rendering:geometricPrecision;text-rendering:geometricPrecision" />
      <path
         class="fil18"
         d="m 52.558112,133.16629 v 3.414 c 0,1.4865 1.216,2.7027 2.702,2.7027 h 6.188003 c 1.487001,0 2.702999,-1.2162 2.702999,-2.7027 v -3.414 c 0,-1.4865 -1.215998,-2.7027 -2.702999,-2.7027 h -6.188003 c -1.486,0 -2.702,1.2162 -2.702,2.7027 z"
         id="path31856"
         style="clip-rule:evenodd;fill:#333333;fill-rule:evenodd;stroke-width:0.00268817;image-rendering:optimizeQuality;shape-rendering:geometricPrecision;text-rendering:geometricPrecision" />
      <path
         class="fil16"
         d="m 28.820112,135.97939 v 9.8802 c 0,5.2631 4.306,9.5693 9.569,9.5693 h 11.961 c 5.263,0 9.569002,-4.3062 9.569002,-9.5693 v -9.8802 c 0,-5.2631 -4.306002,-9.5693 -9.569002,-9.5693 h -11.961 c -5.263,0 -9.569,4.3062 -9.569,9.5693 z"
         id="path31858"
         style="clip-rule:evenodd;fill:#4d4d4d;fill-rule:evenodd;stroke-width:0.00268817;image-rendering:optimizeQuality;shape-rendering:geometricPrecision;text-rendering:geometricPrecision" />
      <path
         class="fil18"
         d="m 28.832112,142.76519 v 3.1206 c 0,5.2632 4.307,9.5694 9.57,9.5694 h 11.96 c 5.263,0 9.570001,-4.3062 9.570001,-9.5694 v -2.7833 c -1.757,1.989 -4.323001,3.2487 -7.169001,3.2487 h -16.477 c -3.004,0 -5.696,-1.4032 -7.454,-3.586 z"
         id="path31860"
         style="clip-rule:evenodd;fill:#333333;fill-rule:evenodd;stroke-width:0.00268817;image-rendering:optimizeQuality;shape-rendering:geometricPrecision;text-rendering:geometricPrecision" />
      <path
         class="fil16"
         d="m 45.491112,135.78949 v 10.6531 c 0,5.675 4.643,10.3181 10.318,10.3181 h 4.966003 c 1.004999,-12.2702 1.079,-19.0261 0,-31.2892 h -4.966003 c -5.675,0 -10.318,4.6431 -10.318,10.318 z"
         id="path31862"
         style="clip-rule:evenodd;fill:#4d4d4d;fill-rule:evenodd;stroke-width:0.00268817;image-rendering:optimizeQuality;shape-rendering:geometricPrecision;text-rendering:geometricPrecision" />
      <path
         class="fil16"
         d="m 48.349112,123.86669 v 0 c -1.995,0 -3.628,1.6322 -3.628,3.6273 v 4.2675 c 0,1.995 1.633,3.6273 3.628,3.6273 v 0 c 1.995,0 3.627,-1.6323 3.627,-3.6273 v -4.2675 c 0,-1.9951 -1.632,-3.6273 -3.627,-3.6273 z"
         id="path31864"
         style="clip-rule:evenodd;fill:#4d4d4d;fill-rule:evenodd;stroke-width:0.00268817;image-rendering:optimizeQuality;shape-rendering:geometricPrecision;text-rendering:geometricPrecision" />
      <path
         class="fil79"
         d="m 46.680112,126.68679 v 0 c -0.762,0 -1.387,0.6241 -1.387,1.3869 v 3.9778 c 0,0.7628 0.625,1.3869 1.387,1.3869 v 0 c 0.763,0 1.387,-0.6241 1.387,-1.3869 v -3.9778 c 0,-0.7628 -0.624,-1.3869 -1.387,-1.3869 z"
         id="path31866"
         style="clip-rule:evenodd;fill:#99ff99;fill-rule:evenodd;stroke-width:0.00268817;image-rendering:optimizeQuality;shape-rendering:geometricPrecision;text-rendering:geometricPrecision" />
      <path
         class="fil55"
         d="m 45.476112,146.33959 v 0.1387 c 0,5.6749 4.644,10.3181 10.318,10.3181 h 4.966002 c 0.463999,-4.3014 0.718999,-8.5001 0.759002,-12.7743 -2.034,1.2914 -5.424004,2.3175 -8.036004,2.3175 z"
         id="path31868"
         style="clip-rule:evenodd;fill:#333333;fill-rule:evenodd;stroke-width:0.00268817;image-rendering:optimizeQuality;shape-rendering:geometricPrecision;text-rendering:geometricPrecision" />
      <path
         class="fil0"
         d="m 34.106112,124.05499 v 0 c -3.255,0 -5.918,2.6632 -5.918,5.9182 v 20.4801 c 0,3.255 2.663,5.9182 5.918,5.9182 v 0 c 3.255,0 5.918,-2.6632 5.918,-5.9182 v -20.4801 c 0,-3.255 -2.663,-5.9182 -5.918,-5.9182 z"
         id="path31870"
         style="clip-rule:evenodd;fill:#af5e31;fill-rule:evenodd;stroke-width:0.00268817;image-rendering:optimizeQuality;shape-rendering:geometricPrecision;text-rendering:geometricPrecision" />
      <path
         class="fil79"
         d="m 35.111112,143.08869 v -11.8779 c 0,-2.66 2.176,-4.8364 4.836,-4.8364 v 0 c 2.66,0 4.837,2.1764 4.837,4.8364 v 11.8779 c 0,2.66 -2.177,4.8364 -4.837,4.8364 v 0 c -2.66,0 -4.836,-2.1764 -4.836,-4.8364 z"
         id="path31872"
         style="clip-rule:evenodd;fill:#99ff99;fill-rule:evenodd;stroke-width:0.00268817;image-rendering:optimizeQuality;shape-rendering:geometricPrecision;text-rendering:geometricPrecision" />
      <path
         class="fil36"
         d="m 40.525112,146.06709 v 0 c -2.739,0 -4.979,2.2405 -4.979,4.9789 v 5.8577 c 0,2.7384 2.24,4.9789 4.979,4.9789 v 0 c 2.738,0 4.979,-2.2405 4.979,-4.9789 v -5.8577 c 0,-2.7384 -2.241,-4.9789 -4.979,-4.9789 z"
         id="path31874"
         style="clip-rule:evenodd;fill:#cc7643;fill-rule:evenodd;stroke-width:0.00268817;image-rendering:optimizeQuality;shape-rendering:geometricPrecision;text-rendering:geometricPrecision" />
      <path
         class="fil18"
         d="m 50.543112,134.61549 c 0.867,-0.6643 1.43,-1.7101 1.43,-2.8809 v -4.2675 c 0,-0.9045 -0.336,-1.7344 -0.888,-2.3714 0.88,2.1608 1.019,7.5183 -0.542,9.5198 z"
         id="path31876"
         style="clip-rule:evenodd;fill:#333333;fill-rule:evenodd;stroke-width:0.00268817;image-rendering:optimizeQuality;shape-rendering:geometricPrecision;text-rendering:geometricPrecision" />
      <path
         class="fil79"
         d="m 41.779112,136.99549 v 0 c 0,0.7993 0.654,1.4533 1.454,1.4533 h 1.709 c 0.8,0 1.454,-0.654 1.454,-1.4533 v 0 c 0,-0.7993 -0.654,-1.4533 -1.454,-1.4533 h -1.709 c -0.8,0 -1.454,0.654 -1.454,1.4533 z"
         id="path31878"
         style="clip-rule:evenodd;fill:#99ff99;fill-rule:evenodd;stroke-width:0.00268817;image-rendering:optimizeQuality;shape-rendering:geometricPrecision;text-rendering:geometricPrecision" />
      <path
         class="fil4"
         d="m 58.890115,123.47319 v 37.2315 c 0,0.7511 0.615,1.3656 1.365999,1.3656 v 0 c 0.751001,0 1.366001,-0.6145 1.366001,-1.3656 v -37.2315 c 0,-0.7511 -0.615,-1.3656 -1.366001,-1.3656 v 0 c -0.750999,0 -1.365999,0.6145 -1.365999,1.3656 z"
         id="path31880"
         style="clip-rule:evenodd;fill:#996633;fill-rule:evenodd;stroke-width:0.00268817;image-rendering:optimizeQuality;shape-rendering:geometricPrecision;text-rendering:geometricPrecision" />
      <path
         class="fil29"
         d="m 60.625115,162.02139 c 0.574001,-0.1802 0.997,-0.7682 0.997,-1.4607 v -36.9275 c 0,-0.7234 -0.462002,-1.3326 -1.074001,-1.4823 0.05,0.1573 0.077,0.3263 0.077,0.502 z"
         id="path31882"
         style="clip-rule:evenodd;fill:#813d09;fill-rule:evenodd;stroke-width:0.00268817;image-rendering:optimizeQuality;shape-rendering:geometricPrecision;text-rendering:geometricPrecision" />
      <path
         class="fil65"
         d="m 58.570115,172.63509 c 0.834999,0.8257 2.022999,0.9303 2.947001,0.3144 1.868998,0.6037 4.175,-1.7434 3.219,-4.9799 l -1.878002,-6.3579 c -0.160999,-0.548 -0.408998,-1.0139 -0.713999,-1.3809 -0.489001,-0.6754 -1.164,-1.0951 -1.908001,-1.0951 v 0 c -0.093,0 -0.183999,0.006 -0.274,0.0192 -1.231,-0.31419 -2.503,0.5944 -2.991,2.2465 l -1.877002,6.3579 c -1,3.38731 1.572003,5.80011 3.476003,4.87581 z"
         id="path31884"
         style="clip-rule:evenodd;fill:#edc919;fill-rule:evenodd;stroke-width:0.00268817;image-rendering:optimizeQuality;shape-rendering:geometricPrecision;text-rendering:geometricPrecision" />
      <path
         class="fil68"
         d="m 62.882114,172.896 c 1.410002,-0.53651 2.555002,-2.47641 1.832002,-4.92641 l -1.877002,-6.3579 c -0.161999,-0.5479 -0.409998,-1.0139 -0.713999,-1.3808 -0.229,-0.3163 -0.498999,-0.5765 -0.798,-0.7638 0.01601,0.0609 0.03,0.1226 0.044,0.1851 l 1.877999,8.4073 c 0.432001,1.9376 0.196001,3.634 -0.365,4.83651 z"
         id="path31886"
         style="clip-rule:evenodd;fill:#e8b10e;fill-rule:evenodd;stroke-width:0.00268817;image-rendering:optimizeQuality;shape-rendering:geometricPrecision;text-rendering:geometricPrecision" />
      <path
         class="fil65"
         d="m 57.527114,157.11949 v 1 c 0,1.3763 1.126001,2.5024 2.503001,2.5024 v 0 c 1.376,0 2.502,-1.1261 2.502,-2.5024 v -1 c 0,-1.3764 -1.126,-2.5024 -2.502,-2.5024 v 0 c -1.377,0 -2.503001,1.126 -2.503001,2.5024 z"
         id="path31888"
         style="clip-rule:evenodd;fill:#edc919;fill-rule:evenodd;stroke-width:0.00268817;image-rendering:optimizeQuality;shape-rendering:geometricPrecision;text-rendering:geometricPrecision" />
      <path
         class="fil68"
         d="m 61.579115,160.05839 c 0.578999,-0.4788 0.953,-1.2185 0.953,-2.0448 v -0.7882 c 0,-0.8263 -0.374001,-1.566 -0.953,-2.0448 0.028,0.1559 0.043,0.3165 0.043,0.4806 v 3.9166 c 0,0.1641 -0.015,0.3247 -0.043,0.4806 z"
         id="path31890"
         style="clip-rule:evenodd;fill:#e8b10e;fill-rule:evenodd;stroke-width:0.00268817;image-rendering:optimizeQuality;shape-rendering:geometricPrecision;text-rendering:geometricPrecision" />
      <path
         class="fil4"
         d="m 61.732113,158.93329 h -3.899998 c -0.422002,0 -0.767,0.3449 -0.767,0.7664 v 0 c 0,0.4216 0.344998,0.7664 0.767,0.7664 h 3.899998 c 0.422003,0 0.767001,-0.3448 0.767001,-0.7664 v 0 c 0,-0.4215 -0.344998,-0.7664 -0.767001,-0.7664 z"
         id="path31892"
         style="clip-rule:evenodd;fill:#996633;fill-rule:evenodd;stroke-width:0.00268817;image-rendering:optimizeQuality;shape-rendering:geometricPrecision;text-rendering:geometricPrecision" />
      <path
         class="fil16"
         d="m 47.993112,150.87019 v 0 c 0,1.9951 1.632,3.6273 3.627,3.6273 h 4.268 c 1.995002,0 3.627002,-1.6322 3.627002,-3.6273 v 0 c 0,-1.9951 -1.632,-3.6273 -3.627002,-3.6273 h -4.268 c -1.995,0 -3.627,1.6322 -3.627,3.6273 z"
         id="path31894"
         style="clip-rule:evenodd;fill:#4d4d4d;fill-rule:evenodd;stroke-width:0.00268817;image-rendering:optimizeQuality;shape-rendering:geometricPrecision;text-rendering:geometricPrecision" />
      <path
         class="fil18"
         d="m 37.002112,129.59209 v 0 c -0.378,0.3774 -0.378,0.9949 0,1.3723 l 5.38,5.3805 c 0.378,0.3774 0.995,0.3774 1.372,0 v 0 c 0.378,-0.3773 0.378,-0.9949 0,-1.3722 l -5.38,-5.3806 c -0.377,-0.3774 -0.995,-0.3774 -1.372,0 z"
         id="path31896"
         style="clip-rule:evenodd;fill:#333333;fill-rule:evenodd;stroke-width:0.00268817;image-rendering:optimizeQuality;shape-rendering:geometricPrecision;text-rendering:geometricPrecision" />
      <path
         class="fil18"
         d="m 37.002112,136.34489 v 0 c -0.378,-0.3773 -0.378,-0.9948 0,-1.3722 l 5.38,-5.3806 c 0.378,-0.3773 0.995,-0.3774 1.372,0 v 0 c 0.378,0.3774 0.378,0.9949 0,1.3723 l -5.38,5.3806 c -0.377,0.3773 -0.995,0.3773 -1.372,0 z"
         id="path31898"
         style="clip-rule:evenodd;fill:#333333;fill-rule:evenodd;stroke-width:0.00268817;image-rendering:optimizeQuality;shape-rendering:geometricPrecision;text-rendering:geometricPrecision" />
      <path
         class="fil18"
         d="m 37.002112,139.18559 v 0 c -0.378,0.3774 -0.378,0.9949 0,1.3723 l 5.38,5.3805 c 0.378,0.3774 0.995,0.3774 1.372,0 v 0 c 0.378,-0.3773 0.378,-0.9949 0,-1.3722 l -5.38,-5.3806 c -0.377,-0.3774 -0.995,-0.3774 -1.372,0 z"
         id="path31900"
         style="clip-rule:evenodd;fill:#333333;fill-rule:evenodd;stroke-width:0.00268817;image-rendering:optimizeQuality;shape-rendering:geometricPrecision;text-rendering:geometricPrecision" />
      <path
         class="fil18"
         d="m 37.002112,145.93839 v 0 c -0.378,-0.3773 -0.378,-0.9948 0,-1.3722 l 5.38,-5.3806 c 0.378,-0.3773 0.995,-0.3774 1.372,0 v 0 c 0.378,0.3774 0.378,0.9949 0,1.3723 l -5.38,5.3806 c -0.377,0.3773 -0.995,0.3773 -1.372,0 z"
         id="path31902"
         style="clip-rule:evenodd;fill:#333333;fill-rule:evenodd;stroke-width:0.00268817;image-rendering:optimizeQuality;shape-rendering:geometricPrecision;text-rendering:geometricPrecision" />
    </g>
    <g
       id="g1556"
       transform="matrix(-1,0,0,1,68.409757,0.3779725)">
      <path
         class="fil7"
         d="m 32.941867,116.09148 c 6.002001,0 10.868002,4.8657 10.868002,10.868 0,6.0022 -4.866001,10.868 -10.868002,10.868 -6.002001,0 -10.868001,-4.8658 -10.868001,-10.868 0,-6.0023 4.866,-10.868 10.868001,-10.868 z"
         id="path31582"
         style="clip-rule:evenodd;fill:#ff0000;fill-rule:evenodd;stroke-width:0.00268817;image-rendering:optimizeQuality;shape-rendering:geometricPrecision;text-rendering:geometricPrecision" />
      <path
         class="fil7"
         d="m 32.959867,116.13078 h 8.694001 c 3.394001,0 6.171001,2.7766 6.171001,6.1703 v 0 c 0,3.3936 -2.777,6.1702 -6.171001,6.1702 h -8.694001 c -3.394,0 -6.170001,-2.7766 -6.170001,-6.1702 v 0 c 0,-3.3937 2.776001,-6.1703 6.170001,-6.1703 z"
         id="path31584"
         style="clip-rule:evenodd;fill:#ff0000;fill-rule:evenodd;stroke-width:0.00268817;image-rendering:optimizeQuality;shape-rendering:geometricPrecision;text-rendering:geometricPrecision" />
      <path
         class="fil7"
         d="m 29.944867,123.42288 h 8.694001 c 3.394,0 6.171001,2.7766 6.171001,6.1703 v 0 c 0,3.3936 -2.777001,6.1702 -6.171001,6.1702 h -8.694001 c -3.394001,0 -6.170001,-2.7766 -6.170001,-6.1702 v 0 c 0,-3.3937 2.776,-6.1703 6.170001,-6.1703 z"
         id="path31586"
         style="clip-rule:evenodd;fill:#ff0000;fill-rule:evenodd;stroke-width:0.00268817;image-rendering:optimizeQuality;shape-rendering:geometricPrecision;text-rendering:geometricPrecision" />
      <path
         class="fil8"
         d="m 30.837867,119.52718 c 4.608,0 8.344001,3.7357 8.344001,8.3438 0,4.6082 -3.736001,8.3439 -8.344001,8.3439 -4.608001,0 -8.343001,-3.7357 -8.343001,-8.3439 0,-4.6081 3.735,-8.3438 8.343001,-8.3438 z"
         id="path31588"
         style="clip-rule:evenodd;fill:#ff6600;fill-rule:evenodd;stroke-width:0.00268817;image-rendering:optimizeQuality;shape-rendering:geometricPrecision;text-rendering:geometricPrecision" />
      <path
         class="fil40 str1"
         d="m 28.287866,126.48178 c 2.421001,0 4.383001,1.962 4.383001,4.3822 0,2.4203 -1.962,4.3823 -4.383001,4.3823 -2.42,0 -4.382,-1.962 -4.382,-4.3823 0,-2.4202 1.962,-4.3822 4.382,-4.3822 z"
         id="path31590"
         style="clip-rule:evenodd;fill:#ffcc00;fill-rule:evenodd;stroke:#ffcc00;stroke-width:0.2;stroke-miterlimit:22.9256;image-rendering:optimizeQuality;shape-rendering:geometricPrecision;text-rendering:geometricPrecision" />
    </g>
  </g>
</svg>
