<?xml version="1.0" encoding="UTF-8" standalone="no"?>
<svg
   xmlns:dc="http://purl.org/dc/elements/1.1/"
   xmlns:cc="http://creativecommons.org/ns#"
   xmlns:rdf="http://www.w3.org/1999/02/22-rdf-syntax-ns#"
   xmlns:svg="http://www.w3.org/2000/svg"
   xmlns="http://www.w3.org/2000/svg"
   xmlns:sodipodi="http://sodipodi.sourceforge.net/DTD/sodipodi-0.dtd"
   xmlns:inkscape="http://www.inkscape.org/namespaces/inkscape"
   width="1024"
   height="1024"
   viewBox="0 0 270.9333 270.9333"
   version="1.1"
   id="svg3565"
   inkscape:version="1.0.1 (3bc2e813f5, 2020-09-07)"
   sodipodi:docname="диолог.svg"
   inkscape:export-filename="C:\Users\Kolobok\Desktop\проекты\Рыцарь\knightframes.png"
   inkscape:export-xdpi="96.00001"
   inkscape:export-ydpi="96.00001">
  <title
     id="title4661">Тайл размером 256x256</title>
  <defs
     id="defs3559" />
  <sodipodi:namedview
     id="base"
     pagecolor="#ffffff"
     bordercolor="#666666"
     borderopacity="1.0"
     inkscape:pageopacity="0.0"
     inkscape:pageshadow="2"
     inkscape:zoom="0.35"
     inkscape:cx="529.0929"
     inkscape:cy="83.742848"
     inkscape:document-units="mm"
     inkscape:current-layer="layer1"
     showgrid="true"
     units="px"
     width="256px"
     inkscape:snap-global="true"
     inkscape:document-rotation="0"
     inkscape:window-width="1920"
     inkscape:window-height="1017"
     inkscape:window-x="-8"
     inkscape:window-y="-8"
     inkscape:window-maximized="1">
    <inkscape:grid
       type="xygrid"
       id="grid5244"
       units="px"
       spacingx="67.73332"
       spacingy="67.73332"
       empspacing="1" />
    <inkscape:grid
       type="xygrid"
       id="grid8949"
       color="#e33fff"
       opacity="0.1254902"
       empcolor="#e33fff"
       empopacity="0.2509804"
       units="px"
       spacingx="33.86666"
       spacingy="33.86666"
       empspacing="8" />
  </sodipodi:namedview>
  <metadata
     id="metadata3562">
    <rdf:RDF>
      <cc:Work
         rdf:about="">
        <dc:format>image/svg+xml</dc:format>
        <dc:type
           rdf:resource="http://purl.org/dc/dcmitype/StillImage" />
        <dc:title>Тайл размером 256x256</dc:title>
      </cc:Work>
    </rdf:RDF>
  </metadata>
  <g
     inkscape:label="Layer 1"
     inkscape:groupmode="layer"
     id="layer1"
     transform="translate(0,-26.0667)">
    <rect
       style="opacity:0.997;fill:#ffffff;stroke:none;stroke-width:0.20829;stroke-linecap:round;stroke-linejoin:round"
       id="rect1153"
       width="270.90387"
       height="67.529732"
       x="0.15152088"
       y="26.0667"
       rx="0"
       ry="9.8072243" />
    <rect
       style="opacity:0.997;fill:none;stroke:none;stroke-width:0.104154;stroke-linecap:round;stroke-linejoin:round"
       id="rect837"
       width="67.633865"
       height="67.633873"
       x="0.047522113"
       y="26.232019"
       rx="0"
       ry="9.8223476" />
    <path
       id="path1157"
       style="opacity:0.997;fill:#b3b3b3;stroke:none;stroke-width:0.104154;stroke-linecap:round;stroke-linejoin:round"
       d="m 9.9217269,26.0667 c -5.4415821,0 -9.82214003,4.38056 -9.82214003,9.822136 v 47.98932 c 0,5.44159 4.38055793,9.82214 9.82214003,9.82214 H 57.91105 c 5.44158,0 9.82214,-4.38055 9.82214,-9.82214 v -47.98932 c 0,-5.441576 -4.38056,-9.822136 -9.82214,-9.822136 z m 0.8046011,1.13379 h 46.380119 c 5.259081,0 9.492962,4.23387 9.492962,9.492946 v 46.3796 c 0,5.25908 -4.233881,9.49296 -9.492962,9.49296 H 10.726328 c -5.259081,0 -9.4929593,-4.23388 -9.4929593,-9.49296 v -46.3796 c 0,-5.259076 4.2338783,-9.492946 9.4929593,-9.492946 z" />
    <rect
       style="opacity:0.997;fill:#b3b3b3;fill-opacity:1;stroke:none;stroke-width:0.208505;stroke-linecap:round;stroke-linejoin:round"
       id="rect1159"
       width="270.78177"
       height="67.699745"
       x="0.21259113"
       y="26.097164"
       rx="0"
       ry="9.8319149" />
    <rect
       style="opacity:0.997;fill:#ffffff;stroke:none;stroke-width:0.203072;stroke-linecap:round;stroke-linejoin:round"
       id="rect1161"
       width="268.49524"
       height="64.764992"
       x="1.2809339"
       y="27.464314"
       rx="0"
       ry="9.4057064" />
    <path
       style="opacity:0.997;fill:#d5f6ff;fill-opacity:1;stroke:none;stroke-width:0.162704;stroke-linecap:round;stroke-linejoin:round"
       d="M 9.1683743,92.436311 C 5.5749594,92.015759 2.2339745,89.052744 1.2970986,85.455522 1.0409992,84.472206 1.0038229,81.22344 1.0038229,59.826642 c 0,-23.158741 0.01921,-24.572105 0.3502026,-25.76587 0.1926114,-0.694677 0.5956309,-1.682978 0.895599,-2.196226 1.2463101,-2.132447 3.7706045,-3.986161 6.0780177,-4.46339 0.6928786,-0.143304 8.7897818,-0.191017 26.4481898,-0.155855 l 25.449602,0.05068 1.257116,0.618957 c 2.403022,1.183158 4.204659,3.282573 4.962633,5.782864 0.371346,1.22495 0.378342,1.794403 0.328201,26.713854 l -0.05124,25.462225 -0.810121,1.634963 c -0.953441,1.924207 -2.59914,3.606612 -4.386479,4.484318 l -1.116951,0.548497 -24.967223,0.02373 C 21.7094,92.578435 9.8865506,92.520358 9.1683743,92.436308 Z"
       id="path1169" />
    <path
       class="fil174"
       d="m 34.687989,53.824628 v 0 c 2.535851,1.468552 5.81251,0.595675 7.280739,-1.940008 l 4.154889,-7.171615 c 1.468229,-2.535683 0.594978,-5.811856 -1.940855,-7.280572 v 0 c -2.535851,-1.468716 -5.812511,-0.595664 -7.280739,1.94003 l -4.153197,7.171615 c -1.468228,2.535683 -0.596671,5.811845 1.939163,7.28055 z"
       id="path41680"
       style="clip-rule:evenodd;fill:#ec635f;fill-rule:evenodd;stroke-width:0.00450553;image-rendering:optimizeQuality;shape-rendering:geometricPrecision;text-rendering:geometricPrecision"
       sodipodi:nodetypes="ssccssccs" />
    <path
       class="fil173"
       d="m 37.334475,41.76736 -1.533595,8.474063 c -1.325748,7.326476 21.698044,2.35031 17.189461,-3.446273 L 47.499646,39.737674 C 43.72351,34.882675 38.611619,34.708534 37.334475,41.76736 Z"
       id="path41682"
       style="clip-rule:evenodd;fill:#ef7d77;fill-rule:evenodd;stroke-width:0.00450553;image-rendering:optimizeQuality;shape-rendering:geometricPrecision;text-rendering:geometricPrecision"
       sodipodi:nodetypes="ccccc" />
    <path
       id="path41692"
       style="clip-rule:evenodd;fill:#f5b2b6;fill-rule:evenodd;stroke-width:0.00450554;image-rendering:optimizeQuality;shape-rendering:geometricPrecision;text-rendering:geometricPrecision"
       d="m 6.7479927,44.201188 c -2.2120437,0 -4.3231457,0.454112 -6.24509797,1.273308 l 0.2004521,20.038323 0.2004522,20.038323 C 1.8234901,87.439431 4.4695334,92.328107 6.6811747,92.370291 L 31.203228,92.838013 C 40.022644,93.00623 47.243074,85.620542 47.243074,76.799199 V 60.240003 c 0,-8.821334 -7.218826,-16.038815 -16.039846,-16.038815 z"
       sodipodi:nodetypes="scccssssss" />
    <path
       id="path41694"
       style="clip-rule:evenodd;fill:#ef7d77;fill-rule:evenodd;stroke-width:0.00450554;image-rendering:optimizeQuality;shape-rendering:geometricPrecision;text-rendering:geometricPrecision"
       d="m 2.277982,58.768258 c -0.6226708,0 -1.2185098,0.11417 -1.77508727,0.312642 v 5.015199 5.015198 C 1.0594722,69.309766 1.6553112,69.423939 2.277982,69.423939 h 7.751776 c 2.931409,0 5.328357,-2.39762 5.328357,-5.327841 0,-2.930395 -2.396948,-5.32784 -5.328357,-5.32784 z"
       sodipodi:nodetypes="scccsssss" />
    <path
       id="path41696"
       style="clip-rule:evenodd;fill:#ef7d77;fill-rule:evenodd;stroke-width:0.00450554;image-rendering:optimizeQuality;shape-rendering:geometricPrecision;text-rendering:geometricPrecision"
       d="m 0.50289473,70.762873 v 3.443201 3.443202 H 4.8217476 c 1.893948,0 3.4426837,-1.549273 3.4426837,-3.4432 0,-1.893752 -1.5487357,-3.443203 -3.4426837,-3.443203 z"
       sodipodi:nodetypes="cccsssc" />
    <path
       class="fil179"
       d="m 41.010032,91.065265 v -2.054158 c 0,-1.088925 -0.891653,-1.979742 -1.98108,-1.979742 H 28.602267 c -1.087733,0 -1.979388,0.890817 -1.979388,1.979742 v 2.054158 c 0,1.088914 0.891655,1.979731 1.979388,1.979731 h 10.426685 c 1.089427,0 1.98108,-0.890817 1.98108,-1.979731 z"
       id="path41706"
       style="clip-rule:evenodd;fill:#e84341;fill-rule:evenodd;stroke-width:0.00450553;image-rendering:optimizeQuality;shape-rendering:geometricPrecision;text-rendering:geometricPrecision"
       sodipodi:nodetypes="sssssssss" />
    <path
       class="fil180"
       d="M 24.923391,58.485538 H 42.91063 c 2.426924,0 4.413016,1.98544 4.413016,4.412012 v 7.388321 c 0,2.426572 -1.986092,4.412012 -4.413016,4.412012 H 24.923391 c -2.426923,0 -4.411373,-1.98544 -4.411373,-4.412012 V 62.89755 c 0,-2.426572 1.98445,-4.412012 4.411373,-4.412012 z"
       id="path41708"
       style="clip-rule:evenodd;fill:#f08778;fill-rule:evenodd;stroke-width:0.00450553;image-rendering:optimizeQuality;shape-rendering:geometricPrecision;text-rendering:geometricPrecision"
       sodipodi:nodetypes="sssssssss" />
    <path
       class="fil181"
       d="m 30.58003,62.773189 v 0 c 1.610658,0 2.929703,1.318367 2.929703,2.929879 v 3.446778 c 0,1.611522 -1.319045,2.92989 -2.929703,2.92989 v 0 c -1.612352,0 -2.929771,-1.318368 -2.929771,-2.92989 v -3.446778 c 0,-1.611512 1.317419,-2.929879 2.929771,-2.929879 z"
       id="path41710"
       style="clip-rule:evenodd;fill:#6d3528;fill-rule:evenodd;stroke-width:0.00450553;image-rendering:optimizeQuality;shape-rendering:geometricPrecision;text-rendering:geometricPrecision"
       sodipodi:nodetypes="sssssssss" />
    <path
       class="fil181"
       d="m 42.315635,62.773189 v 0 c 1.612352,0 2.931412,1.318367 2.931412,2.929879 v 3.446778 c 0,1.611522 -1.31906,2.92989 -2.931412,2.92989 v 0 c -1.610659,0 -2.929703,-1.318368 -2.929703,-2.92989 v -3.446778 c 0,-1.611512 1.319044,-2.929879 2.929703,-2.929879 z"
       id="path41712"
       style="clip-rule:evenodd;fill:#6d3528;fill-rule:evenodd;stroke-width:0.00450553;image-rendering:optimizeQuality;shape-rendering:geometricPrecision;text-rendering:geometricPrecision"
       sodipodi:nodetypes="sssssssss" />
    <path
       class="fil173"
       d="m 51.319328,84.87162 v -5.177128 c 0,-2.744178 -2.245862,-4.989407 -4.989558,-4.989407 H 29.364883 c -2.743696,0 -4.989607,2.245229 -4.989607,4.989407 v 5.177128 c 0,2.744177 2.245911,4.989406 4.989607,4.989406 H 46.32977 c 2.743696,0 4.989558,-2.245229 4.989558,-4.989406 z"
       id="path41714"
       style="clip-rule:evenodd;fill:#ef7d77;fill-rule:evenodd;stroke-width:0.00450553;image-rendering:optimizeQuality;shape-rendering:geometricPrecision;text-rendering:geometricPrecision"
       sodipodi:nodetypes="sssssssss" />
    <path
       class="fil176"
       d="m 46.299618,79.311187 v 0 c -0.859809,0 -1.563747,0.7036 -1.563747,1.563412 v 2.431765 c 0,0.859811 0.703938,1.563411 1.563747,1.563411 v 0 c 0.859759,0 1.563746,-0.7036 1.563746,-1.563411 v -2.431765 c 0,-0.859812 -0.703987,-1.563412 -1.563746,-1.563412 z"
       id="path41716"
       style="clip-rule:evenodd;fill:#bb3422;fill-rule:evenodd;stroke-width:0.00450553;image-rendering:optimizeQuality;shape-rendering:geometricPrecision;text-rendering:geometricPrecision"
       sodipodi:nodetypes="sssssssss" />
    <path
       class="fil176"
       d="m 35.20421,79.311187 v 0 c -0.859809,0 -1.563746,0.7036 -1.563746,1.563412 v 2.431765 c 0,0.859811 0.703937,1.563411 1.563746,1.563411 v 0 c 0.859809,0 1.562071,-0.7036 1.562071,-1.563411 v -2.431765 c 0,-0.859812 -0.702262,-1.563412 -1.562071,-1.563412 z"
       id="path41718"
       style="clip-rule:evenodd;fill:#bb3422;fill-rule:evenodd;stroke-width:0.00450553;image-rendering:optimizeQuality;shape-rendering:geometricPrecision;text-rendering:geometricPrecision"
       sodipodi:nodetypes="sssssssss" />
    <path
       class="fil174"
       d="M 34.451684,74.703241 H 28.72968 c -2.743696,0 -4.987915,2.245229 -4.987915,4.989406 v 5.177128 c 0,2.744178 2.244219,4.989407 4.987915,4.989407 h 5.722004 c -2.743695,0 -4.987915,-2.245229 -4.987915,-4.989407 v -5.177128 c 0,-2.744177 2.24422,-4.989406 4.987915,-4.989406 z"
       id="path41720"
       style="clip-rule:evenodd;fill:#ec635f;fill-rule:evenodd;stroke-width:0.00450553;image-rendering:optimizeQuality;shape-rendering:geometricPrecision;text-rendering:geometricPrecision"
       sodipodi:nodetypes="csssscssc" />
    <path
       class="fil174"
       d="m 19.729328,54.185151 v 0 c 2.64811,1.256522 5.840964,0.118663 7.098028,-2.52848 l 3.553207,-7.487036 c 1.257015,-2.647308 0.118999,-5.84117 -2.527452,-7.097725 v 0 c -2.648179,-1.256522 -5.841043,-0.118663 -7.098033,2.528645 l -3.5549,7.487069 c -1.25537,2.647132 -0.11733,5.840994 2.52915,7.097527 z"
       id="path41722"
       style="clip-rule:evenodd;fill:#ec635f;fill-rule:evenodd;stroke-width:0.00450553;image-rendering:optimizeQuality;shape-rendering:geometricPrecision;text-rendering:geometricPrecision"
       sodipodi:nodetypes="ssccssccs" />
    <path
       class="fil173"
       d="m 20.661178,41.211902 -1.53359,8.474085 c -1.32573,7.326476 21.698047,2.35031 17.189513,-3.446273 L 30.82805,39.182216 c -3.77778,-4.854813 -8.889712,-5.029129 -10.166872,2.029686 z"
       id="path41724"
       style="clip-rule:evenodd;fill:#ef7d77;fill-rule:evenodd;stroke-width:0.00450553;image-rendering:optimizeQuality;shape-rendering:geometricPrecision;text-rendering:geometricPrecision"
       sodipodi:nodetypes="ccccc" />
    <path
       id="path1165"
       style="opacity:0.997;fill:#b3b3b3;stroke:none;stroke-width:0.104154;stroke-linecap:round;stroke-linejoin:round"
       d="m 9.9217269,26.138672 c -5.4415821,0 -9.82214003,4.38056 -9.82214003,9.822136 v 47.98932 c 0,5.44159 4.38055793,9.82214 9.82214003,9.82214 H 57.91105 c 5.44158,0 9.82214,-4.38055 9.82214,-9.82214 v -47.98932 c 0,-5.441576 -4.38056,-9.822136 -9.82214,-9.822136 z m 0.8046011,1.13379 h 46.380119 c 5.259081,0 9.492962,4.23387 9.492962,9.492946 v 46.3796 c 0,5.25908 -4.233881,9.49296 -9.492962,9.49296 H 10.726328 c -5.259081,0 -9.4929593,-4.23388 -9.4929593,-9.49296 v -46.3796 c 0,-5.259076 4.2338783,-9.492946 9.4929593,-9.492946 z" />
    <rect
       style="opacity:0.997;fill:#ffffff;stroke:none;stroke-width:0.20829;stroke-linecap:round;stroke-linejoin:round"
       id="rect1207"
       width="270.90387"
       height="67.529732"
       x="0.20345202"
       y="127.50137"
       rx="0"
       ry="9.8072243" />
    <rect
       style="opacity:0.997;fill:none;stroke:none;stroke-width:0.104154;stroke-linecap:round;stroke-linejoin:round"
       id="rect1209"
       width="67.633865"
       height="67.633873"
       x="0.099453256"
       y="127.66668"
       rx="0"
       ry="9.8223476" />
    <path
       id="path1211"
       style="opacity:0.997;fill:#b3b3b3;stroke:none;stroke-width:0.104154;stroke-linecap:round;stroke-linejoin:round"
       d="m 9.973658,127.50136 c -5.4415821,0 -9.82213998,4.38056 -9.82213998,9.82214 v 47.98932 c 0,5.44159 4.38055788,9.82214 9.82213998,9.82214 h 47.989323 c 5.44158,0 9.82214,-4.38055 9.82214,-9.82214 V 137.3235 c 0,-5.44158 -4.38056,-9.82214 -9.82214,-9.82214 z m 0.804601,1.13379 h 46.380119 c 5.259081,0 9.492962,4.23387 9.492962,9.49295 v 46.3796 c 0,5.25908 -4.233881,9.49296 -9.492962,9.49296 H 10.778259 c -5.2590809,0 -9.4929592,-4.23388 -9.4929592,-9.49296 v -46.3796 c 0,-5.25908 4.2338783,-9.49295 9.4929592,-9.49295 z" />
    <rect
       style="opacity:0.997;fill:#b3b3b3;fill-opacity:1;stroke:none;stroke-width:0.208505;stroke-linecap:round;stroke-linejoin:round"
       id="rect1213"
       width="270.78177"
       height="67.699745"
       x="0.26452228"
       y="127.53183"
       rx="0"
       ry="9.8319149" />
    <rect
       style="opacity:0.997;fill:#ffffff;stroke:none;stroke-width:0.203072;stroke-linecap:round;stroke-linejoin:round"
       id="rect1215"
       width="268.49524"
       height="64.764992"
       x="1.332865"
       y="128.89899"
       rx="0"
       ry="9.4057064" />
    <path
       style="opacity:0.997;fill:#d5f6ff;fill-opacity:1;stroke:none;stroke-width:0.162704;stroke-linecap:round;stroke-linejoin:round"
       d="M 9.2203054,193.87097 C 5.6268905,193.45042 2.2859056,190.4874 1.3490297,186.89018 1.0929303,185.90687 1.055754,182.6581 1.055754,161.2613 c 0,-23.15874 0.01921,-24.5721 0.3502026,-25.76587 0.1926114,-0.69467 0.5956309,-1.68298 0.895599,-2.19622 1.2463101,-2.13245 3.7706045,-3.98616 6.0780177,-4.46339 0.6928786,-0.1433 8.7897817,-0.19102 26.4481897,-0.15585 l 25.449602,0.0507 1.257116,0.61895 c 2.403022,1.18316 4.204659,3.28258 4.962633,5.78286 0.371346,1.22495 0.378342,1.79441 0.328201,26.71386 l -0.05124,25.46222 -0.810121,1.63496 c -0.953441,1.92421 -2.59914,3.60662 -4.386479,4.48432 l -1.116951,0.5485 -24.967223,0.0237 c -13.73197,0.013 -25.5548193,-0.045 -26.2729956,-0.12908 z"
       id="path1217" />
    <path
       id="rect2808"
       style="clip-rule:evenodd;fill:#999999;fill-rule:evenodd;stroke-width:0.00431058;image-rendering:optimizeQuality;shape-rendering:geometricPrecision;text-rendering:geometricPrecision"
       d="m 51.74415,180.52944 c -3.221498,0 -5.814582,2.59378 -5.814582,5.81528 v 6.84538 c 0,0.66379 0.115174,1.29817 0.318208,1.89144 h 10.997733 c 0.203024,-0.59327 0.318208,-1.22765 0.318208,-1.89144 v -6.84538 c 0,-3.2215 -2.593799,-5.81528 -5.815295,-5.81528 z" />
    <path
       id="path2810"
       style="clip-rule:evenodd;fill:#ff9999;fill-rule:evenodd;stroke-width:0.00431057;image-rendering:optimizeQuality;shape-rendering:geometricPrecision;text-rendering:geometricPrecision"
       d="m 21.543642,128.22777 c -0.321531,0.32882 -0.627557,0.67833 -0.911572,1.05368 -5.983071,7.9099 -6.387963,25.26843 -4.728394,34.60512 3.073436,-10.34968 5.784548,-15.37153 11.733134,-15.51378 4.832149,1.56043 10.147323,0.19806 13.186275,-3.8194 3.712458,-4.90633 2.690756,-12.00944 -2.183845,-16.32562 z" />
    <path
       class="fil33"
       d="m 15.894973,163.97705 c 3.073436,-10.34968 5.784785,-15.37149 11.733371,-15.51374 4.642484,1.50008 9.728957,0.29743 12.815325,-3.35793 -3.672606,-0.15949 -10.565207,1.6725 -12.160118,-4.87526 -2.926877,-12.02648 -14.186086,13.66451 -12.392889,23.74262 z"
       id="path2812"
       inkscape:connector-curvature="0"
       style="clip-rule:evenodd;fill:#ff6666;fill-rule:evenodd;stroke-width:0.00431057;image-rendering:optimizeQuality;shape-rendering:geometricPrecision;text-rendering:geometricPrecision" />
    <path
       id="path2815"
       style="clip-rule:evenodd;fill:#ff9999;fill-rule:evenodd;stroke-width:0.00431057;image-rendering:optimizeQuality;shape-rendering:geometricPrecision;text-rendering:geometricPrecision"
       d="m 2.9256842,131.90473 c 1.8427747,9.5167 10.5621058,21.30646 16.7581238,27.04209 -3.793303,-10.10829 -4.659727,-15.74667 0,-19.44945 4.797663,-1.6725 8.211902,-5.96562 8.211902,-11.00037 0,-0.0903 -0.0051,-0.17944 -0.0072,-0.26923 H 13.649269 c -5.0509473,0.92711 -8.1795047,-1.31488 -10.7235848,3.67696 z"
       sodipodi:nodetypes="cccsccc" />
    <path
       class="fil33"
       d="m 19.727069,159.02421 c -3.793301,-10.10829 -4.659726,-15.74651 0,-19.44929 4.608,-1.60354 7.94007,-5.63392 8.194394,-10.41003 -3.02602,2.08632 -7.418491,7.7073 -12.638591,3.44846 -9.5910185,-7.82369 -3.069126,19.4536 4.444197,26.41517 z"
       id="path2817"
       inkscape:connector-curvature="0"
       style="clip-rule:evenodd;fill:#ff6666;fill-rule:evenodd;stroke-width:0.00431057;image-rendering:optimizeQuality;shape-rendering:geometricPrecision;text-rendering:geometricPrecision" />
    <path
       id="rect2824"
       style="clip-rule:evenodd;fill:#cccccc;fill-rule:evenodd;stroke-width:0.00431058;image-rendering:optimizeQuality;shape-rendering:geometricPrecision;text-rendering:geometricPrecision"
       d="m 24.522822,149.83843 c -8.501509,0 -15.3458578,6.08296 -15.3458578,13.63877 v 22.59131 c 0,3.46222 1.4405978,6.61288 3.8156418,9.01303 h 38.90246 c 2.374978,-2.40014 3.814931,-5.55086 3.814931,-9.01303 V 163.4772 c 0,-7.55581 -6.844352,-13.63877 -15.345856,-13.63877 z" />
    <path
       id="path2826"
       style="clip-rule:evenodd;fill:#7d7c7d;fill-rule:evenodd;stroke-width:0.00431058;image-rendering:optimizeQuality;shape-rendering:geometricPrecision;text-rendering:geometricPrecision"
       d="m 24.480109,149.85977 c -12.937349,0 -15.3458547,8.91036 -15.3458547,15.34587 v 19.17787 c 0,4.1511 1.6726057,7.92834 4.3744607,10.69803 h 11.851983 c -1.039921,-2.06499 -1.630903,-4.38985 -1.630903,-6.84894 v -26.41975 c 0,-4.81492 2.250408,-9.13395 5.750513,-11.95308 z" />
    <rect
       class="fil27"
       x="17.501045"
       y="165.12363"
       width="40.286709"
       height="20.216637"
       rx="11.229069"
       ry="10.108318"
       id="rect2828"
       style="clip-rule:evenodd;fill:#999999;fill-rule:evenodd;stroke-width:0.00431057;image-rendering:optimizeQuality;shape-rendering:geometricPrecision;text-rendering:geometricPrecision" />
    <rect
       class="fil6"
       x="28.794809"
       y="186.47824"
       width="20.613205"
       height="6.6426077"
       rx="0"
       ry="3.3213038"
       id="rect2830"
       style="clip-rule:evenodd;fill:#b3b3b3;fill-rule:evenodd;stroke-width:0.00431057;image-rendering:optimizeQuality;shape-rendering:geometricPrecision;text-rendering:geometricPrecision" />
    <path
       id="rect2834"
       style="clip-rule:evenodd;fill:#b3b3b3;fill-rule:evenodd;stroke-width:0.00431058;image-rendering:optimizeQuality;shape-rendering:geometricPrecision;text-rendering:geometricPrecision"
       d="m 14.811443,180.58567 c -3.221495,0 -5.8152932,2.59378 -5.8152932,5.81529 v 6.84466 c 0,0.64268 0.1074495,1.25884 0.298276,1.83592 H 20.332021 c 0.190831,-0.57708 0.298275,-1.19324 0.298275,-1.83592 v -6.84466 c 0,-3.22151 -2.593084,-5.81529 -5.81458,-5.81529 z" />
    <g
       id="_426398144"
       style="clip-rule:evenodd;fill-rule:evenodd;image-rendering:optimizeQuality;shape-rendering:geometricPrecision;text-rendering:geometricPrecision"
       transform="matrix(0.00431057,0,0,0.00431057,2009.7103,192.15956)">
      <rect
         class="fil21"
         x="-461327"
         y="-7503"
         width="8017"
         height="3598"
         rx="2234"
         ry="1799"
         id="rect2836"
         style="fill:#ffffcc" />
      <rect
         class="fil30"
         x="-455944"
         y="-6551"
         width="1301"
         height="2066"
         rx="650"
         ry="650"
         id="rect2838"
         style="fill:#666666" />
      <rect
         class="fil30"
         x="-459490"
         y="-6551"
         width="1301"
         height="2066"
         rx="650"
         ry="650"
         id="rect2840"
         style="fill:#666666" />
    </g>
    <rect
       class="fil30"
       x="46.295807"
       y="177.25789"
       width="4.5347342"
       height="7.2072935"
       rx="2.2673666"
       ry="2.2673666"
       id="rect2843"
       style="clip-rule:evenodd;fill:#666666;fill-rule:evenodd;stroke-width:0.00431057;image-rendering:optimizeQuality;shape-rendering:geometricPrecision;text-rendering:geometricPrecision" />
    <rect
       class="fil30"
       x="38.584137"
       y="177.25789"
       width="4.5347342"
       height="7.2072935"
       rx="2.2673666"
       ry="2.2673666"
       id="rect2845"
       style="clip-rule:evenodd;fill:#666666;fill-rule:evenodd;stroke-width:0.00431057;image-rendering:optimizeQuality;shape-rendering:geometricPrecision;text-rendering:geometricPrecision" />
    <rect
       class="fil30"
       x="31.148388"
       y="177.25789"
       width="4.5347342"
       height="7.2072935"
       rx="2.2673666"
       ry="2.2673666"
       id="rect2847"
       style="clip-rule:evenodd;fill:#666666;fill-rule:evenodd;stroke-width:0.00431057;image-rendering:optimizeQuality;shape-rendering:geometricPrecision;text-rendering:geometricPrecision" />
    <g
       id="_426396896"
       style="clip-rule:evenodd;fill-rule:evenodd;image-rendering:optimizeQuality;shape-rendering:geometricPrecision;text-rendering:geometricPrecision"
       transform="matrix(0.00431057,0,0,0.00431057,2009.7103,192.15956)">
      <circle
         class="fil6"
         cx="-462254"
         cy="-4475"
         r="1718"
         id="circle2849"
         style="fill:#b3b3b3" />
      <circle
         class="fil27"
         cx="-462530"
         cy="-4487"
         r="1072"
         id="circle2851"
         style="fill:#999999" />
    </g>
    <path
       id="path1249"
       style="opacity:0.997;fill:#b3b3b3;stroke:none;stroke-width:0.104154;stroke-linecap:round;stroke-linejoin:round"
       d="m 9.973658,127.57334 c -5.4415821,0 -9.82213998,4.38056 -9.82213998,9.82213 v 47.98932 c 0,5.44159 4.38055788,9.82214 9.82213998,9.82214 h 47.989323 c 5.44158,0 9.82214,-4.38055 9.82214,-9.82214 v -47.98932 c 0,-5.44157 -4.38056,-9.82213 -9.82214,-9.82213 z m 0.804601,1.13379 h 46.380119 c 5.259081,0 9.492962,4.23387 9.492962,9.49294 v 46.3796 c 0,5.25908 -4.233881,9.49296 -9.492962,9.49296 H 10.778259 c -5.2590809,0 -9.4929592,-4.23388 -9.4929592,-9.49296 v -46.3796 c 0,-5.25907 4.2338783,-9.49294 9.4929592,-9.49294 z" />
    <g
       id="g1349"
       transform="translate(-0.06104373,67.730222)">
      <rect
         style="opacity:0.997;fill:#ffffff;stroke:none;stroke-width:0.20829;stroke-linecap:round;stroke-linejoin:round"
         id="rect1270"
         width="270.90387"
         height="67.529732"
         x="0.090446629"
         y="161.53644"
         rx="0"
         ry="9.8072243" />
      <rect
         style="opacity:0.997;fill:none;stroke:none;stroke-width:0.104154;stroke-linecap:round;stroke-linejoin:round"
         id="rect1272"
         width="67.633865"
         height="67.633873"
         x="-0.013552135"
         y="161.70175"
         rx="0"
         ry="9.8223476" />
      <path
         id="path1274"
         style="opacity:0.997;fill:#b3b3b3;stroke:none;stroke-width:0.104154;stroke-linecap:round;stroke-linejoin:round"
         d="m 9.8606527,161.53643 c -5.4415821,0 -9.82214008,4.38056 -9.82214008,9.82214 v 47.98932 c 0,5.44159 4.38055798,9.82214 9.82214008,9.82214 H 57.849976 c 5.44158,0 9.82214,-4.38055 9.82214,-9.82214 v -47.98932 c 0,-5.44158 -4.38056,-9.82214 -9.82214,-9.82214 z m 0.8046013,1.13379 h 46.380119 c 5.259081,0 9.492962,4.23387 9.492962,9.49295 v 46.3796 c 0,5.25908 -4.233881,9.49296 -9.492962,9.49296 H 10.665254 c -5.2590812,0 -9.4929595,-4.23388 -9.4929595,-9.49296 v -46.3796 c 0,-5.25908 4.2338783,-9.49295 9.4929595,-9.49295 z" />
      <rect
         style="opacity:0.997;fill:#b3b3b3;fill-opacity:1;stroke:none;stroke-width:0.208505;stroke-linecap:round;stroke-linejoin:round"
         id="rect1276"
         width="270.78177"
         height="67.699745"
         x="0.15151688"
         y="161.56691"
         rx="0"
         ry="9.8319149" />
      <rect
         style="opacity:0.997;fill:#ffffff;stroke:none;stroke-width:0.203072;stroke-linecap:round;stroke-linejoin:round"
         id="rect1278"
         width="268.49524"
         height="64.764992"
         x="1.2198596"
         y="162.93405"
         rx="0"
         ry="9.4057064" />
      <path
         style="opacity:0.997;fill:#d5f6ff;fill-opacity:1;stroke:none;stroke-width:0.162704;stroke-linecap:round;stroke-linejoin:round"
         d="m 9.1073001,227.90604 c -3.5934149,-0.42055 -6.9343998,-3.38357 -7.8712757,-6.98079 -0.25609945,-0.98331 -0.29327575,-4.23208 -0.29327575,-25.62888 0,-23.15874 0.01921,-24.5721 0.35020265,-25.76587 0.1926114,-0.69467 0.5956309,-1.68298 0.895599,-2.19623 1.2463101,-2.13244 3.7706045,-3.98615 6.0780177,-4.46338 0.6928786,-0.14331 8.789782,-0.19102 26.44819,-0.15586 l 25.449602,0.0507 1.257116,0.61896 c 2.403022,1.18316 4.204659,3.28257 4.962633,5.78286 0.371346,1.22495 0.378342,1.79441 0.328201,26.71386 l -0.05124,25.46222 -0.810121,1.63496 c -0.953441,1.92421 -2.59914,3.60662 -4.386479,4.48432 l -1.116951,0.5485 -24.967223,0.0237 c -13.73197,0.013 -25.5548196,-0.045 -26.2729959,-0.12908 z"
         id="path1280" />
      <path
         id="path36272"
         style="clip-rule:evenodd;fill:#cc3300;fill-rule:evenodd;stroke-width:0.00404553;image-rendering:optimizeQuality;shape-rendering:geometricPrecision;text-rendering:geometricPrecision"
         d="m 53.361201,215.83733 c -3.003866,0 -5.460164,2.45609 -5.460164,5.45846 v 6.2339 c 0,0.19657 0.01203,0.39025 0.03255,0.5816 h 10.853595 c 0.02052,-0.19135 0.03255,-0.38503 0.03255,-0.5816 v -6.2339 c 0,-3.00237 -2.456089,-5.45846 -5.458443,-5.45846 z" />
      <path
         class="fil14"
         d="m 25.629563,208.94132 v 0 c 0,-4.12128 -3.371073,-7.4931 -7.493102,-7.4931 H 9.3220052 c -4.122029,0 -7.4931026,3.37182 -7.4931026,7.4931 v 0 c 0,4.12128 3.3710736,7.4931 7.4931026,7.4931 h 8.8144558 c 4.122029,0 7.493102,-3.37182 7.493102,-7.4931 z"
         id="path36294"
         style="clip-rule:evenodd;fill:#b3b3b3;fill-rule:evenodd;stroke-width:0.00404553;image-rendering:optimizeQuality;shape-rendering:geometricPrecision;text-rendering:geometricPrecision" />
      <path
         class="fil14"
         d="m 62.336596,204.166 v 0 c 0,-4.0763 -3.334949,-7.41139 -7.411827,-7.41139 h -8.978496 c -4.075378,0 -7.411838,3.33509 -7.411838,7.41139 v 0 c 0,4.07628 3.33646,7.41152 7.411838,7.41152 h 8.978496 c 4.076878,0 7.411827,-3.33524 7.411827,-7.41152 z"
         id="path36296"
         style="clip-rule:evenodd;fill:#b3b3b3;fill-rule:evenodd;stroke-width:0.00404553;image-rendering:optimizeQuality;shape-rendering:geometricPrecision;text-rendering:geometricPrecision" />
      <path
         id="path36302"
         style="clip-rule:evenodd;fill:#ff6666;fill-rule:evenodd;stroke-width:0.00404554;image-rendering:optimizeQuality;shape-rendering:geometricPrecision;text-rendering:geometricPrecision"
         d="m 26.239119,187.34716 c -7.920511,0 -14.400923,6.48025 -14.400923,14.40091 v 17.49034 c 0,3.3652 1.173123,6.468 3.126044,8.92673 h 37.420097 c 1.95291,-2.45873 3.126033,-5.56153 3.126033,-8.92673 v -17.49034 c 0,-7.92066 -6.480401,-14.40091 -14.400912,-14.40091 z" />
      <path
         id="path36304"
         style="clip-rule:evenodd;fill:#cc3300;fill-rule:evenodd;stroke-width:0.00404554;image-rendering:optimizeQuality;shape-rendering:geometricPrecision;text-rendering:geometricPrecision"
         d="m 26.199916,187.36572 c -7.920511,0 -14.400924,6.41019 -14.400924,14.24462 v 17.80397 c 0,3.33589 1.17821,6.41073 3.138932,8.84523 h 11.5911 c -0.663258,-1.6326 -1.02912,-3.41189 -1.02912,-5.27196 v -24.527 c 0,-4.47164 2.111511,-8.47822 5.396796,-11.09486 z" />
      <path
         id="path36306"
         style="clip-rule:evenodd;fill:#ff6666;fill-rule:evenodd;stroke-width:0.00404553;image-rendering:optimizeQuality;shape-rendering:geometricPrecision;text-rendering:geometricPrecision"
         d="m 18.699222,215.8875 c -3.002354,0 -5.459579,2.45666 -5.459579,5.45903 v 6.23334 c 0,0.31098 0.03211,0.61402 0.08264,0.91116 h 10.752679 c 0.05053,-0.29713 0.08264,-0.60019 0.08264,-0.91116 v -6.23334 c 0,-3.00237 -2.456088,-5.45903 -5.458453,-5.45903 z" />
      <path
         class="fil22"
         d="m 59.054323,195.01293 v 0 c 0,-4.89858 -4.007663,-8.90639 -8.906246,-8.90639 H 19.326863 c -4.898583,0 -8.907747,4.00781 -8.907747,8.90639 v 0 c 0,4.89845 4.009164,8.9064 8.907747,8.9064 h 30.821214 c 4.898583,0 8.906246,-4.00795 8.906246,-8.9064 z"
         id="path36308"
         style="clip-rule:evenodd;fill:#e6e6e6;fill-rule:evenodd;stroke-width:0.00404553;image-rendering:optimizeQuality;shape-rendering:geometricPrecision;text-rendering:geometricPrecision" />
      <path
         class="fil40"
         d="m 50.238379,164.20633 -8.502925,4.6614 -5.766939,-5.81073 -5.911416,5.81073 -8.138729,-4.08667 4.161166,21.45505 c 9.640662,1.39975 10.233612,1.51669 19.851698,0 z"
         id="path36310"
         style="clip-rule:evenodd;fill:#ffcc00;fill-rule:evenodd;stroke-width:0.00404553;image-rendering:optimizeQuality;shape-rendering:geometricPrecision;text-rendering:geometricPrecision" />
      <path
         class="fil51"
         d="m 60.006956,212.93167 v 0 c 0,-4.07627 -3.33496,-7.41154 -7.410338,-7.41154 H 29.864469 c -4.075378,0 -7.411838,3.33527 -7.411838,7.41154 v 0 c 0,4.07629 3.33646,7.41139 7.411838,7.41139 h 22.732149 c 4.075378,0 7.410338,-3.3351 7.410338,-7.41139 z"
         id="path36312"
         style="clip-rule:evenodd;fill:#e6e6e6;fill-rule:evenodd;stroke-width:0.00404553;image-rendering:optimizeQuality;shape-rendering:geometricPrecision;text-rendering:geometricPrecision" />
      <path
         class="fil58"
         d="M 48.727409,196.71171 H 30.693688 c -3.9595,0 -7.198134,3.23969 -7.198134,7.19935 v 0 c 0,3.95964 3.238634,7.19932 7.198134,7.19932 h 18.033721 c 3.961011,0 7.199645,-3.23968 7.199645,-7.19932 v 0 c 0,-3.95966 -3.238634,-7.19935 -7.199645,-7.19935 z"
         id="path36314"
         style="clip-rule:evenodd;fill:#ffffcc;fill-rule:evenodd;stroke-width:0.00404553;image-rendering:optimizeQuality;shape-rendering:geometricPrecision;text-rendering:geometricPrecision" />
      <path
         class="fil3"
         d="m 47.899691,200.51967 v 0 c -1.446245,0 -2.630634,1.18378 -2.630634,2.63079 v 3.00401 c 0,1.44685 1.184389,2.63064 2.630634,2.63064 v 0 c 1.446256,0 2.630644,-1.18379 2.630644,-2.63064 v -3.00401 c 0,-1.44701 -1.184388,-2.63079 -2.630644,-2.63079 z"
         id="path36316"
         style="clip-rule:evenodd;fill:#666666;fill-rule:evenodd;stroke-width:0.00404553;image-rendering:optimizeQuality;shape-rendering:geometricPrecision;text-rendering:geometricPrecision" />
      <path
         class="fil3"
         d="m 33.556088,200.51967 v 0 c -1.446245,0 -2.630633,1.18378 -2.630633,2.63079 v 3.00401 c 0,1.44685 1.184388,2.63064 2.630633,2.63064 v 0 c 1.447757,0 2.630645,-1.18379 2.630645,-2.63064 v -3.00401 c 0,-1.44701 -1.182888,-2.63079 -2.630645,-2.63079 z"
         id="path36318"
         style="clip-rule:evenodd;fill:#666666;fill-rule:evenodd;stroke-width:0.00404553;image-rendering:optimizeQuality;shape-rendering:geometricPrecision;text-rendering:geometricPrecision" />
      <path
         class="fil20"
         d="M 48.080282,221.45957 H 34.900005 c -1.694563,0 -3.082118,1.38757 -3.082118,3.08348 v 0 c 0,1.69592 1.387555,3.08349 3.082118,3.08349 h 13.180277 c 1.696075,0 3.08363,-1.38757 3.08363,-3.08349 v 0 c 0,-1.69591 -1.387555,-3.08348 -3.08363,-3.08348 z"
         id="path36320"
         style="clip-rule:evenodd;fill:#ff0000;fill-rule:evenodd;stroke-width:0.00404553;image-rendering:optimizeQuality;shape-rendering:geometricPrecision;text-rendering:geometricPrecision" />
      <path
         class="fil13"
         d="m 25.927544,204.67286 v 0 c 0,-4.12113 -3.372574,-7.4931 -7.493113,-7.4931 H 9.6184858 c -4.1205284,0 -7.4931026,3.37197 -7.4931026,7.4931 v 0 c 0,4.12128 3.3725742,7.4931 7.4931026,7.4931 h 8.8159452 c 4.120539,0 7.493113,-3.37182 7.493113,-7.4931 z"
         id="path36324"
         style="clip-rule:evenodd;fill:#cccccc;fill-rule:evenodd;stroke-width:0.00404553;image-rendering:optimizeQuality;shape-rendering:geometricPrecision;text-rendering:geometricPrecision" />
      <path
         id="path1282"
         style="opacity:0.997;fill:#b3b3b3;stroke:none;stroke-width:0.104154;stroke-linecap:round;stroke-linejoin:round"
         d="m 9.8606527,161.6084 c -5.4415821,0 -9.82214008,4.38056 -9.82214008,9.82214 v 47.98932 c 0,5.44159 4.38055798,9.82214 9.82214008,9.82214 H 57.849976 c 5.44158,0 9.82214,-4.38055 9.82214,-9.82214 v -47.98932 c 0,-5.44158 -4.38056,-9.82214 -9.82214,-9.82214 z m 0.8046013,1.13379 h 46.380119 c 5.259081,0 9.492962,4.23387 9.492962,9.49295 v 46.3796 c 0,5.25908 -4.233881,9.49296 -9.492962,9.49296 H 10.665254 c -5.2590812,0 -9.4929595,-4.23388 -9.4929595,-9.49296 v -46.3796 c 0,-5.25908 4.2338783,-9.49295 9.4929595,-9.49295 z" />
    </g>
  </g>
</svg>
