<?xml version="1.0" encoding="UTF-8" standalone="no"?>
<svg
   xmlns:dc="http://purl.org/dc/elements/1.1/"
   xmlns:cc="http://creativecommons.org/ns#"
   xmlns:rdf="http://www.w3.org/1999/02/22-rdf-syntax-ns#"
   xmlns:svg="http://www.w3.org/2000/svg"
   xmlns="http://www.w3.org/2000/svg"
   xmlns:sodipodi="http://sodipodi.sourceforge.net/DTD/sodipodi-0.dtd"
   xmlns:inkscape="http://www.inkscape.org/namespaces/inkscape"
   width="1024"
   height="1024"
   viewBox="0 0 270.9333 270.9333"
   version="1.1"
   id="svg3565"
   inkscape:version="1.0.2 (e86c870879, 2021-01-15, custom)"
   sodipodi:docname="диолог.svg"
   inkscape:export-filename="C:\Users\Kolobok\Desktop\GitKnight\GameKnight\Graphics\Render_png\UI\dialog.png"
   inkscape:export-xdpi="96.00001"
   inkscape:export-ydpi="96.00001">
  <title
     id="title4661">Тайл размером 256x256</title>
  <defs
     id="defs3559" />
  <sodipodi:namedview
     id="base"
     pagecolor="#ffffff"
     bordercolor="#666666"
     borderopacity="1.0"
     inkscape:pageopacity="0.0"
     inkscape:pageshadow="2"
     inkscape:zoom="0.4949747"
     inkscape:cx="274.4358"
     inkscape:cy="531.7769"
     inkscape:document-units="mm"
     inkscape:current-layer="layer1"
     showgrid="true"
     units="px"
     width="256px"
     inkscape:snap-global="false"
     inkscape:document-rotation="0"
     inkscape:window-width="1920"
     inkscape:window-height="1017"
     inkscape:window-x="-8"
     inkscape:window-y="-8"
     inkscape:window-maximized="1">
    <inkscape:grid
       type="xygrid"
       id="grid5244"
       units="px"
       spacingx="67.73332"
       spacingy="67.73332"
       empspacing="1" />
    <inkscape:grid
       type="xygrid"
       id="grid8949"
       color="#e33fff"
       opacity="0.1254902"
       empcolor="#e33fff"
       empopacity="0.2509804"
       units="px"
       spacingx="33.86666"
       spacingy="33.86666"
       empspacing="8" />
  </sodipodi:namedview>
  <metadata
     id="metadata3562">
    <rdf:RDF>
      <cc:Work
         rdf:about="">
        <dc:format>image/svg+xml</dc:format>
        <dc:type
           rdf:resource="http://purl.org/dc/dcmitype/StillImage" />
        <dc:title>Тайл размером 256x256</dc:title>
      </cc:Work>
    </rdf:RDF>
  </metadata>
  <g
     inkscape:label="Layer 1"
     inkscape:groupmode="layer"
     id="layer1"
     transform="translate(0,-26.0667)">
    <g
       id="g995">
      <rect
         style="opacity:0.997;fill:#ffffff;stroke:none;stroke-width:0.20829;stroke-linecap:round;stroke-linejoin:round"
         id="rect1153"
         width="270.90387"
         height="67.529732"
         x="0.15152088"
         y="26.0667"
         rx="0"
         ry="9.8072243" />
      <rect
         style="opacity:0.997;fill:#b3b3b3;fill-opacity:1;stroke:none;stroke-width:0.208505;stroke-linecap:round;stroke-linejoin:round"
         id="rect1159"
         width="270.78177"
         height="67.699745"
         x="0.21259113"
         y="26.097164"
         rx="0"
         ry="9.8319149" />
      <rect
         style="opacity:0.997;fill:#ffffff;stroke:none;stroke-width:0.203072;stroke-linecap:round;stroke-linejoin:round"
         id="rect1161"
         width="268.49524"
         height="64.764992"
         x="1.2809339"
         y="27.464314"
         rx="0"
         ry="9.4057064" />
    </g>
    <g
       id="g990"
       transform="translate(135.0941,67.99602)">
      <rect
         style="opacity:0.997;fill:none;stroke:none;stroke-width:0.104154;stroke-linecap:round;stroke-linejoin:round"
         id="rect837"
         width="67.63387"
         height="67.63387"
         x="0.04752211"
         y="26.23202"
         rx="0"
         ry="9.822348" />
      <path
         id="path1157"
         style="opacity:0.997;fill:#b3b3b3;stroke:none;stroke-width:0.104154;stroke-linecap:round;stroke-linejoin:round"
         d="m 9.921727,26.0667 c -5.441582,0 -9.8221401,4.38056 -9.8221401,9.82214 v 47.98932 c 0,5.44159 4.3805581,9.82214 9.8221401,9.82214 H 57.91105 c 5.44158,0 9.82214,-4.38055 9.82214,-9.82214 V 35.88884 c 0,-5.44158 -4.38056,-9.82214 -9.82214,-9.82214 z m 0.804603,1.13379 h 46.38012 c 5.25908,0 9.49296,4.23387 9.49296,9.49295 v 46.3796 c 0,5.25908 -4.23388,9.49296 -9.49296,9.49296 H 10.72633 c -5.259083,0 -9.492961,-4.23388 -9.492961,-9.49296 v -46.3796 c 0,-5.25908 4.233878,-9.49295 9.492961,-9.49295 z" />
      <path
         style="opacity:0.997;fill:#d5f6ff;fill-opacity:1;stroke:none;stroke-width:0.162704;stroke-linecap:round;stroke-linejoin:round"
         d="M 9.168374,92.43631 C 5.574959,92.01576 2.233975,89.05274 1.297099,85.45552 1.040999,84.47221 1.003823,81.22344 1.003823,59.82664 c 0,-23.15874 0.01921,-24.5721 0.350203,-25.76587 0.192611,-0.69467 0.59563,-1.68298 0.895599,-2.19622 1.24631,-2.13245 3.770604,-3.98616 6.078017,-4.46339 0.692879,-0.14331 8.789778,-0.19102 26.448188,-0.15586 l 25.4496,0.0507 1.25712,0.61896 c 2.40302,1.18316 4.20466,3.28257 4.96263,5.78286 0.37135,1.22495 0.37835,1.79441 0.3282,26.71386 l -0.0512,25.46222 -0.81012,1.63496 c -0.95344,1.92421 -2.59914,3.60662 -4.38648,4.48432 l -1.11695,0.5485 -24.96722,0.0237 C 21.7094,92.57844 9.886551,92.52036 9.168374,92.43631 Z"
         id="path1169" />
      <path
         class="fil174"
         d="m 34.68799,53.82463 v 0 c 2.53585,1.46855 5.81251,0.59567 7.28074,-1.94001 L 46.12362,44.713 c 1.46823,-2.53568 0.59497,-5.81185 -1.94086,-7.28057 v 0 c -2.53585,-1.46871 -5.81251,-0.59566 -7.28074,1.94003 l -4.15319,7.17162 c -1.46823,2.53568 -0.59667,5.81184 1.93916,7.28055 z"
         id="path41680"
         style="clip-rule:evenodd;fill:#ec635f;fill-rule:evenodd;stroke-width:0.0045055;image-rendering:optimizeQuality;shape-rendering:geometricPrecision;text-rendering:geometricPrecision"
         sodipodi:nodetypes="ssccssccs" />
      <path
         class="fil173"
         d="m 37.33447,41.76736 -1.53359,8.47406 c -1.32575,7.32648 21.69804,2.35031 17.18946,-3.44627 l -5.49069,-7.05748 c -3.77614,-4.85499 -8.88803,-5.02914 -10.16518,2.02969 z"
         id="path41682"
         style="clip-rule:evenodd;fill:#ef7d77;fill-rule:evenodd;stroke-width:0.0045055;image-rendering:optimizeQuality;shape-rendering:geometricPrecision;text-rendering:geometricPrecision"
         sodipodi:nodetypes="ccccc" />
      <path
         id="path41692"
         style="clip-rule:evenodd;fill:#f5b2b6;fill-rule:evenodd;stroke-width:0.0045055;image-rendering:optimizeQuality;shape-rendering:geometricPrecision;text-rendering:geometricPrecision"
         d="m 6.747993,44.20119 c -2.212044,0 -4.323146,0.45411 -6.2450983,1.27331 L 0.7033468,65.51282 0.903799,85.55114 c 0.919691,1.88829 3.565734,6.77697 5.777376,6.81915 L 31.20323,92.83801 C 40.02264,93.00623 47.24307,85.62054 47.24307,76.7992 V 60.24 c 0,-8.82133 -7.21882,-16.03881 -16.03984,-16.03881 z"
         sodipodi:nodetypes="scccssssss" />
      <path
         id="path41694"
         style="clip-rule:evenodd;fill:#ef7d77;fill-rule:evenodd;stroke-width:0.0045055;image-rendering:optimizeQuality;shape-rendering:geometricPrecision;text-rendering:geometricPrecision"
         d="m 2.277982,58.76826 c -0.622671,0 -1.21851,0.11417 -1.7750873,0.31264 v 5.0152 5.0152 c 0.5565773,0.19847 1.1524163,0.31264 1.7750873,0.31264 h 7.751778 c 2.93141,0 5.32836,-2.39762 5.32836,-5.32784 0,-2.9304 -2.39695,-5.32784 -5.32836,-5.32784 z"
         sodipodi:nodetypes="scccsssss" />
      <path
         id="path41696"
         style="clip-rule:evenodd;fill:#ef7d77;fill-rule:evenodd;stroke-width:0.0045055;image-rendering:optimizeQuality;shape-rendering:geometricPrecision;text-rendering:geometricPrecision"
         d="m 0.5028947,70.76287 v 3.4432 3.44321 H 4.821748 c 1.893948,0 3.442683,-1.54928 3.442683,-3.4432 0,-1.89376 -1.548735,-3.44321 -3.442683,-3.44321 z"
         sodipodi:nodetypes="cccsssc" />
      <path
         class="fil179"
         d="m 41.01003,91.06526 v -2.05415 c 0,-1.08893 -0.89165,-1.97975 -1.98108,-1.97975 H 28.60227 c -1.08774,0 -1.97939,0.89082 -1.97939,1.97975 v 2.05415 c 0,1.08892 0.89165,1.97974 1.97939,1.97974 h 10.42668 c 1.08943,0 1.98108,-0.89082 1.98108,-1.97974 z"
         id="path41706"
         style="clip-rule:evenodd;fill:#e84341;fill-rule:evenodd;stroke-width:0.0045055;image-rendering:optimizeQuality;shape-rendering:geometricPrecision;text-rendering:geometricPrecision"
         sodipodi:nodetypes="sssssssss" />
      <path
         class="fil180"
         d="m 24.92339,58.48554 h 17.98724 c 2.42692,0 4.41302,1.98544 4.41302,4.41201 v 7.38832 c 0,2.42657 -1.9861,4.41201 -4.41302,4.41201 H 24.92339 c -2.42692,0 -4.41137,-1.98544 -4.41137,-4.41201 v -7.38832 c 0,-2.42657 1.98445,-4.41201 4.41137,-4.41201 z"
         id="path41708"
         style="clip-rule:evenodd;fill:#f08778;fill-rule:evenodd;stroke-width:0.0045055;image-rendering:optimizeQuality;shape-rendering:geometricPrecision;text-rendering:geometricPrecision"
         sodipodi:nodetypes="sssssssss" />
      <path
         class="fil181"
         d="m 30.58003,62.77319 v 0 c 1.61066,0 2.9297,1.31837 2.9297,2.92988 v 3.44678 c 0,1.61152 -1.31904,2.92989 -2.9297,2.92989 v 0 c -1.61235,0 -2.92977,-1.31837 -2.92977,-2.92989 v -3.44678 c 0,-1.61151 1.31742,-2.92988 2.92977,-2.92988 z"
         id="path41710"
         style="clip-rule:evenodd;fill:#6d3528;fill-rule:evenodd;stroke-width:0.0045055;image-rendering:optimizeQuality;shape-rendering:geometricPrecision;text-rendering:geometricPrecision"
         sodipodi:nodetypes="sssssssss" />
      <path
         class="fil181"
         d="m 42.31564,62.77319 v 0 c 1.61235,0 2.93141,1.31837 2.93141,2.92988 v 3.44678 c 0,1.61152 -1.31906,2.92989 -2.93141,2.92989 v 0 c -1.61066,0 -2.92971,-1.31837 -2.92971,-2.92989 v -3.44678 c 0,-1.61151 1.31905,-2.92988 2.92971,-2.92988 z"
         id="path41712"
         style="clip-rule:evenodd;fill:#6d3528;fill-rule:evenodd;stroke-width:0.0045055;image-rendering:optimizeQuality;shape-rendering:geometricPrecision;text-rendering:geometricPrecision"
         sodipodi:nodetypes="sssssssss" />
      <path
         class="fil173"
         d="m 51.31933,84.87162 v -5.17713 c 0,-2.74418 -2.24586,-4.98941 -4.98956,-4.98941 H 29.36488 c -2.74369,0 -4.9896,2.24523 -4.9896,4.98941 v 5.17713 c 0,2.74418 2.24591,4.98941 4.9896,4.98941 h 16.96489 c 2.7437,0 4.98956,-2.24523 4.98956,-4.98941 z"
         id="path41714"
         style="clip-rule:evenodd;fill:#ef7d77;fill-rule:evenodd;stroke-width:0.0045055;image-rendering:optimizeQuality;shape-rendering:geometricPrecision;text-rendering:geometricPrecision"
         sodipodi:nodetypes="sssssssss" />
      <path
         class="fil176"
         d="m 46.29962,79.31119 v 0 c -0.85981,0 -1.56375,0.7036 -1.56375,1.56341 v 2.43176 c 0,0.85981 0.70394,1.56342 1.56375,1.56342 v 0 c 0.85976,0 1.56374,-0.7036 1.56374,-1.56342 V 80.8746 c 0,-0.85981 -0.70398,-1.56341 -1.56374,-1.56341 z"
         id="path41716"
         style="clip-rule:evenodd;fill:#bb3422;fill-rule:evenodd;stroke-width:0.0045055;image-rendering:optimizeQuality;shape-rendering:geometricPrecision;text-rendering:geometricPrecision"
         sodipodi:nodetypes="sssssssss" />
      <path
         class="fil176"
         d="m 35.20421,79.31119 v 0 c -0.85981,0 -1.56375,0.7036 -1.56375,1.56341 v 2.43176 c 0,0.85981 0.70394,1.56342 1.56375,1.56342 v 0 c 0.85981,0 1.56207,-0.7036 1.56207,-1.56342 V 80.8746 c 0,-0.85981 -0.70226,-1.56341 -1.56207,-1.56341 z"
         id="path41718"
         style="clip-rule:evenodd;fill:#bb3422;fill-rule:evenodd;stroke-width:0.0045055;image-rendering:optimizeQuality;shape-rendering:geometricPrecision;text-rendering:geometricPrecision"
         sodipodi:nodetypes="sssssssss" />
      <path
         class="fil174"
         d="m 34.45168,74.70324 h -5.722 c -2.7437,0 -4.98792,2.24523 -4.98792,4.98941 v 5.17713 c 0,2.74417 2.24422,4.9894 4.98792,4.9894 h 5.722 c -2.74369,0 -4.98791,-2.24523 -4.98791,-4.9894 v -5.17713 c 0,-2.74418 2.24422,-4.98941 4.98791,-4.98941 z"
         id="path41720"
         style="clip-rule:evenodd;fill:#ec635f;fill-rule:evenodd;stroke-width:0.0045055;image-rendering:optimizeQuality;shape-rendering:geometricPrecision;text-rendering:geometricPrecision"
         sodipodi:nodetypes="csssscssc" />
      <path
         class="fil174"
         d="m 19.72933,54.18515 v 0 c 2.64811,1.25652 5.84096,0.11866 7.09803,-2.52848 l 3.5532,-7.48703 c 1.25702,-2.64731 0.119,-5.84117 -2.52745,-7.09773 v 0 c -2.64818,-1.25652 -5.84104,-0.11866 -7.09803,2.52865 l -3.5549,7.48706 c -1.25537,2.64714 -0.11733,5.841 2.52915,7.09753 z"
         id="path41722"
         style="clip-rule:evenodd;fill:#ec635f;fill-rule:evenodd;stroke-width:0.0045055;image-rendering:optimizeQuality;shape-rendering:geometricPrecision;text-rendering:geometricPrecision"
         sodipodi:nodetypes="ssccssccs" />
      <path
         class="fil173"
         d="m 20.66118,41.2119 -1.53359,8.47409 C 17.80186,57.01246 40.82563,52.0363 36.3171,46.23971 L 30.82805,39.18222 C 27.05027,34.3274 21.93834,34.15309 20.66118,41.2119 Z"
         id="path41724"
         style="clip-rule:evenodd;fill:#ef7d77;fill-rule:evenodd;stroke-width:0.0045055;image-rendering:optimizeQuality;shape-rendering:geometricPrecision;text-rendering:geometricPrecision"
         sodipodi:nodetypes="ccccc" />
      <path
         id="path1165"
         style="opacity:0.997;fill:#b3b3b3;stroke:none;stroke-width:0.104154;stroke-linecap:round;stroke-linejoin:round"
         d="m 9.921727,26.13867 c -5.441582,0 -9.8221401,4.38056 -9.8221401,9.82214 v 47.98932 c 0,5.44159 4.3805581,9.82214 9.8221401,9.82214 H 57.91105 c 5.44158,0 9.82214,-4.38055 9.82214,-9.82214 V 35.96081 c 0,-5.44158 -4.38056,-9.82214 -9.82214,-9.82214 z m 0.804603,1.13379 h 46.38012 c 5.25908,0 9.49296,4.23387 9.49296,9.49295 v 46.3796 c 0,5.25908 -4.23388,9.49296 -9.49296,9.49296 H 10.72633 c -5.259083,0 -9.492961,-4.23388 -9.492961,-9.49296 v -46.3796 c 0,-5.25908 4.233878,-9.49295 9.492961,-9.49295 z" />
    </g>
    <g
       id="g969"
       transform="translate(-0.3761201,-33.52927)">
      <rect
         style="opacity:0.997;fill:none;stroke:none;stroke-width:0.104154;stroke-linecap:round;stroke-linejoin:round"
         id="rect1209"
         width="67.63387"
         height="67.63387"
         x="0.09945326"
         y="127.6667"
         rx="0"
         ry="9.822348" />
      <path
         id="path1211"
         style="opacity:0.997;fill:#b3b3b3;stroke:none;stroke-width:0.104154;stroke-linecap:round;stroke-linejoin:round"
         d="m 9.973658,127.5014 c -5.441582,0 -9.82214,4.3805 -9.82214,9.8221 v 47.9893 c 0,5.4416 4.380558,9.8222 9.82214,9.8222 H 57.96298 c 5.44158,0 9.82214,-4.3806 9.82214,-9.8222 v -47.9893 c 0,-5.4416 -4.38056,-9.8221 -9.82214,-9.8221 z m 0.804602,1.1337 h 46.38012 c 5.25908,0 9.49296,4.2339 9.49296,9.493 v 46.3796 c 0,5.2591 -4.23388,9.493 -9.49296,9.493 H 10.77826 c -5.259082,0 -9.49296,-4.2339 -9.49296,-9.493 v -46.3796 c 0,-5.2591 4.233878,-9.493 9.49296,-9.493 z" />
      <path
         style="opacity:0.997;fill:#d5f6ff;fill-opacity:1;stroke:none;stroke-width:0.162704;stroke-linecap:round;stroke-linejoin:round"
         d="m 9.220305,193.871 c -3.593415,-0.4206 -6.934399,-3.3836 -7.871275,-6.9808 -0.2561,-0.9833 -0.293276,-4.2321 -0.293276,-25.6289 0,-23.1587 0.01921,-24.5721 0.350203,-25.7659 0.192611,-0.6946 0.595631,-1.6829 0.895599,-2.1962 1.24631,-2.1324 3.770604,-3.9862 6.078017,-4.4634 0.692879,-0.1433 8.789787,-0.191 26.448187,-0.1558 l 25.44961,0.051 1.25711,0.6189 c 2.40302,1.1832 4.20466,3.2826 4.96263,5.7829 0.37135,1.2249 0.37835,1.7944 0.32821,26.7138 l -0.0513,25.4623 -0.81012,1.6349 c -0.95344,1.9242 -2.59914,3.6066 -4.38647,4.4843 L 60.46052,193.9763 35.4933,194 C 21.76133,194.013 9.938482,193.955 9.220305,193.871 Z"
         id="path1217" />
      <path
         id="rect2808"
         style="clip-rule:evenodd;fill:#999999;fill-rule:evenodd;stroke-width:0.0043106;image-rendering:optimizeQuality;shape-rendering:geometricPrecision;text-rendering:geometricPrecision"
         d="m 51.74415,180.5294 c -3.2215,0 -5.81458,2.5938 -5.81458,5.8153 v 6.8454 c 0,0.6638 0.11517,1.2982 0.31821,1.8914 h 10.99773 c 0.20302,-0.5932 0.31821,-1.2276 0.31821,-1.8914 v -6.8454 c 0,-3.2215 -2.5938,-5.8153 -5.8153,-5.8153 z" />
      <path
         id="path2810"
         style="clip-rule:evenodd;fill:#ff9999;fill-rule:evenodd;stroke-width:0.0043106;image-rendering:optimizeQuality;shape-rendering:geometricPrecision;text-rendering:geometricPrecision"
         d="m 21.54364,128.2278 c -0.32153,0.3288 -0.62755,0.6783 -0.91157,1.0536 -5.98307,7.9099 -6.38796,25.2685 -4.72839,34.6052 3.07343,-10.3497 5.78454,-15.3716 11.73313,-15.5138 4.83215,1.5604 10.14732,0.198 13.18628,-3.8194 3.71245,-4.9063 2.69075,-12.0095 -2.18385,-16.3256 z" />
      <path
         class="fil33"
         d="m 15.89497,163.977 c 3.07344,-10.3496 5.78479,-15.3714 11.73337,-15.5137 4.64249,1.5001 9.72896,0.2974 12.81533,-3.3579 -3.67261,-0.1595 -10.56521,1.6725 -12.16012,-4.8753 -2.92688,-12.0265 -14.18609,13.6645 -12.39289,23.7426 z"
         id="path2812"
         inkscape:connector-curvature="0"
         style="clip-rule:evenodd;fill:#ff6666;fill-rule:evenodd;stroke-width:0.0043106;image-rendering:optimizeQuality;shape-rendering:geometricPrecision;text-rendering:geometricPrecision" />
      <path
         id="path2815"
         style="clip-rule:evenodd;fill:#ff9999;fill-rule:evenodd;stroke-width:0.0043106;image-rendering:optimizeQuality;shape-rendering:geometricPrecision;text-rendering:geometricPrecision"
         d="m 2.925684,131.9047 c 1.842775,9.5167 10.562106,21.3065 16.758126,27.0421 -3.79331,-10.1083 -4.65973,-15.7467 0,-19.4494 4.79766,-1.6725 8.2119,-5.9657 8.2119,-11.0004 0,-0.09 -0.005,-0.1794 -0.007,-0.2692 H 13.64927 c -5.050948,0.9271 -8.179506,-1.3149 -10.723586,3.6769 z"
         sodipodi:nodetypes="cccsccc" />
      <path
         class="fil33"
         d="m 19.72707,159.0242 c -3.7933,-10.1083 -4.65973,-15.7465 0,-19.4493 4.608,-1.6035 7.94007,-5.6339 8.19439,-10.41 -3.02602,2.0863 -7.41849,7.7073 -12.63859,3.4485 -9.591016,-7.8237 -3.06912,19.4536 4.4442,26.4151 z"
         id="path2817"
         inkscape:connector-curvature="0"
         style="clip-rule:evenodd;fill:#ff6666;fill-rule:evenodd;stroke-width:0.0043106;image-rendering:optimizeQuality;shape-rendering:geometricPrecision;text-rendering:geometricPrecision" />
      <path
         id="rect2824"
         style="clip-rule:evenodd;fill:#cccccc;fill-rule:evenodd;stroke-width:0.0043106;image-rendering:optimizeQuality;shape-rendering:geometricPrecision;text-rendering:geometricPrecision"
         d="m 24.52282,149.8384 c -8.50151,0 -15.345856,6.083 -15.345856,13.6388 v 22.5913 c 0,3.4622 1.440596,6.6129 3.815646,9.013 h 38.90246 c 2.37497,-2.4001 3.81493,-5.5508 3.81493,-9.013 v -22.5913 c 0,-7.5558 -6.84435,-13.6388 -15.34586,-13.6388 z" />
      <path
         id="path2826"
         style="clip-rule:evenodd;fill:#7d7c7d;fill-rule:evenodd;stroke-width:0.0043106;image-rendering:optimizeQuality;shape-rendering:geometricPrecision;text-rendering:geometricPrecision"
         d="m 24.48011,149.8598 c -12.93735,0 -15.345856,8.9103 -15.345856,15.3458 v 19.1779 c 0,4.1511 1.672606,7.9283 4.374456,10.698 H 25.3607 c -1.03992,-2.065 -1.6309,-4.3898 -1.6309,-6.8489 v -26.4198 c 0,-4.8149 2.2504,-9.1339 5.75051,-11.953 z" />
      <rect
         class="fil27"
         x="17.50105"
         y="165.1236"
         width="40.28671"
         height="20.21664"
         rx="11.22907"
         ry="10.10832"
         id="rect2828"
         style="clip-rule:evenodd;fill:#999999;fill-rule:evenodd;stroke-width:0.0043106;image-rendering:optimizeQuality;shape-rendering:geometricPrecision;text-rendering:geometricPrecision" />
      <rect
         class="fil6"
         x="28.79481"
         y="186.4782"
         width="20.6132"
         height="6.642608"
         rx="0"
         ry="3.321304"
         id="rect2830"
         style="clip-rule:evenodd;fill:#b3b3b3;fill-rule:evenodd;stroke-width:0.0043106;image-rendering:optimizeQuality;shape-rendering:geometricPrecision;text-rendering:geometricPrecision" />
      <path
         id="rect2834"
         style="clip-rule:evenodd;fill:#b3b3b3;fill-rule:evenodd;stroke-width:0.0043106;image-rendering:optimizeQuality;shape-rendering:geometricPrecision;text-rendering:geometricPrecision"
         d="m 14.81144,180.5857 c -3.22149,0 -5.81529,2.5937 -5.81529,5.8153 v 6.8446 c 0,0.6427 0.107449,1.2589 0.298276,1.8359 H 20.33202 c 0.19083,-0.577 0.29828,-1.1932 0.29828,-1.8359 v -6.8446 c 0,-3.2216 -2.59309,-5.8153 -5.81458,-5.8153 z" />
      <g
         id="_426398144"
         style="clip-rule:evenodd;fill-rule:evenodd;image-rendering:optimizeQuality;shape-rendering:geometricPrecision;text-rendering:geometricPrecision"
         transform="matrix(0.0043106,0,0,0.0043106,2009.71,192.1596)">
        <rect
           class="fil21"
           x="-461327"
           y="-7503"
           width="8017"
           height="3598"
           rx="2234"
           ry="1799"
           id="rect2836"
           style="fill:#ffffcc" />
        <rect
           class="fil30"
           x="-455944"
           y="-6551"
           width="1301"
           height="2066"
           rx="650"
           ry="650"
           id="rect2838"
           style="fill:#666666" />
        <rect
           class="fil30"
           x="-459490"
           y="-6551"
           width="1301"
           height="2066"
           rx="650"
           ry="650"
           id="rect2840"
           style="fill:#666666" />
      </g>
      <rect
         class="fil30"
         x="46.29581"
         y="177.2579"
         width="4.534734"
         height="7.207294"
         rx="2.267367"
         ry="2.267367"
         id="rect2843"
         style="clip-rule:evenodd;fill:#666666;fill-rule:evenodd;stroke-width:0.0043106;image-rendering:optimizeQuality;shape-rendering:geometricPrecision;text-rendering:geometricPrecision" />
      <rect
         class="fil30"
         x="38.58414"
         y="177.2579"
         width="4.534734"
         height="7.207294"
         rx="2.267367"
         ry="2.267367"
         id="rect2845"
         style="clip-rule:evenodd;fill:#666666;fill-rule:evenodd;stroke-width:0.0043106;image-rendering:optimizeQuality;shape-rendering:geometricPrecision;text-rendering:geometricPrecision" />
      <rect
         class="fil30"
         x="31.14839"
         y="177.2579"
         width="4.534734"
         height="7.207294"
         rx="2.267367"
         ry="2.267367"
         id="rect2847"
         style="clip-rule:evenodd;fill:#666666;fill-rule:evenodd;stroke-width:0.0043106;image-rendering:optimizeQuality;shape-rendering:geometricPrecision;text-rendering:geometricPrecision" />
      <g
         id="_426396896"
         style="clip-rule:evenodd;fill-rule:evenodd;image-rendering:optimizeQuality;shape-rendering:geometricPrecision;text-rendering:geometricPrecision"
         transform="matrix(0.0043106,0,0,0.0043106,2009.71,192.1596)">
        <circle
           class="fil6"
           cx="-462254"
           cy="-4475"
           r="1718"
           id="circle2849"
           style="fill:#b3b3b3" />
        <circle
           class="fil27"
           cx="-462530"
           cy="-4487"
           r="1072"
           id="circle2851"
           style="fill:#999999" />
      </g>
      <path
         id="path1249"
         style="opacity:0.997;fill:#b3b3b3;stroke:none;stroke-width:0.104154;stroke-linecap:round;stroke-linejoin:round"
         d="m 9.973658,127.5733 c -5.441582,0 -9.82214,4.3806 -9.82214,9.8222 v 47.9893 c 0,5.4416 4.380558,9.8221 9.82214,9.8221 H 57.96298 c 5.44158,0 9.82214,-4.3805 9.82214,-9.8221 v -47.9893 c 0,-5.4416 -4.38056,-9.8222 -9.82214,-9.8222 z m 0.804602,1.1338 h 46.38012 c 5.25908,0 9.49296,4.2339 9.49296,9.493 v 46.3796 c 0,5.2591 -4.23388,9.4929 -9.49296,9.4929 H 10.77826 c -5.259082,0 -9.49296,-4.2338 -9.49296,-9.4929 v -46.3796 c 0,-5.2591 4.233878,-9.493 9.49296,-9.493 z" />
    </g>
    <g
       id="g943"
       transform="translate(67.79086,-135.2643)">
      <rect
         style="opacity:0.997;fill:none;stroke:none;stroke-width:0.104154;stroke-linecap:round;stroke-linejoin:round"
         id="rect1272"
         width="67.63387"
         height="67.63387"
         x="-0.07459583"
         y="229.432"
         rx="0"
         ry="9.822348" />
      <path
         id="path1274"
         style="opacity:0.997;fill:#b3b3b3;stroke:none;stroke-width:0.104154;stroke-linecap:round;stroke-linejoin:round"
         d="m 9.799609,229.2666 c -5.441582,0 -9.8221401,4.3806 -9.8221401,9.8222 v 47.9893 c 0,5.4416 4.3805581,9.8221 9.8221401,9.8221 H 57.78894 c 5.44158,0 9.82214,-4.3805 9.82214,-9.8221 v -47.9893 c 0,-5.4416 -4.38056,-9.8222 -9.82214,-9.8222 z m 0.804601,1.1338 h 46.38012 c 5.25908,0 9.49297,4.2339 9.49297,9.493 v 46.3796 c 0,5.2591 -4.23389,9.4929 -9.49297,9.4929 H 10.60421 c -5.259081,0 -9.49296,-4.2338 -9.49296,-9.4929 v -46.3796 c 0,-5.2591 4.233879,-9.493 9.49296,-9.493 z" />
      <path
         style="opacity:0.997;fill:#d5f6ff;fill-opacity:1;stroke:none;stroke-width:0.162704;stroke-linecap:round;stroke-linejoin:round"
         d="m 9.046256,295.6362 c -3.593415,-0.4205 -6.9344,-3.3835 -7.871276,-6.9808 -0.2560988,-0.9833 -0.2932751,-4.232 -0.2932751,-25.6288 0,-23.1588 0.01921,-24.5721 0.3502021,-25.7659 0.192612,-0.6947 0.595631,-1.683 0.895599,-2.1962 1.24631,-2.1325 3.770605,-3.9862 6.078018,-4.4634 0.692879,-0.1433 8.789786,-0.191 26.448196,-0.1559 l 25.4496,0.051 1.25712,0.619 c 2.40302,1.1831 4.20466,3.2826 4.96263,5.7828 0.37134,1.225 0.37834,1.7945 0.3282,26.7139 l -0.0512,25.4622 -0.81012,1.635 c -0.95344,1.9242 -2.59914,3.6066 -4.38648,4.4843 l -1.11695,0.5485 -24.96722,0.024 c -13.73197,0.013 -25.554828,-0.045 -26.273004,-0.1291 z"
         id="path1280" />
      <path
         id="path36272"
         style="clip-rule:evenodd;fill:#cc3300;fill-rule:evenodd;stroke-width:0.0040455;image-rendering:optimizeQuality;shape-rendering:geometricPrecision;text-rendering:geometricPrecision"
         d="m 53.30016,283.5675 c -3.00386,0 -5.46016,2.4561 -5.46016,5.4585 v 6.2339 c 0,0.1966 0.012,0.3902 0.0326,0.5816 h 10.85359 c 0.0205,-0.1914 0.0326,-0.385 0.0326,-0.5816 v -6.2339 c 0,-3.0024 -2.45609,-5.4585 -5.45844,-5.4585 z" />
      <path
         class="fil14"
         d="m 25.56852,276.6715 v 0 c 0,-4.1213 -3.37107,-7.4931 -7.4931,-7.4931 H 9.260961 c -4.122029,0 -7.493102,3.3718 -7.493102,7.4931 v 0 c 0,4.1213 3.371073,7.4931 7.493102,7.4931 h 8.814459 c 4.12203,0 7.4931,-3.3718 7.4931,-7.4931 z"
         id="path36294"
         style="clip-rule:evenodd;fill:#b3b3b3;fill-rule:evenodd;stroke-width:0.0040455;image-rendering:optimizeQuality;shape-rendering:geometricPrecision;text-rendering:geometricPrecision" />
      <path
         class="fil14"
         d="m 62.27556,271.8962 v 0 c 0,-4.0763 -3.33495,-7.4114 -7.41183,-7.4114 h -8.9785 c -4.07538,0 -7.41184,3.3351 -7.41184,7.4114 v 0 c 0,4.0763 3.33646,7.4115 7.41184,7.4115 h 8.9785 c 4.07688,0 7.41183,-3.3352 7.41183,-7.4115 z"
         id="path36296"
         style="clip-rule:evenodd;fill:#b3b3b3;fill-rule:evenodd;stroke-width:0.0040455;image-rendering:optimizeQuality;shape-rendering:geometricPrecision;text-rendering:geometricPrecision" />
      <path
         id="path36302"
         style="clip-rule:evenodd;fill:#ff6666;fill-rule:evenodd;stroke-width:0.0040455;image-rendering:optimizeQuality;shape-rendering:geometricPrecision;text-rendering:geometricPrecision"
         d="m 26.17808,255.0774 c -7.92051,0 -14.40092,6.4802 -14.40092,14.4009 v 17.4903 c 0,3.3652 1.17312,6.468 3.12604,8.9267 h 37.4201 c 1.95291,-2.4587 3.12603,-5.5615 3.12603,-8.9267 v -17.4903 c 0,-7.9207 -6.4804,-14.4009 -14.40091,-14.4009 z" />
      <path
         id="path36304"
         style="clip-rule:evenodd;fill:#cc3300;fill-rule:evenodd;stroke-width:0.0040455;image-rendering:optimizeQuality;shape-rendering:geometricPrecision;text-rendering:geometricPrecision"
         d="m 26.13888,255.0959 c -7.92051,0 -14.40093,6.4102 -14.40093,14.2446 v 17.804 c 0,3.3359 1.17821,6.4107 3.13893,8.8452 h 11.5911 c -0.66325,-1.6326 -1.02912,-3.4118 -1.02912,-5.2719 v -24.527 c 0,-4.4717 2.11152,-8.4782 5.3968,-11.0949 z" />
      <path
         id="path36306"
         style="clip-rule:evenodd;fill:#ff6666;fill-rule:evenodd;stroke-width:0.0040455;image-rendering:optimizeQuality;shape-rendering:geometricPrecision;text-rendering:geometricPrecision"
         d="m 18.63818,283.6177 c -3.00235,0 -5.45958,2.4567 -5.45958,5.459 v 6.2334 c 0,0.3109 0.0321,0.614 0.0826,0.9111 h 10.75268 c 0.0505,-0.2971 0.0826,-0.6002 0.0826,-0.9111 v -6.2334 c 0,-3.0023 -2.45609,-5.459 -5.45845,-5.459 z" />
      <path
         class="fil22"
         d="m 58.99328,262.7431 v 0 c 0,-4.8986 -4.00766,-8.9064 -8.90624,-8.9064 H 19.26582 c -4.89858,0 -8.90774,4.0079 -8.90774,8.9064 v 0 c 0,4.8985 4.00916,8.9064 8.90774,8.9064 h 30.82122 c 4.89858,0 8.90624,-4.0079 8.90624,-8.9064 z"
         id="path36308"
         style="clip-rule:evenodd;fill:#e6e6e6;fill-rule:evenodd;stroke-width:0.0040455;image-rendering:optimizeQuality;shape-rendering:geometricPrecision;text-rendering:geometricPrecision" />
      <path
         class="fil40"
         d="m 50.17734,231.9365 -8.50293,4.6614 -5.76693,-5.8107 -5.91142,5.8107 -8.13873,-4.0866 4.16117,21.455 c 9.64066,1.3998 10.23361,1.5167 19.85169,0 z"
         id="path36310"
         style="clip-rule:evenodd;fill:#ffcc00;fill-rule:evenodd;stroke-width:0.0040455;image-rendering:optimizeQuality;shape-rendering:geometricPrecision;text-rendering:geometricPrecision" />
      <path
         class="fil51"
         d="m 59.94592,280.6619 v 0 c 0,-4.0763 -3.33496,-7.4116 -7.41034,-7.4116 H 29.80343 c -4.07538,0 -7.41184,3.3353 -7.41184,7.4116 v 0 c 0,4.0763 3.33646,7.4114 7.41184,7.4114 h 22.73215 c 4.07538,0 7.41034,-3.3351 7.41034,-7.4114 z"
         id="path36312"
         style="clip-rule:evenodd;fill:#e6e6e6;fill-rule:evenodd;stroke-width:0.0040455;image-rendering:optimizeQuality;shape-rendering:geometricPrecision;text-rendering:geometricPrecision" />
      <path
         class="fil58"
         d="M 48.66637,264.4419 H 30.63265 c -3.9595,0 -7.19814,3.2397 -7.19814,7.1994 v 0 c 0,3.9596 3.23864,7.1993 7.19814,7.1993 h 18.03372 c 3.96101,0 7.19964,-3.2397 7.19964,-7.1993 v 0 c 0,-3.9597 -3.23863,-7.1994 -7.19964,-7.1994 z"
         id="path36314"
         style="clip-rule:evenodd;fill:#ffffcc;fill-rule:evenodd;stroke-width:0.0040455;image-rendering:optimizeQuality;shape-rendering:geometricPrecision;text-rendering:geometricPrecision" />
      <path
         class="fil3"
         d="m 47.83865,268.2499 v 0 c -1.44624,0 -2.63063,1.1837 -2.63063,2.6308 v 3.004 c 0,1.4468 1.18439,2.6306 2.63063,2.6306 v 0 c 1.44626,0 2.63064,-1.1838 2.63064,-2.6306 v -3.004 c 0,-1.4471 -1.18438,-2.6308 -2.63064,-2.6308 z"
         id="path36316"
         style="clip-rule:evenodd;fill:#666666;fill-rule:evenodd;stroke-width:0.0040455;image-rendering:optimizeQuality;shape-rendering:geometricPrecision;text-rendering:geometricPrecision" />
      <path
         class="fil3"
         d="m 33.49505,268.2499 v 0 c -1.44625,0 -2.63063,1.1837 -2.63063,2.6308 v 3.004 c 0,1.4468 1.18438,2.6306 2.63063,2.6306 v 0 c 1.44776,0 2.63064,-1.1838 2.63064,-2.6306 v -3.004 c 0,-1.4471 -1.18288,-2.6308 -2.63064,-2.6308 z"
         id="path36318"
         style="clip-rule:evenodd;fill:#666666;fill-rule:evenodd;stroke-width:0.0040455;image-rendering:optimizeQuality;shape-rendering:geometricPrecision;text-rendering:geometricPrecision" />
      <path
         class="fil20"
         d="M 48.01924,289.1898 H 34.83897 c -1.69457,0 -3.08212,1.3875 -3.08212,3.0835 v 0 c 0,1.6959 1.38755,3.0834 3.08212,3.0834 h 13.18027 c 1.69608,0 3.08363,-1.3875 3.08363,-3.0834 v 0 c 0,-1.696 -1.38755,-3.0835 -3.08363,-3.0835 z"
         id="path36320"
         style="clip-rule:evenodd;fill:#ff0000;fill-rule:evenodd;stroke-width:0.0040455;image-rendering:optimizeQuality;shape-rendering:geometricPrecision;text-rendering:geometricPrecision" />
      <path
         class="fil13"
         d="m 25.8665,272.4031 v 0 c 0,-4.1212 -3.37257,-7.4931 -7.49311,-7.4931 H 9.557442 c -4.120529,0 -7.493103,3.3719 -7.493103,7.4931 v 0 c 0,4.1212 3.372574,7.4931 7.493103,7.4931 h 8.815948 c 4.12054,0 7.49311,-3.3719 7.49311,-7.4931 z"
         id="path36324"
         style="clip-rule:evenodd;fill:#cccccc;fill-rule:evenodd;stroke-width:0.0040455;image-rendering:optimizeQuality;shape-rendering:geometricPrecision;text-rendering:geometricPrecision" />
      <path
         id="path1282"
         style="opacity:0.997;fill:#b3b3b3;stroke:none;stroke-width:0.104154;stroke-linecap:round;stroke-linejoin:round"
         d="m 9.799609,229.3386 c -5.441582,0 -9.8221401,4.3806 -9.8221401,9.8221 v 47.9894 c 0,5.4415 4.3805581,9.8221 9.8221401,9.8221 H 57.78894 c 5.44158,0 9.82214,-4.3806 9.82214,-9.8221 v -47.9894 c 0,-5.4415 -4.38056,-9.8221 -9.82214,-9.8221 z m 0.804601,1.1338 h 46.38012 c 5.25908,0 9.49297,4.2339 9.49297,9.4929 v 46.3796 c 0,5.2591 -4.23389,9.493 -9.49297,9.493 H 10.60421 c -5.259081,0 -9.49296,-4.2339 -9.49296,-9.493 v -46.3796 c 0,-5.259 4.233879,-9.4929 9.49296,-9.4929 z" />
    </g>
  </g>
</svg>
