<?xml version="1.0" encoding="UTF-8" standalone="no"?>
<svg
   xmlns:dc="http://purl.org/dc/elements/1.1/"
   xmlns:cc="http://creativecommons.org/ns#"
   xmlns:rdf="http://www.w3.org/1999/02/22-rdf-syntax-ns#"
   xmlns:svg="http://www.w3.org/2000/svg"
   xmlns="http://www.w3.org/2000/svg"
   xmlns:sodipodi="http://sodipodi.sourceforge.net/DTD/sodipodi-0.dtd"
   xmlns:inkscape="http://www.inkscape.org/namespaces/inkscape"
   width="1024"
   height="1024"
   viewBox="0 0 270.9333 270.9333"
   version="1.1"
   id="svg3565"
   inkscape:version="1.0.1 (3bc2e813f5, 2020-09-07)"
   sodipodi:docname="Анимация рыцаря1.svg"
   inkscape:export-filename="C:\Users\Proger\Desktop\GameKnight\Graphics\Render_png\knightframes.png"
   inkscape:export-xdpi="96.00001"
   inkscape:export-ydpi="96.00001">
  <title
     id="title4661">Тайл размером 256x256</title>
  <defs
     id="defs3559" />
  <sodipodi:namedview
     id="base"
     pagecolor="#ffffff"
     bordercolor="#666666"
     borderopacity="1.0"
     inkscape:pageopacity="0.0"
     inkscape:pageshadow="2"
     inkscape:zoom="0.70000008"
     inkscape:cx="103.85676"
     inkscape:cy="690.50215"
     inkscape:document-units="mm"
     inkscape:current-layer="layer1"
     showgrid="true"
     units="px"
     width="256px"
     inkscape:snap-global="false"
     inkscape:document-rotation="0"
     inkscape:window-width="1920"
     inkscape:window-height="1017"
     inkscape:window-x="-8"
     inkscape:window-y="-8"
     inkscape:window-maximized="1">
    <inkscape:grid
       type="xygrid"
       id="grid5244"
       units="px"
       spacingx="67.73332"
       spacingy="67.73332"
       empspacing="1" />
    <inkscape:grid
       type="xygrid"
       id="grid8949"
       color="#e33fff"
       opacity="0.1254902"
       empcolor="#e33fff"
       empopacity="0.2509804"
       units="px"
       spacingx="33.86666"
       spacingy="33.86666"
       empspacing="8" />
  </sodipodi:namedview>
  <metadata
     id="metadata3562">
    <rdf:RDF>
      <cc:Work
         rdf:about="">
        <dc:format>image/svg+xml</dc:format>
        <dc:type
           rdf:resource="http://purl.org/dc/dcmitype/StillImage" />
        <dc:title>Тайл размером 256x256</dc:title>
      </cc:Work>
    </rdf:RDF>
  </metadata>
  <g
     inkscape:label="Layer 1"
     inkscape:groupmode="layer"
     id="layer1"
     transform="translate(0,-26.0667)">
    <g
       id="g9730"
       transform="matrix(0.3129143,0,0,0.3129143,299.2582,78.94597)">
      <g
         inkscape:export-ydpi="12.69007"
         inkscape:export-xdpi="12.69007"
         inkscape:export-filename="C:\Users\Kolobok\Desktop\проекты\Рыцарь\Source\Knight\data\knight_fall.png"
         inkscape:label="#g6340"
         id="knight_fall"
         style="clip-rule:evenodd;fill-rule:evenodd;image-rendering:optimizeQuality;shape-rendering:geometricPrecision;text-rendering:geometricPrecision"
         transform="matrix(0.01,0,0,0.01,4368.804,12.46671)">
        <rect
           style="fill:#999999"
           id="rect2658"
           ry="1349"
           rx="1349"
           height="4286"
           width="2699"
           y="-2698"
           x="-474941"
           class="fil27" />
        <g
           id="_425913016">
          <path
             style="fill:#ff9999"
             inkscape:connector-curvature="0"
             id="path2667"
             d="m -476825,-14988 c -1294,-979 -3078,-799 -3986,401 -1388,1835 -1482,5862 -1097,8028 713,-2401 1342,-3566 2722,-3599 1121,362 2354,46 3059,-886 908,-1200 596,-2967 -698,-3945 z"
             class="fil20" />
          <path
             style="fill:#ff6666"
             inkscape:connector-curvature="0"
             id="path2669"
             d="m -481910,-6538 c 713,-2401 1342,-3566 2722,-3599 1077,348 2257,69 2973,-779 -852,-37 -2451,388 -2821,-1131 -679,-2790 -3291,3170 -2875,5508 z"
             class="fil33" />
        </g>
        <g
           id="_425912248">
          <path
             style="fill:#ff9999"
             inkscape:connector-curvature="0"
             id="path2672"
             d="m -482063,-17494 c -1622,0 -2937,1220 -2937,2725 0,2301 2354,5569 3969,7064 -880,-2345 -1081,-3653 0,-4512 1113,-388 1905,-1384 1905,-2552 0,-1505 -1315,-2725 -2937,-2725 z"
             class="fil20" />
          <path
             style="fill:#ff6666"
             inkscape:connector-curvature="0"
             id="path2674"
             d="m -481021,-7687 c -880,-2345 -1081,-3653 0,-4512 1069,-372 1842,-1307 1901,-2415 -702,484 -1721,1788 -2932,800 -2225,-1815 -712,4513 1031,6128 z"
             class="fil33" />
        </g>
        <rect
           style="fill:#999999"
           y="307159"
           x="365168.09"
           id="rect2677"
           ry="1005"
           rx="1005"
           height="4313"
           width="3281"
           transform="matrix(-0.7660441,-0.6427881,-0.6427881,0.7660441,0,0)"
           class="fil27" />
        <rect
           style="fill:#999999"
           y="304591.09"
           x="362107.69"
           id="rect2679"
           ry="1005"
           rx="1005"
           height="4313"
           width="3281"
           transform="matrix(-0.7660441,-0.6427881,-0.6427881,0.7660441,0,0)"
           class="fil27" />
        <rect
           style="fill:#cccccc"
           id="rect2681"
           ry="3164"
           rx="3560"
           height="11569"
           width="10795"
           y="-9818"
           x="-483468"
           class="fil10" />
        <path
           style="fill:#7d7c7d"
           inkscape:connector-curvature="0"
           id="path2683"
           d="m -478757,-9813 h -1161 c -1958,0 -3560,1602 -3560,3560 v 4449 c 0,1958 1602,3560 3560,3560 h 1035 c -740,-654 -1209,-1608 -1209,-2667 v -6129 c 0,-1117 522,-2119 1334,-2773 z"
           class="fil34" />
        <rect
           style="fill:#999999"
           id="rect2685"
           ry="2345"
           rx="2605"
           height="4690"
           width="9346"
           y="-6272"
           x="-481536"
           class="fil27" />
        <rect
           style="fill:#b3b3b3"
           id="rect2687"
           ry="771"
           rx="1333"
           height="1541"
           width="4782"
           y="-1318"
           x="-478917"
           class="fil6" />
        <rect
           style="fill:#b3b3b3"
           id="rect2689"
           ry="506"
           rx="875"
           height="1012"
           width="3140"
           y="372"
           x="-478317"
           class="fil6" />
        <rect
           style="fill:#b3b3b3"
           id="rect2691"
           ry="1349"
           rx="1349"
           height="4286"
           width="2699"
           y="-2685"
           x="-483509"
           class="fil6" />
        <g
           id="_426416096">
          <rect
             style="fill:#ffffcc"
             id="rect2693"
             ry="1799"
             rx="2234"
             height="3598"
             width="8017"
             y="-7503"
             x="-480696"
             class="fil21" />
          <rect
             style="fill:#666666"
             id="rect2695"
             ry="650"
             rx="650"
             height="2066"
             width="1301"
             y="-6551"
             x="-475314"
             class="fil30" />
          <rect
             style="fill:#666666"
             id="rect2697"
             ry="650"
             rx="650"
             height="2066"
             width="1301"
             y="-6551"
             x="-478859"
             class="fil30" />
        </g>
        <rect
           style="fill:#666666"
           id="rect2700"
           ry="526"
           rx="526"
           height="1672"
           width="1052"
           y="-3457"
           x="-474857"
           class="fil30" />
        <rect
           style="fill:#666666"
           id="rect2702"
           ry="526"
           rx="526"
           height="1672"
           width="1052"
           y="-3457"
           x="-476645"
           class="fil30" />
        <rect
           style="fill:#666666"
           id="rect2704"
           ry="526"
           rx="526"
           height="1672"
           width="1052"
           y="-3457"
           x="-478370"
           class="fil30" />
        <g
           id="_426414320">
          <circle
             style="fill:#b3b3b3"
             id="circle2711"
             r="1718"
             cy="-4475"
             cx="-481624"
             class="fil6" />
          <circle
             style="fill:#999999"
             id="circle2713"
             r="1072"
             cy="-4487"
             cx="-481899"
             class="fil27" />
        </g>
      </g>
    </g>
    <g
       transform="matrix(0.0031291,0,0,0.0031291,1165.409,150.6462)"
       style="clip-rule:evenodd;fill-rule:evenodd;image-rendering:optimizeQuality;shape-rendering:geometricPrecision;text-rendering:geometricPrecision"
       id="knight_walk_2"
       inkscape:label="#g6313"
       inkscape:export-filename="C:\Users\Kolobok\Desktop\проекты\Рыцарь\Source\Knight\public\data\knight_walk_2.png"
       inkscape:export-xdpi="12.69009"
       inkscape:export-ydpi="12.69009">
      <rect
         class="fil27"
         x="-336378"
         y="-2698"
         width="2699"
         height="4286"
         rx="1349"
         ry="1349"
         id="rect2716"
         style="fill:#999999" />
      <g
         id="_426413312">
        <path
           class="fil20"
           d="m -338262,-14988 c -1294,-979 -3078,-799 -3986,401 -1388,1835 -1482,5862 -1097,8028 713,-2401 1342,-3566 2722,-3599 1121,362 2354,46 3059,-886 908,-1200 596,-2967 -698,-3945 z"
           id="path2718"
           inkscape:connector-curvature="0"
           style="fill:#ff9999" />
        <path
           class="fil33"
           d="m -343347,-6538 c 713,-2401 1342,-3566 2722,-3599 1077,348 2257,69 2973,-779 -852,-37 -2451,388 -2821,-1131 -679,-2790 -3291,3170 -2875,5508 z"
           id="path2720"
           inkscape:connector-curvature="0"
           style="fill:#ff6666" />
      </g>
      <g
         id="_426412544">
        <path
           class="fil20"
           d="m -343500,-17494 c -1622,0 -2937,1220 -2937,2725 0,2301 2354,5569 3969,7064 -880,-2345 -1081,-3653 0,-4512 1113,-388 1905,-1384 1905,-2552 0,-1505 -1315,-2725 -2937,-2725 z"
           id="path2723"
           inkscape:connector-curvature="0"
           style="fill:#ff9999" />
        <path
           class="fil33"
           d="m -342458,-7687 c -880,-2345 -1081,-3653 0,-4512 1069,-372 1842,-1307 1901,-2415 -702,484 -1721,1788 -2932,800 -2225,-1815 -712,4513 1031,6128 z"
           id="path2725"
           inkscape:connector-curvature="0"
           style="fill:#ff6666" />
      </g>
      <rect
         class="fil27"
         x="-342893"
         y="-987"
         width="3281"
         height="3417"
         rx="1005"
         ry="797"
         id="rect2728"
         style="fill:#999999" />
      <rect
         class="fil27"
         x="-338898"
         y="-987"
         width="3281"
         height="4343"
         rx="1005"
         ry="1012"
         id="rect2730"
         style="fill:#999999" />
      <rect
         class="fil10"
         x="-344904"
         y="-9818"
         width="10795"
         height="11569"
         rx="3560"
         ry="3164"
         id="rect2732"
         style="fill:#cccccc" />
      <path
         class="fil34"
         d="m -340193,-9813 h -1161 c -1958,0 -3560,1602 -3560,3560 v 4449 c 0,1958 1602,3560 3560,3560 h 1035 c -740,-654 -1209,-1608 -1209,-2667 v -6129 c 0,-1117 522,-2119 1334,-2773 z"
         id="path2734"
         inkscape:connector-curvature="0"
         style="fill:#7d7c7d" />
      <rect
         class="fil27"
         x="-342973"
         y="-6272"
         width="9346"
         height="4690"
         rx="2605"
         ry="2345"
         id="rect2736"
         style="fill:#999999" />
      <rect
         class="fil6"
         x="-340353"
         y="-1318"
         width="4782"
         height="1541"
         rx="1333"
         ry="771"
         id="rect2738"
         style="fill:#b3b3b3" />
      <rect
         class="fil6"
         x="-339754"
         y="372"
         width="3140"
         height="1012"
         rx="875"
         ry="506"
         id="rect2740"
         style="fill:#b3b3b3" />
      <rect
         class="fil6"
         x="-344946"
         y="-2685"
         width="2699"
         height="4286"
         rx="1349"
         ry="1349"
         id="rect2742"
         style="fill:#b3b3b3" />
      <g
         id="_426409760">
        <rect
           class="fil21"
           x="-342133"
           y="-7503"
           width="8017"
           height="3598"
           rx="2234"
           ry="1799"
           id="rect2744"
           style="fill:#ffffcc" />
        <rect
           class="fil30"
           x="-336750"
           y="-6551"
           width="1301"
           height="2066"
           rx="650"
           ry="650"
           id="rect2746"
           style="fill:#666666" />
        <rect
           class="fil30"
           x="-340296"
           y="-6551"
           width="1301"
           height="2066"
           rx="650"
           ry="650"
           id="rect2748"
           style="fill:#666666" />
      </g>
      <rect
         class="fil30"
         x="-336293"
         y="-3457"
         width="1052"
         height="1672"
         rx="526"
         ry="526"
         id="rect2751"
         style="fill:#666666" />
      <rect
         class="fil30"
         x="-338082"
         y="-3457"
         width="1052"
         height="1672"
         rx="526"
         ry="526"
         id="rect2753"
         style="fill:#666666" />
      <rect
         class="fil30"
         x="-339807"
         y="-3457"
         width="1052"
         height="1672"
         rx="526"
         ry="526"
         id="rect2755"
         style="fill:#666666" />
      <g
         id="_426408512">
        <circle
           class="fil6"
           cx="-343060"
           cy="-4475"
           r="1718"
           id="circle2757"
           style="fill:#b3b3b3" />
        <circle
           class="fil27"
           cx="-343336"
           cy="-4487"
           r="1072"
           id="circle2759"
           style="fill:#999999" />
      </g>
    </g>
    <g
       id="g9784"
       transform="matrix(0.3129143,0,0,0.3129143,126.4569,79.28658)">
      <rect
         class="fil27"
         x="-44.179409"
         y="-11.55329"
         width="26.990009"
         height="42.860039"
         rx="13.49001"
         ry="13.49001"
         id="rect2762"
         style="clip-rule:evenodd;fill:#999999;fill-rule:evenodd;stroke-width:0.01;image-rendering:optimizeQuality;shape-rendering:geometricPrecision;text-rendering:geometricPrecision" />
      <g
         id="_426407504"
         style="clip-rule:evenodd;fill-rule:evenodd;image-rendering:optimizeQuality;shape-rendering:geometricPrecision;text-rendering:geometricPrecision"
         transform="matrix(0.01,0,0,0.01,4368.804,12.46671)">
        <path
           class="fil20"
           d="m -443181,-14693 c -1294,-979 -3078,-799 -3986,401 -1388,1835 -1482,5862 -1097,8028 713,-2401 1342,-3566 2722,-3599 1121,362 2354,46 3059,-886 908,-1200 596,-2967 -698,-3945 z"
           id="path2764"
           inkscape:connector-curvature="0"
           style="fill:#ff9999" />
        <path
           class="fil33"
           d="m -448267,-6243 c 713,-2401 1342,-3566 2722,-3599 1077,348 2257,69 2973,-779 -852,-37 -2451,388 -2821,-1131 -679,-2790 -3291,3170 -2875,5508 z"
           id="path2766"
           inkscape:connector-curvature="0"
           style="fill:#ff6666" />
      </g>
      <g
         id="_426406736"
         style="clip-rule:evenodd;fill-rule:evenodd;image-rendering:optimizeQuality;shape-rendering:geometricPrecision;text-rendering:geometricPrecision"
         transform="matrix(0.01,0,0,0.01,4368.804,12.46671)">
        <path
           class="fil20"
           d="m -448420,-17199 c -1622,0 -2937,1220 -2937,2725 0,2301 2354,5569 3969,7064 -880,-2345 -1081,-3653 0,-4512 1113,-388 1905,-1384 1905,-2552 0,-1505 -1315,-2725 -2937,-2725 z"
           id="path2769"
           inkscape:connector-curvature="0"
           style="fill:#ff9999" />
        <path
           class="fil33"
           d="m -447378,-7392 c -880,-2345 -1081,-3653 0,-4512 1069,-372 1842,-1307 1901,-2415 -702,484 -1721,1788 -2932,800 -2225,-1815 -712,4513 1031,6128 z"
           id="path2771"
           inkscape:connector-curvature="0"
           style="fill:#ff6666" />
      </g>
      <rect
         class="fil27"
         x="-109.3293"
         y="2.5967021"
         width="32.810032"
         height="43.13002"
         rx="10.05001"
         ry="10.05001"
         id="rect2774"
         style="clip-rule:evenodd;fill:#999999;fill-rule:evenodd;stroke-width:0.01;image-rendering:optimizeQuality;shape-rendering:geometricPrecision;text-rendering:geometricPrecision" />
      <rect
         class="fil27"
         x="-69.379433"
         y="2.5967021"
         width="32.810032"
         height="43.13002"
         rx="10.05001"
         ry="10.05001"
         id="rect2776"
         style="clip-rule:evenodd;fill:#999999;fill-rule:evenodd;stroke-width:0.01;image-rendering:optimizeQuality;shape-rendering:geometricPrecision;text-rendering:geometricPrecision" />
      <rect
         class="fil10"
         x="-129.4393"
         y="-82.753403"
         width="107.9501"
         height="115.6901"
         rx="35.600029"
         ry="31.640011"
         id="rect2778"
         style="clip-rule:evenodd;fill:#cccccc;fill-rule:evenodd;stroke-width:0.01;image-rendering:optimizeQuality;shape-rendering:geometricPrecision;text-rendering:geometricPrecision" />
      <path
         class="fil34"
         d="m -82.32939,-82.71339 h -11.6099 c -19.58001,0 -35.60001,16.0201 -35.60001,35.6001 v 44.489997 c 0,19.580003 16.02,35.600003 35.60001,35.600003 h 10.3499 c -7.3998,-6.54 -12.0898,-16.08 -12.0898,-26.670003 V -54.98329 c 0,-11.17 5.2199,-21.1901 13.3397,-27.7301 z"
         id="path2780"
         inkscape:connector-curvature="0"
         style="clip-rule:evenodd;fill:#7d7c7d;fill-rule:evenodd;stroke-width:0.01;image-rendering:optimizeQuality;shape-rendering:geometricPrecision;text-rendering:geometricPrecision" />
      <rect
         class="fil27"
         x="-110.1194"
         y="-47.303291"
         width="93.460068"
         height="46.90004"
         rx="26.05002"
         ry="23.45002"
         id="rect2782"
         style="clip-rule:evenodd;fill:#999999;fill-rule:evenodd;stroke-width:0.01;image-rendering:optimizeQuality;shape-rendering:geometricPrecision;text-rendering:geometricPrecision" />
      <rect
         class="fil6"
         x="-83.929413"
         y="2.236701"
         width="47.82003"
         height="15.41001"
         rx="13.33001"
         ry="7.7100062"
         id="rect2784"
         style="clip-rule:evenodd;fill:#b3b3b3;fill-rule:evenodd;stroke-width:0.01;image-rendering:optimizeQuality;shape-rendering:geometricPrecision;text-rendering:geometricPrecision" />
      <rect
         class="fil6"
         x="-77.939423"
         y="19.146709"
         width="31.400009"
         height="10.12001"
         rx="8.7500057"
         ry="5.0600028"
         id="rect2786"
         style="clip-rule:evenodd;fill:#b3b3b3;fill-rule:evenodd;stroke-width:0.01;image-rendering:optimizeQuality;shape-rendering:geometricPrecision;text-rendering:geometricPrecision" />
      <rect
         class="fil6"
         x="-129.8595"
         y="-11.4333"
         width="26.990009"
         height="42.860039"
         rx="13.49001"
         ry="13.49001"
         id="rect2788"
         style="clip-rule:evenodd;fill:#b3b3b3;fill-rule:evenodd;stroke-width:0.01;image-rendering:optimizeQuality;shape-rendering:geometricPrecision;text-rendering:geometricPrecision" />
      <g
         id="_426403952"
         style="clip-rule:evenodd;fill-rule:evenodd;image-rendering:optimizeQuality;shape-rendering:geometricPrecision;text-rendering:geometricPrecision"
         transform="matrix(0.01,0,0,0.01,4368.804,12.46671)">
        <rect
           class="fil21"
           x="-447053"
           y="-7207"
           width="8017"
           height="3598"
           rx="2234"
           ry="1799"
           id="rect2790"
           style="fill:#ffffcc" />
        <rect
           class="fil30"
           x="-441670"
           y="-6256"
           width="1301"
           height="2066"
           rx="650"
           ry="650"
           id="rect2792"
           style="fill:#666666" />
        <rect
           class="fil30"
           x="-445216"
           y="-6256"
           width="1301"
           height="2066"
           rx="650"
           ry="650"
           id="rect2794"
           style="fill:#666666" />
      </g>
      <rect
         class="fil30"
         x="-43.329311"
         y="-19.153299"
         width="10.52001"
         height="16.720011"
         rx="5.260004"
         ry="5.260004"
         id="rect2797"
         style="clip-rule:evenodd;fill:#666666;fill-rule:evenodd;stroke-width:0.01;image-rendering:optimizeQuality;shape-rendering:geometricPrecision;text-rendering:geometricPrecision" />
      <rect
         class="fil30"
         x="-61.219261"
         y="-19.153299"
         width="10.52001"
         height="16.720011"
         rx="5.260004"
         ry="5.260004"
         id="rect2799"
         style="clip-rule:evenodd;fill:#666666;fill-rule:evenodd;stroke-width:0.01;image-rendering:optimizeQuality;shape-rendering:geometricPrecision;text-rendering:geometricPrecision" />
      <rect
         class="fil30"
         x="-78.469391"
         y="-19.153299"
         width="10.52001"
         height="16.720011"
         rx="5.260004"
         ry="5.260004"
         id="rect2801"
         style="clip-rule:evenodd;fill:#666666;fill-rule:evenodd;stroke-width:0.01;image-rendering:optimizeQuality;shape-rendering:geometricPrecision;text-rendering:geometricPrecision" />
      <g
         id="_426402704"
         style="clip-rule:evenodd;fill-rule:evenodd;image-rendering:optimizeQuality;shape-rendering:geometricPrecision;text-rendering:geometricPrecision"
         transform="matrix(0.01,0,0,0.01,4368.804,12.46671)">
        <circle
           class="fil6"
           cx="-447980"
           cy="-4180"
           r="1718"
           id="circle2803"
           style="fill:#b3b3b3" />
        <circle
           class="fil27"
           cx="-448255"
           cy="-4191"
           r="1072"
           id="circle2805"
           style="fill:#999999" />
      </g>
    </g>
    <g
       id="g9757"
       transform="matrix(0.3129143,0,0,0.3129143,103.1432,79.23577)">
      <rect
         class="fil27"
         x="-186.91949"
         y="-14.5133"
         width="26.990009"
         height="42.860039"
         rx="13.49001"
         ry="13.49001"
         id="rect2808"
         style="clip-rule:evenodd;fill:#999999;fill-rule:evenodd;stroke-width:0.01;image-rendering:optimizeQuality;shape-rendering:geometricPrecision;text-rendering:geometricPrecision" />
      <g
         id="_426401696"
         style="clip-rule:evenodd;fill-rule:evenodd;image-rendering:optimizeQuality;shape-rendering:geometricPrecision;text-rendering:geometricPrecision"
         transform="matrix(0.01,0,0,0.01,4368.804,12.46671)">
        <path
           class="fil20"
           d="m -457456,-14988 c -1294,-979 -3078,-799 -3986,401 -1388,1835 -1482,5862 -1097,8028 713,-2401 1342,-3566 2722,-3599 1121,362 2354,46 3059,-886 908,-1200 596,-2967 -698,-3945 z"
           id="path2810"
           inkscape:connector-curvature="0"
           style="fill:#ff9999" />
        <path
           class="fil33"
           d="m -462541,-6538 c 713,-2401 1342,-3566 2722,-3599 1077,348 2257,69 2973,-779 -852,-37 -2451,388 -2821,-1131 -679,-2790 -3291,3170 -2875,5508 z"
           id="path2812"
           inkscape:connector-curvature="0"
           style="fill:#ff6666" />
      </g>
      <g
         id="_426400928"
         style="clip-rule:evenodd;fill-rule:evenodd;image-rendering:optimizeQuality;shape-rendering:geometricPrecision;text-rendering:geometricPrecision"
         transform="matrix(0.01,0,0,0.01,4368.804,12.46671)">
        <path
           class="fil20"
           d="m -462694,-17494 c -1622,0 -2937,1220 -2937,2725 0,2301 2354,5569 3969,7064 -880,-2345 -1081,-3653 0,-4512 1113,-388 1905,-1384 1905,-2552 0,-1505 -1315,-2725 -2937,-2725 z"
           id="path2815"
           inkscape:connector-curvature="0"
           style="fill:#ff9999" />
        <path
           class="fil33"
           d="m -461652,-7687 c -880,-2345 -1081,-3653 0,-4512 1069,-372 1842,-1307 1901,-2415 -702,484 -1721,1788 -2932,800 -2225,-1815 -712,4513 1031,6128 z"
           id="path2817"
           inkscape:connector-curvature="0"
           style="fill:#ff6666" />
      </g>
      <rect
         class="fil27"
         x="-252.0694"
         y="2.5967021"
         width="32.810032"
         height="43.13002"
         rx="10.05001"
         ry="10.05001"
         id="rect2820"
         style="clip-rule:evenodd;fill:#999999;fill-rule:evenodd;stroke-width:0.01;image-rendering:optimizeQuality;shape-rendering:geometricPrecision;text-rendering:geometricPrecision" />
      <rect
         class="fil27"
         x="-212.1194"
         y="2.5967021"
         width="32.810032"
         height="43.13002"
         rx="10.05001"
         ry="10.05001"
         id="rect2822"
         style="clip-rule:evenodd;fill:#999999;fill-rule:evenodd;stroke-width:0.01;image-rendering:optimizeQuality;shape-rendering:geometricPrecision;text-rendering:geometricPrecision" />
      <rect
         class="fil10"
         x="-272.1796"
         y="-85.713387"
         width="107.9501"
         height="115.6901"
         rx="35.600029"
         ry="31.640011"
         id="rect2824"
         style="clip-rule:evenodd;fill:#cccccc;fill-rule:evenodd;stroke-width:0.01;image-rendering:optimizeQuality;shape-rendering:geometricPrecision;text-rendering:geometricPrecision" />
      <path
         class="fil34"
         d="m -225.0695,-85.66339 h -11.6099 c -19.58,0 -35.5999,16.0201 -35.5999,35.6001 v 44.489997 c 0,19.580003 16.0199,35.600003 35.5999,35.600003 h 10.35 c -7.4002,-6.54 -12.0902,-16.08 -12.0902,-26.670003 V -57.93329 c 0,-11.17 5.2203,-21.1901 13.3401,-27.7301 z"
         id="path2826"
         inkscape:connector-curvature="0"
         style="clip-rule:evenodd;fill:#7d7c7d;fill-rule:evenodd;stroke-width:0.01;image-rendering:optimizeQuality;shape-rendering:geometricPrecision;text-rendering:geometricPrecision" />
      <rect
         class="fil27"
         x="-252.86951"
         y="-50.253288"
         width="93.460068"
         height="46.90004"
         rx="26.05002"
         ry="23.45002"
         id="rect2828"
         style="clip-rule:evenodd;fill:#999999;fill-rule:evenodd;stroke-width:0.01;image-rendering:optimizeQuality;shape-rendering:geometricPrecision;text-rendering:geometricPrecision" />
      <rect
         class="fil6"
         x="-226.6694"
         y="-0.71329588"
         width="47.82003"
         height="15.41001"
         rx="13.33001"
         ry="7.7100062"
         id="rect2830"
         style="clip-rule:evenodd;fill:#b3b3b3;fill-rule:evenodd;stroke-width:0.01;image-rendering:optimizeQuality;shape-rendering:geometricPrecision;text-rendering:geometricPrecision" />
      <rect
         class="fil6"
         x="-220.6795"
         y="16.18671"
         width="31.400009"
         height="10.12001"
         rx="8.7500057"
         ry="5.0600028"
         id="rect2832"
         style="clip-rule:evenodd;fill:#b3b3b3;fill-rule:evenodd;stroke-width:0.01;image-rendering:optimizeQuality;shape-rendering:geometricPrecision;text-rendering:geometricPrecision" />
      <rect
         class="fil6"
         x="-272.59949"
         y="-14.38329"
         width="26.990009"
         height="42.860039"
         rx="13.49001"
         ry="13.49001"
         id="rect2834"
         style="clip-rule:evenodd;fill:#b3b3b3;fill-rule:evenodd;stroke-width:0.01;image-rendering:optimizeQuality;shape-rendering:geometricPrecision;text-rendering:geometricPrecision" />
      <g
         id="_426398144"
         style="clip-rule:evenodd;fill-rule:evenodd;image-rendering:optimizeQuality;shape-rendering:geometricPrecision;text-rendering:geometricPrecision"
         transform="matrix(0.01,0,0,0.01,4368.804,12.46671)">
        <rect
           class="fil21"
           x="-461327"
           y="-7503"
           width="8017"
           height="3598"
           rx="2234"
           ry="1799"
           id="rect2836"
           style="fill:#ffffcc" />
        <rect
           class="fil30"
           x="-455944"
           y="-6551"
           width="1301"
           height="2066"
           rx="650"
           ry="650"
           id="rect2838"
           style="fill:#666666" />
        <rect
           class="fil30"
           x="-459490"
           y="-6551"
           width="1301"
           height="2066"
           rx="650"
           ry="650"
           id="rect2840"
           style="fill:#666666" />
      </g>
      <rect
         class="fil30"
         x="-186.06931"
         y="-22.103291"
         width="10.52001"
         height="16.720011"
         rx="5.260004"
         ry="5.260004"
         id="rect2843"
         style="clip-rule:evenodd;fill:#666666;fill-rule:evenodd;stroke-width:0.01;image-rendering:optimizeQuality;shape-rendering:geometricPrecision;text-rendering:geometricPrecision" />
      <rect
         class="fil30"
         x="-203.9594"
         y="-22.103291"
         width="10.52001"
         height="16.720011"
         rx="5.260004"
         ry="5.260004"
         id="rect2845"
         style="clip-rule:evenodd;fill:#666666;fill-rule:evenodd;stroke-width:0.01;image-rendering:optimizeQuality;shape-rendering:geometricPrecision;text-rendering:geometricPrecision" />
      <rect
         class="fil30"
         x="-221.2094"
         y="-22.103291"
         width="10.52001"
         height="16.720011"
         rx="5.260004"
         ry="5.260004"
         id="rect2847"
         style="clip-rule:evenodd;fill:#666666;fill-rule:evenodd;stroke-width:0.01;image-rendering:optimizeQuality;shape-rendering:geometricPrecision;text-rendering:geometricPrecision" />
      <g
         id="_426396896"
         style="clip-rule:evenodd;fill-rule:evenodd;image-rendering:optimizeQuality;shape-rendering:geometricPrecision;text-rendering:geometricPrecision"
         transform="matrix(0.01,0,0,0.01,4368.804,12.46671)">
        <circle
           class="fil6"
           cx="-462254"
           cy="-4475"
           r="1718"
           id="circle2849"
           style="fill:#b3b3b3" />
        <circle
           class="fil27"
           cx="-462530"
           cy="-4487"
           r="1072"
           id="circle2851"
           style="fill:#999999" />
      </g>
    </g>
    <g
       transform="matrix(0.0031291,0,0,0.0031291,1149.496,150.8144)"
       style="clip-rule:evenodd;fill-rule:evenodd;image-rendering:optimizeQuality;shape-rendering:geometricPrecision;text-rendering:geometricPrecision"
       id="knight_walk_1"
       inkscape:label="#g6286"
       inkscape:export-filename="C:\Users\Kolobok\Desktop\проекты\Рыцарь\Source\Knight\public\data\knight_walk_1.png"
       inkscape:export-xdpi="12.69009"
       inkscape:export-ydpi="12.69009">
      <rect
         class="fil27"
         x="-352899"
         y="-2438"
         width="2699"
         height="4286"
         rx="1349"
         ry="1349"
         id="rect2854"
         style="fill:#999999" />
      <g
         id="_426395888">
        <path
           class="fil20"
           d="m -354783,-14728 c -1294,-979 -3078,-799 -3986,401 -1388,1835 -1482,5862 -1097,8028 713,-2401 1342,-3566 2722,-3599 1121,362 2354,46 3059,-886 908,-1200 596,-2967 -698,-3945 z"
           id="path2856"
           inkscape:connector-curvature="0"
           style="fill:#ff9999" />
        <path
           class="fil33"
           d="m -359868,-6278 c 713,-2401 1342,-3566 2722,-3599 1077,348 2257,69 2973,-779 -852,-37 -2451,388 -2821,-1131 -679,-2790 -3291,3170 -2875,5508 z"
           id="path2858"
           inkscape:connector-curvature="0"
           style="fill:#ff6666" />
      </g>
      <g
         id="_426395120">
        <path
           class="fil20"
           d="m -360021,-17234 c -1622,0 -2937,1220 -2937,2725 0,2301 2354,5569 3969,7064 -880,-2345 -1081,-3653 0,-4512 1113,-388 1905,-1384 1905,-2552 0,-1505 -1315,-2725 -2937,-2725 z"
           id="path2861"
           inkscape:connector-curvature="0"
           style="fill:#ff9999" />
        <path
           class="fil33"
           d="m -358979,-7427 c -880,-2345 -1081,-3653 0,-4512 1069,-372 1842,-1307 1901,-2415 -702,484 -1721,1788 -2932,800 -2225,-1815 -712,4513 1031,6128 z"
           id="path2863"
           inkscape:connector-curvature="0"
           style="fill:#ff6666" />
      </g>
      <rect
         class="fil27"
         x="-359414"
         y="-987"
         width="3281"
         height="4303"
         rx="1005"
         ry="1003"
         id="rect2866"
         style="fill:#999999" />
      <rect
         class="fil27"
         x="-355419"
         y="-987"
         width="3281"
         height="3404"
         rx="1005"
         ry="793"
         id="rect2868"
         style="fill:#999999" />
      <rect
         class="fil10"
         x="-361425"
         y="-9558"
         width="10795"
         height="11569"
         rx="3560"
         ry="3164"
         id="rect2870"
         style="fill:#cccccc" />
      <path
         class="fil34"
         d="m -356714,-9553 h -1161 c -1958,0 -3560,1602 -3560,3560 v 4449 c 0,1958 1602,3560 3560,3560 h 1035 c -740,-654 -1209,-1608 -1209,-2667 v -6129 c 0,-1117 522,-2119 1334,-2773 z"
         id="path2872"
         inkscape:connector-curvature="0"
         style="fill:#7d7c7d" />
      <rect
         class="fil27"
         x="-359494"
         y="-6012"
         width="9346"
         height="4690"
         rx="2605"
         ry="2345"
         id="rect2874"
         style="fill:#999999" />
      <rect
         class="fil6"
         x="-356874"
         y="-1058"
         width="4782"
         height="1541"
         rx="1333"
         ry="771"
         id="rect2876"
         style="fill:#b3b3b3" />
      <rect
         class="fil6"
         x="-356275"
         y="632"
         width="3140"
         height="1012"
         rx="875"
         ry="506"
         id="rect2878"
         style="fill:#b3b3b3" />
      <rect
         class="fil6"
         x="-361467"
         y="-2425"
         width="2699"
         height="4286"
         rx="1349"
         ry="1349"
         id="rect2880"
         style="fill:#b3b3b3" />
      <g
         id="_426392336">
        <rect
           class="fil21"
           x="-358654"
           y="-7243"
           width="8017"
           height="3598"
           rx="2234"
           ry="1799"
           id="rect2882"
           style="fill:#ffffcc" />
        <rect
           class="fil30"
           x="-353271"
           y="-6291"
           width="1301"
           height="2066"
           rx="650"
           ry="650"
           id="rect2884"
           style="fill:#666666" />
        <rect
           class="fil30"
           x="-356817"
           y="-6291"
           width="1301"
           height="2066"
           rx="650"
           ry="650"
           id="rect2886"
           style="fill:#666666" />
      </g>
      <rect
         class="fil30"
         x="-352814"
         y="-3197"
         width="1052"
         height="1672"
         rx="526"
         ry="526"
         id="rect2889"
         style="fill:#666666" />
      <rect
         class="fil30"
         x="-354603"
         y="-3197"
         width="1052"
         height="1672"
         rx="526"
         ry="526"
         id="rect2891"
         style="fill:#666666" />
      <rect
         class="fil30"
         x="-356328"
         y="-3197"
         width="1052"
         height="1672"
         rx="526"
         ry="526"
         id="rect2893"
         style="fill:#666666" />
      <g
         id="_426391088">
        <circle
           class="fil6"
           cx="-359582"
           cy="-4215"
           r="1718"
           id="circle2895"
           style="fill:#b3b3b3" />
        <circle
           class="fil27"
           cx="-359857"
           cy="-4227"
           r="1072"
           id="circle2897"
           style="fill:#999999" />
      </g>
    </g>
    <g
       id="g640"
       transform="matrix(0.31433137,0,0,0.30955479,118.9379,117.82086)">
      <path
         class="fil3"
         d="m -228.71005,517.45751 v 0 c -7.34311,0 -13.35111,6.008 -13.35111,13.351 v 15.6937 c 0,7.3432 6.008,13.351 13.35111,13.351 v 0 c 7.34309,0 13.35098,-6.0078 13.35098,-13.351 v -15.6937 c 0,-7.343 -6.00789,-13.351 -13.35098,-13.351 z"
         id="path40010"
         style="clip-rule:evenodd;fill:#666666;fill-rule:evenodd;stroke-width:0.01;image-rendering:optimizeQuality;shape-rendering:geometricPrecision;text-rendering:geometricPrecision" />
      <path
         class="fil51"
         d="m -260.61075,394.61369 c -12.9353,-9.7859 -30.78282,-7.9885 -39.86332,4.0146 -13.88369,18.352 -14.82288,58.61611 -10.97039,80.28261 7.12779,-24.0096 13.41649,-35.6553 27.2239,-35.9857 11.2141,3.6231 23.5421,0.4564 30.58951,-8.8592 9.08058,-12.00311 5.95559,-29.66651 -6.9797,-39.45231 z"
         id="path40012"
         style="clip-rule:evenodd;fill:#ff9999;fill-rule:evenodd;stroke-width:0.01;image-rendering:optimizeQuality;shape-rendering:geometricPrecision;text-rendering:geometricPrecision" />
      <path
         class="fil52"
         d="m -311.46698,479.1125 c 7.12782,-24.0095 13.41652,-35.6552 27.22391,-35.9856 10.77301,3.4805 22.57311,0.6939 29.73292,-7.78981 -8.51681,-0.3717 -24.51052,3.88181 -28.20752,-11.3094 -6.7891,-27.8975 -32.9079,31.69731 -28.74931,55.08481 z"
         id="path40014"
         style="clip-rule:evenodd;fill:#ff6666;fill-rule:evenodd;stroke-width:0.01;image-rendering:optimizeQuality;shape-rendering:geometricPrecision;text-rendering:geometricPrecision" />
      <path
         class="fil51"
         d="m -312.99516,369.55559 c -16.21991,0 -29.3688,12.2012 -29.3688,27.2521 0,23.012 23.5432,55.68921 39.6875,70.64381 -8.8011,-23.4479 -10.81201,-36.5294 0,-45.12321 11.12909,-3.8764 19.0501,-13.8395 19.0501,-25.5206 0,-15.0509 -13.14891,-27.2521 -29.3688,-27.2521 z"
         id="path40018"
         style="clip-rule:evenodd;fill:#ff9999;fill-rule:evenodd;stroke-width:0.01;image-rendering:optimizeQuality;shape-rendering:geometricPrecision;text-rendering:geometricPrecision" />
      <path
         class="fil52"
         d="m -302.57277,467.6259 c -8.8011,-23.4479 -10.81199,-36.5294 0,-45.12321 10.69141,-3.7239 18.42071,-13.0655 19.01222,-24.1509 -7.01641,4.842 -17.20512,17.8835 -29.31862,7.999 -22.2455,-18.1521 -7.1203,45.13261 10.3064,61.27511 z"
         id="path40020"
         style="clip-rule:evenodd;fill:#ff6666;fill-rule:evenodd;stroke-width:0.01;image-rendering:optimizeQuality;shape-rendering:geometricPrecision;text-rendering:geometricPrecision" />
      <path
         class="fil27"
         d="m -284.00976,534.37681 h -12.56581 c -5.47129,0 -9.9477,4.4765 -9.9477,9.9478 v 22.7619 c 0,5.4712 4.47641,9.9477 9.9477,9.9477 h 12.56581 c 5.47121,0 9.94769,-4.4765 9.94769,-9.9477 v -22.7619 c 0,-5.4713 -4.47648,-9.9478 -9.94769,-9.9478 z"
         id="path40024"
         style="clip-rule:evenodd;fill:#999999;fill-rule:evenodd;stroke-width:0.01;image-rendering:optimizeQuality;shape-rendering:geometricPrecision;text-rendering:geometricPrecision" />
      <path
         class="fil27"
         d="m -244.48025,534.37681 h -12.5658 c -5.47132,0 -9.9477,4.4765 -9.9477,9.9478 v 22.7619 c 0,5.4712 4.47638,9.9477 9.9477,9.9477 h 12.5658 c 5.47119,0 9.9477,-4.4765 9.9477,-9.9477 v -22.7619 c 0,-5.4713 -4.47651,-9.9478 -9.9477,-9.9478 z"
         id="path40026"
         style="clip-rule:evenodd;fill:#999999;fill-rule:evenodd;stroke-width:0.01;image-rendering:optimizeQuality;shape-rendering:geometricPrecision;text-rendering:geometricPrecision" />
      <path
         class="fil10"
         d="m -254.83437,447.0342 h -36.3655 c -19.37179,0 -35.22131,15.8496 -35.22131,35.2215 v 43.98641 c 0,19.3718 15.84952,35.2215 35.22131,35.2215 h 36.3655 c 19.37181,0 35.22141,-15.8497 35.22141,-35.2215 V 482.2557 c 0,-19.3719 -15.8496,-35.2215 -35.22141,-35.2215 z"
         id="path40028"
         style="clip-rule:evenodd;fill:#cccccc;fill-rule:evenodd;stroke-width:0.01;image-rendering:optimizeQuality;shape-rendering:geometricPrecision;text-rendering:geometricPrecision" />
      <path
         class="fil3"
         d="m -279.81046,447.0805 h -11.48601 c -19.37178,0 -35.22141,15.8446 -35.22141,35.2102 v 44.00901 c 0,19.3656 15.84963,35.2102 35.22141,35.2102 h 10.2444 c -7.3207,-6.4643 -11.95728,-15.9053 -11.95728,-26.3778 V 474.5053 c 0,-11.053 5.16469,-20.9571 13.19889,-27.4248 z"
         id="path40030"
         style="clip-rule:evenodd;fill:#7d7c7d;fill-opacity:1;fill-rule:evenodd;stroke-width:0.01;image-rendering:optimizeQuality;shape-rendering:geometricPrecision;text-rendering:geometricPrecision" />
      <path
         class="fil27"
         d="m -238.02627,482.1023 h -46.08898 c -12.75641,0 -23.19333,10.4369 -23.19333,23.19321 v 0 c 0,12.7563 10.43692,23.1932 23.19333,23.1932 h 46.08898 c 12.75641,0 23.19333,-10.4369 23.19333,-23.1932 v 0 c 0,-12.75631 -10.43692,-23.19321 -23.19333,-23.19321 z"
         id="path40032"
         style="clip-rule:evenodd;fill:#999999;fill-rule:evenodd;stroke-width:0.01;image-rendering:optimizeQuality;shape-rendering:geometricPrecision;text-rendering:geometricPrecision" />
      <path
         class="fil9"
         d="m -241.69715,531.10591 h -32.07321 c -4.1919,0 -7.6218,3.4298 -7.6218,7.6218 v 0 c 0,4.192 3.4299,7.6218 7.6218,7.6218 h 32.07321 c 4.1919,0 7.6218,-3.4298 7.6218,-7.6218 v 0 c 0,-4.192 -3.4299,-7.6218 -7.6218,-7.6218 z"
         id="path40034"
         style="clip-rule:evenodd;fill:#b3b3b3;fill-rule:evenodd;stroke-width:0.01;image-rendering:optimizeQuality;shape-rendering:geometricPrecision;text-rendering:geometricPrecision" />
      <path
         class="fil9"
         d="m -249.39525,547.82241 h -21.06081 c -2.7527,0 -5.0048,2.2521 -5.0048,5.0048 v 0 c 0,2.7527 2.2521,5.0048 5.0048,5.0048 h 21.06081 c 2.7527,0 5.0047,-2.2521 5.0047,-5.0048 v 0 c 0,-2.7527 -2.252,-5.0048 -5.0047,-5.0048 z"
         id="path40036"
         style="clip-rule:evenodd;fill:#b3b3b3;fill-rule:evenodd;stroke-width:0.01;image-rendering:optimizeQuality;shape-rendering:geometricPrecision;text-rendering:geometricPrecision" />
      <path
         class="fil9"
         d="m -313.48197,517.58171 v 0 c -7.34311,0 -13.351,6.008 -13.351,13.351 v 15.6937 c 0,7.3432 6.00789,13.351 13.351,13.351 v 0 c 7.34312,0 13.35101,-6.0078 13.35101,-13.351 v -15.6937 c 0,-7.343 -6.00789,-13.351 -13.35101,-13.351 z"
         id="path40038"
         style="clip-rule:evenodd;fill:#b3b3b3;fill-rule:evenodd;stroke-width:0.01;image-rendering:optimizeQuality;shape-rendering:geometricPrecision;text-rendering:geometricPrecision" />
      <path
         class="fil57"
         d="m -237.47286,469.9326 h -43.72941 c -9.78771,0 -17.7958,8.008 -17.7958,17.7957 v 0 c 0,9.78771 8.00809,17.79571 17.7958,17.79571 h 43.72941 c 9.7877,0 17.79561,-8.008 17.79561,-17.79571 v 0 c 0,-9.7877 -8.00791,-17.7957 -17.79561,-17.7957 z"
         id="path40040"
         style="clip-rule:evenodd;fill:#ffffcc;fill-rule:evenodd;stroke-width:0.01;image-rendering:optimizeQuality;shape-rendering:geometricPrecision;text-rendering:geometricPrecision" />
      <path
         class="fil4"
         d="m -236.01676,509.94621 v 0 c -2.86369,0 -5.20649,2.3429 -5.20649,5.2065 v 6.1203 c 0,2.8636 2.3428,5.2065 5.20649,5.2065 v 0 c 2.86359,0 5.2065,-2.3429 5.2065,-5.2065 v -6.1203 c 0,-2.8636 -2.34291,-5.2065 -5.2065,-5.2065 z"
         id="path40042"
         style="clip-rule:evenodd;fill:#666666;fill-rule:evenodd;stroke-width:0.01;image-rendering:optimizeQuality;shape-rendering:geometricPrecision;text-rendering:geometricPrecision" />
      <path
         class="fil4"
         d="m -253.71346,509.94621 v 0 c -2.8637,0 -5.20661,2.3429 -5.20661,5.2065 v 6.1203 c 0,2.8636 2.34291,5.2065 5.20661,5.2065 v 0 c 2.86371,0 5.20649,-2.3429 5.20649,-5.2065 v -6.1203 c 0,-2.8636 -2.34278,-5.2065 -5.20649,-5.2065 z"
         id="path40044"
         style="clip-rule:evenodd;fill:#666666;fill-rule:evenodd;stroke-width:0.01;image-rendering:optimizeQuality;shape-rendering:geometricPrecision;text-rendering:geometricPrecision" />
      <path
         class="fil4"
         d="m -270.78187,509.94621 v 0 c -2.86358,0 -5.20649,2.3429 -5.20649,5.2065 v 6.1203 c 0,2.8636 2.34291,5.2065 5.20649,5.2065 v 0 c 2.86361,0 5.2065,-2.3429 5.2065,-5.2065 v -6.1203 c 0,-2.8636 -2.34289,-5.2065 -5.2065,-5.2065 z"
         id="path40046"
         style="clip-rule:evenodd;fill:#666666;fill-rule:evenodd;stroke-width:0.01;image-rendering:optimizeQuality;shape-rendering:geometricPrecision;text-rendering:geometricPrecision" />
      <path
         class="fil9"
         d="m -308.17816,482.8814 c -9.38791,0 -16.99842,7.6081 -16.99842,16.9931 0,9.38501 7.61051,16.99311 16.99842,16.99311 9.388,0 16.99851,-7.6081 16.99851,-16.99311 0,-9.385 -7.61051,-16.9931 -16.99851,-16.9931 z"
         id="path40048"
         style="clip-rule:evenodd;fill:#b3b3b3;fill-rule:evenodd;stroke-width:0.01;image-rendering:optimizeQuality;shape-rendering:geometricPrecision;text-rendering:geometricPrecision" />
      <path
         class="fil27"
         d="m -310.89977,489.1601 c -5.857,0 -10.605,4.7465 -10.605,10.6016 0,5.85511 4.748,10.60161 10.605,10.60161 5.8569,0 10.60501,-4.7465 10.60501,-10.60161 0,-5.8551 -4.74811,-10.6016 -10.60501,-10.6016 z"
         id="path40050"
         style="clip-rule:evenodd;fill:#999999;fill-rule:evenodd;stroke-width:0.01;image-rendering:optimizeQuality;shape-rendering:geometricPrecision;text-rendering:geometricPrecision" />
      <g
         id="g40058"
         style="clip-rule:evenodd;fill:#333333;fill-opacity:1;fill-rule:evenodd;image-rendering:optimizeQuality;shape-rendering:geometricPrecision;text-rendering:geometricPrecision"
         transform="matrix(-0.01,0,0,0.01,-5887.3785,-1209.2468)">
        <path
           class="fil0"
           d="m -566190.17,168434.46 v 0 c 140.38,-140.38 370.09,-140.38 510.47,0 l 2001.57,2001.57 c 140.39,140.38 140.39,370.1 0,510.48 v 0 c -140.38,140.39 -370.09,140.38 -510.48,0 l -2001.57,-2001.57 c -140.38,-140.38 -140.38,-370.09 0,-510.47 z"
           id="path40054"
           style="fill:#333333;fill-opacity:1" />
        <path
           class="fil0"
           d="m -563678.12,168434.46 v 0 c -140.38,-140.38 -370.09,-140.38 -510.48,0 l -2001.57,2001.57 c -140.38,140.38 -140.38,370.1 0,510.48 v 0 c 140.38,140.39 370.09,140.38 510.47,0 l 2001.57,-2001.57 c 140.39,-140.38 140.39,-370.09 0,-510.47 z"
           id="path40056"
           style="fill:#333333;fill-opacity:1" />
      </g>
      <g
         id="g40064"
         style="clip-rule:evenodd;fill:#333333;fill-opacity:1;fill-rule:evenodd;image-rendering:optimizeQuality;shape-rendering:geometricPrecision;text-rendering:geometricPrecision"
         transform="matrix(-0.01,0,0,0.01,-5887.3785,-1209.2468)">
        <path
           class="fil0"
           d="m -562446.3,168434.46 v 0 c 140.38,-140.38 370.09,-140.38 510.47,0 l 2001.57,2001.57 c 140.39,140.38 140.39,370.1 0,510.48 v 0 c -140.38,140.39 -370.09,140.38 -510.48,0 l -2001.57,-2001.57 c -140.38,-140.38 -140.38,-370.09 0,-510.47 z"
           id="path40060"
           style="fill:#333333;fill-opacity:1" />
        <path
           class="fil0"
           d="m -559934.25,168434.46 v 0 c -140.38,-140.38 -370.09,-140.38 -510.48,0 l -2001.57,2001.57 c -140.38,140.38 -140.38,370.1 0,510.48 v 0 c 140.38,140.39 370.09,140.38 510.47,0 l 2001.57,-2001.57 c 140.39,-140.38 140.39,-370.09 0,-510.47 z"
           id="path40062"
           style="fill:#333333;fill-opacity:1" />
      </g>
    </g>
    <g
       id="g828"
       transform="matrix(0.31403264,0,0,0.31442848,244.38707,114.66152)">
      <path
         class="fil51"
         d="m -551.06977,439.1079 c -11.4692,11.4692 -12.1393,29.3944 -1.4967,40.037 16.2719,16.272 56.0258,22.73071 78.01599,21.88941 -22.80349,-10.3568 -33.47539,-18.18491 -31.90689,-31.90691 5.1284,-10.6105 3.6844,-23.2564 -4.5754,-31.5162 -10.6426,-10.64261 -28.5678,-9.9725 -40.037,1.4967 z"
         id="path40077"
         style="clip-rule:evenodd;fill:#ff9999;fill-rule:evenodd;stroke-width:0.01;image-rendering:optimizeQuality;shape-rendering:geometricPrecision;text-rendering:geometricPrecision" />
      <g
         id="g664">
        <path
           class="fil3"
           d="m -386.88879,484.0918 v 0 c -5.19239,5.1923 -5.19239,13.68891 0,18.88121 l 11.09721,11.0971 c 5.1924,5.1924 13.6888,5.1923 18.8812,0 v 0 c 5.19231,-5.1923 5.19242,-13.6887 0,-18.8811 l -11.09718,-11.09711 c -5.19232,-5.1923 -13.68873,-5.1924 -18.88112,0 z"
           id="path40069"
           style="clip-rule:evenodd;fill:#666666;fill-rule:evenodd;stroke-width:0.01;image-rendering:optimizeQuality;shape-rendering:geometricPrecision;text-rendering:geometricPrecision" />
        <path
           class="fil51"
           d="m -496.30967,419.78519 c -16.0663,2.2271 -27.4154,16.1181 -25.3489,31.02641 3.1596,22.7941 30.9665,51.9293 49.01118,64.52561 -11.93718,-22.01741 -15.72518,-34.69891 -6.19551,-44.69581 10.49142,-5.3678 16.96942,-16.3241 15.36563,-27.8946 -2.06651,-14.9083 -16.76612,-25.18861 -32.8324,-22.96161 z"
           id="path40071"
           style="clip-rule:evenodd;fill:#ff9999;fill-rule:evenodd;stroke-width:0.01;image-rendering:optimizeQuality;shape-rendering:geometricPrecision;text-rendering:geometricPrecision" />
        <path
           class="fil52"
           d="m -472.52079,515.49571 c -11.9372,-22.0174 -15.72508,-34.69891 -6.19551,-44.69581 10.07891,-5.1566 16.45233,-15.471 15.5162,-26.5326 -6.28509,5.7595 -14.58669,20.0764 -27.94267,11.9487 -24.5271,-14.9258 -0.856,45.6828 18.62198,59.27971 z"
           id="path40073"
           style="clip-rule:evenodd;fill:#ff6666;fill-rule:evenodd;stroke-width:0.01;image-rendering:optimizeQuality;shape-rendering:geometricPrecision;text-rendering:geometricPrecision" />
        <path
           class="fil52"
           d="m -474.3539,501.08431 c -22.80337,-10.35681 -33.47537,-18.18491 -31.90687,-31.90691 4.9268,-10.1931 3.7867,-22.2641 -3.6336,-30.5209 -1.5375,8.3851 0.4797,24.8114 -15.0752,26.3875 -28.5654,2.8945 26.8787,36.94841 50.61567,36.04031 z"
           id="path40079"
           style="clip-rule:evenodd;fill:#ff6666;fill-rule:evenodd;stroke-width:0.01;image-rendering:optimizeQuality;shape-rendering:geometricPrecision;text-rendering:geometricPrecision" />
        <path
           class="fil27"
           d="m -414.02787,535.15831 -8.88531,8.8854 c -3.86879,3.8688 -3.86869,10.1995 0,14.0682 l 16.0951,16.0951 c 3.86879,3.86881 10.1994,3.86881 14.06822,0 l 8.88539,-8.8853 c 3.86869,-3.8688 3.86869,-10.1995 0,-14.0683 l -16.0951,-16.0951 c -3.86882,-3.8687 -10.19951,-3.8687 -14.0683,0 z"
           id="path40083"
           style="clip-rule:evenodd;fill:#999999;fill-rule:evenodd;stroke-width:0.01;image-rendering:optimizeQuality;shape-rendering:geometricPrecision;text-rendering:geometricPrecision" />
        <path
           class="fil27"
           d="m -386.07628,507.20671 -8.88529,8.8854 c -3.86881,3.8688 -3.86881,10.1995 0,14.0682 l 16.09508,16.0951 c 3.86871,3.8688 10.19943,3.8688 14.06822,0 l 8.88539,-8.8853 c 3.86871,-3.8687 3.86871,-10.1995 0,-14.0683 l -16.0951,-16.095 c -3.8688,-3.8688 -10.19951,-3.8688 -14.0683,0 z"
           id="path40085"
           style="clip-rule:evenodd;fill:#999999;fill-rule:evenodd;stroke-width:0.01;image-rendering:optimizeQuality;shape-rendering:geometricPrecision;text-rendering:geometricPrecision" />
        <path
           class="fil10"
           d="m -455.15827,452.7677 -25.71422,25.7142 c -13.69788,13.698 -13.69788,36.11261 0,49.81061 l 31.1032,31.1031 c 13.6979,13.698 36.11261,13.698 49.81051,0 l 25.7143,-25.7143 c 13.6979,-13.6979 13.6979,-36.1126 0,-49.81061 l -31.1032,-31.1031 c -13.69801,-13.698 -36.11261,-13.698 -49.81059,0 z"
           id="path40087"
           style="clip-rule:evenodd;fill:#cccccc;fill-rule:evenodd;stroke-width:0.01;image-rendering:optimizeQuality;shape-rendering:geometricPrecision;text-rendering:geometricPrecision" />
        <path
           class="fil3"
           d="m -472.78629,470.4612 -8.12179,8.1218 c -13.69799,13.6979 -13.70149,36.10911 -0.008,49.80271 l 31.11902,31.119 c 13.69361,13.6936 36.10472,13.69 49.80262,-0.008 l 7.2439,-7.2439 c -9.74741,0.6056 -19.7018,-2.7917 -27.10701,-10.1968 l -42.86952,-42.86962 c -7.81572,-7.8156 -11.1669,-18.4708 -10.05922,-28.7252 z"
           id="path40089"
           style="clip-rule:evenodd;fill:#7d7c7d;fill-opacity:1;fill-rule:evenodd;stroke-width:0.01;image-rendering:optimizeQuality;shape-rendering:geometricPrecision;text-rendering:geometricPrecision" />
        <path
           class="fil27"
           d="m -418.47617,465.6794 -32.58992,32.58991 c -9.0201,9.0201 -9.0201,23.7801 0,32.8002 v 0 c 9.02001,9.0201 23.78001,9.0202 32.8001,0 l 32.58992,-32.5898 c 9.0202,-9.02021 9.0201,-23.78011 0,-32.80021 v 0 c -9.02001,-9.0201 -23.78001,-9.0201 -32.8001,0 z"
           id="path40091"
           style="clip-rule:evenodd;fill:#999999;fill-rule:evenodd;stroke-width:0.01;image-rendering:optimizeQuality;shape-rendering:geometricPrecision;text-rendering:geometricPrecision" />
        <path
           class="fil9"
           d="m -386.42119,502.926 -22.67908,22.67911 c -2.9642,2.9642 -2.9642,7.8146 0,10.7788 v 0 c 2.96418,2.9642 7.81468,2.9642 10.77889,0 l 22.67911,-22.6791 c 2.9642,-2.9642 2.9642,-7.8147 0,-10.7789 v 0 c -2.96421,-2.9642 -7.81471,-2.9642 -10.77892,0 z"
           id="path40093"
           style="clip-rule:evenodd;fill:#b3b3b3;fill-rule:evenodd;stroke-width:0.01;image-rendering:optimizeQuality;shape-rendering:geometricPrecision;text-rendering:geometricPrecision" />
        <path
           class="fil9"
           d="m -380.04428,520.18961 -14.89221,14.8922 c -1.94638,1.9465 -1.94638,5.1314 0,7.0779 v 0 c 1.94652,1.9464 5.13141,1.9464 7.07793,0 l 14.89218,-14.8922 c 1.9464,-1.9465 1.9464,-5.1314 0,-7.0779 v 0 c -1.94649,-1.9465 -5.13139,-1.9465 -7.0779,0 z"
           id="path40095"
           style="clip-rule:evenodd;fill:#b3b3b3;fill-rule:evenodd;stroke-width:0.01;image-rendering:optimizeQuality;shape-rendering:geometricPrecision;text-rendering:geometricPrecision" />
        <path
           class="fil9"
           d="m -446.74367,544.12241 v 0 c -5.1924,5.1923 -5.1924,13.6889 0,18.8812 l 11.09718,11.09711 c 5.19231,5.1924 13.68882,5.19229 18.88122,0 v 0 c 5.19229,-5.19231 5.19229,-13.68871 0,-18.88111 l -11.09721,-11.0971 c -5.19229,-5.1923 -13.6888,-5.1924 -18.88112,0 z"
           id="path40097"
           style="clip-rule:evenodd;fill:#b3b3b3;fill-rule:evenodd;stroke-width:0.01;image-rendering:optimizeQuality;shape-rendering:geometricPrecision;text-rendering:geometricPrecision" />
        <path
           class="fil57"
           d="m -426.69019,456.6828 -30.9214,30.9214 c -6.9209,6.92091 -6.921,18.24601 0,25.16691 v 0 c 6.92102,6.921 18.24611,6.921 25.167,0 l 30.92141,-30.92131 c 6.92092,-6.921 6.92092,-18.246 0,-25.167 v 0 c -6.92089,-6.9209 -18.24591,-6.9209 -25.1668,0 z"
           id="path40099"
           style="clip-rule:evenodd;fill:#ffffcc;fill-rule:evenodd;stroke-width:0.01;image-rendering:optimizeQuality;shape-rendering:geometricPrecision;text-rendering:geometricPrecision" />
        <path
           class="fil4"
           d="m -397.36668,483.9471 v 0 c -2.02489,2.0249 -2.02489,5.33821 0,7.3631 l 4.32771,4.32771 c 2.02491,2.02489 5.3382,2.02489 7.36309,0 v 0 c 2.02491,-2.0248 2.0248,-5.33821 0,-7.36311 l -4.32769,-4.3277 c -2.02491,-2.0248 -5.33831,-2.0249 -7.36311,0 z"
           id="path40101"
           style="clip-rule:evenodd;fill:#666666;fill-rule:evenodd;stroke-width:0.01;image-rendering:optimizeQuality;shape-rendering:geometricPrecision;text-rendering:geometricPrecision" />
        <path
           class="fil4"
           d="m -409.88007,496.46051 v 0 c -2.02491,2.02489 -2.02491,5.33819 0,7.3631 l 4.32768,4.3277 c 2.02491,2.0249 5.33821,2.0249 7.36312,0 v 0 c 2.02491,-2.0249 2.0248,-5.3382 0,-7.3631 l -4.32771,-4.3277 c -2.02489,-2.0248 -5.33821,-2.02491 -7.36309,0 z"
           id="path40103"
           style="clip-rule:evenodd;fill:#666666;fill-rule:evenodd;stroke-width:0.01;image-rendering:optimizeQuality;shape-rendering:geometricPrecision;text-rendering:geometricPrecision" />
        <path
           class="fil4"
           d="m -421.94928,508.5297 v 0 c -2.02491,2.02491 -2.02491,5.33821 0,7.36311 l 4.32771,4.3277 c 2.02488,2.0249 5.33818,2.0249 7.36309,0 v 0 c 2.02491,-2.0248 2.0248,-5.3382 0,-7.363 l -4.32771,-4.32781 c -2.02488,-2.02479 -5.33829,-2.02489 -7.36309,0 z"
           id="path40105"
           style="clip-rule:evenodd;fill:#666666;fill-rule:evenodd;stroke-width:0.01;image-rendering:optimizeQuality;shape-rendering:geometricPrecision;text-rendering:geometricPrecision" />
        <path
           class="fil9"
           d="m -467.53019,515.83521 c -6.63829,6.6383 -6.64001,17.3995 -0.004,24.0357 6.6362,6.6361 17.39738,6.6344 24.0357,-0.004 6.63829,-6.6382 6.63998,-17.3994 0.004,-24.0356 -6.6362,-6.6362 -17.39738,-6.6345 -24.0357,0.004 z"
           id="path40107"
           style="clip-rule:evenodd;fill:#b3b3b3;fill-rule:evenodd;stroke-width:0.01;image-rendering:optimizeQuality;shape-rendering:geometricPrecision;text-rendering:geometricPrecision" />
        <path
           class="fil27"
           d="m -465.01498,522.19941 c -4.1415,4.1415 -4.1425,10.8551 -0.003,14.9953 4.1402,4.1402 10.8539,4.1391 14.9954,-0.002 4.14141,-4.1415 4.1425,-10.8551 0.003,-14.9953 -4.14009,-4.1402 -10.85379,-4.1391 -14.99528,0.002 z"
           id="path40109"
           style="clip-rule:evenodd;fill:#999999;fill-rule:evenodd;stroke-width:0.01;image-rendering:optimizeQuality;shape-rendering:geometricPrecision;text-rendering:geometricPrecision" />
        <path
           class="fil0"
           d="m -414.55478,451.8523 v 0 c -1.9853,0 -3.60961,1.6243 -3.60961,3.6096 v 28.3065 c 0,1.9853 1.62431,3.6097 3.60961,3.6097 v 0 c 1.9853,0 3.6096,-1.6244 3.6096,-3.6097 v -28.3065 c 0,-1.9853 -1.6243,-3.6096 -3.6096,-3.6096 z"
           id="path40113"
           style="clip-rule:evenodd;fill:#333333;fill-opacity:1;fill-rule:evenodd;stroke-width:0.01;image-rendering:optimizeQuality;shape-rendering:geometricPrecision;text-rendering:geometricPrecision" />
        <path
           class="fil0"
           d="m -432.31769,469.6152 v 0 c 0,-1.9853 1.6243,-3.6096 3.6096,-3.6096 h 28.3065 c 1.9853,0 3.60961,1.6243 3.60961,3.6096 v 0 c 0,1.9853 -1.62431,3.6096 -3.60961,3.6096 h -28.3065 c -1.9853,0 -3.6096,-1.6243 -3.6096,-3.6096 z"
           id="path40115"
           style="clip-rule:evenodd;fill:#333333;fill-opacity:1;fill-rule:evenodd;stroke-width:0.01;image-rendering:optimizeQuality;shape-rendering:geometricPrecision;text-rendering:geometricPrecision" />
        <path
           class="fil0"
           d="m -441.02799,478.3255 v 0 c -1.9853,0 -3.6096,1.6243 -3.6096,3.6096 v 28.30651 c 0,1.9853 1.6243,3.6096 3.6096,3.6096 v 0 c 1.9853,0 3.60961,-1.6243 3.60961,-3.6096 V 481.9351 c 0,-1.9853 -1.62431,-3.6096 -3.60961,-3.6096 z"
           id="path40119"
           style="clip-rule:evenodd;fill:#333333;fill-opacity:1;fill-rule:evenodd;stroke-width:0.01;image-rendering:optimizeQuality;shape-rendering:geometricPrecision;text-rendering:geometricPrecision" />
        <path
           class="fil0"
           d="m -458.79089,496.0884 v 0 c 0,-1.98529 1.6243,-3.6096 3.6096,-3.6096 h 28.3065 c 1.9853,0 3.60971,1.62431 3.60971,3.6096 v 0 c 0,1.98531 -1.62441,3.60961 -3.60971,3.60961 h -28.3065 c -1.9853,0 -3.6096,-1.6243 -3.6096,-3.60961 z"
           id="path40121"
           style="clip-rule:evenodd;fill:#333333;fill-opacity:1;fill-rule:evenodd;stroke-width:0.01;image-rendering:optimizeQuality;shape-rendering:geometricPrecision;text-rendering:geometricPrecision" />
      </g>
    </g>
    <g
       id="g613"
       transform="matrix(-0.30953539,0,0,0.31432456,367.42744,110.39143)">
      <path
         class="fil3"
         d="m 595.92436,478.8586 v 0 c 0,7.3431 -6.008,13.3511 -13.351,13.3511 h -15.6937 c -7.3432,0 -13.351,-6.008 -13.351,-13.3511 v 0 c 0,-7.3431 6.0078,-13.3509 13.351,-13.3509 h 15.6937 c 7.343,0 13.351,6.0078 13.351,13.3509 z"
         id="path40128"
         style="clip-rule:evenodd;fill:#666666;fill-rule:evenodd;stroke-width:0.01;image-rendering:optimizeQuality;shape-rendering:geometricPrecision;text-rendering:geometricPrecision" />
      <path
         class="fil51"
         d="m 718.76816,510.75931 c 9.786,12.9353 7.9886,30.7828 -4.0146,39.8634 -18.352,13.8836 -58.6161,14.8229 -80.2826,10.9703 24.0096,-7.1278 35.6553,-13.4165 35.9857,-27.2239 -3.6231,-11.2141 -0.4563,-23.542 8.8592,-30.5895 12.0032,-9.0806 29.6665,-5.95561 39.4523,6.9797 z"
         id="path40130"
         style="clip-rule:evenodd;fill:#ff9999;fill-rule:evenodd;stroke-width:0.01;image-rendering:optimizeQuality;shape-rendering:geometricPrecision;text-rendering:geometricPrecision" />
      <path
         class="fil52"
         d="m 634.26936,561.61551 c 24.0095,-7.1278 35.6552,-13.4165 35.9856,-27.2238 -3.4804,-10.7731 -0.6939,-22.5732 7.7899,-29.733 0.3716,8.5169 -3.8819,24.5105 11.3094,28.2075 27.8974,6.7891 -31.6974,32.9079 -55.0849,28.7493 z"
         id="path40132"
         style="clip-rule:evenodd;fill:#ff6666;fill-rule:evenodd;stroke-width:0.01;image-rendering:optimizeQuality;shape-rendering:geometricPrecision;text-rendering:geometricPrecision" />
      <path
         class="fil51"
         d="m 743.82636,563.14371 c 0,16.2199 -12.2013,29.36881 -27.2522,29.36881 -23.012,0 -55.6892,-23.54321 -70.6438,-39.68751 23.4479,8.8011 36.5294,10.812 45.1232,0 3.8765,-11.1291 13.8396,-19.0501 25.5206,-19.0501 15.0509,0 27.2522,13.1489 27.2522,29.3688 z"
         id="path40136"
         style="clip-rule:evenodd;fill:#ff9999;fill-rule:evenodd;stroke-width:0.01;image-rendering:optimizeQuality;shape-rendering:geometricPrecision;text-rendering:geometricPrecision" />
      <path
         class="fil52"
         d="m 645.75596,552.72131 c 23.4479,8.8011 36.5294,10.812 45.1232,0 3.7239,-10.6914 13.0656,-18.4207 24.1509,-19.0122 -4.8419,7.0164 -17.8834,17.2051 -7.999,29.3186 18.1522,22.2455 -45.1326,7.1203 -61.2751,-10.3064 z"
         id="path40138"
         style="clip-rule:evenodd;fill:#ff6666;fill-rule:evenodd;stroke-width:0.01;image-rendering:optimizeQuality;shape-rendering:geometricPrecision;text-rendering:geometricPrecision" />
      <path
         class="fil27"
         d="m 579.00506,534.15841 v 12.5657 c 0,5.4713 -4.4765,9.9478 -9.9478,9.9478 h -22.7619 c -5.4712,0 -9.9477,-4.4765 -9.9477,-9.9478 v -12.5657 c 0,-5.4713 4.4765,-9.9478 9.9477,-9.9478 h 22.7619 c 5.4713,0 9.9478,4.4765 9.9478,9.9478 z"
         id="path40142"
         style="clip-rule:evenodd;fill:#999999;fill-rule:evenodd;stroke-width:0.01;image-rendering:optimizeQuality;shape-rendering:geometricPrecision;text-rendering:geometricPrecision" />
      <path
         class="fil27"
         d="m 579.00506,494.6288 v 12.56581 c 0,5.4713 -4.4765,9.9478 -9.9478,9.9478 h -22.7619 c -5.4712,0 -9.9477,-4.4765 -9.9477,-9.9478 V 494.6288 c 0,-5.4712 4.4765,-9.9477 9.9477,-9.9477 h 22.7619 c 5.4713,0 9.9478,4.4765 9.9478,9.9477 z"
         id="path40144"
         style="clip-rule:evenodd;fill:#999999;fill-rule:evenodd;stroke-width:0.01;image-rendering:optimizeQuality;shape-rendering:geometricPrecision;text-rendering:geometricPrecision" />
      <path
         class="fil10"
         d="m 666.34776,504.98301 v 36.3654 c 0,19.3718 -15.8497,35.2214 -35.2216,35.2214 h -43.9864 c -19.3718,0 -35.2215,-15.8496 -35.2215,-35.2214 v -36.3654 c 0,-19.37191 15.8497,-35.22141 35.2215,-35.22141 h 43.9864 c 19.3719,0 35.2216,15.8495 35.2216,35.22141 z"
         id="path40146"
         style="clip-rule:evenodd;fill:#cccccc;fill-rule:evenodd;stroke-width:0.01;image-rendering:optimizeQuality;shape-rendering:geometricPrecision;text-rendering:geometricPrecision" />
      <path
         class="fil3"
         d="m 666.30146,529.95901 v 11.4861 c 0,19.3718 -15.8446,35.2213 -35.2103,35.2213 h -44.009 c -19.3656,0 -35.2102,-15.8495 -35.2102,-35.2213 v -10.2444 c 6.4643,7.3206 15.9053,11.9572 26.3778,11.9572 h 60.6269 c 11.0529,0 20.957,-5.1646 27.4248,-13.1989 z"
         id="path40148"
         style="clip-rule:evenodd;fill:#7d7c7d;fill-opacity:1;fill-rule:evenodd;stroke-width:0.01;image-rendering:optimizeQuality;shape-rendering:geometricPrecision;text-rendering:geometricPrecision" />
      <path
         class="fil27"
         d="m 631.27956,488.1748 v 46.08911 c 0,12.7563 -10.4369,23.1932 -23.1932,23.1932 v 0 c -12.7563,0 -23.1932,-10.4369 -23.1932,-23.1932 V 488.1748 c 0,-12.7564 10.4369,-23.1932 23.1932,-23.1932 v 0 c 12.7563,0 23.1932,10.4368 23.1932,23.1932 z"
         id="path40150"
         style="clip-rule:evenodd;fill:#999999;fill-rule:evenodd;stroke-width:0.01;image-rendering:optimizeQuality;shape-rendering:geometricPrecision;text-rendering:geometricPrecision" />
      <path
         class="fil9"
         d="m 582.27596,491.8458 v 32.07311 c 0,4.192 -3.4298,7.6218 -7.6218,7.6218 v 0 c -4.192,0 -7.6218,-3.4298 -7.6218,-7.6218 V 491.8458 c 0,-4.192 3.4298,-7.6218 7.6218,-7.6218 v 0 c 4.192,0 7.6218,3.4298 7.6218,7.6218 z"
         id="path40152"
         style="clip-rule:evenodd;fill:#b3b3b3;fill-rule:evenodd;stroke-width:0.01;image-rendering:optimizeQuality;shape-rendering:geometricPrecision;text-rendering:geometricPrecision" />
      <path
         class="fil9"
         d="m 565.55946,499.5439 v 21.06071 c 0,2.7527 -2.2521,5.0048 -5.0048,5.0048 v 0 c -2.7527,0 -5.0048,-2.2521 -5.0048,-5.0048 V 499.5439 c 0,-2.75269 2.2521,-5.0048 5.0048,-5.0048 v 0 c 2.7527,0 5.0048,2.25211 5.0048,5.0048 z"
         id="path40154"
         style="clip-rule:evenodd;fill:#b3b3b3;fill-rule:evenodd;stroke-width:0.01;image-rendering:optimizeQuality;shape-rendering:geometricPrecision;text-rendering:geometricPrecision" />
      <path
         class="fil9"
         d="m 595.80016,563.63051 v 0 c 0,7.3431 -6.008,13.3511 -13.351,13.3511 h -15.6937 c -7.3432,0 -13.351,-6.008 -13.351,-13.3511 v 0 c 0,-7.3431 6.0078,-13.351 13.351,-13.351 h 15.6937 c 7.343,0 13.351,6.0079 13.351,13.351 z"
         id="path40156"
         style="clip-rule:evenodd;fill:#b3b3b3;fill-rule:evenodd;stroke-width:0.01;image-rendering:optimizeQuality;shape-rendering:geometricPrecision;text-rendering:geometricPrecision" />
      <path
         class="fil57"
         d="m 643.44926,487.6215 v 43.72941 c 0,9.7876 -8.008,17.7957 -17.7957,17.7957 v 0 c -9.7877,0 -17.7957,-8.0081 -17.7957,-17.7957 V 487.6215 c 0,-9.7877 8.008,-17.7957 17.7957,-17.7957 v 0 c 9.7877,0 17.7957,8.008 17.7957,17.7957 z"
         id="path40158"
         style="clip-rule:evenodd;fill:#ffffcc;fill-rule:evenodd;stroke-width:0.01;image-rendering:optimizeQuality;shape-rendering:geometricPrecision;text-rendering:geometricPrecision" />
      <path
         class="fil4"
         d="m 603.43566,486.1654 v 0 c 0,2.8636 -2.3429,5.2065 -5.2065,5.2065 h -6.1203 c -2.8636,0 -5.2065,-2.3429 -5.2065,-5.2065 v 0 c 0,-2.8636 2.3429,-5.2065 5.2065,-5.2065 h 6.1203 c 2.8636,0 5.2065,2.3429 5.2065,5.2065 z"
         id="path40160"
         style="clip-rule:evenodd;fill:#666666;fill-rule:evenodd;stroke-width:0.01;image-rendering:optimizeQuality;shape-rendering:geometricPrecision;text-rendering:geometricPrecision" />
      <path
         class="fil4"
         d="m 603.43566,503.86201 v 0 c 0,2.8636 -2.3429,5.2065 -5.2065,5.2065 h -6.1203 c -2.8636,0 -5.2065,-2.3429 -5.2065,-5.2065 v 0 c 0,-2.8636 2.3429,-5.2065 5.2065,-5.2065 h 6.1203 c 2.8636,0 5.2065,2.3429 5.2065,5.2065 z"
         id="path40162"
         style="clip-rule:evenodd;fill:#666666;fill-rule:evenodd;stroke-width:0.01;image-rendering:optimizeQuality;shape-rendering:geometricPrecision;text-rendering:geometricPrecision" />
      <path
         class="fil4"
         d="m 603.43566,520.93041 v 0 c 0,2.8636 -2.3429,5.2065 -5.2065,5.2065 h -6.1203 c -2.8636,0 -5.2065,-2.3429 -5.2065,-5.2065 v 0 c 0,-2.8636 2.3429,-5.2065 5.2065,-5.2065 h 6.1203 c 2.8636,0 5.2065,2.3429 5.2065,5.2065 z"
         id="path40164"
         style="clip-rule:evenodd;fill:#666666;fill-rule:evenodd;stroke-width:0.01;image-rendering:optimizeQuality;shape-rendering:geometricPrecision;text-rendering:geometricPrecision" />
      <path
         class="fil9"
         d="m 630.50056,558.32671 c 0,9.3879 -7.6082,16.9985 -16.9932,16.9985 -9.385,0 -16.9931,-7.6106 -16.9931,-16.9985 0,-9.388 7.6081,-16.9985 16.9931,-16.9985 9.385,0 16.9932,7.6105 16.9932,16.9985 z"
         id="path40166"
         style="clip-rule:evenodd;fill:#b3b3b3;fill-rule:evenodd;stroke-width:0.01;image-rendering:optimizeQuality;shape-rendering:geometricPrecision;text-rendering:geometricPrecision" />
      <path
         class="fil27"
         d="m 624.22176,561.04831 c 0,5.857 -4.7465,10.605 -10.6016,10.605 -5.8551,0 -10.6016,-4.748 -10.6016,-10.605 0,-5.8569 4.7465,-10.6049 10.6016,-10.6049 5.8551,0 10.6016,4.748 10.6016,10.6049 z"
         id="path40168"
         style="clip-rule:evenodd;fill:#999999;fill-rule:evenodd;stroke-width:0.01;image-rendering:optimizeQuality;shape-rendering:geometricPrecision;text-rendering:geometricPrecision" />
      <g
         id="g40176"
         style="clip-rule:evenodd;fill:#333333;fill-opacity:1;fill-rule:evenodd;image-rendering:optimizeQuality;shape-rendering:geometricPrecision;text-rendering:geometricPrecision"
         transform="matrix(0.01,0,0,0.01,5842.7037,-1209.2468)">
        <path
           class="fil0"
           d="m -520441.92,168487.14 v 0 c 140.38,140.38 140.38,370.09 0,510.48 l -2001.57,2001.57 c -140.38,140.38 -370.1,140.38 -510.48,0 v 0 c -140.39,-140.38 -140.38,-370.09 0,-510.47 l 2001.57,-2001.57 c 140.38,-140.39 370.09,-140.39 510.47,0 z"
           id="path40172"
           style="fill:#333333;fill-opacity:1" />
        <path
           class="fil0"
           d="m -520441.92,170999.19 v 0 c 140.38,-140.38 140.38,-370.09 0,-510.47 l -2001.57,-2001.57 c -140.38,-140.39 -370.1,-140.39 -510.48,0 v 0 c -140.39,140.38 -140.38,370.09 0,510.48 l 2001.57,2001.57 c 140.38,140.38 370.09,140.38 510.47,0 z"
           id="path40174"
           style="fill:#333333;fill-opacity:1" />
      </g>
      <g
         id="g40182"
         style="clip-rule:evenodd;fill:#333333;fill-opacity:1;fill-rule:evenodd;image-rendering:optimizeQuality;shape-rendering:geometricPrecision;text-rendering:geometricPrecision"
         transform="matrix(0.01,0,0,0.01,5842.7037,-1209.2468)">
        <path
           class="fil0"
           d="m -520441.92,172231.01 v 0 c 140.38,140.38 140.38,370.09 0,510.48 l -2001.57,2001.57 c -140.38,140.38 -370.1,140.38 -510.48,0 v 0 c -140.39,-140.38 -140.38,-370.09 0,-510.47 l 2001.57,-2001.57 c 140.38,-140.39 370.09,-140.39 510.47,0 z"
           id="path40178"
           style="fill:#333333;fill-opacity:1" />
        <path
           class="fil0"
           d="m -520441.92,174743.06 v 0 c 140.38,-140.38 140.38,-370.09 0,-510.47 l -2001.57,-2001.57 c -140.38,-140.39 -370.1,-140.39 -510.48,0 v 0 c -140.39,140.38 -140.38,370.09 0,510.48 l 2001.57,2001.57 c 140.38,140.38 370.09,140.38 510.47,0 z"
           id="path40180"
           style="fill:#333333;fill-opacity:1" />
      </g>
    </g>
    <g
       id="g1436"
       transform="translate(-181.32695,148.97302)">
      <path
         class="fil22"
         d="m 342.35132,-39.25535 c -1.658,0 -3.269,0.2039 -4.809,0.5858 h 10e-4 c 0.132,0.0327 0.263,0.0667 0.394,0.1021 l 0.021,0.0058 c 0.79999,0.217101 1.58099,0.482301 2.33699,0.793401 l 0.013,0.005 c 0.123,0.0506 0.245,0.1024 0.367,0.1554 l 0.017,0.0077 c 0.744,0.3249 1.465,0.6937 2.159,1.1037 l 0.034,0.0205 c 0.108,0.0642 0.216,0.1292 0.323,0.1954 l 0.029,0.0184 c 0.559,0.3479 1.1,0.7225 1.62,1.1225 0.017,0.0128 0.034,0.0256 0.051,0.0385 0.091,0.0705 0.181,0.1418 0.271,0.2138 l 0.063,0.0511 c 0.09,0.0722 0.179,0.145 0.267,0.2188 0.016,0.0134 0.032,0.027 0.048,0.0405 0.387,0.3269 0.763,0.6682 1.125,1.0233 0.018,0.0178 0.036,0.0352 0.054,0.053 0.076,0.0749 0.151,0.1507 0.225,0.2268 0.027,0.0279 0.055,0.0558 0.082,0.0839 0.07,0.0727 0.14,0.1461 0.21,0.22 0.029,0.0313 0.058,0.063 0.088,0.0945 0.069,0.0742 0.137,0.1487 0.205,0.224 0.025,0.0278 0.049,0.0559 0.074,0.0838 0.231,0.259301 0.455,0.5245 0.672,0.7957 0.021,0.027 0.043,0.0537 0.065,0.0808 0.058,0.0736 0.115,0.148 0.172,0.2225 0.033,0.0421 0.065,0.0841 0.097,0.126401 0.054,0.0712 0.107,0.142999 0.16,0.215 0.035,0.0468 0.069,0.0939 0.103,0.141099 0.051,0.0702 0.101,0.140801 0.151,0.2118 0.035,0.0496 0.069,0.0996 0.104,0.149501 0.049,0.0709 0.098,0.1419 0.146,0.2136 0.032,0.0486 0.064,0.0979 0.096,0.1468 0.121,0.184 0.24,0.3696 0.355,0.5577 l 0.004,0.0071 c 0.042,0.0689 0.083,0.1386 0.124,0.208 0.035,0.0584 0.07,0.1166 0.104,0.1754 0.039,0.0676 0.078,0.1357 0.116,0.2038 0.035,0.0624 0.07,0.1248 0.105,0.1876 0.037,0.0665 0.073,0.1334 0.109,0.2005 0.035,0.0654 0.069,0.1312 0.104,0.197 0.034,0.0658 0.068,0.1318 0.102,0.198 0.035,0.0698 0.07,0.1401 0.104,0.2104 0.031,0.0634 0.063,0.1267 0.093,0.1905 0.042,0.0862 0.082,0.1731 0.122,0.2601 0.034,0.0748 0.069,0.1497 0.102,0.225 0.047,0.1041 0.093,0.2085 0.137,0.3136 0.025,0.0584 0.049,0.1174 0.073,0.1761 0.034,0.0809 0.067,0.1619 0.1,0.2433 0.025,0.0619 0.049,0.1242 0.073,0.1865 0.03,0.0796 0.061,0.1594 0.091,0.2395 0.023,0.0625 0.046,0.1251 0.069,0.1879 0.029,0.0825 0.058,0.1652 0.087,0.2481 0.021,0.0604 0.042,0.1207 0.062,0.1814 0.031,0.0919 0.061,0.1844 0.09,0.2768 0.017,0.0523 0.034,0.1043 0.05,0.1567 0.044,0.142 0.087,0.2846 0.127,0.428 0.011,0.0369 0.021,0.0743 0.031,0.1113 0.031,0.11 0.061,0.2202 0.089,0.331 0.015,0.0566 0.029,0.1135 0.043,0.1703 0.023,0.0928 0.046,0.1857 0.068,0.2791 0.015,0.0602 0.028,0.1207 0.042,0.1812 0.02,0.0913 0.04,0.1829 0.06,0.2747 0.012,0.0608 0.025,0.1217 0.037,0.1828 0.019,0.0956 0.038,0.1915 0.055,0.2875 0.011,0.0564 0.022,0.1126 0.032,0.1692 0.02,0.1169 0.039,0.2344 0.058,0.352 0.006,0.0356 0.012,0.071 0.017,0.1067 0.023,0.1527 0.045,0.3058 0.065,0.4596 0.005,0.0441 0.01,0.0884 0.015,0.1325 0.014,0.1117 0.027,0.2236 0.039,0.3358 0.006,0.0567 0.011,0.1137 0.016,0.1705 0.01,0.1006 0.019,0.2013 0.027,0.3023 0.005,0.0608 0.009,0.1217 0.014,0.1827 0.007,0.0995 0.013,0.1991 0.019,0.299 0.003,0.0597 0.007,0.1193 0.009,0.1791 0.006,0.1076 0.009,0.2156 0.013,0.3236 0.001,0.0517 0.003,0.1033 0.005,0.1552 0.003,0.1591 0.006,0.3186 0.006,0.4787 0,0.160101 -0.002,0.3196 -0.006,0.4787 -0.002,0.0518 -0.004,0.1035 -0.005,0.1552 -0.004,0.108 -0.008,0.216001 -0.013,0.3236 -0.002,0.0598 -0.006,0.119401 -0.009,0.179101 -0.006,0.0998 -0.012,0.1995 -0.019,0.298999 -0.004,0.061 -0.009,0.121901 -0.014,0.1827 -0.008,0.100999 -0.017,0.2017 -0.027,0.3023 -0.005,0.0568 -0.01,0.1138 -0.016,0.1705 -0.012,0.112199 -0.025,0.224099 -0.039,0.335801 -0.005,0.0441 -0.01,0.0884 -0.015,0.132498 -0.02,0.153702 -0.041,0.307001 -0.065,0.459502 -0.005,0.0357 -0.011,0.0712 -0.017,0.106799 -0.019,0.1177 -0.038,0.235101 -0.058,0.351999 -0.01,0.0566 -0.021,0.112802 -0.032,0.169201 -0.017,0.096 -0.036,0.1919 -0.055,0.287502 -0.012,0.0611 -0.025,0.121999 -0.037,0.182798 -0.02,0.0918 -0.04,0.183401 -0.06,0.274701 -0.014,0.0605 -0.027,0.120999 -0.042,0.181199 -0.022,0.0933 -0.045,0.186302 -0.068,0.279102 -0.014,0.0568 -0.028,0.113699 -0.043,0.170299 -0.028,0.110799 -0.059,0.2209 -0.089,0.330999 -0.01,0.037 -0.02,0.0744 -0.031,0.111299 -0.04,0.143301 -0.083,0.286102 -0.127,0.428001 -0.016,0.0524 -0.033,0.104402 -0.05,0.156699 -0.029,0.0925 -0.059,0.184902 -0.09,0.276802 -0.02,0.0606 -0.041,0.120999 -0.062,0.181398 -0.029,0.0829 -0.058,0.1656 -0.087,0.248002 -0.023,0.0629 -0.046,0.1255 -0.069,0.188 -0.03,0.0801 -0.061,0.159901 -0.091,0.239501 -0.024,0.0623 -0.048,0.1245 -0.073,0.186499 -0.033,0.0814 -0.066,0.162301 -0.1,0.243301 -0.024,0.0587 -0.048,0.117699 -0.073,0.176098 -0.044,0.105101 -0.09,0.209601 -0.137,0.3136 -0.033,0.0752 -0.068,0.150202 -0.102,0.225002 -0.04,0.0869 -0.08,0.1739 -0.122,0.260099 -0.03,0.0638 -0.062,0.1271 -0.093,0.1905 -0.034,0.0703 -0.069,0.140499 -0.104,0.210399 -0.034,0.0662 -0.068,0.132101 -0.102,0.198001 -0.035,0.0659 -0.069,0.1315 -0.104,0.1970013 -0.036,0.0671 -0.072,0.1339 -0.109,0.200498 -0.035,0.0628 -0.07,0.125201 -0.105,0.187601 -0.038,0.0681 -0.077,0.136199 -0.116,0.2038 -0.034,0.0588 -0.069,0.116999 -0.104,0.1754 -0.041,0.0695 -0.082,0.1391 -0.124,0.208 l -0.004,0.007 c -0.115,0.188198 -0.234,0.373801 -0.355,0.5578 -0.032,0.049 -0.064,0.0982 -0.096,0.146799 -0.048,0.0717 -0.097,0.1426 -0.146,0.213601 -0.034,0.0499 -0.069,0.0999 -0.104,0.1495 -0.05,0.071 -0.1,0.141499 -0.151,0.211799 -0.034,0.0472 -0.068,0.0942 -0.103,0.141102 -0.053,0.0721 -0.106,0.143698 -0.16,0.214998 -0.032,0.0423 -0.064,0.0843 -0.097,0.126402 -0.057,0.0745 -0.114,0.1489 -0.172,0.222499 -0.022,0.0271 -0.044,0.0538 -0.065,0.0808 -0.217,0.2711 -0.441,0.5364 -0.672,0.7957 -0.025,0.0279 -0.049,0.056 -0.074,0.0837 -0.068,0.0753 -0.136,0.1499 -0.205,0.224102 -0.03,0.0316 -0.059,0.0632 -0.088,0.0945 -0.07,0.0739 -0.14,0.147201 -0.21,0.220001 -0.027,0.0281 -0.055,0.056 -0.082,0.0839 -0.074,0.0762 -0.149,0.1519 -0.225,0.226801 -0.018,0.0177 -0.036,0.0352 -0.054,0.053 -0.362,0.354999 -0.737,0.696499 -1.125,1.0233 -0.016,0.01349 -0.032,0.0271 -0.048,0.0405 -0.088,0.0738 -0.177,0.146601 -0.267,0.2188 l -0.063,0.0511 c -0.09,0.072 -0.18,0.143298 -0.271,0.213799 l -0.051,0.0385 c -0.52,0.399802 -1.061,0.7747 -1.62,1.122403 l -0.029,0.01849 c -0.107,0.0661 -0.215,0.131199 -0.323,0.1954 l -0.034,0.0205 c -0.694,0.4098 -1.414,0.778899 -2.159,1.103699 l -0.017,0.0076 c -0.122,0.053 -0.244,0.10489902 -0.367,0.15549802 l -0.013,0.005 c -0.756,0.310901 -1.537,0.5764 -2.337,0.7934 l -0.021,0.0058 c -0.131,0.0353 -0.262,0.0694 -0.394,0.1021 h -0.001 c 1.54,0.381799 3.151,0.5858 4.809,0.5858 10.99901,9e-6 19.91501,-8.91619302 19.91501,-19.91489532 0,-10.9987 -8.916,-19.914901 -19.915,-19.914901 z"
         id="path42330"
         style="clip-rule:evenodd;fill:#e6e6e6;fill-rule:evenodd;stroke-width:0.00268817;image-rendering:optimizeQuality;shape-rendering:geometricPrecision;text-rendering:geometricPrecision" />
      <path
         class="fil13"
         d="m 341.70032,-39.25535 c -1.411,0 -2.781,0.2039 -4.091,0.5858 v 0 c 0.112,0.0327 0.224,0.0667 0.335,0.1021 l 0.018,0.0058 c 0.681,0.217101 1.345,0.482301 1.989,0.793401 l 0.01,0.005 c 0.105,0.0506 0.209,0.1024 0.313,0.1554 l 0.014,0.0077 c 0.634,0.3249 1.247,0.6937 1.837,1.1037 l 0.03,0.0205 c 0.091,0.0642 0.183,0.1292 0.274,0.1954 l 0.025,0.0184 c 0.476,0.3479 0.936,0.7225 1.378,1.1225 0.015,0.0128 0.029,0.0256 0.043,0.0385 0.078,0.0705 0.154,0.1418 0.231,0.2138 l 0.054,0.0511 c 0.076,0.0722 0.151,0.145 0.226,0.2188 0.014,0.0134 0.028,0.027 0.041,0.0405 0.33,0.3269 0.65,0.6682 0.958,1.0233 0.015,0.0178 0.03,0.0352 0.046,0.053 0.064,0.0749 0.128,0.1507 0.191,0.2268 0.024,0.0279 0.047,0.0558 0.07,0.0839 0.06,0.0727 0.119,0.1461 0.178,0.22 0.025,0.0313 0.05,0.063 0.075,0.0945 0.059,0.0742 0.117,0.1487 0.175,0.224 0.021,0.0278 0.042,0.0559 0.063,0.0838 0.196,0.259301 0.387,0.5245 0.571,0.7957 0.019,0.027 0.037,0.0537 0.056,0.0808 0.049,0.0736 0.098,0.148 0.147,0.2225 0.027,0.0421 0.055,0.0841 0.082,0.126401 0.046,0.0712 0.091,0.142999 0.136,0.215 0.03,0.0468 0.059,0.0939 0.088,0.141099 0.043,0.0702 0.086,0.140801 0.128,0.2118 0.03,0.0496 0.059,0.0996 0.088,0.149501 0.042,0.0709 0.084,0.1419 0.124,0.2136 0.028,0.0486 0.055,0.0979 0.083,0.1468 0.103,0.184 0.204,0.3696 0.301,0.5577 l 0.004,0.0071 c 0.036,0.0689 0.071,0.1386 0.106,0.208 0.029,0.0584 0.059,0.1166 0.088,0.1754 0.033,0.0676 0.066,0.1357 0.099,0.2038 0.03,0.0624 0.059,0.1248 0.089,0.1876 0.031,0.0665 0.062,0.1334 0.092,0.2005 0.03,0.0654 0.059,0.1312 0.089,0.197 0.029,0.0658 0.058,0.1318 0.087,0.198 0.03,0.0698 0.059,0.1401 0.089,0.2104 0.026,0.0634 0.053,0.1267 0.079,0.1905 0.035,0.0862 0.069,0.1731 0.103,0.2601 0.03,0.0748 0.059,0.1497 0.087,0.225 0.04,0.1041 0.079,0.2085 0.117,0.3136 0.021,0.0584 0.042,0.1174 0.062,0.1761 0.029,0.0809 0.057,0.1619 0.085,0.2433 0.021,0.0619 0.041,0.1242 0.062,0.1865 0.026,0.0796 0.052,0.1594 0.077,0.2395 0.02,0.0625 0.04,0.1251 0.059,0.1879 0.025,0.0825 0.05,0.1652 0.074,0.2481 0.018,0.0604 0.036,0.1207 0.053,0.1814 0.026,0.0919 0.051,0.1844 0.077,0.2768 0.014,0.0523 0.028,0.1043 0.042,0.1567 0.037,0.142 0.074,0.2846 0.108,0.428 0.009,0.0369 0.018,0.0743 0.026,0.1113 0.026,0.11 0.052,0.2202 0.077,0.331 0.012,0.0566 0.024,0.1135 0.036,0.1703 0.02,0.0928 0.039,0.1857 0.058,0.2791 0.012,0.0602 0.024,0.1207 0.035,0.1812 0.018,0.0913 0.035,0.1829 0.051,0.2747 0.011,0.0608 0.022,0.1217 0.032,0.1828 0.016,0.0956 0.032,0.1915 0.047,0.2875 0.009,0.0564 0.018,0.1126 0.027,0.1692 0.017,0.1169 0.033,0.2344 0.049,0.352 0.005,0.0356 0.01,0.071 0.015,0.1067 0.02,0.1527 0.038,0.3058 0.055,0.4596 0.004,0.0441 0.008,0.0884 0.013,0.1325 0.012,0.1117 0.023,0.2236 0.033,0.3358 0.005,0.0567 0.009,0.1137 0.014,0.1705 0.008,0.1006 0.016,0.2013 0.023,0.3023 0.004,0.0608 0.008,0.1217 0.011,0.1827 0.006,0.0995 0.012,0.1991 0.016,0.299 0.003,0.0597 0.006,0.1193 0.009,0.1791 0.004,0.1076 0.007,0.2156 0.01,0.3236 0.001,0.0517 0.003,0.1033 0.004,0.1552 0.004,0.1591 0.005,0.3186 0.005,0.4787 0,0.160101 -10e-4,0.3196 -0.005,0.4787 -0.001,0.0518 -0.002,0.1035 -0.004,0.1552 -0.003,0.108 -0.006,0.216001 -0.01,0.3236 -0.003,0.0598 -0.006,0.119401 -0.009,0.179101 -0.004,0.0998 -0.01,0.1995 -0.016,0.298999 -0.003,0.061 -0.007,0.121901 -0.011,0.1827 -0.007,0.100999 -0.015,0.2017 -0.023,0.3023 -0.005,0.0568 -0.009,0.1138 -0.014,0.1705 -0.01,0.112199 -0.022,0.224099 -0.033,0.335801 -0.005,0.0441 -0.009,0.0884 -0.013,0.132498 -0.017,0.153702 -0.035,0.307001 -0.055,0.459502 -0.005,0.0357 -0.01,0.0712 -0.015,0.106799 -0.016,0.1177 -0.032,0.235101 -0.049,0.351999 -0.009,0.0566 -0.018,0.112802 -0.027,0.169201 -0.015,0.096 -0.031,0.1919 -0.047,0.287502 -0.01,0.0611 -0.021,0.121999 -0.032,0.182798 -0.016,0.0918 -0.033,0.183401 -0.051,0.274701 -0.011,0.0605 -0.023,0.120999 -0.035,0.181199 -0.019,0.0933 -0.038,0.186302 -0.058,0.279102 -0.012,0.0568 -0.024,0.113699 -0.036,0.170299 -0.025,0.110799 -0.051,0.2209 -0.077,0.330999 -0.008,0.037 -0.017,0.0744 -0.026,0.111299 -0.034,0.143301 -0.07,0.286102 -0.108,0.428001 -0.014,0.0524 -0.028,0.104402 -0.042,0.156699 -0.026,0.0925 -0.051,0.184902 -0.077,0.276802 -0.017,0.0606 -0.035,0.120999 -0.053,0.181398 -0.024,0.0829 -0.049,0.1656 -0.074,0.248002 -0.019,0.0629 -0.039,0.1255 -0.059,0.188 -0.025,0.0801 -0.051,0.159901 -0.077,0.239501 -0.021,0.0623 -0.041,0.1245 -0.062,0.186499 -0.028,0.0814 -0.056,0.162301 -0.085,0.243301 -0.02,0.0587 -0.041,0.117699 -0.062,0.176098 -0.038,0.105101 -0.077,0.209601 -0.117,0.3136 -0.028,0.0752 -0.057,0.150202 -0.087,0.225002 -0.034,0.0869 -0.068,0.1739 -0.103,0.260099 -0.026,0.0638 -0.053,0.1271 -0.079,0.1905 -0.03,0.0703 -0.059,0.140499 -0.089,0.210399 -0.029,0.0662 -0.058,0.132101 -0.087,0.198001 -0.029,0.0659 -0.059,0.1315 -0.089,0.1970013 -0.03,0.0671 -0.061,0.1339 -0.092,0.200498 -0.03,0.0628 -0.059,0.125201 -0.089,0.187601 -0.033,0.0681 -0.066,0.136199 -0.099,0.2038 -0.029,0.0588 -0.059,0.116999 -0.088,0.1754 -0.035,0.0695 -0.07,0.1391 -0.106,0.208 l -0.004,0.007 c -0.097,0.188198 -0.198,0.373801 -0.301,0.5578 -0.028,0.049 -0.055,0.0982 -0.083,0.146799 -0.04,0.0717 -0.082,0.1426 -0.124,0.213601 -0.029,0.0499 -0.058,0.0999 -0.088,0.1495 -0.042,0.071 -0.085,0.141499 -0.128,0.211799 -0.029,0.0472 -0.058,0.0942 -0.088,0.141102 -0.045,0.0721 -0.09,0.143698 -0.136,0.214998 -0.027,0.0423 -0.055,0.0843 -0.082,0.126402 -0.049,0.0745 -0.098,0.1489 -0.147,0.222499 -0.019,0.0271 -0.037,0.0538 -0.056,0.0808 -0.184,0.2711 -0.375,0.5364 -0.571,0.7957 -0.021,0.0279 -0.042,0.056 -0.063,0.0837 -0.058,0.0753 -0.116,0.1499 -0.175,0.224102 -0.025,0.0316 -0.05,0.0632 -0.075,0.0945 -0.059,0.0739 -0.118,0.147201 -0.178,0.220001 -0.023,0.0281 -0.046,0.056 -0.07,0.0839 -0.063,0.0762 -0.127,0.1519 -0.191,0.226801 -0.016,0.0177 -0.031,0.0352 -0.046,0.053 -0.308,0.354999 -0.628,0.696499 -0.958,1.0233 -0.013,0.01349 -0.027,0.0271 -0.041,0.0405 -0.075,0.0738 -0.15,0.146601 -0.226,0.2188 l -0.054,0.0511 c -0.077,0.072 -0.153,0.143298 -0.231,0.213799 l -0.043,0.0385 c -0.442,0.399802 -0.902,0.7747 -1.378,1.122403 l -0.025,0.01849 c -0.091,0.0661 -0.183,0.131199 -0.274,0.1954 l -0.03,0.0205 c -0.59,0.4098 -1.203,0.778899 -1.837,1.103699 l -0.014,0.0076 c -0.104,0.053 -0.208,0.10489902 -0.313,0.15549802 l -0.01,0.005 c -0.644,0.310901 -1.308,0.5764 -1.989,0.7934 l -0.018,0.0058 c -0.111,0.0353 -0.223,0.0694 -0.335,0.1021 v 0 c 1.31,0.381799 2.68,0.5858 4.091,0.5858 9.358,3e-6 16.944,-8.91619802 16.944,-19.91489932 0,-10.998701 -7.586,-19.914902 -16.944,-19.914902 z"
         id="path42332"
         style="clip-rule:evenodd;fill:#cccccc;fill-rule:evenodd;stroke-width:0.00268817;image-rendering:optimizeQuality;shape-rendering:geometricPrecision;text-rendering:geometricPrecision" />
    </g>
    <g
       id="g1438"
       transform="matrix(1.5466542,0,0,1.5466542,145.67341,15.173698)">
      <g
         id="g1741"
         transform="matrix(0.13391463,7.8689024e-4,-7.8689024e-4,0.13391463,-161.7457,235.84645)">
        <path
           style="fill:#9c6c48;stroke-width:0.352778"
           d="m 659.01408,-800.71486 c -16.46218,-1.34805 -40.47032,-9.17814 -52.39853,-17.08943 -4.23223,-2.80698 -8.35037,-6.90446 -9.68887,-9.64025 -0.85227,-1.74199 -1.00082,-2.46563 -0.97488,-4.74905 0.19163,-16.86891 12.24039,-46.44916 28.61495,-70.25086 2.86386,-4.16285 6.75604,-9.29742 10.58894,-14.03555 14.23783,-16.75336 28.46074,-38.72095 61.44504,3.66112 13.39937,17.27726 24.66776,37.59674 31.14854,56.58832 3.36862,9.87155 5.3964,19.65853 5.11283,24.67687 -0.34006,6.01833 -6.07262,11.72269 -17.55807,17.47172 -11.85993,5.93647 -27.73046,10.90892 -40.59133,12.71781 -4.07775,0.57354 -12.41355,0.91831 -15.69862,0.6493 z m -13.40842,-137.09556 c -0.49654,-1.39365 -8.99296,-35.81876 -8.99296,-36.43697 0,-0.41046 0.35718,-1.07367 0.79375,-1.47379 1.75382,-1.60745 5.77616,-3.99726 7.93965,-4.71722 3.22573,-1.07346 5.11226,-0.7937 8.53229,1.26525 1.46644,0.88284 3.82406,2.17759 5.23916,2.87724 2.2997,1.137 2.86935,1.27208 5.36459,1.27208 2.49524,0 3.06489,-0.13508 5.36459,-1.27208 1.4151,-0.69965 3.83432,-2.03022 5.37605,-2.95684 2.60107,-1.5633 2.96982,-1.6837 5.11528,-1.67018 1.9683,0.0124 2.7056,0.21549 4.95797,1.36561 3.12063,1.59348 6.60966,4.03709 6.87349,4.81399 0.17882,0.52658 -8.27311,34.94198 -8.98357,36.58013 l -0.34424,0.79375 h -18.53947 c -14.51259,0 -18.57359,-0.0958 -18.69658,-0.44097 z"
           id="path1636"
           sodipodi:nodetypes="sssssccsssssssssssssssssscss" />
        <path
           style="fill:#895337;stroke-width:0.352778"
           d="m 656.44385,-801.43684 c -7.97001,-0.39988 -22.20262,-3.8667 -33.3375,-8.12044 -13.89164,-5.30687 -23.49464,-11.54192 -26.98092,-17.51821 -1.72476,-2.95663 -1.60732,-8.18984 0.38117,-16.98424 5.27604,-23.33414 19.61519,-50.44977 38.81097,-73.72995 11.66016,-9.54713 28.16608,-29.04529 49.23628,4.18292 12.64054,19.98707 25.56291,47.91581 29.88101,65.51043 2.77755,11.31745 2.07045,16.42404 -3.441,24.85049 -3.61161,5.52179 -15.03438,15.52759 -19.5256,17.10349 -4.56289,1.60105 -14.19829,3.65819 -20.73475,4.42683 -4.01402,0.47201 -8.63874,0.56221 -14.28966,0.27868 z M 644.46158,-938.1768 c -0.0724,-0.23506 -2.14511,-8.49311 -4.60603,-18.35125 -4.35329,-17.43873 -4.45705,-17.94305 -3.83331,-18.63226 0.96829,-1.06996 5.04486,-3.69121 6.83967,-4.39795 0.87312,-0.34381 1.6691,-0.74355 1.76885,-0.88833 2.68146,-0.72609 4.25016,-1.1493 6.51434,-0.45638 6.80724,2.08327 13.32166,7.80695 20.13667,3.78103 1.64459,-0.6403 5.35011,-3.559 6.27717,-3.69538 0.90346,-0.10861 1.4174,-0.0126 1.53203,0.2861 -4.62895,13.11225 -0.5919,30.48207 -5.79787,40.69233 l -0.62147,1.94028 -14.03921,0.0746 c -10.73945,0.0571 -14.07015,-0.0258 -14.17084,-0.35277 z"
           id="path1634"
           sodipodi:nodetypes="ssssccssssssssscscccccsss" />
        <path
           id="path1632"
           style="fill:#6c382b;stroke-width:0.352777"
           d="m 646.4588,-980.96071 c -1.51263,0.0395 -2.78181,0.99501 -3.84265,1.43401 -2.88793,1.18714 -7.59696,4.41021 -7.59696,5.1997 0,0.34452 2.00443,8.64217 4.454,18.43918 l 4.45347,17.81287 h 6.65903 c 4.1102,0 6.6585,-0.13248 6.6585,-0.34571 0,-0.46934 -10.4835,-42.35804 -10.64019,-42.51473 -0.0172,-0.0172 -0.0678,-0.0251 -0.1452,-0.0254 z m -3.18741,53.46909 -3.376,3.79254 c -18.62059,20.91687 -32.86962,44.85581 -40.68385,68.35034 -4.42944,13.31772 -5.91222,23.48026 -4.01679,27.52804 1.10836,2.36699 5.75376,6.97328 9.48573,9.40615 9.0405,5.89343 24.07174,11.67799 38.65293,14.87453 3.09152,0.67773 6.25549,1.24328 7.03162,1.25677 l 1.41128,0.0243 -2.46962,-1.26605 c -8.16991,-4.18907 -15.90561,-12.61595 -20.90261,-22.76968 -1.18001,-2.39781 -2.575,-5.62927 -3.10007,-7.18148 -0.87222,-2.5786 -0.93747,-3.14232 -0.76015,-6.52674 0.51806,-9.88856 6.45533,-27.94714 18.32602,-55.73871 1.94755,-4.55964 3.91539,-9.18869 4.37285,-10.28671 0.52996,-1.27209 1.15493,-4.22664 1.72289,-8.14369 0.78089,-5.38572 1.96816,-10.77785 2.79672,-12.70206 0.24506,-0.56907 -0.0765,-0.61754 -4.11239,-0.61754 z"
           sodipodi:nodetypes="ccsccssssccsssssccsssssssssc" />
        <path
           class="fil64"
           d="m 664.38044,-887.28774 c 15.25437,0 27.62055,12.36737 27.62055,27.62324 0,15.25586 -12.36618,27.62323 -27.62055,27.62323 -15.2544,0 -27.62066,-12.36737 -27.62066,-27.62323 0,-15.25587 12.36626,-27.62324 27.62066,-27.62324 z"
           id="path1060-3"
           style="clip-rule:evenodd;fill:#edc919;fill-rule:evenodd;stroke-width:0.0074375;image-rendering:optimizeQuality;shape-rendering:geometricPrecision;text-rendering:geometricPrecision" />
        <path
           class="fil65"
           d="m 668.12408,-886.77935 c 4.91902,0.77673 9.40147,2.86662 13.07627,5.90055 l -37.23073,39.77564 c -3.27274,-3.47329 -5.6458,-7.80384 -6.74442,-12.6201 l 30.82948,-32.98246 z"
           id="path1062-8"
           style="clip-rule:evenodd;fill:#ffff99;fill-rule:evenodd;stroke-width:0.0074375;image-rendering:optimizeQuality;shape-rendering:geometricPrecision;text-rendering:geometricPrecision" />
        <path
           class="fil35"
           d="m 664.65694,-887.28774 c 15.25426,0 27.62057,12.36742 27.62057,27.62315 0,15.25579 -12.36631,27.62332 -27.62057,27.62332 -0.47569,0 -0.94847,-0.0111 -1.41834,-0.036 14.59375,-0.73984 26.19925,-12.80827 26.19925,-27.58738 0,-14.77893 -11.6055,-26.84736 -26.19925,-27.58723 0.46987,-0.0249 0.94265,-0.036 1.41834,-0.036 z"
           id="path1064-1"
           style="clip-rule:evenodd;fill:#e98a12;fill-rule:evenodd;stroke-width:0.0074375;image-rendering:optimizeQuality;shape-rendering:geometricPrecision;text-rendering:geometricPrecision" />
        <path
           class="fil66"
           d="m 664.38044,-875.97232 c 9.00567,0 16.30621,7.30126 16.30621,16.30773 0,9.00656 -7.30054,16.30782 -16.30621,16.30782 -9.0057,0 -16.30624,-7.30126 -16.30624,-16.30782 0,-9.00647 7.30054,-16.30773 16.30624,-16.30773 z"
           id="path1066-6"
           style="clip-rule:evenodd;fill:#ecb012;fill-rule:evenodd;stroke-width:0.0074375;image-rendering:optimizeQuality;shape-rendering:geometricPrecision;text-rendering:geometricPrecision" />
        <path
           class="fil40"
           d="m 664.31877,-876.07348 c 6.63969,0 12.35181,3.96923 14.89517,9.66406 -2.98521,-3.32534 -7.31623,-5.4177 -12.1365,-5.4177 -9.00561,0 -16.30623,7.30134 -16.30623,16.30781 0,2.36623 0.50454,4.61433 1.41089,6.64368 -2.59205,-2.88753 -4.16963,-6.70435 -4.16963,-10.89012 0,-9.00647 7.30071,-16.30773 16.3063,-16.30773 z"
           id="path1068-5"
           style="clip-rule:evenodd;fill:#e88c0d;fill-rule:evenodd;stroke-width:0.0074375;image-rendering:optimizeQuality;shape-rendering:geometricPrecision;text-rendering:geometricPrecision" />
        <g
           id="g1719">
          <rect
             style="fill:#ffcc00;fill-opacity:1;stroke-width:0.138513"
             id="rect1666"
             width="50.208485"
             height="13.363476"
             x="637.70514"
             y="-938.77631"
             ry="6.6817379" />
          <path
             id="rect1666-5"
             style="fill:#ecb012;fill-opacity:1;stroke-width:0.138513"
             d="m 637.8646,-931.56006 c 0.13957,3.57664 3.06303,6.41461 6.67504,6.41461 h 36.84479 c 3.61201,0 6.53547,-2.83797 6.67504,-6.41461 z" />
        </g>
        <g
           id="g1725"
           transform="rotate(90,661.55939,-921.94451)">
          <rect
             style="fill:#ffcc00;fill-opacity:1;stroke-width:0.138513"
             id="rect1721"
             width="50.208485"
             height="13.363476"
             x="637.70514"
             y="-938.77631"
             ry="6.6817379" />
          <path
             id="path1723"
             style="fill:#ecb012;fill-opacity:1;stroke-width:0.138513"
             d="m 637.8646,-931.56006 c 0.13957,3.57664 3.06303,6.41461 6.67504,6.41461 h 36.84479 c 3.61201,0 6.53547,-2.83797 6.67504,-6.41461 z" />
        </g>
      </g>
    </g>
  </g>
</svg>
