<?xml version="1.0" encoding="UTF-8" standalone="no"?>
<svg
   xmlns:dc="http://purl.org/dc/elements/1.1/"
   xmlns:cc="http://creativecommons.org/ns#"
   xmlns:rdf="http://www.w3.org/1999/02/22-rdf-syntax-ns#"
   xmlns:svg="http://www.w3.org/2000/svg"
   xmlns="http://www.w3.org/2000/svg"
   xmlns:sodipodi="http://sodipodi.sourceforge.net/DTD/sodipodi-0.dtd"
   xmlns:inkscape="http://www.inkscape.org/namespaces/inkscape"
   width="1024"
   height="1024"
   viewBox="0 0 270.9333 270.9333"
   version="1.1"
   id="svg3565"
   inkscape:version="1.0.1 (3bc2e813f5, 2020-09-07)"
   sodipodi:docname="разбойник с мечем.svg"
   inkscape:export-filename="C:\Users\79519\Desktop\Knight\GameKnight\Graphics\Render_png\wood\sword_rogue.png"
   inkscape:export-xdpi="96.00001"
   inkscape:export-ydpi="96.00001">
  <title
     id="title4661">Тайл размером 256x256</title>
  <defs
     id="defs3559" />
  <sodipodi:namedview
     id="base"
     pagecolor="#ffffff"
     bordercolor="#666666"
     borderopacity="1.0"
     inkscape:pageopacity="0.0"
     inkscape:pageshadow="2"
     inkscape:zoom="0.69999999"
     inkscape:cx="262.10552"
     inkscape:cy="408.77734"
     inkscape:document-units="mm"
     inkscape:current-layer="layer1"
     showgrid="true"
     units="px"
     width="256px"
     inkscape:snap-global="true"
     inkscape:document-rotation="0"
     inkscape:window-width="1920"
     inkscape:window-height="1017"
     inkscape:window-x="-8"
     inkscape:window-y="-8"
     inkscape:window-maximized="1">
    <inkscape:grid
       type="xygrid"
       id="grid5244"
       units="px"
       spacingx="67.73332"
       spacingy="67.73332"
       empspacing="1" />
    <inkscape:grid
       type="xygrid"
       id="grid8949"
       color="#e33fff"
       opacity="0.1254902"
       empcolor="#e33fff"
       empopacity="0.2509804"
       units="px"
       spacingx="33.86666"
       spacingy="33.86666"
       empspacing="8" />
  </sodipodi:namedview>
  <metadata
     id="metadata3562">
    <rdf:RDF>
      <cc:Work
         rdf:about="">
        <dc:format>image/svg+xml</dc:format>
        <dc:type
           rdf:resource="http://purl.org/dc/dcmitype/StillImage" />
        <dc:title>Тайл размером 256x256</dc:title>
      </cc:Work>
    </rdf:RDF>
  </metadata>
  <g
     inkscape:label="Layer 1"
     inkscape:groupmode="layer"
     id="layer1"
     transform="translate(0,-26.0667)">
    <g
       id="g1372"
       transform="translate(-241.42511,156.37043)">
      <g
         id="g1159">
        <path
           class="fil22"
           d="m 267.73927,-48.618251 c -1.659,0 -3.269,0.2039 -4.809,0.5858 v 0 c 0.132,0.0327 0.264,0.0667 0.394,0.1021 l 0.022,0.0058 c 0.8,0.2171 1.58,0.4823 2.337,0.7934 l 0.012,0.005 c 0.123,0.0506 0.246,0.1024 0.367,0.1554 l 0.018,0.0077 c 0.744,0.3249 1.465,0.6937 2.158,1.1037 l 0.035,0.0205 c 0.108,0.0642 0.216,0.1292 0.322,0.1954 l 0.03,0.0184 c 0.559,0.3479 1.1,0.7225 1.62,1.1225 0.017,0.0128 0.033,0.0256 0.05,0.0385 0.091,0.0705 0.182,0.1418 0.271,0.2138 l 0.064,0.0511 c 0.089,0.0722 0.178,0.145001 0.266,0.218801 0.016,0.0134 0.032,0.027 0.048,0.0405 0.388,0.326899 0.763,0.668199 1.125,1.0233 0.018,0.0178 0.037,0.0352 0.055,0.053 0.075,0.0749 0.15,0.1507 0.225,0.2268 0.027,0.0279 0.054,0.0558 0.082,0.0839 0.07,0.0727 0.14,0.1461 0.209,0.22 0.03,0.0313 0.059,0.063 0.088,0.0945 0.069,0.0742 0.138,0.1487 0.205,0.224 0.025,0.0278 0.05,0.0559 0.075,0.0838 0.23,0.2593 0.454,0.5245 0.671,0.7957 0.022,0.027 0.044,0.0537 0.065,0.0808 0.059,0.0736 0.116,0.148 0.173,0.2225 0.032,0.0421 0.065,0.0841 0.097,0.1264 0.054,0.0712 0.107,0.143 0.16,0.215 0.034,0.0468 0.069,0.0939 0.103,0.1411 0.051,0.0702 0.101,0.1408 0.151,0.2118 0.035,0.0496 0.069,0.0996 0.104,0.1495 0.049,0.0709 0.097,0.1419 0.145,0.2136 0.033,0.0486 0.065,0.0979 0.097,0.1468 0.121,0.184 0.24,0.3696 0.355,0.5577 l 0.004,0.0071 c 0.042,0.0689 0.083,0.1386 0.124,0.208 0.035,0.0584 0.07,0.1166 0.104,0.175401 0.039,0.0676 0.077,0.1357 0.116,0.2038 0.035,0.0624 0.07,0.1248 0.105,0.1876 0.036,0.0665 0.072,0.1334 0.108,0.200499 0.035,0.0654 0.07,0.1312 0.104,0.197 0.035,0.0658 0.069,0.131801 0.102,0.198001 0.036,0.0698 0.07,0.1401 0.105,0.2104 0.031,0.0634 0.063,0.1267 0.093,0.1905 0.041,0.0862 0.082,0.1731 0.122,0.2601 0.034,0.0748 0.068,0.1497 0.102,0.225 0.046,0.1041 0.092,0.2085 0.137,0.3136 0.025,0.0584 0.049,0.1174 0.073,0.1761 0.034,0.0809 0.067,0.1619 0.099,0.2433 0.025,0.0619 0.049,0.1242 0.073,0.1865 0.031,0.0796 0.061,0.1594 0.091,0.2395 0.024,0.0625 0.047,0.1251 0.069,0.1879 0.03,0.0825 0.059,0.1652 0.088,0.2481 0.021,0.0604 0.042,0.1207 0.062,0.1814 0.031,0.0919 0.06,0.1844 0.09,0.276799 0.016,0.0523 0.034,0.104301 0.05,0.156701 0.044,0.142 0.086,0.2846 0.127,0.428 0.011,0.0369 0.02,0.0743 0.031,0.1113 0.03,0.11 0.06,0.2202 0.089,0.331 0.015,0.0566 0.029,0.1135 0.043,0.1703 0.023,0.0928 0.046,0.1857 0.068,0.2791 0.014,0.0602 0.028,0.1207 0.041,0.1812 0.021,0.0913 0.041,0.1829 0.06,0.2747 0.013,0.0608 0.026,0.1217 0.038,0.1828 0.019,0.0956 0.037,0.1915 0.055,0.2875 0.011,0.0564 0.021,0.1126 0.031,0.1692 0.021,0.1169 0.04,0.2344 0.059,0.352 0.005,0.0356 0.011,0.071 0.017,0.1067 0.023,0.1527 0.045,0.3058 0.064,0.4596 0.006,0.0441 0.011,0.0884 0.016,0.132501 0.013,0.111699 0.027,0.223599 0.038,0.335799 0.006,0.0567 0.011,0.113702 0.017,0.1705 0.009,0.1006 0.019,0.2013 0.027,0.302299 0.005,0.0608 0.009,0.121701 0.013,0.1827 0.008,0.0995 0.014,0.199102 0.019,0.299001 0.004,0.0597 0.007,0.1193 0.01,0.179102 0.005,0.107598 0.009,0.215598 0.012,0.323598 0.002,0.0517 0.004,0.103301 0.005,0.155199 0.004,0.159102 0.006,0.318601 0.006,0.4787 0,0.160103 -0.002,0.319601 -0.006,0.478701 -10e-4,0.0518 -0.003,0.103499 -0.005,0.155201 -0.003,0.108001 -0.007,0.215998 -0.012,0.323599 -0.003,0.0598 -0.006,0.119401 -0.01,0.179102 -0.005,0.0998 -0.012,0.199498 -0.019,0.298998 -0.004,0.061 -0.008,0.121901 -0.013,0.1827 -0.008,0.101002 -0.018,0.201699 -0.027,0.302302 -0.006,0.0568 -0.011,0.1138 -0.017,0.170497 -0.011,0.112202 -0.025,0.224103 -0.038,0.335802 -0.005,0.0441 -0.01,0.0884 -0.016,0.1325 -0.02,0.153699 -0.041,0.306999 -0.064,0.4595 -0.006,0.0357 -0.012,0.0712 -0.017,0.106799 -0.019,0.1177 -0.038,0.2351 -0.059,0.352001 -0.01,0.0566 -0.021,0.1128 -0.031,0.169199 -0.018,0.096 -0.036,0.191902 -0.055,0.287501 -0.012,0.0611 -0.025,0.122 -0.038,0.182801 -0.019,0.0918 -0.039,0.183398 -0.06,0.274698 -0.013,0.0605 -0.027,0.121002 -0.041,0.1812 -0.022,0.0933 -0.045,0.186301 -0.068,0.279101 -0.014,0.0568 -0.028,0.1137 -0.043,0.170299 -0.029,0.1108 -0.059,0.220901 -0.089,0.331002 -0.011,0.037 -0.02,0.0744 -0.031,0.1113 -0.041,0.143298 -0.083,0.286099 -0.127,0.428 -0.017,0.0524 -0.034,0.104399 -0.05,0.1567 -0.03,0.0925 -0.059,0.184898 -0.09,0.276799 -0.02,0.0606 -0.041,0.120999 -0.062,0.181401 -0.029,0.0829 -0.058,0.1656 -0.088,0.247999 -0.022,0.0629 -0.045,0.1255 -0.069,0.188 -0.03,0.0801 -0.06,0.159901 -0.091,0.239501 -0.024,0.0623 -0.048,0.124499 -0.073,0.186499 -0.032,0.0814 -0.065,0.162301 -0.099,0.2433 -0.024,0.0587 -0.048,0.1177 -0.073,0.176102 -0.045,0.105097 -0.091,0.209597 -0.137,0.3136 -0.034,0.0752 -0.068,0.150198 -0.102,0.224999 -0.041,0.0869 -0.081,0.1739 -0.122,0.260098 -0.03,0.0638 -0.062,0.127101 -0.093,0.1905 -0.035,0.0703 -0.069,0.140502 -0.105,0.210402 -0.033,0.0662 -0.068,0.132099 -0.102,0.197999 -0.034,0.0659 -0.069,0.1315 -0.104,0.197 -0.036,0.0671 -0.072,0.133901 -0.108,0.200502 -0.035,0.0628 -0.07,0.125198 -0.105,0.1876 -0.039,0.0681 -0.077,0.136199 -0.116,0.203798 -0.034,0.0588 -0.069,0.117001 -0.104,0.1754 -0.041,0.0695 -0.082,0.139099 -0.124,0.208 l -0.004,0.007 c -0.115,0.188201 -0.234,0.373801 -0.355,0.5578 -0.032,0.049 -0.064,0.0982 -0.097,0.146801 -0.048,0.0717 -0.097,0.1426 -0.145,0.213598 -0.035,0.0499 -0.069,0.0999 -0.104,0.149501 -0.05,0.071 -0.1,0.141501 -0.151,0.211801 -0.034,0.0472 -0.069,0.0942 -0.103,0.1411 -0.053,0.0721 -0.106,0.1437 -0.16,0.215 -0.032,0.0423 -0.065,0.0843 -0.097,0.1264 -0.057,0.0745 -0.114,0.148899 -0.173,0.222498 -0.021,0.0271 -0.043,0.0538 -0.065,0.0808 -0.217,0.2711 -0.441,0.536401 -0.671,0.7957 -0.025,0.0279 -0.05,0.056 -0.075,0.0837 -0.067,0.0753 -0.136,0.1499 -0.205,0.2241 -0.029,0.0316 -0.058,0.0632 -0.088,0.0945 -0.069,0.0739 -0.139,0.147201 -0.209,0.220001 -0.028,0.0281 -0.055,0.056 -0.082,0.0839 -0.075,0.0762 -0.15,0.1519 -0.225,0.226801 -0.018,0.0177 -0.037,0.0352 -0.055,0.053 -0.362,0.354999 -0.737,0.6965 -1.125,1.0233 -0.016,0.01349 -0.032,0.0271 -0.048,0.0405 -0.088,0.0738 -0.177,0.1466 -0.266,0.218799 l -0.064,0.0511 c -0.089,0.072 -0.18,0.143301 -0.271,0.2138 l -0.05,0.0385 c -0.52,0.399798 -1.061,0.7747 -1.62,1.122399 l -0.03,0.0185 c -0.106,0.0661 -0.214,0.131199 -0.322,0.1954 l -0.035,0.0205 c -0.693,0.4098 -1.414,0.778899 -2.158,1.103701 l -0.018,0.0076 c -0.121,0.053 -0.244,0.104899 -0.367,0.155501 l -0.012,0.005 c -0.757,0.3109014 -1.537,0.5764004 -2.337,0.7934004 l -0.022,0.0058 c -0.13,0.0353 -0.262,0.0694 -0.394,0.1021 v 0 c 1.54,0.381801 3.15,0.5858 4.809,0.5858 10.998,0 19.914,-8.9162024 19.914,-19.9149024 0,-10.998701 -8.916,-19.914902 -19.914,-19.914902 z"
           id="path8524"
           style="clip-rule:evenodd;fill:#e6e6e6;fill-rule:evenodd;stroke-width:0.00268817;image-rendering:optimizeQuality;shape-rendering:geometricPrecision;text-rendering:geometricPrecision" />
        <path
           class="fil13"
           d="m 267.08727,-48.618251 c -1.41,0 -2.78,0.2039 -4.091,0.5858 h 0.001 c 0.112,0.0327 0.223,0.0667 0.335,0.1021 l 0.018,0.0058 c 0.681,0.2171 1.345,0.4823 1.989,0.7934 l 0.01,0.005 c 0.105,0.0506 0.209,0.1024 0.312,0.1554 l 0.015,0.0077 c 0.633,0.3249 1.247,0.6937 1.837,1.1037 l 0.029,0.0205 c 0.092,0.0642 0.184,0.1292 0.274,0.1954 l 0.025,0.0184 c 0.476,0.3479 0.936,0.7225 1.379,1.1225 0.014,0.0128 0.028,0.0256 0.043,0.0385 0.077,0.0705 0.154,0.1418 0.23,0.2138 l 0.054,0.0511 c 0.077,0.0722 0.152,0.145001 0.227,0.218801 0.014,0.0134 0.027,0.027 0.041,0.0405 0.33,0.326899 0.649,0.668199 0.957,1.0233 0.016,0.0178 0.031,0.0352 0.046,0.053 0.065,0.0749 0.128,0.1507 0.192,0.2268 0.023,0.0279 0.046,0.0558 0.07,0.0839 0.06,0.0727 0.119,0.1461 0.178,0.22 0.025,0.0313 0.05,0.063 0.075,0.0945 0.058,0.0742 0.117,0.1487 0.174,0.224 0.022,0.0278 0.043,0.0559 0.064,0.0838 0.196,0.2593 0.386,0.5245 0.571,0.7957 0.018,0.027 0.037,0.0537 0.055,0.0808 0.05,0.0736 0.099,0.148 0.147,0.2225 0.028,0.0421 0.055,0.0841 0.083,0.1264 0.046,0.0712 0.091,0.143 0.136,0.215 0.029,0.0468 0.058,0.0939 0.087,0.1411 0.044,0.0702 0.086,0.1408 0.129,0.2118 0.03,0.0496 0.059,0.0996 0.088,0.1495 0.042,0.0709 0.083,0.1419 0.124,0.2136 0.028,0.0486 0.055,0.0979 0.082,0.1468 0.103,0.184 0.204,0.3696 0.302,0.5577 l 0.004,0.0071 c 0.036,0.0689 0.07,0.1386 0.105,0.208 0.03,0.0584 0.06,0.1166 0.089,0.175401 0.033,0.0676 0.066,0.1357 0.098,0.2038 0.03,0.0624 0.06,0.1248 0.089,0.1876 0.032,0.0665 0.062,0.1334 0.093,0.200499 0.03,0.0654 0.059,0.1312 0.088,0.197 0.03,0.0658 0.059,0.131801 0.087,0.198001 0.03,0.0698 0.06,0.1401 0.089,0.2104 0.027,0.0634 0.054,0.1267 0.08,0.1905 0.035,0.0862 0.069,0.1731 0.103,0.2601 0.029,0.0748 0.058,0.1497 0.087,0.225 0.039,0.1041 0.079,0.2085 0.117,0.3136 0.021,0.0584 0.041,0.1174 0.062,0.1761 0.028,0.0809 0.057,0.1619 0.084,0.2433 0.021,0.0619 0.042,0.1242 0.062,0.1865 0.027,0.0796 0.052,0.1594 0.078,0.2395 0.02,0.0625 0.039,0.1251 0.058,0.1879 0.026,0.0825 0.05,0.1652 0.075,0.2481 0.018,0.0604 0.035,0.1207 0.053,0.1814 0.026,0.0919 0.051,0.1844 0.076,0.276799 0.014,0.0523 0.029,0.104301 0.043,0.156701 0.037,0.142 0.073,0.2846 0.108,0.428 0.009,0.0369 0.017,0.0743 0.026,0.1113 0.026,0.11 0.052,0.2202 0.076,0.331 0.013,0.0566 0.024,0.1135 0.037,0.1703 0.019,0.0928 0.039,0.1857 0.058,0.2791 0.012,0.0602 0.023,0.1207 0.035,0.1812 0.017,0.0913 0.034,0.1829 0.051,0.2747 0.011,0.0608 0.021,0.1217 0.032,0.1828 0.016,0.0956 0.031,0.1915 0.047,0.2875 0.009,0.0564 0.018,0.1126 0.026,0.1692 0.018,0.1169 0.034,0.2344 0.05,0.352 0.005,0.0356 0.01,0.071 0.015,0.1067 0.019,0.1527 0.038,0.3058 0.054,0.4596 0.005,0.0441 0.009,0.0884 0.014,0.132501 0.011,0.111699 0.022,0.223599 0.032,0.335799 0.005,0.0567 0.01,0.113702 0.014,0.1705 0.009,0.1006 0.016,0.2013 0.023,0.302299 0.004,0.0608 0.008,0.121701 0.012,0.1827 0.006,0.0995 0.011,0.199102 0.016,0.299001 0.003,0.0597 0.006,0.1193 0.008,0.179102 0.005,0.107598 0.008,0.215598 0.011,0.323598 0.001,0.0517 0.003,0.103301 0.004,0.155199 0.003,0.159102 0.005,0.318601 0.005,0.4787 0,0.160103 -0.002,0.319601 -0.005,0.478701 -10e-4,0.0518 -0.003,0.103499 -0.004,0.155201 -0.003,0.108001 -0.006,0.215998 -0.011,0.323599 -0.002,0.0598 -0.005,0.119401 -0.008,0.179102 -0.005,0.0998 -0.01,0.199498 -0.016,0.298998 -0.004,0.061 -0.008,0.121901 -0.012,0.1827 -0.007,0.101002 -0.015,0.201699 -0.023,0.302302 -0.004,0.0568 -0.009,0.1138 -0.014,0.170497 -0.01,0.112202 -0.021,0.224103 -0.032,0.335802 -0.005,0.0441 -0.009,0.0884 -0.014,0.1325 -0.017,0.153699 -0.035,0.306999 -0.054,0.4595 -0.005,0.0357 -0.01,0.0712 -0.015,0.106799 -0.016,0.1177 -0.032,0.2351 -0.05,0.352001 -0.008,0.0566 -0.017,0.1128 -0.026,0.169199 -0.016,0.096 -0.031,0.191902 -0.047,0.287501 -0.011,0.0611 -0.021,0.122 -0.032,0.182801 -0.017,0.0918 -0.034,0.183398 -0.051,0.274698 -0.012,0.0605 -0.023,0.121002 -0.035,0.1812 -0.019,0.0933 -0.039,0.186301 -0.058,0.279101 -0.012,0.0568 -0.024,0.1137 -0.037,0.170299 -0.024,0.1108 -0.05,0.220901 -0.076,0.331002 -0.009,0.037 -0.017,0.0744 -0.026,0.1113 -0.035,0.143298 -0.071,0.286099 -0.108,0.428 -0.014,0.0524 -0.029,0.104399 -0.043,0.1567 -0.025,0.0925 -0.05,0.184898 -0.076,0.276799 -0.018,0.0606 -0.035,0.120999 -0.053,0.181401 -0.025,0.0829 -0.049,0.1656 -0.075,0.247999 -0.019,0.0629 -0.038,0.1255 -0.058,0.188 -0.026,0.0801 -0.052,0.159901 -0.078,0.239501 -0.02,0.0623 -0.041,0.124499 -0.062,0.186499 -0.027,0.0814 -0.056,0.162301 -0.084,0.2433 -0.021,0.0587 -0.041,0.1177 -0.062,0.176102 -0.038,0.105097 -0.077,0.209597 -0.117,0.3136 -0.029,0.0752 -0.058,0.150198 -0.087,0.224999 -0.034,0.0869 -0.068,0.1739 -0.103,0.260098 -0.026,0.0638 -0.053,0.127101 -0.08,0.1905 -0.029,0.0703 -0.059,0.140502 -0.089,0.210402 -0.028,0.0662 -0.057,0.132099 -0.087,0.197999 -0.029,0.0659 -0.058,0.1315 -0.088,0.197 -0.031,0.0671 -0.061,0.133901 -0.093,0.200502 -0.029,0.0628 -0.059,0.125198 -0.089,0.1876 -0.032,0.0681 -0.065,0.136199 -0.098,0.203798 -0.029,0.0588 -0.059,0.117001 -0.089,0.1754 -0.035,0.0695 -0.069,0.139099 -0.105,0.208 l -0.004,0.007 c -0.098,0.188201 -0.199,0.373801 -0.302,0.5578 -0.027,0.049 -0.054,0.0982 -0.082,0.146801 -0.041,0.0717 -0.082,0.1426 -0.124,0.213598 -0.029,0.0499 -0.058,0.0999 -0.088,0.149501 -0.043,0.071 -0.085,0.141501 -0.129,0.211801 -0.029,0.0472 -0.058,0.0942 -0.087,0.1411 -0.045,0.0721 -0.09,0.1437 -0.136,0.215 -0.028,0.0423 -0.055,0.0843 -0.083,0.1264 -0.048,0.0745 -0.097,0.148899 -0.147,0.222498 -0.018,0.0271 -0.037,0.0538 -0.055,0.0808 -0.185,0.2711 -0.375,0.536401 -0.571,0.7957 -0.021,0.0279 -0.042,0.056 -0.064,0.0837 -0.057,0.0753 -0.116,0.1499 -0.174,0.2241 -0.025,0.0316 -0.05,0.0632 -0.075,0.0945 -0.059,0.0739 -0.118,0.147201 -0.178,0.220001 -0.024,0.0281 -0.047,0.056 -0.07,0.0839 -0.064,0.0762 -0.127,0.1519 -0.192,0.226801 -0.015,0.0177 -0.03,0.0352 -0.046,0.053 -0.308,0.354999 -0.627,0.6965 -0.957,1.0233 -0.014,0.01349 -0.027,0.0271 -0.041,0.0405 -0.075,0.0738 -0.15,0.1466 -0.227,0.218799 l -0.054,0.0511 c -0.076,0.072 -0.153,0.143301 -0.23,0.2138 l -0.043,0.0385 c -0.443,0.399798 -0.903,0.7747 -1.379,1.122399 l -0.025,0.0185 c -0.09,0.0661 -0.182,0.131199 -0.274,0.1954 l -0.029,0.0205 c -0.591,0.4098 -1.204,0.778899 -1.837,1.103701 l -0.015,0.0076 c -0.103,0.053 -0.207,0.104899 -0.312,0.155501 l -0.01,0.005 c -0.644,0.3109014 -1.308,0.5764004 -1.989,0.7934004 l -0.018,0.0058 c -0.112,0.0353 -0.223,0.0694 -0.335,0.1021 h -0.001 c 1.311,0.381801 2.681,0.5858 4.091,0.5858 9.358,0 16.945,-8.9162014 16.945,-19.9149014 0,-10.998702 -7.587,-19.914903 -16.945,-19.914903 z"
           id="path8526"
           style="clip-rule:evenodd;fill:#cccccc;fill-rule:evenodd;stroke-width:0.00268817;image-rendering:optimizeQuality;shape-rendering:geometricPrecision;text-rendering:geometricPrecision" />
      </g>
    </g>
    <g
       id="g1324"
       transform="translate(-93.658407,102.71787)">
      <path
         class="fil15"
         d="m 131.09026,-24.882549 v 0 c -1.964,0 -3.571,1.606701 -3.571,3.570499 v 4.219702 c 0,1.9637 1.607,3.570499 3.571,3.570499 v 0 c 1.964,0 3.57,-1.606799 3.57,-3.570499 v -4.219702 c 0,-1.963798 -1.606,-3.570499 -3.57,-3.570499 z"
         id="path8528"
         style="clip-rule:evenodd;fill:#ffb973;fill-rule:evenodd;stroke-width:0.00268817;image-rendering:optimizeQuality;shape-rendering:geometricPrecision;text-rendering:geometricPrecision" />
      <path
         class="fil11"
         d="m 138.24526,-20.494249 v 0 c -0.648,-0.8093 -1.84,-0.941499 -2.65,-0.293698 l -5.02,4.018399 c -0.81,0.6478 -0.942,1.839999 -0.294,2.649299 v 0 c 0.648,0.809302 1.84,0.941501 2.649,0.293701 l 5.021,-4.0185 c 0.809,-0.6477 0.941,-1.839902 0.294,-2.649201 z"
         id="path8530"
         style="clip-rule:evenodd;fill:#663333;fill-rule:evenodd;stroke-width:0.00268817;image-rendering:optimizeQuality;shape-rendering:geometricPrecision;text-rendering:geometricPrecision" />
      <path
         class="fil12"
         d="m 141.87726,-19.484348 -3.822,-4.775401 c -0.831,-1.038299 -2.361,-1.2079 -3.399,-0.376801 v 0 c -1.039,0.831202 -1.208,2.360702 -0.377,3.399102 l 3.822,4.775401 c 0.831,1.0384 2.361,1.2079 3.399,0.376798 v 0 c 1.038,-0.831098 1.208,-2.360699 0.377,-3.399099 z"
         id="path8532"
         style="clip-rule:evenodd;fill:#996633;fill-rule:evenodd;stroke-width:0.00268817;image-rendering:optimizeQuality;shape-rendering:geometricPrecision;text-rendering:geometricPrecision" />
      <path
         class="fil13"
         d="m 152.80426,-32.23875 v 0 c -1.247,-1.5576 -3.541,-1.8119 -5.099,-0.5652 l -9.662,7.733502 c -1.557,1.246698 -1.812,3.541 -0.565,5.0986 v 0 c 1.247,1.557499 3.541,1.811901 5.099,0.5652 l 9.66201,-7.733501 c 1.55699,-1.246701 1.81099,-3.541001 0.56499,-5.098601 z"
         id="path8534"
         style="clip-rule:evenodd;fill:#cccccc;fill-rule:evenodd;stroke-width:0.00268817;image-rendering:optimizeQuality;shape-rendering:geometricPrecision;text-rendering:geometricPrecision" />
      <path
         class="fil10"
         d="m 108.82026,-34.87095 c 2.333,1.8089 5.949,1.4735 6.929,0.1001 l 3.539,-4.958701 c 0.98,-1.373399 -0.374,-4.2836 -3.366,-5.0942 -16.257005,-4.4045 -18.664005,0.9854 -7.102,9.952801 z"
         id="path8536"
         style="clip-rule:evenodd;fill:#990000;fill-rule:evenodd;stroke-width:0.00268817;image-rendering:optimizeQuality;shape-rendering:geometricPrecision;text-rendering:geometricPrecision" />
      <path
         class="fil60"
         d="m 116.30126,-20.34875 h -3.361 c -1.463,0 -2.66,1.197203 -2.66,2.660402 v 6.110001 c 0,1.4633 1.197,2.6605004 2.66,2.6605004 h 3.361 c 1.463,0 2.66,-1.1972004 2.66,-2.6605004 v -6.110001 c 0,-1.463199 -1.197,-2.660402 -2.66,-2.660402 z"
         id="path8538"
         style="clip-rule:evenodd;fill:#663399;fill-rule:evenodd;stroke-width:0.00268817;image-rendering:optimizeQuality;shape-rendering:geometricPrecision;text-rendering:geometricPrecision" />
      <path
         class="fil60"
         d="m 126.87226,-20.34875 h -3.36 c -1.463,0 -2.661,1.197203 -2.661,2.660402 v 6.110001 c 0,1.4633 1.198,2.6605004 2.661,2.6605004 h 3.36 c 1.464,0 2.661,-1.1972004 2.661,-2.6605004 v -6.110001 c 0,-1.463199 -1.197,-2.660402 -2.661,-2.660402 z"
         id="path8540"
         style="clip-rule:evenodd;fill:#663399;fill-rule:evenodd;stroke-width:0.00268817;image-rendering:optimizeQuality;shape-rendering:geometricPrecision;text-rendering:geometricPrecision" />
      <path
         class="fil61"
         d="m 124.10326,-43.753851 h -9.725 c -5.181,0 -9.42,4.238701 -9.42,9.419401 v 11.8247 c 0,5.1807 4.239,9.419402 9.42,9.419402 h 9.725 c 5.181,0 9.42,-4.238702 9.42,-9.419402 v -11.8247 c 0,-5.1807 -4.239,-9.419401 -9.42,-9.419401 z"
         id="path8542"
         style="clip-rule:evenodd;fill:#ffcc99;fill-rule:evenodd;stroke-width:0.00268817;image-rendering:optimizeQuality;shape-rendering:geometricPrecision;text-rendering:geometricPrecision" />
      <path
         class="fil62"
         d="m 117.42426,-43.741451 h -3.072 c -5.181,0 -9.419,4.245901 -9.419,9.435201 v 11.7931 c 0,5.189403 4.238,9.435203 9.419,9.435203 h 2.74 c -1.958,-1.7322 -3.198,-4.262101 -3.198,-7.068402 V -36.39245 c 0,-2.9619 1.381,-5.615901 3.53,-7.349001 z"
         id="path8544"
         style="clip-rule:evenodd;fill:#b3a4b6;fill-rule:evenodd;stroke-width:0.00268817;image-rendering:optimizeQuality;shape-rendering:geometricPrecision;text-rendering:geometricPrecision" />
      <path
         class="fil62"
         d="m 121.50326,-43.716751 h 2.688 c 5.181,0 9.42,4.245901 9.42,9.435301 v 11.793002 c 0,5.1894 -4.239,9.435301 -9.42,9.435301 h -2.688 c 5.181,0 9.42,-4.245901 9.42,-9.435301 V -34.28145 c 0,-5.1894 -4.239,-9.435301 -9.42,-9.435301 z"
         id="path8546"
         style="clip-rule:evenodd;fill:#b3a4b6;fill-rule:evenodd;stroke-width:0.00268817;image-rendering:optimizeQuality;shape-rendering:geometricPrecision;text-rendering:geometricPrecision" />
      <path
         class="fil10"
         d="m 101.65326,-33.41095 c -1.117,2.9955 2.701,5.787701 6.003,5.787701 h 11.921 c 3.301,0 7.238,-2.835801 6.003,-5.787601 -6.714,-16.038902 -18.389,-14.849401 -23.927,0 z"
         id="path8548"
         style="clip-rule:evenodd;fill:#990000;fill-rule:evenodd;stroke-width:0.00268817;image-rendering:optimizeQuality;shape-rendering:geometricPrecision;text-rendering:geometricPrecision" />
      <path
         class="fil15"
         d="m 125.99226,-21.158348 h -8.569 c -1.124,0 -2.043,0.919099 -2.043,2.042401 v 0 c 0,1.123399 0.919,2.042398 2.043,2.042398 h 8.569 c 1.123,0 2.042,-0.918999 2.042,-2.042398 v 0 c 0,-1.123302 -0.919,-2.042401 -2.042,-2.042401 z"
         id="path8550"
         style="clip-rule:evenodd;fill:#ffb973;fill-rule:evenodd;stroke-width:0.00268817;image-rendering:optimizeQuality;shape-rendering:geometricPrecision;text-rendering:geometricPrecision" />
      <path
         class="fil15"
         d="m 123.93526,-16.678849 h -5.627 c -0.738,0 -1.342,0.603501 -1.342,1.341202 v 0 c 0,0.7376 0.604,1.341099 1.342,1.341099 h 5.627 c 0.737,0 1.341,-0.603499 1.341,-1.341099 v 0 c 0,-0.737701 -0.604,-1.341202 -1.341,-1.341202 z"
         id="path8552"
         style="clip-rule:evenodd;fill:#ffb973;fill-rule:evenodd;stroke-width:0.00268817;image-rendering:optimizeQuality;shape-rendering:geometricPrecision;text-rendering:geometricPrecision" />
      <path
         class="fil37"
         d="m 124.16826,-43.787551 h -9.726 c -5.18,0 -9.339,4.246501 -9.419,9.435301 l -0.09,5.9023 9.083,-0.0058 c 0.439,5.495501 10.043,9.0039 18.663,10.0478 1.86,-3.822401 0.908,-10.4674 0.908,-15.944301 0,-5.1894 -4.238,-9.435301 -9.419,-9.4353 z"
         id="path8554"
         style="clip-rule:evenodd;fill:#cc3300;fill-rule:evenodd;stroke-width:0.00268817;image-rendering:optimizeQuality;shape-rendering:geometricPrecision;text-rendering:geometricPrecision" />
      <path
         class="fil10"
         d="m 117.52326,-43.864151 h -3.164 c -5.337,0 -9.614,4.276101 -9.704,9.500601 l -0.102,5.9136 9.341,0.843902 0.123,-0.835703 -0.13,-8.022499 c -0.049,-2.982 1.422,-5.654701 3.636,-7.399901 z"
         id="path8556"
         style="clip-rule:evenodd;fill:#990000;fill-rule:evenodd;stroke-width:0.00268817;image-rendering:optimizeQuality;shape-rendering:geometricPrecision;text-rendering:geometricPrecision" />
      <path
         class="fil61"
         d="m 128.69426,-37.55085 h -11.676 c -2.622,0 -4.768,2.1459 -4.768,4.7687 v 0 c 0,2.622701 2.146,4.768702 4.768,4.768702 h 11.676 c 2.623,0 4.769,-2.146001 4.769,-4.768702 v 0 c 0,-2.6228 -2.146,-4.7687 -4.769,-4.7687 z"
         id="path8558"
         style="clip-rule:evenodd;fill:#ffcc99;fill-rule:evenodd;stroke-width:0.00268817;image-rendering:optimizeQuality;shape-rendering:geometricPrecision;text-rendering:geometricPrecision" />
      <path
         class="fil18"
         d="m 128.21226,-35.02855 v 0 c -0.946,0 -1.72,0.7743 -1.72,1.7207 v 2.033499 c 0,0.946402 0.774,1.720702 1.72,1.720702 v 0 c 0.947,0 1.721,-0.7743 1.721,-1.720702 v -2.033499 c 0,-0.9464 -0.774,-1.7207 -1.721,-1.7207 z"
         id="path8560"
         style="clip-rule:evenodd;fill:#333333;fill-rule:evenodd;stroke-width:0.00268817;image-rendering:optimizeQuality;shape-rendering:geometricPrecision;text-rendering:geometricPrecision" />
      <path
         class="fil18"
         d="m 118.83126,-35.02855 v 0 c -0.947,0 -1.721,0.7743 -1.721,1.7207 v 2.033499 c 0,0.946402 0.774,1.720702 1.721,1.720702 v 0 c 0.946,0 1.721,-0.7743 1.721,-1.720702 v -2.033499 c 0,-0.9464 -0.775,-1.7207 -1.721,-1.7207 z"
         id="path8562"
         style="clip-rule:evenodd;fill:#333333;fill-rule:evenodd;stroke-width:0.00268817;image-rendering:optimizeQuality;shape-rendering:geometricPrecision;text-rendering:geometricPrecision" />
      <path
         class="fil61"
         d="m 108.41926,-24.849349 v 0 c -1.964,0 -3.571,1.606801 -3.571,3.570599 v 4.219702 c 0,1.963799 1.607,3.5705 3.571,3.5705 v 0 c 1.964,0 3.57,-1.606701 3.57,-3.5705 v -4.219702 c 0,-1.963798 -1.606,-3.570599 -3.57,-3.570599 z"
         id="path8564"
         style="clip-rule:evenodd;fill:#ffcc99;fill-rule:evenodd;stroke-width:0.00268817;image-rendering:optimizeQuality;shape-rendering:geometricPrecision;text-rendering:geometricPrecision" />
    </g>
    <g
       id="g1303"
       transform="translate(166.51034,102.71787)">
      <path
         class="fil15"
         d="m 74.121256,-24.156749 v 0 c -1.964,0 -3.571,1.6067 -3.571,3.570501 v 4.2197 c 0,1.963801 1.607,3.570502 3.571,3.570502 v 0 c 1.964,0 3.57,-1.606701 3.57,-3.570502 v -4.2197 c 0,-1.963801 -1.606,-3.570501 -3.57,-3.570501 z"
         id="path8566"
         style="clip-rule:evenodd;fill:#ffb973;fill-rule:evenodd;stroke-width:0.00268817;image-rendering:optimizeQuality;shape-rendering:geometricPrecision;text-rendering:geometricPrecision" />
      <path
         class="fil11"
         d="m 81.276256,-19.76845 v 0 c -0.648,-0.809299 -1.84,-0.941498 -2.65,-0.293698 l -5.02,4.018399 c -0.809,0.647801 -0.942,1.84 -0.294,2.649302 v 0 c 0.648,0.8093 1.84,0.941499 2.649,0.293698 l 5.021,-4.018399 c 0.809,-0.6478 0.941,-1.839999 0.294,-2.649302 z"
         id="path8568"
         style="clip-rule:evenodd;fill:#663333;fill-rule:evenodd;stroke-width:0.00268817;image-rendering:optimizeQuality;shape-rendering:geometricPrecision;text-rendering:geometricPrecision" />
      <path
         class="fil12"
         d="m 84.908256,-18.758448 -3.822,-4.775401 c -0.831,-1.038399 -2.361,-1.208 -3.399,-0.376801 v 0 c -1.039,0.831101 -1.208,2.360602 -0.377,3.399002 l 3.822,4.775401 c 0.831,1.038399 2.361,1.207899 3.399,0.376798 v 0 c 1.039,-0.831098 1.208,-2.3607 0.377,-3.398999 z"
         id="path8570"
         style="clip-rule:evenodd;fill:#996633;fill-rule:evenodd;stroke-width:0.00268817;image-rendering:optimizeQuality;shape-rendering:geometricPrecision;text-rendering:geometricPrecision" />
      <path
         class="fil13"
         d="m 95.835255,-31.51295 v 0 c -1.247,-1.5576 -3.541,-1.8119 -5.099,-0.5652 l -9.661999,7.733501 c -1.557,1.246701 -1.811,3.541001 -0.565,5.098601 v 0 c 1.247,1.557599 3.541,1.811901 5.099,0.5652 l 9.661999,-7.733501 c 1.557,-1.246701 1.812,-3.541001 0.565,-5.098601 z"
         id="path8572"
         style="clip-rule:evenodd;fill:#cccccc;fill-rule:evenodd;stroke-width:0.00268817;image-rendering:optimizeQuality;shape-rendering:geometricPrecision;text-rendering:geometricPrecision" />
      <path
         class="fil10"
         d="m 51.851256,-34.14515 c 2.333,1.8089 5.95,1.4735 6.93,0.1002 l 3.538,-4.9588 c 0.98,-1.373401 -0.373,-4.283601 -3.366,-5.094201 -16.25701,-4.404501 -18.66401,0.9855 -7.102,9.952801 z"
         id="path8574"
         style="clip-rule:evenodd;fill:#990000;fill-rule:evenodd;stroke-width:0.00268817;image-rendering:optimizeQuality;shape-rendering:geometricPrecision;text-rendering:geometricPrecision" />
      <path
         class="fil60"
         d="m 59.332256,-20.34875 h -3.361 c -1.463,0 -2.66,1.197203 -2.66,2.660402 v 6.110001 c 0,1.4633 1.197,2.6605004 2.66,2.6605004 h 3.361 c 1.463,0 2.66,-1.1972004 2.66,-2.6605004 v -6.110001 c 0,-1.463199 -1.197,-2.660402 -2.66,-2.660402 z"
         id="path8576"
         style="clip-rule:evenodd;fill:#663399;fill-rule:evenodd;stroke-width:0.00268817;image-rendering:optimizeQuality;shape-rendering:geometricPrecision;text-rendering:geometricPrecision" />
      <path
         class="fil60"
         d="m 69.903256,-22.01005 h -3.36 c -1.463,0 -2.66,1.197102 -2.66,2.660301 v 6.110102 c 0,1.463299 1.197,2.660399 2.66,2.660399 h 3.36 c 1.464,0 2.661,-1.1971 2.661,-2.660399 v -6.110102 c 0,-1.463199 -1.197,-2.660301 -2.661,-2.660301 z"
         id="path8578"
         style="clip-rule:evenodd;fill:#663399;fill-rule:evenodd;stroke-width:0.00268817;image-rendering:optimizeQuality;shape-rendering:geometricPrecision;text-rendering:geometricPrecision" />
      <path
         class="fil61"
         d="m 67.134256,-43.028051 h -9.725 c -5.181,0 -9.419,4.238701 -9.419,9.419401 v 11.824702 c 0,5.180701 4.238,9.4194 9.419,9.4194 h 9.725 c 5.181,0 9.42,-4.238699 9.42,-9.4194 V -33.60865 c 0,-5.1807 -4.239,-9.419401 -9.42,-9.419401 z"
         id="path8580"
         style="clip-rule:evenodd;fill:#ffcc99;fill-rule:evenodd;stroke-width:0.00268817;image-rendering:optimizeQuality;shape-rendering:geometricPrecision;text-rendering:geometricPrecision" />
      <path
         class="fil62"
         d="m 60.455256,-43.015651 h -3.072 c -5.181,0 -9.419,4.245901 -9.419,9.435201 v 11.793103 c 0,5.189399 4.238,9.4352 9.419,9.4352 h 2.74 c -1.958,-1.732201 -3.198,-4.262102 -3.198,-7.068402 V -35.66665 c 0,-2.9619 1.381,-5.615801 3.53,-7.349001 z"
         id="path8582"
         style="clip-rule:evenodd;fill:#b3a4b6;fill-rule:evenodd;stroke-width:0.00268817;image-rendering:optimizeQuality;shape-rendering:geometricPrecision;text-rendering:geometricPrecision" />
      <path
         class="fil62"
         d="m 64.534256,-42.990951 h 2.689 c 5.18,0 9.419,4.245901 9.419,9.435301 v 11.793001 c 0,5.1894 -4.239,9.435301 -9.419,9.435301 h -2.689 c 5.181,0 9.42,-4.245901 9.42,-9.435301 V -33.55565 c 0,-5.1894 -4.239,-9.435301 -9.42,-9.435301 z"
         id="path8584"
         style="clip-rule:evenodd;fill:#b3a4b6;fill-rule:evenodd;stroke-width:0.00268817;image-rendering:optimizeQuality;shape-rendering:geometricPrecision;text-rendering:geometricPrecision" />
      <path
         class="fil10"
         d="m 44.684256,-32.68515 c -1.11701,2.9955 2.701,5.787701 6.003,5.787701 h 11.921 c 3.302,0 7.238,-2.835802 6.003,-5.787601 -6.714,-16.038901 -18.389,-14.849401 -23.927,0 z"
         id="path8586"
         style="clip-rule:evenodd;fill:#990000;fill-rule:evenodd;stroke-width:0.00268817;image-rendering:optimizeQuality;shape-rendering:geometricPrecision;text-rendering:geometricPrecision" />
      <path
         class="fil15"
         d="m 69.023256,-20.432549 h -8.569 c -1.124,0 -2.043,0.919099 -2.043,2.042401 v 0 c 0,1.1234 0.919,2.042401 2.043,2.042401 h 8.569 c 1.123,0 2.042,-0.919001 2.042,-2.042401 v 0 c 0,-1.123302 -0.919,-2.042401 -2.042,-2.042401 z"
         id="path8588"
         style="clip-rule:evenodd;fill:#ffb973;fill-rule:evenodd;stroke-width:0.00268817;image-rendering:optimizeQuality;shape-rendering:geometricPrecision;text-rendering:geometricPrecision" />
      <path
         class="fil15"
         d="m 66.966256,-15.953047 h -5.627 c -0.738,0 -1.341,0.603499 -1.341,1.3412 v 0 c 0,0.7376 0.603,1.341098 1.341,1.341098 h 5.627 c 0.737,0 1.341,-0.603498 1.341,-1.341098 v 0 c 0,-0.737701 -0.604,-1.3412 -1.341,-1.3412 z"
         id="path8590"
         style="clip-rule:evenodd;fill:#ffb973;fill-rule:evenodd;stroke-width:0.00268817;image-rendering:optimizeQuality;shape-rendering:geometricPrecision;text-rendering:geometricPrecision" />
      <path
         class="fil37"
         d="m 67.199256,-43.061751 h -9.725 c -5.181,0 -9.34,4.246501 -9.42,9.435301 l -0.09,5.9023 9.083,-0.0058 c 0.439,5.495502 10.043,9.003901 18.663,10.047801 1.86,-3.822398 0.908,-10.467401 0.908,-15.944301 0,-5.1894 -4.238,-9.435301 -9.419,-9.435301 z"
         id="path8592"
         style="clip-rule:evenodd;fill:#cc3300;fill-rule:evenodd;stroke-width:0.00268817;image-rendering:optimizeQuality;shape-rendering:geometricPrecision;text-rendering:geometricPrecision" />
      <path
         class="fil10"
         d="m 60.554256,-43.138351 h -3.164 c -5.337,0 -9.614,4.276101 -9.704,9.500601 l -0.102,5.9136 9.341,0.843901 0.124,-0.835699 -0.131,-8.022502 c -0.049,-2.982 1.423,-5.654701 3.636,-7.399901 z"
         id="path8594"
         style="clip-rule:evenodd;fill:#990000;fill-rule:evenodd;stroke-width:0.00268817;image-rendering:optimizeQuality;shape-rendering:geometricPrecision;text-rendering:geometricPrecision" />
      <path
         class="fil61"
         d="m 71.725256,-36.82505 h -11.676 c -2.623,0 -4.768,2.1459 -4.768,4.7687 v 0 c 0,2.6227 2.145,4.768701 4.768,4.768701 h 11.676 c 2.623,0 4.769,-2.146001 4.769,-4.768701 v 0 c 0,-2.6228 -2.146,-4.7687 -4.769,-4.7687 z"
         id="path8596"
         style="clip-rule:evenodd;fill:#ffcc99;fill-rule:evenodd;stroke-width:0.00268817;image-rendering:optimizeQuality;shape-rendering:geometricPrecision;text-rendering:geometricPrecision" />
      <path
         class="fil18"
         d="m 71.243256,-34.30275 v 0 c -0.946,0 -1.721,0.7743 -1.721,1.7207 v 2.0336 c 0,0.946401 0.775,1.720701 1.721,1.720701 v 0 c 0.947,0 1.721,-0.7743 1.721,-1.720701 v -2.0336 c 0,-0.9464 -0.774,-1.7207 -1.721,-1.7207 z"
         id="path8598"
         style="clip-rule:evenodd;fill:#333333;fill-rule:evenodd;stroke-width:0.00268817;image-rendering:optimizeQuality;shape-rendering:geometricPrecision;text-rendering:geometricPrecision" />
      <path
         class="fil18"
         d="m 61.862256,-34.30275 v 0 c -0.947,0 -1.721,0.7743 -1.721,1.7207 v 2.0336 c 0,0.946401 0.774,1.720701 1.721,1.720701 v 0 c 0.946,0 1.72,-0.7743 1.72,-1.720701 v -2.0336 c 0,-0.9464 -0.774,-1.7207 -1.72,-1.7207 z"
         id="path8600"
         style="clip-rule:evenodd;fill:#333333;fill-rule:evenodd;stroke-width:0.00268817;image-rendering:optimizeQuality;shape-rendering:geometricPrecision;text-rendering:geometricPrecision" />
      <path
         class="fil61"
         d="m 51.450256,-24.123449 v 0 c -1.964,0 -3.571,1.606701 -3.571,3.570499 v 4.219702 c 0,1.963801 1.607,3.570499 3.571,3.570499 v 0 c 1.964,0 3.57,-1.606698 3.57,-3.570499 v -4.219702 c 0,-1.963798 -1.606,-3.570499 -3.57,-3.570499 z"
         id="path8602"
         style="clip-rule:evenodd;fill:#ffcc99;fill-rule:evenodd;stroke-width:0.00268817;image-rendering:optimizeQuality;shape-rendering:geometricPrecision;text-rendering:geometricPrecision" />
    </g>
    <g
       id="g1282"
       transform="translate(156.24585,102.76298)">
      <path
         class="fil15"
         d="m 16.652236,-24.882549 v 0 c -1.963,0 -3.57,1.606701 -3.57,3.570499 v 4.219702 c 0,1.9637 1.607,3.570499 3.57,3.570499 v 0 c 1.964,0 3.571,-1.606799 3.571,-3.570499 v -4.219702 c 0,-1.963798 -1.607,-3.570499 -3.571,-3.570499 z"
         id="path8604"
         style="clip-rule:evenodd;fill:#ffb973;fill-rule:evenodd;stroke-width:0.00268817;image-rendering:optimizeQuality;shape-rendering:geometricPrecision;text-rendering:geometricPrecision" />
      <path
         class="fil11"
         d="m 23.807246,-20.494249 v 0 c -0.648,-0.8093 -1.84001,-0.941499 -2.649,-0.293698 l -5.021,4.018399 c -0.80899,0.6478 -0.94099,1.839999 -0.29299,2.649299 v 0 c 0.64698,0.809302 1.83999,0.941501 2.649,0.293701 l 5.01999,-4.0185 c 0.81,-0.6477 0.942,-1.839902 0.294,-2.649201 z"
         id="path8606"
         style="clip-rule:evenodd;fill:#663333;fill-rule:evenodd;stroke-width:0.00268817;image-rendering:optimizeQuality;shape-rendering:geometricPrecision;text-rendering:geometricPrecision" />
      <path
         class="fil12"
         d="m 27.439246,-19.484348 -3.822,-4.775401 c -0.83099,-1.038299 -2.361,-1.2079 -3.39901,-0.376801 v 0 c -1.03799,0.831202 -1.20798,2.360702 -0.37698,3.399102 l 3.82299,4.775401 c 0.831,1.0384 2.36,1.2079 3.399,0.376798 v 0 c 1.038,-0.831098 1.207,-2.360699 0.376,-3.399099 z"
         id="path8608"
         style="clip-rule:evenodd;fill:#996633;fill-rule:evenodd;stroke-width:0.00268817;image-rendering:optimizeQuality;shape-rendering:geometricPrecision;text-rendering:geometricPrecision" />
      <path
         class="fil13"
         d="m 38.366256,-32.23875 v 0 c -1.246,-1.5576 -3.54101,-1.8119 -5.09801,-0.5652 l -9.662,7.733502 c -1.55799,1.246698 -1.81199,3.541 -0.56498,5.0986 v 0 c 1.24598,1.557499 3.54098,1.811901 5.09798,0.5652 l 9.66201,-7.733501 c 1.558,-1.246701 1.812,-3.541001 0.565,-5.098601 z"
         id="path8610"
         style="clip-rule:evenodd;fill:#cccccc;fill-rule:evenodd;stroke-width:0.00268817;image-rendering:optimizeQuality;shape-rendering:geometricPrecision;text-rendering:geometricPrecision" />
      <path
         class="fil10"
         d="m -5.6167674,-34.87095 c 2.33201,1.8089 5.949023,1.4735 6.929013,0.1001 l 3.53801,-4.958701 c 0.97999,-1.373399 -0.37301,-4.2836 -3.36502,-5.0942 -16.2579926,-4.4045 -18.6649826,0.9854 -7.102003,9.952801 z"
         id="path8612"
         style="clip-rule:evenodd;fill:#990000;fill-rule:evenodd;stroke-width:0.00268817;image-rendering:optimizeQuality;shape-rendering:geometricPrecision;text-rendering:geometricPrecision" />
      <path
         class="fil60"
         d="m 1.8632456,-22.010148 h -3.36 c -1.463993,0 -2.660993,1.1972 -2.660993,2.660399 v 6.110102 c 0,1.463199 1.197,2.660399 2.660993,2.660399 h 3.36 c 1.46301,0 2.66099,-1.1972 2.66099,-2.660399 v -6.110102 c 0,-1.463199 -1.19798,-2.660399 -2.66099,-2.660399 z"
         id="path8614"
         style="clip-rule:evenodd;fill:#663399;fill-rule:evenodd;stroke-width:0.00268817;image-rendering:optimizeQuality;shape-rendering:geometricPrecision;text-rendering:geometricPrecision" />
      <path
         class="fil60"
         d="M 12.435256,-20.37415 H 9.0742556 c -1.46302,0 -2.66002,1.197102 -2.66002,2.660301 v 6.110102 c 0,1.463199 1.197,2.6603994 2.66002,2.6603994 h 3.3610004 c 1.46298,0 2.65999,-1.1972004 2.65999,-2.6603994 v -6.110102 c 0,-1.463199 -1.19701,-2.660301 -2.65999,-2.660301 z"
         id="path8616"
         style="clip-rule:evenodd;fill:#663399;fill-rule:evenodd;stroke-width:0.00268817;image-rendering:optimizeQuality;shape-rendering:geometricPrecision;text-rendering:geometricPrecision" />
      <path
         class="fil61"
         d="m 9.6662556,-43.753851 h -9.726 c -5.180023,0 -9.419013,4.238701 -9.419013,9.419401 v 11.8247 c 0,5.1807 4.23899,9.419402 9.419013,9.419402 h 9.726 c 5.1799904,0 9.4189804,-4.238702 9.4189804,-9.419402 v -11.8247 c 0,-5.1807 -4.23899,-9.419401 -9.4189804,-9.419401 z"
         id="path8618"
         style="clip-rule:evenodd;fill:#ffcc99;fill-rule:evenodd;stroke-width:0.00268817;image-rendering:optimizeQuality;shape-rendering:geometricPrecision;text-rendering:geometricPrecision" />
      <path
         class="fil62"
         d="m 2.9862456,-43.741451 h -3.072 c -5.179993,0 -9.419013,4.245901 -9.419013,9.435201 v 11.7931 c 0,5.189403 4.23902,9.435203 9.419013,9.435203 h 2.74 c -1.958,-1.7322 -3.198,-4.262101 -3.198,-7.068402 V -36.39245 c 0,-2.9619 1.382,-5.615901 3.53,-7.349001 z"
         id="path8620"
         style="clip-rule:evenodd;fill:#b3a4b6;fill-rule:evenodd;stroke-width:0.00268817;image-rendering:optimizeQuality;shape-rendering:geometricPrecision;text-rendering:geometricPrecision" />
      <path
         class="fil62"
         d="m 7.0662456,-43.716751 h 2.68801 c 5.1809904,0 9.4189804,4.245901 9.4189804,9.435301 v 11.793002 c 0,5.1894 -4.23799,9.435301 -9.4189804,9.435301 h -2.68801 c 5.1799904,0 9.4190104,-4.245901 9.4190104,-9.435301 V -34.28145 c 0,-5.1894 -4.23902,-9.435301 -9.4190104,-9.435301 z"
         id="path8622"
         style="clip-rule:evenodd;fill:#b3a4b6;fill-rule:evenodd;stroke-width:0.00268817;image-rendering:optimizeQuality;shape-rendering:geometricPrecision;text-rendering:geometricPrecision" />
      <path
         class="fil10"
         d="m -12.784757,-33.41095 c -1.11701,2.9955 2.70201,5.787701 6.0029996,5.787701 h 11.920993 c 3.302,0 7.2390004,-2.835801 6.0030004,-5.787601 -6.7139904,-16.038902 -18.3879934,-14.849401 -23.926993,0 z"
         id="path8624"
         style="clip-rule:evenodd;fill:#990000;fill-rule:evenodd;stroke-width:0.00268817;image-rendering:optimizeQuality;shape-rendering:geometricPrecision;text-rendering:geometricPrecision" />
      <path
         class="fil15"
         d="M 11.554246,-21.158348 H 2.9852356 c -1.123,0 -2.042,0.919099 -2.042,2.042401 v 0 c 0,1.123399 0.919,2.042398 2.042,2.042398 h 8.5690104 c 1.124,0 2.043,-0.918999 2.043,-2.042398 v 0 c 0,-1.123302 -0.919,-2.042401 -2.043,-2.042401 z"
         id="path8626"
         style="clip-rule:evenodd;fill:#ffb973;fill-rule:evenodd;stroke-width:0.00268817;image-rendering:optimizeQuality;shape-rendering:geometricPrecision;text-rendering:geometricPrecision" />
      <path
         class="fil15"
         d="m 9.4972456,-16.678849 h -5.627 c -0.73801,0 -1.34099,0.603501 -1.34099,1.341202 v 0 c 0,0.7376 0.60298,1.341099 1.34099,1.341099 h 5.627 c 0.7380004,0 1.3410104,-0.603499 1.3410104,-1.341099 v 0 c 0,-0.737701 -0.60301,-1.341202 -1.3410104,-1.341202 z"
         id="path8628"
         style="clip-rule:evenodd;fill:#ffb973;fill-rule:evenodd;stroke-width:0.00268817;image-rendering:optimizeQuality;shape-rendering:geometricPrecision;text-rendering:geometricPrecision" />
      <path
         class="fil37"
         d="m 9.7302556,-43.787551 h -9.72502 c -5.180993,0 -9.339983,4.246501 -9.419993,9.435301 l -0.09,5.9023 9.084023,-0.0058 c 0.439,5.495501 10.043,9.0039 18.6619904,10.0478 1.85999,-3.822401 0.909,-10.4674 0.909,-15.944301 0,-5.1894 -4.23899,-9.435301 -9.4199904,-9.435301 z"
         id="path8630"
         style="clip-rule:evenodd;fill:#cc3300;fill-rule:evenodd;stroke-width:0.00268817;image-rendering:optimizeQuality;shape-rendering:geometricPrecision;text-rendering:geometricPrecision" />
      <path
         class="fil10"
         d="m 3.0852456,-43.864151 h -3.16399 c -5.337023,0 -9.613003,4.276101 -9.704023,9.500601 l -0.10199,5.9136 9.341003,0.843902 0.12399,-0.835703 -0.131,-8.022499 c -0.049,-2.982 1.42301,-5.654701 3.63601,-7.399901 z"
         id="path8632"
         style="clip-rule:evenodd;fill:#990000;fill-rule:evenodd;stroke-width:0.00268817;image-rendering:optimizeQuality;shape-rendering:geometricPrecision;text-rendering:geometricPrecision" />
      <path
         class="fil61"
         d="M 14.258233,-37.55085 H 2.5822226 c -2.623,0 -4.76898,2.1459 -4.76898,4.7687 v 0 c 0,2.622701 2.14598,4.768702 4.76898,4.768702 H 14.258233 c 2.623,0 4.768003,-2.146001 4.768003,-4.768702 v 0 c 0,-2.6228 -2.145003,-4.7687 -4.768003,-4.7687 z"
         id="path8634"
         style="clip-rule:evenodd;fill:#ffcc99;fill-rule:evenodd;stroke-width:0.00268817;image-rendering:optimizeQuality;shape-rendering:geometricPrecision;text-rendering:geometricPrecision" />
      <path
         class="fil18"
         d="m 13.776243,-35.02855 v 0 c -0.94702,0 -1.72101,0.7743 -1.72101,1.7207 v 2.033499 c 0,0.946402 0.77399,1.720702 1.72101,1.720702 v 0 c 0.94599,0 1.71998,-0.7743 1.71998,-1.720702 v -2.033499 c 0,-0.9464 -0.77399,-1.7207 -1.71998,-1.7207 z"
         id="path8636"
         style="clip-rule:evenodd;fill:#333333;fill-rule:evenodd;stroke-width:0.00268817;image-rendering:optimizeQuality;shape-rendering:geometricPrecision;text-rendering:geometricPrecision" />
      <path
         class="fil18"
         d="m 4.3942226,-35.02855 v 0 c -0.94599,0 -1.72,0.7743 -1.72,1.7207 v 2.033499 c 0,0.946402 0.77401,1.720702 1.72,1.720702 v 0 c 0.947,0 1.72101,-0.7743 1.72101,-1.720702 v -2.033499 c 0,-0.9464 -0.77401,-1.7207 -1.72101,-1.7207 z"
         id="path8638"
         style="clip-rule:evenodd;fill:#333333;fill-rule:evenodd;stroke-width:0.00268817;image-rendering:optimizeQuality;shape-rendering:geometricPrecision;text-rendering:geometricPrecision" />
      <path
         class="fil61"
         d="m -6.0187474,-24.849349 v 0 c -1.963,0 -3.57,1.606801 -3.57,3.570599 v 4.219702 c 0,1.963799 1.607,3.5705 3.57,3.5705 v 0 c 1.964,0 3.571,-1.606701 3.571,-3.5705 v -4.219702 c 0,-1.963798 -1.607,-3.570599 -3.571,-3.570599 z"
         id="path8640"
         style="clip-rule:evenodd;fill:#ffcc99;fill-rule:evenodd;stroke-width:0.00268817;image-rendering:optimizeQuality;shape-rendering:geometricPrecision;text-rendering:geometricPrecision" />
    </g>
    <g
       id="g1345"
       transform="translate(-84.136485,102.7866)">
      <path
         class="fil15"
         d="m 189.30126,-24.049249 v 0 c -1.96299,0 -3.56999,1.606701 -3.56999,3.570502 v 4.219699 c 0,1.963801 1.607,3.570499 3.56999,3.570499 v 0 c 1.96401,0 3.57101,-1.606698 3.57101,-3.570499 v -4.219699 c 0,-1.963801 -1.607,-3.570502 -3.57101,-3.570502 z"
         id="path9786"
         style="clip-rule:evenodd;fill:#ffb973;fill-rule:evenodd;stroke-width:0.00268817;image-rendering:optimizeQuality;shape-rendering:geometricPrecision;text-rendering:geometricPrecision" />
      <path
         class="fil11"
         d="m 196.45626,-19.660949 v 0 c -0.648,-0.8093 -1.84,-0.941399 -2.64899,-0.293601 l -5.021,4.018402 c -0.80901,0.647801 -0.94101,1.839899 -0.29301,2.649202 v 0 c 0.647,0.809299 1.84001,0.941498 2.649,0.293698 l 5.02,-4.018399 c 0.81,-0.647801 0.94201,-1.84 0.294,-2.649302 z"
         id="path9788"
         style="clip-rule:evenodd;fill:#663333;fill-rule:evenodd;stroke-width:0.00268817;image-rendering:optimizeQuality;shape-rendering:geometricPrecision;text-rendering:geometricPrecision" />
      <path
         class="fil12"
         d="m 200.08826,-18.650948 -3.822,-4.775401 c -0.83099,-1.038399 -2.361,-1.208 -3.399,-0.376801 v 0 c -1.038,0.831102 -1.208,2.3607 -0.37699,3.399002 l 3.82299,4.775401 c 0.831,1.0384 2.36,1.208 3.399,0.376798 v 0 c 1.038,-0.831098 1.208,-2.360699 0.376,-3.398999 z"
         id="path9790"
         style="clip-rule:evenodd;fill:#996633;fill-rule:evenodd;stroke-width:0.00268817;image-rendering:optimizeQuality;shape-rendering:geometricPrecision;text-rendering:geometricPrecision" />
      <path
         class="fil13"
         d="m 211.01526,-31.40545 v 0 c -1.246,-1.5575 -3.541,-1.8119 -5.098,-0.5652 l -9.662,7.733502 c -1.55799,1.2467 -1.81199,3.541 -0.56499,5.0986 v 0 c 1.246,1.557599 3.54099,1.811901 5.09799,0.5652 l 9.662,-7.733501 c 1.55801,-1.2466 1.81201,-3.541001 0.565,-5.098601 z"
         id="path9792"
         style="clip-rule:evenodd;fill:#cccccc;fill-rule:evenodd;stroke-width:0.00268817;image-rendering:optimizeQuality;shape-rendering:geometricPrecision;text-rendering:geometricPrecision" />
      <path
         class="fil10"
         d="m 167.03227,-34.03765 c 2.332,1.8089 5.949,1.4736 6.929,0.1002 l 3.538,-4.9588 c 0.98,-1.373301 -0.373,-4.283501 -3.365,-5.094201 -16.25701,-4.4045 -18.66501,0.9855 -7.102,9.952801 z"
         id="path9794"
         style="clip-rule:evenodd;fill:#990000;fill-rule:evenodd;stroke-width:0.00268817;image-rendering:optimizeQuality;shape-rendering:geometricPrecision;text-rendering:geometricPrecision" />
      <path
         class="fil60"
         d="m 174.51227,-20.34875 h -3.36 c -1.463,0 -2.66101,1.197203 -2.66101,2.660402 v 6.110001 c 0,1.4633 1.19801,2.6605004 2.66101,2.6605004 h 3.36 c 1.463,0 2.661,-1.1972004 2.661,-2.6605004 v -6.110001 c 0,-1.463199 -1.198,-2.660402 -2.661,-2.660402 z"
         id="path9796"
         style="clip-rule:evenodd;fill:#663399;fill-rule:evenodd;stroke-width:0.00268817;image-rendering:optimizeQuality;shape-rendering:geometricPrecision;text-rendering:geometricPrecision" />
      <path
         class="fil60"
         d="m 185.08427,-20.34875 h -3.361 c -1.463,0 -2.66,1.197203 -2.66,2.660402 v 6.110001 c 0,1.4633 1.197,2.6605004 2.66,2.6605004 h 3.361 c 1.463,0 2.65999,-1.1972004 2.65999,-2.6605004 v -6.110001 c 0,-1.463199 -1.19699,-2.660402 -2.65999,-2.660402 z"
         id="path9798"
         style="clip-rule:evenodd;fill:#663399;fill-rule:evenodd;stroke-width:0.00268817;image-rendering:optimizeQuality;shape-rendering:geometricPrecision;text-rendering:geometricPrecision" />
      <path
         class="fil61"
         d="m 182.31527,-42.920551 h -9.726 c -5.18,0 -9.419,4.238801 -9.419,9.419501 v 11.8246 c 0,5.180703 4.239,9.419503 9.419,9.419503 h 9.726 c 5.181,0 9.41899,-4.2388 9.41899,-9.419503 v -11.8246 c 0,-5.1807 -4.23799,-9.419501 -9.41899,-9.419501 z"
         id="path9800"
         style="clip-rule:evenodd;fill:#ffcc99;fill-rule:evenodd;stroke-width:0.00268817;image-rendering:optimizeQuality;shape-rendering:geometricPrecision;text-rendering:geometricPrecision" />
      <path
         class="fil62"
         d="m 175.63527,-42.908151 h -3.071 c -5.181,0 -9.42,4.245901 -9.42,9.435301 v 11.793 c 0,5.189403 4.239,9.435304 9.42,9.435304 h 2.739 c -1.958,-1.732301 -3.198,-4.262202 -3.198,-7.068503 V -35.55915 c 0,-2.9618 1.382,-5.615801 3.53,-7.349001 z"
         id="path9802"
         style="clip-rule:evenodd;fill:#b3a4b6;fill-rule:evenodd;stroke-width:0.00268817;image-rendering:optimizeQuality;shape-rendering:geometricPrecision;text-rendering:geometricPrecision" />
      <path
         class="fil62"
         d="m 179.71527,-42.883351 h 2.688 c 5.181,0 9.41899,4.245801 9.41899,9.435201 v 11.793002 c 0,5.1895 -4.23799,9.435301 -9.41899,9.435301 h -2.688 c 5.18,0 9.41899,-4.245801 9.41899,-9.435301 V -33.44815 c 0,-5.1894 -4.23899,-9.435201 -9.41899,-9.435201 z"
         id="path9804"
         style="clip-rule:evenodd;fill:#b3a4b6;fill-rule:evenodd;stroke-width:0.00268817;image-rendering:optimizeQuality;shape-rendering:geometricPrecision;text-rendering:geometricPrecision" />
      <path
         class="fil10"
         d="m 159.86427,-32.57755 c -1.11701,2.9954 2.702,5.787601 6.003,5.787601 h 11.921 c 3.302,0 7.239,-2.835801 6.003,-5.787601 -6.714,-16.038801 -18.388,-14.849401 -23.927,0 z"
         id="path9806"
         style="clip-rule:evenodd;fill:#990000;fill-rule:evenodd;stroke-width:0.00268817;image-rendering:optimizeQuality;shape-rendering:geometricPrecision;text-rendering:geometricPrecision" />
      <path
         class="fil15"
         d="m 184.20427,-20.324948 h -8.57 c -1.123,0 -2.042,0.918999 -2.042,2.042398 v 0 c 0,1.123302 0.919,2.042401 2.042,2.042401 h 8.57 c 1.123,0 2.042,-0.919099 2.042,-2.042401 v 0 c 0,-1.123399 -0.919,-2.042398 -2.042,-2.042398 z"
         id="path9808"
         style="clip-rule:evenodd;fill:#ffb973;fill-rule:evenodd;stroke-width:0.00268817;image-rendering:optimizeQuality;shape-rendering:geometricPrecision;text-rendering:geometricPrecision" />
      <path
         class="fil15"
         d="m 182.14627,-15.845449 h -5.627 c -0.737,0 -1.341,0.603502 -1.341,1.341102 v 0 c 0,0.7376 0.604,1.341099 1.341,1.341099 h 5.627 c 0.738,0 1.341,-0.603499 1.341,-1.341099 v 0 c 0,-0.7376 -0.603,-1.341102 -1.341,-1.341102 z"
         id="path9810"
         style="clip-rule:evenodd;fill:#ffb973;fill-rule:evenodd;stroke-width:0.00268817;image-rendering:optimizeQuality;shape-rendering:geometricPrecision;text-rendering:geometricPrecision" />
      <path
         class="fil37"
         d="m 182.37927,-42.954151 h -9.725 c -5.18101,0 -9.34,4.246401 -9.419,9.435201 l -0.091,5.9023 9.084,-0.0058 c 0.439,5.495501 10.043,9.0039 18.66199,10.0478 1.86,-3.822398 0.909,-10.467401 0.909,-15.944301 0,-5.1894 -4.23899,-9.4352 -9.41999,-9.4352 z"
         id="path9812"
         style="clip-rule:evenodd;fill:#cc3300;fill-rule:evenodd;stroke-width:0.00268817;image-rendering:optimizeQuality;shape-rendering:geometricPrecision;text-rendering:geometricPrecision" />
      <path
         class="fil10"
         d="m 175.73427,-43.030751 h -3.164 c -5.337,0 -9.613,4.276001 -9.704,9.500601 l -0.102,5.9135 9.341,0.844 0.124,-0.835801 -0.131,-8.022499 c -0.048,-2.9819 1.423,-5.654701 3.636,-7.399801 z"
         id="path9814"
         style="clip-rule:evenodd;fill:#990000;fill-rule:evenodd;stroke-width:0.00268817;image-rendering:optimizeQuality;shape-rendering:geometricPrecision;text-rendering:geometricPrecision" />
      <path
         class="fil61"
         d="m 186.90726,-36.71755 h -11.676 c -2.62299,0 -4.76899,2.1459 -4.76899,4.7687 v 0 c 0,2.622801 2.146,4.768702 4.76899,4.768702 h 11.676 c 2.622,0 4.768,-2.145901 4.768,-4.768702 v 0 c 0,-2.6228 -2.146,-4.7687 -4.768,-4.7687 z"
         id="path9816"
         style="clip-rule:evenodd;fill:#ffcc99;fill-rule:evenodd;stroke-width:0.00268817;image-rendering:optimizeQuality;shape-rendering:geometricPrecision;text-rendering:geometricPrecision" />
      <path
         class="fil18"
         d="m 186.42526,-34.19525 v 0 c -0.947,0 -1.721,0.7743 -1.721,1.7207 v 2.0336 c 0,0.946401 0.774,1.720702 1.721,1.720702 v 0 c 0.946,0 1.72,-0.774301 1.72,-1.720702 v -2.0336 c 0,-0.9464 -0.774,-1.7207 -1.72,-1.7207 z"
         id="path9818"
         style="clip-rule:evenodd;fill:#333333;fill-rule:evenodd;stroke-width:0.00268817;image-rendering:optimizeQuality;shape-rendering:geometricPrecision;text-rendering:geometricPrecision" />
      <path
         class="fil18"
         d="m 177.04326,-34.19525 v 0 c -0.946,0 -1.72,0.7743 -1.72,1.7207 v 2.0336 c 0,0.946401 0.774,1.720702 1.72,1.720702 v 0 c 0.947,0 1.721,-0.774301 1.721,-1.720702 v -2.0336 c 0,-0.9464 -0.774,-1.7207 -1.721,-1.7207 z"
         id="path9820"
         style="clip-rule:evenodd;fill:#333333;fill-rule:evenodd;stroke-width:0.00268817;image-rendering:optimizeQuality;shape-rendering:geometricPrecision;text-rendering:geometricPrecision" />
      <path
         class="fil61"
         d="m 166.63027,-24.015949 v 0 c -1.963,0 -3.57,1.606701 -3.57,3.570499 v 4.219702 c 0,1.963801 1.607,3.5705 3.57,3.5705 v 0 c 1.964,0 3.571,-1.606699 3.571,-3.5705 v -4.219702 c 0,-1.963798 -1.607,-3.570499 -3.571,-3.570499 z"
         id="path9822"
         style="clip-rule:evenodd;fill:#ffcc99;fill-rule:evenodd;stroke-width:0.00268817;image-rendering:optimizeQuality;shape-rendering:geometricPrecision;text-rendering:geometricPrecision" />
    </g>
    <g
       id="g1261"
       transform="translate(222.13144,238.18451)">
      <path
         class="fil15"
         d="m -49.232777,-24.049249 v 0 c -1.96397,0 -3.57097,1.606701 -3.57097,3.570502 v 4.219699 c 0,1.963801 1.607,3.570499 3.57097,3.570499 v 0 c 1.96303,0 3.57003,-1.606698 3.57003,-3.570499 v -4.219699 c 0,-1.963801 -1.607,-3.570502 -3.57003,-3.570502 z"
         id="path37848"
         style="clip-rule:evenodd;fill:#ffb973;fill-rule:evenodd;stroke-width:0.00268817;image-rendering:optimizeQuality;shape-rendering:geometricPrecision;text-rendering:geometricPrecision" />
      <path
         class="fil11"
         d="m -42.078757,-19.660949 v 0 c -0.64799,-0.8093 -1.83999,-0.941399 -2.64901,-0.293601 l -5.01999,4.018402 c -0.81,0.647801 -0.942,1.839899 -0.29401,2.649202 v 0 c 0.64799,0.809299 1.83999,0.941498 2.64901,0.293698 l 5.021,-4.018399 c 0.80899,-0.647801 0.94099,-1.84 0.293,-2.649302 z"
         id="path37850"
         style="clip-rule:evenodd;fill:#663333;fill-rule:evenodd;stroke-width:0.00268817;image-rendering:optimizeQuality;shape-rendering:geometricPrecision;text-rendering:geometricPrecision" />
      <path
         class="fil12"
         d="m -38.445767,-18.650948 -3.82299,-4.775401 c -0.831,-1.038399 -2.36,-1.208 -3.39899,-0.376801 v 0 c -1.03802,0.831102 -1.20801,2.3607 -0.37701,3.399002 l 3.82299,4.775401 c 0.831,1.0384 2.36001,1.208 3.399,0.376798 v 0 c 1.03801,-0.831098 1.20801,-2.360699 0.377,-3.398999 z"
         id="path37852"
         style="clip-rule:evenodd;fill:#996633;fill-rule:evenodd;stroke-width:0.00268817;image-rendering:optimizeQuality;shape-rendering:geometricPrecision;text-rendering:geometricPrecision" />
      <path
         class="fil13"
         d="m -27.518767,-31.40545 v 0 c -1.247,-1.5575 -3.541,-1.8119 -5.09899,-0.5652 l -9.66201,7.733502 c -1.55699,1.2467 -1.81199,3.541 -0.56499,5.0986 v 0 c 1.24698,1.557599 3.541,1.811901 5.098,0.5652 l 9.662,-7.733501 c 1.558,-1.2466 1.812,-3.541001 0.56599,-5.098601 z"
         id="path37854"
         style="clip-rule:evenodd;fill:#cccccc;fill-rule:evenodd;stroke-width:0.00268817;image-rendering:optimizeQuality;shape-rendering:geometricPrecision;text-rendering:geometricPrecision" />
      <path
         class="fil10"
         d="m -71.502757,-34.03765 c 2.33299,1.8089 5.949,1.4736 6.92899,0.1002 l 3.53902,-4.9588 c 0.97999,-1.373301 -0.37402,-4.283501 -3.36601,-5.094201 -16.257,-4.4045 -18.665,0.9855 -7.102,9.952801 z"
         id="path37856"
         style="clip-rule:evenodd;fill:#990000;fill-rule:evenodd;stroke-width:0.00268817;image-rendering:optimizeQuality;shape-rendering:geometricPrecision;text-rendering:geometricPrecision" />
      <path
         class="fil60"
         d="m -64.022767,-20.34875 h -3.36 c -1.46299,0 -2.65999,1.197203 -2.65999,2.660402 v 6.110001 c 0,1.4633 1.197,2.6605004 2.65999,2.6605004 h 3.36 c 1.46402,0 2.66102,-1.1972004 2.66102,-2.6605004 v -6.110001 c 0,-1.463199 -1.197,-2.660402 -2.66102,-2.660402 z"
         id="path37858"
         style="clip-rule:evenodd;fill:#663399;fill-rule:evenodd;stroke-width:0.00268817;image-rendering:optimizeQuality;shape-rendering:geometricPrecision;text-rendering:geometricPrecision" />
      <path
         class="fil60"
         d="m -53.450757,-20.34875 h -3.36 c -1.46399,0 -2.661,1.197203 -2.661,2.660402 v 6.110001 c 0,1.4633 1.19701,2.6605004 2.661,2.6605004 h 3.36 c 1.46298,0 2.65998,-1.1972004 2.65998,-2.6605004 v -6.110001 c 0,-1.463199 -1.197,-2.660402 -2.65998,-2.660402 z"
         id="path37860"
         style="clip-rule:evenodd;fill:#663399;fill-rule:evenodd;stroke-width:0.00268817;image-rendering:optimizeQuality;shape-rendering:geometricPrecision;text-rendering:geometricPrecision" />
      <path
         class="fil61"
         d="m -56.219757,-42.920551 h -9.725 c -5.18102,0 -9.42001,4.238801 -9.42001,9.419501 v 11.8246 c 0,5.180703 4.23899,9.419503 9.42001,9.419503 h 9.725 c 5.18099,0 9.41901,-4.2388 9.41901,-9.419503 v -11.8246 c 0,-5.1807 -4.23802,-9.419501 -9.41901,-9.419501 z"
         id="path37862"
         style="clip-rule:evenodd;fill:#ffcc99;fill-rule:evenodd;stroke-width:0.00268817;image-rendering:optimizeQuality;shape-rendering:geometricPrecision;text-rendering:geometricPrecision" />
      <path
         class="fil62"
         d="m -62.898767,-42.908151 h -3.072 c -5.18099,0 -9.41999,4.245901 -9.41999,9.435301 v 11.793 c 0,5.189403 4.239,9.435304 9.41999,9.435304 h 2.74 c -1.958,-1.732301 -3.19799,-4.262202 -3.19799,-7.068503 V -35.55915 c 0,-2.9618 1.38099,-5.615801 3.52999,-7.349001 z"
         id="path37864"
         style="clip-rule:evenodd;fill:#b3a4b6;fill-rule:evenodd;stroke-width:0.00268817;image-rendering:optimizeQuality;shape-rendering:geometricPrecision;text-rendering:geometricPrecision" />
      <path
         class="fil62"
         d="m -58.819767,-42.883351 h 2.68801 c 5.18099,0 9.41999,4.245801 9.41999,9.435201 v 11.793002 c 0,5.1895 -4.239,9.435301 -9.41999,9.435301 h -2.68801 c 5.18099,0 9.41901,-4.245801 9.41901,-9.435301 V -33.44815 c 0,-5.1894 -4.23802,-9.435201 -9.41901,-9.435201 z"
         id="path37866"
         style="clip-rule:evenodd;fill:#b3a4b6;fill-rule:evenodd;stroke-width:0.00268817;image-rendering:optimizeQuality;shape-rendering:geometricPrecision;text-rendering:geometricPrecision" />
      <path
         class="fil10"
         d="m -78.669757,-32.57755 c -1.118,2.9954 2.701,5.787601 6.00199,5.787601 h 11.92199 c 3.30102,0 7.23802,-2.835801 6.00202,-5.787601 -6.71401,-16.038801 -18.38801,-14.849401 -23.926,0 z"
         id="path37868"
         style="clip-rule:evenodd;fill:#990000;fill-rule:evenodd;stroke-width:0.00268817;image-rendering:optimizeQuality;shape-rendering:geometricPrecision;text-rendering:geometricPrecision" />
      <path
         class="fil15"
         d="m -54.330767,-20.324948 h -8.56999 c -1.12302,0 -2.042,0.918999 -2.042,2.042398 v 0 c 0,1.123302 0.91898,2.042401 2.042,2.042401 h 8.56999 c 1.123,0 2.042,-0.919099 2.042,-2.042401 v 0 c 0,-1.123399 -0.919,-2.042398 -2.042,-2.042398 z"
         id="path37870"
         style="clip-rule:evenodd;fill:#ffb973;fill-rule:evenodd;stroke-width:0.00268817;image-rendering:optimizeQuality;shape-rendering:geometricPrecision;text-rendering:geometricPrecision" />
      <path
         class="fil15"
         d="m -56.388777,-15.845449 h -5.627 c -0.73699,0 -1.34098,0.603502 -1.34098,1.341102 v 0 c 0,0.7376 0.60399,1.341099 1.34098,1.341099 h 5.627 c 0.738,0 1.34202,-0.603499 1.34202,-1.341099 v 0 c 0,-0.7376 -0.60402,-1.341102 -1.34202,-1.341102 z"
         id="path37872"
         style="clip-rule:evenodd;fill:#ffb973;fill-rule:evenodd;stroke-width:0.00268817;image-rendering:optimizeQuality;shape-rendering:geometricPrecision;text-rendering:geometricPrecision" />
      <path
         class="fil37"
         d="m -56.154747,-42.954151 h -9.72601 c -5.18001,0 -9.34,4.246401 -9.41901,9.435201 l -0.091,5.9023 9.084,-0.0058 c 0.43899,5.495501 10.043,9.0039 18.66199,10.0478 1.86002,-3.822398 0.909,-10.467401 0.909,-15.944301 0,-5.1894 -4.239,-9.4352 -9.41898,-9.4352 z"
         id="path37874"
         style="clip-rule:evenodd;fill:#cc3300;fill-rule:evenodd;stroke-width:0.00268817;image-rendering:optimizeQuality;shape-rendering:geometricPrecision;text-rendering:geometricPrecision" />
      <path
         class="fil10"
         d="m -62.799757,-43.030751 h -3.165 c -5.33702,0 -9.613,4.276001 -9.70301,9.500601 l -0.102,5.9135 9.34101,0.844 0.123,-0.835801 -0.13102,-8.022499 c -0.048,-2.9819 1.42301,-5.654701 3.63702,-7.399801 z"
         id="path37876"
         style="clip-rule:evenodd;fill:#990000;fill-rule:evenodd;stroke-width:0.00268817;image-rendering:optimizeQuality;shape-rendering:geometricPrecision;text-rendering:geometricPrecision" />
      <path
         class="fil61"
         d="m -51.628767,-36.71755 h -11.67501 c -2.623,0 -4.769,2.1459 -4.769,4.7687 v 0 c 0,2.622801 2.146,4.768702 4.769,4.768702 h 11.67501 c 2.623,0 4.76901,-2.145901 4.76901,-4.768702 v 0 c 0,-2.6228 -2.14601,-4.7687 -4.76901,-4.7687 z"
         id="path37878"
         style="clip-rule:evenodd;fill:#ffcc99;fill-rule:evenodd;stroke-width:0.00268817;image-rendering:optimizeQuality;shape-rendering:geometricPrecision;text-rendering:geometricPrecision" />
      <path
         class="fil61"
         d="m -71.903757,-24.015949 v 0 c -1.964,0 -3.571,1.606701 -3.571,3.570499 v 4.219702 c 0,1.963801 1.607,3.5705 3.571,3.5705 v 0 c 1.963,0 3.57,-1.606699 3.57,-3.5705 v -4.219702 c 0,-1.963798 -1.607,-3.570499 -3.57,-3.570499 z"
         id="path37880"
         style="clip-rule:evenodd;fill:#ffcc99;fill-rule:evenodd;stroke-width:0.00268817;image-rendering:optimizeQuality;shape-rendering:geometricPrecision;text-rendering:geometricPrecision" />
      <g
         id="g1191"
         transform="matrix(-1,0,0,1,-114.93253,0)">
        <path
           class="fil18"
           d="m -50.013767,-35.79495 v 0 c -0.37799,-0.3774 -0.995,-0.3774 -1.37301,0 l -5.37998,5.3805 c -0.37701,0.377399 -0.37701,0.9949 0,1.372201 v 0 c 0.377,0.377399 0.99499,0.377399 1.372,0 l 5.38099,-5.380501 c 0.377,-0.3774 0.377,-0.9949 0,-1.3723 z"
           id="path37882"
           style="clip-rule:evenodd;fill:#333333;fill-rule:evenodd;stroke-width:0.00268817;image-rendering:optimizeQuality;shape-rendering:geometricPrecision;text-rendering:geometricPrecision" />
        <path
           class="fil18"
           d="m -56.766757,-35.79495 v 0 c 0.377,-0.3774 0.99499,-0.3774 1.372,0 l 5.38099,5.3805 c 0.377,0.377399 0.377,0.9949 0,1.372201 v 0 c -0.37799,0.377399 -0.995,0.377399 -1.37301,0 l -5.37998,-5.380501 c -0.37701,-0.3774 -0.37701,-0.9949 0,-1.3723 z"
           id="path37884"
           style="clip-rule:evenodd;fill:#333333;fill-rule:evenodd;stroke-width:0.00268817;image-rendering:optimizeQuality;shape-rendering:geometricPrecision;text-rendering:geometricPrecision" />
        <path
           class="fil18"
           d="m -59.445767,-35.79495 v 0 c -0.37701,-0.3774 -0.995,-0.3774 -1.372,0 l -5.38099,5.3805 c -0.377,0.377399 -0.377,0.9949 0,1.372201 v 0 c 0.377,0.377399 0.99499,0.377399 1.372,0 l 5.38099,-5.380501 c 0.377,-0.3774 0.377,-0.9949 0,-1.3723 z"
           id="path37886"
           style="clip-rule:evenodd;fill:#333333;fill-rule:evenodd;stroke-width:0.00268817;image-rendering:optimizeQuality;shape-rendering:geometricPrecision;text-rendering:geometricPrecision" />
        <path
           class="fil18"
           d="m -66.198757,-35.79495 v 0 c 0.377,-0.3774 0.99499,-0.3774 1.372,0 l 5.38099,5.3805 c 0.377,0.377399 0.377,0.9949 0,1.372201 v 0 c -0.37701,0.377399 -0.995,0.377399 -1.372,0 l -5.38099,-5.380501 c -0.377,-0.3774 -0.377,-0.9949 0,-1.3723 z"
           id="path37888"
           style="clip-rule:evenodd;fill:#333333;fill-rule:evenodd;stroke-width:0.00268817;image-rendering:optimizeQuality;shape-rendering:geometricPrecision;text-rendering:geometricPrecision" />
      </g>
    </g>
    <g
       id="g1237"
       transform="translate(218.11801,237.45546)">
      <path
         class="fil15"
         d="m -105.91878,-33.31785 v 0 c -1.38898,1.3886 -1.38898,3.660799 0,5.049401 l 2.984,2.983799 c 1.388,1.3886 3.660013,1.3886 5.049023,0 v 0 c 1.38898,-1.388599 1.38898,-3.660899 0,-5.049498 l -2.984003,-2.983802 c -1.388,-1.3886 -3.66101,-1.3886 -5.04902,0 z"
         id="path37890"
         style="clip-rule:evenodd;fill:#ffb973;fill-rule:evenodd;stroke-width:0.00268817;image-rendering:optimizeQuality;shape-rendering:geometricPrecision;text-rendering:geometricPrecision" />
      <path
         class="fil11"
         d="m -97.756777,-35.27395 v 0 c -1.02999,-0.1142 -1.96699,0.6353 -2.081,1.6656 l -0.708003,6.391501 c -0.11499,1.030301 0.635003,1.966701 1.665003,2.0809 v 0 c 1.031,0.1143 1.96702,-0.635301 2.081,-1.665599 l 0.709,-6.391402 c 0.11401,-1.0304 -0.636,-1.9668 -1.666,-2.081 z"
         id="path37892"
         style="clip-rule:evenodd;fill:#663333;fill-rule:evenodd;stroke-width:0.00268817;image-rendering:optimizeQuality;shape-rendering:geometricPrecision;text-rendering:geometricPrecision" />
      <path
         class="fil12"
         d="m -94.473777,-37.12835 -6.079993,-0.6739 c -1.32199,-0.1466 -2.52301,0.8151 -2.67001,2.1371 v 0 c -0.146,1.3219 0.81502,2.5234 2.13701,2.6699 l 6.079993,0.674 c 1.32202,0.1465 2.52302,-0.8151 2.67002,-2.1371 v 0 c 0.14599,-1.322 -0.815,-2.5234 -2.13702,-2.67 z"
         id="path37894"
         style="clip-rule:evenodd;fill:#996633;fill-rule:evenodd;stroke-width:0.00268817;image-rendering:optimizeQuality;shape-rendering:geometricPrecision;text-rendering:geometricPrecision" />
      <path
         class="fil13"
         d="m -95.766767,-53.873552 v 0 c -1.983,-0.2198 -3.78499,1.2227 -4.005,3.2056 l -1.363003,12.300402 c -0.22,1.9829 1.222993,3.7851 3.205013,4.0049 v 0 c 1.983,0.2198 3.786,-1.2227 4.00499,-3.2056 l 1.36401,-12.300402 c 0.22,-1.9829 -1.22301,-3.7851 -3.20601,-4.0049 z"
         id="path37896"
         style="clip-rule:evenodd;fill:#cccccc;fill-rule:evenodd;stroke-width:0.00268817;image-rendering:optimizeQuality;shape-rendering:geometricPrecision;text-rendering:geometricPrecision" />
      <path
         class="fil10"
         d="m -128.72877,-24.633748 c 2.92798,-0.3702 5.24899,-3.164703 4.97099,-4.828802 l -1.00499,-6.0085 c -0.278,-1.6641 -3.29301,-2.7648 -5.98199,-1.2223 -14.61,8.381301 -12.50101,13.894702 2.01599,12.059602 z"
         id="path37898"
         style="clip-rule:evenodd;fill:#990000;fill-rule:evenodd;stroke-width:0.00268817;image-rendering:optimizeQuality;shape-rendering:geometricPrecision;text-rendering:geometricPrecision" />
      <path
         class="fil60"
         d="m -113.75978,-20.24375 -2.37599,2.376202 c -1.035,1.034701 -1.035,2.727801 0,3.762401 l 4.31999,4.3205014 c 1.03502,1.0346 2.72801,1.0346 3.76301,0 l 2.37601,-2.3762024 c 1.03499,-1.034701 1.03499,-2.727799 0,-3.762399 l -4.32102,-4.320503 c -1.03399,-1.034597 -2.72698,-1.034597 -3.762,0 z"
         id="path37900"
         style="clip-rule:evenodd;fill:#663399;fill-rule:evenodd;stroke-width:0.00268817;image-rendering:optimizeQuality;shape-rendering:geometricPrecision;text-rendering:geometricPrecision" />
      <path
         class="fil60"
         d="m -106.28478,-27.718949 -2.37598,2.376199 c -1.03502,1.034701 -1.03502,2.727701 0,3.762402 l 4.32099,4.3204 c 1.03399,1.0347 2.72701,1.0347 3.762,0 l 2.375993,-2.376199 c 1.03502,-1.034701 1.03502,-2.727701 0,-3.762402 l -4.319993,-4.3205 c -1.03499,-1.0346 -2.72801,-1.0346 -3.76301,0 z"
         id="path37902"
         style="clip-rule:evenodd;fill:#663399;fill-rule:evenodd;stroke-width:0.00268817;image-rendering:optimizeQuality;shape-rendering:geometricPrecision;text-rendering:geometricPrecision" />
      <path
         class="fil61"
         d="m -124.20278,-41.721651 -6.877,6.876901 c -3.664,3.6633 -3.664,9.6578 0,13.321102 l 8.36102,8.361299 c 3.663,3.6633024 9.65798,3.6633024 13.32098,0 l 6.87702,-6.876899 c 3.663003,-3.663302 3.663003,-9.657802 0,-13.321102 l -8.36102,-8.361301 c -3.664,-3.6633 -9.658,-3.6633 -13.321,0 z"
         id="path37904"
         style="clip-rule:evenodd;fill:#ffcc99;fill-rule:evenodd;stroke-width:0.00268817;image-rendering:optimizeQuality;shape-rendering:geometricPrecision;text-rendering:geometricPrecision" />
      <path
         class="fil62"
         d="m -128.91776,-36.98975 -2.17202,2.1721 c -3.663,3.663301 -3.658,9.6628 0.0111,13.3322 l 8.33901,8.339003 c 3.66998,3.6694004 9.66898,3.6744994 13.33299,0.01119 l 1.93701,-1.9373 c -2.609,0.159499 -5.275,-0.752599 -7.259,-2.737001 l -11.488,-11.4877 c -2.095,-2.094301 -2.995,-4.947701 -2.701,-7.692501 z"
         id="path37906"
         style="clip-rule:evenodd;fill:#b3a4b6;fill-rule:evenodd;stroke-width:0.00268817;image-rendering:optimizeQuality;shape-rendering:geometricPrecision;text-rendering:geometricPrecision" />
      <path
         class="fil62"
         d="m -126.01579,-39.85675 1.90101,-1.901001 c 3.664,-3.6633 9.663,-3.6582 13.33301,0.0112 l 8.338,8.338901 c 3.669993,3.669499 3.674993,9.669 0.0119,13.332302 l -1.90098,1.901 c 3.663,-3.663299 3.658,-9.662801 -0.0119,-13.332302 l -8.338,-8.338901 c -3.67001,-3.6695 -9.66902,-3.6745 -13.33302,-0.0112 z"
         id="path37908"
         style="clip-rule:evenodd;fill:#b3a4b6;fill-rule:evenodd;stroke-width:0.00268817;image-rendering:optimizeQuality;shape-rendering:geometricPrecision;text-rendering:geometricPrecision" />
      <path
         class="fil10"
         d="m -132.76478,-18.533147 c 1.328,2.908099 6.003,2.1824 8.337,-0.152202 l 8.43002,-8.4295 c 2.335,-2.334602 3.11298,-7.123701 0.15197,-8.337201 -16.08899,-6.593501 -23.50299,2.5026 -16.91899,16.918903 z"
         id="path37910"
         style="clip-rule:evenodd;fill:#990000;fill-rule:evenodd;stroke-width:0.00268817;image-rendering:optimizeQuality;shape-rendering:geometricPrecision;text-rendering:geometricPrecision" />
      <path
         class="fil15"
         d="m -106.88977,-27.07975 -6.05999,6.059501 c -0.79402,0.7943 -0.79402,2.0941 0,2.888401 v 0 c 0.79399,0.7943 2.09399,0.7943 2.88898,0 l 6.05901,-6.059501 c 0.79399,-0.7943 0.79399,-2.0941 0,-2.888401 v 0 c -0.79401,-0.7943 -2.09401,-0.7943 -2.888,0 z"
         id="path37912"
         style="clip-rule:evenodd;fill:#ffb973;fill-rule:evenodd;stroke-width:0.00268817;image-rendering:optimizeQuality;shape-rendering:geometricPrecision;text-rendering:geometricPrecision" />
      <path
         class="fil15"
         d="m -105.17776,-22.45745 -3.97901,3.978902 c -0.521,0.5216 -0.521,1.375101 0,1.8967 v 0 c 0.52199,0.5216 1.37501,0.5216 1.897,0 l 3.97899,-3.979 c 0.522,-0.521501 0.522,-1.375 0,-1.896602 v 0 c -0.52199,-0.521599 -1.37498,-0.521599 -1.89698,0 z"
         id="path37914"
         style="clip-rule:evenodd;fill:#ffb973;fill-rule:evenodd;stroke-width:0.00268817;image-rendering:optimizeQuality;shape-rendering:geometricPrecision;text-rendering:geometricPrecision" />
      <path
         class="fil37"
         d="m -124.18177,-41.791151 -6.876,6.876901 c -3.664,3.663299 -3.60201,9.6071 0.0111,13.332301 l 4.109,4.237501 6.41901,-6.4272 c 4.197,3.575499 13.46901,-0.734701 20.302,-6.091502 -1.388,-4.018 -6.75899,-8.044 -10.63201,-11.916801 -3.66999,-3.6694 -9.66899,-3.6745 -13.33299,-0.0112 z"
         id="path37916"
         style="clip-rule:evenodd;fill:#cc3300;fill-rule:evenodd;stroke-width:0.00268817;image-rendering:optimizeQuality;shape-rendering:geometricPrecision;text-rendering:geometricPrecision" />
      <path
         class="fil10"
         d="m -128.93377,-37.14655 -2.238,2.2376 c -3.774,3.773799 -3.774,9.821201 -0.14301,13.5794 l 4.109,4.253701 7.20201,-6.008499 -0.504,-0.678201 -5.76501,-5.5802 c -2.14299,-2.074201 -2.99198,-5.004701 -2.66099,-7.803801 z"
         id="path37918"
         style="clip-rule:evenodd;fill:#990000;fill-rule:evenodd;stroke-width:0.00268817;image-rendering:optimizeQuality;shape-rendering:geometricPrecision;text-rendering:geometricPrecision" />
      <path
         class="fil61"
         d="m -109.82953,-33.838151 -8.25601,8.2561 c -1.85499,1.854601 -4.89,1.854601 -6.74399,0 v 0 c -1.85502,-1.8546 -1.85502,-4.8894 0,-6.744 l 8.256,-8.256001 c 1.85399,-1.854599 4.889,-1.854599 6.744,0 v 0 c 1.85398,1.854601 1.85398,4.889302 0,6.743901 z"
         id="path37920"
         style="clip-rule:evenodd;fill:#ffcc99;fill-rule:evenodd;stroke-width:0.00268817;image-rendering:optimizeQuality;shape-rendering:geometricPrecision;text-rendering:geometricPrecision" />
      <path
         class="fil61"
         d="m -121.92578,-17.263549 v 0 c -1.38898,1.388602 -1.38898,3.660902 0,5.049501 l 2.98299,2.9838024 c 1.38901,1.388599 3.66102,1.388599 5.05003,0 v 0 c 1.38797,-1.3887004 1.38797,-3.6609024 0,-5.0495024 l -2.984,-2.983801 c -1.38901,-1.3886 -3.66101,-1.3886 -5.04902,0 z"
         id="path37922"
         style="clip-rule:evenodd;fill:#ffcc99;fill-rule:evenodd;stroke-width:0.00268817;image-rendering:optimizeQuality;shape-rendering:geometricPrecision;text-rendering:geometricPrecision" />
      <path
         class="fil18"
         d="m -119.87955,-25.09285 v 0 c 0.53301,0 0.97002,-0.436701 0.97002,-0.970401 v -7.6092 c 0,-0.5337 -0.43701,-0.9704 -0.97002,-0.9704 v 0 c -0.53398,0 -0.97099,0.4367 -0.97099,0.9704 v 7.6092 c 0,0.5337 0.43701,0.970401 0.97099,0.970401 z"
         id="path37924"
         style="clip-rule:evenodd;fill:#333333;fill-rule:evenodd;stroke-width:0.00268817;image-rendering:optimizeQuality;shape-rendering:geometricPrecision;text-rendering:geometricPrecision" />
      <path
         class="fil18"
         d="m -115.10453,-29.867851 v 0 c 0,0.533701 -0.43701,0.970301 -0.971,0.970301 h -7.60902 c -0.53398,0 -0.96999,-0.4366 -0.96999,-0.970301 v 0 c 0,-0.5337 0.43601,-0.9703 0.96999,-0.9703 h 7.60902 c 0.53399,0 0.971,0.4366 0.971,0.9703 z"
         id="path37926"
         style="clip-rule:evenodd;fill:#333333;fill-rule:evenodd;stroke-width:0.00268817;image-rendering:optimizeQuality;shape-rendering:geometricPrecision;text-rendering:geometricPrecision" />
      <path
         class="fil18"
         d="m -113.21054,-31.762151 v 0 c 0.53401,0 0.97002,-0.4367 0.97002,-0.9704 v -7.6092 c 0,-0.533699 -0.436,-0.9704 -0.97002,-0.9704 v 0 c -0.53401,0 -0.96999,0.436701 -0.96999,0.9704 v 7.6092 c 0,0.533701 0.43598,0.9704 0.96999,0.9704 z"
         id="path37928"
         style="clip-rule:evenodd;fill:#333333;fill-rule:evenodd;stroke-width:0.00268817;image-rendering:optimizeQuality;shape-rendering:geometricPrecision;text-rendering:geometricPrecision" />
      <path
         class="fil18"
         d="m -108.43552,-36.537152 v 0 c 0,0.533702 -0.43702,0.970302 -0.97002,0.970302 h -7.61 c -0.533,0 -0.96999,-0.4366 -0.96999,-0.970302 v 0 c 0,-0.533699 0.43699,-0.970299 0.96999,-0.970299 h 7.61 c 0.533,0 0.97002,0.4366 0.97002,0.970299 z"
         id="path37930"
         style="clip-rule:evenodd;fill:#333333;fill-rule:evenodd;stroke-width:0.00268817;image-rendering:optimizeQuality;shape-rendering:geometricPrecision;text-rendering:geometricPrecision" />
    </g>
    <g
       id="g1214"
       transform="translate(204.84609,234.85979)">
      <path
         class="fil15"
         d="m -167.79178,-35.22855 v 0 c 0,1.9637 1.607,3.5705 3.57,3.5705 h 4.22 c 1.964,0 3.571,-1.6068 3.571,-3.5705 v 0 c 0,-1.9638 -1.607,-3.5705 -3.571,-3.5705 h -4.22 c -1.963,0 -3.57,1.6067 -3.57,3.5705 z"
         id="path37932"
         style="clip-rule:evenodd;fill:#ffb973;fill-rule:evenodd;stroke-width:0.00268817;image-rendering:optimizeQuality;shape-rendering:geometricPrecision;text-rendering:geometricPrecision" />
      <path
         class="fil11"
         d="m -163.40377,-42.383251 v 0 c -0.80901,0.6478 -0.94101,1.839901 -0.293,2.649301 l 4.01799,5.0204 c 0.64799,0.8093 1.83999,0.9415 2.64901,0.2937 v 0 c 0.81,-0.6478 0.942,-1.84 0.29398,-2.6493 l -4.01799,-5.020401 c -0.64799,-0.8093 -1.83999,-0.9415 -2.64999,-0.2937 z"
         id="path37934"
         style="clip-rule:evenodd;fill:#663333;fill-rule:evenodd;stroke-width:0.00268817;image-rendering:optimizeQuality;shape-rendering:geometricPrecision;text-rendering:geometricPrecision" />
      <path
         class="fil12"
         d="m -162.39377,-46.015651 -4.77502,3.8223 c -1.03899,0.8311 -1.20798,2.360701 -0.377,3.399001 v 0 c 0.831,1.0384 2.36101,1.208 3.39902,0.3769 l 4.77499,-3.822301 c 1.03899,-0.8312 1.20801,-2.3607 0.377,-3.3991 v 0 c -0.831,-1.0384 -2.36,-1.208 -3.39899,-0.3768 z"
         id="path37936"
         style="clip-rule:evenodd;fill:#996633;fill-rule:evenodd;stroke-width:0.00268817;image-rendering:optimizeQuality;shape-rendering:geometricPrecision;text-rendering:geometricPrecision" />
      <path
         class="fil13"
         d="m -175.14777,-56.942453 v 0 c -1.558,1.2466 -1.812,3.541001 -0.56502,5.098601 l 7.733,9.661801 c 1.24701,1.557601 3.541,1.811901 5.099,0.5652 v 0 c 1.55702,-1.2467 1.81202,-3.5411 0.56502,-5.0986 l -7.73401,-9.661902 c -1.246,-1.5575 -3.541,-1.8119 -5.09799,-0.5652 z"
         id="path37938"
         style="clip-rule:evenodd;fill:#cccccc;fill-rule:evenodd;stroke-width:0.00268817;image-rendering:optimizeQuality;shape-rendering:geometricPrecision;text-rendering:geometricPrecision" />
      <path
         class="fil10"
         d="m -177.77977,-12.959048 c 1.80798,-2.3324 1.47299,-5.949101 0.1,-6.929102 l -4.95901,-3.538498 c -1.373,-0.98 -4.284,0.373499 -5.094,3.3655 -4.40499,16.2575014 0.98502,18.6648014 9.95302,7.1021 z"
         id="path37940"
         style="clip-rule:evenodd;fill:#990000;fill-rule:evenodd;stroke-width:0.00268817;image-rendering:optimizeQuality;shape-rendering:geometricPrecision;text-rendering:geometricPrecision" />
      <path
         class="fil60"
         d="m -164.09179,-20.439449 v 3.3605 c 0,1.463201 1.19801,2.660401 2.66102,2.660401 h 6.11 c 1.46299,0 2.65999,-1.1972 2.65999,-2.660401 v -3.3605 c 0,-1.463199 -1.197,-2.660401 -2.65999,-2.660401 h -6.11 c -1.46301,0 -2.66102,1.197202 -2.66102,2.660401 z"
         id="path37942"
         style="clip-rule:evenodd;fill:#663399;fill-rule:evenodd;stroke-width:0.00268817;image-rendering:optimizeQuality;shape-rendering:geometricPrecision;text-rendering:geometricPrecision" />
      <path
         class="fil60"
         d="m -164.09179,-31.011051 v 3.360502 c 0,1.463199 1.19801,2.660399 2.66102,2.660399 h 6.11 c 1.46299,0 2.65999,-1.1972 2.65999,-2.660399 v -3.360502 c 0,-1.463199 -1.197,-2.660399 -2.65999,-2.660399 h -6.11 c -1.46301,0 -2.66102,1.1972 -2.66102,2.660399 z"
         id="path37944"
         style="clip-rule:evenodd;fill:#663399;fill-rule:evenodd;stroke-width:0.00268817;image-rendering:optimizeQuality;shape-rendering:geometricPrecision;text-rendering:geometricPrecision" />
      <path
         class="fil61"
         d="m -186.66278,-28.242048 v 9.7254 c 0,5.180701 4.23801,9.4195004 9.419,9.4195004 h 11.825 c 5.18001,0 9.41901,-4.2387994 9.41901,-9.4195004 v -9.7254 c 0,-5.180702 -4.239,-9.419402 -9.41901,-9.419402 h -11.825 c -5.18099,0 -9.419,4.2387 -9.419,9.419402 z"
         id="path37946"
         style="clip-rule:evenodd;fill:#ffcc99;fill-rule:evenodd;stroke-width:0.00268817;image-rendering:optimizeQuality;shape-rendering:geometricPrecision;text-rendering:geometricPrecision" />
      <path
         class="fil62"
         d="m -186.65077,-21.56255 v 3.071802 c 0,5.180701 4.24598,9.4194004 9.43499,9.4194004 h 11.793 c 5.18999,0 9.436,-4.2386994 9.436,-9.4194004 v -2.739702 c -1.733,1.9578 -4.26299,3.197802 -7.06901,3.197802 h -16.246 c -2.96198,0 -5.61599,-1.381202 -7.34898,-3.529902 z"
         id="path37948"
         style="clip-rule:evenodd;fill:#b3a4b6;fill-rule:evenodd;stroke-width:0.00268817;image-rendering:optimizeQuality;shape-rendering:geometricPrecision;text-rendering:geometricPrecision" />
      <path
         class="fil62"
         d="m -186.62577,-25.64185 v -2.6884 c 0,-5.1807 4.24598,-9.4194 9.43499,-9.4194 h 11.79301 c 5.18898,0 9.43499,4.2387 9.43499,9.4194 v 2.6884 c 0,-5.180701 -4.24601,-9.4194 -9.43499,-9.4194 h -11.79301 c -5.18901,0 -9.43499,4.238699 -9.43499,9.4194 z"
         id="path37950"
         style="clip-rule:evenodd;fill:#b3a4b6;fill-rule:evenodd;stroke-width:0.00268817;image-rendering:optimizeQuality;shape-rendering:geometricPrecision;text-rendering:geometricPrecision" />
      <path
         class="fil10"
         d="m -176.31977,-5.7915466 c 2.995,1.117201 5.78699,-2.7012 5.78699,-6.0029014 v -11.921101 c 0,-3.3016 -2.83599,-7.2386 -5.78699,-6.002901 -16.03902,6.714202 -14.85001,18.388603 0,23.9269034 z"
         id="path37952"
         style="clip-rule:evenodd;fill:#990000;fill-rule:evenodd;stroke-width:0.00268817;image-rendering:optimizeQuality;shape-rendering:geometricPrecision;text-rendering:geometricPrecision" />
      <path
         class="fil15"
         d="m -164.06779,-30.13075 v 8.569402 c 0,1.123299 0.919,2.0424 2.04301,2.0424 v 0 c 1.12299,0 2.042,-0.919101 2.042,-2.0424 v -8.569402 c 0,-1.123299 -0.91901,-2.0424 -2.042,-2.0424 v 0 c -1.12401,0 -2.04301,0.919101 -2.04301,2.0424 z"
         id="path37954"
         style="clip-rule:evenodd;fill:#ffb973;fill-rule:evenodd;stroke-width:0.00268817;image-rendering:optimizeQuality;shape-rendering:geometricPrecision;text-rendering:geometricPrecision" />
      <path
         class="fil15"
         d="m -159.58779,-28.07335 v 5.627002 c 0,0.7376 0.60302,1.341099 1.34102,1.341099 v 0 c 0.73699,0 1.34099,-0.603499 1.34099,-1.341099 v -5.627002 c 0,-0.737701 -0.604,-1.341199 -1.34099,-1.341199 v 0 c -0.738,0 -1.34102,0.603498 -1.34102,1.341199 z"
         id="path37956"
         style="clip-rule:evenodd;fill:#ffb973;fill-rule:evenodd;stroke-width:0.00268817;image-rendering:optimizeQuality;shape-rendering:geometricPrecision;text-rendering:geometricPrecision" />
      <path
         class="fil37"
         d="m -186.69678,-28.306649 v 9.725401 c 0,5.1807 4.246,9.3400004 9.43501,9.4195004 l 5.90299,0.0904 -0.006,-9.0837024 c 5.495,-0.438999 9.00401,-10.0429 10.048,-18.6624 -3.82299,-1.86 -10.468,-0.9086 -15.94498,-0.9086 -5.18901,0 -9.43501,4.2387 -9.43501,9.419401 z"
         id="path37958"
         style="clip-rule:evenodd;fill:#cc3300;fill-rule:evenodd;stroke-width:0.00268817;image-rendering:optimizeQuality;shape-rendering:geometricPrecision;text-rendering:geometricPrecision" />
      <path
         class="fil10"
         d="m -186.77378,-21.661649 v 3.164401 c 0,5.337 4.27599,9.6134004 9.50101,9.7036014 l 5.91399,0.1021 0.84399,-9.3411014 -0.836,-0.1236 -8.02299,0.1309 c -2.98201,0.0487 -5.65401,-1.4228 -7.4,-3.636301 z"
         id="path37960"
         style="clip-rule:evenodd;fill:#990000;fill-rule:evenodd;stroke-width:0.00268817;image-rendering:optimizeQuality;shape-rendering:geometricPrecision;text-rendering:geometricPrecision" />
      <path
         class="fil61"
         d="m -180.45979,-32.833348 v 11.675801 c 0,2.6228 2.14601,4.7687 4.76801,4.7687 v 0 c 2.623,0 4.76901,-2.1459 4.76901,-4.7687 v -11.675801 c 0,-2.622801 -2.14601,-4.768702 -4.76901,-4.768702 v 0 c -2.622,0 -4.76801,2.145901 -4.76801,4.768702 z"
         id="path37962"
         style="clip-rule:evenodd;fill:#ffcc99;fill-rule:evenodd;stroke-width:0.00268817;image-rendering:optimizeQuality;shape-rendering:geometricPrecision;text-rendering:geometricPrecision" />
      <path
         class="fil61"
         d="m -167.75878,-12.557649 v 0 c 0,1.963801 1.607,3.5705024 3.571,3.5705024 h 4.21899 c 1.96401,0 3.57101,-1.6067014 3.57101,-3.5705024 v 0 c 0,-1.963698 -1.607,-3.570499 -3.57101,-3.570499 h -4.21899 c -1.964,0 -3.571,1.606801 -3.571,3.570499 z"
         id="path37964"
         style="clip-rule:evenodd;fill:#ffcc99;fill-rule:evenodd;stroke-width:0.00268817;image-rendering:optimizeQuality;shape-rendering:geometricPrecision;text-rendering:geometricPrecision" />
      <path
         class="fil18"
         d="m -179.53779,-19.543147 v 0 c -0.37698,-0.3774 -0.37698,-0.9949 0,-1.3723 l 5.38101,-5.3806 c 0.37701,-0.377301 0.995,-0.377301 1.372,0 v 0 c 0.377,0.377399 0.377,0.9949 0,1.372299 l -5.38099,5.380601 c -0.377,0.3774 -0.99401,0.3773 -1.37202,0 z"
         id="path37966"
         style="clip-rule:evenodd;fill:#333333;fill-rule:evenodd;stroke-width:0.00268817;image-rendering:optimizeQuality;shape-rendering:geometricPrecision;text-rendering:geometricPrecision" />
      <path
         class="fil18"
         d="m -179.53779,-26.296047 v 0 c -0.37698,0.377399 -0.37698,0.9949 0,1.372299 l 5.38101,5.380501 c 0.37701,0.3774 0.995,0.3774 1.372,0 v 0 c 0.377,-0.3773 0.377,-0.9949 0,-1.3722 l -5.38099,-5.3806 c -0.377,-0.377301 -0.99401,-0.377301 -1.37202,0 z"
         id="path37968"
         style="clip-rule:evenodd;fill:#333333;fill-rule:evenodd;stroke-width:0.00268817;image-rendering:optimizeQuality;shape-rendering:geometricPrecision;text-rendering:geometricPrecision" />
      <path
         class="fil18"
         d="m -179.53779,-28.974948 v 0 c -0.37698,-0.377401 -0.37698,-0.994899 0,-1.372301 l 5.38101,-5.380601 c 0.37701,-0.377298 0.995,-0.377298 1.372,0 v 0 c 0.377,0.377402 0.377,0.994902 0,1.372301 l -5.38099,5.380601 c -0.377,0.377399 -0.99401,0.377299 -1.37202,0 z"
         id="path37970"
         style="clip-rule:evenodd;fill:#333333;fill-rule:evenodd;stroke-width:0.00268817;image-rendering:optimizeQuality;shape-rendering:geometricPrecision;text-rendering:geometricPrecision" />
      <path
         class="fil18"
         d="m -179.53779,-35.72785 v 0 c -0.37698,0.377402 -0.37698,0.994902 0,1.372301 l 5.38101,5.380501 c 0.37701,0.377399 0.995,0.377399 1.372,0 v 0 c 0.377,-0.377301 0.377,-0.9949 0,-1.372201 l -5.38099,-5.380601 c -0.377,-0.377399 -0.99401,-0.377399 -1.37202,0 z"
         id="path37972"
         style="clip-rule:evenodd;fill:#333333;fill-rule:evenodd;stroke-width:0.00268817;image-rendering:optimizeQuality;shape-rendering:geometricPrecision;text-rendering:geometricPrecision" />
    </g>
  </g>
</svg>
