<?xml version="1.0" encoding="UTF-8" standalone="no"?>
<svg
   xmlns:dc="http://purl.org/dc/elements/1.1/"
   xmlns:cc="http://creativecommons.org/ns#"
   xmlns:rdf="http://www.w3.org/1999/02/22-rdf-syntax-ns#"
   xmlns:svg="http://www.w3.org/2000/svg"
   xmlns="http://www.w3.org/2000/svg"
   xmlns:sodipodi="http://sodipodi.sourceforge.net/DTD/sodipodi-0.dtd"
   xmlns:inkscape="http://www.inkscape.org/namespaces/inkscape"
   width="1024"
   height="1024"
   viewBox="0 0 270.9333 270.9333"
   version="1.1"
   id="svg3565"
   inkscape:version="1.0.1 (3bc2e813f5, 2020-09-07)"
   sodipodi:docname="разбойник с топором.svg"
   inkscape:export-filename="C:\Users\79519\Desktop\Knight\GameKnight\Graphics\Render_png\wood\axe_rogue.png"
   inkscape:export-xdpi="96.00001"
   inkscape:export-ydpi="96.00001">
  <title
     id="title4661">Тайл размером 256x256</title>
  <defs
     id="defs3559" />
  <sodipodi:namedview
     id="base"
     pagecolor="#ffffff"
     bordercolor="#666666"
     borderopacity="1.0"
     inkscape:pageopacity="0.0"
     inkscape:pageshadow="2"
     inkscape:zoom="0.69999999"
     inkscape:cx="158.90916"
     inkscape:cy="375.50212"
     inkscape:document-units="mm"
     inkscape:current-layer="layer1"
     showgrid="true"
     units="px"
     width="256px"
     inkscape:snap-global="true"
     inkscape:document-rotation="0"
     inkscape:window-width="1920"
     inkscape:window-height="1017"
     inkscape:window-x="-8"
     inkscape:window-y="-8"
     inkscape:window-maximized="1">
    <inkscape:grid
       type="xygrid"
       id="grid5244"
       units="px"
       spacingx="67.73332"
       spacingy="67.73332"
       empspacing="1" />
    <inkscape:grid
       type="xygrid"
       id="grid8949"
       color="#e33fff"
       opacity="0.1254902"
       empcolor="#e33fff"
       empopacity="0.2509804"
       units="px"
       spacingx="33.86666"
       spacingy="33.86666"
       empspacing="8" />
  </sodipodi:namedview>
  <metadata
     id="metadata3562">
    <rdf:RDF>
      <cc:Work
         rdf:about="">
        <dc:format>image/svg+xml</dc:format>
        <dc:type
           rdf:resource="http://purl.org/dc/dcmitype/StillImage" />
        <dc:title>Тайл размером 256x256</dc:title>
      </cc:Work>
    </rdf:RDF>
  </metadata>
  <g
     inkscape:label="Layer 1"
     inkscape:groupmode="layer"
     id="layer1"
     transform="translate(0,-26.0667)">
    <g
       id="g1306"
       transform="translate(46.630313,138.1503)">
      <path
         class="fil10"
         d="m 109.11415,-70.278325 c 2.33201,1.8089 5.94902,1.4735 6.92901,0.1001 l 3.538,-4.9587 c 0.98,-1.3734 -0.373,-4.283601 -3.36499,-5.094201 -16.258005,-4.4045 -18.664995,0.985401 -7.10202,9.952801 z"
         id="path464"
         style="clip-rule:evenodd;fill:#990000;fill-rule:evenodd;stroke-width:0.00268817;image-rendering:optimizeQuality;shape-rendering:geometricPrecision;text-rendering:geometricPrecision" />
      <path
         class="fil15"
         d="m 131.38316,-60.289924 v 0 c -1.964,0 -3.57,1.606701 -3.57,3.570501 v 4.2197 c 0,1.963801 1.606,3.570502 3.57,3.570502 v 0 c 1.964,0 3.571,-1.606701 3.571,-3.570502 v -4.2197 c 0,-1.9638 -1.607,-3.570501 -3.571,-3.570501 z"
         id="path884"
         style="clip-rule:evenodd;fill:#ffb973;fill-rule:evenodd;stroke-width:0.00268817;image-rendering:optimizeQuality;shape-rendering:geometricPrecision;text-rendering:geometricPrecision" />
      <path
         class="fil60"
         d="m 116.59415,-57.642123 h -3.35999 c -1.46399,0 -2.661,1.1972 -2.661,2.660399 v 6.110102 c 0,1.463199 1.19701,2.660399 2.661,2.660399 h 3.35999 c 1.46301,0 2.66001,-1.1972 2.66001,-2.660399 v -6.110102 c 0,-1.463199 -1.197,-2.660399 -2.66001,-2.660399 z"
         id="path886"
         style="clip-rule:evenodd;fill:#663399;fill-rule:evenodd;stroke-width:0.00268817;image-rendering:optimizeQuality;shape-rendering:geometricPrecision;text-rendering:geometricPrecision" />
      <path
         class="fil60"
         d="m 127.16616,-55.756122 h -3.361 c -1.463,0 -2.66,1.1972 -2.66,2.660398 v 6.110103 c 0,1.463198 1.197,2.660398 2.66,2.660398 h 3.361 c 1.463,0 2.66,-1.1972 2.66,-2.660398 v -6.110103 c 0,-1.463198 -1.197,-2.660398 -2.66,-2.660398 z"
         id="path888"
         style="clip-rule:evenodd;fill:#663399;fill-rule:evenodd;stroke-width:0.00268817;image-rendering:optimizeQuality;shape-rendering:geometricPrecision;text-rendering:geometricPrecision" />
      <path
         class="fil61"
         d="m 124.39716,-79.161225 h -9.726 c -5.18099,0 -9.41901,4.2387 -9.41901,9.4194 v 11.824702 c 0,5.180701 4.23802,9.4194 9.41901,9.4194 h 9.726 c 5.18,0 9.419,-4.238699 9.419,-9.4194 v -11.824702 c 0,-5.1807 -4.239,-9.4194 -9.419,-9.4194 z"
         id="path890"
         style="clip-rule:evenodd;fill:#ffcc99;fill-rule:evenodd;stroke-width:0.00268817;image-rendering:optimizeQuality;shape-rendering:geometricPrecision;text-rendering:geometricPrecision" />
      <path
         class="fil62"
         d="m 117.71716,-79.148825 h -3.07201 c -5.17998,0 -9.419,4.2458 -9.419,9.4352 v 11.793102 c 0,5.1894 4.23902,9.435201 9.419,9.435201 h 2.74 c -1.95799,-1.732201 -3.19799,-4.262102 -3.19799,-7.068402 v -16.246101 c 0,-2.9619 1.38099,-5.6159 3.53,-7.349 z"
         id="path892"
         style="clip-rule:evenodd;fill:#b3a4b6;fill-rule:evenodd;stroke-width:0.00268817;image-rendering:optimizeQuality;shape-rendering:geometricPrecision;text-rendering:geometricPrecision" />
      <path
         class="fil62"
         d="m 121.79616,-79.124126 h 2.689 c 5.18,0 9.419,4.245901 9.419,9.435301 v 11.793002 c 0,5.189399 -4.239,9.4353 -9.419,9.4353 h -2.689 c 5.181,0 9.42,-4.245901 9.42,-9.4353 v -11.793002 c 0,-5.1894 -4.239,-9.435301 -9.42,-9.435301 z"
         id="path894"
         style="clip-rule:evenodd;fill:#b3a4b6;fill-rule:evenodd;stroke-width:0.00268817;image-rendering:optimizeQuality;shape-rendering:geometricPrecision;text-rendering:geometricPrecision" />
      <path
         class="fil10"
         d="m 101.94616,-68.818325 c -1.11699,2.995501 2.701,5.787701 6.003,5.787701 h 11.921 c 3.302,0 7.239,-2.8358 6.003,-5.787601 -6.714,-16.038901 -18.38901,-14.849401 -23.927,0 z"
         id="path896"
         style="clip-rule:evenodd;fill:#990000;fill-rule:evenodd;stroke-width:0.00268817;image-rendering:optimizeQuality;shape-rendering:geometricPrecision;text-rendering:geometricPrecision" />
      <path
         class="fil15"
         d="m 126.28516,-56.565724 h -8.569 c -1.12301,0 -2.04299,0.919102 -2.04299,2.042401 v 0 c 0,1.1234 0.91998,2.042401 2.04299,2.042401 h 8.569 c 1.124,0 2.043,-0.919001 2.043,-2.042401 v 0 c 0,-1.123299 -0.919,-2.042401 -2.043,-2.042401 z"
         id="path956"
         style="clip-rule:evenodd;fill:#ffb973;fill-rule:evenodd;stroke-width:0.00268817;image-rendering:optimizeQuality;shape-rendering:geometricPrecision;text-rendering:geometricPrecision" />
      <path
         class="fil15"
         d="m 124.22816,-52.086222 h -5.627 c -0.738,0 -1.341,0.603499 -1.341,1.3412 v 0 c 0,0.7376 0.603,1.341098 1.341,1.341098 h 5.627 c 0.738,0 1.341,-0.603498 1.341,-1.341098 v 0 c 0,-0.737701 -0.603,-1.3412 -1.341,-1.3412 z"
         id="path958"
         style="clip-rule:evenodd;fill:#ffb973;fill-rule:evenodd;stroke-width:0.00268817;image-rendering:optimizeQuality;shape-rendering:geometricPrecision;text-rendering:geometricPrecision" />
      <path
         class="fil37"
         d="m 124.46116,-79.194925 h -9.72499 c -5.18102,0 -9.34,4.2465 -9.42001,9.4352 l -0.09,5.902401 9.08402,-0.0058 c 0.43899,5.495501 10.04299,9.003902 18.66199,10.047802 1.86,-3.822401 0.909,-10.467402 0.909,-15.944402 0,-5.189301 -4.239,-9.435201 -9.42,-9.435201 z"
         id="path972"
         style="clip-rule:evenodd;fill:#cc3300;fill-rule:evenodd;stroke-width:0.00268817;image-rendering:optimizeQuality;shape-rendering:geometricPrecision;text-rendering:geometricPrecision" />
      <path
         class="fil10"
         d="m 117.81616,-79.271525 h -3.16399 c -5.33702,0 -9.61401,4.2761 -9.70402,9.5006 l -0.102,5.913601 9.34101,0.8439 0.12401,-0.8357 -0.13102,-8.022501 c -0.049,-2.982 1.42301,-5.6547 3.63601,-7.3999 z"
         id="path974"
         style="clip-rule:evenodd;fill:#990000;fill-rule:evenodd;stroke-width:0.00268817;image-rendering:optimizeQuality;shape-rendering:geometricPrecision;text-rendering:geometricPrecision" />
      <path
         class="fil61"
         d="m 117.31215,-72.958225 h 11.67601 c 2.623,0 4.769,2.145901 4.769,4.768601 v 0 c 0,2.6228 -2.146,4.7688 -4.769,4.7688 h -11.67601 c -2.623,0 -4.76898,-2.146 -4.76898,-4.7688 v 0 c 0,-2.6227 2.14598,-4.768601 4.76898,-4.768601 z"
         id="path976"
         style="clip-rule:evenodd;fill:#ffcc99;fill-rule:evenodd;stroke-width:0.00268817;image-rendering:optimizeQuality;shape-rendering:geometricPrecision;text-rendering:geometricPrecision" />
      <path
         class="fil18"
         d="m 117.79416,-70.435925 v 0 c 0.946,0 1.721,0.7743 1.721,1.7207 v 2.033501 c 0,0.9464 -0.775,1.7207 -1.721,1.7207 v 0 c -0.94601,0 -1.721,-0.7743 -1.721,-1.7207 v -2.033501 c 0,-0.9464 0.77499,-1.7207 1.721,-1.7207 z"
         id="path978"
         style="clip-rule:evenodd;fill:#333333;fill-rule:evenodd;stroke-width:0.00268817;image-rendering:optimizeQuality;shape-rendering:geometricPrecision;text-rendering:geometricPrecision" />
      <path
         class="fil18"
         d="m 127.17516,-70.435925 v 0 c 0.947,0 1.721,0.7743 1.721,1.7207 v 2.033501 c 0,0.9464 -0.774,1.7207 -1.721,1.7207 v 0 c -0.946,0 -1.72,-0.7743 -1.72,-1.7207 v -2.033501 c 0,-0.9464 0.774,-1.7207 1.72,-1.7207 z"
         id="path980"
         style="clip-rule:evenodd;fill:#333333;fill-rule:evenodd;stroke-width:0.00268817;image-rendering:optimizeQuality;shape-rendering:geometricPrecision;text-rendering:geometricPrecision" />
      <path
         class="fil4"
         d="m 140.64316,-53.519322 h -35.609 c -0.75102,0 -1.36601,0.6145 -1.36601,1.3656 v 0 c 0,0.750998 0.61499,1.365498 1.36601,1.365498 h 35.609 c 0.752,0 1.366,-0.6145 1.366,-1.365498 v 0 c 0,-0.7511 -0.614,-1.3656 -1.366,-1.3656 z"
         id="path982"
         style="clip-rule:evenodd;fill:#996633;fill-rule:evenodd;stroke-width:0.00268817;image-rendering:optimizeQuality;shape-rendering:geometricPrecision;text-rendering:geometricPrecision" />
      <path
         class="fil29"
         d="m 103.71516,-51.784422 c 0.17299,0.573 0.737,0.9961 1.402,0.9961 h 35.428 c 0.694,0 1.279,-0.4616 1.423,-1.073501 -0.151,0.05 -0.313,0.0774 -0.482,0.0774 z"
         id="path984"
         style="clip-rule:evenodd;fill:#813d09;fill-rule:evenodd;stroke-width:0.00268817;image-rendering:optimizeQuality;shape-rendering:geometricPrecision;text-rendering:geometricPrecision" />
      <path
         class="fil64"
         d="m 140.20416,-51.277221 v -4.639601 c 0,-1.376403 -1.126,-2.502501 -2.502,-2.502501 v 0 c -1.377,0 -2.503,1.126098 -2.503,2.502501 v 4.639601 c 0,1.376399 1.126,2.5024 2.503,2.5024 v 0 c 1.376,0 2.502,-1.126001 2.502,-2.5024 z"
         id="path986"
         style="clip-rule:evenodd;fill:#b3b3b3;fill-rule:evenodd;stroke-width:0.00268817;image-rendering:optimizeQuality;shape-rendering:geometricPrecision;text-rendering:geometricPrecision" />
      <path
         class="fil64"
         d="m 140.75416,-49.549222 -2.393,-5.3486 -3.731,5.3486 c -0.875,1.2534 -2.904,1.2256 -2.904,2.723499 v 0 c 0,1.497901 1.307,2.723401 2.904,2.723401 h 6.124 c 1.597,0 2.904,-1.2255 2.904,-2.723401 v 0 c 0,-1.497899 -2.286,-1.3422 -2.904,-2.723499 z"
         id="path988"
         style="clip-rule:evenodd;fill:#b3b3b3;fill-rule:evenodd;stroke-width:0.00268817;image-rendering:optimizeQuality;shape-rendering:geometricPrecision;text-rendering:geometricPrecision" />
      <path
         class="fil5"
         d="m 131.77816,-47.337822 c -0.034,0.166 -0.052,0.337101 -0.052,0.512099 v 0 c 0,1.497901 1.307,2.723401 2.904,2.723401 h 6.124 c 1.597,0 2.904,-1.2255 2.904,-2.723401 v 0 c 0,-0.174998 -0.019,-0.346099 -0.053,-0.512099 -0.257,1.2553 -1.441,2.211301 -2.851,2.211301 h -6.124 c -1.411,0 -2.595,-0.956001 -2.852,-2.211301 z"
         id="path990"
         style="clip-rule:evenodd;fill:#cccccc;fill-rule:evenodd;stroke-width:0.00268817;image-rendering:optimizeQuality;shape-rendering:geometricPrecision;text-rendering:geometricPrecision" />
      <path
         class="fil61"
         d="m 108.71216,-60.256724 v 0 c -1.964,0 -3.56999,1.606801 -3.56999,3.570602 v 4.219699 c 0,1.963801 1.60599,3.570502 3.56999,3.570502 v 0 c 1.96401,0 3.57101,-1.606701 3.57101,-3.570502 v -4.219699 c 0,-1.963801 -1.607,-3.570602 -3.57101,-3.570602 z"
         id="path992"
         style="clip-rule:evenodd;fill:#ffcc99;fill-rule:evenodd;stroke-width:0.00268817;image-rendering:optimizeQuality;shape-rendering:geometricPrecision;text-rendering:geometricPrecision" />
    </g>
    <g
       id="g1283"
       transform="translate(61.344132,138.00192)">
      <path
         class="fil10"
         d="m 162.13316,-69.095525 c 2.333,1.8089 5.95001,1.473501 6.93,0.1001 l 3.538,-4.9587 c 0.98001,-1.3734 -0.37299,-4.2836 -3.365,-5.0942 -16.258,-4.404501 -18.665,0.9854 -7.103,9.9528 z"
         id="path9184"
         style="clip-rule:evenodd;fill:#990000;fill-rule:evenodd;stroke-width:0.00268817;image-rendering:optimizeQuality;shape-rendering:geometricPrecision;text-rendering:geometricPrecision" />
      <path
         class="fil15"
         d="m 184.40317,-59.591024 v 0 c -1.964,0 -3.57,1.606701 -3.57,3.570501 v 4.219699 c 0,1.963801 1.606,3.570502 3.57,3.570502 v 0 c 1.964,0 3.571,-1.606701 3.571,-3.570502 v -4.219699 c 0,-1.9638 -1.607,-3.570501 -3.571,-3.570501 z"
         id="path9186"
         style="clip-rule:evenodd;fill:#ffb973;fill-rule:evenodd;stroke-width:0.00268817;image-rendering:optimizeQuality;shape-rendering:geometricPrecision;text-rendering:geometricPrecision" />
      <path
         class="fil60"
         d="m 169.61416,-55.756122 h -3.36099 c -1.46301,0 -2.66001,1.1972 -2.66001,2.660398 v 6.110103 c 0,1.463198 1.197,2.660398 2.66001,2.660398 h 3.36099 c 1.463,0 2.66001,-1.1972 2.66001,-2.660398 v -6.110103 c 0,-1.463198 -1.19701,-2.660398 -2.66001,-2.660398 z"
         id="path9188"
         style="clip-rule:evenodd;fill:#663399;fill-rule:evenodd;stroke-width:0.00268817;image-rendering:optimizeQuality;shape-rendering:geometricPrecision;text-rendering:geometricPrecision" />
      <path
         class="fil60"
         d="m 180.18617,-57.641723 h -3.361 c -1.463,0 -2.66001,1.197099 -2.66001,2.660401 v 6.109999 c 0,1.4633 1.19701,2.660402 2.66001,2.660402 h 3.361 c 1.463,0 2.66,-1.197102 2.66,-2.660402 v -6.109999 c 0,-1.463302 -1.197,-2.660401 -2.66,-2.660401 z"
         id="path9190"
         style="clip-rule:evenodd;fill:#663399;fill-rule:evenodd;stroke-width:0.00268817;image-rendering:optimizeQuality;shape-rendering:geometricPrecision;text-rendering:geometricPrecision" />
      <path
         class="fil61"
         d="m 177.41717,-78.274125 h -9.72601 c -5.18099,0 -9.419,4.2387 -9.419,9.4194 v 11.824703 c 0,5.1807 4.23801,9.419399 9.419,9.419399 h 9.72601 c 5.18,0 9.419,-4.238699 9.419,-9.419399 v -11.824703 c 0,-5.1807 -4.239,-9.4194 -9.419,-9.4194 z"
         id="path9192"
         style="clip-rule:evenodd;fill:#ffcc99;fill-rule:evenodd;stroke-width:0.00268817;image-rendering:optimizeQuality;shape-rendering:geometricPrecision;text-rendering:geometricPrecision" />
      <path
         class="fil62"
         d="m 170.73716,-78.261725 h -3.072 c -5.18,0 -9.419,4.2458 -9.419,9.4352 v 11.793103 c 0,5.1894 4.239,9.4352 9.419,9.4352 h 2.74001 c -1.95801,-1.7322 -3.198,-4.262101 -3.198,-7.068402 v -16.2461 c 0,-2.961901 1.381,-5.615901 3.52999,-7.349001 z"
         id="path9194"
         style="clip-rule:evenodd;fill:#b3a4b6;fill-rule:evenodd;stroke-width:0.00268817;image-rendering:optimizeQuality;shape-rendering:geometricPrecision;text-rendering:geometricPrecision" />
      <path
         class="fil62"
         d="m 174.81617,-78.237025 h 2.689 c 5.18,0 9.419,4.2459 9.419,9.4353 v 11.793002 c 0,5.1894 -4.239,9.4352 -9.419,9.4352 h -2.689 c 5.181,0 9.42,-4.2458 9.42,-9.4352 v -11.793002 c 0,-5.1894 -4.239,-9.4353 -9.42,-9.4353 z"
         id="path9196"
         style="clip-rule:evenodd;fill:#b3a4b6;fill-rule:evenodd;stroke-width:0.00268817;image-rendering:optimizeQuality;shape-rendering:geometricPrecision;text-rendering:geometricPrecision" />
      <path
         class="fil10"
         d="m 154.96616,-67.635525 c -1.117,2.995501 2.701,5.787701 6.003,5.787701 h 11.92101 c 3.302,0 7.239,-2.8358 6.003,-5.787601 -6.71401,-16.038901 -18.38901,-14.849401 -23.92701,0 z"
         id="path9198"
         style="clip-rule:evenodd;fill:#990000;fill-rule:evenodd;stroke-width:0.00268817;image-rendering:optimizeQuality;shape-rendering:geometricPrecision;text-rendering:geometricPrecision" />
      <path
         class="fil15"
         d="m 179.30517,-55.678623 h -8.56901 c -1.123,0 -2.04299,0.919099 -2.04299,2.042401 v 0 c 0,1.123399 0.91999,2.0424 2.04299,2.0424 h 8.56901 c 1.124,0 2.043,-0.919001 2.043,-2.0424 v 0 c 0,-1.123302 -0.919,-2.042401 -2.043,-2.042401 z"
         id="path9200"
         style="clip-rule:evenodd;fill:#ffb973;fill-rule:evenodd;stroke-width:0.00268817;image-rendering:optimizeQuality;shape-rendering:geometricPrecision;text-rendering:geometricPrecision" />
      <path
         class="fil15"
         d="m 177.24817,-51.199122 h -5.627 c -0.73801,0 -1.341,0.603499 -1.341,1.3412 v 0 c 0,0.7376 0.60299,1.341099 1.341,1.341099 h 5.627 c 0.737,0 1.341,-0.603499 1.341,-1.341099 v 0 c 0,-0.737701 -0.604,-1.3412 -1.341,-1.3412 z"
         id="path9202"
         style="clip-rule:evenodd;fill:#ffb973;fill-rule:evenodd;stroke-width:0.00268817;image-rendering:optimizeQuality;shape-rendering:geometricPrecision;text-rendering:geometricPrecision" />
      <path
         class="fil37"
         d="m 177.48117,-78.307825 h -9.725 c -5.181,0 -9.34001,4.2465 -9.42001,9.4352 l -0.09,5.902401 9.084,-0.0058 c 0.439,5.495501 10.04201,9.003902 18.66201,10.0478 1.86,-3.822398 0.909,-10.4674 0.909,-15.9444 0,-5.189301 -4.239,-9.435201 -9.42,-9.435201 z"
         id="path9204"
         style="clip-rule:evenodd;fill:#cc3300;fill-rule:evenodd;stroke-width:0.00268817;image-rendering:optimizeQuality;shape-rendering:geometricPrecision;text-rendering:geometricPrecision" />
      <path
         class="fil10"
         d="m 170.83617,-78.384425 h -3.164 c -5.33701,0 -9.61401,4.2761 -9.70401,9.5006 l -0.102,5.913601 9.34101,0.8439 0.12399,-0.8357 -0.131,-8.022501 c -0.049,-2.982 1.423,-5.6547 3.63601,-7.3999 z"
         id="path9206"
         style="clip-rule:evenodd;fill:#990000;fill-rule:evenodd;stroke-width:0.00268817;image-rendering:optimizeQuality;shape-rendering:geometricPrecision;text-rendering:geometricPrecision" />
      <path
         class="fil61"
         d="m 170.33216,-72.071125 h 11.67601 c 2.623,0 4.769,2.1458 4.769,4.768601 v 0 c 0,2.6228 -2.146,4.7688 -4.769,4.7688 h -11.67601 c -2.623,0 -4.769,-2.146 -4.769,-4.7688 v 0 c 0,-2.622801 2.146,-4.768601 4.769,-4.768601 z"
         id="path9208"
         style="clip-rule:evenodd;fill:#ffcc99;fill-rule:evenodd;stroke-width:0.00268817;image-rendering:optimizeQuality;shape-rendering:geometricPrecision;text-rendering:geometricPrecision" />
      <path
         class="fil18"
         d="m 170.81417,-69.548825 v 0 c 0.946,0 1.72099,0.7743 1.72099,1.7207 v 2.033501 c 0,0.9464 -0.77499,1.7207 -1.72099,1.7207 v 0 c -0.94601,0 -1.721,-0.7743 -1.721,-1.7207 v -2.033501 c 0,-0.9464 0.77499,-1.7207 1.721,-1.7207 z"
         id="path9210"
         style="clip-rule:evenodd;fill:#333333;fill-rule:evenodd;stroke-width:0.00268817;image-rendering:optimizeQuality;shape-rendering:geometricPrecision;text-rendering:geometricPrecision" />
      <path
         class="fil18"
         d="m 180.19517,-69.548825 v 0 c 0.947,0 1.721,0.7743 1.721,1.7207 v 2.033501 c 0,0.9464 -0.774,1.7207 -1.721,1.7207 v 0 c -0.946,0 -1.72,-0.7743 -1.72,-1.7207 v -2.033501 c 0,-0.9464 0.774,-1.7207 1.72,-1.7207 z"
         id="path9212"
         style="clip-rule:evenodd;fill:#333333;fill-rule:evenodd;stroke-width:0.00268817;image-rendering:optimizeQuality;shape-rendering:geometricPrecision;text-rendering:geometricPrecision" />
      <path
         class="fil4"
         d="m 193.66317,-53.618897 h -35.60901 c -0.751,0 -1.366,0.6145 -1.366,1.365599 v 0 c 0,0.751099 0.615,1.365502 1.366,1.365502 h 35.60901 c 0.752,0 1.366,-0.614403 1.366,-1.365502 v 0 c 0,-0.751099 -0.614,-1.365599 -1.366,-1.365599 z"
         id="path9214"
         style="clip-rule:evenodd;fill:#996633;fill-rule:evenodd;stroke-width:0.00268817;image-rendering:optimizeQuality;shape-rendering:geometricPrecision;text-rendering:geometricPrecision" />
      <path
         class="fil29"
         d="m 156.73516,-51.883998 c 0.173,0.573 0.737,0.996101 1.402,0.996101 h 35.42801 c 0.694,0 1.279,-0.4616 1.423,-1.073499 -0.151,0.05 -0.314,0.0774 -0.482,0.0774 z"
         id="path9216"
         style="clip-rule:evenodd;fill:#813d09;fill-rule:evenodd;stroke-width:0.00268817;image-rendering:optimizeQuality;shape-rendering:geometricPrecision;text-rendering:geometricPrecision" />
      <path
         class="fil64"
         d="m 193.22417,-51.376797 v -4.639601 c 0,-1.376399 -1.126,-2.5024 -2.502,-2.5024 v 0 c -1.377,0 -2.503,1.126001 -2.503,2.5024 v 4.639601 c 0,1.3764 1.126,2.502501 2.503,2.502501 v 0 c 1.376,0 2.502,-1.126101 2.502,-2.502501 z"
         id="path9218"
         style="clip-rule:evenodd;fill:#b3b3b3;fill-rule:evenodd;stroke-width:0.00268817;image-rendering:optimizeQuality;shape-rendering:geometricPrecision;text-rendering:geometricPrecision" />
      <path
         class="fil64"
         d="m 193.77417,-49.648697 -2.393,-5.3486 -3.731,5.3486 c -0.875,1.253299 -2.904,1.2255 -2.904,2.723401 v 0 c 0,1.497899 1.307,2.723399 2.904,2.723399 h 6.124 c 1.597,0 2.903,-1.2255 2.903,-2.723399 v 0 c 0,-1.497901 -2.285,-1.342202 -2.903,-2.723401 z"
         id="path9220"
         style="clip-rule:evenodd;fill:#b3b3b3;fill-rule:evenodd;stroke-width:0.00268817;image-rendering:optimizeQuality;shape-rendering:geometricPrecision;text-rendering:geometricPrecision" />
      <path
         class="fil5"
         d="m 184.79817,-47.437397 c -0.034,0.166 -0.052,0.337201 -0.052,0.512101 v 0 c 0,1.497899 1.307,2.723399 2.904,2.723399 h 6.124 c 1.597,0 2.903,-1.2255 2.903,-2.723399 v 0 c 0,-0.1749 -0.018,-0.346101 -0.052,-0.512101 -0.257,1.2553 -1.441,2.211401 -2.851,2.211401 h -6.124 c -1.411,0 -2.595,-0.956101 -2.852,-2.211401 z"
         id="path9222"
         style="clip-rule:evenodd;fill:#cccccc;fill-rule:evenodd;stroke-width:0.00268817;image-rendering:optimizeQuality;shape-rendering:geometricPrecision;text-rendering:geometricPrecision" />
      <path
         class="fil61"
         d="m 161.73216,-59.557724 v 0 c -1.964,0 -3.57,1.606701 -3.57,3.570501 v 4.2197 c 0,1.963801 1.606,3.570502 3.57,3.570502 v 0 c 1.96401,0 3.57101,-1.606701 3.57101,-3.570502 v -4.2197 c 0,-1.9638 -1.607,-3.570501 -3.57101,-3.570501 z"
         id="path9224"
         style="clip-rule:evenodd;fill:#ffcc99;fill-rule:evenodd;stroke-width:0.00268817;image-rendering:optimizeQuality;shape-rendering:geometricPrecision;text-rendering:geometricPrecision" />
    </g>
    <g
       id="g1237"
       transform="translate(-245.34136,138.12525)">
      <path
         class="fil10"
         d="m 265.61918,-70.278325 c 2.33201,1.8089 5.94901,1.4735 6.92901,0.1001 l 3.538,-4.9587 c 0.98,-1.3734 -0.373,-4.283601 -3.365,-5.094201 -16.25701,-4.4045 -18.66501,0.985401 -7.10201,9.952801 z"
         id="path9226"
         style="clip-rule:evenodd;fill:#990000;fill-rule:evenodd;stroke-width:0.00268817;image-rendering:optimizeQuality;shape-rendering:geometricPrecision;text-rendering:geometricPrecision" />
      <path
         class="fil15"
         d="m 287.88819,-60.289924 v 0 c -1.96301,0 -3.57001,1.606701 -3.57001,3.570501 v 4.2197 c 0,1.963801 1.607,3.570502 3.57001,3.570502 v 0 c 1.964,0 3.571,-1.606701 3.571,-3.570502 v -4.2197 c 0,-1.9638 -1.607,-3.570501 -3.571,-3.570501 z"
         id="path9228"
         style="clip-rule:evenodd;fill:#ffb973;fill-rule:evenodd;stroke-width:0.00268817;image-rendering:optimizeQuality;shape-rendering:geometricPrecision;text-rendering:geometricPrecision" />
      <path
         class="fil60"
         d="m 273.09919,-55.756122 h -3.36 c -1.463,0 -2.661,1.1972 -2.661,2.660398 v 6.110103 c 0,1.463198 1.198,2.660398 2.661,2.660398 h 3.36 c 1.464,0 2.661,-1.1972 2.661,-2.660398 v -6.110103 c 0,-1.463198 -1.197,-2.660398 -2.661,-2.660398 z"
         id="path9230"
         style="clip-rule:evenodd;fill:#663399;fill-rule:evenodd;stroke-width:0.00268817;image-rendering:optimizeQuality;shape-rendering:geometricPrecision;text-rendering:geometricPrecision" />
      <path
         class="fil60"
         d="m 283.67119,-55.756122 h -3.361 c -1.463,0 -2.66,1.1972 -2.66,2.660398 v 6.110103 c 0,1.463198 1.197,2.660398 2.66,2.660398 h 3.361 c 1.463,0 2.65999,-1.1972 2.65999,-2.660398 v -6.110103 c 0,-1.463198 -1.19699,-2.660398 -2.65999,-2.660398 z"
         id="path9232"
         style="clip-rule:evenodd;fill:#663399;fill-rule:evenodd;stroke-width:0.00268817;image-rendering:optimizeQuality;shape-rendering:geometricPrecision;text-rendering:geometricPrecision" />
      <path
         class="fil61"
         d="m 280.90219,-79.161225 h -9.726 c -5.18,0 -9.41901,4.2387 -9.41901,9.4194 v 11.824702 c 0,5.180701 4.23901,9.4194 9.41901,9.4194 h 9.726 c 5.181,0 9.419,-4.238699 9.419,-9.4194 v -11.824702 c 0,-5.1807 -4.238,-9.4194 -9.419,-9.4194 z"
         id="path9234"
         style="clip-rule:evenodd;fill:#ffcc99;fill-rule:evenodd;stroke-width:0.00268817;image-rendering:optimizeQuality;shape-rendering:geometricPrecision;text-rendering:geometricPrecision" />
      <path
         class="fil62"
         d="m 274.22219,-79.148825 h -3.071 c -5.181,0 -9.42002,4.2458 -9.42002,9.4352 v 11.793102 c 0,5.1894 4.23902,9.435201 9.42002,9.435201 h 2.739 c -1.957,-1.732201 -3.197,-4.262102 -3.197,-7.068402 v -16.246101 c 0,-2.9619 1.381,-5.6159 3.529,-7.349 z"
         id="path9236"
         style="clip-rule:evenodd;fill:#b3a4b6;fill-rule:evenodd;stroke-width:0.00268817;image-rendering:optimizeQuality;shape-rendering:geometricPrecision;text-rendering:geometricPrecision" />
      <path
         class="fil62"
         d="m 278.30219,-79.124126 h 2.688 c 5.181,0 9.419,4.245901 9.419,9.435301 v 11.793002 c 0,5.189399 -4.238,9.4353 -9.419,9.4353 h -2.688 c 5.18,0 9.419,-4.245901 9.419,-9.4353 v -11.793002 c 0,-5.1894 -4.239,-9.435301 -9.419,-9.435301 z"
         id="path9238"
         style="clip-rule:evenodd;fill:#b3a4b6;fill-rule:evenodd;stroke-width:0.00268817;image-rendering:optimizeQuality;shape-rendering:geometricPrecision;text-rendering:geometricPrecision" />
      <path
         class="fil10"
         d="m 258.45118,-68.818325 c -1.117,2.995501 2.702,5.787701 6.003,5.787701 h 11.92101 c 3.302,0 7.23899,-2.8358 6.003,-5.787601 -6.714,-16.038901 -18.38801,-14.849401 -23.92701,0 z"
         id="path9240"
         style="clip-rule:evenodd;fill:#990000;fill-rule:evenodd;stroke-width:0.00268817;image-rendering:optimizeQuality;shape-rendering:geometricPrecision;text-rendering:geometricPrecision" />
      <path
         class="fil15"
         d="m 282.79118,-56.565724 h -8.56999 c -1.123,0 -2.042,0.919102 -2.042,2.042401 v 0 c 0,1.1234 0.919,2.042401 2.042,2.042401 h 8.56999 c 1.123,0 2.04201,-0.919001 2.04201,-2.042401 v 0 c 0,-1.123299 -0.91901,-2.042401 -2.04201,-2.042401 z"
         id="path9242"
         style="clip-rule:evenodd;fill:#ffb973;fill-rule:evenodd;stroke-width:0.00268817;image-rendering:optimizeQuality;shape-rendering:geometricPrecision;text-rendering:geometricPrecision" />
      <path
         class="fil15"
         d="m 280.73319,-52.086222 h -5.627 c -0.737,0 -1.341,0.603499 -1.341,1.3412 v 0 c 0,0.7376 0.604,1.341098 1.341,1.341098 h 5.627 c 0.738,0 1.341,-0.603498 1.341,-1.341098 v 0 c 0,-0.737701 -0.603,-1.3412 -1.341,-1.3412 z"
         id="path9244"
         style="clip-rule:evenodd;fill:#ffb973;fill-rule:evenodd;stroke-width:0.00268817;image-rendering:optimizeQuality;shape-rendering:geometricPrecision;text-rendering:geometricPrecision" />
      <path
         class="fil37"
         d="m 280.96619,-79.194925 h -9.725 c -5.181,0 -9.34001,4.2465 -9.41901,9.4352 l -0.091,5.902401 9.08402,-0.0058 c 0.439,5.495501 10.043,9.003902 18.662,10.047802 1.86,-3.822401 0.909,-10.467402 0.909,-15.944402 0,-5.189301 -4.239,-9.435201 -9.42,-9.435201 z"
         id="path9246"
         style="clip-rule:evenodd;fill:#cc3300;fill-rule:evenodd;stroke-width:0.00268817;image-rendering:optimizeQuality;shape-rendering:geometricPrecision;text-rendering:geometricPrecision" />
      <path
         class="fil10"
         d="m 274.32219,-79.271525 h -3.165 c -5.33701,0 -9.61301,4.2761 -9.70302,9.5006 l -0.10299,5.913601 9.34201,0.8439 0.123,-0.8357 -0.131,-8.022501 c -0.048,-2.982 1.423,-5.6547 3.637,-7.3999 z"
         id="path9248"
         style="clip-rule:evenodd;fill:#990000;fill-rule:evenodd;stroke-width:0.00268817;image-rendering:optimizeQuality;shape-rendering:geometricPrecision;text-rendering:geometricPrecision" />
      <path
         class="fil61"
         d="m 273.81719,-72.958225 h 11.676 c 2.623,0 4.769,2.145901 4.769,4.768601 v 0 c 0,2.6228 -2.146,4.7688 -4.769,4.7688 h -11.676 c -2.622,0 -4.768,-2.146 -4.768,-4.7688 v 0 c 0,-2.6227 2.146,-4.768601 4.768,-4.768601 z"
         id="path9250"
         style="clip-rule:evenodd;fill:#ffcc99;fill-rule:evenodd;stroke-width:0.00268817;image-rendering:optimizeQuality;shape-rendering:geometricPrecision;text-rendering:geometricPrecision" />
      <path
         class="fil18"
         d="m 274.29919,-70.435925 v 0 c 0.947,0 1.721,0.7743 1.721,1.7207 v 2.033501 c 0,0.9464 -0.774,1.7207 -1.721,1.7207 v 0 c -0.946,0 -1.72,-0.7743 -1.72,-1.7207 v -2.033501 c 0,-0.9464 0.774,-1.7207 1.72,-1.7207 z"
         id="path9252"
         style="clip-rule:evenodd;fill:#333333;fill-rule:evenodd;stroke-width:0.00268817;image-rendering:optimizeQuality;shape-rendering:geometricPrecision;text-rendering:geometricPrecision" />
      <path
         class="fil18"
         d="m 283.68118,-70.435925 v 0 c 0.94601,0 1.72,0.7743 1.72,1.7207 v 2.033501 c 0,0.9464 -0.77399,1.7207 -1.72,1.7207 v 0 c -0.947,0 -1.72099,-0.7743 -1.72099,-1.7207 v -2.033501 c 0,-0.9464 0.77399,-1.7207 1.72099,-1.7207 z"
         id="path9254"
         style="clip-rule:evenodd;fill:#333333;fill-rule:evenodd;stroke-width:0.00268817;image-rendering:optimizeQuality;shape-rendering:geometricPrecision;text-rendering:geometricPrecision" />
      <path
         class="fil4"
         d="m 297.14919,-53.788122 h -35.61002 c -0.75099,0 -1.36499,0.6145 -1.36499,1.365498 v 0 c 0,0.751102 0.614,1.365602 1.36499,1.365602 h 35.61002 c 0.751,0 1.365,-0.6145 1.365,-1.365602 v 0 c 0,-0.750998 -0.614,-1.365498 -1.365,-1.365498 z"
         id="path9256"
         style="clip-rule:evenodd;fill:#996633;fill-rule:evenodd;stroke-width:0.00268817;image-rendering:optimizeQuality;shape-rendering:geometricPrecision;text-rendering:geometricPrecision" />
      <path
         class="fil29"
         d="m 260.22118,-52.053324 c 0.17299,0.573101 0.737,0.996101 1.401,0.996101 h 35.42901 c 0.694,0 1.278,-0.461499 1.422,-1.073399 -0.151,0.05 -0.313,0.0773 -0.482,0.0773 z"
         id="path9258"
         style="clip-rule:evenodd;fill:#813d09;fill-rule:evenodd;stroke-width:0.00268817;image-rendering:optimizeQuality;shape-rendering:geometricPrecision;text-rendering:geometricPrecision" />
      <path
         class="fil64"
         d="m 296.71019,-51.546022 v -4.639601 c 0,-1.3764 -1.127,-2.5025 -2.503,-2.5025 v 0 c -1.37601,0 -2.502,1.1261 -2.502,2.5025 v 4.639601 c 0,1.376299 1.12599,2.5024 2.502,2.5024 v 0 c 1.376,0 2.503,-1.126101 2.503,-2.5024 z"
         id="path9260"
         style="clip-rule:evenodd;fill:#b3b3b3;fill-rule:evenodd;stroke-width:0.00268817;image-rendering:optimizeQuality;shape-rendering:geometricPrecision;text-rendering:geometricPrecision" />
      <path
         class="fil64"
         d="m 297.25919,-49.818023 -2.392,-5.3486 -3.732,5.3486 c -0.874,1.2534 -2.904,1.2256 -2.904,2.723401 v 0 c 0,1.497899 1.307,2.723499 2.904,2.723499 h 6.124 c 1.597,0 2.904,-1.2256 2.904,-2.723499 v 0 c 0,-1.497901 -2.286,-1.342101 -2.904,-2.723401 z"
         id="path9262"
         style="clip-rule:evenodd;fill:#b3b3b3;fill-rule:evenodd;stroke-width:0.00268817;image-rendering:optimizeQuality;shape-rendering:geometricPrecision;text-rendering:geometricPrecision" />
      <path
         class="fil5"
         d="m 288.28319,-47.606622 c -0.034,0.165899 -0.052,0.3371 -0.052,0.512 v 0 c 0,1.497899 1.307,2.723499 2.904,2.723499 h 6.12399 c 1.59701,0 2.904,-1.2256 2.904,-2.723499 v 0 c 0,-0.1749 -0.018,-0.346101 -0.052,-0.512 -0.258,1.255299 -1.441,2.2113 -2.852,2.2113 h -6.124 c -1.411,0 -2.594,-0.956001 -2.852,-2.2113 z"
         id="path9264"
         style="clip-rule:evenodd;fill:#cccccc;fill-rule:evenodd;stroke-width:0.00268817;image-rendering:optimizeQuality;shape-rendering:geometricPrecision;text-rendering:geometricPrecision" />
      <path
         class="fil61"
         d="m 265.21718,-60.256724 v 0 c -1.96301,0 -3.57,1.606801 -3.57,3.570602 v 4.219699 c 0,1.963801 1.60699,3.570502 3.57,3.570502 v 0 c 1.96401,0 3.57101,-1.606701 3.57101,-3.570502 v -4.219699 c 0,-1.963801 -1.607,-3.570602 -3.57101,-3.570602 z"
         id="path9266"
         style="clip-rule:evenodd;fill:#ffcc99;fill-rule:evenodd;stroke-width:0.00268817;image-rendering:optimizeQuality;shape-rendering:geometricPrecision;text-rendering:geometricPrecision" />
    </g>
    <g
       id="g1191"
       transform="translate(-335.87105,191.78773)">
      <path
         class="fil22"
         d="m 362.18419,-84.025626 c -1.658,0 -3.268,0.2039 -4.808,0.5858 v 0 c 0.132,0.0327 0.263,0.0667 0.394,0.1021 l 0.022,0.0058 c 0.8,0.2171 1.58,0.4823 2.337,0.7934 l 0.012,0.005 c 0.123,0.0506 0.245,0.1024 0.367,0.1554 l 0.018,0.0077 c 0.744,0.3249 1.465,0.6937 2.158,1.1037 l 0.035,0.0205 c 0.108,0.0642 0.215,0.1292 0.322,0.1954 l 0.03,0.0184 c 0.559,0.3479 1.099,0.7225 1.62,1.1225 0.016,0.0128 0.033,0.0256 0.05,0.0385 0.091,0.0705 0.181,0.1418 0.271,0.2138 l 0.064,0.0511 c 0.089,0.0722 0.178,0.145001 0.266,0.218801 0.016,0.0134 0.032,0.027 0.048,0.0405 0.388,0.326899 0.763,0.6682 1.125,1.0233 0.018,0.0178 0.036,0.0352 0.054,0.053 0.076,0.0749 0.151,0.1507 0.226,0.2268 0.027,0.0279 0.054,0.0558 0.081,0.0839 0.071,0.0727 0.141,0.1461 0.21,0.22 0.03,0.0313 0.059,0.063 0.088,0.0945 0.069,0.0742 0.138,0.1487 0.205,0.224 0.025,0.0278 0.05,0.0559 0.075,0.0838 0.23,0.2593 0.454,0.5245 0.671,0.7957 0.022,0.027 0.044,0.0537 0.065,0.0808 0.058,0.0736 0.116,0.148 0.173,0.2225 0.032,0.0421 0.065,0.0841 0.097,0.1264 0.054,0.0712 0.107,0.143 0.16,0.215 0.034,0.0468 0.069,0.0939 0.103,0.1411 0.05,0.0702 0.101,0.1408 0.151,0.2118 0.035,0.0496 0.069,0.0996 0.103,0.1495 0.049,0.0709 0.098,0.1419 0.146,0.2136 0.033,0.0486 0.065,0.0979 0.097,0.1468 0.121,0.184 0.239,0.3696 0.354,0.5577 l 0.005,0.0071 c 0.042,0.0689 0.083,0.1386 0.124,0.208 0.035,0.0584 0.069,0.1166 0.104,0.1754 0.039,0.0676 0.077,0.1357 0.115,0.2038 0.036,0.0624 0.071,0.1248 0.105,0.1876 0.037,0.0665 0.073,0.1334 0.109,0.2005 0.035,0.0654 0.07,0.1312 0.104,0.197 0.034,0.0658 0.069,0.1318 0.102,0.198 0.035,0.0698 0.07,0.1401 0.105,0.2104 0.031,0.0634 0.062,0.1267 0.093,0.1905 0.041,0.0862 0.081,0.1731 0.121,0.2601 0.035,0.0748 0.069,0.1497 0.103,0.225 0.046,0.1041 0.092,0.2085 0.137,0.3136 0.025,0.0584 0.049,0.1174 0.073,0.1761 0.033,0.0809 0.067,0.1619 0.099,0.2433 0.025,0.0619 0.049,0.1242 0.073,0.1865 0.031,0.0796 0.061,0.1594 0.091,0.2395 0.023,0.0625 0.046,0.1251 0.069,0.1879 0.03,0.0825 0.059,0.1652 0.087,0.2481 0.021,0.0604 0.042,0.1207 0.063,0.1814 0.03,0.0919 0.06,0.1844 0.09,0.2768 0.016,0.0523 0.033,0.1043 0.05,0.1567 0.044,0.142 0.086,0.2846 0.127,0.428 0.01,0.0369 0.02,0.0743 0.03,0.1113 0.031,0.11 0.061,0.2202 0.09,0.331 0.015,0.0566 0.028,0.1135 0.043,0.1703 0.023,0.0928 0.046,0.1857 0.068,0.2791 0.014,0.0602 0.028,0.1207 0.041,0.1812 0.021,0.0913 0.041,0.1829 0.06,0.2747 0.013,0.0608 0.026,0.1217 0.038,0.1828 0.019,0.0956 0.037,0.1915 0.055,0.2875 0.01,0.0564 0.021,0.1126 0.031,0.1692 0.021,0.1169 0.04,0.2344 0.058,0.352 0.006,0.0356 0.012,0.071 0.018,0.1067 0.023,0.1527 0.045,0.3058 0.064,0.4596 0.006,0.0441 0.01,0.0884 0.016,0.1325 0.013,0.1117 0.026,0.2236 0.038,0.3358 0.006,0.0567 0.011,0.1137 0.017,0.1705 0.009,0.1006 0.018,0.2013 0.027,0.3023 0.004,0.0608 0.009,0.1217 0.013,0.1827 0.007,0.0995 0.014,0.1991 0.019,0.299 0.004,0.0597 0.007,0.1193 0.01,0.179101 0.005,0.1076 0.009,0.2156 0.012,0.3236 0.002,0.0517 0.004,0.103299 0.005,0.1552 0.004,0.159099 0.006,0.318599 0.006,0.4787 0,0.1601 -0.002,0.3196 -0.006,0.4787 -10e-4,0.0518 -0.003,0.1035 -0.005,0.1552 -0.003,0.108 -0.007,0.216 -0.012,0.3236 -0.003,0.0598 -0.006,0.1194 -0.01,0.1791 -0.005,0.0998 -0.012,0.1995 -0.019,0.299 -0.004,0.061 -0.009,0.1219 -0.013,0.1827 -0.009,0.101 -0.018,0.2017 -0.027,0.3023 -0.006,0.0568 -0.011,0.1138 -0.017,0.1705 -0.012,0.1122 -0.025,0.2241 -0.038,0.3358 -0.006,0.0441 -0.01,0.0884 -0.016,0.1325 -0.02,0.1537 -0.041,0.307 -0.064,0.4595 -0.006,0.0357 -0.012,0.0712 -0.018,0.1068 -0.018,0.1177 -0.037,0.2351 -0.058,0.352 -0.01,0.0566 -0.021,0.1128 -0.031,0.1692 -0.018,0.096 -0.036,0.1919 -0.055,0.2875 -0.012,0.0611 -0.025,0.122 -0.038,0.1828 -0.019,0.0918 -0.039,0.1834 -0.06,0.2747 -0.013,0.0605 -0.027,0.121 -0.041,0.1812 -0.022,0.0933 -0.045,0.1863 -0.068,0.2791 -0.014,0.0568 -0.028,0.1137 -0.043,0.1703 -0.029,0.1108 -0.059,0.2209 -0.09,0.331 -0.01,0.037 -0.02,0.0744 -0.03,0.1113 -0.041,0.1433 -0.083,0.2861 -0.127,0.428 -0.017,0.0524 -0.034,0.1044 -0.05,0.1567 -0.03,0.0925 -0.06,0.1849 -0.09,0.2768 -0.021,0.0606 -0.042,0.121 -0.063,0.1814 -0.028,0.0829 -0.057,0.1656 -0.087,0.247999 -0.023,0.0629 -0.046,0.1255 -0.069,0.188002 -0.03,0.0801 -0.06,0.159899 -0.091,0.239499 -0.024,0.0623 -0.048,0.124499 -0.073,0.186499 -0.032,0.0814 -0.066,0.162301 -0.099,0.2433 -0.024,0.0587 -0.048,0.1177 -0.073,0.176102 -0.045,0.1051 -0.091,0.2096 -0.137,0.3136 -0.034,0.0752 -0.068,0.150198 -0.103,0.224999 -0.04,0.0869 -0.08,0.1739 -0.121,0.260101 -0.031,0.0638 -0.062,0.127101 -0.093,0.1905 -0.035,0.0703 -0.07,0.140499 -0.105,0.210399 -0.033,0.0662 -0.068,0.132102 -0.102,0.198001 -0.034,0.0659 -0.069,0.131498 -0.104,0.196998 -0.036,0.0671 -0.072,0.133901 -0.109,0.200502 -0.034,0.0628 -0.069,0.125201 -0.105,0.1876 -0.038,0.0681 -0.076,0.136199 -0.115,0.2038 -0.035,0.0588 -0.07,0.116999 -0.104,0.175401 -0.041,0.0695 -0.082,0.139099 -0.124,0.207999 l -0.005,0.007 c -0.115,0.1882 -0.233,0.3738 -0.354,0.5578 -0.032,0.049 -0.064,0.0982 -0.097,0.146801 -0.048,0.0717 -0.097,0.1426 -0.146,0.213601 -0.034,0.0499 -0.068,0.0999 -0.103,0.1495 -0.05,0.071 -0.101,0.141499 -0.151,0.211799 -0.034,0.0472 -0.069,0.0942 -0.103,0.1411 -0.053,0.0721 -0.106,0.1437 -0.16,0.215 -0.032,0.0423 -0.065,0.0843 -0.097,0.126399 -0.057,0.0745 -0.115,0.1489 -0.173,0.222502 -0.021,0.0271 -0.043,0.0538 -0.065,0.0808 -0.217,0.2711 -0.441,0.536401 -0.671,0.7957 -0.025,0.0279 -0.05,0.056 -0.075,0.0837 -0.067,0.0753 -0.136,0.1499 -0.205,0.2241 -0.029,0.0316 -0.058,0.0632 -0.088,0.0945 -0.069,0.0739 -0.139,0.147198 -0.21,0.219998 -0.027,0.0281 -0.054,0.056 -0.081,0.0839 -0.075,0.0762 -0.15,0.1519 -0.226,0.226798 -0.018,0.0177 -0.036,0.0352 -0.054,0.053 -0.362,0.354999 -0.737,0.696499 -1.125,1.0233 -0.016,0.01349 -0.032,0.0271 -0.048,0.0405 -0.088,0.0738 -0.177,0.146601 -0.266,0.2188 l -0.064,0.0511 c -0.09,0.072 -0.18,0.143301 -0.271,0.213802 l -0.05,0.0385 c -0.521,0.399799 -1.061,0.7747 -1.62,1.1224 l -0.03,0.01849 c -0.107,0.0661 -0.214,0.131202 -0.322,0.1954 l -0.035,0.02051 c -0.694,0.4098 -1.414,0.778901 -2.158,1.103701 l -0.018,0.0076 c -0.122,0.053 -0.244,0.104899 -0.367,0.155501 l -0.012,0.005 c -0.757,0.310899 -1.537,0.5764 -2.337,0.793398 l -0.022,0.0058 c -0.131,0.0353 -0.262,0.0694 -0.394,0.1021 v 0 c 1.54,0.381801 3.15,0.5858 4.808,0.5858 10.99901,0 19.91501,-8.916199 19.91501,-19.914901 0,-10.998701 -8.916,-19.914902 -19.91501,-19.914902 z"
         id="path9310"
         style="clip-rule:evenodd;fill:#e6e6e6;fill-rule:evenodd;stroke-width:0.00268817;image-rendering:optimizeQuality;shape-rendering:geometricPrecision;text-rendering:geometricPrecision" />
      <path
         class="fil13"
         d="m 361.53319,-84.025626 c -1.411,0 -2.781,0.2039 -4.091,0.5858 v 0 c 0.113,0.0327 0.224,0.0667 0.336,0.1021 l 0.018,0.0058 c 0.681,0.2171 1.344,0.4823 1.988,0.7934 l 0.011,0.005 c 0.104,0.0506 0.209,0.1024 0.312,0.1554 l 0.015,0.0077 c 0.633,0.3249 1.246,0.6937 1.836,1.1037 l 0.03,0.0205 c 0.092,0.0642 0.183,0.1292 0.274,0.1954 l 0.025,0.0184 c 0.47601,0.3479 0.936,0.7225 1.379,1.1225 0.014,0.0128 0.028,0.0256 0.042,0.0385 0.078,0.0705 0.155,0.1418 0.231,0.2138 l 0.054,0.0511 c 0.076,0.0722 0.152,0.145001 0.227,0.218801 0.014,0.0134 0.027,0.027 0.041,0.0405 0.33,0.326899 0.649,0.6682 0.957,1.0233 0.015,0.0178 0.031,0.0352 0.046,0.053 0.065,0.0749 0.128,0.1507 0.192,0.2268 0.023,0.0279 0.046,0.0558 0.069,0.0839 0.06,0.0727 0.12,0.1461 0.179,0.22 0.025,0.0313 0.05,0.063 0.075,0.0945 0.058,0.0742 0.117,0.1487 0.174,0.224 0.021,0.0278 0.042,0.0559 0.063,0.0838 0.197,0.2593 0.387,0.5245 0.572,0.7957 0.018,0.027 0.037,0.0537 0.055,0.0808 0.05,0.0736 0.098,0.148 0.147,0.2225 0.028,0.0421 0.055,0.0841 0.083,0.1264 0.045,0.0712 0.091,0.143 0.136,0.215 0.029,0.0468 0.058,0.0939 0.087,0.1411 0.043,0.0702 0.086,0.1408 0.129,0.2118 0.029,0.0496 0.059,0.0996 0.088,0.1495 0.042,0.0709 0.083,0.1419 0.124,0.2136 0.028,0.0486 0.055,0.0979 0.082,0.1468 0.103,0.184 0.204,0.3696 0.302,0.5577 l 0.004,0.0071 c 0.035,0.0689 0.07,0.1386 0.105,0.208 0.03,0.0584 0.059,0.1166 0.088,0.1754 0.034,0.0676 0.066,0.1357 0.099,0.2038 0.03,0.0624 0.06,0.1248 0.089,0.1876 0.031,0.0665 0.062,0.1334 0.093,0.2005 0.03,0.0654 0.059,0.1312 0.088,0.197 0.029,0.0658 0.058,0.1318 0.087,0.198 0.03,0.0698 0.06,0.1401 0.089,0.2104 0.027,0.0634 0.053,0.1267 0.079,0.1905 0.036,0.0862 0.07,0.1731 0.104,0.2601 0.029,0.0748 0.058,0.1497 0.087,0.225 0.039,0.1041 0.079,0.2085 0.116,0.3136 0.022,0.0584 0.042,0.1174 0.063,0.1761 0.028,0.0809 0.057,0.1619 0.084,0.2433 0.021,0.0619 0.042,0.1242 0.062,0.1865 0.026,0.0796 0.052,0.1594 0.078,0.2395 0.019,0.0625 0.039,0.1251 0.058,0.1879 0.026,0.0825 0.05,0.1652 0.075,0.2481 0.017,0.0604 0.035,0.1207 0.053,0.1814 0.026,0.0919 0.051,0.1844 0.076,0.2768 0.014,0.0523 0.029,0.1043 0.043,0.1567 0.037,0.142 0.073,0.2846 0.108,0.428 0.009,0.0369 0.017,0.0743 0.026,0.1113 0.026,0.11 0.052,0.2202 0.076,0.331 0.012,0.0566 0.024,0.1135 0.036,0.1703 0.02,0.0928 0.04,0.1857 0.058,0.2791 0.012,0.0602 0.024,0.1207 0.036,0.1812 0.017,0.0913 0.034,0.1829 0.05,0.2747 0.011,0.0608 0.022,0.1217 0.033,0.1828 0.016,0.0956 0.031,0.1915 0.046,0.2875 0.009,0.0564 0.019,0.1126 0.027,0.1692 0.017,0.1169 0.034,0.2344 0.05,0.352 0.004,0.0356 0.01,0.071 0.014,0.1067 0.02,0.1527 0.038,0.3058 0.055,0.4596 0.005,0.0441 0.009,0.0884 0.013,0.1325 0.012,0.1117 0.023,0.2236 0.033,0.3358 0.005,0.0567 0.01,0.1137 0.014,0.1705 0.008,0.1006 0.016,0.2013 0.023,0.3023 0.004,0.0608 0.008,0.1217 0.012,0.1827 0.006,0.0995 0.011,0.1991 0.016,0.299 0.003,0.0597 0.006,0.1193 0.008,0.179101 0.004,0.1076 0.008,0.2156 0.011,0.3236 0.001,0.0517 0.003,0.103299 0.004,0.1552 0.003,0.159099 0.005,0.318599 0.005,0.4787 0,0.1601 -0.002,0.3196 -0.005,0.4787 -10e-4,0.0518 -0.003,0.1035 -0.004,0.1552 -0.003,0.108 -0.007,0.216 -0.011,0.3236 -0.002,0.0598 -0.005,0.1194 -0.008,0.1791 -0.005,0.0998 -0.01,0.1995 -0.016,0.299 -0.004,0.061 -0.008,0.1219 -0.012,0.1827 -0.007,0.101 -0.015,0.2017 -0.023,0.3023 -0.004,0.0568 -0.009,0.1138 -0.014,0.1705 -0.01,0.1122 -0.021,0.2241 -0.033,0.3358 -0.004,0.0441 -0.008,0.0884 -0.013,0.1325 -0.017,0.1537 -0.035,0.307 -0.055,0.4595 -0.004,0.0357 -0.01,0.0712 -0.014,0.1068 -0.016,0.1177 -0.032,0.2351 -0.05,0.352 -0.009,0.0566 -0.018,0.1128 -0.027,0.1692 -0.015,0.096 -0.03,0.1919 -0.046,0.2875 -0.011,0.0611 -0.022,0.122 -0.033,0.1828 -0.016,0.0918 -0.033,0.1834 -0.05,0.2747 -0.012,0.0605 -0.024,0.121 -0.036,0.1812 -0.018,0.0933 -0.038,0.1863 -0.058,0.2791 -0.012,0.0568 -0.023,0.1137 -0.036,0.1703 -0.024,0.1108 -0.05,0.2209 -0.076,0.331 -0.009,0.037 -0.017,0.0744 -0.026,0.1113 -0.035,0.1433 -0.071,0.2861 -0.108,0.428 -0.014,0.0524 -0.029,0.1044 -0.043,0.1567 -0.025,0.0925 -0.05,0.1849 -0.076,0.2768 -0.018,0.0606 -0.036,0.121 -0.053,0.1814 -0.025,0.0829 -0.05,0.1656 -0.075,0.247999 -0.019,0.0629 -0.039,0.1255 -0.058,0.188002 -0.026,0.0801 -0.052,0.159899 -0.078,0.239499 -0.02,0.0623 -0.041,0.124499 -0.062,0.186499 -0.027,0.0814 -0.056,0.162301 -0.084,0.2433 -0.021,0.0587 -0.041,0.1177 -0.063,0.176102 -0.038,0.1051 -0.077,0.2096 -0.116,0.3136 -0.029,0.0752 -0.058,0.150198 -0.087,0.224999 -0.034,0.0869 -0.068,0.1739 -0.104,0.260101 -0.026,0.0638 -0.052,0.127101 -0.079,0.1905 -0.029,0.0703 -0.059,0.140499 -0.089,0.210399 -0.029,0.0662 -0.058,0.132102 -0.087,0.198001 -0.029,0.0659 -0.059,0.131498 -0.088,0.196998 -0.031,0.0671 -0.062,0.133901 -0.093,0.200502 -0.029,0.0628 -0.059,0.125201 -0.089,0.1876 -0.033,0.0681 -0.065,0.136199 -0.099,0.2038 -0.029,0.0588 -0.058,0.116999 -0.088,0.175401 -0.035,0.0695 -0.07,0.139099 -0.105,0.207999 l -0.004,0.007 c -0.098,0.1882 -0.199,0.3738 -0.302,0.5578 -0.027,0.049 -0.054,0.0982 -0.082,0.146801 -0.041,0.0717 -0.082,0.1426 -0.124,0.213601 -0.029,0.0499 -0.059,0.0999 -0.088,0.1495 -0.043,0.071 -0.086,0.141499 -0.129,0.211799 -0.029,0.0472 -0.058,0.0942 -0.087,0.1411 -0.045,0.0721 -0.091,0.1437 -0.136,0.215 -0.028,0.0423 -0.055,0.0843 -0.083,0.126399 -0.049,0.0745 -0.097,0.1489 -0.147,0.222502 -0.018,0.0271 -0.037,0.0538 -0.055,0.0808 -0.185,0.2711 -0.375,0.536401 -0.572,0.7957 -0.021,0.0279 -0.042,0.056 -0.063,0.0837 -0.057,0.0753 -0.116,0.1499 -0.174,0.2241 -0.025,0.0316 -0.05,0.0632 -0.075,0.0945 -0.059,0.0739 -0.119,0.147198 -0.179,0.219998 -0.023,0.0281 -0.046,0.056 -0.069,0.0839 -0.064,0.0762 -0.127,0.1519 -0.192,0.226798 -0.015,0.0177 -0.031,0.0352 -0.046,0.053 -0.308,0.354999 -0.627,0.696499 -0.957,1.0233 -0.014,0.01349 -0.027,0.0271 -0.041,0.0405 -0.075,0.0738 -0.151,0.146601 -0.227,0.2188 l -0.054,0.0511 c -0.076,0.072 -0.153,0.143301 -0.231,0.213802 l -0.042,0.0385 c -0.443,0.399799 -0.90299,0.7747 -1.379,1.1224 l -0.025,0.01849 c -0.091,0.0661 -0.182,0.131202 -0.274,0.1954 l -0.03,0.02051 c -0.59,0.4098 -1.203,0.778901 -1.836,1.103701 l -0.015,0.0076 c -0.104,0.053 -0.208,0.104899 -0.312,0.155501 l -0.011,0.005 c -0.644,0.310899 -1.307,0.5764 -1.988,0.793398 l -0.018,0.0058 c -0.112,0.0353 -0.223,0.0694 -0.336,0.1021 v 0 c 1.31,0.381799 2.68,0.585798 4.091,0.585798 9.358,0 16.94401,-8.916199 16.94401,-19.914901 -10e-6,-10.998699 -7.58601,-19.9149 -16.94401,-19.9149 z"
         id="path9312"
         style="clip-rule:evenodd;fill:#cccccc;fill-rule:evenodd;stroke-width:0.00268817;image-rendering:optimizeQuality;shape-rendering:geometricPrecision;text-rendering:geometricPrecision" />
    </g>
    <g
       id="g1260"
       transform="translate(-132.97551,138.1503)">
      <path
         class="fil10"
         d="m 220.98617,-69.069225 c 2.333,1.808901 5.95,1.4736 6.93,0.1002 l 3.538,-4.9588 c 0.98,-1.3733 -0.373,-4.2835 -3.365,-5.0941 -16.258,-4.404601 -18.665,0.9854 -7.103,9.9527 z"
         id="path9488"
         style="clip-rule:evenodd;fill:#990000;fill-rule:evenodd;stroke-width:0.00268817;image-rendering:optimizeQuality;shape-rendering:geometricPrecision;text-rendering:geometricPrecision" />
      <path
         class="fil15"
         d="m 243.25617,-59.617924 v 0 c -1.964,0 -3.57,1.606701 -3.57,3.570501 v 4.2198 c 0,1.9637 1.606,3.570401 3.57,3.570401 v 0 c 1.964,0 3.571,-1.606701 3.571,-3.570401 v -4.2198 c 0,-1.9638 -1.607,-3.570501 -3.571,-3.570501 z"
         id="path9490"
         style="clip-rule:evenodd;fill:#ffb973;fill-rule:evenodd;stroke-width:0.00268817;image-rendering:optimizeQuality;shape-rendering:geometricPrecision;text-rendering:geometricPrecision" />
      <path
         class="fil60"
         d="m 228.46717,-55.756122 h -3.361 c -1.463,0 -2.66,1.1972 -2.66,2.660398 v 6.110103 c 0,1.463198 1.197,2.660398 2.66,2.660398 h 3.361 c 1.463,0 2.66,-1.1972 2.66,-2.660398 v -6.110103 c 0,-1.463198 -1.197,-2.660398 -2.66,-2.660398 z"
         id="path9492"
         style="clip-rule:evenodd;fill:#663399;fill-rule:evenodd;stroke-width:0.00268817;image-rendering:optimizeQuality;shape-rendering:geometricPrecision;text-rendering:geometricPrecision" />
      <path
         class="fil60"
         d="m 239.03817,-55.756122 h -3.36 c -1.463,0 -2.66,1.1972 -2.66,2.660398 v 6.110103 c 0,1.463198 1.197,2.660398 2.66,2.660398 h 3.36 c 1.464,0 2.661,-1.1972 2.661,-2.660398 v -6.110103 c 0,-1.463198 -1.197,-2.660398 -2.661,-2.660398 z"
         id="path9494"
         style="clip-rule:evenodd;fill:#663399;fill-rule:evenodd;stroke-width:0.00268817;image-rendering:optimizeQuality;shape-rendering:geometricPrecision;text-rendering:geometricPrecision" />
      <path
         class="fil61"
         d="m 236.26917,-78.274725 h -9.725 c -5.181,0 -9.419,4.2388 -9.419,9.4195 v 11.824703 c 0,5.1806 4.238,9.419399 9.419,9.419399 h 9.725 c 5.181,0 9.42001,-4.238799 9.42001,-9.419399 v -11.824703 c 0,-5.1807 -4.23901,-9.4195 -9.42001,-9.4195 z"
         id="path9496"
         style="clip-rule:evenodd;fill:#ffcc99;fill-rule:evenodd;stroke-width:0.00268817;image-rendering:optimizeQuality;shape-rendering:geometricPrecision;text-rendering:geometricPrecision" />
      <path
         class="fil62"
         d="m 229.59017,-78.262225 h -3.072 c -5.181,0 -9.419,4.2458 -9.419,9.4352 v 11.793002 c 0,5.1894 4.238,9.435301 9.419,9.435301 h 2.74 c -1.958,-1.7322 -3.198,-4.262101 -3.198,-7.068402 v -16.2462 c 0,-2.961801 1.381,-5.615801 3.53,-7.348901 z"
         id="path9498"
         style="clip-rule:evenodd;fill:#b3a4b6;fill-rule:evenodd;stroke-width:0.00268817;image-rendering:optimizeQuality;shape-rendering:geometricPrecision;text-rendering:geometricPrecision" />
      <path
         class="fil62"
         d="m 233.66917,-78.237525 h 2.689 c 5.18,0 9.419,4.2458 9.419,9.4352 v 11.793102 c 0,5.1894 -4.239,9.4352 -9.419,9.4352 h -2.689 c 5.181,0 9.42,-4.2458 9.42,-9.4352 v -11.793102 c 0,-5.1894 -4.239,-9.4352 -9.42,-9.4352 z"
         id="path9500"
         style="clip-rule:evenodd;fill:#b3a4b6;fill-rule:evenodd;stroke-width:0.00268817;image-rendering:optimizeQuality;shape-rendering:geometricPrecision;text-rendering:geometricPrecision" />
      <path
         class="fil10"
         d="m 213.81917,-67.609124 c -1.117,2.9954 2.701,5.7876 6.003,5.7876 h 11.921 c 3.302,0 7.239,-2.8358 6.003,-5.7876 -6.714,-16.038802 -18.389,-14.849402 -23.927,0 z"
         id="path9502"
         style="clip-rule:evenodd;fill:#990000;fill-rule:evenodd;stroke-width:0.00268817;image-rendering:optimizeQuality;shape-rendering:geometricPrecision;text-rendering:geometricPrecision" />
      <path
         class="fil15"
         d="m 238.15817,-55.679123 h -8.569 c -1.124,0 -2.043,0.919099 -2.043,2.0424 v 0 c 0,1.1233 0.919,2.042401 2.043,2.042401 h 8.569 c 1.124,0 2.043,-0.919101 2.043,-2.042401 v 0 c 0,-1.123301 -0.919,-2.0424 -2.043,-2.0424 z"
         id="path9504"
         style="clip-rule:evenodd;fill:#ffb973;fill-rule:evenodd;stroke-width:0.00268817;image-rendering:optimizeQuality;shape-rendering:geometricPrecision;text-rendering:geometricPrecision" />
      <path
         class="fil15"
         d="m 236.10117,-51.199622 h -5.627 c -0.738,0 -1.341,0.603499 -1.341,1.341099 v 0 c 0,0.737701 0.603,1.341102 1.341,1.341102 h 5.627 c 0.737,0 1.341,-0.603401 1.341,-1.341102 v 0 c 0,-0.7376 -0.604,-1.341099 -1.341,-1.341099 z"
         id="path9506"
         style="clip-rule:evenodd;fill:#ffb973;fill-rule:evenodd;stroke-width:0.00268817;image-rendering:optimizeQuality;shape-rendering:geometricPrecision;text-rendering:geometricPrecision" />
      <path
         class="fil37"
         d="m 236.33417,-78.308325 h -9.725 c -5.181,0 -9.34,4.2464 -9.42,9.4352 l -0.09,5.902401 9.084,-0.0059 c 0.438,5.495601 10.042,9.003902 18.662,10.047802 1.86001,-3.8223 0.90801,-10.467302 0.90801,-15.944303 0,-5.1894 -4.23801,-9.435201 -9.41901,-9.4352 z"
         id="path9508"
         style="clip-rule:evenodd;fill:#cc3300;fill-rule:evenodd;stroke-width:0.00268817;image-rendering:optimizeQuality;shape-rendering:geometricPrecision;text-rendering:geometricPrecision" />
      <path
         class="fil10"
         d="m 229.68917,-78.384925 h -3.164 c -5.337,0 -9.614,4.276 -9.704,9.5006 l -0.102,5.913601 9.341,0.8439 0.124,-0.8357 -0.131,-8.0225 c -0.049,-2.982001 1.423,-5.654801 3.636,-7.399901 z"
         id="path9510"
         style="clip-rule:evenodd;fill:#990000;fill-rule:evenodd;stroke-width:0.00268817;image-rendering:optimizeQuality;shape-rendering:geometricPrecision;text-rendering:geometricPrecision" />
      <path
         class="fil61"
         d="m 229.18517,-72.071724 h 11.676 c 2.623,0 4.768,2.145899 4.768,4.768699 v 0 c 0,2.622801 -2.145,4.768701 -4.768,4.768701 h -11.676 c -2.623,0 -4.769,-2.1459 -4.769,-4.768701 v 0 c 0,-2.6228 2.146,-4.768699 4.769,-4.768699 z"
         id="path9512"
         style="clip-rule:evenodd;fill:#ffcc99;fill-rule:evenodd;stroke-width:0.00268817;image-rendering:optimizeQuality;shape-rendering:geometricPrecision;text-rendering:geometricPrecision" />
      <path
         class="fil18"
         d="m 229.66717,-69.549425 v 0 c 0.946,0 1.721,0.7743 1.721,1.7207 v 2.033601 c 0,0.9464 -0.775,1.7207 -1.721,1.7207 v 0 c -0.946,0 -1.721,-0.7743 -1.721,-1.7207 v -2.033601 c 0,-0.9464 0.775,-1.7207 1.721,-1.7207 z"
         id="path9514"
         style="clip-rule:evenodd;fill:#333333;fill-rule:evenodd;stroke-width:0.00268817;image-rendering:optimizeQuality;shape-rendering:geometricPrecision;text-rendering:geometricPrecision" />
      <path
         class="fil18"
         d="m 239.04817,-69.549425 v 0 c 0.947,0 1.721,0.7743 1.721,1.7207 v 2.033601 c 0,0.9464 -0.774,1.7207 -1.721,1.7207 v 0 c -0.946,0 -1.72,-0.7743 -1.72,-1.7207 v -2.033601 c 0,-0.9464 0.774,-1.7207 1.72,-1.7207 z"
         id="path9516"
         style="clip-rule:evenodd;fill:#333333;fill-rule:evenodd;stroke-width:0.00268817;image-rendering:optimizeQuality;shape-rendering:geometricPrecision;text-rendering:geometricPrecision" />
      <path
         class="fil4"
         d="m 252.51617,-53.837555 h -35.609 c -0.751,0 -1.366,0.6145 -1.366,1.365602 v 0 c 0,0.751099 0.615,1.365599 1.366,1.365599 h 35.609 c 0.75101,0 1.36601,-0.6145 1.36601,-1.365599 v 0 c 0,-0.751102 -0.615,-1.365602 -1.36601,-1.365602 z"
         id="path9518"
         style="clip-rule:evenodd;fill:#996633;fill-rule:evenodd;stroke-width:0.00268817;image-rendering:optimizeQuality;shape-rendering:geometricPrecision;text-rendering:geometricPrecision" />
      <path
         class="fil29"
         d="m 215.58817,-52.102656 c 0.173,0.573101 0.737,0.996101 1.402,0.996101 h 35.42801 c 0.69399,0 1.279,-0.4615 1.422,-1.073499 -0.15,0.0501 -0.313,0.0774 -0.481,0.0774 z"
         id="path9520"
         style="clip-rule:evenodd;fill:#813d09;fill-rule:evenodd;stroke-width:0.00268817;image-rendering:optimizeQuality;shape-rendering:geometricPrecision;text-rendering:geometricPrecision" />
      <path
         class="fil64"
         d="m 252.07717,-51.595455 v -4.639601 c 0,-1.376299 -1.126,-2.502399 -2.502,-2.502399 v 0 c -1.377,0 -2.503,1.1261 -2.503,2.502399 v 4.639601 c 0,1.3764 1.126,2.502501 2.503,2.502501 v 0 c 1.376,0 2.502,-1.126101 2.502,-2.502501 z"
         id="path9522"
         style="clip-rule:evenodd;fill:#b3b3b3;fill-rule:evenodd;stroke-width:0.00268817;image-rendering:optimizeQuality;shape-rendering:geometricPrecision;text-rendering:geometricPrecision" />
      <path
         class="fil64"
         d="m 252.62717,-49.867355 -2.393,-5.3486 -3.731,5.3486 c -0.875,1.2534 -2.904,1.225502 -2.904,2.723401 v 0 c 0,1.497901 1.30701,2.723401 2.904,2.723401 h 6.124 c 1.59701,0 2.90301,-1.2255 2.90301,-2.723401 v 0 c 0,-1.497899 -2.285,-1.342099 -2.90301,-2.723401 z"
         id="path9524"
         style="clip-rule:evenodd;fill:#b3b3b3;fill-rule:evenodd;stroke-width:0.00268817;image-rendering:optimizeQuality;shape-rendering:geometricPrecision;text-rendering:geometricPrecision" />
      <path
         class="fil5"
         d="m 243.65117,-47.656055 c -0.034,0.166002 -0.052,0.337201 -0.052,0.512101 v 0 c 0,1.497901 1.30701,2.723401 2.904,2.723401 h 6.124 c 1.59701,0 2.90301,-1.2255 2.90301,-2.723401 v 0 c 0,-0.1749 -0.018,-0.346099 -0.052,-0.512101 -0.257,1.255302 -1.441,2.211401 -2.85101,2.211401 h -6.124 c -1.411,0 -2.595,-0.956099 -2.852,-2.211401 z"
         id="path9526"
         style="clip-rule:evenodd;fill:#cccccc;fill-rule:evenodd;stroke-width:0.00268817;image-rendering:optimizeQuality;shape-rendering:geometricPrecision;text-rendering:geometricPrecision" />
      <path
         class="fil61"
         d="m 220.58517,-59.584624 v 0 c -1.964,0 -3.57,1.606701 -3.57,3.570501 v 4.2197 c 0,1.963801 1.606,3.570501 3.57,3.570501 v 0 c 1.964,0 3.571,-1.6067 3.571,-3.570501 v -4.2197 c 0,-1.9638 -1.607,-3.570501 -3.571,-3.570501 z"
         id="path9528"
         style="clip-rule:evenodd;fill:#ffcc99;fill-rule:evenodd;stroke-width:0.00268817;image-rendering:optimizeQuality;shape-rendering:geometricPrecision;text-rendering:geometricPrecision" />
    </g>
    <g
       id="g1331"
       transform="translate(91.465978,273.59189)">
      <path
         class="fil10"
         d="m 64.278148,-70.278325 c 2.33202,1.8089 5.949,1.4735 6.92902,0.1001 l 3.538987,-4.9587 c 0.98001,-1.3734 -0.37399,-4.283601 -3.366007,-5.094201 -16.25698,-4.4045 -18.665,0.985401 -7.102,9.952801 z"
         id="path9824"
         style="clip-rule:evenodd;fill:#990000;fill-rule:evenodd;stroke-width:0.00268817;image-rendering:optimizeQuality;shape-rendering:geometricPrecision;text-rendering:geometricPrecision" />
      <path
         class="fil15"
         d="m 86.548155,-60.289924 v 0 c -1.964,0 -3.571,1.606701 -3.571,3.570501 v 4.2197 c 0,1.963801 1.607,3.570502 3.571,3.570502 v 0 c 1.963,0 3.57,-1.606701 3.57,-3.570502 v -4.2197 c 0,-1.9638 -1.607,-3.570501 -3.57,-3.570501 z"
         id="path9826"
         style="clip-rule:evenodd;fill:#ffb973;fill-rule:evenodd;stroke-width:0.00268817;image-rendering:optimizeQuality;shape-rendering:geometricPrecision;text-rendering:geometricPrecision" />
      <path
         class="fil60"
         d="m 71.758158,-55.756122 h -3.35999 c -1.46302,0 -2.66002,1.1972 -2.66002,2.660398 v 6.110103 c 0,1.463198 1.197,2.660398 2.66002,2.660398 h 3.35999 c 1.464,0 2.660997,-1.1972 2.660997,-2.660398 v -6.110103 c 0,-1.463198 -1.196997,-2.660398 -2.660997,-2.660398 z"
         id="path9828"
         style="clip-rule:evenodd;fill:#663399;fill-rule:evenodd;stroke-width:0.00268817;image-rendering:optimizeQuality;shape-rendering:geometricPrecision;text-rendering:geometricPrecision" />
      <path
         class="fil60"
         d="m 82.330165,-55.756122 h -3.35999 c -1.46402,0 -2.66102,1.1972 -2.66102,2.660398 v 6.110103 c 0,1.463198 1.197,2.660398 2.66102,2.660398 h 3.35999 c 1.46299,0 2.65999,-1.1972 2.65999,-2.660398 v -6.110103 c 0,-1.463198 -1.197,-2.660398 -2.65999,-2.660398 z"
         id="path9830"
         style="clip-rule:evenodd;fill:#663399;fill-rule:evenodd;stroke-width:0.00268817;image-rendering:optimizeQuality;shape-rendering:geometricPrecision;text-rendering:geometricPrecision" />
      <path
         class="fil61"
         d="m 79.561175,-79.161225 h -9.725027 c -5.18099,0 -9.41999,4.2387 -9.41999,9.4194 v 11.824702 c 0,5.180701 4.239,9.4194 9.41999,9.4194 h 9.725027 c 5.18099,0 9.41898,-4.238699 9.41898,-9.4194 v -11.824702 c 0,-5.1807 -4.23799,-9.4194 -9.41898,-9.4194 z"
         id="path9832"
         style="clip-rule:evenodd;fill:#ffcc99;fill-rule:evenodd;stroke-width:0.00268817;image-rendering:optimizeQuality;shape-rendering:geometricPrecision;text-rendering:geometricPrecision" />
      <path
         class="fil62"
         d="m 72.882168,-79.148825 h -3.072 c -5.18102,0 -9.42001,4.2458 -9.42001,9.4352 v 11.793102 c 0,5.1894 4.23899,9.435201 9.42001,9.435201 h 2.73899 c -1.95699,-1.732201 -3.19698,-4.262102 -3.19698,-7.068402 v -16.246101 c 0,-2.9619 1.38099,-5.6159 3.52999,-7.349 z"
         id="path9834"
         style="clip-rule:evenodd;fill:#b3a4b6;fill-rule:evenodd;stroke-width:0.00268817;image-rendering:optimizeQuality;shape-rendering:geometricPrecision;text-rendering:geometricPrecision" />
      <path
         class="fil62"
         d="m 76.961165,-79.124126 h 2.68801 c 5.18099,0 9.41998,4.245901 9.41998,9.435301 v 11.793002 c 0,5.189399 -4.23899,9.4353 -9.41998,9.4353 h -2.68801 c 5.17998,0 9.41901,-4.245901 9.41901,-9.4353 v -11.793002 c 0,-5.1894 -4.23903,-9.435301 -9.41901,-9.435301 z"
         id="path9836"
         style="clip-rule:evenodd;fill:#b3a4b6;fill-rule:evenodd;stroke-width:0.00268817;image-rendering:optimizeQuality;shape-rendering:geometricPrecision;text-rendering:geometricPrecision" />
      <path
         class="fil10"
         d="m 57.111168,-68.818325 c -1.11802,2.995501 2.701,5.787701 6.002,5.787701 h 11.921987 c 3.301,0 7.238,-2.8358 6.00199,-5.787601 -6.713977,-16.038901 -18.387977,-14.849401 -23.925977,0 z"
         id="path9838"
         style="clip-rule:evenodd;fill:#990000;fill-rule:evenodd;stroke-width:0.00268817;image-rendering:optimizeQuality;shape-rendering:geometricPrecision;text-rendering:geometricPrecision" />
      <path
         class="fil15"
         d="m 81.450165,-56.565724 h -8.570007 c -1.123,0 -2.04201,0.919102 -2.04201,2.042401 v 0 c 0,1.1234 0.91901,2.042401 2.04201,2.042401 h 8.570007 c 1.123,0 2.042,-0.919001 2.042,-2.042401 v 0 c 0,-1.123299 -0.919,-2.042401 -2.042,-2.042401 z"
         id="path9840"
         style="clip-rule:evenodd;fill:#ffb973;fill-rule:evenodd;stroke-width:0.00268817;image-rendering:optimizeQuality;shape-rendering:geometricPrecision;text-rendering:geometricPrecision" />
      <path
         class="fil15"
         d="m 79.392155,-52.086222 h -5.626997 c -0.737,0 -1.34099,0.603499 -1.34099,1.3412 v 0 c 0,0.7376 0.60399,1.341098 1.34099,1.341098 h 5.626997 c 0.738,0 1.34101,-0.603498 1.34101,-1.341098 v 0 c 0,-0.737701 -0.60301,-1.3412 -1.34101,-1.3412 z"
         id="path9842"
         style="clip-rule:evenodd;fill:#ffb973;fill-rule:evenodd;stroke-width:0.00268817;image-rendering:optimizeQuality;shape-rendering:geometricPrecision;text-rendering:geometricPrecision" />
      <path
         class="fil37"
         d="m 79.626155,-79.194925 h -9.726007 c -5.18099,0 -9.34,4.2465 -9.41898,9.4352 l -0.091,5.902401 9.08401,-0.0058 c 0.439,5.495501 10.043007,9.003902 18.661987,10.047802 1.86,-3.822401 0.90901,-10.467402 0.90901,-15.944402 0,-5.189301 -4.239,-9.435201 -9.41901,-9.435201 z"
         id="path9844"
         style="clip-rule:evenodd;fill:#cc3300;fill-rule:evenodd;stroke-width:0.00268817;image-rendering:optimizeQuality;shape-rendering:geometricPrecision;text-rendering:geometricPrecision" />
      <path
         class="fil10"
         d="m 72.981168,-79.271525 h -3.165 c -5.33701,0 -9.613,4.2761 -9.70301,9.5006 l -0.10199,5.913601 9.34101,0.8439 0.12297,-0.8357 -0.13099,-8.022501 c -0.048,-2.982 1.42301,-5.6547 3.63701,-7.3999 z"
         id="path9846"
         style="clip-rule:evenodd;fill:#990000;fill-rule:evenodd;stroke-width:0.00268817;image-rendering:optimizeQuality;shape-rendering:geometricPrecision;text-rendering:geometricPrecision" />
      <path
         class="fil61"
         d="m 72.477168,-72.958225 h 11.674997 c 2.623,0 4.76899,2.145901 4.76899,4.768601 v 0 c 0,2.6228 -2.14599,4.7688 -4.76899,4.7688 H 72.477168 c -2.623,0 -4.76901,-2.146 -4.76901,-4.7688 v 0 c 0,-2.6227 2.14601,-4.768601 4.76901,-4.768601 z"
         id="path9848"
         style="clip-rule:evenodd;fill:#ffcc99;fill-rule:evenodd;stroke-width:0.00268817;image-rendering:optimizeQuality;shape-rendering:geometricPrecision;text-rendering:geometricPrecision" />
      <path
         class="fil4"
         d="M 95.808145,-53.788122 H 60.198168 c -0.75102,0 -1.36501,0.6145 -1.36501,1.365498 v 0 c 0,0.751102 0.61399,1.365602 1.36501,1.365602 h 35.609977 c 0.75102,0 1.36602,-0.6145 1.36602,-1.365602 v 0 c 0,-0.750998 -0.615,-1.365498 -1.36602,-1.365498 z"
         id="path9850"
         style="clip-rule:evenodd;fill:#996633;fill-rule:evenodd;stroke-width:0.00268817;image-rendering:optimizeQuality;shape-rendering:geometricPrecision;text-rendering:geometricPrecision" />
      <path
         class="fil29"
         d="m 58.880148,-52.053324 c 0.17301,0.573101 0.73703,0.996101 1.40102,0.996101 h 35.429007 c 0.69397,0 1.27799,-0.461499 1.42198,-1.073399 -0.151,0.05 -0.31298,0.0773 -0.482,0.0773 z"
         id="path9852"
         style="clip-rule:evenodd;fill:#813d09;fill-rule:evenodd;stroke-width:0.00268817;image-rendering:optimizeQuality;shape-rendering:geometricPrecision;text-rendering:geometricPrecision" />
      <path
         class="fil64"
         d="m 95.369155,-51.546022 v -4.639601 c 0,-1.3764 -1.12599,-2.5025 -2.50299,-2.5025 v 0 c -1.37602,0 -2.502,1.1261 -2.502,2.5025 v 4.639601 c 0,1.376299 1.12598,2.5024 2.502,2.5024 v 0 c 1.377,0 2.50299,-1.126101 2.50299,-2.5024 z"
         id="path9854"
         style="clip-rule:evenodd;fill:#b3b3b3;fill-rule:evenodd;stroke-width:0.00268817;image-rendering:optimizeQuality;shape-rendering:geometricPrecision;text-rendering:geometricPrecision" />
      <path
         class="fil64"
         d="m 95.918165,-49.818023 -2.39199,-5.3486 -3.73201,5.3486 c -0.87399,1.2534 -2.90401,1.2256 -2.90401,2.723401 v 0 c 0,1.497899 1.30702,2.723499 2.90401,2.723499 h 6.124 c 1.597,0 2.90398,-1.2256 2.90398,-2.723499 v 0 c 0,-1.497901 -2.286,-1.342101 -2.90398,-2.723401 z"
         id="path9856"
         style="clip-rule:evenodd;fill:#b3b3b3;fill-rule:evenodd;stroke-width:0.00268817;image-rendering:optimizeQuality;shape-rendering:geometricPrecision;text-rendering:geometricPrecision" />
      <path
         class="fil5"
         d="m 86.943155,-47.606622 c -0.035,0.165899 -0.053,0.3371 -0.053,0.512 v 0 c 0,1.497899 1.30702,2.723499 2.90401,2.723499 h 6.124 c 1.597,0 2.90398,-1.2256 2.90398,-2.723499 v 0 c 0,-0.1749 -0.018,-0.346101 -0.052,-0.512 -0.25699,1.255299 -1.441,2.2113 -2.85199,2.2113 h -6.124 c -1.41001,0 -2.594,-0.956001 -2.85101,-2.2113 z"
         id="path9858"
         style="clip-rule:evenodd;fill:#cccccc;fill-rule:evenodd;stroke-width:0.00268817;image-rendering:optimizeQuality;shape-rendering:geometricPrecision;text-rendering:geometricPrecision" />
      <path
         class="fil61"
         d="m 63.877148,-60.256724 v 0 c -1.964,0 -3.571,1.606801 -3.571,3.570602 v 4.219699 c 0,1.963801 1.607,3.570502 3.571,3.570502 v 0 c 1.96303,0 3.57003,-1.606701 3.57003,-3.570502 v -4.219699 c 0,-1.963801 -1.607,-3.570602 -3.57003,-3.570602 z"
         id="path9860"
         style="clip-rule:evenodd;fill:#ffcc99;fill-rule:evenodd;stroke-width:0.00268817;image-rendering:optimizeQuality;shape-rendering:geometricPrecision;text-rendering:geometricPrecision" />
      <path
         class="fil18"
         d="m 85.942155,-71.202325 v 0 c -0.37701,-0.3774 -0.99499,-0.3774 -1.372,0 l -5.37998,5.380501 c -0.37801,0.3774 -0.37801,0.9949 0,1.3722 v 0 c 0.37698,0.3774 0.99398,0.3774 1.37199,0 l 5.37999,-5.380501 c 0.37801,-0.3774 0.37801,-0.994899 0,-1.3723 z"
         id="path9862"
         style="clip-rule:evenodd;fill:#333333;fill-rule:evenodd;stroke-width:0.00268817;image-rendering:optimizeQuality;shape-rendering:geometricPrecision;text-rendering:geometricPrecision" />
      <path
         class="fil18"
         d="m 79.190175,-71.202325 v 0 c 0.37698,-0.3774 0.99398,-0.3774 1.37199,0 l 5.37999,5.380501 c 0.37801,0.3774 0.37801,0.9949 0,1.3722 v 0 c -0.37701,0.3774 -0.99499,0.3774 -1.372,0 l -5.37998,-5.380501 c -0.37801,-0.3774 -0.37801,-0.994899 0,-1.3723 z"
         id="path9864"
         style="clip-rule:evenodd;fill:#333333;fill-rule:evenodd;stroke-width:0.00268817;image-rendering:optimizeQuality;shape-rendering:geometricPrecision;text-rendering:geometricPrecision" />
      <path
         class="fil18"
         d="m 76.511165,-71.202325 v 0 c -0.37802,-0.3774 -0.995,-0.3774 -1.37301,0 l -5.380007,5.380501 c -0.37798,0.3774 -0.37798,0.9949 0,1.3722 v 0 c 0.37701,0.3774 0.99502,0.3774 1.37203,0 l 5.380987,-5.380501 c 0.377,-0.3774 0.377,-0.994899 0,-1.3723 z"
         id="path9866"
         style="clip-rule:evenodd;fill:#333333;fill-rule:evenodd;stroke-width:0.00268817;image-rendering:optimizeQuality;shape-rendering:geometricPrecision;text-rendering:geometricPrecision" />
      <path
         class="fil18"
         d="m 69.758148,-71.202325 v 0 c 0.37701,-0.3774 0.99502,-0.3774 1.37203,0 l 5.380987,5.380501 c 0.377,0.3774 0.377,0.9949 0,1.3722 v 0 c -0.37802,0.3774 -0.995,0.3774 -1.37301,0 l -5.380007,-5.380501 c -0.37798,-0.3774 -0.37798,-0.994899 0,-1.3723 z"
         id="path9868"
         style="clip-rule:evenodd;fill:#333333;fill-rule:evenodd;stroke-width:0.00268817;image-rendering:optimizeQuality;shape-rendering:geometricPrecision;text-rendering:geometricPrecision" />
    </g>
    <g
       id="g1356"
       transform="translate(74.241436,273.06474)">
      <path
         class="fil10"
         d="m 12.562168,-60.672524 c 2.92798,-0.3702 5.24798,-3.1648 4.96998,-4.8288 l -1.00398,-6.008501 c -0.278,-1.6641 -3.29301,-2.7648 -5.98202,-1.2223 -14.61,8.381301 -12.50098,13.894701 2.01602,12.059601 z"
         id="path9870"
         style="clip-rule:evenodd;fill:#990000;fill-rule:evenodd;stroke-width:0.00268817;image-rendering:optimizeQuality;shape-rendering:geometricPrecision;text-rendering:geometricPrecision" />
      <path
         class="fil15"
         d="m 35.372158,-69.356625 v 0 c -1.38901,1.3886 -1.38901,3.660801 0,5.049401 l 2.98299,2.9838 c 1.38901,1.3887 3.66102,1.3887 5.05,0 v 0 c 1.38901,-1.3886 1.38901,-3.6608 0,-5.0494 l -2.984,-2.983801 c -1.38898,-1.388699 -3.66098,-1.388699 -5.04899,0 z"
         id="path9872"
         style="clip-rule:evenodd;fill:#ffb973;fill-rule:evenodd;stroke-width:0.00268817;image-rendering:optimizeQuality;shape-rendering:geometricPrecision;text-rendering:geometricPrecision" />
      <path
         class="fil60"
         d="m 28.120168,-55.693223 -2.37601,2.376199 c -1.035,1.0346 -1.035,2.727701 0,3.762402 l 4.32001,4.320399 c 1.035,1.034701 2.72799,1.034701 3.76298,0 l 2.37601,-2.376199 c 1.035,-1.0346 1.035,-2.7277 0,-3.762401 l -4.32101,-4.3204 c -1.03399,-1.034701 -2.72698,-1.034701 -3.76198,0 z"
         id="path9874"
         style="clip-rule:evenodd;fill:#663399;fill-rule:evenodd;stroke-width:0.00268817;image-rendering:optimizeQuality;shape-rendering:geometricPrecision;text-rendering:geometricPrecision" />
      <path
         class="fil60"
         d="m 35.595148,-63.168524 -2.37598,2.3763 c -1.035,1.0346 -1.035,2.727701 0,3.7623 l 4.32099,4.320503 c 1.03399,1.034698 2.727,1.034698 3.762,0 l 2.37601,-2.376202 c 1.035,-1.034701 1.035,-2.7277 0,-3.762401 l -4.32001,-4.3205 c -1.035,-1.0346 -2.72801,-1.0346 -3.76301,0 z"
         id="path9876"
         style="clip-rule:evenodd;fill:#663399;fill-rule:evenodd;stroke-width:0.00268817;image-rendering:optimizeQuality;shape-rendering:geometricPrecision;text-rendering:geometricPrecision" />
      <path
         class="fil61"
         d="m 17.087148,-77.760425 -6.877,6.876901 c -3.66299,3.6633 -3.66299,9.6578 0,13.321102 l 8.362,8.361299 c 3.663,3.663302 9.65801,3.663302 13.321,0 l 6.877,-6.876899 c 3.663,-3.663302 3.663,-9.657802 0,-13.321103 l -8.362,-8.3613 c -3.66299,-3.663301 -9.657,-3.663301 -13.321,0 z"
         id="path9878"
         style="clip-rule:evenodd;fill:#ffcc99;fill-rule:evenodd;stroke-width:0.00268817;image-rendering:optimizeQuality;shape-rendering:geometricPrecision;text-rendering:geometricPrecision" />
      <path
         class="fil62"
         d="m 12.373148,-73.028525 -2.17199,2.172101 c -3.663,3.663299 -3.658,9.6628 0.0111,13.3322 l 8.33901,8.339002 c 3.66998,3.669401 9.66898,3.674499 13.33198,0.01119 l 1.93799,-1.9373 c -2.60998,0.159499 -5.275,-0.7526 -7.25998,-2.737001 l -11.48702,-11.487701 c -2.09499,-2.0944 -2.995,-4.947701 -2.701,-7.692501 z"
         id="path9880"
         style="clip-rule:evenodd;fill:#b3a4b6;fill-rule:evenodd;stroke-width:0.00268817;image-rendering:optimizeQuality;shape-rendering:geometricPrecision;text-rendering:geometricPrecision" />
      <path
         class="fil62"
         d="m 15.275148,-75.895525 1.90101,-1.901 c 3.66299,-3.663301 9.663,-3.658301 13.33201,0.0112 l 8.339,8.3389 c 3.66998,3.669501 3.67499,9.669001 0.0111,13.332303 l -1.901,1.900999 c 3.664,-3.6633 3.659,-9.662801 -0.0111,-13.332301 l -8.33901,-8.338901 c -3.669,-3.669501 -9.66901,-3.674501 -13.33201,-0.0112 z"
         id="path9882"
         style="clip-rule:evenodd;fill:#b3a4b6;fill-rule:evenodd;stroke-width:0.00268817;image-rendering:optimizeQuality;shape-rendering:geometricPrecision;text-rendering:geometricPrecision" />
      <path
         class="fil10"
         d="m 8.526158,-54.571924 c 1.328,2.908101 6.003,2.182402 8.33699,-0.1523 l 8.43,-8.4294 c 2.33402,-2.3346 3.11301,-7.123701 0.152,-8.337201 -16.08899,-6.5935 -23.50299,2.5026 -16.91899,16.918901 z"
         id="path9884"
         style="clip-rule:evenodd;fill:#990000;fill-rule:evenodd;stroke-width:0.00268817;image-rendering:optimizeQuality;shape-rendering:geometricPrecision;text-rendering:geometricPrecision" />
      <path
         class="fil15"
         d="m 34.400158,-63.118524 -6.05901,6.059501 c -0.79399,0.7943 -0.79399,2.0941 0,2.8884 v 0 c 0.79401,0.794301 2.09402,0.794301 2.88801,0 l 6.06001,-6.059501 c 0.79399,-0.7943 0.79399,-2.0941 0,-2.8884 v 0 c -0.79502,-0.7943 -2.09402,-0.7943 -2.88901,0 z"
         id="path9886"
         style="clip-rule:evenodd;fill:#ffb973;fill-rule:evenodd;stroke-width:0.00268817;image-rendering:optimizeQuality;shape-rendering:geometricPrecision;text-rendering:geometricPrecision" />
      <path
         class="fil15"
         d="m 36.113148,-58.496224 -3.97899,3.978902 c -0.52101,0.5216 -0.52101,1.3751 0,1.8967 v 0 c 0.522,0.5216 1.37499,0.5216 1.89699,0 l 3.97901,-3.979 c 0.52099,-0.521502 0.52099,-1.375001 0,-1.896602 v 0 c -0.52199,-0.521599 -1.37501,-0.521599 -1.89701,0 z"
         id="path9888"
         style="clip-rule:evenodd;fill:#ffb973;fill-rule:evenodd;stroke-width:0.00268817;image-rendering:optimizeQuality;shape-rendering:geometricPrecision;text-rendering:geometricPrecision" />
      <path
         class="fil37"
         d="m 17.109158,-77.829925 -6.87699,6.876901 c -3.663,3.6633 -3.60101,9.607 0.0119,13.332301 l 4.10901,4.2375 6.419,-6.427301 c 4.19701,3.575601 13.46801,-0.7346 20.30101,-6.0914 -1.387,-4.018001 -6.759,-8.044001 -10.63102,-11.916801 -3.66998,-3.669501 -9.66898,-3.674501 -13.33299,-0.0112 z"
         id="path9890"
         style="clip-rule:evenodd;fill:#cc3300;fill-rule:evenodd;stroke-width:0.00268817;image-rendering:optimizeQuality;shape-rendering:geometricPrecision;text-rendering:geometricPrecision" />
      <path
         class="fil10"
         d="m 12.356158,-73.185325 -2.237,2.237501 c -3.77401,3.773899 -3.77401,9.8213 -0.14401,13.5794 l 4.11001,4.253801 7.20199,-6.008401 -0.50398,-0.6784 -5.76501,-5.5801 c -2.14299,-2.074201 -2.99299,-5.004701 -2.662,-7.803801 z"
         id="path9892"
         style="clip-rule:evenodd;fill:#990000;fill-rule:evenodd;stroke-width:0.00268817;image-rendering:optimizeQuality;shape-rendering:geometricPrecision;text-rendering:geometricPrecision" />
      <path
         class="fil61"
         d="m 16.464158,-68.364725 8.25601,-8.2561 c 1.85499,-1.8546 4.889,-1.8546 6.74399,0 v 0 c 1.85499,1.8546 1.85499,4.8894 0,6.744 l -8.25601,8.256001 c -1.85499,1.8546 -4.88899,1.8546 -6.74399,0 v 0 c -1.85401,-1.8546 -1.85401,-4.8893 0,-6.743901 z"
         id="path9894"
         style="clip-rule:evenodd;fill:#ffcc99;fill-rule:evenodd;stroke-width:0.00268817;image-rendering:optimizeQuality;shape-rendering:geometricPrecision;text-rendering:geometricPrecision" />
      <path
         class="fil4"
         d="m 46.517148,-71.307224 -25.18,25.179702 c -0.53099,0.531101 -0.53099,1.400101 0,1.931199 v 0 c 0.532,0.531 1.401,0.531 1.93202,0 l 25.17899,-25.179702 c 0.532,-0.5311 0.532,-1.400099 0,-1.931199 v 0 c -0.53099,-0.531101 -1.39999,-0.531101 -1.93101,0 z"
         id="path9896"
         style="clip-rule:evenodd;fill:#996633;fill-rule:evenodd;stroke-width:0.00268817;image-rendering:optimizeQuality;shape-rendering:geometricPrecision;text-rendering:geometricPrecision" />
      <path
         class="fil29"
         d="m 21.632158,-43.968321 c 0.527,0.2829 1.225,0.1832 1.695,-0.2867 l 25.052,-25.051804 c 0.49101,-0.4907 0.57801,-1.2304 0.24601,-1.7647 -0.071,0.1422 -0.166,0.276101 -0.28501,0.395301 z"
         id="path9898"
         style="clip-rule:evenodd;fill:#813d09;fill-rule:evenodd;stroke-width:0.00268817;image-rendering:optimizeQuality;shape-rendering:geometricPrecision;text-rendering:geometricPrecision" />
      <path
         class="fil64"
         d="m 47.792148,-69.411225 -3.28099,-3.2807 c -0.973,-0.9732 -2.565,-0.9732 -3.53899,0 v 0 c -0.973,0.9732 -0.973,2.5657 0,3.539 l 3.281,3.280701 c 0.973,0.9732 2.566,0.9732 3.53898,0 v 0 c 0.97301,-0.9733 0.97301,-2.565801 0,-3.539001 z"
         id="path9900"
         style="clip-rule:evenodd;fill:#b3b3b3;fill-rule:evenodd;stroke-width:0.00268817;image-rendering:optimizeQuality;shape-rendering:geometricPrecision;text-rendering:geometricPrecision" />
      <path
         class="fil64"
         d="m 49.403168,-68.577925 -5.47401,-2.090299 1.143,6.4207 c 0.26799,1.5046 -1.187,2.9198 -0.127,3.979 v 0 c 1.05899,1.0592 2.849,1.0018 3.97901,-0.1275 l 4.32999,-4.3305 c 1.129,-1.1292 1.187,-2.919701 0.128,-3.978901 v 0 c -1.06,-1.0592 -2.56601,0.6673 -3.97899,0.1275 z"
         id="path9902"
         style="clip-rule:evenodd;fill:#b3b3b3;fill-rule:evenodd;stroke-width:0.00268817;image-rendering:optimizeQuality;shape-rendering:geometricPrecision;text-rendering:geometricPrecision" />
      <path
         class="fil5"
         d="m 44.619158,-60.667524 c 0.094,0.1415 0.20201,0.2753 0.326,0.399 v 0 c 1.05899,1.0592 2.849,1.0018 3.97901,-0.1275 l 4.32999,-4.3305 c 1.129,-1.1292 1.187,-2.919701 0.128,-3.978901 v 0 c -0.12401,-0.1237 -0.25799,-0.232 -0.39899,-0.3253 0.70498,1.069601 0.54398,2.582701 -0.45302,3.580101 l -4.33099,4.3305 c -0.997,0.9974 -2.51,1.1584 -3.58,0.4527 z"
         id="path9904"
         style="clip-rule:evenodd;fill:#cccccc;fill-rule:evenodd;stroke-width:0.00268817;image-rendering:optimizeQuality;shape-rendering:geometricPrecision;text-rendering:geometricPrecision" />
      <path
         class="fil61"
         d="m 19.364148,-53.302324 v 0 c -1.388,1.388603 -1.388,3.660902 0,5.049502 l 2.984,2.983801 c 1.38901,1.3886 3.66102,1.3886 5.05,0 v 0 c 1.388,-1.388702 1.388,-3.660902 0,-5.049501 l -2.984,-2.983802 c -1.38898,-1.388599 -3.66099,-1.388599 -5.05,0 z"
         id="path9906"
         style="clip-rule:evenodd;fill:#ffcc99;fill-rule:evenodd;stroke-width:0.00268817;image-rendering:optimizeQuality;shape-rendering:geometricPrecision;text-rendering:geometricPrecision" />
      <path
         class="fil18"
         d="m 27.227148,-76.644925 v 0 c -0.53298,0 -0.96999,0.4366 -0.96999,0.9703 v 7.6093 c 0,0.5336 0.43701,0.970301 0.96999,0.970301 v 0 c 0.53401,0 0.97102,-0.436701 0.97102,-0.970301 v -7.6093 c 0,-0.5337 -0.43701,-0.9703 -0.97102,-0.9703 z"
         id="path9908"
         style="clip-rule:evenodd;fill:#333333;fill-rule:evenodd;stroke-width:0.00268817;image-rendering:optimizeQuality;shape-rendering:geometricPrecision;text-rendering:geometricPrecision" />
      <path
         class="fil18"
         d="m 22.453168,-71.870025 v 0 c 0,-0.5336 0.43598,-0.9703 0.96998,-0.9703 h 7.609 c 0.53401,0 0.97001,0.4367 0.97001,0.9703 v 0 c 0,0.5337 -0.436,0.9704 -0.97001,0.9704 h -7.609 c -0.534,0 -0.96998,-0.4367 -0.96998,-0.9704 z"
         id="path9910"
         style="clip-rule:evenodd;fill:#333333;fill-rule:evenodd;stroke-width:0.00268817;image-rendering:optimizeQuality;shape-rendering:geometricPrecision;text-rendering:geometricPrecision" />
      <path
         class="fil18"
         d="m 20.558168,-69.975625 v 0 c -0.53301,0 -0.97002,0.4366 -0.97002,0.9703 v 7.609201 c 0,0.5337 0.43701,0.9704 0.97002,0.9704 v 0 c 0.53398,0 0.97099,-0.4367 0.97099,-0.9704 v -7.609201 c 0,-0.5337 -0.43701,-0.9703 -0.97099,-0.9703 z"
         id="path9912"
         style="clip-rule:evenodd;fill:#333333;fill-rule:evenodd;stroke-width:0.00268817;image-rendering:optimizeQuality;shape-rendering:geometricPrecision;text-rendering:geometricPrecision" />
      <path
         class="fil18"
         d="m 15.783148,-65.200724 v 0 c 0,-0.5337 0.43701,-0.9703 0.971,-0.9703 h 7.60902 c 0.53398,0 0.96998,0.4366 0.96998,0.9703 v 0 c 0,0.5337 -0.436,0.9703 -0.96998,0.9703 h -7.60902 c -0.53399,0 -0.971,-0.4366 -0.971,-0.9703 z"
         id="path9914"
         style="clip-rule:evenodd;fill:#333333;fill-rule:evenodd;stroke-width:0.00268817;image-rendering:optimizeQuality;shape-rendering:geometricPrecision;text-rendering:geometricPrecision" />
    </g>
    <g
       id="g1381"
       transform="translate(56.962887,270.29095)">
      <path
         class="fil10"
         d="m -30.313852,-48.390223 c 1.80901,-2.3325 1.47399,-5.949201 0.10001,-6.929199 l -4.958,-3.538401 c -1.37401,-0.98 -4.284,0.3735 -5.095,3.365501 -4.40402,16.257402 0.98599,18.664801 9.95299,7.102099 z"
         id="path9916"
         style="clip-rule:evenodd;fill:#990000;fill-rule:evenodd;stroke-width:0.00268817;image-rendering:optimizeQuality;shape-rendering:geometricPrecision;text-rendering:geometricPrecision" />
      <path
         class="fil15"
         d="m -20.324852,-70.659724 v 0 c 0,1.963699 1.60599,3.570399 3.56999,3.570399 h 4.22 c 1.964,0 3.57002,-1.6067 3.57002,-3.570399 v 0 c 0,-1.963901 -1.60602,-3.570601 -3.57002,-3.570601 h -4.22 c -1.964,0 -3.56999,1.6067 -3.56999,3.570601 z"
         id="path9918"
         style="clip-rule:evenodd;fill:#ffb973;fill-rule:evenodd;stroke-width:0.00268817;image-rendering:optimizeQuality;shape-rendering:geometricPrecision;text-rendering:geometricPrecision" />
      <path
         class="fil60"
         d="m -15.791852,-55.870623 v 3.360499 c 0,1.463201 1.198,2.660401 2.66099,2.660401 h 6.11002 c 1.46299,0 2.65999,-1.1972 2.65999,-2.660401 v -3.360499 c 0,-1.4633 -1.197,-2.6604 -2.65999,-2.6604 h -6.11002 c -1.46299,0 -2.66099,1.1971 -2.66099,2.6604 z"
         id="path9920"
         style="clip-rule:evenodd;fill:#663399;fill-rule:evenodd;stroke-width:0.00268817;image-rendering:optimizeQuality;shape-rendering:geometricPrecision;text-rendering:geometricPrecision" />
      <path
         class="fil60"
         d="m -15.791852,-66.442224 v 3.3605 c 0,1.4632 1.198,2.6604 2.66099,2.6604 h 6.11002 c 1.46299,0 2.65999,-1.1972 2.65999,-2.6604 v -3.3605 c 0,-1.4632 -1.197,-2.660401 -2.65999,-2.660401 h -6.11002 c -1.46299,0 -2.66099,1.197201 -2.66099,2.660401 z"
         id="path9922"
         style="clip-rule:evenodd;fill:#663399;fill-rule:evenodd;stroke-width:0.00268817;image-rendering:optimizeQuality;shape-rendering:geometricPrecision;text-rendering:geometricPrecision" />
      <path
         class="fil61"
         d="m -39.196842,-63.673224 v 9.725402 c 0,5.1807 4.23899,9.419399 9.41999,9.419399 h 11.82401 c 5.18099,0 9.41999,-4.238699 9.41999,-9.419399 v -9.725402 c 0,-5.180701 -4.239,-9.419401 -9.41999,-9.419401 h -11.82401 c -5.181,0 -9.41999,4.2387 -9.41999,9.419401 z"
         id="path9924"
         style="clip-rule:evenodd;fill:#ffcc99;fill-rule:evenodd;stroke-width:0.00268817;image-rendering:optimizeQuality;shape-rendering:geometricPrecision;text-rendering:geometricPrecision" />
      <path
         class="fil62"
         d="m -39.183852,-56.993724 v 3.071802 c 0,5.1807 4.24601,9.419399 9.43501,9.419399 h 11.79299 c 5.189,0 9.43501,-4.238699 9.43501,-9.419399 v -2.7398 c -1.73201,1.9578 -4.26201,3.197799 -7.068,3.197799 h -16.246 c -2.96201,0 -5.61602,-1.381199 -7.34901,-3.529801 z"
         id="path9926"
         style="clip-rule:evenodd;fill:#b3a4b6;fill-rule:evenodd;stroke-width:0.00268817;image-rendering:optimizeQuality;shape-rendering:geometricPrecision;text-rendering:geometricPrecision" />
      <path
         class="fil62"
         d="m -39.159852,-61.073024 v -2.6884 c 0,-5.180701 4.246,-9.419401 9.43599,-9.419401 h 11.79301 c 5.18901,0 9.43501,4.2387 9.43501,9.419401 v 2.6884 c 0,-5.1807 -4.246,-9.4194 -9.43501,-9.4194 h -11.79301 c -5.18999,0 -9.43599,4.2387 -9.43599,9.4194 z"
         id="path9928"
         style="clip-rule:evenodd;fill:#b3a4b6;fill-rule:evenodd;stroke-width:0.00268817;image-rendering:optimizeQuality;shape-rendering:geometricPrecision;text-rendering:geometricPrecision" />
      <path
         class="fil10"
         d="m -28.853862,-41.222721 c 2.99601,1.1172 5.788,-2.701301 5.788,-6.002901 v -11.921102 c 0,-3.3016 -2.83599,-7.2386 -5.788,-6.0029 -16.03898,6.714201 -14.84899,18.388502 0,23.926903 z"
         id="path9930"
         style="clip-rule:evenodd;fill:#990000;fill-rule:evenodd;stroke-width:0.00268817;image-rendering:optimizeQuality;shape-rendering:geometricPrecision;text-rendering:geometricPrecision" />
      <path
         class="fil15"
         d="m -16.600842,-65.561924 v 8.569401 c 0,1.123299 0.919,2.042401 2.042,2.042401 v 0 c 1.124,0 2.04301,-0.919102 2.04301,-2.042401 v -8.569401 c 0,-1.1234 -0.91901,-2.042401 -2.04301,-2.042401 v 0 c -1.123,0 -2.042,0.919001 -2.042,2.042401 z"
         id="path9932"
         style="clip-rule:evenodd;fill:#ffb973;fill-rule:evenodd;stroke-width:0.00268817;image-rendering:optimizeQuality;shape-rendering:geometricPrecision;text-rendering:geometricPrecision" />
      <path
         class="fil15"
         d="m -12.121842,-63.504624 v 5.627101 c 0,0.737601 0.60399,1.341099 1.34199,1.341099 v 0 c 0.737,0 1.34101,-0.603498 1.34101,-1.341099 v -5.627101 c 0,-0.7376 -0.60401,-1.3411 -1.34101,-1.3411 v 0 c -0.738,0 -1.34199,0.6035 -1.34199,1.3411 z"
         id="path9934"
         style="clip-rule:evenodd;fill:#ffb973;fill-rule:evenodd;stroke-width:0.00268817;image-rendering:optimizeQuality;shape-rendering:geometricPrecision;text-rendering:geometricPrecision" />
      <path
         class="fil37"
         d="m -39.229862,-63.737824 v 9.725401 c 0,5.1807 4.24601,9.3399 9.43501,9.4195 l 5.90201,0.0904 -0.006,-9.083701 c 5.496,-0.438999 9.004,-10.043 10.048,-18.662401 -3.82201,-1.86 -10.467,-0.9086 -15.94401,-0.9086 -5.189,0 -9.43501,4.2387 -9.43501,9.419401 z"
         id="path9936"
         style="clip-rule:evenodd;fill:#cc3300;fill-rule:evenodd;stroke-width:0.00268817;image-rendering:optimizeQuality;shape-rendering:geometricPrecision;text-rendering:geometricPrecision" />
      <path
         class="fil10"
         d="m -39.306862,-57.092824 v 3.164401 c 0,5.337 4.27602,9.613302 9.50101,9.703501 l 5.91301,0.1021 0.844,-9.341101 -0.83601,-0.1235 -8.02201,0.1309 c -2.98198,0.0487 -5.65499,-1.4229 -7.4,-3.636301 z"
         id="path9938"
         style="clip-rule:evenodd;fill:#990000;fill-rule:evenodd;stroke-width:0.00268817;image-rendering:optimizeQuality;shape-rendering:geometricPrecision;text-rendering:geometricPrecision" />
      <path
         class="fil61"
         d="m -32.993842,-56.588724 v -11.675801 c 0,-2.622799 2.146,-4.7687 4.769,-4.7687 v 0 c 2.623,0 4.76899,2.145901 4.76899,4.7687 v 11.675801 c 0,2.622802 -2.14599,4.768702 -4.76899,4.768702 v 0 c -2.623,0 -4.769,-2.1459 -4.769,-4.768702 z"
         id="path9940"
         style="clip-rule:evenodd;fill:#ffcc99;fill-rule:evenodd;stroke-width:0.00268817;image-rendering:optimizeQuality;shape-rendering:geometricPrecision;text-rendering:geometricPrecision" />
      <path
         class="fil4"
         d="m -13.823862,-79.920126 v 35.609503 c 0,0.751102 0.615,1.365602 1.36602,1.365602 v 0 c 0.751,0 1.36599,-0.6145 1.36599,-1.365602 v -35.609503 c 0,-0.7511 -0.61499,-1.3656 -1.36599,-1.3656 v 0 c -0.75102,0 -1.36602,0.6145 -1.36602,1.3656 z"
         id="path9942"
         style="clip-rule:evenodd;fill:#996633;fill-rule:evenodd;stroke-width:0.00268817;image-rendering:optimizeQuality;shape-rendering:geometricPrecision;text-rendering:geometricPrecision" />
      <path
         class="fil29"
         d="m -12.088852,-42.992022 c 0.57301,-0.1729 0.996,-0.736999 0.996,-1.4014 v -35.428703 c 0,-0.694001 -0.46099,-1.278501 -1.07299,-1.422101 0.05,0.1509 0.077,0.313 0.077,0.4816 z"
         id="path9944"
         style="clip-rule:evenodd;fill:#813d09;fill-rule:evenodd;stroke-width:0.00268817;image-rendering:optimizeQuality;shape-rendering:geometricPrecision;text-rendering:geometricPrecision" />
      <path
         class="fil64"
         d="m -11.580852,-79.480825 h -4.64 c -1.37599,0 -2.50301,1.126 -2.50301,2.5024 v 0 c 0,1.3764 1.12702,2.5024 2.50301,2.5024 h 4.64 c 1.37599,0 2.50201,-1.126 2.50201,-2.5024 v 0 c 0,-1.3764 -1.12602,-2.5024 -2.50201,-2.5024 z"
         id="path9946"
         style="clip-rule:evenodd;fill:#b3b3b3;fill-rule:evenodd;stroke-width:0.00268817;image-rendering:optimizeQuality;shape-rendering:geometricPrecision;text-rendering:geometricPrecision" />
      <path
         class="fil64"
         d="m -9.852862,-80.030526 -5.349,2.392501 5.349,3.7317 c 1.25302,0.8745 1.22502,2.903701 2.72302,2.903701 v 0 c 1.49799,0 2.72301,-1.306701 2.72301,-2.903701 v -6.124201 c 0,-1.5971 -1.22502,-2.9037 -2.72301,-2.9037 v 0 c -1.498,0 -1.342,2.2859 -2.72302,2.9037 z"
         id="path9948"
         style="clip-rule:evenodd;fill:#b3b3b3;fill-rule:evenodd;stroke-width:0.00268817;image-rendering:optimizeQuality;shape-rendering:geometricPrecision;text-rendering:geometricPrecision" />
      <path
         class="fil5"
         d="m -7.641842,-71.054724 c 0.166,0.034 0.337,0.0521 0.512,0.0521 v 0 c 1.49799,0 2.72301,-1.306701 2.72301,-2.903701 v -6.124201 c 0,-1.5971 -1.22502,-2.9037 -2.72301,-2.9037 v 0 c -0.175,0 -0.346,0.0181 -0.512,0.0521 1.255,0.2573 2.21099,1.441 2.21099,2.8516 v 6.124201 c 0,1.4105 -0.95599,2.5943 -2.21099,2.851601 z"
         id="path9950"
         style="clip-rule:evenodd;fill:#cccccc;fill-rule:evenodd;stroke-width:0.00268817;image-rendering:optimizeQuality;shape-rendering:geometricPrecision;text-rendering:geometricPrecision" />
      <path
         class="fil61"
         d="m -20.291862,-47.988824 v 0 c 0,1.963801 1.60703,3.570502 3.57002,3.570502 h 4.22 c 1.964,0 3.571,-1.606701 3.571,-3.570502 v 0 c 0,-1.963798 -1.607,-3.570499 -3.571,-3.570499 h -4.22 c -1.96299,0 -3.57002,1.606701 -3.57002,3.570499 z"
         id="path9952"
         style="clip-rule:evenodd;fill:#ffcc99;fill-rule:evenodd;stroke-width:0.00268817;image-rendering:optimizeQuality;shape-rendering:geometricPrecision;text-rendering:geometricPrecision" />
      <path
         class="fil18"
         d="m -31.237862,-70.054625 v 0 c -0.37698,0.3774 -0.37698,0.9949 0,1.3722 l 5.38102,5.380601 c 0.377,0.3774 0.99499,0.3774 1.372,0 v 0 c 0.377,-0.3774 0.377,-0.9949 0,-1.3722 l -5.38102,-5.380601 c -0.37698,-0.3774 -0.99399,-0.3774 -1.372,0 z"
         id="path9954"
         style="clip-rule:evenodd;fill:#333333;fill-rule:evenodd;stroke-width:0.00268817;image-rendering:optimizeQuality;shape-rendering:geometricPrecision;text-rendering:geometricPrecision" />
      <path
         class="fil18"
         d="m -31.237862,-63.301824 v 0 c -0.37698,-0.3773 -0.37698,-0.9948 0,-1.3722 l 5.38102,-5.380601 c 0.377,-0.3773 0.99499,-0.3773 1.372,0 v 0 c 0.377,0.3774 0.377,0.9949 0,1.3722 l -5.38102,5.380601 c -0.37698,0.3774 -0.99399,0.3774 -1.372,0 z"
         id="path9956"
         style="clip-rule:evenodd;fill:#333333;fill-rule:evenodd;stroke-width:0.00268817;image-rendering:optimizeQuality;shape-rendering:geometricPrecision;text-rendering:geometricPrecision" />
      <path
         class="fil18"
         d="m -31.237862,-60.622824 v 0 c -0.37698,0.3774 -0.37698,0.994901 0,1.3723 l 5.38102,5.3805 c 0.377,0.377401 0.99499,0.377401 1.372,0 v 0 c 0.377,-0.377399 0.377,-0.9949 0,-1.372198 l -5.38102,-5.380602 c -0.37698,-0.3774 -0.99399,-0.3774 -1.372,0 z"
         id="path9958"
         style="clip-rule:evenodd;fill:#333333;fill-rule:evenodd;stroke-width:0.00268817;image-rendering:optimizeQuality;shape-rendering:geometricPrecision;text-rendering:geometricPrecision" />
      <path
         class="fil18"
         d="m -31.237862,-53.870024 v 0 c -0.37698,-0.377299 -0.37698,-0.994799 0,-1.372198 l 5.38102,-5.380602 c 0.377,-0.3773 0.99499,-0.3773 1.372,0 v 0 c 0.377,0.3774 0.377,0.994901 0,1.3723 l -5.38102,5.3805 c -0.37698,0.377401 -0.99399,0.377401 -1.372,0 z"
         id="path9960"
         style="clip-rule:evenodd;fill:#333333;fill-rule:evenodd;stroke-width:0.00268817;image-rendering:optimizeQuality;shape-rendering:geometricPrecision;text-rendering:geometricPrecision" />
    </g>
  </g>
</svg>
