<?xml version="1.0" encoding="UTF-8" standalone="no"?>
<svg
   xmlns:dc="http://purl.org/dc/elements/1.1/"
   xmlns:cc="http://creativecommons.org/ns#"
   xmlns:rdf="http://www.w3.org/1999/02/22-rdf-syntax-ns#"
   xmlns:svg="http://www.w3.org/2000/svg"
   xmlns="http://www.w3.org/2000/svg"
   xmlns:sodipodi="http://sodipodi.sourceforge.net/DTD/sodipodi-0.dtd"
   xmlns:inkscape="http://www.inkscape.org/namespaces/inkscape"
   width="1024"
   height="1024"
   viewBox="0 0 270.9333 270.9333"
   version="1.1"
   id="svg3565"
   inkscape:version="1.0.1 (3bc2e813f5, 2020-09-07)"
   sodipodi:docname="кайот.svg"
   inkscape:export-filename="C:\Users\Kolobok\Desktop\проекты\Рыцарь\knightframes.png"
   inkscape:export-xdpi="96.00001"
   inkscape:export-ydpi="96.00001">
  <title
     id="title4661">Тайл размером 256x256</title>
  <defs
     id="defs3559" />
  <sodipodi:namedview
     id="base"
     pagecolor="#ffffff"
     bordercolor="#666666"
     borderopacity="1.0"
     inkscape:pageopacity="0.0"
     inkscape:pageshadow="2"
     inkscape:zoom="0.69999999"
     inkscape:cx="517.7243"
     inkscape:cy="161.29731"
     inkscape:document-units="mm"
     inkscape:current-layer="layer1"
     showgrid="true"
     units="px"
     width="256px"
     inkscape:snap-global="false"
     inkscape:document-rotation="0"
     inkscape:window-width="1920"
     inkscape:window-height="1017"
     inkscape:window-x="-8"
     inkscape:window-y="-8"
     inkscape:window-maximized="1">
    <inkscape:grid
       type="xygrid"
       id="grid5244"
       units="px"
       spacingx="67.73332"
       spacingy="67.73332"
       empspacing="1" />
    <inkscape:grid
       type="xygrid"
       id="grid8949"
       color="#e33fff"
       opacity="0.1254902"
       empcolor="#e33fff"
       empopacity="0.2509804"
       units="px"
       spacingx="33.86666"
       spacingy="33.86666"
       empspacing="8" />
  </sodipodi:namedview>
  <metadata
     id="metadata3562">
    <rdf:RDF>
      <cc:Work
         rdf:about="">
        <dc:format>image/svg+xml</dc:format>
        <dc:type
           rdf:resource="http://purl.org/dc/dcmitype/StillImage" />
        <dc:title>Тайл размером 256x256</dc:title>
      </cc:Work>
    </rdf:RDF>
  </metadata>
  <g
     inkscape:label="Layer 1"
     inkscape:groupmode="layer"
     id="layer1"
     transform="translate(0,-26.0667)">
    <g
       id="g1264"
       transform="translate(20.792018,85.739473)">
      <path
         class="fil1"
         d="m 148.65292,-5.9202683 v 0 c 0.072,-3.373399 -2.579,-6.1935987 -5.892,-6.2670987 -5.125,-0.1138 -15.483,2.1588 -15.524,5.7914997 -0.039,3.374001 2.579,6.19360199 5.892,6.26720099 l 9.369,0.2081 c 3.313,0.0735 6.083,-2.62630099 6.155,-5.99970199 z"
         id="path3768"
         style="clip-rule:evenodd;fill:#803d22;fill-rule:evenodd;stroke-width:0.00268817;image-rendering:optimizeQuality;shape-rendering:geometricPrecision;text-rendering:geometricPrecision" />
      <path
         class="fil0"
         d="m 128.37492,-2.6821673 c 1.082,1.624301 2.907,2.69940099 4.969,2.70590099 l 9.372,0.0295 c 2.063,0.0064 3.894,-1.05719899 4.987,-2.67459899 -7.774,0.697201 -11.564,0.722699 -19.328,-0.0608 z"
         id="path3770"
         style="clip-rule:evenodd;fill:#af5e31;fill-rule:evenodd;stroke-width:0.00268817;image-rendering:optimizeQuality;shape-rendering:geometricPrecision;text-rendering:geometricPrecision" />
      <path
         class="fil1"
         d="m 162.31892,-30.568374 v 0 c -1.95,0 -3.546,1.595501 -3.546,3.545701 v 4.377301 c 0,1.9502 1.596,3.545804 3.546,3.545804 v 0 c 1.95001,0 3.54601,-1.595604 3.54601,-3.545804 v -4.377301 c 0,-1.9502 -1.596,-3.545701 -3.54601,-3.545701 z"
         id="path3772"
         style="clip-rule:evenodd;fill:#803d22;fill-rule:evenodd;stroke-width:0.00268817;image-rendering:optimizeQuality;shape-rendering:geometricPrecision;text-rendering:geometricPrecision" />
      <path
         class="fil26"
         d="m 159.39592,-2.1586653 h -2.39 c -1.041,0 -1.893,0.851598 -1.893,1.89259899 V 4.2153347 c 0,1.041 0.852,1.892699 1.893,1.892699 h 2.39 c 1.04101,0 1.89301,-0.851699 1.89301,-1.892699 v -4.48140101 c 0,-1.04100099 -0.852,-1.89259899 -1.89301,-1.89259899 z"
         id="path3774"
         style="clip-rule:evenodd;fill:#4f2615;fill-rule:evenodd;stroke-width:0.00268817;image-rendering:optimizeQuality;shape-rendering:geometricPrecision;text-rendering:geometricPrecision" />
      <path
         class="fil26"
         d="m 151.57692,-2.1586653 h -2.391 c -1.041,0 -1.892,0.851598 -1.892,1.89259899 V 4.2153347 c 0,1.041 0.851,1.892699 1.892,1.892699 h 2.391 c 1.041,0 1.893,-0.851699 1.893,-1.892699 v -4.48140101 c 0,-1.04100099 -0.852,-1.89259899 -1.893,-1.89259899 z"
         id="path3776"
         style="clip-rule:evenodd;fill:#4f2615;fill-rule:evenodd;stroke-width:0.00268817;image-rendering:optimizeQuality;shape-rendering:geometricPrecision;text-rendering:geometricPrecision" />
      <path
         class="fil1"
         d="m 167.73292,-6.8820683 v -9.8343997 c 0,-5.238804 -4.28699,-9.525105 -9.525,-9.525105 h -11.35 c -5.239,0 -9.525,4.286301 -9.525,9.525105 v 9.8343997 c 0,5.238702 4.286,9.525003 9.525,9.525003 h 11.35 c 5.23801,0 9.525,-4.286301 9.525,-9.525003 z"
         id="path3778"
         style="clip-rule:evenodd;fill:#803d22;fill-rule:evenodd;stroke-width:0.00268817;image-rendering:optimizeQuality;shape-rendering:geometricPrecision;text-rendering:geometricPrecision" />
      <path
         class="fil0"
         d="m 159.36293,2.5089337 v 0 c 0,-1.74019901 -1.74201,-3.16399901 -3.87201,-3.16399901 h -6.024 c -2.13,0 -3.872,1.4238 -3.872,3.16399901 v 0 c 0,0.0356 0.001,0.0709 0.002,0.106201 h 13.764 c 0.001,-0.0353 0.002,-0.0706 0.002,-0.106201 z"
         id="path3780"
         style="clip-rule:evenodd;fill:#af5e31;fill-rule:evenodd;stroke-width:0.00268817;image-rendering:optimizeQuality;shape-rendering:geometricPrecision;text-rendering:geometricPrecision" />
      <path
         class="fil36"
         d="m 145.22692,-0.45916731 h -2.462 c -1.072,0 -1.949,0.877001 -1.949,1.94890201 v 4.614601 c 0,1.071898 0.877,1.948799 1.949,1.948799 h 2.462 c 1.072,0 1.949,-0.876901 1.949,-1.948799 v -4.614601 c 0,-1.07190101 -0.877,-1.94890201 -1.949,-1.94890201 z"
         id="path3782"
         style="clip-rule:evenodd;fill:#cc7643;fill-rule:evenodd;stroke-width:0.00268817;image-rendering:optimizeQuality;shape-rendering:geometricPrecision;text-rendering:geometricPrecision" />
      <path
         class="fil36"
         d="m 152.97092,-0.45916731 h -2.462 c -1.072,0 -1.948,0.877001 -1.948,1.94890201 v 4.614601 c 0,1.071898 0.876,1.948799 1.948,1.948799 h 2.462 c 1.072,0 1.949,-0.876901 1.949,-1.948799 v -4.614601 c 0,-1.07190101 -0.877,-1.94890201 -1.949,-1.94890201 z"
         id="path3784"
         style="clip-rule:evenodd;fill:#cc7643;fill-rule:evenodd;stroke-width:0.00268817;image-rendering:optimizeQuality;shape-rendering:geometricPrecision;text-rendering:geometricPrecision" />
      <path
         class="fil0"
         d="m 154.61892,-18.437768 h 10.39601 c 1.441,0 2.62,1.1791 2.62,2.6202 v 4.387701 c 0,1.4411997 -1.179,2.6202997 -2.62,2.6202997 h -10.39601 c -1.442,0 -2.621,-1.1791 -2.621,-2.6202997 v -4.387701 c 0,-1.4411 1.179,-2.6202 2.621,-2.6202 z"
         id="path3786"
         style="clip-rule:evenodd;fill:#af5e31;fill-rule:evenodd;stroke-width:0.00268817;image-rendering:optimizeQuality;shape-rendering:geometricPrecision;text-rendering:geometricPrecision" />
      <path
         class="fil18"
         d="m 156.28392,-15.309168 v 0 c 1.00301,0 1.824,0.8208 1.824,1.824 v 2.251601 c 0,1.0032 -0.82099,1.8239997 -1.824,1.8239997 v 0 c -1.003,0 -1.824,-0.8207997 -1.824,-1.8239997 v -2.251601 c 0,-1.0032 0.821,-1.824 1.824,-1.824 z"
         id="path3788"
         style="clip-rule:evenodd;fill:#333333;fill-rule:evenodd;stroke-width:0.00268817;image-rendering:optimizeQuality;shape-rendering:geometricPrecision;text-rendering:geometricPrecision" />
      <path
         class="fil18"
         d="m 165.07393,-15.302968 v 0 c 0.939,0 1.70799,0.7689 1.70799,1.708801 v 2.1095 c 0,0.9399 -0.76899,1.7087997 -1.70799,1.7087997 v 0 c -0.94001,0 -1.709,-0.7688997 -1.709,-1.7087997 v -2.1095 c 0,-0.939901 0.76899,-1.708801 1.709,-1.708801 z"
         id="path3790"
         style="clip-rule:evenodd;fill:#333333;fill-rule:evenodd;stroke-width:0.00268817;image-rendering:optimizeQuality;shape-rendering:geometricPrecision;text-rendering:geometricPrecision" />
      <path
         class="fil39"
         d="m 170.24693,-3.5974673 v -1.840701 c 0,-1.9079 -1.56101,-3.468899 -3.469,-3.468899 h -6.26001 c -1.908,0 -3.469,1.560999 -3.469,3.468899 v 1.840701 c 0,1.908 1.561,3.46899999 3.469,3.46899999 h 6.26001 c 1.90799,0 3.469,-1.56099999 3.469,-3.46899999 z"
         id="path3792"
         style="clip-rule:evenodd;fill:#924c2a;fill-rule:evenodd;stroke-width:0.00268817;image-rendering:optimizeQuality;shape-rendering:geometricPrecision;text-rendering:geometricPrecision" />
      <path
         class="fil11"
         d="m 167.69793,-7.0074673 v -0.920401 c 0,-0.953899 -0.781,-1.734399 -1.735,-1.734399 h -3.13 c -0.954,0 -1.734,0.7805 -1.734,1.734399 v 0.920401 c 0,0.954 0.78,1.7345 1.734,1.7345 h 3.13 c 0.954,0 1.735,-0.7805 1.735,-1.7345 z"
         id="path3794"
         style="clip-rule:evenodd;fill:#663333;fill-rule:evenodd;stroke-width:0.00268817;image-rendering:optimizeQuality;shape-rendering:geometricPrecision;text-rendering:geometricPrecision" />
      <path
         class="fil11"
         d="m 166.73593,-1.8979663 v 0 c 0,-0.496501 -0.406,-0.9026 -0.90301,-0.9026 h -2.227 c -0.49599,0 -0.90299,0.406099 -0.90299,0.9026 v 0 c 0,0.496501 0.407,0.90259899 0.90299,0.90259899 h 2.227 c 0.49701,0 0.90301,-0.40609799 0.90301,-0.90259899 z"
         id="path3796"
         style="clip-rule:evenodd;fill:#663333;fill-rule:evenodd;stroke-width:0.00268817;image-rendering:optimizeQuality;shape-rendering:geometricPrecision;text-rendering:geometricPrecision" />
      <path
         class="fil0"
         d="m 151.44492,-16.237068 v 0 c 0,-1.6491 -1.35,-2.9982 -2.999,-2.9982 h -4.472 c -1.649,0 -2.998,1.3491 -2.998,2.9982 v 0 c 0,1.649 1.349,2.998101 2.998,2.998101 h 4.472 c 1.649,0 2.999,-1.349101 2.999,-2.998101 z"
         id="path3798"
         style="clip-rule:evenodd;fill:#af5e31;fill-rule:evenodd;stroke-width:0.00268817;image-rendering:optimizeQuality;shape-rendering:geometricPrecision;text-rendering:geometricPrecision" />
      <path
         class="fil0"
         d="m 145.78992,-9.1079673 v 0 c 0,-1.1291997 -0.924,-2.0529997 -2.053,-2.0529997 h -3.063 c -1.129,0 -2.053,0.9238 -2.053,2.0529997 v 0 c 0,1.129201 0.924,2.052999 2.053,2.052999 h 3.063 c 1.129,0 2.053,-0.923798 2.053,-2.052999 z"
         id="path3800"
         style="clip-rule:evenodd;fill:#af5e31;fill-rule:evenodd;stroke-width:0.00268817;image-rendering:optimizeQuality;shape-rendering:geometricPrecision;text-rendering:geometricPrecision" />
      <path
         class="fil1"
         d="m 154.70392,-31.194174 v 0 c -1.95,0 -3.546,1.595601 -3.546,3.545801 v 4.3773 c 0,1.9502 1.596,3.545801 3.546,3.545801 v 0 c 1.95,0 3.546,-1.595601 3.546,-3.545801 v -4.3773 c 0,-1.9502 -1.596,-3.545801 -3.546,-3.545801 z"
         id="path3802"
         style="clip-rule:evenodd;fill:#803d22;fill-rule:evenodd;stroke-width:0.00268817;image-rendering:optimizeQuality;shape-rendering:geometricPrecision;text-rendering:geometricPrecision" />
      <path
         class="fil0"
         d="m 154.70392,-29.756473 v 0 c -1.461,0 -2.657,1.2174 -2.657,2.7054 v 1.9081 c 0,0.6768 2.025,0.8126 2.638,0.8175 0.685,0.0054 2.676,-0.1012 2.676,-0.8883 v -1.8373 c 0,-1.488 -1.196,-2.7054 -2.657,-2.7054 z"
         id="path3804"
         style="clip-rule:evenodd;fill:#af5e31;fill-rule:evenodd;stroke-width:0.00268817;image-rendering:optimizeQuality;shape-rendering:geometricPrecision;text-rendering:geometricPrecision" />
    </g>
    <g
       id="g1201"
       transform="translate(-5.2117559,6.4812861)">
      <path
         class="fil1"
         d="m 38.948591,141.07797 v 0 c 0.072,-3.3734 -2.58001,-6.19359 -5.89201,-6.26709 -5.12601,-0.1138 -15.484,2.1588 -15.52501,5.79149 -0.038,3.37401 2.579,6.19361 5.89201,6.26721 l 9.37,0.2081 c 3.31301,0.0735 6.08201,-2.62631 6.15501,-5.99971 z"
         id="path7970"
         style="clip-rule:evenodd;fill:#803d22;fill-rule:evenodd;stroke-width:0.00268817;image-rendering:optimizeQuality;shape-rendering:geometricPrecision;text-rendering:geometricPrecision" />
      <path
         class="fil0"
         d="m 18.669571,144.31607 c 1.08302,1.62431 2.90801,2.69941 4.97001,2.70591 l 9.37199,0.0295 c 2.06201,0.006 3.89401,-1.0572 4.986,-2.6746 -7.77299,0.6972 -11.56298,0.7227 -19.328,-0.0608 z"
         id="path7972"
         style="clip-rule:evenodd;fill:#af5e31;fill-rule:evenodd;stroke-width:0.00268817;image-rendering:optimizeQuality;shape-rendering:geometricPrecision;text-rendering:geometricPrecision" />
      <path
         class="fil1"
         d="m 52.614581,116.42987 v 0 c -1.95001,0 -3.546,1.5955 -3.546,3.5457 v 4.3773 c 0,1.9502 1.59599,3.5458 3.546,3.5458 v 0 c 1.95,0 3.546,-1.5956 3.546,-3.5458 v -4.3773 c 0,-1.9502 -1.596,-3.5457 -3.546,-3.5457 z"
         id="path7974"
         style="clip-rule:evenodd;fill:#803d22;fill-rule:evenodd;stroke-width:0.00268817;image-rendering:optimizeQuality;shape-rendering:geometricPrecision;text-rendering:geometricPrecision" />
      <path
         class="fil26"
         d="m 49.691571,146.79314 h -2.39099 c -1.041,0 -1.89201,0.85169 -1.89201,1.8927 v 4.4814 c 0,1.041 0.85101,1.8926 1.89201,1.8926 h 2.39099 c 1.041,0 1.89301,-0.8516 1.89301,-1.8926 v -4.4814 c 0,-1.04101 -0.85201,-1.8927 -1.89301,-1.8927 z"
         id="path7976"
         style="clip-rule:evenodd;fill:#4f2615;fill-rule:evenodd;stroke-width:0.00268817;image-rendering:optimizeQuality;shape-rendering:geometricPrecision;text-rendering:geometricPrecision" />
      <path
         class="fil26"
         d="m 41.872581,146.79314 h -2.39099 c -1.041,0 -1.89302,0.85169 -1.89302,1.8927 v 4.4814 c 0,1.041 0.85202,1.8926 1.89302,1.8926 h 2.39099 c 1.041,0 1.892,-0.8516 1.892,-1.8926 v -4.4814 c 0,-1.04101 -0.851,-1.8927 -1.892,-1.8927 z"
         id="path7978"
         style="clip-rule:evenodd;fill:#4f2615;fill-rule:evenodd;stroke-width:0.00268817;image-rendering:optimizeQuality;shape-rendering:geometricPrecision;text-rendering:geometricPrecision" />
      <path
         class="fil1"
         d="m 58.027581,140.11617 v -9.8344 c 0,-5.2388 -4.28601,-9.5251 -9.525,-9.5251 h -11.35001 c -5.23899,0 -9.525,4.2863 -9.525,9.5251 v 9.8344 c 0,5.23871 4.28601,9.52501 9.525,9.52501 h 11.35001 c 5.23899,0 9.525,-4.2863 9.525,-9.52501 z"
         id="path7980"
         style="clip-rule:evenodd;fill:#803d22;fill-rule:evenodd;stroke-width:0.00268817;image-rendering:optimizeQuality;shape-rendering:geometricPrecision;text-rendering:geometricPrecision" />
      <path
         class="fil0"
         d="m 49.658571,149.50718 v 0 c 0,-1.7402 -1.74199,-3.164 -3.87199,-3.164 h -6.024 c -2.13001,0 -3.872,1.4238 -3.872,3.164 v 0 c 0,0.0356 0,0.0709 0.003,0.1062 h 13.76402 c 0,-0.0353 0.003,-0.0706 0.003,-0.1062 z"
         id="path7982"
         style="clip-rule:evenodd;fill:#af5e31;fill-rule:evenodd;stroke-width:0.00268817;image-rendering:optimizeQuality;shape-rendering:geometricPrecision;text-rendering:geometricPrecision" />
      <path
         class="fil36"
         d="m 35.522581,146.53907 h -2.46201 c -1.07198,0 -1.949,0.87701 -1.949,1.94891 v 4.6146 c 0,1.0719 0.87702,1.9488 1.949,1.9488 h 2.46201 c 1.07201,0 1.94799,-0.8769 1.94799,-1.9488 v -4.6146 c 0,-1.0719 -0.87598,-1.94891 -1.94799,-1.94891 z"
         id="path7984"
         style="clip-rule:evenodd;fill:#cc7643;fill-rule:evenodd;stroke-width:0.00268817;image-rendering:optimizeQuality;shape-rendering:geometricPrecision;text-rendering:geometricPrecision" />
      <path
         class="fil36"
         d="m 43.266591,146.53907 h -2.46201 c -1.07201,0 -1.949,0.87701 -1.949,1.94891 v 4.6146 c 0,1.0719 0.87699,1.9488 1.949,1.9488 h 2.46201 c 1.07198,0 1.949,-0.8769 1.949,-1.9488 v -4.6146 c 0,-1.0719 -0.87702,-1.94891 -1.949,-1.94891 z"
         id="path7986"
         style="clip-rule:evenodd;fill:#cc7643;fill-rule:evenodd;stroke-width:0.00268817;image-rendering:optimizeQuality;shape-rendering:geometricPrecision;text-rendering:geometricPrecision" />
      <path
         class="fil0"
         d="m 44.913591,128.56047 h 10.39699 c 1.441,0 2.62001,1.1791 2.62001,2.6202 v 4.38771 c 0,1.44119 -1.17901,2.62029 -2.62001,2.62029 h -10.39699 c -1.441,0 -2.62001,-1.1791 -2.62001,-2.62029 v -4.38771 c 0,-1.4411 1.17901,-2.6202 2.62001,-2.6202 z"
         id="path7988"
         style="clip-rule:evenodd;fill:#af5e31;fill-rule:evenodd;stroke-width:0.00268817;image-rendering:optimizeQuality;shape-rendering:geometricPrecision;text-rendering:geometricPrecision" />
      <path
         class="fil18"
         d="m 46.579591,131.68907 v 0 c 1.00298,0 1.82399,0.8208 1.82399,1.824 v 2.25161 c 0,1.0032 -0.82101,1.82399 -1.82399,1.82399 v 0 c -1.00401,0 -1.82401,-0.82079 -1.82401,-1.82399 v -2.25161 c 0,-1.0032 0.82,-1.824 1.82401,-1.824 z"
         id="path7990"
         style="clip-rule:evenodd;fill:#333333;fill-rule:evenodd;stroke-width:0.00268817;image-rendering:optimizeQuality;shape-rendering:geometricPrecision;text-rendering:geometricPrecision" />
      <path
         class="fil18"
         d="m 55.368571,131.69527 v 0 c 0.94002,0 1.709,0.7689 1.709,1.70881 v 2.1095 c 0,0.9399 -0.76898,1.70879 -1.709,1.70879 v 0 c -0.93998,0 -1.70899,-0.76889 -1.70899,-1.70879 v -2.1095 c 0,-0.93991 0.76901,-1.70881 1.70899,-1.70881 z"
         id="path7992"
         style="clip-rule:evenodd;fill:#333333;fill-rule:evenodd;stroke-width:0.00268817;image-rendering:optimizeQuality;shape-rendering:geometricPrecision;text-rendering:geometricPrecision" />
      <path
         class="fil39"
         d="m 60.542581,143.40077 v -1.8407 c 0,-1.9079 -1.56099,-3.4689 -3.469,-3.4689 h -6.261 c -1.90799,0 -3.469,1.561 -3.469,3.4689 v 1.8407 c 0,1.908 1.56101,3.469 3.469,3.469 h 6.261 c 1.90801,0 3.469,-1.561 3.469,-3.469 z"
         id="path7994"
         style="clip-rule:evenodd;fill:#924c2a;fill-rule:evenodd;stroke-width:0.00268817;image-rendering:optimizeQuality;shape-rendering:geometricPrecision;text-rendering:geometricPrecision" />
      <path
         class="fil11"
         d="m 57.992581,139.99077 v -0.9204 c 0,-0.9539 -0.77999,-1.7344 -1.734,-1.7344 h -3.12999 c -0.95401,0 -1.73501,0.7805 -1.73501,1.7344 v 0.9204 c 0,0.954 0.781,1.7345 1.73501,1.7345 h 3.12999 c 0.95401,0 1.734,-0.7805 1.734,-1.7345 z"
         id="path7996"
         style="clip-rule:evenodd;fill:#663333;fill-rule:evenodd;stroke-width:0.00268817;image-rendering:optimizeQuality;shape-rendering:geometricPrecision;text-rendering:geometricPrecision" />
      <path
         class="fil0"
         d="m 41.739571,130.76117 v 0 c 0,-1.6491 -1.34898,-2.9982 -2.99799,-2.9982 h -4.47199 c -1.64902,0 -2.999,1.3491 -2.999,2.9982 v 0 c 0,1.649 1.34998,2.99811 2.999,2.99811 h 4.47199 c 1.64901,0 2.99799,-1.34911 2.99799,-2.99811 z"
         id="path7998"
         style="clip-rule:evenodd;fill:#af5e31;fill-rule:evenodd;stroke-width:0.00268817;image-rendering:optimizeQuality;shape-rendering:geometricPrecision;text-rendering:geometricPrecision" />
      <path
         class="fil0"
         d="m 36.085581,137.89027 v 0 c 0,-1.12919 -0.924,-2.05299 -2.05301,-2.05299 h -3.063 c -1.129,0 -2.05298,0.9238 -2.05298,2.05299 v 0 c 0,1.12921 0.92398,2.053 2.05298,2.053 h 3.063 c 1.12901,0 2.05301,-0.92379 2.05301,-2.053 z"
         id="path8000"
         style="clip-rule:evenodd;fill:#af5e31;fill-rule:evenodd;stroke-width:0.00268817;image-rendering:optimizeQuality;shape-rendering:geometricPrecision;text-rendering:geometricPrecision" />
      <path
         class="fil1"
         d="m 44.998571,115.80407 v 0 c -1.95,0 -3.54499,1.5956 -3.54499,3.5458 v 4.3773 c 0,1.9502 1.59499,3.5458 3.54499,3.5458 v 0 c 1.95102,0 3.546,-1.5956 3.546,-3.5458 v -4.3773 c 0,-1.9502 -1.59498,-3.5458 -3.546,-3.5458 z"
         id="path8002"
         style="clip-rule:evenodd;fill:#803d22;fill-rule:evenodd;stroke-width:0.00268817;image-rendering:optimizeQuality;shape-rendering:geometricPrecision;text-rendering:geometricPrecision" />
      <path
         class="fil0"
         d="m 44.998571,117.24177 v 0 c -1.461,0 -2.65599,1.2174 -2.65599,2.7054 v 1.9081 c 0,0.6768 2.02499,0.8126 2.638,0.8175 0.68501,0.005 2.67499,-0.1012 2.67499,-0.8883 v -1.8373 c 0,-1.488 -1.19499,-2.7054 -2.657,-2.7054 z"
         id="path8004"
         style="clip-rule:evenodd;fill:#af5e31;fill-rule:evenodd;stroke-width:0.00268817;image-rendering:optimizeQuality;shape-rendering:geometricPrecision;text-rendering:geometricPrecision" />
      <path
         class="fil10"
         d="m 58.051581,144.71198 v -0.9016 c 0,-0.9346 -0.76401,-1.69921 -1.69899,-1.69921 h -3.22102 c -0.93498,0 -1.69899,0.76461 -1.69899,1.69921 v 0.9016 c 0,0.9346 0.76401,1.6991 1.69899,1.6991 h 3.22102 c 0.93498,0 1.69899,-0.7645 1.69899,-1.6991 z"
         id="path8006"
         style="clip-rule:evenodd;fill:#990000;fill-rule:evenodd;stroke-width:0.00268817;image-rendering:optimizeQuality;shape-rendering:geometricPrecision;text-rendering:geometricPrecision" />
      <path
         class="fil37"
         d="m 56.949591,145.71788 v -0.3679 c 0,-0.38121 -0.31202,-0.6932 -0.69302,-0.6932 h -3.14098 c -0.381,0 -0.69302,0.31199 -0.69302,0.6932 v 0.3679 c 0,0.3813 0.31202,0.6932 0.69302,0.6932 h 3.14098 c 0.381,0 0.69302,-0.3119 0.69302,-0.6932 z"
         id="path8008"
         style="clip-rule:evenodd;fill:#cc3300;fill-rule:evenodd;stroke-width:0.00268817;image-rendering:optimizeQuality;shape-rendering:geometricPrecision;text-rendering:geometricPrecision" />
      <path
         class="fil22"
         d="m 51.929571,142.58768 c 0.16502,0.19759 0.41201,0.3234 0.68601,0.3234 h 4.38 c 0.23799,0 0.455,-0.0945 0.616,-0.24831 -0.312,-0.3488 -0.76399,-0.56929 -1.26601,-0.56929 h -3.22098 c -0.46501,0 -0.88802,0.18909 -1.19502,0.4942 z"
         id="path8010"
         style="clip-rule:evenodd;fill:#e6e6e6;fill-rule:evenodd;stroke-width:0.00268817;image-rendering:optimizeQuality;shape-rendering:geometricPrecision;text-rendering:geometricPrecision" />
      <path
         class="fil22"
         d="m 51.678591,142.93148 c 0.18799,0.33989 0.50699,0.6839 0.81899,0.6839 v 0 c 0.55401,0 1.00801,-0.68651 1.01899,-1.5318 h -0.36899 c -0.596,0 -1.163,0.26199 -1.46899,0.8479 z"
         id="path8012"
         style="clip-rule:evenodd;fill:#e6e6e6;fill-rule:evenodd;stroke-width:0.00268817;image-rendering:optimizeQuality;shape-rendering:geometricPrecision;text-rendering:geometricPrecision" />
      <path
         class="fil22"
         d="m 55.997591,142.08358 c 0.0101,0.83549 0.46498,1.51409 1.01899,1.51409 v 0 c 0.307,0 0.61201,-0.31549 0.79899,-0.6434 -0.30398,-0.58699 -0.86399,-0.87069 -1.46499,-0.87069 z"
         id="path8014"
         style="clip-rule:evenodd;fill:#e6e6e6;fill-rule:evenodd;stroke-width:0.00268817;image-rendering:optimizeQuality;shape-rendering:geometricPrecision;text-rendering:geometricPrecision" />
      <path
         class="fil22"
         d="m 51.899571,145.93418 c 0.16801,-0.19761 0.41701,-0.3234 0.694,-0.3234 h 4.426 c 0.24001,0 0.459,0.0945 0.62201,0.2483 -0.31501,0.3488 -0.772,0.5693 -1.28,0.5693 h -3.254 c -0.47001,0 -0.89699,-0.18911 -1.20801,-0.4942 z"
         id="path8016"
         style="clip-rule:evenodd;fill:#e6e6e6;fill-rule:evenodd;stroke-width:0.00268817;image-rendering:optimizeQuality;shape-rendering:geometricPrecision;text-rendering:geometricPrecision" />
      <path
         class="fil22"
         d="m 51.646571,145.56348 c 0.19,-0.34 0.51301,-0.6839 0.82701,-0.6839 v 0 c 0.55999,0 1.01899,0.68649 1.03,1.5318 h -0.37201 c -0.60298,0 -1.17599,-0.2619 -1.485,-0.8479 z"
         id="path8018"
         style="clip-rule:evenodd;fill:#e6e6e6;fill-rule:evenodd;stroke-width:0.00268817;image-rendering:optimizeQuality;shape-rendering:geometricPrecision;text-rendering:geometricPrecision" />
      <path
         class="fil22"
         d="m 56.010591,146.41138 c 0.0111,-0.83551 0.47,-1.51401 1.02999,-1.51401 v 0 c 0.31001,0 0.61799,0.31541 0.80701,0.6433 -0.308,0.58701 -0.873,0.87071 -1.48101,0.87071 z"
         id="path8020"
         style="clip-rule:evenodd;fill:#e6e6e6;fill-rule:evenodd;stroke-width:0.00268817;image-rendering:optimizeQuality;shape-rendering:geometricPrecision;text-rendering:geometricPrecision" />
    </g>
    <g
       id="g1285"
       transform="translate(134.25472,85.884725)">
      <path
         class="fil1"
         d="m 102.90592,-5.0868673 v 0 c 0.072,-3.3734 -2.58,-6.1935997 -5.892,-6.2671997 -5.126,-0.1138 -15.48401,2.1588997 -15.52501,5.7915997 -0.038,3.373901 2.579,6.19359999 5.89201,6.26710099 l 9.37,0.2081 c 3.313,0.0736 6.082,-2.62630099 6.155,-5.99960099 z"
         id="path8112"
         style="clip-rule:evenodd;fill:#803d22;fill-rule:evenodd;stroke-width:0.00268817;image-rendering:optimizeQuality;shape-rendering:geometricPrecision;text-rendering:geometricPrecision" />
      <path
         class="fil0"
         d="m 82.62691,-1.8487673 c 1.083,1.62430099 2.90801,2.69929999 4.97001,2.70580099 l 9.372,0.0295 c 2.062,0.0065 3.894,-1.0571 4.986,-2.67460099 -7.773,0.697201 -11.563,0.722699 -19.32801,-0.0607 z"
         id="path8114"
         style="clip-rule:evenodd;fill:#af5e31;fill-rule:evenodd;stroke-width:0.00268817;image-rendering:optimizeQuality;shape-rendering:geometricPrecision;text-rendering:geometricPrecision" />
      <path
         class="fil1"
         d="m 116.57192,-29.735073 v 0 c -1.95,0 -3.546,1.5956 -3.546,3.5457 v 4.3774 c 0,1.950101 1.596,3.545705 3.546,3.545705 v 0 c 1.95,0 3.546,-1.595604 3.546,-3.545705 v -4.3774 c 0,-1.9501 -1.596,-3.5457 -3.546,-3.5457 z"
         id="path8116"
         style="clip-rule:evenodd;fill:#803d22;fill-rule:evenodd;stroke-width:0.00268817;image-rendering:optimizeQuality;shape-rendering:geometricPrecision;text-rendering:geometricPrecision" />
      <path
         class="fil26"
         d="m 113.64892,-0.37046631 h -2.391 c -1.041,0 -1.892,0.851699 -1.892,1.89270001 v 4.481401 c 0,1.041001 0.851,1.892599 1.892,1.892599 h 2.391 c 1.041,0 1.893,-0.851598 1.893,-1.892599 v -4.481401 c 0,-1.04100101 -0.852,-1.89270001 -1.893,-1.89270001 z"
         id="path8118"
         style="clip-rule:evenodd;fill:#4f2615;fill-rule:evenodd;stroke-width:0.00268817;image-rendering:optimizeQuality;shape-rendering:geometricPrecision;text-rendering:geometricPrecision" />
      <path
         class="fil26"
         d="m 105.82992,-0.37046631 h -2.391 c -1.041,0 -1.893,0.851699 -1.893,1.89270001 v 4.481401 c 0,1.041001 0.852,1.892599 1.893,1.892599 h 2.391 c 1.041,0 1.892,-0.851598 1.892,-1.892599 v -4.481401 c 0,-1.04100101 -0.851,-1.89270001 -1.892,-1.89270001 z"
         id="path8120"
         style="clip-rule:evenodd;fill:#4f2615;fill-rule:evenodd;stroke-width:0.00268817;image-rendering:optimizeQuality;shape-rendering:geometricPrecision;text-rendering:geometricPrecision" />
      <path
         class="fil1"
         d="m 121.98492,-6.0487653 v -9.8344027 c 0,-5.238804 -4.286,-9.525005 -9.525,-9.525005 h -11.35 c -5.239,0 -9.525,4.286201 -9.525,9.525005 v 9.8344027 c 0,5.23879999 4.286,9.5251 9.525,9.5251 h 11.35 c 5.239,0 9.525,-4.28630001 9.525,-9.5251 z"
         id="path8122"
         style="clip-rule:evenodd;fill:#803d22;fill-rule:evenodd;stroke-width:0.00268817;image-rendering:optimizeQuality;shape-rendering:geometricPrecision;text-rendering:geometricPrecision" />
      <path
         class="fil0"
         d="m 113.61592,3.3423337 v 0 c 0,-1.740199 -1.743,-3.16400101 -3.872,-3.16400101 h -6.024 c -2.13,0 -3.872,1.42380201 -3.872,3.16400101 v 0 c 0,0.0355 0.001,0.0709 0.002,0.106101 h 13.764 c 0.001,-0.0352 0.002,-0.0706 0.002,-0.106101 z"
         id="path8124"
         style="clip-rule:evenodd;fill:#af5e31;fill-rule:evenodd;stroke-width:0.00268817;image-rendering:optimizeQuality;shape-rendering:geometricPrecision;text-rendering:geometricPrecision" />
      <path
         class="fil36"
         d="m 99.47992,-1.6942663 h -2.462 c -1.072,0 -1.949,0.87700099 -1.949,1.94879899 V 4.8691337 c 0,1.071901 0.877,1.948902 1.949,1.948902 h 2.462 c 1.071,0 1.948,-0.877001 1.948,-1.948902 V 0.25453269 c 0,-1.071798 -0.877,-1.94879899 -1.948,-1.94879899 z"
         id="path8126"
         style="clip-rule:evenodd;fill:#cc7643;fill-rule:evenodd;stroke-width:0.00268817;image-rendering:optimizeQuality;shape-rendering:geometricPrecision;text-rendering:geometricPrecision" />
      <path
         class="fil36"
         d="m 107.22392,-1.6942663 h -2.462 c -1.072,0 -1.949,0.87700099 -1.949,1.94879899 V 4.8691337 c 0,1.071901 0.877,1.948902 1.949,1.948902 h 2.462 c 1.072,0 1.949,-0.877001 1.949,-1.948902 V 0.25453269 c 0,-1.071798 -0.877,-1.94879899 -1.949,-1.94879899 z"
         id="path8128"
         style="clip-rule:evenodd;fill:#cc7643;fill-rule:evenodd;stroke-width:0.00268817;image-rendering:optimizeQuality;shape-rendering:geometricPrecision;text-rendering:geometricPrecision" />
      <path
         class="fil0"
         d="m 108.87092,-17.604368 h 10.397 c 1.441,0 2.62,1.179 2.62,2.6202 v 4.387701 c 0,1.4410997 -1.179,2.6201987 -2.62,2.6201987 h -10.397 c -1.441,0 -2.62,-1.179099 -2.62,-2.6201987 v -4.387701 c 0,-1.4412 1.179,-2.6202 2.62,-2.6202 z"
         id="path8130"
         style="clip-rule:evenodd;fill:#af5e31;fill-rule:evenodd;stroke-width:0.00268817;image-rendering:optimizeQuality;shape-rendering:geometricPrecision;text-rendering:geometricPrecision" />
      <path
         class="fil18"
         d="m 110.53692,-14.475768 v 0 c 1.003,0 1.824,0.8207 1.824,1.823901 v 2.2517 c 0,1.0031997 -0.821,1.8238997 -1.824,1.8238997 v 0 c -1.004,0 -1.824,-0.8207 -1.824,-1.8238997 v -2.2517 c 0,-1.003201 0.82,-1.823901 1.824,-1.823901 z"
         id="path8132"
         style="clip-rule:evenodd;fill:#333333;fill-rule:evenodd;stroke-width:0.00268817;image-rendering:optimizeQuality;shape-rendering:geometricPrecision;text-rendering:geometricPrecision" />
      <path
         class="fil18"
         d="m 119.32592,-14.469668 v 0 c 0.94,0 1.709,0.769 1.709,1.7088 v 2.109601 c 0,0.9397997 -0.769,1.7086997 -1.709,1.7086997 v 0 c -0.94,0 -1.709,-0.7689 -1.709,-1.7086997 v -2.109601 c 0,-0.9398 0.769,-1.7088 1.709,-1.7088 z"
         id="path8134"
         style="clip-rule:evenodd;fill:#333333;fill-rule:evenodd;stroke-width:0.00268817;image-rendering:optimizeQuality;shape-rendering:geometricPrecision;text-rendering:geometricPrecision" />
      <path
         class="fil39"
         d="m 124.49992,-2.7640663 v -1.840701 c 0,-1.908001 -1.562,-3.469 -3.469,-3.469 h -6.261 c -1.908,0 -3.469,1.560999 -3.469,3.469 v 1.840701 c 0,1.90789899 1.561,3.46890099 3.469,3.46890099 h 6.261 c 1.907,0 3.469,-1.561002 3.469,-3.46890099 z"
         id="path8136"
         style="clip-rule:evenodd;fill:#924c2a;fill-rule:evenodd;stroke-width:0.00268817;image-rendering:optimizeQuality;shape-rendering:geometricPrecision;text-rendering:geometricPrecision" />
      <path
         class="fil11"
         d="m 121.94992,-6.1740673 v -0.9204 c 0,-0.954001 -0.78,-1.7345 -1.734,-1.7345 h -3.13 c -0.954,0 -1.735,0.780499 -1.735,1.7345 v 0.9204 c 0,0.9539 0.781,1.7344 1.735,1.7344 h 3.13 c 0.954,0 1.734,-0.7805 1.734,-1.7344 z"
         id="path8138"
         style="clip-rule:evenodd;fill:#663333;fill-rule:evenodd;stroke-width:0.00268817;image-rendering:optimizeQuality;shape-rendering:geometricPrecision;text-rendering:geometricPrecision" />
      <path
         class="fil11"
         d="m 120.98892,-1.0646663 v 0 c 0,-0.496401 -0.407,-0.9026 -0.903,-0.9026 h -2.227 c -0.497,0 -0.903,0.406199 -0.903,0.9026 v 0 c 0,0.49650099 0.406,0.90269999 0.903,0.90269999 h 2.227 c 0.496,0 0.903,-0.406199 0.903,-0.90269999 z"
         id="path8140"
         style="clip-rule:evenodd;fill:#663333;fill-rule:evenodd;stroke-width:0.00268817;image-rendering:optimizeQuality;shape-rendering:geometricPrecision;text-rendering:geometricPrecision" />
      <path
         class="fil0"
         d="m 105.69692,-15.403768 v 0 c 0,-1.6491 -1.349,-2.9982 -2.998,-2.9982 h -4.472 c -1.649,0 -2.999,1.3491 -2.999,2.9982 v 0 c 0,1.649 1.35,2.998201 2.999,2.998201 h 4.472 c 1.649,0 2.998,-1.349201 2.998,-2.998201 z"
         id="path8142"
         style="clip-rule:evenodd;fill:#af5e31;fill-rule:evenodd;stroke-width:0.00268817;image-rendering:optimizeQuality;shape-rendering:geometricPrecision;text-rendering:geometricPrecision" />
      <path
         class="fil0"
         d="m 100.04292,-8.2746673 v 0 c 0,-1.1292 -0.924,-2.0529997 -2.053,-2.0529997 h -3.063 c -1.129,0 -2.053,0.9237997 -2.053,2.0529997 v 0 c 0,1.129201 0.924,2.0531 2.053,2.0531 h 3.063 c 1.129,0 2.053,-0.923899 2.053,-2.0531 z"
         id="path8144"
         style="clip-rule:evenodd;fill:#af5e31;fill-rule:evenodd;stroke-width:0.00268817;image-rendering:optimizeQuality;shape-rendering:geometricPrecision;text-rendering:geometricPrecision" />
      <path
         class="fil1"
         d="m 108.95592,-30.360774 v 0 c -1.95,0 -3.545,1.595601 -3.545,3.545701 v 4.377301 c 0,1.9502 1.595,3.545804 3.545,3.545804 v 0 c 1.951,0 3.546,-1.595604 3.546,-3.545804 v -4.377301 c 0,-1.9501 -1.595,-3.545701 -3.546,-3.545701 z"
         id="path8146"
         style="clip-rule:evenodd;fill:#803d22;fill-rule:evenodd;stroke-width:0.00268817;image-rendering:optimizeQuality;shape-rendering:geometricPrecision;text-rendering:geometricPrecision" />
      <path
         class="fil0"
         d="m 108.95592,-28.923073 v 0 c -1.461,0 -2.656,1.2173 -2.656,2.7053 v 1.9082 c 0,0.6767 2.024,0.8126 2.638,0.8174 0.685,0.0054 2.675,-0.1012 2.675,-0.8882 v -1.8374 c 0,-1.488 -1.195,-2.7053 -2.657,-2.7053 z"
         id="path8148"
         style="clip-rule:evenodd;fill:#af5e31;fill-rule:evenodd;stroke-width:0.00268817;image-rendering:optimizeQuality;shape-rendering:geometricPrecision;text-rendering:geometricPrecision" />
    </g>
    <g
       id="g1222"
       transform="translate(-211.17813,85.683291)">
      <path
         class="fil1"
         d="m 245.10195,-5.9202683 v 0 c 0.072,-3.373399 -2.579,-6.1935987 -5.89201,-6.2670987 -5.12501,-0.1138 -15.48302,2.1588 -15.52501,5.7914997 -0.038,3.374001 2.58001,6.19360199 5.89201,6.26720099 l 9.37,0.2081 c 3.31298,0.0735 6.08299,-2.62630099 6.15501,-5.99970199 z"
         id="path8236"
         style="clip-rule:evenodd;fill:#803d22;fill-rule:evenodd;stroke-width:0.00268817;image-rendering:optimizeQuality;shape-rendering:geometricPrecision;text-rendering:geometricPrecision" />
      <path
         class="fil0"
         d="m 224.82394,-2.6821673 c 1.08198,1.624301 2.907,2.69940099 4.969,2.70590099 l 9.37199,0.0295 c 2.06201,0.0064 3.89401,-1.05719899 4.987,-2.67459899 -7.77398,0.697201 -11.56401,0.722699 -19.32799,-0.0608 z"
         id="path8238"
         style="clip-rule:evenodd;fill:#af5e31;fill-rule:evenodd;stroke-width:0.00268817;image-rendering:optimizeQuality;shape-rendering:geometricPrecision;text-rendering:geometricPrecision" />
      <path
         class="fil1"
         d="m 258.76794,-30.568374 v 0 c -1.95001,0 -3.546,1.595501 -3.546,3.545701 v 4.377301 c 0,1.9502 1.59599,3.545804 3.546,3.545804 v 0 c 1.95001,0 3.546,-1.595604 3.546,-3.545804 v -4.377301 c 0,-1.9502 -1.59599,-3.545701 -3.546,-3.545701 z"
         id="path8240"
         style="clip-rule:evenodd;fill:#803d22;fill-rule:evenodd;stroke-width:0.00268817;image-rendering:optimizeQuality;shape-rendering:geometricPrecision;text-rendering:geometricPrecision" />
      <path
         class="fil26"
         d="m 255.84493,-0.16726631 h -2.38998 c -1.04101,0 -1.89302,0.851699 -1.89302,1.89270001 v 4.481401 c 0,1.041001 0.85201,1.892599 1.89302,1.892599 h 2.38998 c 1.041,0 1.89301,-0.851598 1.89301,-1.892599 v -4.481401 c 0,-1.04100101 -0.85201,-1.89270001 -1.89301,-1.89270001 z"
         id="path8242"
         style="clip-rule:evenodd;fill:#4f2615;fill-rule:evenodd;stroke-width:0.00268817;image-rendering:optimizeQuality;shape-rendering:geometricPrecision;text-rendering:geometricPrecision" />
      <path
         class="fil26"
         d="m 248.02594,-0.16726631 h -2.39102 c -1.04097,0 -1.89198,0.851699 -1.89198,1.89270001 v 4.481401 c 0,1.041001 0.85101,1.892599 1.89198,1.892599 h 2.39102 c 1.041,0 1.892,-0.851598 1.892,-1.892599 v -4.481401 c 0,-1.04100101 -0.851,-1.89270001 -1.892,-1.89270001 z"
         id="path8244"
         style="clip-rule:evenodd;fill:#4f2615;fill-rule:evenodd;stroke-width:0.00268817;image-rendering:optimizeQuality;shape-rendering:geometricPrecision;text-rendering:geometricPrecision" />
      <path
         class="fil1"
         d="m 264.18195,-6.8820683 v -9.8343997 c 0,-5.238804 -4.28702,-9.525105 -9.52601,-9.525105 h -11.34901 c -5.23898,0 -9.526,4.286301 -9.526,9.525105 v 9.8343997 c 0,5.238702 4.28702,9.525003 9.526,9.525003 h 11.34901 c 5.23899,0 9.52601,-4.286301 9.52601,-9.525003 z"
         id="path8246"
         style="clip-rule:evenodd;fill:#803d22;fill-rule:evenodd;stroke-width:0.00268817;image-rendering:optimizeQuality;shape-rendering:geometricPrecision;text-rendering:geometricPrecision" />
      <path
         class="fil0"
         d="m 255.81194,2.5089337 v 0 c 0,-1.74019901 -1.74199,-3.16399901 -3.872,-3.16399901 h -6.024 c -2.13001,0 -3.872,1.4238 -3.872,3.16399901 v 0 c 0,0.0356 0,0.0709 0.003,0.106201 h 13.764 c 0,-0.0353 0.003,-0.0706 0.003,-0.106201 z"
         id="path8248"
         style="clip-rule:evenodd;fill:#af5e31;fill-rule:evenodd;stroke-width:0.00268817;image-rendering:optimizeQuality;shape-rendering:geometricPrecision;text-rendering:geometricPrecision" />
      <path
         class="fil36"
         d="m 241.66413,-0.40010853 h -2.46201 c -1.07201,0 -1.949,0.877001 -1.949,1.94890203 v 4.614601 c 0,1.071898 0.87699,1.948799 1.949,1.948799 h 2.46201 c 1.07198,0 1.949,-0.876901 1.949,-1.948799 v -4.614601 c 0,-1.07190103 -0.87702,-1.94890203 -1.949,-1.94890203 z"
         id="path8250"
         style="clip-rule:evenodd;fill:#cc7643;fill-rule:evenodd;stroke-width:0.00268817;image-rendering:optimizeQuality;shape-rendering:geometricPrecision;text-rendering:geometricPrecision" />
      <path
         class="fil36"
         d="m 249.40814,-0.40010853 h -2.462 c -1.07202,0 -1.94901,0.877001 -1.94901,1.94890203 v 4.614601 c 0,1.071898 0.87699,1.948799 1.94901,1.948799 h 2.462 c 1.07198,0 1.949,-0.876901 1.949,-1.948799 v -4.614601 c 0,-1.07190103 -0.87702,-1.94890203 -1.949,-1.94890203 z"
         id="path8252"
         style="clip-rule:evenodd;fill:#cc7643;fill-rule:evenodd;stroke-width:0.00268817;image-rendering:optimizeQuality;shape-rendering:geometricPrecision;text-rendering:geometricPrecision" />
      <path
         class="fil0"
         d="m 251.06692,-18.437768 h 10.39702 c 1.441,0 2.62001,1.1791 2.62001,2.6202 v 4.387701 c 0,1.4411997 -1.17901,2.6202997 -2.62001,2.6202997 h -10.39702 c -1.441,0 -2.61998,-1.1791 -2.61998,-2.6202997 v -4.387701 c 0,-1.4411 1.17898,-2.6202 2.61998,-2.6202 z"
         id="path8254"
         style="clip-rule:evenodd;fill:#af5e31;fill-rule:evenodd;stroke-width:0.00268817;image-rendering:optimizeQuality;shape-rendering:geometricPrecision;text-rendering:geometricPrecision" />
      <path
         class="fil18"
         d="m 252.73293,-15.309168 v 0 c 1.00301,0 1.82401,0.8208 1.82401,1.824 v 2.251601 c 0,1.0032 -0.821,1.8239997 -1.82401,1.8239997 v 0 c -1.00299,0 -1.82399,-0.8207997 -1.82399,-1.8239997 v -2.251601 c 0,-1.0032 0.821,-1.824 1.82399,-1.824 z"
         id="path8256"
         style="clip-rule:evenodd;fill:#333333;fill-rule:evenodd;stroke-width:0.00268817;image-rendering:optimizeQuality;shape-rendering:geometricPrecision;text-rendering:geometricPrecision" />
      <path
         class="fil18"
         d="m 261.52193,-15.302968 v 0 c 0.93901,0 1.708,0.7689 1.708,1.708801 v 2.1095 c 0,0.9399 -0.76899,1.7087997 -1.708,1.7087997 v 0 c -0.939,0 -1.70799,-0.7688997 -1.70799,-1.7087997 v -2.1095 c 0,-0.939901 0.76899,-1.708801 1.70799,-1.708801 z"
         id="path8258"
         style="clip-rule:evenodd;fill:#333333;fill-rule:evenodd;stroke-width:0.00268817;image-rendering:optimizeQuality;shape-rendering:geometricPrecision;text-rendering:geometricPrecision" />
      <path
         class="fil39"
         d="m 266.69594,-3.5974673 v -1.840701 c 0,-1.9079 -1.56101,-3.468899 -3.469,-3.468899 h -6.25999 c -1.90802,0 -3.46901,1.560999 -3.46901,3.468899 v 1.840701 c 0,1.908 1.56099,3.46899999 3.46901,3.46899999 h 6.25999 c 1.90799,0 3.469,-1.56099999 3.469,-3.46899999 z"
         id="path8260"
         style="clip-rule:evenodd;fill:#924c2a;fill-rule:evenodd;stroke-width:0.00268817;image-rendering:optimizeQuality;shape-rendering:geometricPrecision;text-rendering:geometricPrecision" />
      <path
         class="fil11"
         d="m 264.14695,-7.0074673 v -0.920401 c 0,-0.953899 -0.781,-1.734399 -1.73501,-1.734399 h -3.12999 c -0.95401,0 -1.73501,0.7805 -1.73501,1.734399 v 0.920401 c 0,0.954 0.781,1.7345 1.73501,1.7345 h 3.12999 c 0.95401,0 1.73501,-0.7805 1.73501,-1.7345 z"
         id="path8262"
         style="clip-rule:evenodd;fill:#663333;fill-rule:evenodd;stroke-width:0.00268817;image-rendering:optimizeQuality;shape-rendering:geometricPrecision;text-rendering:geometricPrecision" />
      <path
         class="fil11"
         d="m 263.18495,-1.8979663 v 0 c 0,-0.496501 -0.40601,-0.9026 -0.90303,-0.9026 h -2.22699 c -0.49599,0 -0.903,0.406099 -0.903,0.9026 v 0 c 0,0.496501 0.40701,0.90259899 0.903,0.90259899 h 2.22699 c 0.49702,0 0.90303,-0.40609799 0.90303,-0.90259899 z"
         id="path8264"
         style="clip-rule:evenodd;fill:#663333;fill-rule:evenodd;stroke-width:0.00268817;image-rendering:optimizeQuality;shape-rendering:geometricPrecision;text-rendering:geometricPrecision" />
      <path
         class="fil0"
         d="m 247.89394,-16.237068 v 0 c 0,-1.6491 -1.35001,-2.9982 -2.999,-2.9982 h -4.47202 c -1.64899,0 -2.99799,1.3491 -2.99799,2.9982 v 0 c 0,1.649 1.349,2.998101 2.99799,2.998101 h 4.47202 c 1.64899,0 2.999,-1.349101 2.999,-2.998101 z"
         id="path8266"
         style="clip-rule:evenodd;fill:#af5e31;fill-rule:evenodd;stroke-width:0.00268817;image-rendering:optimizeQuality;shape-rendering:geometricPrecision;text-rendering:geometricPrecision" />
      <path
         class="fil0"
         d="m 242.23894,-9.1079673 v 0 c 0,-1.1291997 -0.924,-2.0529997 -2.05301,-2.0529997 h -3.063 c -1.129,0 -2.05301,0.9238 -2.05301,2.0529997 v 0 c 0,1.129201 0.92401,2.052999 2.05301,2.052999 h 3.063 c 1.12901,0 2.05301,-0.923798 2.05301,-2.052999 z"
         id="path8268"
         style="clip-rule:evenodd;fill:#af5e31;fill-rule:evenodd;stroke-width:0.00268817;image-rendering:optimizeQuality;shape-rendering:geometricPrecision;text-rendering:geometricPrecision" />
      <path
         class="fil1"
         d="m 251.15294,-31.194174 v 0 c -1.95001,0 -3.546,1.595601 -3.546,3.545801 v 4.3773 c 0,1.9502 1.59599,3.545801 3.546,3.545801 v 0 c 1.95001,0 3.546,-1.595601 3.546,-3.545801 v -4.3773 c 0,-1.9502 -1.59599,-3.545801 -3.546,-3.545801 z"
         id="path8270"
         style="clip-rule:evenodd;fill:#803d22;fill-rule:evenodd;stroke-width:0.00268817;image-rendering:optimizeQuality;shape-rendering:geometricPrecision;text-rendering:geometricPrecision" />
      <path
         class="fil0"
         d="m 251.15294,-29.756473 v 0 c -1.46201,0 -2.657,1.2174 -2.657,2.7054 v 1.9081 c 0,0.6768 2.02499,0.8126 2.638,0.8175 0.68498,0.0054 2.676,-0.1012 2.676,-0.8883 v -1.8373 c 0,-1.488 -1.196,-2.7054 -2.657,-2.7054 z"
         id="path8272"
         style="clip-rule:evenodd;fill:#af5e31;fill-rule:evenodd;stroke-width:0.00268817;image-rendering:optimizeQuality;shape-rendering:geometricPrecision;text-rendering:geometricPrecision" />
    </g>
    <g
       id="g1243"
       transform="translate(-94.646823,85.659885)">
      <path
         class="fil1"
         d="m 196.30993,-5.3019663 v 0 c 0.073,-3.373401 -2.579,-6.1936007 -5.892,-6.2671007 -5.125,-0.1139 -15.483,2.1587997 -15.524,5.7914997 -0.038,3.374001 2.579,6.19360199 5.892,6.26720099 l 9.37,0.207999 c 3.313,0.0736 6.082,-2.62619799 6.154,-5.99959899 z"
         id="path11398"
         style="clip-rule:evenodd;fill:#803d22;fill-rule:evenodd;stroke-width:0.00268817;image-rendering:optimizeQuality;shape-rendering:geometricPrecision;text-rendering:geometricPrecision" />
      <path
         class="fil0"
         d="m 176.03193,-2.0638653 c 1.082,1.62429799 2.908,2.69939799 4.97,2.70589899 l 9.372,0.0294 c 2.062,0.0065 3.894,-1.0571 4.986,-2.67450099 -7.773,0.697201 -11.563,0.722702 -19.328,-0.0608 z"
         id="path11400"
         style="clip-rule:evenodd;fill:#af5e31;fill-rule:evenodd;stroke-width:0.00268817;image-rendering:optimizeQuality;shape-rendering:geometricPrecision;text-rendering:geometricPrecision" />
      <path
         class="fil1"
         d="m 209.97693,-29.950174 v 0 c -1.951,0 -3.546,1.595601 -3.546,3.545801 v 4.377301 c 0,1.9502 1.595,3.545804 3.546,3.545804 v 0 c 1.95,0 3.545,-1.595604 3.545,-3.545804 v -4.377301 c 0,-1.9502 -1.595,-3.545801 -3.545,-3.545801 z"
         id="path11402"
         style="clip-rule:evenodd;fill:#803d22;fill-rule:evenodd;stroke-width:0.00268817;image-rendering:optimizeQuality;shape-rendering:geometricPrecision;text-rendering:geometricPrecision" />
      <path
         class="fil26"
         d="m 207.05393,-0.12001929 h -2.391 c -1.041,0 -1.892,0.851699 -1.892,1.89269999 v 4.481401 c 0,1.041001 0.851,1.892599 1.892,1.892599 h 2.391 c 1.041,0 1.893,-0.851598 1.893,-1.892599 v -4.481401 c 0,-1.04100099 -0.852,-1.89269999 -1.893,-1.89269999 z"
         id="path11404"
         style="clip-rule:evenodd;fill:#4f2615;fill-rule:evenodd;stroke-width:0.00268817;image-rendering:optimizeQuality;shape-rendering:geometricPrecision;text-rendering:geometricPrecision" />
      <path
         class="fil26"
         d="m 199.23393,-0.12001929 h -2.39 c -1.041,0 -1.893,0.851699 -1.893,1.89269999 v 4.481401 c 0,1.041001 0.852,1.892599 1.893,1.892599 h 2.39 c 1.041,0 1.893,-0.851598 1.893,-1.892599 v -4.481401 c 0,-1.04100099 -0.852,-1.89269999 -1.893,-1.89269999 z"
         id="path11406"
         style="clip-rule:evenodd;fill:#4f2615;fill-rule:evenodd;stroke-width:0.00268817;image-rendering:optimizeQuality;shape-rendering:geometricPrecision;text-rendering:geometricPrecision" />
      <path
         class="fil1"
         d="m 215.38993,-6.2637663 v -9.8344017 c 0,-5.238804 -4.286,-9.525105 -9.525,-9.525105 h -11.35 c -5.239,0 -9.525,4.286301 -9.525,9.525105 v 9.8344017 c 0,5.2387 4.286,9.525 9.525,9.525 h 11.35 c 5.239,0 9.525,-4.2863 9.525,-9.525 z"
         id="path11408"
         style="clip-rule:evenodd;fill:#803d22;fill-rule:evenodd;stroke-width:0.00268817;image-rendering:optimizeQuality;shape-rendering:geometricPrecision;text-rendering:geometricPrecision" />
      <path
         class="fil0"
         d="m 207.02093,3.1272327 v 0 c 0,-1.740199 -1.743,-3.16399801 -3.873,-3.16399801 h -6.023 c -2.13,0 -3.873,1.42379901 -3.873,3.16399801 v 0 c 0,0.0355 0.001,0.0709 0.003,0.106201 h 13.763 c 0.002,-0.0353 0.003,-0.0707 0.003,-0.106201 z"
         id="path11410"
         style="clip-rule:evenodd;fill:#af5e31;fill-rule:evenodd;stroke-width:0.00268817;image-rendering:optimizeQuality;shape-rendering:geometricPrecision;text-rendering:geometricPrecision" />
      <path
         class="fil36"
         d="m 192.88393,-0.37648502 h -2.461 c -1.072,0 -1.949,0.877001 -1.949,1.94890202 v 4.614601 c 0,1.071898 0.877,1.948799 1.949,1.948799 h 2.461 c 1.072,0 1.949,-0.876901 1.949,-1.948799 V 1.572417 c 0,-1.07190102 -0.877,-1.94890202 -1.949,-1.94890202 z"
         id="path11412"
         style="clip-rule:evenodd;fill:#cc7643;fill-rule:evenodd;stroke-width:0.00268817;image-rendering:optimizeQuality;shape-rendering:geometricPrecision;text-rendering:geometricPrecision" />
      <path
         class="fil36"
         d="m 200.62893,-0.37648502 h -2.462 c -1.072,0 -1.949,0.877001 -1.949,1.94890202 v 4.614601 c 0,1.071898 0.877,1.948799 1.949,1.948799 h 2.462 c 1.071,0 1.948,-0.876901 1.948,-1.948799 V 1.572417 c 0,-1.07190102 -0.877,-1.94890202 -1.948,-1.94890202 z"
         id="path11414"
         style="clip-rule:evenodd;fill:#cc7643;fill-rule:evenodd;stroke-width:0.00268817;image-rendering:optimizeQuality;shape-rendering:geometricPrecision;text-rendering:geometricPrecision" />
      <path
         class="fil0"
         d="m 202.27593,-17.819468 h 10.397 c 1.44099,0 2.62,1.1791 2.62,2.6202 v 4.387701 c 0,1.4411997 -1.17901,2.6203007 -2.62,2.6203007 h -10.397 c -1.441,0 -2.62,-1.179101 -2.62,-2.6203007 v -4.387701 c 0,-1.4411 1.179,-2.6202 2.62,-2.6202 z"
         id="path11416"
         style="clip-rule:evenodd;fill:#af5e31;fill-rule:evenodd;stroke-width:0.00268817;image-rendering:optimizeQuality;shape-rendering:geometricPrecision;text-rendering:geometricPrecision" />
      <path
         class="fil18"
         d="m 203.94093,-14.690868 v 0 c 1.004,0 1.824,0.8208 1.824,1.8239 v 2.251701 c 0,1.0031997 -0.82,1.8239997 -1.824,1.8239997 v 0 c -1.003,0 -1.824,-0.8208 -1.824,-1.8239997 v -2.251701 c 0,-1.0031 0.821,-1.8239 1.824,-1.8239 z"
         id="path11418"
         style="clip-rule:evenodd;fill:#333333;fill-rule:evenodd;stroke-width:0.00268817;image-rendering:optimizeQuality;shape-rendering:geometricPrecision;text-rendering:geometricPrecision" />
      <path
         class="fil18"
         d="m 212.73093,-14.684668 v 0 c 0.94,0 1.70901,0.7689 1.70901,1.708801 v 2.1095 c 0,0.9397997 -0.76901,1.7087997 -1.70901,1.7087997 v 0 c -0.94,0 -1.709,-0.769 -1.709,-1.7087997 v -2.1095 c 0,-0.939901 0.769,-1.708801 1.709,-1.708801 z"
         id="path11420"
         style="clip-rule:evenodd;fill:#333333;fill-rule:evenodd;stroke-width:0.00268817;image-rendering:optimizeQuality;shape-rendering:geometricPrecision;text-rendering:geometricPrecision" />
      <path
         class="fil39"
         d="m 217.90394,-2.9791673 v -1.840699 c 0,-1.9079 -1.56101,-3.468901 -3.469,-3.468901 h -6.26001 c -1.908,0 -3.469,1.561001 -3.469,3.468901 v 1.840699 c 0,1.907902 1.561,3.46900199 3.469,3.46900199 h 6.26001 c 1.90799,0 3.469,-1.56109999 3.469,-3.46900199 z"
         id="path11422"
         style="clip-rule:evenodd;fill:#924c2a;fill-rule:evenodd;stroke-width:0.00268817;image-rendering:optimizeQuality;shape-rendering:geometricPrecision;text-rendering:geometricPrecision" />
      <path
         class="fil11"
         d="m 215.35492,-6.3891683 v -0.920398 c 0,-0.954001 -0.77999,-1.734401 -1.73399,-1.734401 h -3.131 c -0.954,0 -1.734,0.7804 -1.734,1.734401 v 0.920398 c 0,0.954 0.78,1.734503 1.734,1.734503 h 3.131 c 0.954,0 1.73399,-0.780503 1.73399,-1.734503 z"
         id="path11424"
         style="clip-rule:evenodd;fill:#663333;fill-rule:evenodd;stroke-width:0.00268817;image-rendering:optimizeQuality;shape-rendering:geometricPrecision;text-rendering:geometricPrecision" />
      <path
         class="fil11"
         d="m 214.39292,-1.2796673 v 0 c 0,-0.496498 -0.40599,-0.9027 -0.90199,-0.9027 h -2.227 c -0.497,0 -0.903,0.406202 -0.903,0.9027 v 0 c 0,0.49640099 0.406,0.90259999 0.903,0.90259999 h 2.227 c 0.496,0 0.90199,-0.406199 0.90199,-0.90259999 z"
         id="path11426"
         style="clip-rule:evenodd;fill:#663333;fill-rule:evenodd;stroke-width:0.00268817;image-rendering:optimizeQuality;shape-rendering:geometricPrecision;text-rendering:geometricPrecision" />
      <path
         class="fil0"
         d="m 199.10193,-15.618768 v 0 c 0,-1.6491 -1.349,-2.9982 -2.998,-2.9982 h -4.473 c -1.649,0 -2.998,1.3491 -2.998,2.9982 v 0 c 0,1.649 1.349,2.998101 2.998,2.998101 h 4.473 c 1.649,0 2.998,-1.349101 2.998,-2.998101 z"
         id="path11428"
         style="clip-rule:evenodd;fill:#af5e31;fill-rule:evenodd;stroke-width:0.00268817;image-rendering:optimizeQuality;shape-rendering:geometricPrecision;text-rendering:geometricPrecision" />
      <path
         class="fil0"
         d="m 193.44693,-8.4896673 v 0 c 0,-1.1292 -0.923,-2.0529997 -2.053,-2.0529997 h -3.062 c -1.13,0 -2.053,0.9237997 -2.053,2.0529997 v 0 c 0,1.129201 0.923,2.053001 2.053,2.053001 h 3.062 c 1.13,0 2.053,-0.9238 2.053,-2.053001 z"
         id="path11430"
         style="clip-rule:evenodd;fill:#af5e31;fill-rule:evenodd;stroke-width:0.00268817;image-rendering:optimizeQuality;shape-rendering:geometricPrecision;text-rendering:geometricPrecision" />
      <path
         class="fil1"
         d="m 202.36093,-30.575873 v 0 c -1.95,0 -3.546,1.5956 -3.546,3.5458 v 4.3773 c 0,1.950201 1.596,3.545805 3.546,3.545805 v 0 c 1.95,0 3.546,-1.595604 3.546,-3.545805 v -4.3773 c 0,-1.9502 -1.596,-3.5458 -3.546,-3.5458 z"
         id="path11432"
         style="clip-rule:evenodd;fill:#803d22;fill-rule:evenodd;stroke-width:0.00268817;image-rendering:optimizeQuality;shape-rendering:geometricPrecision;text-rendering:geometricPrecision" />
      <path
         class="fil0"
         d="m 202.36093,-29.138173 v 0 c -1.461,0 -2.657,1.2174 -2.657,2.7053 v 1.9082 c 0,0.6768 2.025,0.8126 2.638,0.8174 0.686,0.0055 2.676,-0.1011 2.676,-0.8882 v -1.8374 c 0,-1.4879 -1.195,-2.7053 -2.657,-2.7053 z"
         id="path11434"
         style="clip-rule:evenodd;fill:#af5e31;fill-rule:evenodd;stroke-width:0.00268817;image-rendering:optimizeQuality;shape-rendering:geometricPrecision;text-rendering:geometricPrecision" />
    </g>
    <g
       id="g1308"
       transform="translate(-22.665339,221.14946)">
      <path
         class="fil1"
         d="m 56.59991,-5.9202683 v 0 c 0.072,-3.373399 -2.579,-6.1935987 -5.892,-6.2670987 -5.124999,-0.1138 -15.483,2.1588 -15.523999,5.7914997 -0.039,3.374001 2.578999,6.19360199 5.892001,6.26720099 l 9.368998,0.2081 c 3.313,0.0735 6.083,-2.62630099 6.155,-5.99970199 z"
         id="path11436"
         style="clip-rule:evenodd;fill:#803d22;fill-rule:evenodd;stroke-width:0.00268817;image-rendering:optimizeQuality;shape-rendering:geometricPrecision;text-rendering:geometricPrecision" />
      <path
         class="fil0"
         d="m 36.32191,-2.6821673 c 1.082,1.624301 2.907001,2.69940099 4.969002,2.70590099 l 9.371998,0.0295 c 2.063,0.0064 3.894,-1.05719899 4.987,-2.67459899 -7.773998,0.697201 -11.563998,0.722699 -19.328,-0.0608 z"
         id="path11438"
         style="clip-rule:evenodd;fill:#af5e31;fill-rule:evenodd;stroke-width:0.00268817;image-rendering:optimizeQuality;shape-rendering:geometricPrecision;text-rendering:geometricPrecision" />
      <path
         class="fil1"
         d="m 70.26591,-30.568374 v 0 c -1.95,0 -3.546,1.595501 -3.546,3.545701 v 4.377301 c 0,1.9502 1.596,3.545804 3.546,3.545804 v 0 c 1.95,0 3.54601,-1.595604 3.54601,-3.545804 v -4.377301 c 0,-1.9502 -1.59601,-3.545701 -3.54601,-3.545701 z"
         id="path11440"
         style="clip-rule:evenodd;fill:#803d22;fill-rule:evenodd;stroke-width:0.00268817;image-rendering:optimizeQuality;shape-rendering:geometricPrecision;text-rendering:geometricPrecision" />
      <path
         class="fil26"
         d="m 67.34291,-0.16726631 h -2.39 c -1.041,0 -1.893,0.851699 -1.893,1.89270001 v 4.481401 c 0,1.041001 0.852,1.892599 1.893,1.892599 h 2.39 c 1.041,0 1.89301,-0.851598 1.89301,-1.892599 v -4.481401 c 0,-1.04100101 -0.85201,-1.89270001 -1.89301,-1.89270001 z"
         id="path11442"
         style="clip-rule:evenodd;fill:#4f2615;fill-rule:evenodd;stroke-width:0.00268817;image-rendering:optimizeQuality;shape-rendering:geometricPrecision;text-rendering:geometricPrecision" />
      <path
         class="fil26"
         d="m 59.52391,-0.16726631 h -2.391 c -1.041,0 -1.892,0.851699 -1.892,1.89270001 v 4.481401 c 0,1.041001 0.851,1.892599 1.892,1.892599 h 2.391 c 1.041,0 1.893,-0.851598 1.893,-1.892599 v -4.481401 c 0,-1.04100101 -0.852,-1.89270001 -1.893,-1.89270001 z"
         id="path11444"
         style="clip-rule:evenodd;fill:#4f2615;fill-rule:evenodd;stroke-width:0.00268817;image-rendering:optimizeQuality;shape-rendering:geometricPrecision;text-rendering:geometricPrecision" />
      <path
         class="fil1"
         d="m 75.67991,-6.8820683 v -9.8343997 c 0,-5.238804 -4.28699,-9.525105 -9.525,-9.525105 h -11.35 c -5.239,0 -9.524999,4.286301 -9.524999,9.525105 v 9.8343997 c 0,5.238702 4.285999,9.525003 9.524999,9.525003 h 11.35 c 5.23801,0 9.525,-4.286301 9.525,-9.525003 z"
         id="path11446"
         style="clip-rule:evenodd;fill:#803d22;fill-rule:evenodd;stroke-width:0.00268817;image-rendering:optimizeQuality;shape-rendering:geometricPrecision;text-rendering:geometricPrecision" />
      <path
         class="fil0"
         d="m 67.30991,2.5089337 v 0 c 0,-1.74019901 -1.742,-3.16399901 -3.872,-3.16399901 h -6.024 c -2.13,0 -3.872,1.4238 -3.872,3.16399901 v 0 c 0,0.0356 10e-4,0.0709 0.002,0.106201 h 13.764 c 10e-4,-0.0353 0.002,-0.0706 0.002,-0.106201 z"
         id="path11448"
         style="clip-rule:evenodd;fill:#af5e31;fill-rule:evenodd;stroke-width:0.00268817;image-rendering:optimizeQuality;shape-rendering:geometricPrecision;text-rendering:geometricPrecision" />
      <path
         class="fil36"
         d="m 53.17391,-0.40905427 h -2.462 c -1.072,0 -1.948998,0.877001 -1.948998,1.94890197 v 4.614601 c 0,1.071898 0.876998,1.948799 1.948998,1.948799 h 2.462 c 1.072,0 1.949,-0.876901 1.949,-1.948799 v -4.614601 c 0,-1.07190097 -0.877,-1.94890197 -1.949,-1.94890197 z"
         id="path11450"
         style="clip-rule:evenodd;fill:#cc7643;fill-rule:evenodd;stroke-width:0.00268817;image-rendering:optimizeQuality;shape-rendering:geometricPrecision;text-rendering:geometricPrecision" />
      <path
         class="fil36"
         d="m 60.91791,-0.40905427 h -2.462 c -1.072,0 -1.949,0.877001 -1.949,1.94890197 v 4.614601 c 0,1.071898 0.877,1.948799 1.949,1.948799 h 2.462 c 1.072,0 1.949,-0.876901 1.949,-1.948799 v -4.614601 c 0,-1.07190097 -0.877,-1.94890197 -1.949,-1.94890197 z"
         id="path11452"
         style="clip-rule:evenodd;fill:#cc7643;fill-rule:evenodd;stroke-width:0.00268817;image-rendering:optimizeQuality;shape-rendering:geometricPrecision;text-rendering:geometricPrecision" />
      <path
         class="fil0"
         d="m 62.56591,-18.437768 h 10.39601 c 1.441,0 2.61999,1.1791 2.61999,2.6202 v 4.387701 c 0,1.4411997 -1.17899,2.6202997 -2.61999,2.6202997 H 62.56591 c -1.442,0 -2.621,-1.1791 -2.621,-2.6202997 v -4.387701 c 0,-1.4411 1.179,-2.6202 2.621,-2.6202 z"
         id="path11454"
         style="clip-rule:evenodd;fill:#af5e31;fill-rule:evenodd;stroke-width:0.00268817;image-rendering:optimizeQuality;shape-rendering:geometricPrecision;text-rendering:geometricPrecision" />
      <path
         class="fil39"
         d="m 78.19392,-3.5974673 v -1.840701 c 0,-1.9079 -1.56101,-3.468899 -3.46901,-3.468899 h -6.26 c -1.908,0 -3.469,1.560999 -3.469,3.468899 v 1.840701 c 0,1.908 1.561,3.46899999 3.469,3.46899999 h 6.26 c 1.908,0 3.46901,-1.56099999 3.46901,-3.46899999 z"
         id="path11456"
         style="clip-rule:evenodd;fill:#924c2a;fill-rule:evenodd;stroke-width:0.00268817;image-rendering:optimizeQuality;shape-rendering:geometricPrecision;text-rendering:geometricPrecision" />
      <path
         class="fil11"
         d="m 75.64491,-7.0074673 v -0.920401 c 0,-0.953899 -0.781,-1.734399 -1.735,-1.734399 h -3.12999 c -0.95401,0 -1.73401,0.7805 -1.73401,1.734399 v 0.920401 c 0,0.954 0.78,1.7345 1.73401,1.7345 h 3.12999 c 0.954,0 1.735,-0.7805 1.735,-1.7345 z"
         id="path11458"
         style="clip-rule:evenodd;fill:#663333;fill-rule:evenodd;stroke-width:0.00268817;image-rendering:optimizeQuality;shape-rendering:geometricPrecision;text-rendering:geometricPrecision" />
      <path
         class="fil11"
         d="m 74.68291,-1.8979663 v 0 c 0,-0.496501 -0.40599,-0.9026 -0.903,-0.9026 h -2.227 c -0.49599,0 -0.903,0.406099 -0.903,0.9026 v 0 c 0,0.496501 0.40701,0.90259899 0.903,0.90259899 h 2.227 c 0.49701,0 0.903,-0.40609799 0.903,-0.90259899 z"
         id="path11460"
         style="clip-rule:evenodd;fill:#663333;fill-rule:evenodd;stroke-width:0.00268817;image-rendering:optimizeQuality;shape-rendering:geometricPrecision;text-rendering:geometricPrecision" />
      <path
         class="fil0"
         d="m 59.39191,-16.237068 v 0 c 0,-1.6491 -1.35,-2.9982 -2.999,-2.9982 h -4.472 c -1.649,0 -2.997999,1.3491 -2.997999,2.9982 v 0 c 0,1.649 1.348999,2.998101 2.997999,2.998101 h 4.472 c 1.649,0 2.999,-1.349101 2.999,-2.998101 z"
         id="path11462"
         style="clip-rule:evenodd;fill:#af5e31;fill-rule:evenodd;stroke-width:0.00268817;image-rendering:optimizeQuality;shape-rendering:geometricPrecision;text-rendering:geometricPrecision" />
      <path
         class="fil0"
         d="m 53.73691,-9.1079673 v 0 c 0,-1.1291997 -0.924,-2.0529997 -2.053,-2.0529997 h -3.062997 c -1.129001,0 -2.053003,0.9238 -2.053003,2.0529997 v 0 c 0,1.129201 0.924002,2.052999 2.053003,2.052999 h 3.062997 c 1.129,0 2.053,-0.923798 2.053,-2.052999 z"
         id="path11464"
         style="clip-rule:evenodd;fill:#af5e31;fill-rule:evenodd;stroke-width:0.00268817;image-rendering:optimizeQuality;shape-rendering:geometricPrecision;text-rendering:geometricPrecision" />
      <path
         class="fil1"
         d="m 62.65091,-31.194174 v 0 c -1.95,0 -3.546,1.595601 -3.546,3.545801 v 4.3773 c 0,1.9502 1.596,3.545801 3.546,3.545801 v 0 c 1.95,0 3.546,-1.595601 3.546,-3.545801 v -4.3773 c 0,-1.9502 -1.596,-3.545801 -3.546,-3.545801 z"
         id="path11466"
         style="clip-rule:evenodd;fill:#803d22;fill-rule:evenodd;stroke-width:0.00268817;image-rendering:optimizeQuality;shape-rendering:geometricPrecision;text-rendering:geometricPrecision" />
      <path
         class="fil0"
         d="m 62.65091,-29.756473 v 0 c -1.461,0 -2.657,1.2174 -2.657,2.7054 v 1.9081 c 0,0.6768 2.025,0.8126 2.638,0.8175 0.685,0.0054 2.676,-0.1012 2.676,-0.8883 v -1.8373 c 0,-1.488 -1.196,-2.7054 -2.657,-2.7054 z"
         id="path11468"
         style="clip-rule:evenodd;fill:#af5e31;fill-rule:evenodd;stroke-width:0.00268817;image-rendering:optimizeQuality;shape-rendering:geometricPrecision;text-rendering:geometricPrecision" />
      <path
         class="fil18"
         d="m 76.25591,-16.023868 v 0 c -0.358,-0.3581 -0.94399,-0.3581 -1.30199,0 l -5.105,5.104801 c -0.35801,0.358 -0.35801,0.9437997 0,1.3018997 v 0 c 0.35799,0.358 0.94399,0.358 1.30199,0 l 5.105,-5.1048007 c 0.358,-0.358 0.358,-0.9439 0,-1.3019 z"
         id="path11470"
         style="clip-rule:evenodd;fill:#333333;fill-rule:evenodd;stroke-width:0.00268817;image-rendering:optimizeQuality;shape-rendering:geometricPrecision;text-rendering:geometricPrecision" />
      <path
         class="fil18"
         d="m 69.84892,-16.023868 v 0 c 0.35799,-0.3581 0.94399,-0.3581 1.30199,0 l 5.105,5.104801 c 0.358,0.358 0.358,0.9437997 0,1.3018997 v 0 c -0.359,0.358 -0.94399,0.358 -1.30199,0 l -5.105,-5.1048007 c -0.35801,-0.358 -0.35801,-0.9439 0,-1.3019 z"
         id="path11472"
         style="clip-rule:evenodd;fill:#333333;fill-rule:evenodd;stroke-width:0.00268817;image-rendering:optimizeQuality;shape-rendering:geometricPrecision;text-rendering:geometricPrecision" />
      <path
         class="fil18"
         d="m 67.43591,-16.023868 v 0 c -0.358,-0.3581 -0.944,-0.3581 -1.302,0 l -5.105,5.104801 c -0.358,0.358 -0.358,0.9437997 0,1.3018997 v 0 c 0.358,0.358 0.944,0.358 1.302,0 l 5.105,-5.1048007 c 0.358,-0.358 0.358,-0.9439 0,-1.3019 z"
         id="path11474"
         style="clip-rule:evenodd;fill:#333333;fill-rule:evenodd;stroke-width:0.00268817;image-rendering:optimizeQuality;shape-rendering:geometricPrecision;text-rendering:geometricPrecision" />
      <path
         class="fil18"
         d="m 61.02891,-16.023868 v 0 c 0.358,-0.3581 0.944,-0.3581 1.302,0 l 5.105,5.104801 c 0.358,0.358 0.358,0.9437997 0,1.3018997 v 0 c -0.358,0.358 -0.944,0.358 -1.302,0 l -5.105,-5.1048007 c -0.358,-0.358 -0.358,-0.9439 0,-1.3019 z"
         id="path11476"
         style="clip-rule:evenodd;fill:#333333;fill-rule:evenodd;stroke-width:0.00268817;image-rendering:optimizeQuality;shape-rendering:geometricPrecision;text-rendering:geometricPrecision" />
    </g>
    <g
       id="g1331"
       transform="rotate(-89.260923,172.47883,52.960098)">
      <path
         class="fil1"
         d="m 13.747909,-6.5344663 v 0 c -2.334001,-2.436401 -6.2030033,-2.555701 -8.5980033,-0.2652 -3.704,3.543599 -9.422001,12.4749 -6.882001,15.072701 2.35900098,2.4127013 6.203,2.5558013 8.598001,0.2652 l 6.7720023,-6.478201 c 2.395001,-2.29050101 2.443999,-6.158 0.110001,-8.5945 z"
         id="path11478"
         style="clip-rule:evenodd;fill:#803d22;fill-rule:evenodd;stroke-width:0.00268817;image-rendering:optimizeQuality;shape-rendering:geometricPrecision;text-rendering:geometricPrecision" />
      <path
         class="fil0"
         d="m 1.6989047,10.094236 c 1.914002,0.383199 3.965001,-0.1473013 5.427001,-1.6009013 l 6.6480013,-6.606101 c 1.463,-1.45359901 2.006002,-3.501001 1.635,-5.416999 -5.004001,5.9895 -7.6650003,8.6874 -13.7100023,13.6240013 z"
         id="path11480"
         style="clip-rule:evenodd;fill:#af5e31;fill-rule:evenodd;stroke-width:0.00268817;image-rendering:optimizeQuality;shape-rendering:geometricPrecision;text-rendering:geometricPrecision" />
      <path
         class="fil1"
         d="m 5.9829057,-33.626774 v 0 c -1.379,1.379 -1.379,3.635501 0,5.014401 l 3.095001,3.0953 c 1.3790003,1.3789 3.6349993,1.3789 5.0140003,0 v 0 c 1.379,-1.379 1.379,-3.6355 0,-5.0145 l -3.095001,-3.095201 c -1.3790003,-1.379 -3.6349993,-1.379 -5.0140003,0 z"
         id="path11482"
         style="clip-rule:evenodd;fill:#803d22;fill-rule:evenodd;stroke-width:0.00268817;image-rendering:optimizeQuality;shape-rendering:geometricPrecision;text-rendering:geometricPrecision" />
      <path
         class="fil26"
         d="m 25.412909,-10.063267 -1.691,1.6904997 c -0.735999,0.736099 -0.735999,1.940501 0,2.676601 l 3.169,3.168899 c 0.735999,0.736002 1.941001,0.736002 2.677001,0 l 1.689999,-1.6905 c 0.736,-0.7361 0.736,-1.940499 0,-2.676599 L 28.08991,-10.063267 c -0.737002,-0.736 -1.941002,-0.736 -2.677001,0 z"
         id="path11484"
         style="clip-rule:evenodd;fill:#4f2615;fill-rule:evenodd;stroke-width:0.00268817;image-rendering:optimizeQuality;shape-rendering:geometricPrecision;text-rendering:geometricPrecision" />
      <path
         class="fil26"
         d="m 19.883908,-4.5339683 -1.690999,1.690503 c -0.736002,0.7361 -0.736002,1.94049899 0,2.67659899 l 3.168999,3.16880101 c 0.735999,0.7361 1.941002,0.7361 2.677001,0 l 1.69,-1.6905 c 0.735999,-0.73600201 0.735999,-1.94050201 0,-2.676501 l -3.168999,-3.168902 c -0.736003,-0.7361 -1.940002,-0.7361 -2.676002,0 z"
         id="path11486"
         style="clip-rule:evenodd;fill:#4f2615;fill-rule:evenodd;stroke-width:0.00268817;image-rendering:optimizeQuality;shape-rendering:geometricPrecision;text-rendering:geometricPrecision" />
      <path
         class="fil1"
         d="m 26.558909,-20.705872 -6.954001,-6.954001 c -3.704,-3.704401 -9.7660013,-3.704301 -13.4700013,0 l -8.026001,8.025601 c -3.704,3.704404 -3.704,9.7661047 0,13.4705047 l 6.953999,6.95400199 c 3.705003,3.70429901 9.7660043,3.70429901 13.4710043,0 l 8.025,-8.02570199 c 3.705,-3.7042997 3.705,-9.7660007 0,-13.4704047 z"
         id="path11488"
         style="clip-rule:evenodd;fill:#803d22;fill-rule:evenodd;stroke-width:0.00268817;image-rendering:optimizeQuality;shape-rendering:geometricPrecision;text-rendering:geometricPrecision" />
      <path
         class="fil0"
         d="m 27.28191,-8.1474673 v 0 c -1.231001,-1.2305 -3.47,-1.0051 -4.976,0.500901 l -4.259001,4.2594 c -1.506,1.506001 -1.731002,3.74499999 -0.501002,4.975501 v 0 c 0.025,0.02511 0.051,0.0494 0.077,0.0733 l 9.731999,-9.732301 c -0.024,-0.0259 -0.048,-0.0517 -0.073,-0.0768 z"
         id="path11490"
         style="clip-rule:evenodd;fill:#af5e31;fill-rule:evenodd;stroke-width:0.00268817;image-rendering:optimizeQuality;shape-rendering:geometricPrecision;text-rendering:geometricPrecision" />
      <path
         class="fil36"
         d="M 15.186909,-0.25026631 13.445908,1.4904337 c -0.756999,0.757999 -0.756999,1.998202 0,2.756101 l 3.263,3.263 c 0.758,0.758 1.998999,0.757899 2.757001,0 l 1.740001,-1.740699 c 0.757999,-0.757902 0.757999,-1.998102 0,-2.756101 l -3.263001,-3.26300101 c -0.758002,-0.75790099 -1.998001,-0.75790099 -2.756,0 z"
         id="path11492"
         style="clip-rule:evenodd;fill:#cc7643;fill-rule:evenodd;stroke-width:0.00268817;image-rendering:optimizeQuality;shape-rendering:geometricPrecision;text-rendering:geometricPrecision" />
      <path
         class="fil36"
         d="m 20.662908,-5.7261673 -1.741001,1.740702 c -0.756999,0.757899 -0.756999,1.998099 0,2.756098 l 3.263001,3.263001 c 0.758002,0.757901 1.999001,0.757901 2.757,0 l 1.740001,-1.74080001 c 0.757999,-0.757899 0.757999,-1.99809899 0,-2.75599999 l -3.263001,-3.263001 c -0.757999,-0.757999 -1.998001,-0.757999 -2.756,0 z"
         id="path11494"
         style="clip-rule:evenodd;fill:#cc7643;fill-rule:evenodd;stroke-width:0.00268817;image-rendering:optimizeQuality;shape-rendering:geometricPrecision;text-rendering:geometricPrecision" />
      <path
         class="fil0"
         d="m 9.1149057,-19.603972 7.3520013,-7.351601 c 1.019001,-1.019 2.686,-1.019 3.705,0 l 3.103002,3.1026 c 1.019,1.0191 1.019,2.686501 0,3.705601 l -7.352001,7.351605 c -1.019,1.019 -2.686,1.019 -3.705,0 l -3.1030023,-3.102601 c -1.019,-1.019 -1.019,-2.6865 0,-3.705604 z"
         id="path11496"
         style="clip-rule:evenodd;fill:#af5e31;fill-rule:evenodd;stroke-width:0.00268817;image-rendering:optimizeQuality;shape-rendering:geometricPrecision;text-rendering:geometricPrecision" />
      <path
         class="fil39"
         d="m 30.659909,-20.161172 -1.301999,-1.301601 c -1.349002,-1.3491 -3.556,-1.3491 -4.906002,0 l -4.426,4.426705 c -1.349,1.3492 -1.349,3.5568 0,4.905901 l 1.301001,1.3016 c 1.348999,1.3490997 3.557,1.3490997 4.905999,0 l 4.427001,-4.426801 c 1.349002,-1.3491 1.349002,-3.5567 0,-4.905804 z"
         id="path11498"
         style="clip-rule:evenodd;fill:#924c2a;fill-rule:evenodd;stroke-width:0.00268817;image-rendering:optimizeQuality;shape-rendering:geometricPrecision;text-rendering:geometricPrecision" />
      <path
         class="fil11"
         d="m 26.445908,-20.769772 -0.650999,-0.6508 c -0.673999,-0.674601 -1.778,-0.674601 -2.453,0 l -2.213001,2.213304 c -0.675,0.6746 -0.675,1.7784 0,2.4529 l 0.650999,0.6508 c 0.674003,0.6746 1.778003,0.6746 2.453003,0 l 2.212998,-2.2133 c 0.675,-0.6746 0.675,-1.778304 0,-2.452904 z"
         id="path11500"
         style="clip-rule:evenodd;fill:#663333;fill-rule:evenodd;stroke-width:0.00268817;image-rendering:optimizeQuality;shape-rendering:geometricPrecision;text-rendering:geometricPrecision" />
      <path
         class="fil11"
         d="m 29.37891,-16.476868 v 0 c -0.351002,-0.3511 -0.925002,-0.3511 -1.277001,0 l -1.574001,1.5749 c -0.350999,0.351 -0.350999,0.9254 0,1.2765 v 0 c 0.351002,0.351001 0.925002,0.351001 1.276001,0 l 1.575001,-1.5749 c 0.350999,-0.351 0.350999,-0.9255 0,-1.2765 z"
         id="path11502"
         style="clip-rule:evenodd;fill:#663333;fill-rule:evenodd;stroke-width:0.00268817;image-rendering:optimizeQuality;shape-rendering:geometricPrecision;text-rendering:geometricPrecision" />
      <path
         class="fil0"
         d="m 8.4269077,-15.803568 v 0 c -1.166001,-1.1661 -3.074001,-1.166 -4.240001,0 l -3.163001,3.162601 c -1.16600102,1.166 -1.16600102,3.0739997 0,4.2400997 v 0 c 1.166,1.166001 3.074,1.166001 4.241001,0 l 3.162001,-3.1625997 c 1.166,-1.166101 1.166,-3.074101 0,-4.240101 z"
         id="path11504"
         style="clip-rule:evenodd;fill:#af5e31;fill-rule:evenodd;stroke-width:0.00268817;image-rendering:optimizeQuality;shape-rendering:geometricPrecision;text-rendering:geometricPrecision" />
      <path
         class="fil0"
         d="m 9.4699057,-6.7639663 v 0 c -0.799,-0.798401 -2.104999,-0.798401 -2.903998,0 l -2.165001,2.165699 c -0.799002,0.7985 -0.799002,2.105002 0,2.903501 v 0 c 0.797999,0.79840099 2.103999,0.79840099 2.903001,0 l 2.165998,-2.165699 c 0.7980023,-0.798502 0.7980023,-2.105002 0,-2.903403 z"
         id="path11506"
         style="clip-rule:evenodd;fill:#af5e31;fill-rule:evenodd;stroke-width:0.00268817;image-rendering:optimizeQuality;shape-rendering:geometricPrecision;text-rendering:geometricPrecision" />
      <path
         class="fil1"
         d="m 0.15490568,-28.684373 v 0 c -1.37900098,1.379 -1.37900098,3.6355 0,5.0145 l 3.09600002,3.095201 c 1.379001,1.379004 3.635,1.379004 5.014,0 v 0 c 1.379,-1.379001 1.379,-3.635501 0,-5.014501 l -3.095001,-3.0952 c -1.378997,-1.379 -3.635999,-1.379 -5.01499902,0 z"
         id="path11508"
         style="clip-rule:evenodd;fill:#803d22;fill-rule:evenodd;stroke-width:0.00268817;image-rendering:optimizeQuality;shape-rendering:geometricPrecision;text-rendering:geometricPrecision" />
      <path
         class="fil0"
         d="m 1.1719057,-27.667773 v 0 c -1.03300002,1.0332 -1.01800102,2.7394 0.034,3.7915 l 1.35,1.3493 c 0.477999,0.478601 2.005999,-0.8572 2.442998,-1.2873 0.488,-0.4807 1.820003,-1.9635 1.264002,-2.52 l -1.299001,-1.2992 c -1.051999,-1.0522 -2.759001,-1.0676 -3.792,-0.0344 z"
         id="path11510"
         style="clip-rule:evenodd;fill:#af5e31;fill-rule:evenodd;stroke-width:0.00268817;image-rendering:optimizeQuality;shape-rendering:geometricPrecision;text-rendering:geometricPrecision" />
      <path
         class="fil18"
         d="m 20.501909,-27.577373 v 0 c -0.506,0 -0.920001,0.4142 -0.920001,0.9206 v 7.219201 c 0,0.506404 0.414001,0.920604 0.920001,0.920604 v 0 c 0.507,0 0.920999,-0.4142 0.920999,-0.920604 v -7.219201 c 0,-0.5064 -0.413999,-0.9206 -0.920999,-0.9206 z"
         id="path11512"
         style="clip-rule:evenodd;fill:#333333;fill-rule:evenodd;stroke-width:0.00268817;image-rendering:optimizeQuality;shape-rendering:geometricPrecision;text-rendering:geometricPrecision" />
      <path
         class="fil18"
         d="m 15.971909,-23.047173 v 0 c 0,-0.5064 0.413999,-0.9206 0.920999,-0.9206 h 7.219 c 0.505999,0 0.921001,0.4142 0.921001,0.9206 v 0 c 0,0.5064 -0.415002,0.920601 -0.921001,0.920601 h -7.219 c -0.507,0 -0.920999,-0.414201 -0.920999,-0.920601 z"
         id="path11514"
         style="clip-rule:evenodd;fill:#333333;fill-rule:evenodd;stroke-width:0.00268817;image-rendering:optimizeQuality;shape-rendering:geometricPrecision;text-rendering:geometricPrecision" />
      <path
         class="fil18"
         d="m 14.265907,-21.341072 v 0 c -0.505999,0 -0.919998,0.414199 -0.919998,0.9206 v 7.219204 c 0,0.506401 0.413999,0.920601 0.919998,0.920601 v 0 c 0.506,0 0.921002,-0.4142 0.921002,-0.920601 v -7.219204 c 0,-0.506401 -0.415002,-0.9206 -0.921002,-0.9206 z"
         id="path11516"
         style="clip-rule:evenodd;fill:#333333;fill-rule:evenodd;stroke-width:0.00268817;image-rendering:optimizeQuality;shape-rendering:geometricPrecision;text-rendering:geometricPrecision" />
      <path
         class="fil18"
         d="m 9.7359067,-16.810868 v 0 c 0,-0.5063 0.4139993,-0.9206 0.9199993,-0.9206 h 7.220003 c 0.506,0 0.919998,0.4143 0.919998,0.9206 v 0 c 0,0.5064 -0.413998,0.9206 -0.919998,0.9206 h -7.220003 c -0.506,0 -0.9199993,-0.4142 -0.9199993,-0.9206 z"
         id="path11518"
         style="clip-rule:evenodd;fill:#333333;fill-rule:evenodd;stroke-width:0.00268817;image-rendering:optimizeQuality;shape-rendering:geometricPrecision;text-rendering:geometricPrecision" />
    </g>
    <g
       id="g1354"
       transform="translate(198.16391,221.2654)">
      <path
         class="fil1"
         d="m -28.905097,-12.245867 v 0 c -0.073,3.3732997 2.579,6.1936007 5.892001,6.2670997 5.125,0.1139 15.4830007,-2.158799 15.5240007,-5.7914997 0.038,-3.374001 -2.5789987,-6.193701 -5.8920007,-6.267201 l -9.370002,-0.2081 c -3.311999,-0.0735 -6.081999,2.6263 -6.153999,5.999701 z"
         id="path11520"
         style="clip-rule:evenodd;fill:#803d22;fill-rule:evenodd;stroke-width:0.00268817;image-rendering:optimizeQuality;shape-rendering:geometricPrecision;text-rendering:geometricPrecision" />
      <path
         class="fil0"
         d="m -8.6270943,-15.483968 c -1.082,-1.6243 -2.9080007,-2.6994 -4.9700017,-2.7059 l -9.372,-0.0295 c -2.062001,-0.0065 -3.894001,1.0571 -4.986001,2.6746 7.773,-0.6972 11.563001,-0.7227 19.3280027,0.0608 z"
         id="path11522"
         style="clip-rule:evenodd;fill:#af5e31;fill-rule:evenodd;stroke-width:0.00268817;image-rendering:optimizeQuality;shape-rendering:geometricPrecision;text-rendering:geometricPrecision" />
      <path
         class="fil1"
         d="m -42.5721,12.402334 v 0 c 1.951001,0 3.546001,-1.595599 3.546001,-3.5458003 v -4.377298 c 0,-1.950202 -1.595,-3.54580101 -3.546001,-3.54580101 v 0 c -1.95,0 -3.545,1.59559901 -3.545,3.54580101 v 4.377298 c 0,1.9502013 1.595,3.5458003 3.545,3.5458003 z"
         id="path11524"
         style="clip-rule:evenodd;fill:#803d22;fill-rule:evenodd;stroke-width:0.00268817;image-rendering:optimizeQuality;shape-rendering:geometricPrecision;text-rendering:geometricPrecision" />
      <path
         class="fil26"
         d="m -39.649099,-17.998968 h 2.391 c 1.041001,0 1.892001,-0.8516 1.892001,-1.892604 v -4.481401 c 0,-1.041 -0.851,-1.8926 -1.892001,-1.8926 h -2.391 c -1.041,0 -1.893,0.8516 -1.893,1.8926 v 4.481401 c 0,1.041004 0.852,1.892604 1.893,1.892604 z"
         id="path11526"
         style="clip-rule:evenodd;fill:#4f2615;fill-rule:evenodd;stroke-width:0.00268817;image-rendering:optimizeQuality;shape-rendering:geometricPrecision;text-rendering:geometricPrecision" />
      <path
         class="fil26"
         d="m -31.829098,-17.998968 h 2.390001 c 1.040999,0 1.893,-0.8516 1.893,-1.892604 v -4.481401 c 0,-1.041 -0.852001,-1.8926 -1.893,-1.8926 h -2.390001 c -1.041,0 -1.893,0.8516 -1.893,1.8926 v 4.481401 c 0,1.041004 0.852,1.892604 1.893,1.892604 z"
         id="path11528"
         style="clip-rule:evenodd;fill:#4f2615;fill-rule:evenodd;stroke-width:0.00268817;image-rendering:optimizeQuality;shape-rendering:geometricPrecision;text-rendering:geometricPrecision" />
      <path
         class="fil1"
         d="m -47.9851,-11.284067 v 9.8343997 c 0,5.238801 4.286,9.525003 9.525002,9.525003 h 11.350001 c 5.239001,0 9.525,-4.286202 9.525,-9.525003 v -9.8343997 c 0,-5.238801 -4.285999,-9.525005 -9.525,-9.525005 h -11.350001 c -5.239002,0 -9.525002,4.286204 -9.525002,9.525005 z"
         id="path11530"
         style="clip-rule:evenodd;fill:#803d22;fill-rule:evenodd;stroke-width:0.00268817;image-rendering:optimizeQuality;shape-rendering:geometricPrecision;text-rendering:geometricPrecision" />
      <path
         class="fil0"
         d="m -39.616099,-20.675072 v 0 c 0,1.740204 1.743001,3.164004 3.873001,3.164004 h 6.023 c 2.130001,0 3.873001,-1.4238 3.873001,-3.164004 v 0 c 0,-0.0355 -10e-4,-0.0709 -0.003,-0.1062 h -13.763002 c -0.002,0.0353 -0.003,0.0707 -0.003,0.1062 z"
         id="path11532"
         style="clip-rule:evenodd;fill:#af5e31;fill-rule:evenodd;stroke-width:0.00268817;image-rendering:optimizeQuality;shape-rendering:geometricPrecision;text-rendering:geometricPrecision" />
      <path
         class="fil36"
         d="m -25.479097,-17.757081 h 2.461 c 1.072,0 1.949001,-0.877 1.949001,-1.948904 v -4.614601 c 0,-1.0719 -0.877001,-1.9488 -1.949001,-1.9488 h -2.461 c -1.072,0 -1.949,0.8769 -1.949,1.9488 v 4.614601 c 0,1.071904 0.877,1.948904 1.949,1.948904 z"
         id="path11534"
         style="clip-rule:evenodd;fill:#cc7643;fill-rule:evenodd;stroke-width:0.00268817;image-rendering:optimizeQuality;shape-rendering:geometricPrecision;text-rendering:geometricPrecision" />
      <path
         class="fil36"
         d="m -33.224098,-17.757081 h 2.462 c 1.072,0 1.949,-0.877 1.949,-1.948904 v -4.614601 c 0,-1.0719 -0.877,-1.9488 -1.949,-1.9488 h -2.462 c -1.071,0 -1.948,0.8769 -1.948,1.9488 v 4.614601 c 0,1.071904 0.877,1.948904 1.948,1.948904 z"
         id="path11536"
         style="clip-rule:evenodd;fill:#cc7643;fill-rule:evenodd;stroke-width:0.00268817;image-rendering:optimizeQuality;shape-rendering:geometricPrecision;text-rendering:geometricPrecision" />
      <path
         class="fil0"
         d="M -34.871098,0.27163269 H -45.2681 c -1.441,0 -2.62,-1.1791 -2.62,-2.62019999 v -4.3877 c 0,-1.441201 1.179,-2.6203 2.62,-2.6203 h 10.397002 c 1.441,0 2.62,1.179099 2.62,2.6203 v 4.3877 c 0,1.44109999 -1.179,2.62019999 -2.62,2.62019999 z"
         id="path11538"
         style="clip-rule:evenodd;fill:#af5e31;fill-rule:evenodd;stroke-width:0.00268817;image-rendering:optimizeQuality;shape-rendering:geometricPrecision;text-rendering:geometricPrecision" />
      <path
         class="fil39"
         d="m -50.4991,-14.568668 v 1.840701 c 0,1.9079 1.561,3.4688997 3.469,3.4688997 h 6.260001 c 1.908,0 3.469001,-1.5609997 3.469001,-3.4688997 v -1.840701 c 0,-1.908 -1.561001,-3.469 -3.469001,-3.469 H -47.0301 c -1.908,0 -3.469,1.561 -3.469,3.469 z"
         id="path11540"
         style="clip-rule:evenodd;fill:#924c2a;fill-rule:evenodd;stroke-width:0.00268817;image-rendering:optimizeQuality;shape-rendering:geometricPrecision;text-rendering:geometricPrecision" />
      <path
         class="fil11"
         d="m -47.9501,-11.158667 v 0.9203 c 0,0.9539997 0.78,1.7344997 1.734,1.7344997 h 3.131001 c 0.954,0 1.734,-0.7805 1.734,-1.7344997 v -0.9203 c 0,-0.954 -0.78,-1.7345 -1.734,-1.7345 H -46.2161 c -0.954,0 -1.734,0.7805 -1.734,1.7345 z"
         id="path11542"
         style="clip-rule:evenodd;fill:#663333;fill-rule:evenodd;stroke-width:0.00268817;image-rendering:optimizeQuality;shape-rendering:geometricPrecision;text-rendering:geometricPrecision" />
      <path
         class="fil11"
         d="m -46.9881,-16.268168 v 0 c 0,0.4965 0.406,0.9026 0.902,0.9026 h 2.227 c 0.497,0 0.903001,-0.4061 0.903001,-0.9026 v 0 c 0,-0.4965 -0.406001,-0.9027 -0.903001,-0.9027 h -2.227 c -0.496,0 -0.902,0.4062 -0.902,0.9027 z"
         id="path11544"
         style="clip-rule:evenodd;fill:#663333;fill-rule:evenodd;stroke-width:0.00268817;image-rendering:optimizeQuality;shape-rendering:geometricPrecision;text-rendering:geometricPrecision" />
      <path
         class="fil0"
         d="m -31.697098,-1.9290653 v 0 c 0,1.64909999 1.349,2.9982 2.998,2.9982 h 4.473001 c 1.649,0 2.997999,-1.34910001 2.997999,-2.9982 v 0 c 0,-1.649003 -1.348999,-2.9982 -2.997999,-2.9982 h -4.473001 c -1.649,0 -2.998,1.349197 -2.998,2.9982 z"
         id="path11546"
         style="clip-rule:evenodd;fill:#af5e31;fill-rule:evenodd;stroke-width:0.00268817;image-rendering:optimizeQuality;shape-rendering:geometricPrecision;text-rendering:geometricPrecision" />
      <path
         class="fil0"
         d="m -26.042097,-9.0581673 v 0 c 0,1.1291 0.924,2.052999 2.053001,2.052999 h 3.061999 c 1.130001,0 2.054,-0.923899 2.054,-2.052999 v 0 c 0,-1.1291997 -0.923999,-2.0529997 -2.054,-2.0529997 h -3.061999 c -1.129001,0 -2.053001,0.9238 -2.053001,2.0529997 z"
         id="path11548"
         style="clip-rule:evenodd;fill:#af5e31;fill-rule:evenodd;stroke-width:0.00268817;image-rendering:optimizeQuality;shape-rendering:geometricPrecision;text-rendering:geometricPrecision" />
      <path
         class="fil1"
         d="m -34.956098,13.028034 v 0 c 1.95,0 3.546,-1.595599 3.546,-3.5458003 v -4.377298 c 0,-1.950202 -1.596,-3.545801 -3.546,-3.545801 v 0 c -1.95,0 -3.546001,1.595599 -3.546001,3.545801 v 4.377298 c 0,1.9502013 1.596001,3.5458003 3.546001,3.5458003 z"
         id="path11550"
         style="clip-rule:evenodd;fill:#803d22;fill-rule:evenodd;stroke-width:0.00268817;image-rendering:optimizeQuality;shape-rendering:geometricPrecision;text-rendering:geometricPrecision" />
      <path
         class="fil0"
         d="m -34.956098,11.590236 v 0 c 1.461,0 2.657,-1.217301 2.657,-2.7053023 v -1.908198 c 0,-0.676701 -2.025,-0.812501 -2.638,-0.817401 -0.686,-0.0054 -2.676,0.1012 -2.676,0.888301 v 1.837298 c 0,1.4880013 1.195,2.7053023 2.657,2.7053023 z"
         id="path11552"
         style="clip-rule:evenodd;fill:#af5e31;fill-rule:evenodd;stroke-width:0.00268817;image-rendering:optimizeQuality;shape-rendering:geometricPrecision;text-rendering:geometricPrecision" />
      <path
         class="fil18"
         d="m -48.5611,-2.1422673 v 0 c 0.358,0.358101 0.944,0.358101 1.302,0 l 5.105001,-5.104799 c 0.358,-0.358 0.358,-0.9438 0,-1.301901 v 0 c -0.358,-0.358 -0.944,-0.358 -1.302,0 l -5.105001,5.1048 c -0.358,0.357999 -0.358,0.943901 0,1.3019 z"
         id="path11554"
         style="clip-rule:evenodd;fill:#333333;fill-rule:evenodd;stroke-width:0.00268817;image-rendering:optimizeQuality;shape-rendering:geometricPrecision;text-rendering:geometricPrecision" />
      <path
         class="fil18"
         d="m -42.154099,-2.1422673 v 0 c -0.358,0.358101 -0.944,0.358101 -1.302,0 l -5.105001,-5.104799 c -0.358,-0.358 -0.358,-0.9438 0,-1.301901 v 0 c 0.358,-0.358 0.944,-0.358 1.302,0 l 5.105001,5.1048 c 0.358,0.357999 0.358,0.943901 0,1.3019 z"
         id="path11556"
         style="clip-rule:evenodd;fill:#333333;fill-rule:evenodd;stroke-width:0.00268817;image-rendering:optimizeQuality;shape-rendering:geometricPrecision;text-rendering:geometricPrecision" />
      <path
         class="fil18"
         d="m -39.742099,-2.1422673 v 0 c 0.359,0.358101 0.944,0.358101 1.302,0 l 5.105001,-5.104799 c 0.358,-0.358 0.358,-0.9438 0,-1.301901 v 0 c -0.358,-0.358 -0.944,-0.358 -1.302,0 l -5.105001,5.1048 c -0.358,0.357999 -0.358,0.943901 0,1.3019 z"
         id="path11558"
         style="clip-rule:evenodd;fill:#333333;fill-rule:evenodd;stroke-width:0.00268817;image-rendering:optimizeQuality;shape-rendering:geometricPrecision;text-rendering:geometricPrecision" />
      <path
         class="fil18"
         d="m -33.335098,-2.1422673 v 0 c -0.358,0.358101 -0.944,0.358101 -1.302,0 l -5.104001,-5.104799 c -0.359,-0.358 -0.359,-0.9438 0,-1.301901 v 0 c 0.358,-0.358 0.943,-0.358 1.301,0 l 5.105001,5.1048 c 0.358,0.357999 0.358,0.943901 0,1.3019 z"
         id="path11560"
         style="clip-rule:evenodd;fill:#333333;fill-rule:evenodd;stroke-width:0.00268817;image-rendering:optimizeQuality;shape-rendering:geometricPrecision;text-rendering:geometricPrecision" />
    </g>
    <g
       id="g1173"
       transform="translate(28.865109,6.280834)">
      <path
         class="fil22"
         d="m 64.794591,115.39887 c -1.65801,0 -3.268,0.204 -4.808,0.5858 v 0 c 0.132,0.0327 0.26299,0.0668 0.39399,0.1021 l 0.0209,0.006 c 0.801,0.2171 1.58099,0.4824 2.33799,0.7934 l 0.0119,0.005 c 0.123,0.0506 0.245,0.1024 0.367,0.1555 l 0.0169,0.008 c 0.74502,0.3249 1.465,0.6937 2.159,1.1037 l 0.035,0.0205 c 0.108,0.0642 0.215,0.1293 0.32199,0.1954 l 0.029,0.0185 c 0.55901,0.3479 1.10001,0.7225 1.621,1.1224 0.0161,0.0129 0.033,0.0256 0.05,0.0385 0.091,0.0705 0.181,0.1418 0.27101,0.2138 l 0.063,0.0511 c 0.09,0.0722 0.17899,0.145 0.26699,0.2188 0.0161,0.0134 0.032,0.027 0.048,0.0405 0.38801,0.3269 0.76301,0.6682 1.12501,1.0234 0.018,0.0177 0.036,0.0351 0.054,0.0529 0.076,0.0749 0.151,0.1507 0.225,0.2268 0.028,0.0279 0.055,0.0558 0.082,0.0839 0.071,0.0727 0.14099,0.1461 0.21,0.22 0.029,0.0314 0.059,0.063 0.088,0.0945 0.069,0.0742 0.137,0.1488 0.205,0.2241 0.0249,0.0277 0.05,0.0558 0.074,0.0837 0.23101,0.2593 0.455,0.5245 0.67199,0.7957 0.0209,0.027 0.043,0.0537 0.065,0.0809 0.058,0.0735 0.11501,0.1479 0.17301,0.2224 0.032,0.0421 0.064,0.0841 0.097,0.1264 0.053,0.0712 0.107,0.143 0.15899,0.215 0.035,0.0469 0.069,0.0939 0.10301,0.1411 0.051,0.0702 0.10199,0.1408 0.15099,0.2118 0.035,0.0496 0.07,0.0996 0.10401,0.1495 0.049,0.071 0.098,0.142 0.146,0.2136 0.033,0.0486 0.064,0.0979 0.097,0.1468 0.121,0.184 0.239,0.3696 0.35402,0.5578 l 0.005,0.007 c 0.042,0.0689 0.082,0.1386 0.12399,0.208 0.034,0.0584 0.069,0.1167 0.103,0.1754 0.04,0.0676 0.078,0.1357 0.11599,0.2038 0.035,0.0624 0.071,0.1248 0.10502,0.1876 0.037,0.0665 0.073,0.1335 0.109,0.2005 0.035,0.0655 0.069,0.1312 0.10399,0.197 0.034,0.0658 0.068,0.1318 0.10199,0.198 0.035,0.0698 0.07,0.1402 0.10401,0.2104 0.032,0.0634 0.063,0.1267 0.094,0.1905 0.041,0.0862 0.081,0.1731 0.12099,0.2601 0.035,0.0748 0.069,0.1497 0.102,0.225 0.047,0.1041 0.093,0.2085 0.138,0.3136 0.0241,0.0584 0.048,0.1174 0.073,0.1761 0.033,0.0809 0.067,0.1619 0.099,0.2433 0.0251,0.0619 0.049,0.1243 0.073,0.1865 0.031,0.0796 0.061,0.1594 0.091,0.2395 0.023,0.0625 0.046,0.1251 0.069,0.188 0.03,0.0824 0.058,0.1651 0.087,0.248 0.0209,0.0604 0.042,0.1207 0.062,0.1814 0.031,0.0919 0.061,0.1844 0.09,0.2768 0.0169,0.0523 0.034,0.1043 0.05,0.1567 0.044,0.142 0.087,0.2846 0.128,0.428 0.0101,0.037 0.0201,0.0743 0.03,0.1113 0.031,0.11 0.061,0.2202 0.09,0.331 0.014,0.0566 0.028,0.1135 0.042,0.1703 0.0241,0.0929 0.047,0.1858 0.069,0.2791 0.014,0.0602 0.027,0.1207 0.041,0.1812 0.0209,0.0913 0.04,0.1829 0.06,0.2747 0.013,0.0608 0.0249,0.1218 0.038,0.1828 0.019,0.0956 0.037,0.1915 0.055,0.2875 0.0101,0.0564 0.0209,0.1126 0.031,0.1692 0.0201,0.1169 0.039,0.2344 0.058,0.352 0.006,0.0356 0.0119,0.0711 0.0169,0.1068 0.0241,0.1526 0.045,0.3057 0.065,0.4596 0.005,0.044 0.01,0.0883 0.0151,0.1324 0.014,0.1117 0.027,0.2236 0.039,0.3358 0.006,0.0568 0.0111,0.1137 0.0159,0.1705 0.01,0.1006 0.019,0.2013 0.027,0.3023 0.005,0.0608 0.01,0.1217 0.014,0.1827 0.007,0.0995 0.013,0.1992 0.0191,0.299 0.003,0.0597 0.007,0.1193 0.0101,0.1791 0.005,0.1076 0.008,0.2156 0.0119,0.3236 0.003,0.0517 0.004,0.1033 0.005,0.1552 0.004,0.1591 0.006,0.3187 0.006,0.4787 0,0.1601 -0.003,0.3197 -0.006,0.4787 0,0.0518 -0.003,0.1035 -0.005,0.1552 -0.004,0.108 -0.007,0.216 -0.0119,0.3236 -0.003,0.0598 -0.007,0.1194 -0.0101,0.1791 -0.006,0.0998 -0.0119,0.1995 -0.0191,0.299 -0.004,0.061 -0.009,0.1219 -0.014,0.1827 -0.008,0.101 -0.0169,0.2017 -0.027,0.3023 -0.005,0.0569 -0.0101,0.1138 -0.0159,0.1705 -0.0119,0.1122 -0.0251,0.2241 -0.039,0.3358 -0.005,0.0441 -0.0101,0.0884 -0.0151,0.1325 -0.0201,0.1537 -0.041,0.307 -0.065,0.4596 -0.005,0.0357 -0.0111,0.0711 -0.0169,0.1067 -0.018,0.1177 -0.038,0.2351 -0.058,0.3521 -0.0101,0.0565 -0.0209,0.1127 -0.031,0.1691 -0.018,0.096 -0.036,0.1919 -0.055,0.2875 -0.013,0.0611 -0.0249,0.122 -0.038,0.1828 -0.0201,0.0918 -0.04,0.1834 -0.06,0.2747 -0.014,0.0605 -0.027,0.121 -0.041,0.1812 -0.022,0.0934 -0.045,0.1863 -0.069,0.2791 -0.014,0.0568 -0.028,0.1137 -0.042,0.1703 -0.029,0.1108 -0.059,0.2209 -0.09,0.331 -0.0101,0.037 -0.0201,0.0744 -0.03,0.1113 -0.041,0.1434 -0.083,0.2861 -0.128,0.428 -0.0159,0.0524 -0.033,0.1044 -0.05,0.1567 -0.029,0.0925 -0.059,0.1849 -0.09,0.2768 -0.0201,0.0606 -0.041,0.121 -0.062,0.1814 -0.028,0.0829 -0.058,0.1656 -0.087,0.2481 -0.023,0.0628 -0.046,0.1254 -0.069,0.1879 -0.03,0.0801 -0.06,0.1599 -0.091,0.2395 -0.0241,0.0623 -0.048,0.1246 -0.073,0.1865 -0.032,0.0814 -0.066,0.1623 -0.099,0.2433 -0.0249,0.0588 -0.049,0.1177 -0.073,0.1761 -0.045,0.1051 -0.091,0.2096 -0.138,0.3137 -0.033,0.0751 -0.067,0.1501 -0.102,0.2249 -0.04,0.0869 -0.08,0.1739 -0.12099,0.2601 -0.031,0.0638 -0.062,0.1271 -0.094,0.1905 -0.034,0.0703 -0.069,0.14061 -0.10401,0.21041 -0.034,0.0663 -0.068,0.13209 -0.10199,0.19799 -0.035,0.0659 -0.069,0.1315 -0.10399,0.197 -0.036,0.0671 -0.072,0.1339 -0.109,0.2006 -0.034,0.0627 -0.07,0.1251 -0.10502,0.1875 -0.038,0.0681 -0.076,0.13621 -0.11599,0.2038 -0.034,0.0588 -0.069,0.117 -0.103,0.1754 -0.041,0.0695 -0.082,0.1391 -0.12399,0.208 l -0.005,0.007 c -0.11502,0.1881 -0.23302,0.3737 -0.35402,0.5577 -0.033,0.049 -0.065,0.0982 -0.097,0.1468 -0.048,0.0717 -0.097,0.1426 -0.146,0.2136 -0.034,0.0499 -0.069,0.0999 -0.10401,0.1495 -0.049,0.071 -0.1,0.1416 -0.15099,0.2118 -0.034,0.0473 -0.068,0.0942 -0.10301,0.1411 -0.052,0.0721 -0.10599,0.1438 -0.15899,0.215 -0.033,0.0423 -0.065,0.0843 -0.097,0.1264 -0.058,0.0745 -0.11502,0.1489 -0.17301,0.2225 -0.022,0.0271 -0.044,0.0538 -0.065,0.0808 -0.21699,0.2711 -0.44098,0.5365 -0.67199,0.7957 -0.0241,0.0279 -0.049,0.056 -0.074,0.0838 -0.068,0.0753 -0.136,0.1498 -0.205,0.224 -0.029,0.0316 -0.059,0.0632 -0.088,0.0945 -0.069,0.074 -0.13899,0.1472 -0.21,0.22001 -0.027,0.0281 -0.054,0.056 -0.082,0.0839 -0.074,0.0762 -0.14901,0.1519 -0.225,0.2268 -0.018,0.0178 -0.036,0.0353 -0.054,0.053 -0.362,0.355 -0.737,0.6965 -1.12501,1.0233 -0.0159,0.0135 -0.032,0.0271 -0.048,0.0405 -0.088,0.0738 -0.17701,0.1466 -0.26699,0.2188 l -0.063,0.0511 c -0.09,0.072 -0.18002,0.1433 -0.27101,0.2138 l -0.05,0.0385 c -0.52099,0.3999 -1.06098,0.7747 -1.621,1.1225 l -0.029,0.0184 c -0.10699,0.0662 -0.21399,0.1312 -0.32199,0.1954 l -0.035,0.0205 c -0.694,0.4099 -1.41398,0.7789 -2.159,1.1038 l -0.0169,0.008 c -0.122,0.0529 -0.244,0.1048 -0.367,0.1554 l -0.0119,0.005 c -0.757,0.3109 -1.53699,0.5764 -2.33799,0.7934 l -0.0209,0.006 c -0.131,0.0353 -0.26199,0.0694 -0.39399,0.1021 v 0 c 1.54,0.3818 3.14999,0.5858 4.808,0.5858 10.999,0 19.91501,-8.9162 19.91501,-19.9149 0,-10.99871 -8.91601,-19.91491 -19.91501,-19.91491 z"
         id="path11562"
         style="clip-rule:evenodd;fill:#e6e6e6;fill-rule:evenodd;stroke-width:0.00268817;image-rendering:optimizeQuality;shape-rendering:geometricPrecision;text-rendering:geometricPrecision" />
      <path
         class="fil13"
         d="m 64.143591,115.39887 c -1.411,0 -2.78101,0.204 -4.09102,0.5858 v 0 c 0.112,0.0327 0.22402,0.0668 0.33502,0.1021 l 0.018,0.006 c 0.68101,0.2171 1.34501,0.4824 1.989,0.7934 l 0.0111,0.005 c 0.10398,0.0506 0.20799,0.1024 0.31199,0.1555 l 0.0151,0.008 c 0.63299,0.3249 1.24601,0.6937 1.836,1.1037 l 0.03,0.0205 c 0.092,0.0642 0.18298,0.1293 0.274,0.1954 l 0.0249,0.0185 c 0.47598,0.3479 0.93599,0.7225 1.37798,1.1224 0.0151,0.0129 0.029,0.0256 0.043,0.0385 0.078,0.0705 0.15499,0.1418 0.23098,0.2138 l 0.054,0.0511 c 0.076,0.0722 0.152,0.145 0.22701,0.2188 0.013,0.0134 0.027,0.027 0.04,0.0405 0.32998,0.3269 0.65,0.6682 0.95797,1.0234 0.0151,0.0177 0.031,0.0351 0.046,0.0529 0.064,0.0749 0.12801,0.1507 0.19101,0.2268 0.0241,0.0279 0.047,0.0558 0.07,0.0839 0.06,0.0727 0.11998,0.1461 0.17899,0.22 0.0249,0.0314 0.05,0.063 0.074,0.0945 0.059,0.0742 0.117,0.1488 0.175,0.2241 0.0209,0.0277 0.042,0.0558 0.063,0.0837 0.19601,0.2593 0.38701,0.5245 0.571,0.7957 0.019,0.027 0.038,0.0537 0.056,0.0809 0.049,0.0735 0.098,0.1479 0.14701,0.2224 0.027,0.0421 0.055,0.0841 0.082,0.1264 0.046,0.0712 0.091,0.143 0.136,0.215 0.03,0.0469 0.059,0.0939 0.088,0.1411 0.043,0.0702 0.086,0.1408 0.128,0.2118 0.03,0.0496 0.059,0.0996 0.089,0.1495 0.041,0.071 0.083,0.142 0.12398,0.2136 0.027,0.0486 0.055,0.0979 0.082,0.1468 0.103,0.184 0.20402,0.3696 0.30202,0.5578 l 0.003,0.007 c 0.036,0.0689 0.071,0.1386 0.10599,0.208 0.029,0.0584 0.059,0.1167 0.088,0.1754 0.034,0.0676 0.066,0.1357 0.099,0.2038 0.03,0.0624 0.06,0.1248 0.089,0.1876 0.031,0.0665 0.062,0.1335 0.092,0.2005 0.03,0.0655 0.06,0.1312 0.089,0.197 0.029,0.0658 0.058,0.1318 0.087,0.198 0.03,0.0698 0.059,0.1402 0.089,0.2104 0.0259,0.0634 0.053,0.1267 0.079,0.1905 0.035,0.0862 0.069,0.1731 0.10298,0.2601 0.03,0.0748 0.059,0.1497 0.087,0.225 0.04,0.1041 0.079,0.2085 0.117,0.3136 0.0209,0.0584 0.042,0.1174 0.062,0.1761 0.029,0.0809 0.057,0.1619 0.085,0.2433 0.0209,0.0619 0.041,0.1243 0.062,0.1865 0.0259,0.0796 0.052,0.1594 0.077,0.2395 0.0201,0.0625 0.04,0.1251 0.059,0.188 0.0251,0.0824 0.05,0.1651 0.074,0.248 0.018,0.0604 0.036,0.1207 0.053,0.1814 0.0259,0.0919 0.052,0.1844 0.077,0.2768 0.014,0.0523 0.029,0.1043 0.042,0.1567 0.038,0.142 0.074,0.2846 0.10898,0.428 0.009,0.037 0.0169,0.0743 0.0259,0.1113 0.0259,0.11 0.051,0.2202 0.076,0.331 0.0119,0.0566 0.0241,0.1135 0.036,0.1703 0.0201,0.0929 0.039,0.1858 0.058,0.2791 0.0119,0.0602 0.0241,0.1207 0.035,0.1812 0.018,0.0913 0.035,0.1829 0.051,0.2747 0.0111,0.0608 0.022,0.1218 0.032,0.1828 0.0169,0.0956 0.032,0.1915 0.047,0.2875 0.009,0.0564 0.018,0.1126 0.027,0.1692 0.0169,0.1169 0.033,0.2344 0.049,0.352 0.005,0.0356 0.01,0.0711 0.0151,0.1068 0.0201,0.1526 0.038,0.3057 0.055,0.4596 0.005,0.044 0.009,0.0883 0.013,0.1324 0.0119,0.1117 0.023,0.2236 0.033,0.3358 0.005,0.0568 0.009,0.1137 0.014,0.1705 0.008,0.1006 0.0161,0.2013 0.023,0.3023 0.004,0.0608 0.008,0.1217 0.0111,0.1827 0.007,0.0995 0.0119,0.1992 0.0169,0.299 0.003,0.0597 0.005,0.1193 0.008,0.1791 0.004,0.1076 0.007,0.2156 0.0101,0.3236 0.003,0.0517 0.003,0.1033 0.005,0.1552 0.003,0.1591 0.005,0.3187 0.005,0.4787 0,0.1601 -0.003,0.3197 -0.005,0.4787 -0.003,0.0518 -0.003,0.1035 -0.005,0.1552 -0.003,0.108 -0.006,0.216 -0.0101,0.3236 -0.003,0.0598 -0.006,0.1194 -0.008,0.1791 -0.005,0.0998 -0.0111,0.1995 -0.0169,0.299 -0.003,0.061 -0.007,0.1219 -0.0111,0.1827 -0.007,0.101 -0.0151,0.2017 -0.023,0.3023 -0.005,0.0569 -0.009,0.1138 -0.014,0.1705 -0.0101,0.1122 -0.0209,0.2241 -0.033,0.3358 -0.004,0.0441 -0.008,0.0884 -0.013,0.1325 -0.0169,0.1537 -0.035,0.307 -0.055,0.4596 -0.005,0.0357 -0.0101,0.0711 -0.0151,0.1067 -0.0151,0.1177 -0.032,0.2351 -0.049,0.3521 -0.009,0.0565 -0.018,0.1127 -0.027,0.1691 -0.0151,0.096 -0.03,0.1919 -0.047,0.2875 -0.0101,0.0611 -0.0209,0.122 -0.032,0.1828 -0.0159,0.0918 -0.033,0.1834 -0.051,0.2747 -0.0111,0.0605 -0.023,0.121 -0.035,0.1812 -0.019,0.0934 -0.038,0.1863 -0.058,0.2791 -0.0119,0.0568 -0.0241,0.1137 -0.036,0.1703 -0.0249,0.1108 -0.05,0.2209 -0.076,0.331 -0.009,0.037 -0.0169,0.0744 -0.0259,0.1113 -0.035,0.1434 -0.071,0.2861 -0.10898,0.428 -0.014,0.0524 -0.028,0.1044 -0.042,0.1567 -0.0251,0.0925 -0.051,0.1849 -0.077,0.2768 -0.0169,0.0606 -0.035,0.121 -0.053,0.1814 -0.0241,0.0829 -0.049,0.1656 -0.074,0.2481 -0.019,0.0628 -0.039,0.1254 -0.059,0.1879 -0.0249,0.0801 -0.051,0.1599 -0.077,0.2395 -0.0209,0.0623 -0.041,0.1246 -0.062,0.1865 -0.028,0.0814 -0.056,0.1623 -0.085,0.2433 -0.0201,0.0588 -0.041,0.1177 -0.062,0.1761 -0.038,0.1051 -0.077,0.2096 -0.117,0.3137 -0.028,0.0751 -0.057,0.1501 -0.087,0.2249 -0.034,0.0869 -0.068,0.1739 -0.10298,0.2601 -0.0259,0.0638 -0.053,0.1271 -0.079,0.1905 -0.03,0.0703 -0.059,0.14061 -0.089,0.21041 -0.029,0.0663 -0.058,0.13209 -0.087,0.19799 -0.029,0.0659 -0.059,0.1315 -0.089,0.197 -0.03,0.0671 -0.061,0.1339 -0.092,0.2006 -0.029,0.0627 -0.059,0.1251 -0.089,0.1875 -0.033,0.0681 -0.065,0.13621 -0.099,0.2038 -0.029,0.0588 -0.059,0.117 -0.088,0.1754 -0.035,0.0695 -0.07,0.1391 -0.10599,0.208 l -0.003,0.007 c -0.098,0.1881 -0.19902,0.3737 -0.30202,0.5577 -0.027,0.049 -0.055,0.0982 -0.082,0.1468 -0.041,0.0717 -0.083,0.1426 -0.12398,0.2136 -0.03,0.0499 -0.059,0.0999 -0.089,0.1495 -0.042,0.071 -0.085,0.1416 -0.128,0.2118 -0.029,0.0473 -0.058,0.0942 -0.088,0.1411 -0.045,0.0721 -0.09,0.1438 -0.136,0.215 -0.027,0.0423 -0.055,0.0843 -0.082,0.1264 -0.049,0.0745 -0.098,0.1489 -0.14701,0.2225 -0.018,0.0271 -0.037,0.0538 -0.056,0.0808 -0.18399,0.2711 -0.37499,0.5365 -0.571,0.7957 -0.0209,0.0279 -0.042,0.056 -0.063,0.0838 -0.058,0.0753 -0.116,0.1498 -0.175,0.224 -0.0241,0.0316 -0.049,0.0632 -0.074,0.0945 -0.059,0.074 -0.11901,0.1472 -0.17899,0.22001 -0.023,0.0281 -0.046,0.056 -0.07,0.0839 -0.063,0.0762 -0.127,0.1519 -0.19101,0.2268 -0.0151,0.0178 -0.031,0.0353 -0.046,0.053 -0.30797,0.355 -0.62698,0.6965 -0.95797,1.0233 -0.013,0.0135 -0.027,0.0271 -0.04,0.0405 -0.075,0.0738 -0.151,0.1466 -0.22701,0.2188 l -0.054,0.0511 c -0.076,0.072 -0.15298,0.1433 -0.23098,0.2138 l -0.043,0.0385 c -0.44199,0.3999 -0.902,0.7747 -1.37798,1.1225 l -0.0249,0.0184 c -0.091,0.0662 -0.18201,0.1312 -0.274,0.1954 l -0.03,0.0205 c -0.58999,0.4099 -1.20301,0.7789 -1.836,1.1038 l -0.0151,0.008 c -0.104,0.0529 -0.20801,0.1048 -0.31199,0.1554 l -0.0111,0.005 c -0.64399,0.3109 -1.30799,0.5764 -1.989,0.7934 l -0.018,0.006 c -0.111,0.0353 -0.22302,0.0694 -0.33502,0.1021 v 0 c 1.31001,0.3818 2.68002,0.5858 4.09102,0.5858 9.35799,0 16.94399,-8.9162 16.94399,-19.9149 0,-10.99871 -7.586,-19.91491 -16.94399,-19.91491 z"
         id="path11564"
         style="clip-rule:evenodd;fill:#cccccc;fill-rule:evenodd;stroke-width:0.00268817;image-rendering:optimizeQuality;shape-rendering:geometricPrecision;text-rendering:geometricPrecision" />
    </g>
  </g>
</svg>
