<?xml version="1.0" encoding="UTF-8" standalone="no"?>
<svg
   xmlns:dc="http://purl.org/dc/elements/1.1/"
   xmlns:cc="http://creativecommons.org/ns#"
   xmlns:rdf="http://www.w3.org/1999/02/22-rdf-syntax-ns#"
   xmlns:svg="http://www.w3.org/2000/svg"
   xmlns="http://www.w3.org/2000/svg"
   xmlns:sodipodi="http://sodipodi.sourceforge.net/DTD/sodipodi-0.dtd"
   xmlns:inkscape="http://www.inkscape.org/namespaces/inkscape"
   width="1024"
   height="1024"
   viewBox="0 0 270.9333 270.9333"
   version="1.1"
   id="svg3565"
   inkscape:version="1.0.1 (3bc2e813f5, 2020-09-07)"
   sodipodi:docname="пустынный разбойник с топором.svg"
   inkscape:export-filename="C:\Users\Kolobok\Desktop\проекты\Рыцарь\knightframes.png"
   inkscape:export-xdpi="96.00001"
   inkscape:export-ydpi="96.00001">
  <title
     id="title4661">Тайл размером 256x256</title>
  <defs
     id="defs3559" />
  <sodipodi:namedview
     id="base"
     pagecolor="#ffffff"
     bordercolor="#666666"
     borderopacity="1.0"
     inkscape:pageopacity="0.0"
     inkscape:pageshadow="2"
     inkscape:zoom="0.35"
     inkscape:cx="812.4138"
     inkscape:cy="596.30263"
     inkscape:document-units="mm"
     inkscape:current-layer="layer1"
     showgrid="true"
     units="px"
     width="256px"
     inkscape:snap-global="false"
     inkscape:document-rotation="0"
     inkscape:window-width="1920"
     inkscape:window-height="1017"
     inkscape:window-x="-8"
     inkscape:window-y="-8"
     inkscape:window-maximized="1">
    <inkscape:grid
       type="xygrid"
       id="grid5244"
       units="px"
       spacingx="67.73332"
       spacingy="67.73332"
       empspacing="1" />
    <inkscape:grid
       type="xygrid"
       id="grid8949"
       color="#e33fff"
       opacity="0.1254902"
       empcolor="#e33fff"
       empopacity="0.2509804"
       units="px"
       spacingx="33.86666"
       spacingy="33.86666"
       empspacing="8" />
  </sodipodi:namedview>
  <metadata
     id="metadata3562">
    <rdf:RDF>
      <cc:Work
         rdf:about="">
        <dc:format>image/svg+xml</dc:format>
        <dc:type
           rdf:resource="http://purl.org/dc/dcmitype/StillImage" />
        <dc:title>Тайл размером 256x256</dc:title>
      </cc:Work>
    </rdf:RDF>
  </metadata>
  <g
     inkscape:label="Layer 1"
     inkscape:groupmode="layer"
     id="layer1"
     transform="translate(0,-26.0667)">
    <g
       id="g1275"
       transform="translate(62.412662,93.460322)">
      <path
         class="fil15"
         d="m 184.57496,-15.600386 v 0 c -1.984,0 -3.606,1.6227 -3.606,3.606001 v 4.1489015 c 0,1.983201 1.622,3.605901 3.606,3.605901 v 0 c 1.983,0 3.605,-1.6227 3.605,-3.605901 v -4.1489015 c 0,-1.983301 -1.622,-3.606001 -3.605,-3.606001 z"
         id="path9092"
         style="clip-rule:evenodd;fill:#ffb973;fill-rule:evenodd;stroke-width:0.00268817;image-rendering:optimizeQuality;shape-rendering:geometricPrecision;text-rendering:geometricPrecision" />
      <path
         class="fil80"
         d="m 169.63896,-11.066483 h -3.394 c -1.478,0 -2.687,1.2089995 -2.687,2.6867985 v 6.057302 c 0,1.47770003 1.209,2.68679803 2.687,2.68679803 h 3.394 c 1.478,0 2.687,-1.209098 2.687,-2.68679803 v -6.057302 c 0,-1.477799 -1.209,-2.6867985 -2.687,-2.6867985 z"
         id="path9094"
         style="clip-rule:evenodd;fill:#9966cc;fill-rule:evenodd;stroke-width:0.00268817;image-rendering:optimizeQuality;shape-rendering:geometricPrecision;text-rendering:geometricPrecision" />
      <path
         class="fil80"
         d="m 180.31496,-13.306985 h -3.394 c -1.477,0 -2.686,1.209 -2.686,2.6867 v 6.0573995 c 0,1.477701 1.209,2.686701 2.686,2.686701 h 3.394 c 1.478,0 2.687,-1.209 2.687,-2.686701 v -6.0573995 c 0,-1.4777 -1.209,-2.6867 -2.687,-2.6867 z"
         id="path9096"
         style="clip-rule:evenodd;fill:#9966cc;fill-rule:evenodd;stroke-width:0.00268817;image-rendering:optimizeQuality;shape-rendering:geometricPrecision;text-rendering:geometricPrecision" />
      <path
         class="fil61"
         d="m 177.51896,-33.853291 h -9.82201 c -5.232,0 -9.513,4.280701 -9.513,9.512805 v 11.637902 c 0,5.2319995 4.281,9.5127995 9.513,9.5127995 h 9.82201 c 5.232,0 9.512,-4.2808 9.512,-9.5127995 v -11.637902 c 0,-5.232104 -4.28,-9.512805 -9.512,-9.512805 z"
         id="path9098"
         style="clip-rule:evenodd;fill:#ffcc99;fill-rule:evenodd;stroke-width:0.00268817;image-rendering:optimizeQuality;shape-rendering:geometricPrecision;text-rendering:geometricPrecision" />
      <path
         class="fil62"
         d="m 170.77295,-33.840891 h -3.10199 c -5.232,0 -9.51301,4.245801 -9.51301,9.435205 v 5.707301 6.085801 c 0,5.1892995 4.28101,9.4352005 9.51301,9.4352005 h 2.767 c -1.97801,-1.732201 -3.23001,-4.262102 -3.23001,-7.0684015 v -16.246101 c 0,-2.961904 1.39501,-5.615904 3.565,-7.349005 z"
         id="path9100"
         style="clip-rule:evenodd;fill:#b3a4b6;fill-rule:evenodd;stroke-width:0.00268817;image-rendering:optimizeQuality;shape-rendering:geometricPrecision;text-rendering:geometricPrecision" />
      <path
         class="fil62"
         d="m 174.89296,-33.816191 h 2.715 c 5.232,0 9.513,4.245801 9.513,9.435305 v 11.793001 c 0,5.1893995 -4.281,9.4351995 -9.513,9.4351995 h -2.715 c 5.232,0 9.513,-4.2458 9.513,-9.4351995 v -11.793001 c 0,-5.189504 -4.281,-9.435305 -9.513,-9.435305 z"
         id="path9102"
         style="clip-rule:evenodd;fill:#b3a4b6;fill-rule:evenodd;stroke-width:0.00268817;image-rendering:optimizeQuality;shape-rendering:geometricPrecision;text-rendering:geometricPrecision" />
      <path
         class="fil15"
         d="m 179.44596,-11.257785 h -8.69401 c -1.124,0 -2.04299,0.919102 -2.04299,2.0424005 v 0 c 0,1.1234 0.91899,2.042401 2.04299,2.042401 h 8.69401 c 1.124,0 2.043,-0.919001 2.043,-2.042401 v 0 c 0,-1.1232985 -0.919,-2.0424005 -2.043,-2.0424005 z"
         id="path9104"
         style="clip-rule:evenodd;fill:#ffb973;fill-rule:evenodd;stroke-width:0.00268817;image-rendering:optimizeQuality;shape-rendering:geometricPrecision;text-rendering:geometricPrecision" />
      <path
         class="fil15"
         d="m 177.36196,-6.7782835 h -5.71 c -0.73701,0 -1.341,0.603499 -1.341,1.341099 v 0 c 0,0.7377 0.60399,1.341202 1.341,1.341202 h 5.71 c 0.737,0 1.341,-0.603502 1.341,-1.341202 v 0 c 0,-0.7376 -0.604,-1.341099 -1.341,-1.341099 z"
         id="path9106"
         style="clip-rule:evenodd;fill:#ffb973;fill-rule:evenodd;stroke-width:0.00268817;image-rendering:optimizeQuality;shape-rendering:geometricPrecision;text-rendering:geometricPrecision" />
      <path
         class="fil37"
         d="m 177.58396,-33.886991 h -9.82201 c -5.232,0 -9.43199,4.246501 -9.513,9.435205 l -0.091,5.902401 9.17401,-0.0058 c 0.443,5.4955 10.142,9.0038005 18.847,10.0477015 1.879,-3.8223005 0.918,-10.4673015 0.918,-15.9443015 0,-5.189405 -4.281,-9.435206 -9.513,-9.435206 z"
         id="path9108"
         style="clip-rule:evenodd;fill:#cc3300;fill-rule:evenodd;stroke-width:0.00268817;image-rendering:optimizeQuality;shape-rendering:geometricPrecision;text-rendering:geometricPrecision" />
      <path
         class="fil10"
         d="m 171.13996,-33.963591 h -3.195 c -5.39001,0 -9.81201,4.275301 -9.80001,9.500605 l 0.013,5.913601 8.054,-0.005 2.17,0.0132 -0.914,-8.0225 c -0.338,-2.963205 1.437,-5.654705 3.67201,-7.399906 z"
         id="path9110"
         style="clip-rule:evenodd;fill:#990000;fill-rule:evenodd;stroke-width:0.00268817;image-rendering:optimizeQuality;shape-rendering:geometricPrecision;text-rendering:geometricPrecision" />
      <path
         class="fil4"
         d="m 193.71996,-8.5608845 h -35.60901 c -0.751,0 -1.366,0.6145 -1.366,1.365602 v 0 c 0,0.751099 0.615,1.365599 1.366,1.365599 h 35.60901 c 0.751,0 1.366,-0.6145 1.366,-1.365599 v 0 c 0,-0.751102 -0.615,-1.365602 -1.366,-1.365602 z"
         id="path9112"
         style="clip-rule:evenodd;fill:#996633;fill-rule:evenodd;stroke-width:0.00268817;image-rendering:optimizeQuality;shape-rendering:geometricPrecision;text-rendering:geometricPrecision" />
      <path
         class="fil29"
         d="m 156.79195,-6.8259855 c 0.173,0.573 0.737,0.996101 1.401,0.996101 h 35.42901 c 0.694,0 1.279,-0.4616 1.422,-1.073499 -0.151,0.05 -0.313,0.0774 -0.481,0.0774 z"
         id="path9114"
         style="clip-rule:evenodd;fill:#813d09;fill-rule:evenodd;stroke-width:0.00268817;image-rendering:optimizeQuality;shape-rendering:geometricPrecision;text-rendering:geometricPrecision" />
      <path
         class="fil64"
         d="m 193.28096,-6.3187845 v -4.6396005 c 0,-1.3764 -1.126,-2.5024 -2.503,-2.5024 v 0 c -1.376,0 -2.502,1.126 -2.502,2.5024 v 4.6396005 c 0,1.3764 1.126,2.502501 2.502,2.502501 v 0 c 1.377,0 2.503,-1.126101 2.503,-2.502501 z"
         id="path9116"
         style="clip-rule:evenodd;fill:#b3b3b3;fill-rule:evenodd;stroke-width:0.00268817;image-rendering:optimizeQuality;shape-rendering:geometricPrecision;text-rendering:geometricPrecision" />
      <path
         class="fil64"
         d="m 193.83096,-4.5906845 -2.393,-5.3486 -3.732,5.3486 c -0.874,1.253302 -2.903,1.225502 -2.903,2.723401 v 0 c 0,1.49790103 1.306,2.72349903 2.903,2.72349903 h 6.125 c 1.597,0 2.903,-1.225598 2.903,-2.72349903 v 0 c 0,-1.497899 -2.286,-1.3422 -2.903,-2.723401 z"
         id="path9118"
         style="clip-rule:evenodd;fill:#b3b3b3;fill-rule:evenodd;stroke-width:0.00268817;image-rendering:optimizeQuality;shape-rendering:geometricPrecision;text-rendering:geometricPrecision" />
      <path
         class="fil5"
         d="m 184.85496,-2.3793845 c -0.034,0.166002 -0.052,0.337201 -0.052,0.512101 v 0 c 0,1.49790103 1.306,2.72349903 2.903,2.72349903 h 6.125 c 1.597,0 2.903,-1.225598 2.903,-2.72349903 v 0 c 0,-0.1749 -0.018,-0.346099 -0.052,-0.512101 -0.257,1.255302 -1.441,2.21140103 -2.851,2.21140103 h -6.125 c -1.41,0 -2.594,-0.95609903 -2.851,-2.21140103 z"
         id="path9120"
         style="clip-rule:evenodd;fill:#cccccc;fill-rule:evenodd;stroke-width:0.00268817;image-rendering:optimizeQuality;shape-rendering:geometricPrecision;text-rendering:geometricPrecision" />
      <path
         class="fil61"
         d="m 161.67895,-15.566985 v 0 c -1.983,0 -3.606,1.6226 -3.606,3.6058 v 4.1489995 c 0,1.9832 1.623,3.605901 3.606,3.605901 v 0 c 1.98301,0 3.606,-1.622701 3.606,-3.605901 v -4.1489995 c 0,-1.9832 -1.62299,-3.6058 -3.606,-3.6058 z"
         id="path9122"
         style="clip-rule:evenodd;fill:#ffcc99;fill-rule:evenodd;stroke-width:0.00268817;image-rendering:optimizeQuality;shape-rendering:geometricPrecision;text-rendering:geometricPrecision" />
      <path
         class="fil10"
         d="m 178.01796,-43.636392 h -9.395 c -2.603,0 -4.73201,2.1291 -4.73201,4.731301 v 0 c 0,2.6022 2.12901,4.7312 4.73201,4.7312 h 9.395 c 2.603,0 4.732,-2.129 4.732,-4.7312 v 0 c 0,-2.602201 -2.129,-4.731301 -4.732,-4.731301 z"
         id="path9124"
         style="clip-rule:evenodd;fill:#990000;fill-rule:evenodd;stroke-width:0.00268817;image-rendering:optimizeQuality;shape-rendering:geometricPrecision;text-rendering:geometricPrecision" />
      <path
         class="fil13"
         d="m 181.71696,-38.230891 h -17.02301 c -4.71499,0 -8.572,3.8573 -8.572,8.571901 v 0 c 0,4.714604 3.85701,8.572005 8.572,8.572005 h 17.02301 c 4.715,0 8.572,-3.857401 8.572,-8.572005 v 0 c 0,-4.714601 -3.857,-8.571901 -8.572,-8.571901 z"
         id="path9126"
         style="clip-rule:evenodd;fill:#cccccc;fill-rule:evenodd;stroke-width:0.00268817;image-rendering:optimizeQuality;shape-rendering:geometricPrecision;text-rendering:geometricPrecision" />
      <path
         class="fil81"
         d="m 168.98895,-38.196191 h -4.314 c -4.71499,0 -8.572,3.8574 -8.572,8.571901 v 0 c 0,4.714604 3.85701,8.572005 8.572,8.572005 h 4.021 c -2.15399,-2.168501 -3.48899,-5.150601 -3.48899,-8.429705 v 0 c 0,-3.425101 1.45699,-6.525901 3.78199,-8.714201 z"
         id="path9128"
         style="clip-rule:evenodd;fill:#969696;fill-rule:evenodd;stroke-width:0.00268817;image-rendering:optimizeQuality;shape-rendering:geometricPrecision;text-rendering:geometricPrecision" />
      <path
         class="fil61"
         d="m 182.20196,-27.65039 h -11.886 c -2.623,0 -4.768,2.145904 -4.768,4.768704 v 0 c 0,2.622801 2.145,4.768601 4.768,4.768601 h 11.886 c 2.623,0 4.769,-2.1458 4.769,-4.768601 v 0 c 0,-2.6228 -2.146,-4.768704 -4.769,-4.768704 z"
         id="path9130"
         style="clip-rule:evenodd;fill:#ffcc99;fill-rule:evenodd;stroke-width:0.00268817;image-rendering:optimizeQuality;shape-rendering:geometricPrecision;text-rendering:geometricPrecision" />
      <path
         class="fil18"
         d="m 181.66796,-25.127986 v 0 c -0.95599,0 -1.737,0.7819 -1.737,1.7377 v 1.999501 c 0,0.9558 0.78101,1.7377 1.737,1.7377 v 0 c 0.956,0 1.738,-0.7819 1.738,-1.7377 v -1.999501 c 0,-0.9558 -0.782,-1.7377 -1.738,-1.7377 z"
         id="path9132"
         style="clip-rule:evenodd;fill:#333333;fill-rule:evenodd;stroke-width:0.00268817;image-rendering:optimizeQuality;shape-rendering:geometricPrecision;text-rendering:geometricPrecision" />
      <path
         class="fil18"
         d="m 172.19396,-25.127986 v 0 c -0.956,0 -1.738,0.7819 -1.738,1.7377 v 1.999501 c 0,0.9558 0.782,1.7377 1.738,1.7377 v 0 c 0.956,0 1.738,-0.7819 1.738,-1.7377 v -1.999501 c 0,-0.9558 -0.782,-1.7377 -1.738,-1.7377 z"
         id="path9134"
         style="clip-rule:evenodd;fill:#333333;fill-rule:evenodd;stroke-width:0.00268817;image-rendering:optimizeQuality;shape-rendering:geometricPrecision;text-rendering:geometricPrecision" />
    </g>
    <g
       id="g1227"
       transform="translate(-163.89225,93.42298)">
      <path
         class="fil15"
         d="m 275.76797,-15.600386 v 0 c -1.983,0 -3.606,1.6227 -3.606,3.606001 v 4.1489015 c 0,1.983201 1.623,3.605901 3.606,3.605901 v 0 c 1.983,0 3.60601,-1.6227 3.60601,-3.605901 v -4.1489015 c 0,-1.983301 -1.62301,-3.606001 -3.60601,-3.606001 z"
         id="path9048"
         style="clip-rule:evenodd;fill:#ffb973;fill-rule:evenodd;stroke-width:0.00268817;image-rendering:optimizeQuality;shape-rendering:geometricPrecision;text-rendering:geometricPrecision" />
      <path
         class="fil80"
         d="m 260.83198,-11.066483 h -3.39302 c -1.47799,0 -2.687,1.2089995 -2.687,2.6867985 v 6.057302 c 0,1.47770003 1.20901,2.68679803 2.687,2.68679803 h 3.39302 c 1.47799,0 2.68697,-1.209098 2.68697,-2.68679803 v -6.057302 c 0,-1.477799 -1.20898,-2.6867985 -2.68697,-2.6867985 z"
         id="path9050"
         style="clip-rule:evenodd;fill:#9966cc;fill-rule:evenodd;stroke-width:0.00268817;image-rendering:optimizeQuality;shape-rendering:geometricPrecision;text-rendering:geometricPrecision" />
      <path
         class="fil80"
         d="m 271.50897,-11.066483 h -3.39399 c -1.47802,0 -2.687,1.2089995 -2.687,2.6867985 v 6.057302 c 0,1.47770003 1.20898,2.68679803 2.687,2.68679803 h 3.39399 c 1.47699,0 2.686,-1.209098 2.686,-2.68679803 v -6.057302 c 0,-1.477799 -1.20901,-2.6867985 -2.686,-2.6867985 z"
         id="path9052"
         style="clip-rule:evenodd;fill:#9966cc;fill-rule:evenodd;stroke-width:0.00268817;image-rendering:optimizeQuality;shape-rendering:geometricPrecision;text-rendering:geometricPrecision" />
      <path
         class="fil61"
         d="m 268.71196,-34.471591 h -9.822 c -5.232,0 -9.51201,4.280801 -9.51201,9.512805 v 11.637902 c 0,5.2321005 4.28001,9.5127995 9.51201,9.5127995 h 9.822 c 5.232,0 9.51301,-4.280699 9.51301,-9.5127995 v -11.637902 c 0,-5.232004 -4.28101,-9.512805 -9.51301,-9.512805 z"
         id="path9054"
         style="clip-rule:evenodd;fill:#ffcc99;fill-rule:evenodd;stroke-width:0.00268817;image-rendering:optimizeQuality;shape-rendering:geometricPrecision;text-rendering:geometricPrecision" />
      <path
         class="fil62"
         d="m 261.96696,-34.459191 h -3.10301 c -5.23197,0 -9.51198,4.245801 -9.51198,9.435205 v 5.707301 6.085802 c 0,5.1893995 4.28001,9.4351995 9.51198,9.4351995 h 2.76702 c -1.977,-1.7322 -3.229,-4.262101 -3.229,-7.0684015 V -27.11019 c 0,-2.9619 1.39498,-5.615901 3.56499,-7.349001 z"
         id="path9056"
         style="clip-rule:evenodd;fill:#b3a4b6;fill-rule:evenodd;stroke-width:0.00268817;image-rendering:optimizeQuality;shape-rendering:geometricPrecision;text-rendering:geometricPrecision" />
      <path
         class="fil62"
         d="m 266.08597,-34.434491 h 2.71499 c 5.23201,0 9.51302,4.245901 9.51302,9.435305 v 11.793002 c 0,5.1893985 -4.28101,9.4353005 -9.51302,9.4353005 h -2.71499 c 5.232,0 9.51299,-4.245902 9.51299,-9.4353005 v -11.793002 c 0,-5.189404 -4.28099,-9.435305 -9.51299,-9.435305 z"
         id="path9058"
         style="clip-rule:evenodd;fill:#b3a4b6;fill-rule:evenodd;stroke-width:0.00268817;image-rendering:optimizeQuality;shape-rendering:geometricPrecision;text-rendering:geometricPrecision" />
      <path
         class="fil15"
         d="m 270.63998,-11.876084 h -8.69501 c -1.12299,0 -2.042,0.919099 -2.042,2.0423995 v 0 c 0,1.1233 0.91901,2.042401 2.042,2.042401 h 8.69501 c 1.12299,0 2.042,-0.919101 2.042,-2.042401 v 0 c 0,-1.1233005 -0.91901,-2.0423995 -2.042,-2.0423995 z"
         id="path9060"
         style="clip-rule:evenodd;fill:#ffb973;fill-rule:evenodd;stroke-width:0.00268817;image-rendering:optimizeQuality;shape-rendering:geometricPrecision;text-rendering:geometricPrecision" />
      <path
         class="fil15"
         d="m 268.55495,-7.3965835 h -5.70899 c -0.738,0 -1.34099,0.603499 -1.34099,1.3412 v 0 c 0,0.7376 0.60299,1.341099 1.34099,1.341099 h 5.70899 c 0.73801,0 1.34102,-0.603499 1.34102,-1.341099 v 0 c 0,-0.737701 -0.60301,-1.3412 -1.34102,-1.3412 z"
         id="path9062"
         style="clip-rule:evenodd;fill:#ffb973;fill-rule:evenodd;stroke-width:0.00268817;image-rendering:optimizeQuality;shape-rendering:geometricPrecision;text-rendering:geometricPrecision" />
      <path
         class="fil37"
         d="m 268.77697,-34.505291 h -9.82099 c -5.23201,0 -9.43301,4.246501 -9.51302,9.435205 l -0.091,5.902401 9.173,-0.0058 c 0.444,5.495501 10.14299,9.003802 18.84799,10.0477995 1.87801,-3.8223975 0.91702,-10.4673995 0.91702,-15.9443995 0,-5.189305 -4.28001,-9.435206 -9.51301,-9.435206 z"
         id="path9064"
         style="clip-rule:evenodd;fill:#cc3300;fill-rule:evenodd;stroke-width:0.00268817;image-rendering:optimizeQuality;shape-rendering:geometricPrecision;text-rendering:geometricPrecision" />
      <path
         class="fil10"
         d="m 262.33396,-34.581891 h -3.196 c -5.38999,0 -9.81099,4.2753 -9.79998,9.500605 l 0.014,5.913601 8.05299,-0.0049 3.30901,0.0131 -2.052,-8.022504 c -0.74002,-2.889301 1.437,-5.654701 3.67199,-7.399902 z"
         id="path9066"
         style="clip-rule:evenodd;fill:#990000;fill-rule:evenodd;stroke-width:0.00268817;image-rendering:optimizeQuality;shape-rendering:geometricPrecision;text-rendering:geometricPrecision" />
      <path
         class="fil4"
         d="m 284.91396,-8.5608845 h -35.60998 c -0.75102,0 -1.36502,0.6145 -1.36502,1.365602 v 0 c 0,0.751099 0.614,1.365599 1.36502,1.365599 h 35.60998 c 0.75102,0 1.36501,-0.6145 1.36501,-1.365599 v 0 c 0,-0.751102 -0.61399,-1.365602 -1.36501,-1.365602 z"
         id="path9068"
         style="clip-rule:evenodd;fill:#996633;fill-rule:evenodd;stroke-width:0.00268817;image-rendering:optimizeQuality;shape-rendering:geometricPrecision;text-rendering:geometricPrecision" />
      <path
         class="fil29"
         d="m 247.98595,-6.8259855 c 0.17201,0.573 0.737,0.996101 1.40103,0.996101 h 35.429 c 0.69398,0 1.27799,-0.4616 1.42198,-1.073499 -0.151,0.05 -0.31298,0.0774 -0.48199,0.0774 z"
         id="path9070"
         style="clip-rule:evenodd;fill:#813d09;fill-rule:evenodd;stroke-width:0.00268817;image-rendering:optimizeQuality;shape-rendering:geometricPrecision;text-rendering:geometricPrecision" />
      <path
         class="fil64"
         d="m 284.47398,-6.3187845 v -4.6396005 c 0,-1.3764 -1.12601,-2.5024 -2.50201,-2.5024 v 0 c -1.37601,0 -2.502,1.126 -2.502,2.5024 v 4.6396005 c 0,1.3764 1.12599,2.502501 2.502,2.502501 v 0 c 1.376,0 2.50201,-1.126101 2.50201,-2.502501 z"
         id="path9072"
         style="clip-rule:evenodd;fill:#b3b3b3;fill-rule:evenodd;stroke-width:0.00268817;image-rendering:optimizeQuality;shape-rendering:geometricPrecision;text-rendering:geometricPrecision" />
      <path
         class="fil64"
         d="m 285.02397,-4.5906845 -2.39199,-5.3486 -3.732,5.3486 c -0.87501,1.253302 -2.90402,1.225502 -2.90402,2.723401 v 0 c 0,1.49790103 1.30702,2.72349903 2.90402,2.72349903 h 6.12399 c 1.597,0 2.90399,-1.225598 2.90399,-2.72349903 v 0 c 0,-1.497899 -2.286,-1.3422 -2.90399,-2.723401 z"
         id="path9074"
         style="clip-rule:evenodd;fill:#b3b3b3;fill-rule:evenodd;stroke-width:0.00268817;image-rendering:optimizeQuality;shape-rendering:geometricPrecision;text-rendering:geometricPrecision" />
      <path
         class="fil5"
         d="m 276.04798,-2.3793845 c -0.034,0.166002 -0.052,0.337201 -0.052,0.512101 v 0 c 0,1.49790103 1.30702,2.72349903 2.90402,2.72349903 h 6.12399 c 1.597,0 2.90399,-1.225598 2.90399,-2.72349903 v 0 c 0,-0.1749 -0.018,-0.346099 -0.052,-0.512101 -0.258,1.255302 -1.441,2.21140103 -2.852,2.21140103 h -6.12399 c -1.411,0 -2.594,-0.95609903 -2.852,-2.21140103 z"
         id="path9076"
         style="clip-rule:evenodd;fill:#cccccc;fill-rule:evenodd;stroke-width:0.00268817;image-rendering:optimizeQuality;shape-rendering:geometricPrecision;text-rendering:geometricPrecision" />
      <path
         class="fil61"
         d="m 252.87196,-15.566985 v 0 c -1.983,0 -3.606,1.6226 -3.606,3.6058 v 4.1489995 c 0,1.9832 1.623,3.605901 3.606,3.605901 v 0 c 1.98401,0 3.60601,-1.622701 3.60601,-3.605901 v -4.1489995 c 0,-1.9832 -1.622,-3.6058 -3.60601,-3.6058 z"
         id="path9078"
         style="clip-rule:evenodd;fill:#ffcc99;fill-rule:evenodd;stroke-width:0.00268817;image-rendering:optimizeQuality;shape-rendering:geometricPrecision;text-rendering:geometricPrecision" />
      <path
         class="fil10"
         d="m 269.21197,-44.254692 h -9.39599 c -2.60202,0 -4.73102,2.1291 -4.73102,4.731301 v 0 c 0,2.6022 2.129,4.7312 4.73102,4.7312 h 9.39599 c 2.60199,0 4.73099,-2.129 4.73099,-4.7312 v 0 c 0,-2.602201 -2.129,-4.731301 -4.73099,-4.731301 z"
         id="path9080"
         style="clip-rule:evenodd;fill:#990000;fill-rule:evenodd;stroke-width:0.00268817;image-rendering:optimizeQuality;shape-rendering:geometricPrecision;text-rendering:geometricPrecision" />
      <path
         class="fil13"
         d="m 272.90997,-38.849191 h -17.023 c -4.714,0 -8.572,3.8573 -8.572,8.572001 v 0 c 0,4.714604 3.858,8.572005 8.572,8.572005 h 17.023 c 4.71501,0 8.572,-3.857401 8.572,-8.572005 v 0 c 0,-4.714701 -3.85699,-8.572001 -8.572,-8.572001 z"
         id="path9082"
         style="clip-rule:evenodd;fill:#cccccc;fill-rule:evenodd;stroke-width:0.00268817;image-rendering:optimizeQuality;shape-rendering:geometricPrecision;text-rendering:geometricPrecision" />
      <path
         class="fil81"
         d="m 260.18296,-38.814491 h -4.31499 c -4.714,0 -8.572,3.8574 -8.572,8.572001 v 0 c 0,4.714604 3.858,8.572005 8.572,8.572005 h 4.02199 c -2.154,-2.168501 -3.48999,-5.150601 -3.48999,-8.429705 v 0 c 0,-3.425101 1.45799,-6.525901 3.78299,-8.714201 z"
         id="path9084"
         style="clip-rule:evenodd;fill:#969696;fill-rule:evenodd;stroke-width:0.00268817;image-rendering:optimizeQuality;shape-rendering:geometricPrecision;text-rendering:geometricPrecision" />
      <path
         class="fil61"
         d="m 273.39696,-28.26859 h -11.88599 c -2.623,0 -4.769,2.145904 -4.769,4.768604 v 0 c 0,2.622801 2.146,4.768701 4.769,4.768701 h 11.88599 c 2.623,0 4.768,-2.1459 4.768,-4.768701 v 0 c 0,-2.6227 -2.145,-4.768604 -4.768,-4.768604 z"
         id="path9086"
         style="clip-rule:evenodd;fill:#ffcc99;fill-rule:evenodd;stroke-width:0.00268817;image-rendering:optimizeQuality;shape-rendering:geometricPrecision;text-rendering:geometricPrecision" />
      <path
         class="fil18"
         d="m 272.86298,-25.746286 v 0 c -0.95602,0 -1.73803,0.7819 -1.73803,1.7377 v 1.999501 c 0,0.9558 0.78201,1.7378 1.73803,1.7378 v 0 c 0.95498,0 1.73698,-0.782 1.73698,-1.7378 v -1.999501 c 0,-0.9558 -0.782,-1.7377 -1.73698,-1.7377 z"
         id="path9088"
         style="clip-rule:evenodd;fill:#333333;fill-rule:evenodd;stroke-width:0.00268817;image-rendering:optimizeQuality;shape-rendering:geometricPrecision;text-rendering:geometricPrecision" />
      <path
         class="fil18"
         d="m 263.38795,-25.746286 v 0 c -0.95498,0 -1.73698,0.7819 -1.73698,1.7377 v 1.999501 c 0,0.9558 0.782,1.7378 1.73698,1.7378 v 0 c 0.95602,0 1.738,-0.782 1.738,-1.7378 v -1.999501 c 0,-0.9558 -0.78198,-1.7377 -1.738,-1.7377 z"
         id="path9090"
         style="clip-rule:evenodd;fill:#333333;fill-rule:evenodd;stroke-width:0.00268817;image-rendering:optimizeQuality;shape-rendering:geometricPrecision;text-rendering:geometricPrecision" />
    </g>
    <g
       id="g1299"
       transform="translate(38.932113,93.460322)">
      <path
         class="fil15"
         d="m 140.74795,-15.600386 v 0 c -1.983,0 -3.606,1.6227 -3.606,3.606001 v 4.1489015 c 0,1.983201 1.623,3.605901 3.606,3.605901 v 0 c 1.983,0 3.606,-1.6227 3.606,-3.605901 v -4.1489015 c 0,-1.983301 -1.623,-3.606001 -3.606,-3.606001 z"
         id="path9136"
         style="clip-rule:evenodd;fill:#ffb973;fill-rule:evenodd;stroke-width:0.00268817;image-rendering:optimizeQuality;shape-rendering:geometricPrecision;text-rendering:geometricPrecision" />
      <path
         class="fil80"
         d="m 125.81195,-13.306985 h -3.394 c -1.477,0 -2.686,1.209 -2.686,2.6867 v 6.0573995 c 0,1.477701 1.209,2.686701 2.686,2.686701 h 3.394 c 1.478,0 2.687,-1.209 2.687,-2.686701 v -6.0573995 c 0,-1.4777 -1.209,-2.6867 -2.687,-2.6867 z"
         id="path9138"
         style="clip-rule:evenodd;fill:#9966cc;fill-rule:evenodd;stroke-width:0.00268817;image-rendering:optimizeQuality;shape-rendering:geometricPrecision;text-rendering:geometricPrecision" />
      <path
         class="fil80"
         d="m 136.48895,-11.066483 h -3.394 c -1.478,0 -2.687,1.2089995 -2.687,2.6867985 v 6.057302 c 0,1.47770003 1.209,2.68679803 2.687,2.68679803 h 3.394 c 1.477,0 2.686,-1.209098 2.686,-2.68679803 v -6.057302 c 0,-1.477799 -1.209,-2.6867985 -2.686,-2.6867985 z"
         id="path9140"
         style="clip-rule:evenodd;fill:#9966cc;fill-rule:evenodd;stroke-width:0.00268817;image-rendering:optimizeQuality;shape-rendering:geometricPrecision;text-rendering:geometricPrecision" />
      <path
         class="fil61"
         d="m 133.69195,-34.471591 h -9.822 c -5.232,0 -9.513,4.280801 -9.513,9.512805 v 11.637902 c 0,5.2321005 4.281,9.5127995 9.513,9.5127995 h 9.822 c 5.232,0 9.513,-4.280699 9.513,-9.5127995 v -11.637902 c 0,-5.232004 -4.281,-9.512805 -9.513,-9.512805 z"
         id="path9142"
         style="clip-rule:evenodd;fill:#ffcc99;fill-rule:evenodd;stroke-width:0.00268817;image-rendering:optimizeQuality;shape-rendering:geometricPrecision;text-rendering:geometricPrecision" />
      <path
         class="fil62"
         d="m 126.94595,-34.459191 h -3.102 c -5.232,0 -9.513,4.245801 -9.513,9.435205 v 5.707301 6.085802 c 0,5.1893995 4.281,9.4351995 9.513,9.4351995 h 2.767 c -1.977,-1.7322 -3.229,-4.262101 -3.229,-7.0684015 V -27.11019 c 0,-2.9619 1.394,-5.615901 3.564,-7.349001 z"
         id="path9144"
         style="clip-rule:evenodd;fill:#b3a4b6;fill-rule:evenodd;stroke-width:0.00268817;image-rendering:optimizeQuality;shape-rendering:geometricPrecision;text-rendering:geometricPrecision" />
      <path
         class="fil62"
         d="m 131.06595,-34.434491 h 2.715 c 5.232,0 9.513,4.245901 9.513,9.435305 v 11.793002 c 0,5.1893985 -4.281,9.4353005 -9.513,9.4353005 h -2.715 c 5.232,0 9.513,-4.245902 9.513,-9.4353005 v -11.793002 c 0,-5.189404 -4.281,-9.435305 -9.513,-9.435305 z"
         id="path9146"
         style="clip-rule:evenodd;fill:#b3a4b6;fill-rule:evenodd;stroke-width:0.00268817;image-rendering:optimizeQuality;shape-rendering:geometricPrecision;text-rendering:geometricPrecision" />
      <path
         class="fil15"
         d="m 135.61995,-11.876084 h -8.695 c -1.123,0 -2.042,0.919099 -2.042,2.0423995 v 0 c 0,1.1233 0.919,2.042401 2.042,2.042401 h 8.695 c 1.123,0 2.042,-0.919101 2.042,-2.042401 v 0 c 0,-1.1233005 -0.919,-2.0423995 -2.042,-2.0423995 z"
         id="path9148"
         style="clip-rule:evenodd;fill:#ffb973;fill-rule:evenodd;stroke-width:0.00268817;image-rendering:optimizeQuality;shape-rendering:geometricPrecision;text-rendering:geometricPrecision" />
      <path
         class="fil15"
         d="m 133.53495,-7.3965835 h -5.709 c -0.738,0 -1.341,0.603499 -1.341,1.3412 v 0 c 0,0.7376 0.603,1.341099 1.341,1.341099 h 5.709 c 0.738,0 1.341,-0.603499 1.341,-1.341099 v 0 c 0,-0.737701 -0.603,-1.3412 -1.341,-1.3412 z"
         id="path9150"
         style="clip-rule:evenodd;fill:#ffb973;fill-rule:evenodd;stroke-width:0.00268817;image-rendering:optimizeQuality;shape-rendering:geometricPrecision;text-rendering:geometricPrecision" />
      <path
         class="fil37"
         d="m 133.75695,-34.505291 h -9.821 c -5.233,0 -9.433,4.246501 -9.513,9.435205 l -0.092,5.902401 9.174,-0.0058 c 0.443,5.495501 10.143,9.003802 18.847,10.0477995 1.879,-3.8223975 0.918,-10.4673995 0.918,-15.9443995 0,-5.189305 -4.281,-9.435206 -9.513,-9.435206 z"
         id="path9152"
         style="clip-rule:evenodd;fill:#cc3300;fill-rule:evenodd;stroke-width:0.00268817;image-rendering:optimizeQuality;shape-rendering:geometricPrecision;text-rendering:geometricPrecision" />
      <path
         class="fil10"
         d="m 127.31395,-34.581891 h -3.196 c -5.39,0 -9.811,4.2753 -9.8,9.500605 l 0.013,5.913601 8.054,-0.0049 2.467,0.0131 -1.211,-8.022504 c -0.445,-2.949001 1.437,-5.654701 3.673,-7.399902 z"
         id="path9154"
         style="clip-rule:evenodd;fill:#990000;fill-rule:evenodd;stroke-width:0.00268817;image-rendering:optimizeQuality;shape-rendering:geometricPrecision;text-rendering:geometricPrecision" />
      <path
         class="fil4"
         d="m 149.89395,-8.5608845 h -35.61 c -0.751,0 -1.366,0.6145 -1.366,1.365602 v 0 c 0,0.751099 0.615,1.365599 1.366,1.365599 h 35.61 c 0.751,0 1.365,-0.6145 1.365,-1.365599 v 0 c 0,-0.751102 -0.614,-1.365602 -1.365,-1.365602 z"
         id="path9156"
         style="clip-rule:evenodd;fill:#996633;fill-rule:evenodd;stroke-width:0.00268817;image-rendering:optimizeQuality;shape-rendering:geometricPrecision;text-rendering:geometricPrecision" />
      <path
         class="fil29"
         d="m 112.96495,-6.8259855 c 0.173,0.573 0.737,0.996101 1.402,0.996101 h 35.429 c 0.694,0 1.278,-0.4616 1.422,-1.073499 -0.151,0.05 -0.313,0.0774 -0.482,0.0774 z"
         id="path9158"
         style="clip-rule:evenodd;fill:#813d09;fill-rule:evenodd;stroke-width:0.00268817;image-rendering:optimizeQuality;shape-rendering:geometricPrecision;text-rendering:geometricPrecision" />
      <path
         class="fil64"
         d="m 149.45395,-6.3187845 v -4.6396005 c 0,-1.3764 -1.126,-2.5024 -2.502,-2.5024 v 0 c -1.377,0 -2.503,1.126 -2.503,2.5024 v 4.6396005 c 0,1.3764 1.126,2.502501 2.503,2.502501 v 0 c 1.376,0 2.502,-1.126101 2.502,-2.502501 z"
         id="path9160"
         style="clip-rule:evenodd;fill:#b3b3b3;fill-rule:evenodd;stroke-width:0.00268817;image-rendering:optimizeQuality;shape-rendering:geometricPrecision;text-rendering:geometricPrecision" />
      <path
         class="fil64"
         d="m 150.00395,-4.5906845 -2.393,-5.3486 -3.731,5.3486 c -0.875,1.253302 -2.904,1.225502 -2.904,2.723401 v 0 c 0,1.49790103 1.307,2.72349903 2.904,2.72349903 h 6.124 c 1.597,0 2.904,-1.225598 2.904,-2.72349903 v 0 c 0,-1.497899 -2.286,-1.3422 -2.904,-2.723401 z"
         id="path9162"
         style="clip-rule:evenodd;fill:#b3b3b3;fill-rule:evenodd;stroke-width:0.00268817;image-rendering:optimizeQuality;shape-rendering:geometricPrecision;text-rendering:geometricPrecision" />
      <path
         class="fil5"
         d="m 141.02795,-2.3793845 c -0.034,0.166002 -0.052,0.337201 -0.052,0.512101 v 0 c 0,1.49790103 1.307,2.72349903 2.904,2.72349903 h 6.124 c 1.597,0 2.904,-1.225598 2.904,-2.72349903 v 0 c 0,-0.1749 -0.018,-0.346099 -0.052,-0.512101 -0.258,1.255302 -1.442,2.21140103 -2.852,2.21140103 h -6.124 c -1.411,0 -2.595,-0.95609903 -2.852,-2.21140103 z"
         id="path9164"
         style="clip-rule:evenodd;fill:#cccccc;fill-rule:evenodd;stroke-width:0.00268817;image-rendering:optimizeQuality;shape-rendering:geometricPrecision;text-rendering:geometricPrecision" />
      <path
         class="fil61"
         d="m 117.85195,-15.566985 v 0 c -1.983,0 -3.606,1.6226 -3.606,3.6058 v 4.1489995 c 0,1.9832 1.623,3.605901 3.606,3.605901 v 0 c 1.983,0 3.606,-1.622701 3.606,-3.605901 v -4.1489995 c 0,-1.9832 -1.623,-3.6058 -3.606,-3.6058 z"
         id="path9166"
         style="clip-rule:evenodd;fill:#ffcc99;fill-rule:evenodd;stroke-width:0.00268817;image-rendering:optimizeQuality;shape-rendering:geometricPrecision;text-rendering:geometricPrecision" />
      <path
         class="fil10"
         d="m 134.19195,-44.254692 h -9.396 c -2.602,0 -4.731,2.1291 -4.731,4.731301 v 0 c 0,2.6022 2.129,4.7312 4.731,4.7312 h 9.396 c 2.602,0 4.731,-2.129 4.731,-4.7312 v 0 c 0,-2.602201 -2.129,-4.731301 -4.731,-4.731301 z"
         id="path9168"
         style="clip-rule:evenodd;fill:#990000;fill-rule:evenodd;stroke-width:0.00268817;image-rendering:optimizeQuality;shape-rendering:geometricPrecision;text-rendering:geometricPrecision" />
      <path
         class="fil13"
         d="m 137.88995,-38.849191 h -17.023 c -4.715,0 -8.572,3.8573 -8.572,8.572001 v 0 c 0,4.714604 3.857,8.572005 8.572,8.572005 h 17.023 c 4.715,0 8.572,-3.857401 8.572,-8.572005 v 0 c 0,-4.714701 -3.857,-8.572001 -8.572,-8.572001 z"
         id="path9170"
         style="clip-rule:evenodd;fill:#cccccc;fill-rule:evenodd;stroke-width:0.00268817;image-rendering:optimizeQuality;shape-rendering:geometricPrecision;text-rendering:geometricPrecision" />
      <path
         class="fil81"
         d="m 125.16195,-38.814491 h -4.314 c -4.715,0 -8.572,3.8574 -8.572,8.572001 v 0 c 0,4.714604 3.857,8.572005 8.572,8.572005 h 4.022 c -2.154,-2.168501 -3.49,-5.150601 -3.49,-8.429705 v 0 c 0,-3.425101 1.458,-6.525901 3.782,-8.714201 z"
         id="path9172"
         style="clip-rule:evenodd;fill:#969696;fill-rule:evenodd;stroke-width:0.00268817;image-rendering:optimizeQuality;shape-rendering:geometricPrecision;text-rendering:geometricPrecision" />
      <path
         class="fil61"
         d="m 138.37595,-28.26859 h -11.886 c -2.623,0 -4.769,2.145904 -4.769,4.768604 v 0 c 0,2.622801 2.146,4.768701 4.769,4.768701 h 11.886 c 2.623,0 4.769,-2.1459 4.769,-4.768701 v 0 c 0,-2.6227 -2.146,-4.768604 -4.769,-4.768604 z"
         id="path9174"
         style="clip-rule:evenodd;fill:#ffcc99;fill-rule:evenodd;stroke-width:0.00268817;image-rendering:optimizeQuality;shape-rendering:geometricPrecision;text-rendering:geometricPrecision" />
      <path
         class="fil18"
         d="m 137.84195,-25.746286 v 0 c -0.956,0 -1.738,0.7819 -1.738,1.7377 v 1.999501 c 0,0.9558 0.782,1.7378 1.738,1.7378 v 0 c 0.956,0 1.738,-0.782 1.738,-1.7378 v -1.999501 c 0,-0.9558 -0.782,-1.7377 -1.738,-1.7377 z"
         id="path9176"
         style="clip-rule:evenodd;fill:#333333;fill-rule:evenodd;stroke-width:0.00268817;image-rendering:optimizeQuality;shape-rendering:geometricPrecision;text-rendering:geometricPrecision" />
      <path
         class="fil18"
         d="m 128.36695,-25.746286 v 0 c -0.955,0 -1.737,0.7819 -1.737,1.7377 v 1.999501 c 0,0.9558 0.782,1.7378 1.737,1.7378 v 0 c 0.956,0 1.738,-0.782 1.738,-1.7378 v -1.999501 c 0,-0.9558 -0.782,-1.7377 -1.738,-1.7377 z"
         id="path9178"
         style="clip-rule:evenodd;fill:#333333;fill-rule:evenodd;stroke-width:0.00268817;image-rendering:optimizeQuality;shape-rendering:geometricPrecision;text-rendering:geometricPrecision" />
    </g>
    <g
       id="g1381"
       transform="translate(-328.83929,160.26191)">
      <path
         class="fil22"
         d="m 354.75097,-38.977691 c -1.65799,0 -3.26801,0.204 -4.80799,0.5859 v 0 c 0.132,0.0327 0.263,0.0668 0.39399,0.1021 l 0.022,0.0058 c 0.8,0.2172 1.57999,0.4824 2.33699,0.7934 l 0.0119,0.005 c 0.123,0.0507 0.245,0.1025 0.367,0.1555 l 0.018,0.0076 c 0.74401,0.325 1.465,0.6937 2.158,1.1037 l 0.035,0.0206 c 0.108,0.0641 0.215,0.1292 0.322,0.1953 l 0.03,0.0185 c 0.55899,0.3479 1.099,0.7225 1.61999,1.122401 0.0169,0.0129 0.033,0.0256 0.05,0.0385 0.091,0.0705 0.181,0.1418 0.27099,0.213801 l 0.064,0.0511 c 0.089,0.0722 0.17801,0.145001 0.26601,0.218801 0.0161,0.0134 0.032,0.027 0.048,0.0405 0.38801,0.3269 0.763,0.6682 1.125,1.0234 0.018,0.0177 0.036,0.0352 0.054,0.053 0.076,0.0748 0.15099,0.1506 0.22598,0.2267 0.027,0.0279 0.054,0.0558 0.081,0.0839 0.071,0.0728 0.141,0.1461 0.21,0.22 0.03,0.0314 0.059,0.063 0.088,0.0945 0.069,0.0742 0.13801,0.1488 0.205,0.2241 0.0249,0.0277 0.05,0.0558 0.075,0.0837 0.22998,0.2593 0.454,0.5246 0.67098,0.7957 0.022,0.0271 0.044,0.0537 0.065,0.0809 0.058,0.0735 0.11599,0.148 0.17299,0.2224 0.032,0.0421 0.065,0.0841 0.097,0.1265 0.054,0.0712 0.107,0.1429 0.15999,0.2149 0.034,0.0469 0.069,0.0939 0.103,0.1411 0.051,0.0703 0.101,0.1408 0.151,0.2118 0.035,0.0497 0.069,0.0996 0.103,0.1496 0.049,0.0709 0.098,0.1419 0.146,0.2135 0.033,0.0487 0.065,0.0979 0.097,0.1468 0.12099,0.184 0.24,0.3696 0.35401,0.5578 l 0.005,0.007 c 0.042,0.0689 0.083,0.1386 0.12398,0.208 0.035,0.0584 0.07,0.1167 0.10401,0.1754 0.039,0.0676 0.077,0.1357 0.11599,0.2038 0.035,0.0624 0.07,0.1248 0.10401,0.1876 0.037,0.0665 0.073,0.1335 0.10901,0.2005 0.035,0.0655 0.07,0.1312 0.10398,0.1971 0.034,0.0658 0.069,0.1317 0.102,0.1979 0.036,0.0699 0.07,0.1402 0.10501,0.2104 0.031,0.0634 0.062,0.1267 0.093,0.1905 0.041,0.0863 0.081,0.1731 0.12099,0.2601 0.035,0.0749 0.069,0.1497 0.10301,0.225 0.046,0.104204 0.092,0.208504 0.137,0.313604 0.0251,0.0585 0.049,0.1174 0.073,0.1761 0.033,0.081 0.067,0.1619 0.099,0.2433 0.0251,0.062 0.049,0.1243 0.073,0.1865 0.031,0.0796 0.061,0.1594 0.091,0.2395 0.023,0.0625 0.046,0.1252 0.069,0.188 0.03,0.0824 0.059,0.1652 0.087,0.2481 0.0209,0.0603 0.042,0.1207 0.063,0.181301 0.03,0.0919 0.06,0.1844 0.09,0.2769 0.0161,0.0522 0.033,0.1042 0.05,0.1567 0.044,0.1419 0.086,0.2845 0.127,0.4279 0.0101,0.037 0.0201,0.0743 0.03,0.111399 0.031,0.11 0.061,0.220101 0.09,0.330901 0.0151,0.0566 0.029,0.1135 0.043,0.1703 0.023,0.0929 0.046,0.1858 0.068,0.2791 0.014,0.0603 0.028,0.1207 0.041,0.1812 0.0209,0.0913 0.041,0.1829 0.06,0.2747 0.013,0.0609 0.0259,0.1218 0.038,0.1828 0.019,0.0956 0.037,0.1915 0.055,0.2875 0.01,0.0564 0.0209,0.1127 0.031,0.1692 0.0209,0.1169 0.04,0.2344 0.058,0.352 0.006,0.0356 0.0119,0.0711 0.018,0.1068 0.023,0.1526 0.045,0.3057 0.064,0.4596 0.006,0.044 0.01,0.0883 0.0159,0.1324 0.013,0.1118 0.0259,0.2236 0.038,0.3359 0.006,0.0567 0.0108,0.1136 0.0169,0.1705 0.009,0.1005 0.018,0.2013 0.027,0.3022 0.004,0.0609 0.009,0.1217 0.013,0.1827 0.007,0.0995 0.014,0.1992 0.019,0.299 0.004,0.0597 0.007,0.1193 0.01,0.1792 0.005,0.1075 0.009,0.2155 0.0119,0.3235 0.003,0.0517 0.004,0.1034 0.005,0.1552 0.004,0.1592 0.006,0.3187 0.006,0.4787 0,0.1601 -0.003,0.3197 -0.006,0.4788 0,0.0518 -0.003,0.1034 -0.005,0.1552 -0.003,0.1079 -0.007,0.2159 -0.0119,0.3235 -0.003,0.0598 -0.006,0.1195 -0.01,0.1791 -0.005,0.0999 -0.0119,0.199501 -0.019,0.299 -0.004,0.061 -0.009,0.121899 -0.013,0.1827 -0.009,0.101 -0.018,0.2017 -0.027,0.3023 -0.006,0.0569 -0.0111,0.1138 -0.0169,0.1705 -0.0119,0.1123 -0.0251,0.2241 -0.038,0.335802 -0.006,0.0441 -0.0101,0.0884 -0.0159,0.132498 -0.0201,0.153701 -0.041,0.307001 -0.064,0.459599 -0.006,0.0357 -0.0119,0.0711 -0.018,0.106802 -0.018,0.117599 -0.037,0.235 -0.058,0.351999 -0.0101,0.0565 -0.0209,0.1128 -0.031,0.169101 -0.018,0.0961 -0.036,0.191899 -0.055,0.287498 -0.0119,0.0611 -0.0249,0.122002 -0.038,0.182902 -0.019,0.0918 -0.039,0.1833 -0.06,0.274701 -0.013,0.0604 -0.027,0.120898 -0.041,0.181099 -0.022,0.0934 -0.045,0.186298 -0.068,0.279098 -0.014,0.0568 -0.028,0.1138 -0.043,0.170403 -0.029,0.110699 -0.059,0.2208 -0.09,0.330898 -0.01,0.0371 -0.0198,0.0744 -0.03,0.1114 -0.041,0.143301 -0.083,0.286002 -0.127,0.4279 -0.0169,0.0524 -0.034,0.1044 -0.05,0.1567 -0.03,0.0925 -0.06,0.184901 -0.09,0.276802 -0.0209,0.0607 -0.042,0.120999 -0.063,0.181398 -0.028,0.0829 -0.057,0.1656 -0.087,0.2481 -0.023,0.0628 -0.046,0.125402 -0.069,0.188002 -0.03,0.08 -0.06,0.159798 -0.091,0.239498 -0.0241,0.0622 -0.048,0.1245 -0.073,0.186402 -0.032,0.0814 -0.066,0.162298 -0.099,0.2433 -0.0241,0.0588 -0.048,0.1177 -0.073,0.176099 -0.045,0.1051 -0.091,0.2096 -0.137,0.3137 -0.034,0.0752 -0.068,0.150199 -0.10301,0.224899 -0.04,0.087 -0.08,0.1739 -0.12099,0.260101 -0.031,0.0638 -0.062,0.127101 -0.093,0.1905 -0.035,0.0703 -0.07,0.1406 -0.10501,0.210399 -0.033,0.0663 -0.068,0.1322015 -0.102,0.1980005 -0.034,0.0659 -0.069,0.131599 -0.10398,0.197001 -0.036,0.0671 -0.072,0.133998 -0.10901,0.200599 -0.034,0.0627 -0.069,0.125101 -0.10401,0.1875 -0.039,0.0681 -0.077,0.1362 -0.11599,0.203801 -0.034,0.0588 -0.069,0.116998 -0.10401,0.1754 -0.041,0.0695 -0.082,0.139099 -0.12398,0.207999 l -0.005,0.0071 c -0.11501,0.1881 -0.23302,0.373801 -0.35401,0.557702 -0.032,0.049 -0.064,0.0982 -0.097,0.146799 -0.048,0.0717 -0.097,0.1426 -0.146,0.213601 -0.034,0.0499 -0.068,0.0999 -0.103,0.1495 -0.05,0.071 -0.10099,0.1416 -0.151,0.211899 -0.034,0.0472 -0.069,0.0942 -0.103,0.1411 -0.053,0.072 -0.10599,0.143701 -0.15999,0.2149 -0.032,0.0424 -0.065,0.0843 -0.097,0.1265 -0.057,0.0744 -0.11499,0.148802 -0.17299,0.222401 -0.0209,0.0271 -0.043,0.0538 -0.065,0.0808 -0.21698,0.2711 -0.441,0.536498 -0.67098,0.7957 -0.0251,0.0279 -0.05,0.056 -0.075,0.0838 -0.067,0.0753 -0.136,0.149799 -0.205,0.223998 -0.029,0.0316 -0.058,0.0632 -0.088,0.0946 -0.069,0.0739 -0.13901,0.147199 -0.21,0.219999 -0.027,0.028 -0.054,0.0559 -0.081,0.0838 -0.075,0.0762 -0.15,0.1519 -0.22598,0.226801 -0.018,0.01781 -0.036,0.0353 -0.054,0.053 -0.362,0.3551 -0.73699,0.696499 -1.125,1.0233 -0.0161,0.01349 -0.032,0.0271 -0.048,0.0406 -0.088,0.0737 -0.17701,0.1465 -0.26601,0.218699 l -0.064,0.0511 c -0.09,0.0721 -0.18,0.143399 -0.27099,0.213799 l -0.05,0.0385 c -0.52099,0.3999 -1.061,0.7747 -1.61999,1.122501 l -0.03,0.01839 c -0.107,0.0662 -0.214,0.131302 -0.322,0.1954 l -0.035,0.0205 c -0.69401,0.409898 -1.41399,0.778899 -2.158,1.10380003 l -0.018,0.0076 c -0.122,0.053 -0.244,0.104802 -0.367,0.155401 l -0.0119,0.005 c -0.757,0.310899 -1.53699,0.576501 -2.33699,0.793401 l -0.022,0.0058 c -0.13099,0.0354 -0.26199,0.0694 -0.39399,0.102201 v 0 c 1.53998,0.381799 3.15,0.585798 4.80799,0.585798 10.99902,0 19.915,-8.91619903 19.915,-19.91490053 0,-10.998706 -8.91598,-19.914907 -19.915,-19.914907 z"
         id="path9180"
         style="clip-rule:evenodd;fill:#e6e6e6;fill-rule:evenodd;stroke-width:0.00268817;image-rendering:optimizeQuality;shape-rendering:geometricPrecision;text-rendering:geometricPrecision" />
      <path
         class="fil13"
         d="m 354.09998,-38.977691 c -1.41099,0 -2.781,0.204 -4.09101,0.5859 v 0 c 0.113,0.0327 0.224,0.0668 0.33599,0.1021 l 0.018,0.0058 c 0.68098,0.2172 1.34498,0.4824 1.988,0.7934 l 0.0111,0.005 c 0.10398,0.0507 0.20899,0.1025 0.312,0.1555 l 0.0151,0.0076 c 0.63299,0.325 1.24597,0.6937 1.83599,1.1037 l 0.03,0.0206 c 0.092,0.0641 0.18298,0.1292 0.27397,0.1953 l 0.0251,0.0185 c 0.47601,0.3479 0.93601,0.7225 1.37901,1.122401 0.014,0.0129 0.028,0.0256 0.043,0.0385 0.077,0.0705 0.15402,0.1418 0.23,0.213801 l 0.054,0.0511 c 0.076,0.0722 0.152,0.145001 0.22701,0.218801 0.014,0.0134 0.027,0.027 0.041,0.0405 0.33002,0.3269 0.649,0.6682 0.957,1.0234 0.0151,0.0177 0.031,0.0352 0.046,0.053 0.065,0.0748 0.12801,0.1506 0.19201,0.2267 0.023,0.0279 0.046,0.0558 0.069,0.0839 0.06,0.0728 0.12001,0.1461 0.17901,0.22 0.0251,0.0314 0.05,0.063 0.075,0.0945 0.058,0.0742 0.11702,0.1488 0.17401,0.2241 0.0209,0.0277 0.042,0.0558 0.063,0.0837 0.19701,0.2593 0.38701,0.5246 0.572,0.7957 0.018,0.0271 0.037,0.0537 0.055,0.0809 0.05,0.0735 0.098,0.148 0.147,0.2224 0.028,0.0421 0.055,0.0841 0.083,0.1265 0.045,0.0712 0.091,0.1429 0.136,0.2149 0.029,0.0469 0.058,0.0939 0.087,0.1411 0.043,0.0703 0.086,0.1408 0.12899,0.2118 0.029,0.0497 0.059,0.0996 0.088,0.1496 0.042,0.0709 0.083,0.1419 0.12401,0.2135 0.028,0.0487 0.055,0.0979 0.082,0.1468 0.103,0.184 0.204,0.3696 0.302,0.5578 l 0.004,0.007 c 0.035,0.0689 0.07,0.1386 0.10498,0.208 0.03,0.0584 0.059,0.1167 0.088,0.1754 0.034,0.0676 0.066,0.1357 0.099,0.2038 0.03,0.0624 0.06,0.1248 0.089,0.1876 0.032,0.0665 0.062,0.1335 0.093,0.2005 0.03,0.0655 0.059,0.1312 0.088,0.1971 0.029,0.0658 0.059,0.1317 0.087,0.1979 0.03,0.0699 0.06,0.1402 0.089,0.2104 0.027,0.0634 0.053,0.1267 0.079,0.1905 0.036,0.0863 0.07,0.1731 0.104,0.2601 0.029,0.0749 0.058,0.1497 0.087,0.225 0.039,0.104204 0.079,0.208504 0.117,0.313604 0.0209,0.0585 0.041,0.1174 0.062,0.1761 0.028,0.081 0.057,0.1619 0.084,0.2433 0.0209,0.062 0.042,0.1243 0.062,0.1865 0.0259,0.0796 0.052,0.1594 0.078,0.2395 0.019,0.0625 0.039,0.1252 0.058,0.188 0.0259,0.0824 0.05,0.1652 0.075,0.2481 0.0169,0.0603 0.035,0.1207 0.053,0.181301 0.0259,0.0919 0.051,0.1844 0.076,0.2769 0.014,0.0522 0.029,0.1042 0.043,0.1567 0.037,0.1419 0.073,0.2845 0.108,0.4279 0.009,0.037 0.0169,0.0743 0.0259,0.111399 0.0259,0.11 0.052,0.220101 0.076,0.330901 0.013,0.0566 0.0241,0.1135 0.036,0.1703 0.0201,0.0929 0.04,0.1858 0.058,0.2791 0.0119,0.0603 0.0241,0.1207 0.036,0.1812 0.0169,0.0913 0.034,0.1829 0.051,0.2747 0.01,0.0609 0.0209,0.1218 0.032,0.1828 0.0159,0.0956 0.031,0.1915 0.046,0.2875 0.009,0.0564 0.019,0.1127 0.027,0.1692 0.018,0.1169 0.034,0.2344 0.05,0.352 0.004,0.0356 0.0101,0.0711 0.014,0.1068 0.0201,0.1526 0.039,0.3057 0.055,0.4596 0.005,0.044 0.009,0.0883 0.013,0.1324 0.0119,0.1118 0.023,0.2236 0.033,0.3359 0.005,0.0567 0.01,0.1136 0.014,0.1705 0.008,0.1005 0.0161,0.2013 0.023,0.3022 0.004,0.0609 0.008,0.1217 0.0119,0.1827 0.006,0.0995 0.0111,0.1992 0.0161,0.299 0.003,0.0597 0.006,0.1193 0.008,0.1792 0.004,0.1075 0.008,0.2155 0.0111,0.3235 0,0.0517 0.003,0.1034 0.004,0.1552 0.003,0.1592 0.005,0.3187 0.005,0.4787 0,0.1601 -0.003,0.3197 -0.005,0.4788 0,0.0518 -0.003,0.1034 -0.004,0.1552 -0.003,0.1079 -0.007,0.2159 -0.0111,0.3235 -0.003,0.0598 -0.005,0.1195 -0.008,0.1791 -0.005,0.0999 -0.0101,0.199501 -0.0161,0.299 -0.004,0.061 -0.008,0.121899 -0.0119,0.1827 -0.007,0.101 -0.0151,0.2017 -0.023,0.3023 -0.004,0.0569 -0.009,0.1138 -0.014,0.1705 -0.0101,0.1123 -0.0209,0.2241 -0.033,0.335802 -0.004,0.0441 -0.008,0.0884 -0.013,0.132498 -0.0169,0.153701 -0.035,0.307001 -0.055,0.459599 -0.004,0.0357 -0.01,0.0711 -0.014,0.106802 -0.0161,0.117599 -0.032,0.235 -0.05,0.351999 -0.008,0.0565 -0.018,0.1128 -0.027,0.169101 -0.0151,0.0961 -0.03,0.191899 -0.046,0.287498 -0.0111,0.0611 -0.022,0.122002 -0.032,0.182902 -0.0169,0.0918 -0.034,0.1833 -0.051,0.274701 -0.0119,0.0604 -0.0241,0.120898 -0.036,0.181099 -0.018,0.0934 -0.038,0.186298 -0.058,0.279098 -0.0119,0.0568 -0.023,0.1138 -0.036,0.170403 -0.0241,0.110699 -0.05,0.2208 -0.076,0.330898 -0.009,0.0371 -0.0169,0.0744 -0.0259,0.1114 -0.035,0.143301 -0.071,0.286002 -0.108,0.4279 -0.014,0.0524 -0.029,0.1044 -0.043,0.1567 -0.0249,0.0925 -0.05,0.184901 -0.076,0.276802 -0.018,0.0607 -0.036,0.120999 -0.053,0.181398 -0.0249,0.0829 -0.049,0.1656 -0.075,0.2481 -0.019,0.0628 -0.039,0.125402 -0.058,0.188002 -0.0259,0.08 -0.052,0.159798 -0.078,0.239498 -0.0201,0.0622 -0.041,0.1245 -0.062,0.186402 -0.027,0.0814 -0.056,0.162298 -0.084,0.2433 -0.0209,0.0588 -0.041,0.1177 -0.062,0.176099 -0.039,0.1051 -0.078,0.2096 -0.117,0.3137 -0.029,0.0752 -0.058,0.150199 -0.087,0.224899 -0.034,0.087 -0.068,0.1739 -0.104,0.260101 -0.0259,0.0638 -0.052,0.127101 -0.079,0.1905 -0.029,0.0703 -0.059,0.1406 -0.089,0.210399 -0.028,0.0663 -0.058,0.1322015 -0.087,0.1980005 -0.029,0.0659 -0.058,0.131599 -0.088,0.197001 -0.031,0.0671 -0.061,0.133998 -0.093,0.200599 -0.029,0.0627 -0.059,0.125101 -0.089,0.1875 -0.033,0.0681 -0.065,0.1362 -0.099,0.203801 -0.029,0.0588 -0.058,0.116998 -0.088,0.1754 -0.035,0.0695 -0.07,0.139099 -0.10498,0.207999 l -0.004,0.0071 c -0.098,0.1881 -0.199,0.373801 -0.302,0.557702 -0.027,0.049 -0.054,0.0982 -0.082,0.146799 -0.041,0.0717 -0.082,0.1426 -0.12401,0.213601 -0.029,0.0499 -0.059,0.0999 -0.088,0.1495 -0.043,0.071 -0.086,0.1416 -0.12899,0.211899 -0.029,0.0472 -0.058,0.0942 -0.087,0.1411 -0.045,0.072 -0.091,0.143701 -0.136,0.2149 -0.028,0.0424 -0.055,0.0843 -0.083,0.1265 -0.049,0.0744 -0.097,0.148802 -0.147,0.222401 -0.018,0.0271 -0.037,0.0538 -0.055,0.0808 -0.18499,0.2711 -0.37499,0.536498 -0.572,0.7957 -0.0209,0.0279 -0.042,0.056 -0.063,0.0838 -0.057,0.0753 -0.11599,0.149799 -0.17401,0.223998 -0.0249,0.0316 -0.05,0.0632 -0.075,0.0946 -0.059,0.0739 -0.11901,0.147199 -0.17901,0.219999 -0.023,0.028 -0.046,0.0559 -0.069,0.0838 -0.064,0.0762 -0.127,0.1519 -0.19201,0.226801 -0.0151,0.01781 -0.031,0.0353 -0.046,0.053 -0.308,0.3551 -0.62698,0.696499 -0.957,1.0233 -0.014,0.01349 -0.027,0.0271 -0.041,0.0406 -0.075,0.0737 -0.151,0.1465 -0.22701,0.218699 l -0.054,0.0511 c -0.076,0.0721 -0.153,0.143399 -0.23,0.213799 l -0.043,0.0385 c -0.443,0.3999 -0.903,0.7747 -1.37901,1.122501 l -0.0251,0.01839 c -0.091,0.0662 -0.18198,0.131302 -0.27397,0.1954 l -0.03,0.0205 c -0.59002,0.409898 -1.203,0.778899 -1.83599,1.10380003 l -0.0151,0.0076 c -0.10301,0.053 -0.20802,0.104802 -0.312,0.155401 l -0.0111,0.005 c -0.644,0.310899 -1.30702,0.576501 -1.988,0.793401 l -0.018,0.0058 c -0.11199,0.0354 -0.22299,0.0694 -0.33599,0.102201 v 0 c 1.31001,0.381799 2.68002,0.585798 4.09101,0.585798 9.358,0 16.944,-8.91619903 16.944,-19.91490053 0,-10.998706 -7.586,-19.914907 -16.944,-19.914907 z"
         id="path9182"
         style="clip-rule:evenodd;fill:#cccccc;fill-rule:evenodd;stroke-width:0.00268817;image-rendering:optimizeQuality;shape-rendering:geometricPrecision;text-rendering:geometricPrecision" />
    </g>
    <g
       id="g1251"
       transform="translate(-186.03153,93.450657)">
      <path
         class="fil15"
         d="m 230.24797,-15.600386 v 0 c -1.983,0 -3.60601,1.6227 -3.60601,3.606001 v 4.1489015 c 0,1.983201 1.62301,3.605901 3.60601,3.605901 v 0 c 1.984,0 3.60598,-1.6227 3.60598,-3.605901 v -4.1489015 c 0,-1.983301 -1.62198,-3.606001 -3.60598,-3.606001 z"
         id="path9614"
         style="clip-rule:evenodd;fill:#ffb973;fill-rule:evenodd;stroke-width:0.00268817;image-rendering:optimizeQuality;shape-rendering:geometricPrecision;text-rendering:geometricPrecision" />
      <path
         class="fil80"
         d="m 215.31296,-11.066483 h -3.394 c -1.478,0 -2.687,1.2089995 -2.687,2.6867985 v 6.057302 c 0,1.47770003 1.209,2.68679803 2.687,2.68679803 h 3.394 c 1.477,0 2.68599,-1.209098 2.68599,-2.68679803 v -6.057302 c 0,-1.477799 -1.20899,-2.6867985 -2.68599,-2.6867985 z"
         id="path9616"
         style="clip-rule:evenodd;fill:#9966cc;fill-rule:evenodd;stroke-width:0.00268817;image-rendering:optimizeQuality;shape-rendering:geometricPrecision;text-rendering:geometricPrecision" />
      <path
         class="fil80"
         d="m 225.98897,-11.066483 h -3.39402 c -1.47799,0 -2.68698,1.2089995 -2.68698,2.6867985 v 6.057302 c 0,1.47770003 1.20899,2.68679803 2.68698,2.68679803 h 3.39402 c 1.47799,0 2.687,-1.209098 2.687,-2.68679803 v -6.057302 c 0,-1.477799 -1.20901,-2.6867985 -2.687,-2.6867985 z"
         id="path9618"
         style="clip-rule:evenodd;fill:#9966cc;fill-rule:evenodd;stroke-width:0.00268817;image-rendering:optimizeQuality;shape-rendering:geometricPrecision;text-rendering:geometricPrecision" />
      <path
         class="fil61"
         d="m 223.19296,-33.718891 h -9.822 c -5.232,0 -9.513,4.280801 -9.513,9.512805 v 11.637902 c 0,5.2319995 4.281,9.5127995 9.513,9.5127995 h 9.822 c 5.232,0 9.51201,-4.2808 9.51201,-9.5127995 v -11.637902 c 0,-5.232004 -4.28001,-9.512805 -9.51201,-9.512805 z"
         id="path9620"
         style="clip-rule:evenodd;fill:#ffcc99;fill-rule:evenodd;stroke-width:0.00268817;image-rendering:optimizeQuality;shape-rendering:geometricPrecision;text-rendering:geometricPrecision" />
      <path
         class="fil62"
         d="m 216.44696,-33.706491 h -3.102 c -5.232,0 -9.513,4.245801 -9.513,9.435205 v 5.707301 6.085802 c 0,5.1893995 4.281,9.4351995 9.513,9.4351995 h 2.766 c -1.977,-1.732201 -3.229,-4.262101 -3.229,-7.0684015 v -16.246101 c 0,-2.961904 1.395,-5.615905 3.565,-7.349005 z"
         id="path9622"
         style="clip-rule:evenodd;fill:#b3a4b6;fill-rule:evenodd;stroke-width:0.00268817;image-rendering:optimizeQuality;shape-rendering:geometricPrecision;text-rendering:geometricPrecision" />
      <path
         class="fil62"
         d="m 220.56697,-33.681791 h 2.715 c 5.232,0 9.51198,4.245901 9.51198,9.435305 v 11.793001 c 0,5.1893995 -4.27998,9.4352005 -9.51198,9.4352005 h -2.715 c 5.23198,0 9.51198,-4.245801 9.51198,-9.4352005 v -11.793001 c 0,-5.189404 -4.28,-9.435305 -9.51198,-9.435305 z"
         id="path9624"
         style="clip-rule:evenodd;fill:#b3a4b6;fill-rule:evenodd;stroke-width:0.00268817;image-rendering:optimizeQuality;shape-rendering:geometricPrecision;text-rendering:geometricPrecision" />
      <path
         class="fil15"
         d="m 225.11997,-11.123384 h -8.69501 c -1.123,0 -2.042,0.919101 -2.042,2.0423995 v 0 c 0,1.123299 0.919,2.042301 2.042,2.042301 h 8.69501 c 1.12398,0 2.04299,-0.919002 2.04299,-2.042301 v 0 c 0,-1.1232985 -0.91901,-2.0423995 -2.04299,-2.0423995 z"
         id="path9626"
         style="clip-rule:evenodd;fill:#ffb973;fill-rule:evenodd;stroke-width:0.00268817;image-rendering:optimizeQuality;shape-rendering:geometricPrecision;text-rendering:geometricPrecision" />
      <path
         class="fil15"
         d="m 223.03596,-6.6438835 h -5.71 c -0.738,0 -1.341,0.603499 -1.341,1.3412 v 0 c 0,0.7376 0.603,1.341098 1.341,1.341098 h 5.71 c 0.73699,0 1.34101,-0.603498 1.34101,-1.341098 v 0 c 0,-0.737701 -0.60402,-1.3412 -1.34101,-1.3412 z"
         id="path9628"
         style="clip-rule:evenodd;fill:#ffb973;fill-rule:evenodd;stroke-width:0.00268817;image-rendering:optimizeQuality;shape-rendering:geometricPrecision;text-rendering:geometricPrecision" />
      <path
         class="fil37"
         d="m 223.25797,-33.752591 h -9.82201 c -5.232,0 -9.433,4.246501 -9.513,9.435205 l -0.091,5.902401 9.174,-0.0058 c 0.443,5.495501 10.142,9.0038015 18.847,10.0477995 1.87801,-3.8223985 0.918,-10.4673995 0.918,-15.9443995 0,-5.189405 -4.28099,-9.435206 -9.51299,-9.435206 z"
         id="path9630"
         style="clip-rule:evenodd;fill:#cc3300;fill-rule:evenodd;stroke-width:0.00268817;image-rendering:optimizeQuality;shape-rendering:geometricPrecision;text-rendering:geometricPrecision" />
      <path
         class="fil10"
         d="m 216.81396,-33.829191 h -3.196 c -5.389,0 -9.811,4.275301 -9.799,9.500605 l 0.013,5.913601 8.053,-0.005 2.355,0.0132 -1.098,-8.022501 c -0.405,-2.954905 1.437,-5.654705 3.672,-7.399905 z"
         id="path9632"
         style="clip-rule:evenodd;fill:#990000;fill-rule:evenodd;stroke-width:0.00268817;image-rendering:optimizeQuality;shape-rendering:geometricPrecision;text-rendering:geometricPrecision" />
      <path
         class="fil4"
         d="m 239.39395,-8.5608845 h -35.60999 c -0.751,0 -1.365,0.6145 -1.365,1.365602 v 0 c 0,0.751099 0.614,1.365599 1.365,1.365599 h 35.60999 c 0.75102,0 1.36602,-0.6145 1.36602,-1.365599 v 0 c 0,-0.751102 -0.615,-1.365602 -1.36602,-1.365602 z"
         id="path9634"
         style="clip-rule:evenodd;fill:#996633;fill-rule:evenodd;stroke-width:0.00268817;image-rendering:optimizeQuality;shape-rendering:geometricPrecision;text-rendering:geometricPrecision" />
      <path
         class="fil29"
         d="m 202.46596,-6.8259855 c 0.173,0.573 0.737,0.996101 1.401,0.996101 h 35.42899 c 0.69401,0 1.27802,-0.4616 1.42201,-1.073499 -0.151,0.05 -0.31301,0.0774 -0.482,0.0774 z"
         id="path9636"
         style="clip-rule:evenodd;fill:#813d09;fill-rule:evenodd;stroke-width:0.00268817;image-rendering:optimizeQuality;shape-rendering:geometricPrecision;text-rendering:geometricPrecision" />
      <path
         class="fil64"
         d="m 238.95496,-6.3187845 v -4.6396005 c 0,-1.3764 -1.12599,-2.5024 -2.50299,-2.5024 v 0 c -1.37602,0 -2.502,1.126 -2.502,2.5024 v 4.6396005 c 0,1.3764 1.12598,2.502501 2.502,2.502501 v 0 c 1.377,0 2.50299,-1.126101 2.50299,-2.502501 z"
         id="path9638"
         style="clip-rule:evenodd;fill:#b3b3b3;fill-rule:evenodd;stroke-width:0.00268817;image-rendering:optimizeQuality;shape-rendering:geometricPrecision;text-rendering:geometricPrecision" />
      <path
         class="fil64"
         d="m 239.50397,-4.5906845 -2.39202,-5.3486 -3.73197,5.3486 c -0.87403,1.253302 -2.90402,1.225502 -2.90402,2.723401 v 0 c 0,1.49790103 1.30699,2.72349903 2.90402,2.72349903 h 6.12399 c 1.597,0 2.90399,-1.225598 2.90399,-2.72349903 v 0 c 0,-1.497899 -2.286,-1.3422 -2.90399,-2.723401 z"
         id="path9640"
         style="clip-rule:evenodd;fill:#b3b3b3;fill-rule:evenodd;stroke-width:0.00268817;image-rendering:optimizeQuality;shape-rendering:geometricPrecision;text-rendering:geometricPrecision" />
      <path
         class="fil5"
         d="m 230.52896,-2.3793845 c -0.034,0.166002 -0.053,0.337201 -0.053,0.512101 v 0 c 0,1.49790103 1.30699,2.72349903 2.90402,2.72349903 h 6.12399 c 1.597,0 2.90399,-1.225598 2.90399,-2.72349903 v 0 c 0,-0.1749 -0.018,-0.346099 -0.052,-0.512101 -0.25699,1.255302 -1.44101,2.21140103 -2.852,2.21140103 h -6.12399 c -1.41002,0 -2.59401,-0.95609903 -2.85102,-2.21140103 z"
         id="path9642"
         style="clip-rule:evenodd;fill:#cccccc;fill-rule:evenodd;stroke-width:0.00268817;image-rendering:optimizeQuality;shape-rendering:geometricPrecision;text-rendering:geometricPrecision" />
      <path
         class="fil61"
         d="m 207.35296,-15.566985 v 0 c -1.984,0 -3.606,1.6226 -3.606,3.6058 v 4.1489995 c 0,1.9832 1.622,3.605901 3.606,3.605901 v 0 c 1.983,0 3.606,-1.622701 3.606,-3.605901 v -4.1489995 c 0,-1.9832 -1.623,-3.6058 -3.606,-3.6058 z"
         id="path9644"
         style="clip-rule:evenodd;fill:#ffcc99;fill-rule:evenodd;stroke-width:0.00268817;image-rendering:optimizeQuality;shape-rendering:geometricPrecision;text-rendering:geometricPrecision" />
      <path
         class="fil10"
         d="m 223.69197,-43.501992 h -9.39601 c -2.602,0 -4.731,2.1291 -4.731,4.731301 v 0 c 0,2.6022 2.129,4.7312 4.731,4.7312 h 9.39601 c 2.60199,0 4.73199,-2.129 4.73199,-4.7312 v 0 c 0,-2.602201 -2.13,-4.731301 -4.73199,-4.731301 z"
         id="path9646"
         style="clip-rule:evenodd;fill:#990000;fill-rule:evenodd;stroke-width:0.00268817;image-rendering:optimizeQuality;shape-rendering:geometricPrecision;text-rendering:geometricPrecision" />
      <path
         class="fil13"
         d="m 227.39097,-38.096491 h -17.02401 c -4.714,0 -8.571,3.8573 -8.571,8.572001 v 0 c 0,4.714604 3.857,8.572005 8.571,8.572005 h 17.02401 c 4.714,0 8.572,-3.857401 8.572,-8.572005 v 0 c 0,-4.714701 -3.858,-8.572001 -8.572,-8.572001 z"
         id="path9648"
         style="clip-rule:evenodd;fill:#cccccc;fill-rule:evenodd;stroke-width:0.00268817;image-rendering:optimizeQuality;shape-rendering:geometricPrecision;text-rendering:geometricPrecision" />
      <path
         class="fil81"
         d="m 214.66296,-38.061791 h -4.315 c -4.714,0 -8.572,3.8574 -8.572,8.572001 v 0 c 0,4.714604 3.858,8.572005 8.572,8.572005 h 4.022 c -2.154,-2.1685 -3.49,-5.150601 -3.49,-8.429705 v 0 c 0,-3.425101 1.458,-6.525901 3.783,-8.714201 z"
         id="path9650"
         style="clip-rule:evenodd;fill:#969696;fill-rule:evenodd;stroke-width:0.00268817;image-rendering:optimizeQuality;shape-rendering:geometricPrecision;text-rendering:geometricPrecision" />
      <path
         class="fil61"
         d="m 227.87596,-27.51589 h -11.886 c -2.62199,0 -4.768,2.145804 -4.768,4.768605 v 0 c 0,2.6228 2.14601,4.7686 4.768,4.7686 h 11.886 c 2.623,0 4.769,-2.1458 4.769,-4.7686 v 0 c 0,-2.622801 -2.146,-4.768605 -4.769,-4.768605 z"
         id="path9652"
         style="clip-rule:evenodd;fill:#ffcc99;fill-rule:evenodd;stroke-width:0.00268817;image-rendering:optimizeQuality;shape-rendering:geometricPrecision;text-rendering:geometricPrecision" />
      <path
         class="fil18"
         d="m 227.34196,-24.993586 v 0 c -0.95501,0 -1.73699,0.7819 -1.73699,1.737701 v 1.9995 c 0,0.9558 0.78198,1.7377 1.73699,1.7377 v 0 c 0.956,0 1.738,-0.7819 1.738,-1.7377 v -1.9995 c 0,-0.955801 -0.782,-1.737701 -1.738,-1.737701 z"
         id="path9654"
         style="clip-rule:evenodd;fill:#333333;fill-rule:evenodd;stroke-width:0.00268817;image-rendering:optimizeQuality;shape-rendering:geometricPrecision;text-rendering:geometricPrecision" />
      <path
         class="fil18"
         d="m 217.86795,-24.993586 v 0 c -0.956,0 -1.738,0.7819 -1.738,1.737701 v 1.9995 c 0,0.9558 0.782,1.7377 1.738,1.7377 v 0 c 0.95602,0 1.73802,-0.7819 1.73802,-1.7377 v -1.9995 c 0,-0.955801 -0.782,-1.737701 -1.73802,-1.737701 z"
         id="path9656"
         style="clip-rule:evenodd;fill:#333333;fill-rule:evenodd;stroke-width:0.00268817;image-rendering:optimizeQuality;shape-rendering:geometricPrecision;text-rendering:geometricPrecision" />
    </g>
    <g
       id="g1325"
       transform="translate(-48.238216,228.90825)">
      <path
         class="fil15"
         d="m 92.425953,-15.600386 v 0 c -1.984,0 -3.60601,1.6227 -3.60601,3.606001 v 4.1489015 c 0,1.983201 1.62201,3.605901 3.60601,3.605901 v 0 c 1.983,0 3.605,-1.6227 3.605,-3.605901 v -4.1489015 c 0,-1.983301 -1.622,-3.606001 -3.605,-3.606001 z"
         id="path10444"
         style="clip-rule:evenodd;fill:#ffb973;fill-rule:evenodd;stroke-width:0.00268817;image-rendering:optimizeQuality;shape-rendering:geometricPrecision;text-rendering:geometricPrecision" />
      <path
         class="fil80"
         d="m 77.489943,-11.066483 h -3.394 c -1.478,0 -2.687,1.2089995 -2.687,2.6867985 v 6.057302 c 0,1.47770003 1.209,2.68679803 2.687,2.68679803 h 3.394 c 1.478,0 2.687,-1.209098 2.687,-2.68679803 v -6.057302 c 0,-1.477799 -1.209,-2.6867985 -2.687,-2.6867985 z"
         id="path10446"
         style="clip-rule:evenodd;fill:#9966cc;fill-rule:evenodd;stroke-width:0.00268817;image-rendering:optimizeQuality;shape-rendering:geometricPrecision;text-rendering:geometricPrecision" />
      <path
         class="fil80"
         d="m 88.165953,-11.066483 h -3.39401 c -1.477,0 -2.686,1.2089995 -2.686,2.6867985 v 6.057302 c 0,1.47770003 1.209,2.68679803 2.686,2.68679803 h 3.39401 c 1.47799,0 2.687,-1.209098 2.687,-2.68679803 v -6.057302 c 0,-1.477799 -1.20901,-2.6867985 -2.687,-2.6867985 z"
         id="path10448"
         style="clip-rule:evenodd;fill:#9966cc;fill-rule:evenodd;stroke-width:0.00268817;image-rendering:optimizeQuality;shape-rendering:geometricPrecision;text-rendering:geometricPrecision" />
      <path
         class="fil61"
         d="m 85.369943,-34.471591 h -9.822 c -5.232,0 -9.513,4.280801 -9.513,9.512805 v 11.637902 c 0,5.2321005 4.281,9.5127995 9.513,9.5127995 h 9.822 c 5.23201,0 9.51301,-4.280699 9.51301,-9.5127995 v -11.637902 c 0,-5.232004 -4.281,-9.512805 -9.51301,-9.512805 z"
         id="path10450"
         style="clip-rule:evenodd;fill:#ffcc99;fill-rule:evenodd;stroke-width:0.00268817;image-rendering:optimizeQuality;shape-rendering:geometricPrecision;text-rendering:geometricPrecision" />
      <path
         class="fil62"
         d="m 78.623953,-34.459191 h -3.10201 c -5.232,0 -9.513,4.245801 -9.513,9.435205 v 5.707301 6.085802 c 0,5.1893995 4.281,9.4351995 9.513,9.4351995 h 2.767 c -1.97699,-1.7322 -3.23,-4.262101 -3.23,-7.0684015 V -27.11019 c 0,-2.9619 1.395,-5.615901 3.56501,-7.349001 z"
         id="path10452"
         style="clip-rule:evenodd;fill:#b3a4b6;fill-rule:evenodd;stroke-width:0.00268817;image-rendering:optimizeQuality;shape-rendering:geometricPrecision;text-rendering:geometricPrecision" />
      <path
         class="fil62"
         d="m 82.743943,-34.434491 h 2.71501 c 5.232,0 9.513,4.245901 9.513,9.435305 v 11.793002 c 0,5.1893985 -4.281,9.4353005 -9.513,9.4353005 h -2.71501 c 5.23201,0 9.51301,-4.245902 9.51301,-9.4353005 v -11.793002 c 0,-5.189404 -4.281,-9.435305 -9.51301,-9.435305 z"
         id="path10454"
         style="clip-rule:evenodd;fill:#b3a4b6;fill-rule:evenodd;stroke-width:0.00268817;image-rendering:optimizeQuality;shape-rendering:geometricPrecision;text-rendering:geometricPrecision" />
      <path
         class="fil15"
         d="m 87.296953,-11.876084 h -8.694 c -1.124,0 -2.04301,0.919099 -2.04301,2.0423995 v 0 c 0,1.1233 0.91901,2.042401 2.04301,2.042401 h 8.694 c 1.124,0 2.043,-0.919101 2.043,-2.042401 v 0 c 0,-1.1233005 -0.919,-2.0423995 -2.043,-2.0423995 z"
         id="path10456"
         style="clip-rule:evenodd;fill:#ffb973;fill-rule:evenodd;stroke-width:0.00268817;image-rendering:optimizeQuality;shape-rendering:geometricPrecision;text-rendering:geometricPrecision" />
      <path
         class="fil15"
         d="m 85.212953,-7.3965835 h -5.71001 c -0.737,0 -1.341,0.603499 -1.341,1.3412 v 0 c 0,0.7376 0.604,1.341099 1.341,1.341099 h 5.71001 c 0.737,0 1.34099,-0.603499 1.34099,-1.341099 v 0 c 0,-0.737701 -0.60399,-1.3412 -1.34099,-1.3412 z"
         id="path10458"
         style="clip-rule:evenodd;fill:#ffb973;fill-rule:evenodd;stroke-width:0.00268817;image-rendering:optimizeQuality;shape-rendering:geometricPrecision;text-rendering:geometricPrecision" />
      <path
         class="fil37"
         d="m 85.434953,-34.505291 h -9.822 c -5.23201,0 -9.43201,4.246501 -9.51301,9.435205 l -0.091,5.902401 9.174,-0.0058 c 0.443,5.495501 10.142,9.003802 18.84701,10.0477995 1.879,-3.8223975 0.918,-10.4673995 0.918,-15.9443995 0,-5.189305 -4.281,-9.435206 -9.513,-9.435206 z"
         id="path10460"
         style="clip-rule:evenodd;fill:#cc3300;fill-rule:evenodd;stroke-width:0.00268817;image-rendering:optimizeQuality;shape-rendering:geometricPrecision;text-rendering:geometricPrecision" />
      <path
         class="fil10"
         d="m 78.990943,-34.581891 h -3.195 c -5.38999,0 -9.812,4.2753 -9.8,9.500605 l 0.013,5.913601 8.054,-0.0049 3.309,0.0131 -2.053,-8.022504 c -0.739,-2.889301 1.437,-5.654701 3.672,-7.399902 z"
         id="path10462"
         style="clip-rule:evenodd;fill:#990000;fill-rule:evenodd;stroke-width:0.00268817;image-rendering:optimizeQuality;shape-rendering:geometricPrecision;text-rendering:geometricPrecision" />
      <path
         class="fil4"
         d="M 101.57095,-8.5608845 H 65.961943 c -0.751,0 -1.366,0.6145 -1.366,1.365602 v 0 c 0,0.751099 0.615,1.365599 1.366,1.365599 h 35.609007 c 0.751,0 1.366,-0.6145 1.366,-1.365599 v 0 c 0,-0.751102 -0.615,-1.365602 -1.366,-1.365602 z"
         id="path10464"
         style="clip-rule:evenodd;fill:#996633;fill-rule:evenodd;stroke-width:0.00268817;image-rendering:optimizeQuality;shape-rendering:geometricPrecision;text-rendering:geometricPrecision" />
      <path
         class="fil29"
         d="m 64.642943,-6.8259855 c 0.173,0.573 0.737,0.996101 1.402,0.996101 h 35.428007 c 0.694,0 1.279,-0.4616 1.422,-1.073499 -0.151,0.05 -0.313,0.0774 -0.481,0.0774 z"
         id="path10466"
         style="clip-rule:evenodd;fill:#813d09;fill-rule:evenodd;stroke-width:0.00268817;image-rendering:optimizeQuality;shape-rendering:geometricPrecision;text-rendering:geometricPrecision" />
      <path
         class="fil64"
         d="m 101.13195,-6.3187845 v -4.6396005 c 0,-1.3764 -1.126,-2.5024 -2.501997,-2.5024 v 0 c -1.377,0 -2.503,1.126 -2.503,2.5024 v 4.6396005 c 0,1.3764 1.126,2.502501 2.503,2.502501 v 0 c 1.375997,0 2.501997,-1.126101 2.501997,-2.502501 z"
         id="path10468"
         style="clip-rule:evenodd;fill:#b3b3b3;fill-rule:evenodd;stroke-width:0.00268817;image-rendering:optimizeQuality;shape-rendering:geometricPrecision;text-rendering:geometricPrecision" />
      <path
         class="fil64"
         d="m 101.68195,-4.5906845 -2.392997,-5.3486 -3.732,5.3486 c -0.874,1.253302 -2.903,1.225502 -2.903,2.723401 v 0 c 0,1.49790103 1.306,2.72349903 2.903,2.72349903 h 6.124997 c 1.597,0 2.903,-1.225598 2.903,-2.72349903 v 0 c 0,-1.497899 -2.286,-1.3422 -2.903,-2.723401 z"
         id="path10470"
         style="clip-rule:evenodd;fill:#b3b3b3;fill-rule:evenodd;stroke-width:0.00268817;image-rendering:optimizeQuality;shape-rendering:geometricPrecision;text-rendering:geometricPrecision" />
      <path
         class="fil5"
         d="m 92.705953,-2.3793845 c -0.034,0.166002 -0.052,0.337201 -0.052,0.512101 v 0 c 0,1.49790103 1.306,2.72349903 2.903,2.72349903 h 6.124997 c 1.597,0 2.903,-1.225598 2.903,-2.72349903 v 0 c 0,-0.1749 -0.018,-0.346099 -0.052,-0.512101 -0.257,1.255302 -1.441,2.21140103 -2.851,2.21140103 h -6.124997 c -1.41,0 -2.594,-0.95609903 -2.851,-2.21140103 z"
         id="path10472"
         style="clip-rule:evenodd;fill:#cccccc;fill-rule:evenodd;stroke-width:0.00268817;image-rendering:optimizeQuality;shape-rendering:geometricPrecision;text-rendering:geometricPrecision" />
      <path
         class="fil61"
         d="m 69.529943,-15.566985 v 0 c -1.983,0 -3.606,1.6226 -3.606,3.6058 v 4.1489995 c 0,1.9832 1.623,3.605901 3.606,3.605901 v 0 c 1.983,0 3.606,-1.622701 3.606,-3.605901 v -4.1489995 c 0,-1.9832 -1.623,-3.6058 -3.606,-3.6058 z"
         id="path10474"
         style="clip-rule:evenodd;fill:#ffcc99;fill-rule:evenodd;stroke-width:0.00268817;image-rendering:optimizeQuality;shape-rendering:geometricPrecision;text-rendering:geometricPrecision" />
      <path
         class="fil10"
         d="m 85.869953,-44.254692 h -9.39601 c -2.603,0 -4.732,2.1291 -4.732,4.731301 v 0 c 0,2.6022 2.129,4.7312 4.732,4.7312 h 9.39601 c 2.602,0 4.731,-2.129 4.731,-4.7312 v 0 c 0,-2.602201 -2.129,-4.731301 -4.731,-4.731301 z"
         id="path10476"
         style="clip-rule:evenodd;fill:#990000;fill-rule:evenodd;stroke-width:0.00268817;image-rendering:optimizeQuality;shape-rendering:geometricPrecision;text-rendering:geometricPrecision" />
      <path
         class="fil13"
         d="m 89.567953,-38.849191 h -17.023 c -4.71501,0 -8.57201,3.8573 -8.57201,8.572001 v 0 c 0,4.714604 3.857,8.572005 8.57201,8.572005 h 17.023 c 4.715,0 8.572,-3.857401 8.572,-8.572005 v 0 c 0,-4.714701 -3.857,-8.572001 -8.572,-8.572001 z"
         id="path10478"
         style="clip-rule:evenodd;fill:#cccccc;fill-rule:evenodd;stroke-width:0.00268817;image-rendering:optimizeQuality;shape-rendering:geometricPrecision;text-rendering:geometricPrecision" />
      <path
         class="fil81"
         d="m 76.839943,-38.814491 h -4.314 c -4.715,0 -8.572,3.8574 -8.572,8.572001 v 0 c 0,4.714604 3.857,8.572005 8.572,8.572005 h 4.02101 c -2.15401,-2.168501 -3.48901,-5.150601 -3.48901,-8.429705 v 0 c 0,-3.425101 1.45701,-6.525901 3.782,-8.714201 z"
         id="path10480"
         style="clip-rule:evenodd;fill:#969696;fill-rule:evenodd;stroke-width:0.00268817;image-rendering:optimizeQuality;shape-rendering:geometricPrecision;text-rendering:geometricPrecision" />
      <path
         class="fil61"
         d="m 90.053953,-28.26859 h -11.88601 c -2.623,0 -4.769,2.145904 -4.769,4.768604 v 0 c 0,2.622801 2.146,4.768701 4.769,4.768701 h 11.88601 c 2.623,0 4.769,-2.1459 4.769,-4.768701 v 0 c 0,-2.6227 -2.146,-4.768604 -4.769,-4.768604 z"
         id="path10482"
         style="clip-rule:evenodd;fill:#ffcc99;fill-rule:evenodd;stroke-width:0.00268817;image-rendering:optimizeQuality;shape-rendering:geometricPrecision;text-rendering:geometricPrecision" />
      <path
         class="fil18"
         d="m 76.698943,-26.736886 v 0 c 0.377,-0.377404 0.995,-0.377404 1.372,0 l 5.381,5.380601 c 0.37701,0.3773 0.37701,0.9948 0,1.3722 v 0 c -0.377,0.3774 -0.995,0.3774 -1.372,0 l -5.381,-5.380601 c -0.377,-0.3773 -0.377,-0.9948 0,-1.3722 z"
         id="path10484"
         style="clip-rule:evenodd;fill:#333333;fill-rule:evenodd;stroke-width:0.00268817;image-rendering:optimizeQuality;shape-rendering:geometricPrecision;text-rendering:geometricPrecision" />
      <path
         class="fil18"
         d="m 83.451943,-26.736886 v 0 c -0.377,-0.377404 -0.995,-0.377404 -1.372,0 l -5.381,5.380601 c -0.377,0.3773 -0.377,0.9948 0,1.3722 v 0 c 0.377,0.3774 0.995,0.3774 1.372,0 l 5.381,-5.380601 c 0.37701,-0.3773 0.37701,-0.9948 0,-1.3722 z"
         id="path10486"
         style="clip-rule:evenodd;fill:#333333;fill-rule:evenodd;stroke-width:0.00268817;image-rendering:optimizeQuality;shape-rendering:geometricPrecision;text-rendering:geometricPrecision" />
      <path
         class="fil18"
         d="m 86.130943,-26.736886 v 0 c 0.377,-0.377404 0.995,-0.377404 1.372,0 l 5.381,5.380601 c 0.377,0.3773 0.377,0.9948 0,1.3722 v 0 c -0.37799,0.3774 -0.995,0.3774 -1.37299,0 l -5.38001,-5.380601 c -0.37699,-0.3773 -0.37699,-0.9948 0,-1.3722 z"
         id="path10488"
         style="clip-rule:evenodd;fill:#333333;fill-rule:evenodd;stroke-width:0.00268817;image-rendering:optimizeQuality;shape-rendering:geometricPrecision;text-rendering:geometricPrecision" />
      <path
         class="fil18"
         d="m 92.883943,-26.736886 v 0 c -0.37799,-0.377404 -0.995,-0.377404 -1.37299,0 l -5.38001,5.380601 c -0.37699,0.3773 -0.37699,0.9948 0,1.3722 v 0 c 0.377,0.3774 0.995,0.3774 1.372,0 l 5.381,-5.380601 c 0.377,-0.3773 0.377,-0.9948 0,-1.3722 z"
         id="path10490"
         style="clip-rule:evenodd;fill:#333333;fill-rule:evenodd;stroke-width:0.00268817;image-rendering:optimizeQuality;shape-rendering:geometricPrecision;text-rendering:geometricPrecision" />
    </g>
    <g
       id="g1351"
       transform="translate(71.185407,228.07818)">
      <path
         class="fil15"
         d="m 39.980944,-24.844786 v 0 c -1.402,1.402401 -1.402,3.697201 0,5.099601 l 2.933999,2.933701 c 1.402001,1.402299 3.697002,1.4024 5.099,0 v 0 c 1.403001,-1.402401 1.403001,-3.697201 0,-5.099601 l -2.932999,-2.933701 c -1.403001,-1.4024 -3.698002,-1.4024 -5.1,0 z"
         id="path10492"
         style="clip-rule:evenodd;fill:#ffb973;fill-rule:evenodd;stroke-width:0.00268817;image-rendering:optimizeQuality;shape-rendering:geometricPrecision;text-rendering:geometricPrecision" />
      <path
         class="fil80"
         d="m 32.625943,-11.077683 -2.400001,2.3996985 c -1.045001,1.045001 -1.045001,2.7548 0,3.7997 l 4.283001,4.28320203 c 1.045001,1.044898 2.755,1.044898 3.799999,0 l 2.400001,-2.39980203 c 1.045001,-1.044898 1.045001,-2.7548 0,-3.7997 l -4.284001,-4.2830985 c -1.043999,-1.045001 -2.754001,-1.045001 -3.798999,0 z"
         id="path10494"
         style="clip-rule:evenodd;fill:#9966cc;fill-rule:evenodd;stroke-width:0.00268817;image-rendering:optimizeQuality;shape-rendering:geometricPrecision;text-rendering:geometricPrecision" />
      <path
         class="fil80"
         d="m 40.174942,-18.627085 -2.399998,2.399801 c -1.045001,1.0449 -1.045001,2.754699 0,3.7997 l 4.283998,4.2831005 c 1.044001,1.044998 2.754003,1.044998 3.799001,0 l 2.400001,-2.3997015 c 1.045001,-1.044998 1.045001,-2.754799 0,-3.7997 l -4.283,-4.2832 c -1.045001,-1.0449 -2.755001,-1.0449 -3.800002,0 z"
         id="path10496"
         style="clip-rule:evenodd;fill:#9966cc;fill-rule:evenodd;stroke-width:0.00268817;image-rendering:optimizeQuality;shape-rendering:geometricPrecision;text-rendering:geometricPrecision" />
      <path
         class="fil61"
         d="m 21.647941,-33.199591 -6.945,6.945105 c -3.700002,3.699601 -3.700002,9.753501 0,13.453101 l 8.228999,8.2293005 c 3.700003,3.69960003 9.754003,3.69960003 13.453002,0 l 6.945003,-6.9449995 c 3.699999,-3.6996 3.699999,-9.753501 0,-13.453102 l -8.229002,-8.229305 c -3.7,-3.6996 -9.754002,-3.6996 -13.453002,0 z"
         id="path10498"
         style="clip-rule:evenodd;fill:#ffcc99;fill-rule:evenodd;stroke-width:0.00268817;image-rendering:optimizeQuality;shape-rendering:geometricPrecision;text-rendering:geometricPrecision" />
      <path
         class="fil62"
         d="m 16.886942,-28.42089 -2.194002,2.193604 c -3.7,3.699601 -3.724,9.728801 -0.055,13.398302 l 4.035999,4.0356995 4.303001,4.3032 c 3.670001,3.66950003 9.699,3.64480203 13.398002,-0.0548 l 1.956999,-1.956501 c -2.623,0.173299 -5.297001,-0.7302 -7.282,-2.714501 L 19.56194,-20.703685 c -2.094,-2.0943 -2.984,-4.957301 -2.674998,-7.717205 z"
         id="path10500"
         style="clip-rule:evenodd;fill:#b3a4b6;fill-rule:evenodd;stroke-width:0.00268817;image-rendering:optimizeQuality;shape-rendering:geometricPrecision;text-rendering:geometricPrecision" />
      <path
         class="fil62"
         d="m 19.81694,-31.316491 1.920002,-1.9198 c 3.699999,-3.6996 9.728999,-3.7243 13.398,-0.0548 l 8.339002,8.338905 c 3.669999,3.669501 3.645001,9.6986 -0.055,13.398301 l -1.918999,1.9197995 c 3.698999,-3.6995995 3.724,-9.7287995 0.054,-13.3983005 l -8.338,-8.338905 c -3.670001,-3.6695 -9.699001,-3.6448 -13.399003,0.0548 z"
         id="path10502"
         style="clip-rule:evenodd;fill:#b3a4b6;fill-rule:evenodd;stroke-width:0.00268817;image-rendering:optimizeQuality;shape-rendering:geometricPrecision;text-rendering:geometricPrecision" />
      <path
         class="fil15"
         d="m 38.987942,-18.585185 -6.147999,6.148102 c -0.794001,0.794398 -0.794001,2.094098 0,2.8883975 v 0 c 0.794999,0.794401 2.094,0.794401 2.888999,0 l 6.148001,-6.1480985 c 0.794002,-0.7943 0.794002,-2.0941 0,-2.888401 v 0 c -0.794999,-0.7943 -2.094,-0.7943 -2.889001,0 z"
         id="path10504"
         style="clip-rule:evenodd;fill:#ffb973;fill-rule:evenodd;stroke-width:0.00268817;image-rendering:optimizeQuality;shape-rendering:geometricPrecision;text-rendering:geometricPrecision" />
      <path
         class="fil15"
         d="m 40.681942,-13.943583 -4.036999,4.0370985 c -0.521999,0.5216 -0.521999,1.375101 0,1.8967 v 0 c 0.520999,0.5216 1.375,0.5216 1.896001,0 l 4.037,-4.0371995 c 0.521999,-0.5216 0.521999,-1.375 0,-1.896599 v 0 c -0.520999,-0.521603 -1.375,-0.521603 -1.896002,0 z"
         id="path10506"
         style="clip-rule:evenodd;fill:#ffb973;fill-rule:evenodd;stroke-width:0.00268817;image-rendering:optimizeQuality;shape-rendering:geometricPrecision;text-rendering:geometricPrecision" />
      <path
         class="fil37"
         d="m 21.669941,-33.269491 -6.945,6.945005 c -3.700002,3.699701 -3.667,9.672501 -0.055,13.398302 l 4.109,4.2381985 6.483001,-6.4909985 c 4.199001,3.572499 13.538001,-0.805101 20.432003,-6.222201 -1.375,-4.031001 -6.753,-8.050405 -10.626003,-11.923206 -3.668998,-3.6694 -9.698,-3.6447 -13.398,0.0549 z"
         id="path10508"
         style="clip-rule:evenodd;fill:#cc3300;fill-rule:evenodd;stroke-width:0.00268817;image-rendering:optimizeQuality;shape-rendering:geometricPrecision;text-rendering:geometricPrecision" />
      <path
         class="fil10"
         d="m 17.059939,-28.76739 -2.259999,2.259804 c -3.811,3.811201 -3.915,9.960802 -0.212,13.647402 l 4.191,4.1721985 5.691002,-5.6981985 2.35,-2.330601 -7.125001,-4.2213 c -2.565001,-1.520301 -2.982,-5.014601 -2.635002,-7.829305 z"
         id="path10510"
         style="clip-rule:evenodd;fill:#990000;fill-rule:evenodd;stroke-width:0.00268817;image-rendering:optimizeQuality;shape-rendering:geometricPrecision;text-rendering:geometricPrecision" />
      <path
         class="fil4"
         d="M 51.425944,-26.334086 26.245942,-1.1543825 c -0.531,0.53109803 -0.531,1.40009803 0,1.93119903 v 0 c 0.531,0.53099997 1.4,0.53099997 1.931001,0 l 25.18,-25.17970253 c 0.531,-0.5311 0.531,-1.4001 0,-1.9312 v 0 c -0.531,-0.5311 -1.399999,-0.5311 -1.930999,0 z"
         id="path10512"
         style="clip-rule:evenodd;fill:#996633;fill-rule:evenodd;stroke-width:0.00268817;image-rendering:optimizeQuality;shape-rendering:geometricPrecision;text-rendering:geometricPrecision" />
      <path
         class="fil29"
         d="m 26.539942,1.0048165 c 0.528,0.2829 1.225999,0.1832 1.696,-0.28669997 L 53.286943,-24.333686 c 0.491,-0.4907 0.578,-1.2304 0.247,-1.7647 -0.071,0.1422 -0.167,0.2761 -0.286,0.3953 z"
         id="path10514"
         style="clip-rule:evenodd;fill:#813d09;fill-rule:evenodd;stroke-width:0.00268817;image-rendering:optimizeQuality;shape-rendering:geometricPrecision;text-rendering:geometricPrecision" />
      <path
         class="fil64"
         d="m 52.699943,-24.438086 -3.279999,-3.280704 c -0.973,-0.9732 -2.566,-0.9732 -3.539,0 v 0 c -0.973,0.973304 -0.973,2.565804 0,3.539004 l 3.28,3.280701 c 0.974,0.9732 2.566,0.9732 3.538999,0 v 0 c 0.974,-0.9733 0.974,-2.565801 0,-3.539001 z"
         id="path10516"
         style="clip-rule:evenodd;fill:#b3b3b3;fill-rule:evenodd;stroke-width:0.00268817;image-rendering:optimizeQuality;shape-rendering:geometricPrecision;text-rendering:geometricPrecision" />
      <path
         class="fil64"
         d="m 54.310943,-23.604786 -5.473998,-2.0903 1.144,6.420701 c 0.266999,1.504601 -1.187,2.919799 -0.128,3.979 v 0 c 1.059,1.059201 2.849998,1.0018 3.978998,-0.1275 l 4.331,-4.3304 c 1.129,-1.1293 1.186,-2.9198 0.127,-3.979 v 0 c -1.059,-1.059201 -2.565,0.6673 -3.979,0.127499 z"
         id="path10518"
         style="clip-rule:evenodd;fill:#b3b3b3;fill-rule:evenodd;stroke-width:0.00268817;image-rendering:optimizeQuality;shape-rendering:geometricPrecision;text-rendering:geometricPrecision" />
      <path
         class="fil5"
         d="m 49.527944,-15.694384 c 0.093,0.141499 0.200999,0.275299 0.325001,0.398999 v 0 c 1.059,1.059201 2.849998,1.0018 3.978998,-0.1275 l 4.331,-4.3304 c 1.129,-1.1293 1.186,-2.9198 0.127,-3.979 v 0 c -0.124,-0.123701 -0.258,-0.232001 -0.399,-0.325301 0.706,1.0696 0.545,2.582601 -0.453,3.580101 l -4.33,4.330401 c -0.996998,0.9974 -2.510997,1.158399 -3.579999,0.4527 z"
         id="path10520"
         style="clip-rule:evenodd;fill:#cccccc;fill-rule:evenodd;stroke-width:0.00268817;image-rendering:optimizeQuality;shape-rendering:geometricPrecision;text-rendering:geometricPrecision" />
      <path
         class="fil61"
         d="m 23.814942,-8.6315845 v 0 c -1.402,1.4023 -1.402,3.6971 0,5.0995 l 2.933999,2.93370003 c 1.402001,1.4024 3.697002,1.4024 5.099,0 v 0 c 1.403001,-1.40240003 1.403001,-3.69720003 0,-5.09960003 l -2.933999,-2.9337 c -1.402001,-1.4022995 -3.697002,-1.4022995 -5.099,0 z"
         id="path10522"
         style="clip-rule:evenodd;fill:#ffcc99;fill-rule:evenodd;stroke-width:0.00268817;image-rendering:optimizeQuality;shape-rendering:geometricPrecision;text-rendering:geometricPrecision" />
      <path
         class="fil10"
         d="m 15.083941,-40.470592 -6.644002,6.643801 c -1.84,1.840001 -1.84,4.851001 0,6.691001 v 0 c 1.84,1.840004 4.851,1.840004 6.691,0 l 6.644002,-6.643801 c 1.84,-1.8401 1.84,-4.851 0,-6.691001 v 0 c -1.839999,-1.8401 -4.851,-1.8401 -6.691,0 z"
         id="path10524"
         style="clip-rule:evenodd;fill:#990000;fill-rule:evenodd;stroke-width:0.00268817;image-rendering:optimizeQuality;shape-rendering:geometricPrecision;text-rendering:geometricPrecision" />
      <path
         class="fil13"
         d="M 21.520941,-39.263591 9.48394,-27.22639 c -3.334002,3.333704 -3.334002,8.788905 0,12.122606 v 0 c 3.333001,3.3337 8.789,3.3337 12.122001,0 L 33.643943,-27.14109 c 3.332999,-3.3337 3.332999,-8.788901 0,-12.122601 v 0 c -3.334001,-3.333701 -8.789,-3.333701 -12.123002,0 z"
         id="path10526"
         style="clip-rule:evenodd;fill:#cccccc;fill-rule:evenodd;stroke-width:0.00268817;image-rendering:optimizeQuality;shape-rendering:geometricPrecision;text-rendering:geometricPrecision" />
      <path
         class="fil81"
         d="m 12.545941,-30.23909 -3.051,3.0507 c -3.334001,3.333704 -3.334001,8.788905 0,12.122605 v 0 c 3.333999,3.3337 8.789001,3.3337 12.121999,0 l 2.844001,-2.8438 c -3.056001,-0.0103 -6.109002,-1.1744 -8.428,-3.4931 v 0 c -2.422002,-2.421901 -3.584001,-5.645101 -3.487,-8.836405 z"
         id="path10528"
         style="clip-rule:evenodd;fill:#969696;fill-rule:evenodd;stroke-width:0.00268817;image-rendering:optimizeQuality;shape-rendering:geometricPrecision;text-rendering:geometricPrecision" />
      <path
         class="fil61"
         d="m 36.090694,-25.38159 -8.405003,8.404705 c -1.854999,1.8546 -4.89,1.8546 -6.743999,0 v 0 c -1.855002,-1.854601 -1.855002,-4.889401 0,-6.744005 l 8.405,-8.4047 c 1.854002,-1.854602 4.889,-1.854602 6.744002,0 v 0 c 1.853999,1.854599 1.853999,4.889399 0,6.744 z"
         id="path10530"
         style="clip-rule:evenodd;fill:#ffcc99;fill-rule:evenodd;stroke-width:0.00268817;image-rendering:optimizeQuality;shape-rendering:geometricPrecision;text-rendering:geometricPrecision" />
      <path
         class="fil18"
         d="m 25.563693,-17.021285 v 0 c 0.533998,0 0.969999,-0.4366 0.969999,-0.9703 v -7.609306 c 0,-0.5337 -0.436001,-0.9703 -0.969999,-0.9703 v 0 c -0.534001,0 -0.970002,0.4366 -0.970002,0.9703 v 7.609306 c 0,0.5337 0.436001,0.9703 0.970002,0.9703 z"
         id="path10532"
         style="clip-rule:evenodd;fill:#333333;fill-rule:evenodd;stroke-width:0.00268817;image-rendering:optimizeQuality;shape-rendering:geometricPrecision;text-rendering:geometricPrecision" />
      <path
         class="fil18"
         d="m 30.338692,-21.796286 v 0 c 0,0.5337 -0.436999,0.9703 -0.97,0.9703 h -7.610001 c -0.533001,0 -0.97,-0.4366 -0.97,-0.9703 v 0 c 0,-0.533604 0.436999,-0.970304 0.97,-0.970304 h 7.610001 c 0.533001,0 0.97,0.4367 0.97,0.970304 z"
         id="path10534"
         style="clip-rule:evenodd;fill:#333333;fill-rule:evenodd;stroke-width:0.00268817;image-rendering:optimizeQuality;shape-rendering:geometricPrecision;text-rendering:geometricPrecision" />
      <path
         class="fil18"
         d="m 32.232693,-23.69059 v 0 c 0.534001,0 0.971,-0.4366 0.971,-0.9703 v -7.6093 c 0,-0.533601 -0.436999,-0.970301 -0.971,-0.970301 v 0 c -0.533,0 -0.97,0.4367 -0.97,0.970301 v 7.6093 c 0,0.5337 0.437,0.9703 0.97,0.9703 z"
         id="path10536"
         style="clip-rule:evenodd;fill:#333333;fill-rule:evenodd;stroke-width:0.00268817;image-rendering:optimizeQuality;shape-rendering:geometricPrecision;text-rendering:geometricPrecision" />
      <path
         class="fil18"
         d="m 37.007692,-28.465491 v 0 c 0,0.5336 -0.435999,0.9703 -0.97,0.9703 h -7.609001 c -0.533998,0 -0.971,-0.4367 -0.971,-0.9703 v 0 c 0,-0.5337 0.437002,-0.9704 0.971,-0.9704 h 7.609001 c 0.534001,0 0.97,0.4367 0.97,0.9704 z"
         id="path10538"
         style="clip-rule:evenodd;fill:#333333;fill-rule:evenodd;stroke-width:0.00268817;image-rendering:optimizeQuality;shape-rendering:geometricPrecision;text-rendering:geometricPrecision" />
    </g>
    <g
       id="g1377"
       transform="translate(188.21147,229.08241)">
      <path
         class="fil15"
         d="m -18.874062,-26.162586 v 0 c 0,1.9833 1.622999,3.605901 3.605998,3.605901 h 4.149 c 1.983002,0 3.606001,-1.622601 3.606001,-3.605901 v 0 c 0,-1.983204 -1.622999,-3.605904 -3.606001,-3.605904 h -4.149 c -1.982999,0 -3.605998,1.6227 -3.605998,3.605904 z"
         id="path10540"
         style="clip-rule:evenodd;fill:#ffb973;fill-rule:evenodd;stroke-width:0.00268817;image-rendering:optimizeQuality;shape-rendering:geometricPrecision;text-rendering:geometricPrecision" />
      <path
         class="fil80"
         d="m -14.340062,-11.226884 v 3.3937995 c 0,1.4777 1.208998,2.686801 2.687,2.686801 h 6.057 c 1.478,0 2.687,-1.209101 2.687,-2.686801 v -3.3937995 c 0,-1.477801 -1.209,-2.686802 -2.687,-2.686802 h -6.057 c -1.478002,0 -2.687,1.209001 -2.687,2.686802 z"
         id="path10542"
         style="clip-rule:evenodd;fill:#9966cc;fill-rule:evenodd;stroke-width:0.00268817;image-rendering:optimizeQuality;shape-rendering:geometricPrecision;text-rendering:geometricPrecision" />
      <path
         class="fil80"
         d="m -14.340062,-21.903285 v 3.3938 c 0,1.477801 1.208998,2.686802 2.687,2.686802 h 6.057 c 1.478,0 2.687,-1.209001 2.687,-2.686802 v -3.3938 c 0,-1.4777 -1.209,-2.686701 -2.687,-2.686701 h -6.057 c -1.478002,0 -2.687,1.209001 -2.687,2.686701 z"
         id="path10544"
         style="clip-rule:evenodd;fill:#9966cc;fill-rule:evenodd;stroke-width:0.00268817;image-rendering:optimizeQuality;shape-rendering:geometricPrecision;text-rendering:geometricPrecision" />
      <path
         class="fil61"
         d="m -37.745066,-19.106785 v 9.8218015 c 0,5.232001 4.281001,9.51280003 9.513001,9.51280003 h 11.638002 c 5.232,0 9.512001,-4.28079903 9.512001,-9.51280003 v -9.8218015 c 0,-5.232001 -4.280001,-9.512805 -9.512001,-9.512805 h -11.638002 c -5.232,0 -9.513001,4.280804 -9.513001,9.512805 z"
         id="path10546"
         style="clip-rule:evenodd;fill:#ffcc99;fill-rule:evenodd;stroke-width:0.00268817;image-rendering:optimizeQuality;shape-rendering:geometricPrecision;text-rendering:geometricPrecision" />
      <path
         class="fil62"
         d="m -37.733066,-12.361084 v 3.1021995 c 0,5.232101 4.246001,9.51280203 9.435001,9.51280203 h 5.708001 6.086001 c 5.189001,0 9.435,-4.28070103 9.435,-9.51280203 v -2.7668985 c -1.732,1.9772 -4.261998,3.2294985 -7.069,3.2294985 h -16.246002 c -2.962,0 -5.616001,-1.3948985 -7.349001,-3.5647995 z"
         id="path10548"
         style="clip-rule:evenodd;fill:#b3a4b6;fill-rule:evenodd;stroke-width:0.00268817;image-rendering:optimizeQuality;shape-rendering:geometricPrecision;text-rendering:geometricPrecision" />
      <path
         class="fil62"
         d="m -37.708066,-16.480784 v -2.715101 c 0,-5.232001 4.246001,-9.512805 9.435001,-9.512805 h 11.793003 c 5.19,0 9.434999,4.280804 9.434999,9.512805 v 2.715101 c 0,-5.232101 -4.244999,-9.512802 -9.434999,-9.512802 h -11.793003 c -5.189,0 -9.435001,4.280701 -9.435001,9.512802 z"
         id="path10550"
         style="clip-rule:evenodd;fill:#b3a4b6;fill-rule:evenodd;stroke-width:0.00268817;image-rendering:optimizeQuality;shape-rendering:geometricPrecision;text-rendering:geometricPrecision" />
      <path
         class="fil15"
         d="m -15.150063,-21.034485 v 8.6948 c 0,1.123302 0.918999,2.042401 2.042999,2.042401 v 0 c 1.123,0 2.042001,-0.919099 2.042001,-2.042401 v -8.6948 c 0,-1.123301 -0.919001,-2.042401 -2.042001,-2.042401 v 0 c -1.124,0 -2.042999,0.9191 -2.042999,2.042401 z"
         id="path10552"
         style="clip-rule:evenodd;fill:#ffb973;fill-rule:evenodd;stroke-width:0.00268817;image-rendering:optimizeQuality;shape-rendering:geometricPrecision;text-rendering:geometricPrecision" />
      <path
         class="fil15"
         d="m -10.670064,-18.949785 v 5.709401 c 0,0.7377 0.603002,1.341101 1.341001,1.341101 v 0 c 0.738,0 1.341001,-0.603401 1.341001,-1.341101 v -5.709401 c 0,-0.7376 -0.603001,-1.3411 -1.341001,-1.3411 v 0 c -0.737999,0 -1.341001,0.6035 -1.341001,1.3411 z"
         id="path10554"
         style="clip-rule:evenodd;fill:#ffb973;fill-rule:evenodd;stroke-width:0.00268817;image-rendering:optimizeQuality;shape-rendering:geometricPrecision;text-rendering:geometricPrecision" />
      <path
         class="fil37"
         d="m -37.779066,-19.171985 v 9.8218005 c 0,5.232001 4.247001,9.43250203 9.435001,9.51270203 l 5.903001,0.0914 -0.006,-9.17380203 c 5.495002,-0.443299 9.004001,-10.1424005 10.048002,-18.8473055 -3.823001,-1.8784 -10.468001,-0.9176 -15.945002,-0.9176 -5.189,0 -9.435001,4.280704 -9.435002,9.512805 z"
         id="path10556"
         style="clip-rule:evenodd;fill:#cc3300;fill-rule:evenodd;stroke-width:0.00268817;image-rendering:optimizeQuality;shape-rendering:geometricPrecision;text-rendering:geometricPrecision" />
      <path
         class="fil10"
         d="m -37.855066,-12.728384 v 3.1957005 c 0,5.389899 4.275001,9.81140103 9.500001,9.79979903 l 5.914001,-0.0132 -0.005,-8.05350103 0.013,-3.3091005 -8.023001,2.0525995 c -2.889,0.739299 -5.654,-1.4369995 -7.399001,-3.6722995 z"
         id="path10558"
         style="clip-rule:evenodd;fill:#990000;fill-rule:evenodd;stroke-width:0.00268817;image-rendering:optimizeQuality;shape-rendering:geometricPrecision;text-rendering:geometricPrecision" />
      <path
         class="fil4"
         d="M -11.834063,-35.308291 V 0.30121753 c 0,0.75109897 0.614,1.36559897 1.365001,1.36559897 v 0 c 0.750998,0 1.365999,-0.6145 1.365999,-1.36559897 V -35.308291 c 0,-0.7511 -0.615001,-1.3656 -1.365999,-1.3656 v 0 c -0.751001,0 -1.365001,0.6145 -1.365001,1.3656 z"
         id="path10560"
         style="clip-rule:evenodd;fill:#996633;fill-rule:evenodd;stroke-width:0.00268817;image-rendering:optimizeQuality;shape-rendering:geometricPrecision;text-rendering:geometricPrecision" />
      <path
         class="fil29"
         d="m -10.100064,1.6199165 c 0.573,-0.1729 0.997001,-0.73699897 0.997001,-1.40139997 V -35.210291 c 0,-0.694 -0.462,-1.2784 -1.074,-1.4221 0.05,0.151 0.077,0.3131 0.077,0.4817 z"
         id="path10562"
         style="clip-rule:evenodd;fill:#813d09;fill-rule:evenodd;stroke-width:0.00268817;image-rendering:optimizeQuality;shape-rendering:geometricPrecision;text-rendering:geometricPrecision" />
      <path
         class="fil64"
         d="m -9.592064,-34.868991 h -4.64 c -1.376,0 -2.501998,1.1261 -2.501998,2.5024 v 0 c 0,1.3763 1.125998,2.502401 2.501998,2.502401 h 4.64 c 1.376,0 2.502001,-1.126101 2.502001,-2.502401 v 0 c 0,-1.3763 -1.126001,-2.5024 -2.502001,-2.5024 z"
         id="path10564"
         style="clip-rule:evenodd;fill:#b3b3b3;fill-rule:evenodd;stroke-width:0.00268817;image-rendering:optimizeQuality;shape-rendering:geometricPrecision;text-rendering:geometricPrecision" />
      <path
         class="fil64"
         d="m -7.864062,-35.418691 -5.349002,2.3925 5.349002,3.731701 c 1.253001,0.8745 1.225,2.903704 2.722999,2.903704 v 0 c 1.498002,0 2.724002,-1.306604 2.724002,-2.903704 v -6.124201 c 0,-1.597 -1.226,-2.9036 -2.724002,-2.9036 v 0 c -1.497999,0 -1.341998,2.2858 -2.722999,2.9036 z"
         id="path10566"
         style="clip-rule:evenodd;fill:#b3b3b3;fill-rule:evenodd;stroke-width:0.00268817;image-rendering:optimizeQuality;shape-rendering:geometricPrecision;text-rendering:geometricPrecision" />
      <path
         class="fil5"
         d="m -5.653063,-26.442886 c 0.166002,0.0341 0.337002,0.0521 0.512,0.0521 v 0 c 1.498002,0 2.724002,-1.306604 2.724002,-2.903704 v -6.124201 c 0,-1.597 -1.226,-2.9036 -2.724002,-2.9036 v 0 c -0.174998,0 -0.345998,0.018 -0.512,0.0521 1.255,0.2572 2.211001,1.441 2.211001,2.8515 v 6.124201 c 0,1.4106 -0.956001,2.594304 -2.211001,2.851604 z"
         id="path10568"
         style="clip-rule:evenodd;fill:#cccccc;fill-rule:evenodd;stroke-width:0.00268817;image-rendering:optimizeQuality;shape-rendering:geometricPrecision;text-rendering:geometricPrecision" />
      <path
         class="fil61"
         d="m -18.841064,-3.2668845 v 0 c 0,1.983301 1.623,3.60590003 3.606001,3.60590003 h 4.149 c 1.983,0 3.606001,-1.62259903 3.606001,-3.60590003 v 0 c 0,-1.983301 -1.623001,-3.6059 -3.606001,-3.6059 h -4.149 c -1.983001,0 -3.606001,1.622599 -3.606001,3.6059 z"
         id="path10570"
         style="clip-rule:evenodd;fill:#ffcc99;fill-rule:evenodd;stroke-width:0.00268817;image-rendering:optimizeQuality;shape-rendering:geometricPrecision;text-rendering:geometricPrecision" />
      <path
         class="fil10"
         d="m -47.528067,-19.606585 v 9.395902 c 0,2.6021975 2.129,4.7312995 4.731001,4.7312995 v 0 c 2.602,0 4.731,-2.129102 4.731,-4.7312995 v -9.395902 c 0,-2.602101 -2.129,-4.731201 -4.731,-4.731201 v 0 c -2.602001,0 -4.731001,2.1291 -4.731001,4.731201 z"
         id="path10572"
         style="clip-rule:evenodd;fill:#990000;fill-rule:evenodd;stroke-width:0.00268817;image-rendering:optimizeQuality;shape-rendering:geometricPrecision;text-rendering:geometricPrecision" />
      <path
         class="fil13"
         d="m -42.123066,-23.304986 v 17.0232005 c 0,4.714603 3.858,8.572003 8.572001,8.572003 v 0 c 4.715,0 8.572001,-3.8574 8.572001,-8.572003 V -23.304986 c 0,-4.714604 -3.857001,-8.572004 -8.572001,-8.572004 v 0 c -4.714001,0 -8.572001,3.8574 -8.572001,8.572004 z"
         id="path10574"
         style="clip-rule:evenodd;fill:#cccccc;fill-rule:evenodd;stroke-width:0.00268817;image-rendering:optimizeQuality;shape-rendering:geometricPrecision;text-rendering:geometricPrecision" />
      <path
         class="fil81"
         d="m -42.088066,-10.577083 v 4.3143985 c 0,4.714502 3.857,8.571902 8.572001,8.571902 v 0 c 4.714,0 8.572001,-3.8574 8.572001,-8.571902 v -4.0217985 c -2.169001,2.1539985 -5.151001,3.4897975 -8.430001,3.4897975 v 0 c -3.425001,0 -6.526001,-1.4576 -8.714001,-3.7823975 z"
         id="path10576"
         style="clip-rule:evenodd;fill:#969696;fill-rule:evenodd;stroke-width:0.00268817;image-rendering:optimizeQuality;shape-rendering:geometricPrecision;text-rendering:geometricPrecision" />
      <path
         class="fil61"
         d="m -31.542065,-23.790989 v 11.886102 c 0,2.6228005 2.146,4.7687045 4.769001,4.7687045 v 0 c 2.622,0 4.768,-2.145904 4.768,-4.7687045 v -11.886102 c 0,-2.622798 -2.146,-4.768601 -4.768,-4.768601 v 0 c -2.623001,0 -4.769001,2.145803 -4.769001,4.768601 z"
         id="path10578"
         style="clip-rule:evenodd;fill:#ffcc99;fill-rule:evenodd;stroke-width:0.00268817;image-rendering:optimizeQuality;shape-rendering:geometricPrecision;text-rendering:geometricPrecision" />
      <path
         class="fil18"
         d="m -30.010065,-10.435887 v 0 c -0.378,-0.3774 -0.378,-0.9949 0,-1.3723 l 5.380001,-5.380501 c 0.377,-0.3774 0.995,-0.3774 1.372,0 v 0 c 0.378,0.3774 0.378,0.9949 0,1.3722 l -5.380001,5.380601 c -0.378,0.3774 -0.995,0.3774 -1.372,0 z"
         id="path10580"
         style="clip-rule:evenodd;fill:#333333;fill-rule:evenodd;stroke-width:0.00268817;image-rendering:optimizeQuality;shape-rendering:geometricPrecision;text-rendering:geometricPrecision" />
      <path
         class="fil18"
         d="m -30.010065,-17.188688 v 0 c -0.378,0.3774 -0.378,0.9949 0,1.3722 l 5.380001,5.380601 c 0.377,0.3774 0.995,0.3774 1.372,0 v 0 c 0.378,-0.3774 0.378,-0.9949 0,-1.3723 l -5.380001,-5.380501 c -0.378,-0.3774 -0.995,-0.3774 -1.372,0 z"
         id="path10582"
         style="clip-rule:evenodd;fill:#333333;fill-rule:evenodd;stroke-width:0.00268817;image-rendering:optimizeQuality;shape-rendering:geometricPrecision;text-rendering:geometricPrecision" />
      <path
         class="fil18"
         d="m -30.010065,-19.867689 v 0 c -0.378,-0.377399 -0.378,-0.9949 0,-1.372299 l 5.380001,-5.380499 c 0.377,-0.377402 0.995,-0.377402 1.372,0 v 0 c 0.378,0.377399 0.378,0.994898 0,1.372199 l -5.380001,5.380599 c -0.378,0.377401 -0.995,0.377401 -1.372,0 z"
         id="path10584"
         style="clip-rule:evenodd;fill:#333333;fill-rule:evenodd;stroke-width:0.00268817;image-rendering:optimizeQuality;shape-rendering:geometricPrecision;text-rendering:geometricPrecision" />
      <path
         class="fil18"
         d="m -30.010065,-26.620487 v 0 c -0.378,0.377399 -0.378,0.994898 0,1.372199 l 5.380001,5.380599 c 0.377,0.377401 0.995,0.377401 1.372,0 v 0 c 0.378,-0.377399 0.378,-0.9949 0,-1.372299 l -5.380001,-5.380499 c -0.378,-0.377402 -0.995,-0.377402 -1.372,0 z"
         id="path10586"
         style="clip-rule:evenodd;fill:#333333;fill-rule:evenodd;stroke-width:0.00268817;image-rendering:optimizeQuality;shape-rendering:geometricPrecision;text-rendering:geometricPrecision" />
    </g>
  </g>
</svg>
